%TF.GenerationSoftware,KiCad,Pcbnew,8.0.9-8.0.9-0~ubuntu24.04.1*%
%TF.CreationDate,2025-07-21T09:14:07-04:00*%
%TF.ProjectId,panel,70616e65-6c2e-46b6-9963-61645f706362,0.1.X*%
%TF.SameCoordinates,Original*%
%TF.FileFunction,Other,User*%
%FSLAX46Y46*%
G04 Gerber Fmt 4.6, Leading zero omitted, Abs format (unit mm)*
G04 Created by KiCad (PCBNEW 8.0.9-8.0.9-0~ubuntu24.04.1) date 2025-07-21 09:14:07*
%MOMM*%
%LPD*%
G01*
G04 APERTURE LIST*
%ADD10C,0.050000*%
G04 APERTURE END LIST*
D10*
%TO.C,C11*%
X90350000Y-36300000D02*
X94950000Y-36300000D01*
X90350000Y-38600000D02*
X90350000Y-36300000D01*
X94950000Y-36300000D02*
X94950000Y-38600000D01*
X94950000Y-38600000D02*
X90350000Y-38600000D01*
%TO.C,R2*%
X65470000Y-41980000D02*
X67330000Y-41980000D01*
X65470000Y-42920000D02*
X65470000Y-41980000D01*
X67330000Y-41980000D02*
X67330000Y-42920000D01*
X67330000Y-42920000D02*
X65470000Y-42920000D01*
%TO.C,Q3*%
X36155000Y-46700000D02*
X36155000Y-50100000D01*
X36155000Y-50100000D02*
X39995000Y-50100000D01*
X39995000Y-46700000D02*
X36155000Y-46700000D01*
X39995000Y-50100000D02*
X39995000Y-46700000D01*
%TO.C,C13*%
X84390000Y-34100000D02*
X86690000Y-34100000D01*
X84390000Y-38700000D02*
X84390000Y-34100000D01*
X86690000Y-34100000D02*
X86690000Y-38700000D01*
X86690000Y-38700000D02*
X84390000Y-38700000D01*
%TO.C,D4*%
X7305000Y-51150000D02*
X14305000Y-51150000D01*
X7305000Y-54650000D02*
X7305000Y-51150000D01*
X14305000Y-51150000D02*
X14305000Y-54650000D01*
X14305000Y-54650000D02*
X7305000Y-54650000D01*
%TO.C,C14*%
X40700000Y-34100000D02*
X43000000Y-34100000D01*
X40700000Y-38700000D02*
X40700000Y-34100000D01*
X43000000Y-34100000D02*
X43000000Y-38700000D01*
X43000000Y-38700000D02*
X40700000Y-38700000D01*
%TO.C,C11*%
X44350000Y-52300000D02*
X48950000Y-52300000D01*
X44350000Y-54600000D02*
X44350000Y-52300000D01*
X48950000Y-52300000D02*
X48950000Y-54600000D01*
X48950000Y-54600000D02*
X44350000Y-54600000D01*
%TO.C,Q2*%
X63080000Y-43000000D02*
X63080000Y-46400000D01*
X63080000Y-46400000D02*
X66920000Y-46400000D01*
X66920000Y-43000000D02*
X63080000Y-43000000D01*
X66920000Y-46400000D02*
X66920000Y-43000000D01*
%TO.C,C14*%
X86700000Y-18100000D02*
X89000000Y-18100000D01*
X86700000Y-22700000D02*
X86700000Y-18100000D01*
X89000000Y-18100000D02*
X89000000Y-22700000D01*
X89000000Y-22700000D02*
X86700000Y-22700000D01*
%TO.C,C3*%
X90375000Y-10000000D02*
X94975000Y-10000000D01*
X90375000Y-12300000D02*
X90375000Y-10000000D01*
X94975000Y-10000000D02*
X94975000Y-12300000D01*
X94975000Y-12300000D02*
X90375000Y-12300000D01*
%TO.C,R10*%
X89230000Y-34320000D02*
X90170000Y-34320000D01*
X89230000Y-36180000D02*
X89230000Y-34320000D01*
X90170000Y-34320000D02*
X90170000Y-36180000D01*
X90170000Y-36180000D02*
X89230000Y-36180000D01*
%TO.C,R2*%
X65470000Y-9980000D02*
X67330000Y-9980000D01*
X65470000Y-10920000D02*
X65470000Y-9980000D01*
X67330000Y-9980000D02*
X67330000Y-10920000D01*
X67330000Y-10920000D02*
X65470000Y-10920000D01*
%TO.C,Q3*%
X36155000Y-14700000D02*
X36155000Y-18100000D01*
X36155000Y-18100000D02*
X39995000Y-18100000D01*
X39995000Y-14700000D02*
X36155000Y-14700000D01*
X39995000Y-18100000D02*
X39995000Y-14700000D01*
%TO.C,R10*%
X20230000Y-34320000D02*
X21170000Y-34320000D01*
X20230000Y-36180000D02*
X20230000Y-34320000D01*
X21170000Y-34320000D02*
X21170000Y-36180000D01*
X21170000Y-36180000D02*
X20230000Y-36180000D01*
%TO.C,R8*%
X14430000Y-34120000D02*
X15370000Y-34120000D01*
X14430000Y-35980000D02*
X14430000Y-34120000D01*
X15370000Y-34120000D02*
X15370000Y-35980000D01*
X15370000Y-35980000D02*
X14430000Y-35980000D01*
%TO.C,C4*%
X67375000Y-28300000D02*
X71975000Y-28300000D01*
X67375000Y-30600000D02*
X67375000Y-28300000D01*
X71975000Y-28300000D02*
X71975000Y-30600000D01*
X71975000Y-30600000D02*
X67375000Y-30600000D01*
%TO.C,Q4*%
X63080000Y-14700000D02*
X63080000Y-18100000D01*
X63080000Y-18100000D02*
X66920000Y-18100000D01*
X66920000Y-14700000D02*
X63080000Y-14700000D01*
X66920000Y-18100000D02*
X66920000Y-14700000D01*
%TO.C,R5*%
X70220000Y-9030000D02*
X72080000Y-9030000D01*
X70220000Y-9970000D02*
X70220000Y-9030000D01*
X72080000Y-9030000D02*
X72080000Y-9970000D01*
X72080000Y-9970000D02*
X70220000Y-9970000D01*
%TO.C,R7*%
X89230000Y-68570000D02*
X90170000Y-68570000D01*
X89230000Y-70430000D02*
X89230000Y-68570000D01*
X90170000Y-68570000D02*
X90170000Y-70430000D01*
X90170000Y-70430000D02*
X89230000Y-70430000D01*
%TO.C,R10*%
X43230000Y-66320000D02*
X44170000Y-66320000D01*
X43230000Y-68180000D02*
X43230000Y-66320000D01*
X44170000Y-66320000D02*
X44170000Y-68180000D01*
X44170000Y-68180000D02*
X43230000Y-68180000D01*
%TO.C,C14*%
X86700000Y-34100000D02*
X89000000Y-34100000D01*
X86700000Y-38700000D02*
X86700000Y-34100000D01*
X89000000Y-34100000D02*
X89000000Y-38700000D01*
X89000000Y-38700000D02*
X86700000Y-38700000D01*
%TO.C,C10*%
X90350000Y-34000000D02*
X94950000Y-34000000D01*
X90350000Y-36300000D02*
X90350000Y-34000000D01*
X94950000Y-34000000D02*
X94950000Y-36300000D01*
X94950000Y-36300000D02*
X90350000Y-36300000D01*
%TO.C,C11*%
X67350000Y-36300000D02*
X71950000Y-36300000D01*
X67350000Y-38600000D02*
X67350000Y-36300000D01*
X71950000Y-36300000D02*
X71950000Y-38600000D01*
X71950000Y-38600000D02*
X67350000Y-38600000D01*
%TO.C,C5*%
X77550000Y-27000000D02*
X82150000Y-27000000D01*
X77550000Y-29300000D02*
X77550000Y-27000000D01*
X82150000Y-27000000D02*
X82150000Y-29300000D01*
X82150000Y-29300000D02*
X77550000Y-29300000D01*
%TO.C,R5*%
X47220000Y-57030000D02*
X49080000Y-57030000D01*
X47220000Y-57970000D02*
X47220000Y-57030000D01*
X49080000Y-57030000D02*
X49080000Y-57970000D01*
X49080000Y-57970000D02*
X47220000Y-57970000D01*
%TO.C,D4*%
X53305000Y-19150000D02*
X60305000Y-19150000D01*
X53305000Y-22650000D02*
X53305000Y-19150000D01*
X60305000Y-19150000D02*
X60305000Y-22650000D01*
X60305000Y-22650000D02*
X53305000Y-22650000D01*
%TO.C,C11*%
X21350000Y-52300000D02*
X25950000Y-52300000D01*
X21350000Y-54600000D02*
X21350000Y-52300000D01*
X25950000Y-52300000D02*
X25950000Y-54600000D01*
X25950000Y-54600000D02*
X21350000Y-54600000D01*
%TO.C,Q3*%
X13155000Y-62700000D02*
X13155000Y-66100000D01*
X13155000Y-66100000D02*
X16995000Y-66100000D01*
X16995000Y-62700000D02*
X13155000Y-62700000D01*
X16995000Y-66100000D02*
X16995000Y-62700000D01*
%TO.C,C5*%
X77550000Y-11000000D02*
X82150000Y-11000000D01*
X77550000Y-13300000D02*
X77550000Y-11000000D01*
X82150000Y-11000000D02*
X82150000Y-13300000D01*
X82150000Y-13300000D02*
X77550000Y-13300000D01*
%TO.C,C14*%
X17700000Y-34100000D02*
X20000000Y-34100000D01*
X17700000Y-38700000D02*
X17700000Y-34100000D01*
X20000000Y-34100000D02*
X20000000Y-38700000D01*
X20000000Y-38700000D02*
X17700000Y-38700000D01*
%TO.C,D3*%
X44780000Y-30600000D02*
X44780000Y-34000000D01*
X44780000Y-34000000D02*
X48620000Y-34000000D01*
X48620000Y-30600000D02*
X44780000Y-30600000D01*
X48620000Y-34000000D02*
X48620000Y-30600000D01*
%TO.C,R9*%
X37430000Y-68020000D02*
X38370000Y-68020000D01*
X37430000Y-69880000D02*
X37430000Y-68020000D01*
X38370000Y-68020000D02*
X38370000Y-69880000D01*
X38370000Y-69880000D02*
X37430000Y-69880000D01*
%TO.C,C12*%
X31550000Y-48700000D02*
X36150000Y-48700000D01*
X31550000Y-51000000D02*
X31550000Y-48700000D01*
X36150000Y-48700000D02*
X36150000Y-51000000D01*
X36150000Y-51000000D02*
X31550000Y-51000000D01*
%TO.C,C13*%
X15390000Y-66100000D02*
X17690000Y-66100000D01*
X15390000Y-70700000D02*
X15390000Y-66100000D01*
X17690000Y-66100000D02*
X17690000Y-70700000D01*
X17690000Y-70700000D02*
X15390000Y-70700000D01*
%TO.C,Q1*%
X13155000Y-11000000D02*
X13155000Y-14400000D01*
X13155000Y-14400000D02*
X16995000Y-14400000D01*
X16995000Y-11000000D02*
X13155000Y-11000000D01*
X16995000Y-14400000D02*
X16995000Y-11000000D01*
%TO.C,C13*%
X15390000Y-34100000D02*
X17690000Y-34100000D01*
X15390000Y-38700000D02*
X15390000Y-34100000D01*
X17690000Y-34100000D02*
X17690000Y-38700000D01*
X17690000Y-38700000D02*
X15390000Y-38700000D01*
%TO.C,C3*%
X44375000Y-42000000D02*
X48975000Y-42000000D01*
X44375000Y-44300000D02*
X44375000Y-42000000D01*
X48975000Y-42000000D02*
X48975000Y-44300000D01*
X48975000Y-44300000D02*
X44375000Y-44300000D01*
%TO.C,Q2*%
X86080000Y-43000000D02*
X86080000Y-46400000D01*
X86080000Y-46400000D02*
X89920000Y-46400000D01*
X89920000Y-43000000D02*
X86080000Y-43000000D01*
X89920000Y-46400000D02*
X89920000Y-43000000D01*
%TO.C,C6*%
X37750000Y-7650000D02*
X42350000Y-7650000D01*
X37750000Y-9950000D02*
X37750000Y-7650000D01*
X42350000Y-7650000D02*
X42350000Y-9950000D01*
X42350000Y-9950000D02*
X37750000Y-9950000D01*
%TO.C,C5*%
X54550000Y-43000000D02*
X59150000Y-43000000D01*
X54550000Y-45300000D02*
X54550000Y-43000000D01*
X59150000Y-43000000D02*
X59150000Y-45300000D01*
X59150000Y-45300000D02*
X54550000Y-45300000D01*
%TO.C,C6*%
X83750000Y-7650000D02*
X88350000Y-7650000D01*
X83750000Y-9950000D02*
X83750000Y-7650000D01*
X88350000Y-7650000D02*
X88350000Y-9950000D01*
X88350000Y-9950000D02*
X83750000Y-9950000D01*
%TO.C,R9*%
X14430000Y-20020000D02*
X15370000Y-20020000D01*
X14430000Y-21880000D02*
X14430000Y-20020000D01*
X15370000Y-20020000D02*
X15370000Y-21880000D01*
X15370000Y-21880000D02*
X14430000Y-21880000D01*
X37430000Y-20020000D02*
X38370000Y-20020000D01*
X37430000Y-21880000D02*
X37430000Y-20020000D01*
X38370000Y-20020000D02*
X38370000Y-21880000D01*
X38370000Y-21880000D02*
X37430000Y-21880000D01*
%TO.C,C3*%
X67375000Y-26000000D02*
X71975000Y-26000000D01*
X67375000Y-28300000D02*
X67375000Y-26000000D01*
X71975000Y-26000000D02*
X71975000Y-28300000D01*
X71975000Y-28300000D02*
X67375000Y-28300000D01*
%TO.C,C11*%
X67350000Y-52300000D02*
X71950000Y-52300000D01*
X67350000Y-54600000D02*
X67350000Y-52300000D01*
X71950000Y-52300000D02*
X71950000Y-54600000D01*
X71950000Y-54600000D02*
X67350000Y-54600000D01*
%TO.C,R3*%
X61270000Y-41980000D02*
X63130000Y-41980000D01*
X61270000Y-42920000D02*
X61270000Y-41980000D01*
X63130000Y-41980000D02*
X63130000Y-42920000D01*
X63130000Y-42920000D02*
X61270000Y-42920000D01*
%TO.C,R10*%
X66230000Y-18320000D02*
X67170000Y-18320000D01*
X66230000Y-20180000D02*
X66230000Y-18320000D01*
X67170000Y-18320000D02*
X67170000Y-20180000D01*
X67170000Y-20180000D02*
X66230000Y-20180000D01*
%TO.C,Q1*%
X36155000Y-43000000D02*
X36155000Y-46400000D01*
X36155000Y-46400000D02*
X39995000Y-46400000D01*
X39995000Y-43000000D02*
X36155000Y-43000000D01*
X39995000Y-46400000D02*
X39995000Y-43000000D01*
%TO.C,R2*%
X88470000Y-57980000D02*
X90330000Y-57980000D01*
X88470000Y-58920000D02*
X88470000Y-57980000D01*
X90330000Y-57980000D02*
X90330000Y-58920000D01*
X90330000Y-58920000D02*
X88470000Y-58920000D01*
%TO.C,C5*%
X8550000Y-11000000D02*
X13150000Y-11000000D01*
X8550000Y-13300000D02*
X8550000Y-11000000D01*
X13150000Y-11000000D02*
X13150000Y-13300000D01*
X13150000Y-13300000D02*
X8550000Y-13300000D01*
%TO.C,C14*%
X63700000Y-34100000D02*
X66000000Y-34100000D01*
X63700000Y-38700000D02*
X63700000Y-34100000D01*
X66000000Y-34100000D02*
X66000000Y-38700000D01*
X66000000Y-38700000D02*
X63700000Y-38700000D01*
%TO.C,D1*%
X30350000Y-39350000D02*
X37350000Y-39350000D01*
X30350000Y-42850000D02*
X30350000Y-39350000D01*
X37350000Y-39350000D02*
X37350000Y-42850000D01*
X37350000Y-42850000D02*
X30350000Y-42850000D01*
%TO.C,C4*%
X67375000Y-44300000D02*
X71975000Y-44300000D01*
X67375000Y-46600000D02*
X67375000Y-44300000D01*
X71975000Y-44300000D02*
X71975000Y-46600000D01*
X71975000Y-46600000D02*
X67375000Y-46600000D01*
%TO.C,Q3*%
X13155000Y-30700000D02*
X13155000Y-34100000D01*
X13155000Y-34100000D02*
X16995000Y-34100000D01*
X16995000Y-30700000D02*
X13155000Y-30700000D01*
X16995000Y-34100000D02*
X16995000Y-30700000D01*
%TO.C,D3*%
X67780000Y-14600000D02*
X67780000Y-18000000D01*
X67780000Y-18000000D02*
X71620000Y-18000000D01*
X71620000Y-14600000D02*
X67780000Y-14600000D01*
X71620000Y-18000000D02*
X71620000Y-14600000D01*
%TO.C,D2*%
X32230000Y-13300000D02*
X32230000Y-16700000D01*
X32230000Y-16700000D02*
X36070000Y-16700000D01*
X36070000Y-13300000D02*
X32230000Y-13300000D01*
X36070000Y-16700000D02*
X36070000Y-13300000D01*
%TO.C,Q4*%
X86080000Y-46700000D02*
X86080000Y-50100000D01*
X86080000Y-50100000D02*
X89920000Y-50100000D01*
X89920000Y-46700000D02*
X86080000Y-46700000D01*
X89920000Y-50100000D02*
X89920000Y-46700000D01*
%TO.C,C3*%
X67375000Y-58000000D02*
X71975000Y-58000000D01*
X67375000Y-60300000D02*
X67375000Y-58000000D01*
X71975000Y-58000000D02*
X71975000Y-60300000D01*
X71975000Y-60300000D02*
X67375000Y-60300000D01*
%TO.C,R3*%
X61270000Y-25980000D02*
X63130000Y-25980000D01*
X61270000Y-26920000D02*
X61270000Y-25980000D01*
X63130000Y-25980000D02*
X63130000Y-26920000D01*
X63130000Y-26920000D02*
X61270000Y-26920000D01*
%TO.C,C3*%
X21375000Y-26000000D02*
X25975000Y-26000000D01*
X21375000Y-28300000D02*
X21375000Y-26000000D01*
X25975000Y-26000000D02*
X25975000Y-28300000D01*
X25975000Y-28300000D02*
X21375000Y-28300000D01*
%TO.C,R8*%
X37430000Y-66120000D02*
X38370000Y-66120000D01*
X37430000Y-67980000D02*
X37430000Y-66120000D01*
X38370000Y-66120000D02*
X38370000Y-67980000D01*
X38370000Y-67980000D02*
X37430000Y-67980000D01*
%TO.C,D1*%
X7350000Y-7350000D02*
X14350000Y-7350000D01*
X7350000Y-10850000D02*
X7350000Y-7350000D01*
X14350000Y-7350000D02*
X14350000Y-10850000D01*
X14350000Y-10850000D02*
X7350000Y-10850000D01*
%TO.C,C11*%
X67350000Y-20300000D02*
X71950000Y-20300000D01*
X67350000Y-22600000D02*
X67350000Y-20300000D01*
X71950000Y-20300000D02*
X71950000Y-22600000D01*
X71950000Y-22600000D02*
X67350000Y-22600000D01*
%TO.C,R7*%
X43230000Y-68570000D02*
X44170000Y-68570000D01*
X43230000Y-70430000D02*
X43230000Y-68570000D01*
X44170000Y-68570000D02*
X44170000Y-70430000D01*
X44170000Y-70430000D02*
X43230000Y-70430000D01*
%TO.C,R3*%
X84270000Y-25980000D02*
X86130000Y-25980000D01*
X84270000Y-26920000D02*
X84270000Y-25980000D01*
X86130000Y-25980000D02*
X86130000Y-26920000D01*
X86130000Y-26920000D02*
X84270000Y-26920000D01*
%TO.C,R4*%
X63370000Y-41980000D02*
X65230000Y-41980000D01*
X63370000Y-42920000D02*
X63370000Y-41980000D01*
X65230000Y-41980000D02*
X65230000Y-42920000D01*
X65230000Y-42920000D02*
X63370000Y-42920000D01*
%TO.C,D3*%
X90780000Y-62600000D02*
X90780000Y-66000000D01*
X90780000Y-66000000D02*
X94620000Y-66000000D01*
X94620000Y-62600000D02*
X90780000Y-62600000D01*
X94620000Y-66000000D02*
X94620000Y-62600000D01*
%TO.C,D4*%
X30305000Y-35150000D02*
X37305000Y-35150000D01*
X30305000Y-38650000D02*
X30305000Y-35150000D01*
X37305000Y-35150000D02*
X37305000Y-38650000D01*
X37305000Y-38650000D02*
X30305000Y-38650000D01*
%TO.C,R7*%
X89230000Y-20570000D02*
X90170000Y-20570000D01*
X89230000Y-22430000D02*
X89230000Y-20570000D01*
X90170000Y-20570000D02*
X90170000Y-22430000D01*
X90170000Y-22430000D02*
X89230000Y-22430000D01*
%TO.C,C3*%
X44375000Y-26000000D02*
X48975000Y-26000000D01*
X44375000Y-28300000D02*
X44375000Y-26000000D01*
X48975000Y-26000000D02*
X48975000Y-28300000D01*
X48975000Y-28300000D02*
X44375000Y-28300000D01*
%TO.C,Q2*%
X17080000Y-27000000D02*
X17080000Y-30400000D01*
X17080000Y-30400000D02*
X20920000Y-30400000D01*
X20920000Y-27000000D02*
X17080000Y-27000000D01*
X20920000Y-30400000D02*
X20920000Y-27000000D01*
%TO.C,D4*%
X53305000Y-35150000D02*
X60305000Y-35150000D01*
X53305000Y-38650000D02*
X53305000Y-35150000D01*
X60305000Y-35150000D02*
X60305000Y-38650000D01*
X60305000Y-38650000D02*
X53305000Y-38650000D01*
%TO.C,Q4*%
X63080000Y-62700000D02*
X63080000Y-66100000D01*
X63080000Y-66100000D02*
X66920000Y-66100000D01*
X66920000Y-62700000D02*
X63080000Y-62700000D01*
X66920000Y-66100000D02*
X66920000Y-62700000D01*
%TO.C,C13*%
X38390000Y-50100000D02*
X40690000Y-50100000D01*
X38390000Y-54700000D02*
X38390000Y-50100000D01*
X40690000Y-50100000D02*
X40690000Y-54700000D01*
X40690000Y-54700000D02*
X38390000Y-54700000D01*
%TO.C,R4*%
X63370000Y-9980000D02*
X65230000Y-9980000D01*
X63370000Y-10920000D02*
X63370000Y-9980000D01*
X65230000Y-9980000D02*
X65230000Y-10920000D01*
X65230000Y-10920000D02*
X63370000Y-10920000D01*
%TO.C,Q4*%
X40080000Y-14700000D02*
X40080000Y-18100000D01*
X40080000Y-18100000D02*
X43920000Y-18100000D01*
X43920000Y-14700000D02*
X40080000Y-14700000D01*
X43920000Y-18100000D02*
X43920000Y-14700000D01*
%TO.C,R8*%
X60430000Y-66120000D02*
X61370000Y-66120000D01*
X60430000Y-67980000D02*
X60430000Y-66120000D01*
X61370000Y-66120000D02*
X61370000Y-67980000D01*
X61370000Y-67980000D02*
X60430000Y-67980000D01*
%TO.C,C7*%
X88375000Y-23650000D02*
X92975000Y-23650000D01*
X88375000Y-25950000D02*
X88375000Y-23650000D01*
X92975000Y-23650000D02*
X92975000Y-25950000D01*
X92975000Y-25950000D02*
X88375000Y-25950000D01*
%TO.C,C4*%
X67375000Y-12300000D02*
X71975000Y-12300000D01*
X67375000Y-14600000D02*
X67375000Y-12300000D01*
X71975000Y-12300000D02*
X71975000Y-14600000D01*
X71975000Y-14600000D02*
X67375000Y-14600000D01*
%TO.C,C6*%
X60750000Y-55650000D02*
X65350000Y-55650000D01*
X60750000Y-57950000D02*
X60750000Y-55650000D01*
X65350000Y-55650000D02*
X65350000Y-57950000D01*
X65350000Y-57950000D02*
X60750000Y-57950000D01*
%TO.C,R3*%
X15270000Y-9980000D02*
X17130000Y-9980000D01*
X15270000Y-10920000D02*
X15270000Y-9980000D01*
X17130000Y-9980000D02*
X17130000Y-10920000D01*
X17130000Y-10920000D02*
X15270000Y-10920000D01*
%TO.C,Q3*%
X82155000Y-30700000D02*
X82155000Y-34100000D01*
X82155000Y-34100000D02*
X85995000Y-34100000D01*
X85995000Y-30700000D02*
X82155000Y-30700000D01*
X85995000Y-34100000D02*
X85995000Y-30700000D01*
%TO.C,R10*%
X20230000Y-18320000D02*
X21170000Y-18320000D01*
X20230000Y-20180000D02*
X20230000Y-18320000D01*
X21170000Y-18320000D02*
X21170000Y-20180000D01*
X21170000Y-20180000D02*
X20230000Y-20180000D01*
%TO.C,R9*%
X37430000Y-36020000D02*
X38370000Y-36020000D01*
X37430000Y-37880000D02*
X37430000Y-36020000D01*
X38370000Y-36020000D02*
X38370000Y-37880000D01*
X38370000Y-37880000D02*
X37430000Y-37880000D01*
%TO.C,C5*%
X31550000Y-59000000D02*
X36150000Y-59000000D01*
X31550000Y-61300000D02*
X31550000Y-59000000D01*
X36150000Y-59000000D02*
X36150000Y-61300000D01*
X36150000Y-61300000D02*
X31550000Y-61300000D01*
%TO.C,Q3*%
X36155000Y-30700000D02*
X36155000Y-34100000D01*
X36155000Y-34100000D02*
X39995000Y-34100000D01*
X39995000Y-30700000D02*
X36155000Y-30700000D01*
X39995000Y-34100000D02*
X39995000Y-30700000D01*
%TO.C,R8*%
X37430000Y-34120000D02*
X38370000Y-34120000D01*
X37430000Y-35980000D02*
X37430000Y-34120000D01*
X38370000Y-34120000D02*
X38370000Y-35980000D01*
X38370000Y-35980000D02*
X37430000Y-35980000D01*
%TO.C,D4*%
X53305000Y-67150000D02*
X60305000Y-67150000D01*
X53305000Y-70650000D02*
X53305000Y-67150000D01*
X60305000Y-67150000D02*
X60305000Y-70650000D01*
X60305000Y-70650000D02*
X53305000Y-70650000D01*
%TO.C,D1*%
X53350000Y-39350000D02*
X60350000Y-39350000D01*
X53350000Y-42850000D02*
X53350000Y-39350000D01*
X60350000Y-39350000D02*
X60350000Y-42850000D01*
X60350000Y-42850000D02*
X53350000Y-42850000D01*
%TO.C,C4*%
X21375000Y-28300000D02*
X25975000Y-28300000D01*
X21375000Y-30600000D02*
X21375000Y-28300000D01*
X25975000Y-28300000D02*
X25975000Y-30600000D01*
X25975000Y-30600000D02*
X21375000Y-30600000D01*
%TO.C,C12*%
X8550000Y-16700000D02*
X13150000Y-16700000D01*
X8550000Y-19000000D02*
X8550000Y-16700000D01*
X13150000Y-16700000D02*
X13150000Y-19000000D01*
X13150000Y-19000000D02*
X8550000Y-19000000D01*
%TO.C,C7*%
X42375000Y-23650000D02*
X46975000Y-23650000D01*
X42375000Y-25950000D02*
X42375000Y-23650000D01*
X46975000Y-23650000D02*
X46975000Y-25950000D01*
X46975000Y-25950000D02*
X42375000Y-25950000D01*
%TO.C,C4*%
X44375000Y-28300000D02*
X48975000Y-28300000D01*
X44375000Y-30600000D02*
X44375000Y-28300000D01*
X48975000Y-28300000D02*
X48975000Y-30600000D01*
X48975000Y-30600000D02*
X44375000Y-30600000D01*
%TO.C,Q4*%
X17080000Y-46700000D02*
X17080000Y-50100000D01*
X17080000Y-50100000D02*
X20920000Y-50100000D01*
X20920000Y-46700000D02*
X17080000Y-46700000D01*
X20920000Y-50100000D02*
X20920000Y-46700000D01*
%TO.C,Q3*%
X36155000Y-62700000D02*
X36155000Y-66100000D01*
X36155000Y-66100000D02*
X39995000Y-66100000D01*
X39995000Y-62700000D02*
X36155000Y-62700000D01*
X39995000Y-66100000D02*
X39995000Y-62700000D01*
%TO.C,R2*%
X42470000Y-9980000D02*
X44330000Y-9980000D01*
X42470000Y-10920000D02*
X42470000Y-9980000D01*
X44330000Y-9980000D02*
X44330000Y-10920000D01*
X44330000Y-10920000D02*
X42470000Y-10920000D01*
%TO.C,C14*%
X40700000Y-18100000D02*
X43000000Y-18100000D01*
X40700000Y-22700000D02*
X40700000Y-18100000D01*
X43000000Y-18100000D02*
X43000000Y-22700000D01*
X43000000Y-22700000D02*
X40700000Y-22700000D01*
%TO.C,R4*%
X86370000Y-25980000D02*
X88230000Y-25980000D01*
X86370000Y-26920000D02*
X86370000Y-25980000D01*
X88230000Y-25980000D02*
X88230000Y-26920000D01*
X88230000Y-26920000D02*
X86370000Y-26920000D01*
%TO.C,D3*%
X67780000Y-30600000D02*
X67780000Y-34000000D01*
X67780000Y-34000000D02*
X71620000Y-34000000D01*
X71620000Y-30600000D02*
X67780000Y-30600000D01*
X71620000Y-34000000D02*
X71620000Y-30600000D01*
%TO.C,C10*%
X67350000Y-18000000D02*
X71950000Y-18000000D01*
X67350000Y-20300000D02*
X67350000Y-18000000D01*
X71950000Y-18000000D02*
X71950000Y-20300000D01*
X71950000Y-20300000D02*
X67350000Y-20300000D01*
%TO.C,R10*%
X20230000Y-50320000D02*
X21170000Y-50320000D01*
X20230000Y-52180000D02*
X20230000Y-50320000D01*
X21170000Y-50320000D02*
X21170000Y-52180000D01*
X21170000Y-52180000D02*
X20230000Y-52180000D01*
%TO.C,C7*%
X19375000Y-7650000D02*
X23975000Y-7650000D01*
X19375000Y-9950000D02*
X19375000Y-7650000D01*
X23975000Y-7650000D02*
X23975000Y-9950000D01*
X23975000Y-9950000D02*
X19375000Y-9950000D01*
%TO.C,D4*%
X76305000Y-19150000D02*
X83305000Y-19150000D01*
X76305000Y-22650000D02*
X76305000Y-19150000D01*
X83305000Y-19150000D02*
X83305000Y-22650000D01*
X83305000Y-22650000D02*
X76305000Y-22650000D01*
%TO.C,C11*%
X90350000Y-68300000D02*
X94950000Y-68300000D01*
X90350000Y-70600000D02*
X90350000Y-68300000D01*
X94950000Y-68300000D02*
X94950000Y-70600000D01*
X94950000Y-70600000D02*
X90350000Y-70600000D01*
%TO.C,D2*%
X55230000Y-29300000D02*
X55230000Y-32700000D01*
X55230000Y-32700000D02*
X59070000Y-32700000D01*
X59070000Y-29300000D02*
X55230000Y-29300000D01*
X59070000Y-32700000D02*
X59070000Y-29300000D01*
%TO.C,C6*%
X37750000Y-23650000D02*
X42350000Y-23650000D01*
X37750000Y-25950000D02*
X37750000Y-23650000D01*
X42350000Y-23650000D02*
X42350000Y-25950000D01*
X42350000Y-25950000D02*
X37750000Y-25950000D01*
%TO.C,R4*%
X40370000Y-57980000D02*
X42230000Y-57980000D01*
X40370000Y-58920000D02*
X40370000Y-57980000D01*
X42230000Y-57980000D02*
X42230000Y-58920000D01*
X42230000Y-58920000D02*
X40370000Y-58920000D01*
%TO.C,Q3*%
X13155000Y-14700000D02*
X13155000Y-18100000D01*
X13155000Y-18100000D02*
X16995000Y-18100000D01*
X16995000Y-14700000D02*
X13155000Y-14700000D01*
X16995000Y-18100000D02*
X16995000Y-14700000D01*
%TO.C,R4*%
X40370000Y-41980000D02*
X42230000Y-41980000D01*
X40370000Y-42920000D02*
X40370000Y-41980000D01*
X42230000Y-41980000D02*
X42230000Y-42920000D01*
X42230000Y-42920000D02*
X40370000Y-42920000D01*
%TO.C,D3*%
X21780000Y-14600000D02*
X21780000Y-18000000D01*
X21780000Y-18000000D02*
X25620000Y-18000000D01*
X25620000Y-14600000D02*
X21780000Y-14600000D01*
X25620000Y-18000000D02*
X25620000Y-14600000D01*
%TO.C,R8*%
X83430000Y-50120000D02*
X84370000Y-50120000D01*
X83430000Y-51980000D02*
X83430000Y-50120000D01*
X84370000Y-50120000D02*
X84370000Y-51980000D01*
X84370000Y-51980000D02*
X83430000Y-51980000D01*
%TO.C,D2*%
X78230000Y-61300000D02*
X78230000Y-64700000D01*
X78230000Y-64700000D02*
X82070000Y-64700000D01*
X82070000Y-61300000D02*
X78230000Y-61300000D01*
X82070000Y-64700000D02*
X82070000Y-61300000D01*
X9230000Y-13300000D02*
X9230000Y-16700000D01*
X9230000Y-16700000D02*
X13070000Y-16700000D01*
X13070000Y-13300000D02*
X9230000Y-13300000D01*
X13070000Y-16700000D02*
X13070000Y-13300000D01*
%TO.C,R4*%
X63370000Y-57980000D02*
X65230000Y-57980000D01*
X63370000Y-58920000D02*
X63370000Y-57980000D01*
X65230000Y-57980000D02*
X65230000Y-58920000D01*
X65230000Y-58920000D02*
X63370000Y-58920000D01*
%TO.C,D3*%
X44780000Y-14600000D02*
X44780000Y-18000000D01*
X44780000Y-18000000D02*
X48620000Y-18000000D01*
X48620000Y-14600000D02*
X44780000Y-14600000D01*
X48620000Y-18000000D02*
X48620000Y-14600000D01*
%TO.C,D4*%
X7305000Y-19150000D02*
X14305000Y-19150000D01*
X7305000Y-22650000D02*
X7305000Y-19150000D01*
X14305000Y-19150000D02*
X14305000Y-22650000D01*
X14305000Y-22650000D02*
X7305000Y-22650000D01*
%TO.C,C13*%
X38390000Y-18100000D02*
X40690000Y-18100000D01*
X38390000Y-22700000D02*
X38390000Y-18100000D01*
X40690000Y-18100000D02*
X40690000Y-22700000D01*
X40690000Y-22700000D02*
X38390000Y-22700000D01*
%TO.C,C7*%
X88375000Y-7650000D02*
X92975000Y-7650000D01*
X88375000Y-9950000D02*
X88375000Y-7650000D01*
X92975000Y-7650000D02*
X92975000Y-9950000D01*
X92975000Y-9950000D02*
X88375000Y-9950000D01*
%TO.C,C4*%
X90375000Y-60300000D02*
X94975000Y-60300000D01*
X90375000Y-62600000D02*
X90375000Y-60300000D01*
X94975000Y-60300000D02*
X94975000Y-62600000D01*
X94975000Y-62600000D02*
X90375000Y-62600000D01*
%TO.C,R2*%
X88470000Y-9980000D02*
X90330000Y-9980000D01*
X88470000Y-10920000D02*
X88470000Y-9980000D01*
X90330000Y-9980000D02*
X90330000Y-10920000D01*
X90330000Y-10920000D02*
X88470000Y-10920000D01*
%TO.C,C14*%
X17700000Y-66100000D02*
X20000000Y-66100000D01*
X17700000Y-70700000D02*
X17700000Y-66100000D01*
X20000000Y-66100000D02*
X20000000Y-70700000D01*
X20000000Y-70700000D02*
X17700000Y-70700000D01*
%TO.C,D4*%
X30305000Y-51150000D02*
X37305000Y-51150000D01*
X30305000Y-54650000D02*
X30305000Y-51150000D01*
X37305000Y-51150000D02*
X37305000Y-54650000D01*
X37305000Y-54650000D02*
X30305000Y-54650000D01*
%TO.C,C4*%
X21375000Y-44300000D02*
X25975000Y-44300000D01*
X21375000Y-46600000D02*
X21375000Y-44300000D01*
X25975000Y-44300000D02*
X25975000Y-46600000D01*
X25975000Y-46600000D02*
X21375000Y-46600000D01*
%TO.C,D3*%
X90780000Y-30600000D02*
X90780000Y-34000000D01*
X90780000Y-34000000D02*
X94620000Y-34000000D01*
X94620000Y-30600000D02*
X90780000Y-30600000D01*
X94620000Y-34000000D02*
X94620000Y-30600000D01*
%TO.C,R4*%
X86370000Y-41980000D02*
X88230000Y-41980000D01*
X86370000Y-42920000D02*
X86370000Y-41980000D01*
X88230000Y-41980000D02*
X88230000Y-42920000D01*
X88230000Y-42920000D02*
X86370000Y-42920000D01*
%TO.C,C7*%
X88375000Y-55650000D02*
X92975000Y-55650000D01*
X88375000Y-57950000D02*
X88375000Y-55650000D01*
X92975000Y-55650000D02*
X92975000Y-57950000D01*
X92975000Y-57950000D02*
X88375000Y-57950000D01*
%TO.C,Q1*%
X82155000Y-59000000D02*
X82155000Y-62400000D01*
X82155000Y-62400000D02*
X85995000Y-62400000D01*
X85995000Y-59000000D02*
X82155000Y-59000000D01*
X85995000Y-62400000D02*
X85995000Y-59000000D01*
%TO.C,D1*%
X76350000Y-39350000D02*
X83350000Y-39350000D01*
X76350000Y-42850000D02*
X76350000Y-39350000D01*
X83350000Y-39350000D02*
X83350000Y-42850000D01*
X83350000Y-42850000D02*
X76350000Y-42850000D01*
X53350000Y-23350000D02*
X60350000Y-23350000D01*
X53350000Y-26850000D02*
X53350000Y-23350000D01*
X60350000Y-23350000D02*
X60350000Y-26850000D01*
X60350000Y-26850000D02*
X53350000Y-26850000D01*
%TO.C,D4*%
X30305000Y-67150000D02*
X37305000Y-67150000D01*
X30305000Y-70650000D02*
X30305000Y-67150000D01*
X37305000Y-67150000D02*
X37305000Y-70650000D01*
X37305000Y-70650000D02*
X30305000Y-70650000D01*
%TO.C,R3*%
X38270000Y-25980000D02*
X40130000Y-25980000D01*
X38270000Y-26920000D02*
X38270000Y-25980000D01*
X40130000Y-25980000D02*
X40130000Y-26920000D01*
X40130000Y-26920000D02*
X38270000Y-26920000D01*
%TO.C,C7*%
X42375000Y-55650000D02*
X46975000Y-55650000D01*
X42375000Y-57950000D02*
X42375000Y-55650000D01*
X46975000Y-55650000D02*
X46975000Y-57950000D01*
X46975000Y-57950000D02*
X42375000Y-57950000D01*
%TO.C,Q2*%
X63080000Y-59000000D02*
X63080000Y-62400000D01*
X63080000Y-62400000D02*
X66920000Y-62400000D01*
X66920000Y-59000000D02*
X63080000Y-59000000D01*
X66920000Y-62400000D02*
X66920000Y-59000000D01*
%TO.C,Q1*%
X13155000Y-43000000D02*
X13155000Y-46400000D01*
X13155000Y-46400000D02*
X16995000Y-46400000D01*
X16995000Y-43000000D02*
X13155000Y-43000000D01*
X16995000Y-46400000D02*
X16995000Y-43000000D01*
%TO.C,C3*%
X21375000Y-42000000D02*
X25975000Y-42000000D01*
X21375000Y-44300000D02*
X21375000Y-42000000D01*
X25975000Y-42000000D02*
X25975000Y-44300000D01*
X25975000Y-44300000D02*
X21375000Y-44300000D01*
%TO.C,D2*%
X78230000Y-45300000D02*
X78230000Y-48700000D01*
X78230000Y-48700000D02*
X82070000Y-48700000D01*
X82070000Y-45300000D02*
X78230000Y-45300000D01*
X82070000Y-48700000D02*
X82070000Y-45300000D01*
%TO.C,C10*%
X21350000Y-18000000D02*
X25950000Y-18000000D01*
X21350000Y-20300000D02*
X21350000Y-18000000D01*
X25950000Y-18000000D02*
X25950000Y-20300000D01*
X25950000Y-20300000D02*
X21350000Y-20300000D01*
%TO.C,D1*%
X30350000Y-55350000D02*
X37350000Y-55350000D01*
X30350000Y-58850000D02*
X30350000Y-55350000D01*
X37350000Y-55350000D02*
X37350000Y-58850000D01*
X37350000Y-58850000D02*
X30350000Y-58850000D01*
%TO.C,R8*%
X14430000Y-66120000D02*
X15370000Y-66120000D01*
X14430000Y-67980000D02*
X14430000Y-66120000D01*
X15370000Y-66120000D02*
X15370000Y-67980000D01*
X15370000Y-67980000D02*
X14430000Y-67980000D01*
%TO.C,C5*%
X31550000Y-11000000D02*
X36150000Y-11000000D01*
X31550000Y-13300000D02*
X31550000Y-11000000D01*
X36150000Y-11000000D02*
X36150000Y-13300000D01*
X36150000Y-13300000D02*
X31550000Y-13300000D01*
%TO.C,C7*%
X65375000Y-55650000D02*
X69975000Y-55650000D01*
X65375000Y-57950000D02*
X65375000Y-55650000D01*
X69975000Y-55650000D02*
X69975000Y-57950000D01*
X69975000Y-57950000D02*
X65375000Y-57950000D01*
%TO.C,D2*%
X9230000Y-61300000D02*
X9230000Y-64700000D01*
X9230000Y-64700000D02*
X13070000Y-64700000D01*
X13070000Y-61300000D02*
X9230000Y-61300000D01*
X13070000Y-64700000D02*
X13070000Y-61300000D01*
%TO.C,C10*%
X90350000Y-18000000D02*
X94950000Y-18000000D01*
X90350000Y-20300000D02*
X90350000Y-18000000D01*
X94950000Y-18000000D02*
X94950000Y-20300000D01*
X94950000Y-20300000D02*
X90350000Y-20300000D01*
%TO.C,R8*%
X60430000Y-50120000D02*
X61370000Y-50120000D01*
X60430000Y-51980000D02*
X60430000Y-50120000D01*
X61370000Y-50120000D02*
X61370000Y-51980000D01*
X61370000Y-51980000D02*
X60430000Y-51980000D01*
X14430000Y-50120000D02*
X15370000Y-50120000D01*
X14430000Y-51980000D02*
X14430000Y-50120000D01*
X15370000Y-50120000D02*
X15370000Y-51980000D01*
X15370000Y-51980000D02*
X14430000Y-51980000D01*
%TO.C,D2*%
X32230000Y-61300000D02*
X32230000Y-64700000D01*
X32230000Y-64700000D02*
X36070000Y-64700000D01*
X36070000Y-61300000D02*
X32230000Y-61300000D01*
X36070000Y-64700000D02*
X36070000Y-61300000D01*
%TO.C,C13*%
X61390000Y-66100000D02*
X63690000Y-66100000D01*
X61390000Y-70700000D02*
X61390000Y-66100000D01*
X63690000Y-66100000D02*
X63690000Y-70700000D01*
X63690000Y-70700000D02*
X61390000Y-70700000D01*
%TO.C,Q4*%
X63080000Y-46700000D02*
X63080000Y-50100000D01*
X63080000Y-50100000D02*
X66920000Y-50100000D01*
X66920000Y-46700000D02*
X63080000Y-46700000D01*
X66920000Y-50100000D02*
X66920000Y-46700000D01*
%TO.C,D4*%
X76305000Y-35150000D02*
X83305000Y-35150000D01*
X76305000Y-38650000D02*
X76305000Y-35150000D01*
X83305000Y-35150000D02*
X83305000Y-38650000D01*
X83305000Y-38650000D02*
X76305000Y-38650000D01*
%TO.C,C5*%
X8550000Y-43000000D02*
X13150000Y-43000000D01*
X8550000Y-45300000D02*
X8550000Y-43000000D01*
X13150000Y-43000000D02*
X13150000Y-45300000D01*
X13150000Y-45300000D02*
X8550000Y-45300000D01*
%TO.C,Q2*%
X86080000Y-27000000D02*
X86080000Y-30400000D01*
X86080000Y-30400000D02*
X89920000Y-30400000D01*
X89920000Y-27000000D02*
X86080000Y-27000000D01*
X89920000Y-30400000D02*
X89920000Y-27000000D01*
%TO.C,R8*%
X83430000Y-18120000D02*
X84370000Y-18120000D01*
X83430000Y-19980000D02*
X83430000Y-18120000D01*
X84370000Y-18120000D02*
X84370000Y-19980000D01*
X84370000Y-19980000D02*
X83430000Y-19980000D01*
%TO.C,R10*%
X43230000Y-34320000D02*
X44170000Y-34320000D01*
X43230000Y-36180000D02*
X43230000Y-34320000D01*
X44170000Y-34320000D02*
X44170000Y-36180000D01*
X44170000Y-36180000D02*
X43230000Y-36180000D01*
%TO.C,C13*%
X84390000Y-18100000D02*
X86690000Y-18100000D01*
X84390000Y-22700000D02*
X84390000Y-18100000D01*
X86690000Y-18100000D02*
X86690000Y-22700000D01*
X86690000Y-22700000D02*
X84390000Y-22700000D01*
%TO.C,R2*%
X42470000Y-25980000D02*
X44330000Y-25980000D01*
X42470000Y-26920000D02*
X42470000Y-25980000D01*
X44330000Y-25980000D02*
X44330000Y-26920000D01*
X44330000Y-26920000D02*
X42470000Y-26920000D01*
%TO.C,R5*%
X47220000Y-9030000D02*
X49080000Y-9030000D01*
X47220000Y-9970000D02*
X47220000Y-9030000D01*
X49080000Y-9030000D02*
X49080000Y-9970000D01*
X49080000Y-9970000D02*
X47220000Y-9970000D01*
%TO.C,R3*%
X38270000Y-41980000D02*
X40130000Y-41980000D01*
X38270000Y-42920000D02*
X38270000Y-41980000D01*
X40130000Y-41980000D02*
X40130000Y-42920000D01*
X40130000Y-42920000D02*
X38270000Y-42920000D01*
%TO.C,Q2*%
X40080000Y-11000000D02*
X40080000Y-14400000D01*
X40080000Y-14400000D02*
X43920000Y-14400000D01*
X43920000Y-11000000D02*
X40080000Y-11000000D01*
X43920000Y-14400000D02*
X43920000Y-11000000D01*
%TO.C,Q3*%
X59155000Y-46700000D02*
X59155000Y-50100000D01*
X59155000Y-50100000D02*
X62995000Y-50100000D01*
X62995000Y-46700000D02*
X59155000Y-46700000D01*
X62995000Y-50100000D02*
X62995000Y-46700000D01*
%TO.C,Q4*%
X86080000Y-62700000D02*
X86080000Y-66100000D01*
X86080000Y-66100000D02*
X89920000Y-66100000D01*
X89920000Y-62700000D02*
X86080000Y-62700000D01*
X89920000Y-66100000D02*
X89920000Y-62700000D01*
%TO.C,R2*%
X88470000Y-25980000D02*
X90330000Y-25980000D01*
X88470000Y-26920000D02*
X88470000Y-25980000D01*
X90330000Y-25980000D02*
X90330000Y-26920000D01*
X90330000Y-26920000D02*
X88470000Y-26920000D01*
%TO.C,D1*%
X7350000Y-55350000D02*
X14350000Y-55350000D01*
X7350000Y-58850000D02*
X7350000Y-55350000D01*
X14350000Y-55350000D02*
X14350000Y-58850000D01*
X14350000Y-58850000D02*
X7350000Y-58850000D01*
%TO.C,R10*%
X89230000Y-18320000D02*
X90170000Y-18320000D01*
X89230000Y-20180000D02*
X89230000Y-18320000D01*
X90170000Y-18320000D02*
X90170000Y-20180000D01*
X90170000Y-20180000D02*
X89230000Y-20180000D01*
%TO.C,D1*%
X53350000Y-55350000D02*
X60350000Y-55350000D01*
X53350000Y-58850000D02*
X53350000Y-55350000D01*
X60350000Y-55350000D02*
X60350000Y-58850000D01*
X60350000Y-58850000D02*
X53350000Y-58850000D01*
%TO.C,C6*%
X37750000Y-55650000D02*
X42350000Y-55650000D01*
X37750000Y-57950000D02*
X37750000Y-55650000D01*
X42350000Y-55650000D02*
X42350000Y-57950000D01*
X42350000Y-57950000D02*
X37750000Y-57950000D01*
%TO.C,C4*%
X44375000Y-12300000D02*
X48975000Y-12300000D01*
X44375000Y-14600000D02*
X44375000Y-12300000D01*
X48975000Y-12300000D02*
X48975000Y-14600000D01*
X48975000Y-14600000D02*
X44375000Y-14600000D01*
%TO.C,R3*%
X15270000Y-41980000D02*
X17130000Y-41980000D01*
X15270000Y-42920000D02*
X15270000Y-41980000D01*
X17130000Y-41980000D02*
X17130000Y-42920000D01*
X17130000Y-42920000D02*
X15270000Y-42920000D01*
%TO.C,R4*%
X86370000Y-9980000D02*
X88230000Y-9980000D01*
X86370000Y-10920000D02*
X86370000Y-9980000D01*
X88230000Y-9980000D02*
X88230000Y-10920000D01*
X88230000Y-10920000D02*
X86370000Y-10920000D01*
%TO.C,R2*%
X19470000Y-9980000D02*
X21330000Y-9980000D01*
X19470000Y-10920000D02*
X19470000Y-9980000D01*
X21330000Y-9980000D02*
X21330000Y-10920000D01*
X21330000Y-10920000D02*
X19470000Y-10920000D01*
%TO.C,C5*%
X54550000Y-11000000D02*
X59150000Y-11000000D01*
X54550000Y-13300000D02*
X54550000Y-11000000D01*
X59150000Y-11000000D02*
X59150000Y-13300000D01*
X59150000Y-13300000D02*
X54550000Y-13300000D01*
%TO.C,R10*%
X66230000Y-34320000D02*
X67170000Y-34320000D01*
X66230000Y-36180000D02*
X66230000Y-34320000D01*
X67170000Y-34320000D02*
X67170000Y-36180000D01*
X67170000Y-36180000D02*
X66230000Y-36180000D01*
%TO.C,Q1*%
X59155000Y-43000000D02*
X59155000Y-46400000D01*
X59155000Y-46400000D02*
X62995000Y-46400000D01*
X62995000Y-43000000D02*
X59155000Y-43000000D01*
X62995000Y-46400000D02*
X62995000Y-43000000D01*
%TO.C,R8*%
X37430000Y-18120000D02*
X38370000Y-18120000D01*
X37430000Y-19980000D02*
X37430000Y-18120000D01*
X38370000Y-18120000D02*
X38370000Y-19980000D01*
X38370000Y-19980000D02*
X37430000Y-19980000D01*
%TO.C,Q4*%
X17080000Y-62700000D02*
X17080000Y-66100000D01*
X17080000Y-66100000D02*
X20920000Y-66100000D01*
X20920000Y-62700000D02*
X17080000Y-62700000D01*
X20920000Y-66100000D02*
X20920000Y-62700000D01*
%TO.C,C14*%
X63700000Y-66100000D02*
X66000000Y-66100000D01*
X63700000Y-70700000D02*
X63700000Y-66100000D01*
X66000000Y-66100000D02*
X66000000Y-70700000D01*
X66000000Y-70700000D02*
X63700000Y-70700000D01*
%TO.C,R10*%
X43230000Y-50320000D02*
X44170000Y-50320000D01*
X43230000Y-52180000D02*
X43230000Y-50320000D01*
X44170000Y-50320000D02*
X44170000Y-52180000D01*
X44170000Y-52180000D02*
X43230000Y-52180000D01*
%TO.C,C10*%
X67350000Y-66000000D02*
X71950000Y-66000000D01*
X67350000Y-68300000D02*
X67350000Y-66000000D01*
X71950000Y-66000000D02*
X71950000Y-68300000D01*
X71950000Y-68300000D02*
X67350000Y-68300000D01*
%TO.C,D1*%
X76350000Y-55350000D02*
X83350000Y-55350000D01*
X76350000Y-58850000D02*
X76350000Y-55350000D01*
X83350000Y-55350000D02*
X83350000Y-58850000D01*
X83350000Y-58850000D02*
X76350000Y-58850000D01*
%TO.C,D2*%
X55230000Y-61300000D02*
X55230000Y-64700000D01*
X55230000Y-64700000D02*
X59070000Y-64700000D01*
X59070000Y-61300000D02*
X55230000Y-61300000D01*
X59070000Y-64700000D02*
X59070000Y-61300000D01*
%TO.C,Q1*%
X82155000Y-43000000D02*
X82155000Y-46400000D01*
X82155000Y-46400000D02*
X85995000Y-46400000D01*
X85995000Y-43000000D02*
X82155000Y-43000000D01*
X85995000Y-46400000D02*
X85995000Y-43000000D01*
%TO.C,R10*%
X20230000Y-66320000D02*
X21170000Y-66320000D01*
X20230000Y-68180000D02*
X20230000Y-66320000D01*
X21170000Y-66320000D02*
X21170000Y-68180000D01*
X21170000Y-68180000D02*
X20230000Y-68180000D01*
%TO.C,R5*%
X24220000Y-9030000D02*
X26080000Y-9030000D01*
X24220000Y-9970000D02*
X24220000Y-9030000D01*
X26080000Y-9030000D02*
X26080000Y-9970000D01*
X26080000Y-9970000D02*
X24220000Y-9970000D01*
%TO.C,C6*%
X14750000Y-7650000D02*
X19350000Y-7650000D01*
X14750000Y-9950000D02*
X14750000Y-7650000D01*
X19350000Y-7650000D02*
X19350000Y-9950000D01*
X19350000Y-9950000D02*
X14750000Y-9950000D01*
%TO.C,C7*%
X42375000Y-39650000D02*
X46975000Y-39650000D01*
X42375000Y-41950000D02*
X42375000Y-39650000D01*
X46975000Y-39650000D02*
X46975000Y-41950000D01*
X46975000Y-41950000D02*
X42375000Y-41950000D01*
%TO.C,C6*%
X83750000Y-55650000D02*
X88350000Y-55650000D01*
X83750000Y-57950000D02*
X83750000Y-55650000D01*
X88350000Y-55650000D02*
X88350000Y-57950000D01*
X88350000Y-57950000D02*
X83750000Y-57950000D01*
%TO.C,R9*%
X83430000Y-52020000D02*
X84370000Y-52020000D01*
X83430000Y-53880000D02*
X83430000Y-52020000D01*
X84370000Y-52020000D02*
X84370000Y-53880000D01*
X84370000Y-53880000D02*
X83430000Y-53880000D01*
%TO.C,R7*%
X66230000Y-36570000D02*
X67170000Y-36570000D01*
X66230000Y-38430000D02*
X66230000Y-36570000D01*
X67170000Y-36570000D02*
X67170000Y-38430000D01*
X67170000Y-38430000D02*
X66230000Y-38430000D01*
%TO.C,Q3*%
X82155000Y-62700000D02*
X82155000Y-66100000D01*
X82155000Y-66100000D02*
X85995000Y-66100000D01*
X85995000Y-62700000D02*
X82155000Y-62700000D01*
X85995000Y-66100000D02*
X85995000Y-62700000D01*
%TO.C,C12*%
X8550000Y-64700000D02*
X13150000Y-64700000D01*
X8550000Y-67000000D02*
X8550000Y-64700000D01*
X13150000Y-64700000D02*
X13150000Y-67000000D01*
X13150000Y-67000000D02*
X8550000Y-67000000D01*
%TO.C,D4*%
X76305000Y-67150000D02*
X83305000Y-67150000D01*
X76305000Y-70650000D02*
X76305000Y-67150000D01*
X83305000Y-67150000D02*
X83305000Y-70650000D01*
X83305000Y-70650000D02*
X76305000Y-70650000D01*
%TO.C,C10*%
X67350000Y-34000000D02*
X71950000Y-34000000D01*
X67350000Y-36300000D02*
X67350000Y-34000000D01*
X71950000Y-34000000D02*
X71950000Y-36300000D01*
X71950000Y-36300000D02*
X67350000Y-36300000D01*
%TO.C,R3*%
X15270000Y-57980000D02*
X17130000Y-57980000D01*
X15270000Y-58920000D02*
X15270000Y-57980000D01*
X17130000Y-57980000D02*
X17130000Y-58920000D01*
X17130000Y-58920000D02*
X15270000Y-58920000D01*
%TO.C,R9*%
X83430000Y-36020000D02*
X84370000Y-36020000D01*
X83430000Y-37880000D02*
X83430000Y-36020000D01*
X84370000Y-36020000D02*
X84370000Y-37880000D01*
X84370000Y-37880000D02*
X83430000Y-37880000D01*
%TO.C,D1*%
X76350000Y-7350000D02*
X83350000Y-7350000D01*
X76350000Y-10850000D02*
X76350000Y-7350000D01*
X83350000Y-7350000D02*
X83350000Y-10850000D01*
X83350000Y-10850000D02*
X76350000Y-10850000D01*
%TO.C,C13*%
X38390000Y-66100000D02*
X40690000Y-66100000D01*
X38390000Y-70700000D02*
X38390000Y-66100000D01*
X40690000Y-66100000D02*
X40690000Y-70700000D01*
X40690000Y-70700000D02*
X38390000Y-70700000D01*
%TO.C,R8*%
X60430000Y-34120000D02*
X61370000Y-34120000D01*
X60430000Y-35980000D02*
X60430000Y-34120000D01*
X61370000Y-34120000D02*
X61370000Y-35980000D01*
X61370000Y-35980000D02*
X60430000Y-35980000D01*
%TO.C,C14*%
X63700000Y-18100000D02*
X66000000Y-18100000D01*
X63700000Y-22700000D02*
X63700000Y-18100000D01*
X66000000Y-18100000D02*
X66000000Y-22700000D01*
X66000000Y-22700000D02*
X63700000Y-22700000D01*
%TO.C,Q2*%
X17080000Y-59000000D02*
X17080000Y-62400000D01*
X17080000Y-62400000D02*
X20920000Y-62400000D01*
X20920000Y-59000000D02*
X17080000Y-59000000D01*
X20920000Y-62400000D02*
X20920000Y-59000000D01*
%TO.C,C3*%
X67375000Y-10000000D02*
X71975000Y-10000000D01*
X67375000Y-12300000D02*
X67375000Y-10000000D01*
X71975000Y-10000000D02*
X71975000Y-12300000D01*
X71975000Y-12300000D02*
X67375000Y-12300000D01*
%TO.C,R7*%
X66230000Y-68570000D02*
X67170000Y-68570000D01*
X66230000Y-70430000D02*
X66230000Y-68570000D01*
X67170000Y-68570000D02*
X67170000Y-70430000D01*
X67170000Y-70430000D02*
X66230000Y-70430000D01*
X89230000Y-52570000D02*
X90170000Y-52570000D01*
X89230000Y-54430000D02*
X89230000Y-52570000D01*
X90170000Y-52570000D02*
X90170000Y-54430000D01*
X90170000Y-54430000D02*
X89230000Y-54430000D01*
%TO.C,C10*%
X67350000Y-50000000D02*
X71950000Y-50000000D01*
X67350000Y-52300000D02*
X67350000Y-50000000D01*
X71950000Y-50000000D02*
X71950000Y-52300000D01*
X71950000Y-52300000D02*
X67350000Y-52300000D01*
%TO.C,C3*%
X44375000Y-10000000D02*
X48975000Y-10000000D01*
X44375000Y-12300000D02*
X44375000Y-10000000D01*
X48975000Y-10000000D02*
X48975000Y-12300000D01*
X48975000Y-12300000D02*
X44375000Y-12300000D01*
%TO.C,R7*%
X66230000Y-20570000D02*
X67170000Y-20570000D01*
X66230000Y-22430000D02*
X66230000Y-20570000D01*
X67170000Y-20570000D02*
X67170000Y-22430000D01*
X67170000Y-22430000D02*
X66230000Y-22430000D01*
%TO.C,C12*%
X77550000Y-32700000D02*
X82150000Y-32700000D01*
X77550000Y-35000000D02*
X77550000Y-32700000D01*
X82150000Y-32700000D02*
X82150000Y-35000000D01*
X82150000Y-35000000D02*
X77550000Y-35000000D01*
%TO.C,R5*%
X70220000Y-57030000D02*
X72080000Y-57030000D01*
X70220000Y-57970000D02*
X70220000Y-57030000D01*
X72080000Y-57030000D02*
X72080000Y-57970000D01*
X72080000Y-57970000D02*
X70220000Y-57970000D01*
%TO.C,Q4*%
X86080000Y-14700000D02*
X86080000Y-18100000D01*
X86080000Y-18100000D02*
X89920000Y-18100000D01*
X89920000Y-14700000D02*
X86080000Y-14700000D01*
X89920000Y-18100000D02*
X89920000Y-14700000D01*
%TO.C,C10*%
X90350000Y-50000000D02*
X94950000Y-50000000D01*
X90350000Y-52300000D02*
X90350000Y-50000000D01*
X94950000Y-50000000D02*
X94950000Y-52300000D01*
X94950000Y-52300000D02*
X90350000Y-52300000D01*
%TO.C,Q3*%
X13155000Y-46700000D02*
X13155000Y-50100000D01*
X13155000Y-50100000D02*
X16995000Y-50100000D01*
X16995000Y-46700000D02*
X13155000Y-46700000D01*
X16995000Y-50100000D02*
X16995000Y-46700000D01*
%TO.C,C4*%
X21375000Y-60300000D02*
X25975000Y-60300000D01*
X21375000Y-62600000D02*
X21375000Y-60300000D01*
X25975000Y-60300000D02*
X25975000Y-62600000D01*
X25975000Y-62600000D02*
X21375000Y-62600000D01*
%TO.C,C12*%
X8550000Y-48700000D02*
X13150000Y-48700000D01*
X8550000Y-51000000D02*
X8550000Y-48700000D01*
X13150000Y-48700000D02*
X13150000Y-51000000D01*
X13150000Y-51000000D02*
X8550000Y-51000000D01*
%TO.C,Q2*%
X63080000Y-11000000D02*
X63080000Y-14400000D01*
X63080000Y-14400000D02*
X66920000Y-14400000D01*
X66920000Y-11000000D02*
X63080000Y-11000000D01*
X66920000Y-14400000D02*
X66920000Y-11000000D01*
%TO.C,Q4*%
X17080000Y-30700000D02*
X17080000Y-34100000D01*
X17080000Y-34100000D02*
X20920000Y-34100000D01*
X20920000Y-30700000D02*
X17080000Y-30700000D01*
X20920000Y-34100000D02*
X20920000Y-30700000D01*
%TO.C,R7*%
X20230000Y-52570000D02*
X21170000Y-52570000D01*
X20230000Y-54430000D02*
X20230000Y-52570000D01*
X21170000Y-52570000D02*
X21170000Y-54430000D01*
X21170000Y-54430000D02*
X20230000Y-54430000D01*
%TO.C,C4*%
X67375000Y-60300000D02*
X71975000Y-60300000D01*
X67375000Y-62600000D02*
X67375000Y-60300000D01*
X71975000Y-60300000D02*
X71975000Y-62600000D01*
X71975000Y-62600000D02*
X67375000Y-62600000D01*
%TO.C,KiKit_FID_T_3*%
X5600000Y-75500000D02*
G75*
G02*
X4400000Y-75500000I-600000J0D01*
G01*
X4400000Y-75500000D02*
G75*
G02*
X5600000Y-75500000I600000J0D01*
G01*
%TO.C,C12*%
X31550000Y-16700000D02*
X36150000Y-16700000D01*
X31550000Y-19000000D02*
X31550000Y-16700000D01*
X36150000Y-16700000D02*
X36150000Y-19000000D01*
X36150000Y-19000000D02*
X31550000Y-19000000D01*
%TO.C,C7*%
X65375000Y-39650000D02*
X69975000Y-39650000D01*
X65375000Y-41950000D02*
X65375000Y-39650000D01*
X69975000Y-39650000D02*
X69975000Y-41950000D01*
X69975000Y-41950000D02*
X65375000Y-41950000D01*
%TO.C,C4*%
X90375000Y-28300000D02*
X94975000Y-28300000D01*
X90375000Y-30600000D02*
X90375000Y-28300000D01*
X94975000Y-28300000D02*
X94975000Y-30600000D01*
X94975000Y-30600000D02*
X90375000Y-30600000D01*
%TO.C,R2*%
X88470000Y-41980000D02*
X90330000Y-41980000D01*
X88470000Y-42920000D02*
X88470000Y-41980000D01*
X90330000Y-41980000D02*
X90330000Y-42920000D01*
X90330000Y-42920000D02*
X88470000Y-42920000D01*
%TO.C,R4*%
X17370000Y-41980000D02*
X19230000Y-41980000D01*
X17370000Y-42920000D02*
X17370000Y-41980000D01*
X19230000Y-41980000D02*
X19230000Y-42920000D01*
X19230000Y-42920000D02*
X17370000Y-42920000D01*
%TO.C,D2*%
X55230000Y-13300000D02*
X55230000Y-16700000D01*
X55230000Y-16700000D02*
X59070000Y-16700000D01*
X59070000Y-13300000D02*
X55230000Y-13300000D01*
X59070000Y-16700000D02*
X59070000Y-13300000D01*
%TO.C,Q4*%
X40080000Y-30700000D02*
X40080000Y-34100000D01*
X40080000Y-34100000D02*
X43920000Y-34100000D01*
X43920000Y-30700000D02*
X40080000Y-30700000D01*
X43920000Y-34100000D02*
X43920000Y-30700000D01*
%TO.C,R10*%
X66230000Y-66320000D02*
X67170000Y-66320000D01*
X66230000Y-68180000D02*
X66230000Y-66320000D01*
X67170000Y-66320000D02*
X67170000Y-68180000D01*
X67170000Y-68180000D02*
X66230000Y-68180000D01*
%TO.C,R7*%
X89230000Y-36570000D02*
X90170000Y-36570000D01*
X89230000Y-38430000D02*
X89230000Y-36570000D01*
X90170000Y-36570000D02*
X90170000Y-38430000D01*
X90170000Y-38430000D02*
X89230000Y-38430000D01*
%TO.C,R2*%
X42470000Y-41980000D02*
X44330000Y-41980000D01*
X42470000Y-42920000D02*
X42470000Y-41980000D01*
X44330000Y-41980000D02*
X44330000Y-42920000D01*
X44330000Y-42920000D02*
X42470000Y-42920000D01*
%TO.C,Q1*%
X36155000Y-27000000D02*
X36155000Y-30400000D01*
X36155000Y-30400000D02*
X39995000Y-30400000D01*
X39995000Y-27000000D02*
X36155000Y-27000000D01*
X39995000Y-30400000D02*
X39995000Y-27000000D01*
%TO.C,R3*%
X15270000Y-25980000D02*
X17130000Y-25980000D01*
X15270000Y-26920000D02*
X15270000Y-25980000D01*
X17130000Y-25980000D02*
X17130000Y-26920000D01*
X17130000Y-26920000D02*
X15270000Y-26920000D01*
%TO.C,Q4*%
X40080000Y-46700000D02*
X40080000Y-50100000D01*
X40080000Y-50100000D02*
X43920000Y-50100000D01*
X43920000Y-46700000D02*
X40080000Y-46700000D01*
X43920000Y-50100000D02*
X43920000Y-46700000D01*
%TO.C,R5*%
X93220000Y-57030000D02*
X95080000Y-57030000D01*
X93220000Y-57970000D02*
X93220000Y-57030000D01*
X95080000Y-57030000D02*
X95080000Y-57970000D01*
X95080000Y-57970000D02*
X93220000Y-57970000D01*
%TO.C,C12*%
X77550000Y-48700000D02*
X82150000Y-48700000D01*
X77550000Y-51000000D02*
X77550000Y-48700000D01*
X82150000Y-48700000D02*
X82150000Y-51000000D01*
X82150000Y-51000000D02*
X77550000Y-51000000D01*
%TO.C,C6*%
X60750000Y-7650000D02*
X65350000Y-7650000D01*
X60750000Y-9950000D02*
X60750000Y-7650000D01*
X65350000Y-7650000D02*
X65350000Y-9950000D01*
X65350000Y-9950000D02*
X60750000Y-9950000D01*
%TO.C,R10*%
X66230000Y-50320000D02*
X67170000Y-50320000D01*
X66230000Y-52180000D02*
X66230000Y-50320000D01*
X67170000Y-50320000D02*
X67170000Y-52180000D01*
X67170000Y-52180000D02*
X66230000Y-52180000D01*
%TO.C,C10*%
X44350000Y-66000000D02*
X48950000Y-66000000D01*
X44350000Y-68300000D02*
X44350000Y-66000000D01*
X48950000Y-66000000D02*
X48950000Y-68300000D01*
X48950000Y-68300000D02*
X44350000Y-68300000D01*
%TO.C,C7*%
X42375000Y-7650000D02*
X46975000Y-7650000D01*
X42375000Y-9950000D02*
X42375000Y-7650000D01*
X46975000Y-7650000D02*
X46975000Y-9950000D01*
X46975000Y-9950000D02*
X42375000Y-9950000D01*
%TO.C,C12*%
X54550000Y-48700000D02*
X59150000Y-48700000D01*
X54550000Y-51000000D02*
X54550000Y-48700000D01*
X59150000Y-48700000D02*
X59150000Y-51000000D01*
X59150000Y-51000000D02*
X54550000Y-51000000D01*
%TO.C,R7*%
X20230000Y-20570000D02*
X21170000Y-20570000D01*
X20230000Y-22430000D02*
X20230000Y-20570000D01*
X21170000Y-20570000D02*
X21170000Y-22430000D01*
X21170000Y-22430000D02*
X20230000Y-22430000D01*
%TO.C,C10*%
X44350000Y-34000000D02*
X48950000Y-34000000D01*
X44350000Y-36300000D02*
X44350000Y-34000000D01*
X48950000Y-34000000D02*
X48950000Y-36300000D01*
X48950000Y-36300000D02*
X44350000Y-36300000D01*
%TO.C,R9*%
X60430000Y-52020000D02*
X61370000Y-52020000D01*
X60430000Y-53880000D02*
X60430000Y-52020000D01*
X61370000Y-52020000D02*
X61370000Y-53880000D01*
X61370000Y-53880000D02*
X60430000Y-53880000D01*
X60430000Y-68020000D02*
X61370000Y-68020000D01*
X60430000Y-69880000D02*
X60430000Y-68020000D01*
X61370000Y-68020000D02*
X61370000Y-69880000D01*
X61370000Y-69880000D02*
X60430000Y-69880000D01*
%TO.C,C5*%
X31550000Y-43000000D02*
X36150000Y-43000000D01*
X31550000Y-45300000D02*
X31550000Y-43000000D01*
X36150000Y-43000000D02*
X36150000Y-45300000D01*
X36150000Y-45300000D02*
X31550000Y-45300000D01*
%TO.C,R5*%
X47220000Y-25030000D02*
X49080000Y-25030000D01*
X47220000Y-25970000D02*
X47220000Y-25030000D01*
X49080000Y-25030000D02*
X49080000Y-25970000D01*
X49080000Y-25970000D02*
X47220000Y-25970000D01*
%TO.C,C11*%
X21350000Y-20300000D02*
X25950000Y-20300000D01*
X21350000Y-22600000D02*
X21350000Y-20300000D01*
X25950000Y-20300000D02*
X25950000Y-22600000D01*
X25950000Y-22600000D02*
X21350000Y-22600000D01*
%TO.C,C10*%
X21350000Y-66000000D02*
X25950000Y-66000000D01*
X21350000Y-68300000D02*
X21350000Y-66000000D01*
X25950000Y-66000000D02*
X25950000Y-68300000D01*
X25950000Y-68300000D02*
X21350000Y-68300000D01*
%TO.C,Q3*%
X59155000Y-14700000D02*
X59155000Y-18100000D01*
X59155000Y-18100000D02*
X62995000Y-18100000D01*
X62995000Y-14700000D02*
X59155000Y-14700000D01*
X62995000Y-18100000D02*
X62995000Y-14700000D01*
%TO.C,D2*%
X55230000Y-45300000D02*
X55230000Y-48700000D01*
X55230000Y-48700000D02*
X59070000Y-48700000D01*
X59070000Y-45300000D02*
X55230000Y-45300000D01*
X59070000Y-48700000D02*
X59070000Y-45300000D01*
%TO.C,R8*%
X14430000Y-18120000D02*
X15370000Y-18120000D01*
X14430000Y-19980000D02*
X14430000Y-18120000D01*
X15370000Y-18120000D02*
X15370000Y-19980000D01*
X15370000Y-19980000D02*
X14430000Y-19980000D01*
%TO.C,C12*%
X77550000Y-64700000D02*
X82150000Y-64700000D01*
X77550000Y-67000000D02*
X77550000Y-64700000D01*
X82150000Y-64700000D02*
X82150000Y-67000000D01*
X82150000Y-67000000D02*
X77550000Y-67000000D01*
%TO.C,Q1*%
X36155000Y-59000000D02*
X36155000Y-62400000D01*
X36155000Y-62400000D02*
X39995000Y-62400000D01*
X39995000Y-59000000D02*
X36155000Y-59000000D01*
X39995000Y-62400000D02*
X39995000Y-59000000D01*
%TO.C,C11*%
X90350000Y-20300000D02*
X94950000Y-20300000D01*
X90350000Y-22600000D02*
X90350000Y-20300000D01*
X94950000Y-20300000D02*
X94950000Y-22600000D01*
X94950000Y-22600000D02*
X90350000Y-22600000D01*
%TO.C,C5*%
X8550000Y-59000000D02*
X13150000Y-59000000D01*
X8550000Y-61300000D02*
X8550000Y-59000000D01*
X13150000Y-59000000D02*
X13150000Y-61300000D01*
X13150000Y-61300000D02*
X8550000Y-61300000D01*
%TO.C,D1*%
X30350000Y-7350000D02*
X37350000Y-7350000D01*
X30350000Y-10850000D02*
X30350000Y-7350000D01*
X37350000Y-7350000D02*
X37350000Y-10850000D01*
X37350000Y-10850000D02*
X30350000Y-10850000D01*
%TO.C,Q1*%
X82155000Y-11000000D02*
X82155000Y-14400000D01*
X82155000Y-14400000D02*
X85995000Y-14400000D01*
X85995000Y-11000000D02*
X82155000Y-11000000D01*
X85995000Y-14400000D02*
X85995000Y-11000000D01*
%TO.C,D2*%
X32230000Y-29300000D02*
X32230000Y-32700000D01*
X32230000Y-32700000D02*
X36070000Y-32700000D01*
X36070000Y-29300000D02*
X32230000Y-29300000D01*
X36070000Y-32700000D02*
X36070000Y-29300000D01*
%TO.C,C5*%
X54550000Y-27000000D02*
X59150000Y-27000000D01*
X54550000Y-29300000D02*
X54550000Y-27000000D01*
X59150000Y-27000000D02*
X59150000Y-29300000D01*
X59150000Y-29300000D02*
X54550000Y-29300000D01*
%TO.C,R9*%
X83430000Y-20020000D02*
X84370000Y-20020000D01*
X83430000Y-21880000D02*
X83430000Y-20020000D01*
X84370000Y-20020000D02*
X84370000Y-21880000D01*
X84370000Y-21880000D02*
X83430000Y-21880000D01*
%TO.C,C14*%
X40700000Y-66100000D02*
X43000000Y-66100000D01*
X40700000Y-70700000D02*
X40700000Y-66100000D01*
X43000000Y-66100000D02*
X43000000Y-70700000D01*
X43000000Y-70700000D02*
X40700000Y-70700000D01*
%TO.C,R9*%
X83430000Y-68020000D02*
X84370000Y-68020000D01*
X83430000Y-69880000D02*
X83430000Y-68020000D01*
X84370000Y-68020000D02*
X84370000Y-69880000D01*
X84370000Y-69880000D02*
X83430000Y-69880000D01*
%TO.C,C11*%
X67350000Y-68300000D02*
X71950000Y-68300000D01*
X67350000Y-70600000D02*
X67350000Y-68300000D01*
X71950000Y-68300000D02*
X71950000Y-70600000D01*
X71950000Y-70600000D02*
X67350000Y-70600000D01*
%TO.C,D2*%
X32230000Y-45300000D02*
X32230000Y-48700000D01*
X32230000Y-48700000D02*
X36070000Y-48700000D01*
X36070000Y-45300000D02*
X32230000Y-45300000D01*
X36070000Y-48700000D02*
X36070000Y-45300000D01*
X9230000Y-45300000D02*
X9230000Y-48700000D01*
X9230000Y-48700000D02*
X13070000Y-48700000D01*
X13070000Y-45300000D02*
X9230000Y-45300000D01*
X13070000Y-48700000D02*
X13070000Y-45300000D01*
%TO.C,KiKit_FID_T_2*%
X98600000Y-2500000D02*
G75*
G02*
X97400000Y-2500000I-600000J0D01*
G01*
X97400000Y-2500000D02*
G75*
G02*
X98600000Y-2500000I600000J0D01*
G01*
%TO.C,R3*%
X38270000Y-57980000D02*
X40130000Y-57980000D01*
X38270000Y-58920000D02*
X38270000Y-57980000D01*
X40130000Y-57980000D02*
X40130000Y-58920000D01*
X40130000Y-58920000D02*
X38270000Y-58920000D01*
%TO.C,R2*%
X19470000Y-25980000D02*
X21330000Y-25980000D01*
X19470000Y-26920000D02*
X19470000Y-25980000D01*
X21330000Y-25980000D02*
X21330000Y-26920000D01*
X21330000Y-26920000D02*
X19470000Y-26920000D01*
%TO.C,C11*%
X21350000Y-68300000D02*
X25950000Y-68300000D01*
X21350000Y-70600000D02*
X21350000Y-68300000D01*
X25950000Y-68300000D02*
X25950000Y-70600000D01*
X25950000Y-70600000D02*
X21350000Y-70600000D01*
%TO.C,D1*%
X30350000Y-23350000D02*
X37350000Y-23350000D01*
X30350000Y-26850000D02*
X30350000Y-23350000D01*
X37350000Y-23350000D02*
X37350000Y-26850000D01*
X37350000Y-26850000D02*
X30350000Y-26850000D01*
%TO.C,R5*%
X24220000Y-25030000D02*
X26080000Y-25030000D01*
X24220000Y-25970000D02*
X24220000Y-25030000D01*
X26080000Y-25030000D02*
X26080000Y-25970000D01*
X26080000Y-25970000D02*
X24220000Y-25970000D01*
%TO.C,C12*%
X77550000Y-16700000D02*
X82150000Y-16700000D01*
X77550000Y-19000000D02*
X77550000Y-16700000D01*
X82150000Y-16700000D02*
X82150000Y-19000000D01*
X82150000Y-19000000D02*
X77550000Y-19000000D01*
%TO.C,C3*%
X90375000Y-26000000D02*
X94975000Y-26000000D01*
X90375000Y-28300000D02*
X90375000Y-26000000D01*
X94975000Y-26000000D02*
X94975000Y-28300000D01*
X94975000Y-28300000D02*
X90375000Y-28300000D01*
%TO.C,R9*%
X14430000Y-68020000D02*
X15370000Y-68020000D01*
X14430000Y-69880000D02*
X14430000Y-68020000D01*
X15370000Y-68020000D02*
X15370000Y-69880000D01*
X15370000Y-69880000D02*
X14430000Y-69880000D01*
%TO.C,D4*%
X7305000Y-35150000D02*
X14305000Y-35150000D01*
X7305000Y-38650000D02*
X7305000Y-35150000D01*
X14305000Y-35150000D02*
X14305000Y-38650000D01*
X14305000Y-38650000D02*
X7305000Y-38650000D01*
%TO.C,R2*%
X42470000Y-57980000D02*
X44330000Y-57980000D01*
X42470000Y-58920000D02*
X42470000Y-57980000D01*
X44330000Y-57980000D02*
X44330000Y-58920000D01*
X44330000Y-58920000D02*
X42470000Y-58920000D01*
%TO.C,C12*%
X8550000Y-32700000D02*
X13150000Y-32700000D01*
X8550000Y-35000000D02*
X8550000Y-32700000D01*
X13150000Y-32700000D02*
X13150000Y-35000000D01*
X13150000Y-35000000D02*
X8550000Y-35000000D01*
%TO.C,Q2*%
X17080000Y-43000000D02*
X17080000Y-46400000D01*
X17080000Y-46400000D02*
X20920000Y-46400000D01*
X20920000Y-43000000D02*
X17080000Y-43000000D01*
X20920000Y-46400000D02*
X20920000Y-43000000D01*
%TO.C,R4*%
X17370000Y-25980000D02*
X19230000Y-25980000D01*
X17370000Y-26920000D02*
X17370000Y-25980000D01*
X19230000Y-25980000D02*
X19230000Y-26920000D01*
X19230000Y-26920000D02*
X17370000Y-26920000D01*
%TO.C,R5*%
X70220000Y-41030000D02*
X72080000Y-41030000D01*
X70220000Y-41970000D02*
X70220000Y-41030000D01*
X72080000Y-41030000D02*
X72080000Y-41970000D01*
X72080000Y-41970000D02*
X70220000Y-41970000D01*
%TO.C,R8*%
X37430000Y-50120000D02*
X38370000Y-50120000D01*
X37430000Y-51980000D02*
X37430000Y-50120000D01*
X38370000Y-50120000D02*
X38370000Y-51980000D01*
X38370000Y-51980000D02*
X37430000Y-51980000D01*
%TO.C,C7*%
X19375000Y-55650000D02*
X23975000Y-55650000D01*
X19375000Y-57950000D02*
X19375000Y-55650000D01*
X23975000Y-55650000D02*
X23975000Y-57950000D01*
X23975000Y-57950000D02*
X19375000Y-57950000D01*
%TO.C,C11*%
X44350000Y-20300000D02*
X48950000Y-20300000D01*
X44350000Y-22600000D02*
X44350000Y-20300000D01*
X48950000Y-20300000D02*
X48950000Y-22600000D01*
X48950000Y-22600000D02*
X44350000Y-22600000D01*
%TO.C,C7*%
X19375000Y-39650000D02*
X23975000Y-39650000D01*
X19375000Y-41950000D02*
X19375000Y-39650000D01*
X23975000Y-39650000D02*
X23975000Y-41950000D01*
X23975000Y-41950000D02*
X19375000Y-41950000D01*
%TO.C,C14*%
X40700000Y-50100000D02*
X43000000Y-50100000D01*
X40700000Y-54700000D02*
X40700000Y-50100000D01*
X43000000Y-50100000D02*
X43000000Y-54700000D01*
X43000000Y-54700000D02*
X40700000Y-54700000D01*
%TO.C,C10*%
X21350000Y-50000000D02*
X25950000Y-50000000D01*
X21350000Y-52300000D02*
X21350000Y-50000000D01*
X25950000Y-50000000D02*
X25950000Y-52300000D01*
X25950000Y-52300000D02*
X21350000Y-52300000D01*
%TO.C,D4*%
X76305000Y-51150000D02*
X83305000Y-51150000D01*
X76305000Y-54650000D02*
X76305000Y-51150000D01*
X83305000Y-51150000D02*
X83305000Y-54650000D01*
X83305000Y-54650000D02*
X76305000Y-54650000D01*
%TO.C,Q1*%
X59155000Y-11000000D02*
X59155000Y-14400000D01*
X59155000Y-14400000D02*
X62995000Y-14400000D01*
X62995000Y-11000000D02*
X59155000Y-11000000D01*
X62995000Y-14400000D02*
X62995000Y-11000000D01*
%TO.C,C10*%
X21350000Y-34000000D02*
X25950000Y-34000000D01*
X21350000Y-36300000D02*
X21350000Y-34000000D01*
X25950000Y-34000000D02*
X25950000Y-36300000D01*
X25950000Y-36300000D02*
X21350000Y-36300000D01*
%TO.C,Q4*%
X86080000Y-30700000D02*
X86080000Y-34100000D01*
X86080000Y-34100000D02*
X89920000Y-34100000D01*
X89920000Y-30700000D02*
X86080000Y-30700000D01*
X89920000Y-34100000D02*
X89920000Y-30700000D01*
%TO.C,R9*%
X14430000Y-52020000D02*
X15370000Y-52020000D01*
X14430000Y-53880000D02*
X14430000Y-52020000D01*
X15370000Y-52020000D02*
X15370000Y-53880000D01*
X15370000Y-53880000D02*
X14430000Y-53880000D01*
%TO.C,Q2*%
X86080000Y-11000000D02*
X86080000Y-14400000D01*
X86080000Y-14400000D02*
X89920000Y-14400000D01*
X89920000Y-11000000D02*
X86080000Y-11000000D01*
X89920000Y-14400000D02*
X89920000Y-11000000D01*
%TO.C,R5*%
X47220000Y-41030000D02*
X49080000Y-41030000D01*
X47220000Y-41970000D02*
X47220000Y-41030000D01*
X49080000Y-41030000D02*
X49080000Y-41970000D01*
X49080000Y-41970000D02*
X47220000Y-41970000D01*
%TO.C,R10*%
X89230000Y-50320000D02*
X90170000Y-50320000D01*
X89230000Y-52180000D02*
X89230000Y-50320000D01*
X90170000Y-50320000D02*
X90170000Y-52180000D01*
X90170000Y-52180000D02*
X89230000Y-52180000D01*
%TO.C,C3*%
X44375000Y-58000000D02*
X48975000Y-58000000D01*
X44375000Y-60300000D02*
X44375000Y-58000000D01*
X48975000Y-58000000D02*
X48975000Y-60300000D01*
X48975000Y-60300000D02*
X44375000Y-60300000D01*
%TO.C,C13*%
X61390000Y-34100000D02*
X63690000Y-34100000D01*
X61390000Y-38700000D02*
X61390000Y-34100000D01*
X63690000Y-34100000D02*
X63690000Y-38700000D01*
X63690000Y-38700000D02*
X61390000Y-38700000D01*
%TO.C,C4*%
X44375000Y-44300000D02*
X48975000Y-44300000D01*
X44375000Y-46600000D02*
X44375000Y-44300000D01*
X48975000Y-44300000D02*
X48975000Y-46600000D01*
X48975000Y-46600000D02*
X44375000Y-46600000D01*
%TO.C,Q2*%
X63080000Y-27000000D02*
X63080000Y-30400000D01*
X63080000Y-30400000D02*
X66920000Y-30400000D01*
X66920000Y-27000000D02*
X63080000Y-27000000D01*
X66920000Y-30400000D02*
X66920000Y-27000000D01*
%TO.C,R4*%
X17370000Y-9980000D02*
X19230000Y-9980000D01*
X17370000Y-10920000D02*
X17370000Y-9980000D01*
X19230000Y-9980000D02*
X19230000Y-10920000D01*
X19230000Y-10920000D02*
X17370000Y-10920000D01*
X17370000Y-57980000D02*
X19230000Y-57980000D01*
X17370000Y-58920000D02*
X17370000Y-57980000D01*
X19230000Y-57980000D02*
X19230000Y-58920000D01*
X19230000Y-58920000D02*
X17370000Y-58920000D01*
X63370000Y-25980000D02*
X65230000Y-25980000D01*
X63370000Y-26920000D02*
X63370000Y-25980000D01*
X65230000Y-25980000D02*
X65230000Y-26920000D01*
X65230000Y-26920000D02*
X63370000Y-26920000D01*
%TO.C,C6*%
X60750000Y-23650000D02*
X65350000Y-23650000D01*
X60750000Y-25950000D02*
X60750000Y-23650000D01*
X65350000Y-23650000D02*
X65350000Y-25950000D01*
X65350000Y-25950000D02*
X60750000Y-25950000D01*
%TO.C,Q2*%
X86080000Y-59000000D02*
X86080000Y-62400000D01*
X86080000Y-62400000D02*
X89920000Y-62400000D01*
X89920000Y-59000000D02*
X86080000Y-59000000D01*
X89920000Y-62400000D02*
X89920000Y-59000000D01*
%TO.C,C7*%
X88375000Y-39650000D02*
X92975000Y-39650000D01*
X88375000Y-41950000D02*
X88375000Y-39650000D01*
X92975000Y-39650000D02*
X92975000Y-41950000D01*
X92975000Y-41950000D02*
X88375000Y-41950000D01*
%TO.C,C14*%
X63700000Y-50100000D02*
X66000000Y-50100000D01*
X63700000Y-54700000D02*
X63700000Y-50100000D01*
X66000000Y-50100000D02*
X66000000Y-54700000D01*
X66000000Y-54700000D02*
X63700000Y-54700000D01*
%TO.C,C4*%
X90375000Y-12300000D02*
X94975000Y-12300000D01*
X90375000Y-14600000D02*
X90375000Y-12300000D01*
X94975000Y-12300000D02*
X94975000Y-14600000D01*
X94975000Y-14600000D02*
X90375000Y-14600000D01*
%TO.C,C6*%
X14750000Y-39650000D02*
X19350000Y-39650000D01*
X14750000Y-41950000D02*
X14750000Y-39650000D01*
X19350000Y-39650000D02*
X19350000Y-41950000D01*
X19350000Y-41950000D02*
X14750000Y-41950000D01*
%TO.C,Q1*%
X59155000Y-59000000D02*
X59155000Y-62400000D01*
X59155000Y-62400000D02*
X62995000Y-62400000D01*
X62995000Y-59000000D02*
X59155000Y-59000000D01*
X62995000Y-62400000D02*
X62995000Y-59000000D01*
%TO.C,Q2*%
X17080000Y-11000000D02*
X17080000Y-14400000D01*
X17080000Y-14400000D02*
X20920000Y-14400000D01*
X20920000Y-11000000D02*
X17080000Y-11000000D01*
X20920000Y-14400000D02*
X20920000Y-11000000D01*
%TO.C,D3*%
X90780000Y-46600000D02*
X90780000Y-50000000D01*
X90780000Y-50000000D02*
X94620000Y-50000000D01*
X94620000Y-46600000D02*
X90780000Y-46600000D01*
X94620000Y-50000000D02*
X94620000Y-46600000D01*
%TO.C,C6*%
X60750000Y-39650000D02*
X65350000Y-39650000D01*
X60750000Y-41950000D02*
X60750000Y-39650000D01*
X65350000Y-39650000D02*
X65350000Y-41950000D01*
X65350000Y-41950000D02*
X60750000Y-41950000D01*
X14750000Y-55650000D02*
X19350000Y-55650000D01*
X14750000Y-57950000D02*
X14750000Y-55650000D01*
X19350000Y-55650000D02*
X19350000Y-57950000D01*
X19350000Y-57950000D02*
X14750000Y-57950000D01*
%TO.C,D3*%
X67780000Y-46600000D02*
X67780000Y-50000000D01*
X67780000Y-50000000D02*
X71620000Y-50000000D01*
X71620000Y-46600000D02*
X67780000Y-46600000D01*
X71620000Y-50000000D02*
X71620000Y-46600000D01*
%TO.C,C11*%
X44350000Y-68300000D02*
X48950000Y-68300000D01*
X44350000Y-70600000D02*
X44350000Y-68300000D01*
X48950000Y-68300000D02*
X48950000Y-70600000D01*
X48950000Y-70600000D02*
X44350000Y-70600000D01*
%TO.C,D1*%
X76350000Y-23350000D02*
X83350000Y-23350000D01*
X76350000Y-26850000D02*
X76350000Y-23350000D01*
X83350000Y-23350000D02*
X83350000Y-26850000D01*
X83350000Y-26850000D02*
X76350000Y-26850000D01*
%TO.C,C6*%
X37750000Y-39650000D02*
X42350000Y-39650000D01*
X37750000Y-41950000D02*
X37750000Y-39650000D01*
X42350000Y-39650000D02*
X42350000Y-41950000D01*
X42350000Y-41950000D02*
X37750000Y-41950000D01*
X83750000Y-39650000D02*
X88350000Y-39650000D01*
X83750000Y-41950000D02*
X83750000Y-39650000D01*
X88350000Y-39650000D02*
X88350000Y-41950000D01*
X88350000Y-41950000D02*
X83750000Y-41950000D01*
%TO.C,D2*%
X78230000Y-29300000D02*
X78230000Y-32700000D01*
X78230000Y-32700000D02*
X82070000Y-32700000D01*
X82070000Y-29300000D02*
X78230000Y-29300000D01*
X82070000Y-32700000D02*
X82070000Y-29300000D01*
%TO.C,R7*%
X66230000Y-52570000D02*
X67170000Y-52570000D01*
X66230000Y-54430000D02*
X66230000Y-52570000D01*
X67170000Y-52570000D02*
X67170000Y-54430000D01*
X67170000Y-54430000D02*
X66230000Y-54430000D01*
%TO.C,R10*%
X43230000Y-18320000D02*
X44170000Y-18320000D01*
X43230000Y-20180000D02*
X43230000Y-18320000D01*
X44170000Y-18320000D02*
X44170000Y-20180000D01*
X44170000Y-20180000D02*
X43230000Y-20180000D01*
%TO.C,C13*%
X15390000Y-50100000D02*
X17690000Y-50100000D01*
X15390000Y-54700000D02*
X15390000Y-50100000D01*
X17690000Y-50100000D02*
X17690000Y-54700000D01*
X17690000Y-54700000D02*
X15390000Y-54700000D01*
%TO.C,D4*%
X30305000Y-19150000D02*
X37305000Y-19150000D01*
X30305000Y-22650000D02*
X30305000Y-19150000D01*
X37305000Y-19150000D02*
X37305000Y-22650000D01*
X37305000Y-22650000D02*
X30305000Y-22650000D01*
%TO.C,C7*%
X65375000Y-7650000D02*
X69975000Y-7650000D01*
X65375000Y-9950000D02*
X65375000Y-7650000D01*
X69975000Y-7650000D02*
X69975000Y-9950000D01*
X69975000Y-9950000D02*
X65375000Y-9950000D01*
%TO.C,Q1*%
X13155000Y-27000000D02*
X13155000Y-30400000D01*
X13155000Y-30400000D02*
X16995000Y-30400000D01*
X16995000Y-27000000D02*
X13155000Y-27000000D01*
X16995000Y-30400000D02*
X16995000Y-27000000D01*
%TO.C,R2*%
X65470000Y-25980000D02*
X67330000Y-25980000D01*
X65470000Y-26920000D02*
X65470000Y-25980000D01*
X67330000Y-25980000D02*
X67330000Y-26920000D01*
X67330000Y-26920000D02*
X65470000Y-26920000D01*
%TO.C,R9*%
X60430000Y-20020000D02*
X61370000Y-20020000D01*
X60430000Y-21880000D02*
X60430000Y-20020000D01*
X61370000Y-20020000D02*
X61370000Y-21880000D01*
X61370000Y-21880000D02*
X60430000Y-21880000D01*
%TO.C,D1*%
X53350000Y-7350000D02*
X60350000Y-7350000D01*
X53350000Y-10850000D02*
X53350000Y-7350000D01*
X60350000Y-7350000D02*
X60350000Y-10850000D01*
X60350000Y-10850000D02*
X53350000Y-10850000D01*
X7350000Y-23350000D02*
X14350000Y-23350000D01*
X7350000Y-26850000D02*
X7350000Y-23350000D01*
X14350000Y-23350000D02*
X14350000Y-26850000D01*
X14350000Y-26850000D02*
X7350000Y-26850000D01*
%TO.C,D4*%
X7305000Y-67150000D02*
X14305000Y-67150000D01*
X7305000Y-70650000D02*
X7305000Y-67150000D01*
X14305000Y-67150000D02*
X14305000Y-70650000D01*
X14305000Y-70650000D02*
X7305000Y-70650000D01*
%TO.C,C7*%
X19375000Y-23650000D02*
X23975000Y-23650000D01*
X19375000Y-25950000D02*
X19375000Y-23650000D01*
X23975000Y-23650000D02*
X23975000Y-25950000D01*
X23975000Y-25950000D02*
X19375000Y-25950000D01*
%TO.C,D3*%
X90780000Y-14600000D02*
X90780000Y-18000000D01*
X90780000Y-18000000D02*
X94620000Y-18000000D01*
X94620000Y-14600000D02*
X90780000Y-14600000D01*
X94620000Y-18000000D02*
X94620000Y-14600000D01*
%TO.C,C11*%
X21350000Y-36300000D02*
X25950000Y-36300000D01*
X21350000Y-38600000D02*
X21350000Y-36300000D01*
X25950000Y-36300000D02*
X25950000Y-38600000D01*
X25950000Y-38600000D02*
X21350000Y-38600000D01*
%TO.C,C13*%
X61390000Y-50100000D02*
X63690000Y-50100000D01*
X61390000Y-54700000D02*
X61390000Y-50100000D01*
X63690000Y-50100000D02*
X63690000Y-54700000D01*
X63690000Y-54700000D02*
X61390000Y-54700000D01*
%TO.C,R4*%
X40370000Y-25980000D02*
X42230000Y-25980000D01*
X40370000Y-26920000D02*
X40370000Y-25980000D01*
X42230000Y-25980000D02*
X42230000Y-26920000D01*
X42230000Y-26920000D02*
X40370000Y-26920000D01*
%TO.C,R3*%
X84270000Y-9980000D02*
X86130000Y-9980000D01*
X84270000Y-10920000D02*
X84270000Y-9980000D01*
X86130000Y-9980000D02*
X86130000Y-10920000D01*
X86130000Y-10920000D02*
X84270000Y-10920000D01*
%TO.C,C5*%
X8550000Y-27000000D02*
X13150000Y-27000000D01*
X8550000Y-29300000D02*
X8550000Y-27000000D01*
X13150000Y-27000000D02*
X13150000Y-29300000D01*
X13150000Y-29300000D02*
X8550000Y-29300000D01*
X31550000Y-27000000D02*
X36150000Y-27000000D01*
X31550000Y-29300000D02*
X31550000Y-27000000D01*
X36150000Y-27000000D02*
X36150000Y-29300000D01*
X36150000Y-29300000D02*
X31550000Y-29300000D01*
%TO.C,R7*%
X43230000Y-52570000D02*
X44170000Y-52570000D01*
X43230000Y-54430000D02*
X43230000Y-52570000D01*
X44170000Y-52570000D02*
X44170000Y-54430000D01*
X44170000Y-54430000D02*
X43230000Y-54430000D01*
%TO.C,R9*%
X60430000Y-36020000D02*
X61370000Y-36020000D01*
X60430000Y-37880000D02*
X60430000Y-36020000D01*
X61370000Y-36020000D02*
X61370000Y-37880000D01*
X61370000Y-37880000D02*
X60430000Y-37880000D01*
%TO.C,R3*%
X84270000Y-57980000D02*
X86130000Y-57980000D01*
X84270000Y-58920000D02*
X84270000Y-57980000D01*
X86130000Y-57980000D02*
X86130000Y-58920000D01*
X86130000Y-58920000D02*
X84270000Y-58920000D01*
%TO.C,C4*%
X90375000Y-44300000D02*
X94975000Y-44300000D01*
X90375000Y-46600000D02*
X90375000Y-44300000D01*
X94975000Y-44300000D02*
X94975000Y-46600000D01*
X94975000Y-46600000D02*
X90375000Y-46600000D01*
%TO.C,D3*%
X44780000Y-46600000D02*
X44780000Y-50000000D01*
X44780000Y-50000000D02*
X48620000Y-50000000D01*
X48620000Y-46600000D02*
X44780000Y-46600000D01*
X48620000Y-50000000D02*
X48620000Y-46600000D01*
%TO.C,C12*%
X54550000Y-32700000D02*
X59150000Y-32700000D01*
X54550000Y-35000000D02*
X54550000Y-32700000D01*
X59150000Y-32700000D02*
X59150000Y-35000000D01*
X59150000Y-35000000D02*
X54550000Y-35000000D01*
%TO.C,C3*%
X21375000Y-10000000D02*
X25975000Y-10000000D01*
X21375000Y-12300000D02*
X21375000Y-10000000D01*
X25975000Y-10000000D02*
X25975000Y-12300000D01*
X25975000Y-12300000D02*
X21375000Y-12300000D01*
%TO.C,C12*%
X54550000Y-16700000D02*
X59150000Y-16700000D01*
X54550000Y-19000000D02*
X54550000Y-16700000D01*
X59150000Y-16700000D02*
X59150000Y-19000000D01*
X59150000Y-19000000D02*
X54550000Y-19000000D01*
%TO.C,Q4*%
X17080000Y-14700000D02*
X17080000Y-18100000D01*
X17080000Y-18100000D02*
X20920000Y-18100000D01*
X20920000Y-14700000D02*
X17080000Y-14700000D01*
X20920000Y-18100000D02*
X20920000Y-14700000D01*
%TO.C,D2*%
X9230000Y-29300000D02*
X9230000Y-32700000D01*
X9230000Y-32700000D02*
X13070000Y-32700000D01*
X13070000Y-29300000D02*
X9230000Y-29300000D01*
X13070000Y-32700000D02*
X13070000Y-29300000D01*
%TO.C,R5*%
X24220000Y-57030000D02*
X26080000Y-57030000D01*
X24220000Y-57970000D02*
X24220000Y-57030000D01*
X26080000Y-57030000D02*
X26080000Y-57970000D01*
X26080000Y-57970000D02*
X24220000Y-57970000D01*
%TO.C,D3*%
X44780000Y-62600000D02*
X44780000Y-66000000D01*
X44780000Y-66000000D02*
X48620000Y-66000000D01*
X48620000Y-62600000D02*
X44780000Y-62600000D01*
X48620000Y-66000000D02*
X48620000Y-62600000D01*
%TO.C,R10*%
X89230000Y-66320000D02*
X90170000Y-66320000D01*
X89230000Y-68180000D02*
X89230000Y-66320000D01*
X90170000Y-66320000D02*
X90170000Y-68180000D01*
X90170000Y-68180000D02*
X89230000Y-68180000D01*
%TO.C,C11*%
X90350000Y-52300000D02*
X94950000Y-52300000D01*
X90350000Y-54600000D02*
X90350000Y-52300000D01*
X94950000Y-52300000D02*
X94950000Y-54600000D01*
X94950000Y-54600000D02*
X90350000Y-54600000D01*
%TO.C,C10*%
X44350000Y-18000000D02*
X48950000Y-18000000D01*
X44350000Y-20300000D02*
X44350000Y-18000000D01*
X48950000Y-18000000D02*
X48950000Y-20300000D01*
X48950000Y-20300000D02*
X44350000Y-20300000D01*
%TO.C,R5*%
X93220000Y-41030000D02*
X95080000Y-41030000D01*
X93220000Y-41970000D02*
X93220000Y-41030000D01*
X95080000Y-41030000D02*
X95080000Y-41970000D01*
X95080000Y-41970000D02*
X93220000Y-41970000D01*
%TO.C,R3*%
X61270000Y-9980000D02*
X63130000Y-9980000D01*
X61270000Y-10920000D02*
X61270000Y-9980000D01*
X63130000Y-9980000D02*
X63130000Y-10920000D01*
X63130000Y-10920000D02*
X61270000Y-10920000D01*
%TO.C,R5*%
X93220000Y-9030000D02*
X95080000Y-9030000D01*
X93220000Y-9970000D02*
X93220000Y-9030000D01*
X95080000Y-9030000D02*
X95080000Y-9970000D01*
X95080000Y-9970000D02*
X93220000Y-9970000D01*
%TO.C,C13*%
X84390000Y-50100000D02*
X86690000Y-50100000D01*
X84390000Y-54700000D02*
X84390000Y-50100000D01*
X86690000Y-50100000D02*
X86690000Y-54700000D01*
X86690000Y-54700000D02*
X84390000Y-54700000D01*
%TO.C,R7*%
X20230000Y-36570000D02*
X21170000Y-36570000D01*
X20230000Y-38430000D02*
X20230000Y-36570000D01*
X21170000Y-36570000D02*
X21170000Y-38430000D01*
X21170000Y-38430000D02*
X20230000Y-38430000D01*
%TO.C,C6*%
X83750000Y-23650000D02*
X88350000Y-23650000D01*
X83750000Y-25950000D02*
X83750000Y-23650000D01*
X88350000Y-23650000D02*
X88350000Y-25950000D01*
X88350000Y-25950000D02*
X83750000Y-25950000D01*
%TO.C,R2*%
X65470000Y-57980000D02*
X67330000Y-57980000D01*
X65470000Y-58920000D02*
X65470000Y-57980000D01*
X67330000Y-57980000D02*
X67330000Y-58920000D01*
X67330000Y-58920000D02*
X65470000Y-58920000D01*
%TO.C,D3*%
X67780000Y-62600000D02*
X67780000Y-66000000D01*
X67780000Y-66000000D02*
X71620000Y-66000000D01*
X71620000Y-62600000D02*
X67780000Y-62600000D01*
X71620000Y-66000000D02*
X71620000Y-62600000D01*
%TO.C,C3*%
X90375000Y-58000000D02*
X94975000Y-58000000D01*
X90375000Y-60300000D02*
X90375000Y-58000000D01*
X94975000Y-58000000D02*
X94975000Y-60300000D01*
X94975000Y-60300000D02*
X90375000Y-60300000D01*
%TO.C,R3*%
X38270000Y-9980000D02*
X40130000Y-9980000D01*
X38270000Y-10920000D02*
X38270000Y-9980000D01*
X40130000Y-9980000D02*
X40130000Y-10920000D01*
X40130000Y-10920000D02*
X38270000Y-10920000D01*
%TO.C,Q4*%
X63080000Y-30700000D02*
X63080000Y-34100000D01*
X63080000Y-34100000D02*
X66920000Y-34100000D01*
X66920000Y-30700000D02*
X63080000Y-30700000D01*
X66920000Y-34100000D02*
X66920000Y-30700000D01*
%TO.C,C13*%
X38390000Y-34100000D02*
X40690000Y-34100000D01*
X38390000Y-38700000D02*
X38390000Y-34100000D01*
X40690000Y-34100000D02*
X40690000Y-38700000D01*
X40690000Y-38700000D02*
X38390000Y-38700000D01*
%TO.C,D3*%
X21780000Y-46600000D02*
X21780000Y-50000000D01*
X21780000Y-50000000D02*
X25620000Y-50000000D01*
X25620000Y-46600000D02*
X21780000Y-46600000D01*
X25620000Y-50000000D02*
X25620000Y-46600000D01*
%TO.C,KiKit_FID_T_1*%
X5600000Y-2500000D02*
G75*
G02*
X4400000Y-2500000I-600000J0D01*
G01*
X4400000Y-2500000D02*
G75*
G02*
X5600000Y-2500000I600000J0D01*
G01*
%TO.C,Q1*%
X36155000Y-11000000D02*
X36155000Y-14400000D01*
X36155000Y-14400000D02*
X39995000Y-14400000D01*
X39995000Y-11000000D02*
X36155000Y-11000000D01*
X39995000Y-14400000D02*
X39995000Y-11000000D01*
%TO.C,C3*%
X90375000Y-42000000D02*
X94975000Y-42000000D01*
X90375000Y-44300000D02*
X90375000Y-42000000D01*
X94975000Y-42000000D02*
X94975000Y-44300000D01*
X94975000Y-44300000D02*
X90375000Y-44300000D01*
X67375000Y-42000000D02*
X71975000Y-42000000D01*
X67375000Y-44300000D02*
X67375000Y-42000000D01*
X71975000Y-42000000D02*
X71975000Y-44300000D01*
X71975000Y-44300000D02*
X67375000Y-44300000D01*
%TO.C,Q2*%
X40080000Y-27000000D02*
X40080000Y-30400000D01*
X40080000Y-30400000D02*
X43920000Y-30400000D01*
X43920000Y-27000000D02*
X40080000Y-27000000D01*
X43920000Y-30400000D02*
X43920000Y-27000000D01*
%TO.C,R4*%
X86370000Y-57980000D02*
X88230000Y-57980000D01*
X86370000Y-58920000D02*
X86370000Y-57980000D01*
X88230000Y-57980000D02*
X88230000Y-58920000D01*
X88230000Y-58920000D02*
X86370000Y-58920000D01*
%TO.C,C5*%
X54550000Y-59000000D02*
X59150000Y-59000000D01*
X54550000Y-61300000D02*
X54550000Y-59000000D01*
X59150000Y-59000000D02*
X59150000Y-61300000D01*
X59150000Y-61300000D02*
X54550000Y-61300000D01*
%TO.C,C7*%
X65375000Y-23650000D02*
X69975000Y-23650000D01*
X65375000Y-25950000D02*
X65375000Y-23650000D01*
X69975000Y-23650000D02*
X69975000Y-25950000D01*
X69975000Y-25950000D02*
X65375000Y-25950000D01*
%TO.C,C14*%
X86700000Y-66100000D02*
X89000000Y-66100000D01*
X86700000Y-70700000D02*
X86700000Y-66100000D01*
X89000000Y-66100000D02*
X89000000Y-70700000D01*
X89000000Y-70700000D02*
X86700000Y-70700000D01*
%TO.C,C10*%
X44350000Y-50000000D02*
X48950000Y-50000000D01*
X44350000Y-52300000D02*
X44350000Y-50000000D01*
X48950000Y-50000000D02*
X48950000Y-52300000D01*
X48950000Y-52300000D02*
X44350000Y-52300000D01*
%TO.C,R4*%
X40370000Y-9980000D02*
X42230000Y-9980000D01*
X40370000Y-10920000D02*
X40370000Y-9980000D01*
X42230000Y-9980000D02*
X42230000Y-10920000D01*
X42230000Y-10920000D02*
X40370000Y-10920000D01*
%TO.C,D3*%
X21780000Y-62600000D02*
X21780000Y-66000000D01*
X21780000Y-66000000D02*
X25620000Y-66000000D01*
X25620000Y-62600000D02*
X21780000Y-62600000D01*
X25620000Y-66000000D02*
X25620000Y-62600000D01*
%TO.C,C5*%
X77550000Y-59000000D02*
X82150000Y-59000000D01*
X77550000Y-61300000D02*
X77550000Y-59000000D01*
X82150000Y-59000000D02*
X82150000Y-61300000D01*
X82150000Y-61300000D02*
X77550000Y-61300000D01*
%TO.C,R3*%
X61270000Y-57980000D02*
X63130000Y-57980000D01*
X61270000Y-58920000D02*
X61270000Y-57980000D01*
X63130000Y-57980000D02*
X63130000Y-58920000D01*
X63130000Y-58920000D02*
X61270000Y-58920000D01*
%TO.C,C13*%
X15390000Y-18100000D02*
X17690000Y-18100000D01*
X15390000Y-22700000D02*
X15390000Y-18100000D01*
X17690000Y-18100000D02*
X17690000Y-22700000D01*
X17690000Y-22700000D02*
X15390000Y-22700000D01*
%TO.C,C14*%
X17700000Y-18100000D02*
X20000000Y-18100000D01*
X17700000Y-22700000D02*
X17700000Y-18100000D01*
X20000000Y-18100000D02*
X20000000Y-22700000D01*
X20000000Y-22700000D02*
X17700000Y-22700000D01*
%TO.C,C3*%
X21375000Y-58000000D02*
X25975000Y-58000000D01*
X21375000Y-60300000D02*
X21375000Y-58000000D01*
X25975000Y-58000000D02*
X25975000Y-60300000D01*
X25975000Y-60300000D02*
X21375000Y-60300000D01*
%TO.C,C6*%
X14750000Y-23650000D02*
X19350000Y-23650000D01*
X14750000Y-25950000D02*
X14750000Y-23650000D01*
X19350000Y-23650000D02*
X19350000Y-25950000D01*
X19350000Y-25950000D02*
X14750000Y-25950000D01*
%TO.C,C12*%
X31550000Y-64700000D02*
X36150000Y-64700000D01*
X31550000Y-67000000D02*
X31550000Y-64700000D01*
X36150000Y-64700000D02*
X36150000Y-67000000D01*
X36150000Y-67000000D02*
X31550000Y-67000000D01*
%TO.C,Q3*%
X82155000Y-46700000D02*
X82155000Y-50100000D01*
X82155000Y-50100000D02*
X85995000Y-50100000D01*
X85995000Y-46700000D02*
X82155000Y-46700000D01*
X85995000Y-50100000D02*
X85995000Y-46700000D01*
%TO.C,C4*%
X21375000Y-12300000D02*
X25975000Y-12300000D01*
X21375000Y-14600000D02*
X21375000Y-12300000D01*
X25975000Y-12300000D02*
X25975000Y-14600000D01*
X25975000Y-14600000D02*
X21375000Y-14600000D01*
%TO.C,R5*%
X70220000Y-25030000D02*
X72080000Y-25030000D01*
X70220000Y-25970000D02*
X70220000Y-25030000D01*
X72080000Y-25030000D02*
X72080000Y-25970000D01*
X72080000Y-25970000D02*
X70220000Y-25970000D01*
%TO.C,D2*%
X78230000Y-13300000D02*
X78230000Y-16700000D01*
X78230000Y-16700000D02*
X82070000Y-16700000D01*
X82070000Y-13300000D02*
X78230000Y-13300000D01*
X82070000Y-16700000D02*
X82070000Y-13300000D01*
%TO.C,Q1*%
X59155000Y-27000000D02*
X59155000Y-30400000D01*
X59155000Y-30400000D02*
X62995000Y-30400000D01*
X62995000Y-27000000D02*
X59155000Y-27000000D01*
X62995000Y-30400000D02*
X62995000Y-27000000D01*
%TO.C,Q2*%
X40080000Y-59000000D02*
X40080000Y-62400000D01*
X40080000Y-62400000D02*
X43920000Y-62400000D01*
X43920000Y-59000000D02*
X40080000Y-59000000D01*
X43920000Y-62400000D02*
X43920000Y-59000000D01*
%TO.C,C5*%
X77550000Y-43000000D02*
X82150000Y-43000000D01*
X77550000Y-45300000D02*
X77550000Y-43000000D01*
X82150000Y-43000000D02*
X82150000Y-45300000D01*
X82150000Y-45300000D02*
X77550000Y-45300000D01*
%TO.C,R9*%
X37430000Y-52020000D02*
X38370000Y-52020000D01*
X37430000Y-53880000D02*
X37430000Y-52020000D01*
X38370000Y-52020000D02*
X38370000Y-53880000D01*
X38370000Y-53880000D02*
X37430000Y-53880000D01*
%TO.C,Q4*%
X40080000Y-62700000D02*
X40080000Y-66100000D01*
X40080000Y-66100000D02*
X43920000Y-66100000D01*
X43920000Y-62700000D02*
X40080000Y-62700000D01*
X43920000Y-66100000D02*
X43920000Y-62700000D01*
%TO.C,C10*%
X90350000Y-66000000D02*
X94950000Y-66000000D01*
X90350000Y-68300000D02*
X90350000Y-66000000D01*
X94950000Y-66000000D02*
X94950000Y-68300000D01*
X94950000Y-68300000D02*
X90350000Y-68300000D01*
%TO.C,Q1*%
X13155000Y-59000000D02*
X13155000Y-62400000D01*
X13155000Y-62400000D02*
X16995000Y-62400000D01*
X16995000Y-59000000D02*
X13155000Y-59000000D01*
X16995000Y-62400000D02*
X16995000Y-59000000D01*
%TO.C,R8*%
X83430000Y-66120000D02*
X84370000Y-66120000D01*
X83430000Y-67980000D02*
X83430000Y-66120000D01*
X84370000Y-66120000D02*
X84370000Y-67980000D01*
X84370000Y-67980000D02*
X83430000Y-67980000D01*
%TO.C,C14*%
X86700000Y-50100000D02*
X89000000Y-50100000D01*
X86700000Y-54700000D02*
X86700000Y-50100000D01*
X89000000Y-50100000D02*
X89000000Y-54700000D01*
X89000000Y-54700000D02*
X86700000Y-54700000D01*
%TO.C,C12*%
X54550000Y-64700000D02*
X59150000Y-64700000D01*
X54550000Y-67000000D02*
X54550000Y-64700000D01*
X59150000Y-64700000D02*
X59150000Y-67000000D01*
X59150000Y-67000000D02*
X54550000Y-67000000D01*
%TO.C,R9*%
X14430000Y-36020000D02*
X15370000Y-36020000D01*
X14430000Y-37880000D02*
X14430000Y-36020000D01*
X15370000Y-36020000D02*
X15370000Y-37880000D01*
X15370000Y-37880000D02*
X14430000Y-37880000D01*
%TO.C,C4*%
X44375000Y-60300000D02*
X48975000Y-60300000D01*
X44375000Y-62600000D02*
X44375000Y-60300000D01*
X48975000Y-60300000D02*
X48975000Y-62600000D01*
X48975000Y-62600000D02*
X44375000Y-62600000D01*
%TO.C,C12*%
X31550000Y-32700000D02*
X36150000Y-32700000D01*
X31550000Y-35000000D02*
X31550000Y-32700000D01*
X36150000Y-32700000D02*
X36150000Y-35000000D01*
X36150000Y-35000000D02*
X31550000Y-35000000D01*
%TO.C,D3*%
X21780000Y-30600000D02*
X21780000Y-34000000D01*
X21780000Y-34000000D02*
X25620000Y-34000000D01*
X25620000Y-30600000D02*
X21780000Y-30600000D01*
X25620000Y-34000000D02*
X25620000Y-30600000D01*
%TO.C,R3*%
X84270000Y-41980000D02*
X86130000Y-41980000D01*
X84270000Y-42920000D02*
X84270000Y-41980000D01*
X86130000Y-41980000D02*
X86130000Y-42920000D01*
X86130000Y-42920000D02*
X84270000Y-42920000D01*
%TO.C,R5*%
X93220000Y-25030000D02*
X95080000Y-25030000D01*
X93220000Y-25970000D02*
X93220000Y-25030000D01*
X95080000Y-25030000D02*
X95080000Y-25970000D01*
X95080000Y-25970000D02*
X93220000Y-25970000D01*
%TO.C,Q2*%
X40080000Y-43000000D02*
X40080000Y-46400000D01*
X40080000Y-46400000D02*
X43920000Y-46400000D01*
X43920000Y-43000000D02*
X40080000Y-43000000D01*
X43920000Y-46400000D02*
X43920000Y-43000000D01*
%TO.C,C13*%
X61390000Y-18100000D02*
X63690000Y-18100000D01*
X61390000Y-22700000D02*
X61390000Y-18100000D01*
X63690000Y-18100000D02*
X63690000Y-22700000D01*
X63690000Y-22700000D02*
X61390000Y-22700000D01*
%TO.C,R2*%
X19470000Y-41980000D02*
X21330000Y-41980000D01*
X19470000Y-42920000D02*
X19470000Y-41980000D01*
X21330000Y-41980000D02*
X21330000Y-42920000D01*
X21330000Y-42920000D02*
X19470000Y-42920000D01*
%TO.C,R8*%
X83430000Y-34120000D02*
X84370000Y-34120000D01*
X83430000Y-35980000D02*
X83430000Y-34120000D01*
X84370000Y-34120000D02*
X84370000Y-35980000D01*
X84370000Y-35980000D02*
X83430000Y-35980000D01*
%TO.C,Q3*%
X59155000Y-30700000D02*
X59155000Y-34100000D01*
X59155000Y-34100000D02*
X62995000Y-34100000D01*
X62995000Y-30700000D02*
X59155000Y-30700000D01*
X62995000Y-34100000D02*
X62995000Y-30700000D01*
X82155000Y-14700000D02*
X82155000Y-18100000D01*
X82155000Y-18100000D02*
X85995000Y-18100000D01*
X85995000Y-14700000D02*
X82155000Y-14700000D01*
X85995000Y-18100000D02*
X85995000Y-14700000D01*
%TO.C,D1*%
X7350000Y-39350000D02*
X14350000Y-39350000D01*
X7350000Y-42850000D02*
X7350000Y-39350000D01*
X14350000Y-39350000D02*
X14350000Y-42850000D01*
X14350000Y-42850000D02*
X7350000Y-42850000D01*
%TO.C,R7*%
X43230000Y-36570000D02*
X44170000Y-36570000D01*
X43230000Y-38430000D02*
X43230000Y-36570000D01*
X44170000Y-36570000D02*
X44170000Y-38430000D01*
X44170000Y-38430000D02*
X43230000Y-38430000D01*
%TO.C,C13*%
X84390000Y-66100000D02*
X86690000Y-66100000D01*
X84390000Y-70700000D02*
X84390000Y-66100000D01*
X86690000Y-66100000D02*
X86690000Y-70700000D01*
X86690000Y-70700000D02*
X84390000Y-70700000D01*
%TO.C,R2*%
X19470000Y-57980000D02*
X21330000Y-57980000D01*
X19470000Y-58920000D02*
X19470000Y-57980000D01*
X21330000Y-57980000D02*
X21330000Y-58920000D01*
X21330000Y-58920000D02*
X19470000Y-58920000D01*
%TO.C,R7*%
X20230000Y-68570000D02*
X21170000Y-68570000D01*
X20230000Y-70430000D02*
X20230000Y-68570000D01*
X21170000Y-68570000D02*
X21170000Y-70430000D01*
X21170000Y-70430000D02*
X20230000Y-70430000D01*
%TO.C,Q3*%
X59155000Y-62700000D02*
X59155000Y-66100000D01*
X59155000Y-66100000D02*
X62995000Y-66100000D01*
X62995000Y-62700000D02*
X59155000Y-62700000D01*
X62995000Y-66100000D02*
X62995000Y-62700000D01*
%TO.C,R7*%
X43230000Y-20570000D02*
X44170000Y-20570000D01*
X43230000Y-22430000D02*
X43230000Y-20570000D01*
X44170000Y-20570000D02*
X44170000Y-22430000D01*
X44170000Y-22430000D02*
X43230000Y-22430000D01*
%TO.C,R8*%
X60430000Y-18120000D02*
X61370000Y-18120000D01*
X60430000Y-19980000D02*
X60430000Y-18120000D01*
X61370000Y-18120000D02*
X61370000Y-19980000D01*
X61370000Y-19980000D02*
X60430000Y-19980000D01*
%TO.C,Q1*%
X82155000Y-27000000D02*
X82155000Y-30400000D01*
X82155000Y-30400000D02*
X85995000Y-30400000D01*
X85995000Y-27000000D02*
X82155000Y-27000000D01*
X85995000Y-30400000D02*
X85995000Y-27000000D01*
%TO.C,D4*%
X53305000Y-51150000D02*
X60305000Y-51150000D01*
X53305000Y-54650000D02*
X53305000Y-51150000D01*
X60305000Y-51150000D02*
X60305000Y-54650000D01*
X60305000Y-54650000D02*
X53305000Y-54650000D01*
%TO.C,R5*%
X24220000Y-41030000D02*
X26080000Y-41030000D01*
X24220000Y-41970000D02*
X24220000Y-41030000D01*
X26080000Y-41030000D02*
X26080000Y-41970000D01*
X26080000Y-41970000D02*
X24220000Y-41970000D01*
%TO.C,C14*%
X17700000Y-50100000D02*
X20000000Y-50100000D01*
X17700000Y-54700000D02*
X17700000Y-50100000D01*
X20000000Y-50100000D02*
X20000000Y-54700000D01*
X20000000Y-54700000D02*
X17700000Y-54700000D01*
%TO.C,C11*%
X44350000Y-36300000D02*
X48950000Y-36300000D01*
X44350000Y-38600000D02*
X44350000Y-36300000D01*
X48950000Y-36300000D02*
X48950000Y-38600000D01*
X48950000Y-38600000D02*
X44350000Y-38600000D01*
%TD*%
M02*
