%TF.GenerationSoftware,KiCad,Pcbnew,8.0.9-8.0.9-0~ubuntu24.04.1*%
%TF.CreationDate,2025-07-21T09:14:07-04:00*%
%TF.ProjectId,panel,70616e65-6c2e-46b6-9963-61645f706362,0.1.X*%
%TF.SameCoordinates,Original*%
%TF.FileFunction,Other,Comment*%
%FSLAX46Y46*%
G04 Gerber Fmt 4.6, Leading zero omitted, Abs format (unit mm)*
G04 Created by KiCad (PCBNEW 8.0.9-8.0.9-0~ubuntu24.04.1) date 2025-07-21 09:14:07*
%MOMM*%
%LPD*%
G01*
G04 APERTURE LIST*
%ADD10C,0.300000*%
G04 APERTURE END LIST*
D10*
X27000000Y3000000D02*
X27000000Y-81000000D01*
X73000000Y3000000D02*
X73000000Y-81000000D01*
X-3000000Y-7000000D02*
X106000000Y-7000000D01*
X76000000Y3000000D02*
X76000000Y-81000000D01*
X-3000000Y-23000000D02*
X106000000Y-23000000D01*
X50000000Y3000000D02*
X50000000Y-81000000D01*
X-3000000Y-39000000D02*
X106000000Y-39000000D01*
X30000000Y3000000D02*
X30000000Y-81000000D01*
X96000000Y3000000D02*
X96000000Y-81000000D01*
X-3000000Y-55000000D02*
X106000000Y-55000000D01*
X-3000000Y-71000000D02*
X106000000Y-71000000D01*
X7000000Y3000000D02*
X7000000Y-81000000D01*
X53000000Y3000000D02*
X53000000Y-81000000D01*
X109387844Y-5909638D02*
X110054510Y-7909638D01*
X110054510Y-7909638D02*
X110721177Y-5909638D01*
X111387844Y-7147733D02*
X112911654Y-7147733D01*
X115006891Y-7719161D02*
X114911653Y-7814400D01*
X114911653Y-7814400D02*
X114625939Y-7909638D01*
X114625939Y-7909638D02*
X114435463Y-7909638D01*
X114435463Y-7909638D02*
X114149748Y-7814400D01*
X114149748Y-7814400D02*
X113959272Y-7623923D01*
X113959272Y-7623923D02*
X113864034Y-7433447D01*
X113864034Y-7433447D02*
X113768796Y-7052495D01*
X113768796Y-7052495D02*
X113768796Y-6766780D01*
X113768796Y-6766780D02*
X113864034Y-6385828D01*
X113864034Y-6385828D02*
X113959272Y-6195352D01*
X113959272Y-6195352D02*
X114149748Y-6004876D01*
X114149748Y-6004876D02*
X114435463Y-5909638D01*
X114435463Y-5909638D02*
X114625939Y-5909638D01*
X114625939Y-5909638D02*
X114911653Y-6004876D01*
X114911653Y-6004876D02*
X115006891Y-6100114D01*
X115864034Y-5909638D02*
X115864034Y-7528685D01*
X115864034Y-7528685D02*
X115959272Y-7719161D01*
X115959272Y-7719161D02*
X116054510Y-7814400D01*
X116054510Y-7814400D02*
X116244986Y-7909638D01*
X116244986Y-7909638D02*
X116625939Y-7909638D01*
X116625939Y-7909638D02*
X116816415Y-7814400D01*
X116816415Y-7814400D02*
X116911653Y-7719161D01*
X116911653Y-7719161D02*
X117006891Y-7528685D01*
X117006891Y-7528685D02*
X117006891Y-5909638D01*
X117673558Y-5909638D02*
X118816415Y-5909638D01*
X118244986Y-7909638D02*
X118244986Y-5909638D01*
X28909638Y6387845D02*
X30909638Y7054511D01*
X30909638Y7054511D02*
X28909638Y7721178D01*
X30147733Y8387845D02*
X30147733Y9911654D01*
X30719161Y12006892D02*
X30814400Y11911654D01*
X30814400Y11911654D02*
X30909638Y11625940D01*
X30909638Y11625940D02*
X30909638Y11435464D01*
X30909638Y11435464D02*
X30814400Y11149749D01*
X30814400Y11149749D02*
X30623923Y10959273D01*
X30623923Y10959273D02*
X30433447Y10864035D01*
X30433447Y10864035D02*
X30052495Y10768797D01*
X30052495Y10768797D02*
X29766780Y10768797D01*
X29766780Y10768797D02*
X29385828Y10864035D01*
X29385828Y10864035D02*
X29195352Y10959273D01*
X29195352Y10959273D02*
X29004876Y11149749D01*
X29004876Y11149749D02*
X28909638Y11435464D01*
X28909638Y11435464D02*
X28909638Y11625940D01*
X28909638Y11625940D02*
X29004876Y11911654D01*
X29004876Y11911654D02*
X29100114Y12006892D01*
X28909638Y12864035D02*
X30528685Y12864035D01*
X30528685Y12864035D02*
X30719161Y12959273D01*
X30719161Y12959273D02*
X30814400Y13054511D01*
X30814400Y13054511D02*
X30909638Y13244987D01*
X30909638Y13244987D02*
X30909638Y13625940D01*
X30909638Y13625940D02*
X30814400Y13816416D01*
X30814400Y13816416D02*
X30719161Y13911654D01*
X30719161Y13911654D02*
X30528685Y14006892D01*
X30528685Y14006892D02*
X28909638Y14006892D01*
X28909638Y14673559D02*
X28909638Y15816416D01*
X30909638Y15244987D02*
X28909638Y15244987D01*
X94909638Y6387845D02*
X96909638Y7054511D01*
X96909638Y7054511D02*
X94909638Y7721178D01*
X96147733Y8387845D02*
X96147733Y9911654D01*
X96719161Y12006892D02*
X96814400Y11911654D01*
X96814400Y11911654D02*
X96909638Y11625940D01*
X96909638Y11625940D02*
X96909638Y11435464D01*
X96909638Y11435464D02*
X96814400Y11149749D01*
X96814400Y11149749D02*
X96623923Y10959273D01*
X96623923Y10959273D02*
X96433447Y10864035D01*
X96433447Y10864035D02*
X96052495Y10768797D01*
X96052495Y10768797D02*
X95766780Y10768797D01*
X95766780Y10768797D02*
X95385828Y10864035D01*
X95385828Y10864035D02*
X95195352Y10959273D01*
X95195352Y10959273D02*
X95004876Y11149749D01*
X95004876Y11149749D02*
X94909638Y11435464D01*
X94909638Y11435464D02*
X94909638Y11625940D01*
X94909638Y11625940D02*
X95004876Y11911654D01*
X95004876Y11911654D02*
X95100114Y12006892D01*
X94909638Y12864035D02*
X96528685Y12864035D01*
X96528685Y12864035D02*
X96719161Y12959273D01*
X96719161Y12959273D02*
X96814400Y13054511D01*
X96814400Y13054511D02*
X96909638Y13244987D01*
X96909638Y13244987D02*
X96909638Y13625940D01*
X96909638Y13625940D02*
X96814400Y13816416D01*
X96814400Y13816416D02*
X96719161Y13911654D01*
X96719161Y13911654D02*
X96528685Y14006892D01*
X96528685Y14006892D02*
X94909638Y14006892D01*
X94909638Y14673559D02*
X94909638Y15816416D01*
X96909638Y15244987D02*
X94909638Y15244987D01*
X109387844Y-69909638D02*
X110054510Y-71909638D01*
X110054510Y-71909638D02*
X110721177Y-69909638D01*
X111387844Y-71147733D02*
X112911654Y-71147733D01*
X115006891Y-71719161D02*
X114911653Y-71814400D01*
X114911653Y-71814400D02*
X114625939Y-71909638D01*
X114625939Y-71909638D02*
X114435463Y-71909638D01*
X114435463Y-71909638D02*
X114149748Y-71814400D01*
X114149748Y-71814400D02*
X113959272Y-71623923D01*
X113959272Y-71623923D02*
X113864034Y-71433447D01*
X113864034Y-71433447D02*
X113768796Y-71052495D01*
X113768796Y-71052495D02*
X113768796Y-70766780D01*
X113768796Y-70766780D02*
X113864034Y-70385828D01*
X113864034Y-70385828D02*
X113959272Y-70195352D01*
X113959272Y-70195352D02*
X114149748Y-70004876D01*
X114149748Y-70004876D02*
X114435463Y-69909638D01*
X114435463Y-69909638D02*
X114625939Y-69909638D01*
X114625939Y-69909638D02*
X114911653Y-70004876D01*
X114911653Y-70004876D02*
X115006891Y-70100114D01*
X115864034Y-69909638D02*
X115864034Y-71528685D01*
X115864034Y-71528685D02*
X115959272Y-71719161D01*
X115959272Y-71719161D02*
X116054510Y-71814400D01*
X116054510Y-71814400D02*
X116244986Y-71909638D01*
X116244986Y-71909638D02*
X116625939Y-71909638D01*
X116625939Y-71909638D02*
X116816415Y-71814400D01*
X116816415Y-71814400D02*
X116911653Y-71719161D01*
X116911653Y-71719161D02*
X117006891Y-71528685D01*
X117006891Y-71528685D02*
X117006891Y-69909638D01*
X117673558Y-69909638D02*
X118816415Y-69909638D01*
X118244986Y-71909638D02*
X118244986Y-69909638D01*
X51909638Y6387845D02*
X53909638Y7054511D01*
X53909638Y7054511D02*
X51909638Y7721178D01*
X53147733Y8387845D02*
X53147733Y9911654D01*
X53719161Y12006892D02*
X53814400Y11911654D01*
X53814400Y11911654D02*
X53909638Y11625940D01*
X53909638Y11625940D02*
X53909638Y11435464D01*
X53909638Y11435464D02*
X53814400Y11149749D01*
X53814400Y11149749D02*
X53623923Y10959273D01*
X53623923Y10959273D02*
X53433447Y10864035D01*
X53433447Y10864035D02*
X53052495Y10768797D01*
X53052495Y10768797D02*
X52766780Y10768797D01*
X52766780Y10768797D02*
X52385828Y10864035D01*
X52385828Y10864035D02*
X52195352Y10959273D01*
X52195352Y10959273D02*
X52004876Y11149749D01*
X52004876Y11149749D02*
X51909638Y11435464D01*
X51909638Y11435464D02*
X51909638Y11625940D01*
X51909638Y11625940D02*
X52004876Y11911654D01*
X52004876Y11911654D02*
X52100114Y12006892D01*
X51909638Y12864035D02*
X53528685Y12864035D01*
X53528685Y12864035D02*
X53719161Y12959273D01*
X53719161Y12959273D02*
X53814400Y13054511D01*
X53814400Y13054511D02*
X53909638Y13244987D01*
X53909638Y13244987D02*
X53909638Y13625940D01*
X53909638Y13625940D02*
X53814400Y13816416D01*
X53814400Y13816416D02*
X53719161Y13911654D01*
X53719161Y13911654D02*
X53528685Y14006892D01*
X53528685Y14006892D02*
X51909638Y14006892D01*
X51909638Y14673559D02*
X51909638Y15816416D01*
X53909638Y15244987D02*
X51909638Y15244987D01*
X71909638Y6387845D02*
X73909638Y7054511D01*
X73909638Y7054511D02*
X71909638Y7721178D01*
X73147733Y8387845D02*
X73147733Y9911654D01*
X73719161Y12006892D02*
X73814400Y11911654D01*
X73814400Y11911654D02*
X73909638Y11625940D01*
X73909638Y11625940D02*
X73909638Y11435464D01*
X73909638Y11435464D02*
X73814400Y11149749D01*
X73814400Y11149749D02*
X73623923Y10959273D01*
X73623923Y10959273D02*
X73433447Y10864035D01*
X73433447Y10864035D02*
X73052495Y10768797D01*
X73052495Y10768797D02*
X72766780Y10768797D01*
X72766780Y10768797D02*
X72385828Y10864035D01*
X72385828Y10864035D02*
X72195352Y10959273D01*
X72195352Y10959273D02*
X72004876Y11149749D01*
X72004876Y11149749D02*
X71909638Y11435464D01*
X71909638Y11435464D02*
X71909638Y11625940D01*
X71909638Y11625940D02*
X72004876Y11911654D01*
X72004876Y11911654D02*
X72100114Y12006892D01*
X71909638Y12864035D02*
X73528685Y12864035D01*
X73528685Y12864035D02*
X73719161Y12959273D01*
X73719161Y12959273D02*
X73814400Y13054511D01*
X73814400Y13054511D02*
X73909638Y13244987D01*
X73909638Y13244987D02*
X73909638Y13625940D01*
X73909638Y13625940D02*
X73814400Y13816416D01*
X73814400Y13816416D02*
X73719161Y13911654D01*
X73719161Y13911654D02*
X73528685Y14006892D01*
X73528685Y14006892D02*
X71909638Y14006892D01*
X71909638Y14673559D02*
X71909638Y15816416D01*
X73909638Y15244987D02*
X71909638Y15244987D01*
X48909638Y6387845D02*
X50909638Y7054511D01*
X50909638Y7054511D02*
X48909638Y7721178D01*
X50147733Y8387845D02*
X50147733Y9911654D01*
X50719161Y12006892D02*
X50814400Y11911654D01*
X50814400Y11911654D02*
X50909638Y11625940D01*
X50909638Y11625940D02*
X50909638Y11435464D01*
X50909638Y11435464D02*
X50814400Y11149749D01*
X50814400Y11149749D02*
X50623923Y10959273D01*
X50623923Y10959273D02*
X50433447Y10864035D01*
X50433447Y10864035D02*
X50052495Y10768797D01*
X50052495Y10768797D02*
X49766780Y10768797D01*
X49766780Y10768797D02*
X49385828Y10864035D01*
X49385828Y10864035D02*
X49195352Y10959273D01*
X49195352Y10959273D02*
X49004876Y11149749D01*
X49004876Y11149749D02*
X48909638Y11435464D01*
X48909638Y11435464D02*
X48909638Y11625940D01*
X48909638Y11625940D02*
X49004876Y11911654D01*
X49004876Y11911654D02*
X49100114Y12006892D01*
X48909638Y12864035D02*
X50528685Y12864035D01*
X50528685Y12864035D02*
X50719161Y12959273D01*
X50719161Y12959273D02*
X50814400Y13054511D01*
X50814400Y13054511D02*
X50909638Y13244987D01*
X50909638Y13244987D02*
X50909638Y13625940D01*
X50909638Y13625940D02*
X50814400Y13816416D01*
X50814400Y13816416D02*
X50719161Y13911654D01*
X50719161Y13911654D02*
X50528685Y14006892D01*
X50528685Y14006892D02*
X48909638Y14006892D01*
X48909638Y14673559D02*
X48909638Y15816416D01*
X50909638Y15244987D02*
X48909638Y15244987D01*
X25909638Y6387845D02*
X27909638Y7054511D01*
X27909638Y7054511D02*
X25909638Y7721178D01*
X27147733Y8387845D02*
X27147733Y9911654D01*
X27719161Y12006892D02*
X27814400Y11911654D01*
X27814400Y11911654D02*
X27909638Y11625940D01*
X27909638Y11625940D02*
X27909638Y11435464D01*
X27909638Y11435464D02*
X27814400Y11149749D01*
X27814400Y11149749D02*
X27623923Y10959273D01*
X27623923Y10959273D02*
X27433447Y10864035D01*
X27433447Y10864035D02*
X27052495Y10768797D01*
X27052495Y10768797D02*
X26766780Y10768797D01*
X26766780Y10768797D02*
X26385828Y10864035D01*
X26385828Y10864035D02*
X26195352Y10959273D01*
X26195352Y10959273D02*
X26004876Y11149749D01*
X26004876Y11149749D02*
X25909638Y11435464D01*
X25909638Y11435464D02*
X25909638Y11625940D01*
X25909638Y11625940D02*
X26004876Y11911654D01*
X26004876Y11911654D02*
X26100114Y12006892D01*
X25909638Y12864035D02*
X27528685Y12864035D01*
X27528685Y12864035D02*
X27719161Y12959273D01*
X27719161Y12959273D02*
X27814400Y13054511D01*
X27814400Y13054511D02*
X27909638Y13244987D01*
X27909638Y13244987D02*
X27909638Y13625940D01*
X27909638Y13625940D02*
X27814400Y13816416D01*
X27814400Y13816416D02*
X27719161Y13911654D01*
X27719161Y13911654D02*
X27528685Y14006892D01*
X27528685Y14006892D02*
X25909638Y14006892D01*
X25909638Y14673559D02*
X25909638Y15816416D01*
X27909638Y15244987D02*
X25909638Y15244987D01*
X5909638Y6387845D02*
X7909638Y7054511D01*
X7909638Y7054511D02*
X5909638Y7721178D01*
X7147733Y8387845D02*
X7147733Y9911654D01*
X7719161Y12006892D02*
X7814400Y11911654D01*
X7814400Y11911654D02*
X7909638Y11625940D01*
X7909638Y11625940D02*
X7909638Y11435464D01*
X7909638Y11435464D02*
X7814400Y11149749D01*
X7814400Y11149749D02*
X7623923Y10959273D01*
X7623923Y10959273D02*
X7433447Y10864035D01*
X7433447Y10864035D02*
X7052495Y10768797D01*
X7052495Y10768797D02*
X6766780Y10768797D01*
X6766780Y10768797D02*
X6385828Y10864035D01*
X6385828Y10864035D02*
X6195352Y10959273D01*
X6195352Y10959273D02*
X6004876Y11149749D01*
X6004876Y11149749D02*
X5909638Y11435464D01*
X5909638Y11435464D02*
X5909638Y11625940D01*
X5909638Y11625940D02*
X6004876Y11911654D01*
X6004876Y11911654D02*
X6100114Y12006892D01*
X5909638Y12864035D02*
X7528685Y12864035D01*
X7528685Y12864035D02*
X7719161Y12959273D01*
X7719161Y12959273D02*
X7814400Y13054511D01*
X7814400Y13054511D02*
X7909638Y13244987D01*
X7909638Y13244987D02*
X7909638Y13625940D01*
X7909638Y13625940D02*
X7814400Y13816416D01*
X7814400Y13816416D02*
X7719161Y13911654D01*
X7719161Y13911654D02*
X7528685Y14006892D01*
X7528685Y14006892D02*
X5909638Y14006892D01*
X5909638Y14673559D02*
X5909638Y15816416D01*
X7909638Y15244987D02*
X5909638Y15244987D01*
X74909638Y6387845D02*
X76909638Y7054511D01*
X76909638Y7054511D02*
X74909638Y7721178D01*
X76147733Y8387845D02*
X76147733Y9911654D01*
X76719161Y12006892D02*
X76814400Y11911654D01*
X76814400Y11911654D02*
X76909638Y11625940D01*
X76909638Y11625940D02*
X76909638Y11435464D01*
X76909638Y11435464D02*
X76814400Y11149749D01*
X76814400Y11149749D02*
X76623923Y10959273D01*
X76623923Y10959273D02*
X76433447Y10864035D01*
X76433447Y10864035D02*
X76052495Y10768797D01*
X76052495Y10768797D02*
X75766780Y10768797D01*
X75766780Y10768797D02*
X75385828Y10864035D01*
X75385828Y10864035D02*
X75195352Y10959273D01*
X75195352Y10959273D02*
X75004876Y11149749D01*
X75004876Y11149749D02*
X74909638Y11435464D01*
X74909638Y11435464D02*
X74909638Y11625940D01*
X74909638Y11625940D02*
X75004876Y11911654D01*
X75004876Y11911654D02*
X75100114Y12006892D01*
X74909638Y12864035D02*
X76528685Y12864035D01*
X76528685Y12864035D02*
X76719161Y12959273D01*
X76719161Y12959273D02*
X76814400Y13054511D01*
X76814400Y13054511D02*
X76909638Y13244987D01*
X76909638Y13244987D02*
X76909638Y13625940D01*
X76909638Y13625940D02*
X76814400Y13816416D01*
X76814400Y13816416D02*
X76719161Y13911654D01*
X76719161Y13911654D02*
X76528685Y14006892D01*
X76528685Y14006892D02*
X74909638Y14006892D01*
X74909638Y14673559D02*
X74909638Y15816416D01*
X76909638Y15244987D02*
X74909638Y15244987D01*
X109387844Y-21909638D02*
X110054510Y-23909638D01*
X110054510Y-23909638D02*
X110721177Y-21909638D01*
X111387844Y-23147733D02*
X112911654Y-23147733D01*
X115006891Y-23719161D02*
X114911653Y-23814400D01*
X114911653Y-23814400D02*
X114625939Y-23909638D01*
X114625939Y-23909638D02*
X114435463Y-23909638D01*
X114435463Y-23909638D02*
X114149748Y-23814400D01*
X114149748Y-23814400D02*
X113959272Y-23623923D01*
X113959272Y-23623923D02*
X113864034Y-23433447D01*
X113864034Y-23433447D02*
X113768796Y-23052495D01*
X113768796Y-23052495D02*
X113768796Y-22766780D01*
X113768796Y-22766780D02*
X113864034Y-22385828D01*
X113864034Y-22385828D02*
X113959272Y-22195352D01*
X113959272Y-22195352D02*
X114149748Y-22004876D01*
X114149748Y-22004876D02*
X114435463Y-21909638D01*
X114435463Y-21909638D02*
X114625939Y-21909638D01*
X114625939Y-21909638D02*
X114911653Y-22004876D01*
X114911653Y-22004876D02*
X115006891Y-22100114D01*
X115864034Y-21909638D02*
X115864034Y-23528685D01*
X115864034Y-23528685D02*
X115959272Y-23719161D01*
X115959272Y-23719161D02*
X116054510Y-23814400D01*
X116054510Y-23814400D02*
X116244986Y-23909638D01*
X116244986Y-23909638D02*
X116625939Y-23909638D01*
X116625939Y-23909638D02*
X116816415Y-23814400D01*
X116816415Y-23814400D02*
X116911653Y-23719161D01*
X116911653Y-23719161D02*
X117006891Y-23528685D01*
X117006891Y-23528685D02*
X117006891Y-21909638D01*
X117673558Y-21909638D02*
X118816415Y-21909638D01*
X118244986Y-23909638D02*
X118244986Y-21909638D01*
X109387844Y-53909638D02*
X110054510Y-55909638D01*
X110054510Y-55909638D02*
X110721177Y-53909638D01*
X111387844Y-55147733D02*
X112911654Y-55147733D01*
X115006891Y-55719161D02*
X114911653Y-55814400D01*
X114911653Y-55814400D02*
X114625939Y-55909638D01*
X114625939Y-55909638D02*
X114435463Y-55909638D01*
X114435463Y-55909638D02*
X114149748Y-55814400D01*
X114149748Y-55814400D02*
X113959272Y-55623923D01*
X113959272Y-55623923D02*
X113864034Y-55433447D01*
X113864034Y-55433447D02*
X113768796Y-55052495D01*
X113768796Y-55052495D02*
X113768796Y-54766780D01*
X113768796Y-54766780D02*
X113864034Y-54385828D01*
X113864034Y-54385828D02*
X113959272Y-54195352D01*
X113959272Y-54195352D02*
X114149748Y-54004876D01*
X114149748Y-54004876D02*
X114435463Y-53909638D01*
X114435463Y-53909638D02*
X114625939Y-53909638D01*
X114625939Y-53909638D02*
X114911653Y-54004876D01*
X114911653Y-54004876D02*
X115006891Y-54100114D01*
X115864034Y-53909638D02*
X115864034Y-55528685D01*
X115864034Y-55528685D02*
X115959272Y-55719161D01*
X115959272Y-55719161D02*
X116054510Y-55814400D01*
X116054510Y-55814400D02*
X116244986Y-55909638D01*
X116244986Y-55909638D02*
X116625939Y-55909638D01*
X116625939Y-55909638D02*
X116816415Y-55814400D01*
X116816415Y-55814400D02*
X116911653Y-55719161D01*
X116911653Y-55719161D02*
X117006891Y-55528685D01*
X117006891Y-55528685D02*
X117006891Y-53909638D01*
X117673558Y-53909638D02*
X118816415Y-53909638D01*
X118244986Y-55909638D02*
X118244986Y-53909638D01*
X109387844Y-37909638D02*
X110054510Y-39909638D01*
X110054510Y-39909638D02*
X110721177Y-37909638D01*
X111387844Y-39147733D02*
X112911654Y-39147733D01*
X115006891Y-39719161D02*
X114911653Y-39814400D01*
X114911653Y-39814400D02*
X114625939Y-39909638D01*
X114625939Y-39909638D02*
X114435463Y-39909638D01*
X114435463Y-39909638D02*
X114149748Y-39814400D01*
X114149748Y-39814400D02*
X113959272Y-39623923D01*
X113959272Y-39623923D02*
X113864034Y-39433447D01*
X113864034Y-39433447D02*
X113768796Y-39052495D01*
X113768796Y-39052495D02*
X113768796Y-38766780D01*
X113768796Y-38766780D02*
X113864034Y-38385828D01*
X113864034Y-38385828D02*
X113959272Y-38195352D01*
X113959272Y-38195352D02*
X114149748Y-38004876D01*
X114149748Y-38004876D02*
X114435463Y-37909638D01*
X114435463Y-37909638D02*
X114625939Y-37909638D01*
X114625939Y-37909638D02*
X114911653Y-38004876D01*
X114911653Y-38004876D02*
X115006891Y-38100114D01*
X115864034Y-37909638D02*
X115864034Y-39528685D01*
X115864034Y-39528685D02*
X115959272Y-39719161D01*
X115959272Y-39719161D02*
X116054510Y-39814400D01*
X116054510Y-39814400D02*
X116244986Y-39909638D01*
X116244986Y-39909638D02*
X116625939Y-39909638D01*
X116625939Y-39909638D02*
X116816415Y-39814400D01*
X116816415Y-39814400D02*
X116911653Y-39719161D01*
X116911653Y-39719161D02*
X117006891Y-39528685D01*
X117006891Y-39528685D02*
X117006891Y-37909638D01*
X117673558Y-37909638D02*
X118816415Y-37909638D01*
X118244986Y-39909638D02*
X118244986Y-37909638D01*
M02*
