M48
; DRILL file {KiCad 8.0.9-8.0.9-0~ubuntu24.04.1} date 2025-07-20T11:06:29-0400
; FORMAT={-:-/ absolute / metric / decimal}
; #@! TF.CreationDate,2025-07-20T11:06:29-04:00
; #@! TF.GenerationSoftware,Kicad,Pcbnew,8.0.9-8.0.9-0~ubuntu24.04.1
; #@! TF.FileFunction,MixedPlating,1,2
FMAT,2
METRIC
; #@! TA.AperFunction,Plated,PTH,ViaDrill
T1C0.300
; #@! TA.AperFunction,Plated,PTH,ComponentDrill
T2C1.270
; #@! TA.AperFunction,NonPlated,NPTH,ComponentDrill
T3C2.000
%
G90
G05
T1
X7.9Y-17.5
X7.9Y-33.5
X7.9Y-49.5
X7.9Y-65.5
X8.0Y-15.5
X8.0Y-31.5
X8.0Y-47.5
X8.0Y-63.5
X8.2Y-12.5
X8.2Y-28.5
X8.2Y-44.5
X8.2Y-60.5
X8.3Y-10.5
X8.3Y-11.8
X8.3Y-16.15
X8.3Y-16.9
X8.3Y-26.5
X8.3Y-27.8
X8.3Y-32.15
X8.3Y-32.9
X8.3Y-42.5
X8.3Y-43.8
X8.3Y-48.15
X8.3Y-48.9
X8.3Y-58.5
X8.3Y-59.8
X8.3Y-64.15
X8.3Y-64.9
X9.1Y-10.9
X9.1Y-26.9
X9.1Y-42.9
X9.1Y-58.9
X9.4Y-16.6
X9.4Y-32.6
X9.4Y-48.6
X9.4Y-64.6
X9.562Y-14.35
X9.562Y-30.35
X9.562Y-46.35
X9.562Y-62.35
X10.0Y-11.5
X10.0Y-12.6
X10.0Y-27.5
X10.0Y-28.6
X10.0Y-43.5
X10.0Y-44.6
X10.0Y-59.5
X10.0Y-60.6
X10.1Y-17.2
X10.1Y-18.5
X10.1Y-33.2
X10.1Y-34.5
X10.1Y-49.2
X10.1Y-50.5
X10.1Y-65.2
X10.1Y-66.5
X10.25Y-15.6
X10.25Y-31.6
X10.25Y-47.6
X10.25Y-63.6
X10.75Y-14.35
X10.75Y-30.35
X10.75Y-46.35
X10.75Y-62.35
X16.118Y-21.155
X16.118Y-37.155
X16.118Y-53.155
X16.118Y-69.155
X16.375Y-7.975
X16.375Y-23.975
X16.375Y-39.975
X16.375Y-55.975
X16.404Y-9.484
X16.404Y-25.484
X16.404Y-41.484
X16.404Y-57.484
X16.45Y-8.7
X16.45Y-24.7
X16.45Y-40.7
X16.45Y-56.7
X17.05Y-21.2
X17.05Y-37.2
X17.05Y-53.2
X17.05Y-69.2
X18.05Y-21.1
X18.05Y-37.1
X18.05Y-53.1
X18.05Y-69.1
X18.85Y-21.1
X18.85Y-37.1
X18.85Y-53.1
X18.85Y-69.1
X20.706Y-18.126
X20.706Y-34.126
X20.706Y-50.126
X20.706Y-66.126
X21.3Y-13.45
X21.3Y-18.75
X21.3Y-29.45
X21.3Y-34.75
X21.3Y-45.45
X21.3Y-50.75
X21.3Y-61.45
X21.3Y-66.75
X21.35Y-12.45
X21.35Y-28.45
X21.35Y-44.45
X21.35Y-60.45
X21.495Y-20.136
X21.495Y-36.136
X21.495Y-52.136
X21.495Y-68.136
X22.15Y-17.9
X22.15Y-33.9
X22.15Y-49.9
X22.15Y-65.9
X22.2Y-8.15
X22.2Y-9.5
X22.2Y-24.15
X22.2Y-25.5
X22.2Y-40.15
X22.2Y-41.5
X22.2Y-56.15
X22.2Y-57.5
X22.4Y-15.6
X22.4Y-31.6
X22.4Y-47.6
X22.4Y-63.6
X23.0Y-19.1
X23.0Y-35.1
X23.0Y-51.1
X23.0Y-67.1
X23.05Y-13.45
X23.05Y-29.45
X23.05Y-45.45
X23.05Y-61.45
X23.1Y-15.6
X23.1Y-31.6
X23.1Y-47.6
X23.1Y-63.6
X23.9Y-16.3
X23.9Y-32.3
X23.9Y-48.3
X23.9Y-64.3
X23.95Y-8.8
X23.95Y-24.8
X23.95Y-40.8
X23.95Y-56.8
X24.2Y-10.6
X24.2Y-11.65
X24.2Y-26.6
X24.2Y-27.65
X24.2Y-42.6
X24.2Y-43.65
X24.2Y-58.6
X24.2Y-59.65
X24.25Y-21.25
X24.25Y-21.9
X24.25Y-37.25
X24.25Y-37.9
X24.25Y-53.25
X24.25Y-53.9
X24.25Y-69.25
X24.25Y-69.9
X25.6Y-16.35
X25.6Y-32.35
X25.6Y-48.35
X25.6Y-64.35
X25.66Y-8.85
X25.66Y-24.85
X25.66Y-40.85
X25.66Y-56.85
X25.875Y-10.125
X25.875Y-26.125
X25.875Y-42.125
X25.875Y-58.125
X25.975Y-20.875
X25.975Y-36.875
X25.975Y-52.875
X25.975Y-68.875
X26.0Y-12.25
X26.0Y-28.25
X26.0Y-44.25
X26.0Y-60.25
X26.05Y-21.85
X26.05Y-37.85
X26.05Y-53.85
X26.05Y-69.85
X26.2Y-9.5
X26.2Y-15.0
X26.2Y-17.6
X26.2Y-25.5
X26.2Y-31.0
X26.2Y-33.6
X26.2Y-41.5
X26.2Y-47.0
X26.2Y-49.6
X26.2Y-57.5
X26.2Y-63.0
X26.2Y-65.6
X30.9Y-17.5
X30.9Y-33.5
X30.9Y-49.5
X30.9Y-65.5
X31.0Y-15.5
X31.0Y-31.5
X31.0Y-47.5
X31.0Y-63.5
X31.2Y-12.5
X31.2Y-28.5
X31.2Y-44.5
X31.2Y-60.5
X31.3Y-10.5
X31.3Y-11.8
X31.3Y-16.15
X31.3Y-16.9
X31.3Y-26.5
X31.3Y-27.8
X31.3Y-32.15
X31.3Y-32.9
X31.3Y-42.5
X31.3Y-43.8
X31.3Y-48.15
X31.3Y-48.9
X31.3Y-58.5
X31.3Y-59.8
X31.3Y-64.15
X31.3Y-64.9
X32.1Y-10.9
X32.1Y-26.9
X32.1Y-42.9
X32.1Y-58.9
X32.4Y-16.6
X32.4Y-32.6
X32.4Y-48.6
X32.4Y-64.6
X32.562Y-14.35
X32.562Y-30.35
X32.562Y-46.35
X32.562Y-62.35
X33.0Y-11.5
X33.0Y-12.6
X33.0Y-27.5
X33.0Y-28.6
X33.0Y-43.5
X33.0Y-44.6
X33.0Y-59.5
X33.0Y-60.6
X33.1Y-17.2
X33.1Y-18.5
X33.1Y-33.2
X33.1Y-34.5
X33.1Y-49.2
X33.1Y-50.5
X33.1Y-65.2
X33.1Y-66.5
X33.25Y-15.6
X33.25Y-31.6
X33.25Y-47.6
X33.25Y-63.6
X33.75Y-14.35
X33.75Y-30.35
X33.75Y-46.35
X33.75Y-62.35
X39.118Y-21.155
X39.118Y-37.155
X39.118Y-53.155
X39.118Y-69.155
X39.375Y-7.975
X39.375Y-23.975
X39.375Y-39.975
X39.375Y-55.975
X39.404Y-9.484
X39.404Y-25.484
X39.404Y-41.484
X39.404Y-57.484
X39.45Y-8.7
X39.45Y-24.7
X39.45Y-40.7
X39.45Y-56.7
X40.05Y-21.2
X40.05Y-37.2
X40.05Y-53.2
X40.05Y-69.2
X41.05Y-21.1
X41.05Y-37.1
X41.05Y-53.1
X41.05Y-69.1
X41.85Y-21.1
X41.85Y-37.1
X41.85Y-53.1
X41.85Y-69.1
X43.706Y-18.126
X43.706Y-34.126
X43.706Y-50.126
X43.706Y-66.126
X44.3Y-13.45
X44.3Y-18.75
X44.3Y-29.45
X44.3Y-34.75
X44.3Y-45.45
X44.3Y-50.75
X44.3Y-61.45
X44.3Y-66.75
X44.35Y-12.45
X44.35Y-28.45
X44.35Y-44.45
X44.35Y-60.45
X44.495Y-20.136
X44.495Y-36.136
X44.495Y-52.136
X44.495Y-68.136
X45.15Y-17.9
X45.15Y-33.9
X45.15Y-49.9
X45.15Y-65.9
X45.2Y-8.15
X45.2Y-9.5
X45.2Y-24.15
X45.2Y-25.5
X45.2Y-40.15
X45.2Y-41.5
X45.2Y-56.15
X45.2Y-57.5
X45.4Y-15.6
X45.4Y-31.6
X45.4Y-47.6
X45.4Y-63.6
X46.0Y-19.1
X46.0Y-35.1
X46.0Y-51.1
X46.0Y-67.1
X46.05Y-13.45
X46.05Y-29.45
X46.05Y-45.45
X46.05Y-61.45
X46.1Y-15.6
X46.1Y-31.6
X46.1Y-47.6
X46.1Y-63.6
X46.9Y-16.3
X46.9Y-32.3
X46.9Y-48.3
X46.9Y-64.3
X46.95Y-8.8
X46.95Y-24.8
X46.95Y-40.8
X46.95Y-56.8
X47.2Y-10.6
X47.2Y-11.65
X47.2Y-26.6
X47.2Y-27.65
X47.2Y-42.6
X47.2Y-43.65
X47.2Y-58.6
X47.2Y-59.65
X47.25Y-21.25
X47.25Y-21.9
X47.25Y-37.25
X47.25Y-37.9
X47.25Y-53.25
X47.25Y-53.9
X47.25Y-69.25
X47.25Y-69.9
X48.6Y-16.35
X48.6Y-32.35
X48.6Y-48.35
X48.6Y-64.35
X48.66Y-8.85
X48.66Y-24.85
X48.66Y-40.85
X48.66Y-56.85
X48.875Y-10.125
X48.875Y-26.125
X48.875Y-42.125
X48.875Y-58.125
X48.975Y-20.875
X48.975Y-36.875
X48.975Y-52.875
X48.975Y-68.875
X49.0Y-12.25
X49.0Y-28.25
X49.0Y-44.25
X49.0Y-60.25
X49.05Y-21.85
X49.05Y-37.85
X49.05Y-53.85
X49.05Y-69.85
X49.2Y-9.5
X49.2Y-15.0
X49.2Y-17.6
X49.2Y-25.5
X49.2Y-31.0
X49.2Y-33.6
X49.2Y-41.5
X49.2Y-47.0
X49.2Y-49.6
X49.2Y-57.5
X49.2Y-63.0
X49.2Y-65.6
X53.9Y-17.5
X53.9Y-33.5
X53.9Y-49.5
X53.9Y-65.5
X54.0Y-15.5
X54.0Y-31.5
X54.0Y-47.5
X54.0Y-63.5
X54.2Y-12.5
X54.2Y-28.5
X54.2Y-44.5
X54.2Y-60.5
X54.3Y-10.5
X54.3Y-11.8
X54.3Y-16.15
X54.3Y-16.9
X54.3Y-26.5
X54.3Y-27.8
X54.3Y-32.15
X54.3Y-32.9
X54.3Y-42.5
X54.3Y-43.8
X54.3Y-48.15
X54.3Y-48.9
X54.3Y-58.5
X54.3Y-59.8
X54.3Y-64.15
X54.3Y-64.9
X55.1Y-10.9
X55.1Y-26.9
X55.1Y-42.9
X55.1Y-58.9
X55.4Y-16.6
X55.4Y-32.6
X55.4Y-48.6
X55.4Y-64.6
X55.562Y-14.35
X55.562Y-30.35
X55.562Y-46.35
X55.562Y-62.35
X56.0Y-11.5
X56.0Y-12.6
X56.0Y-27.5
X56.0Y-28.6
X56.0Y-43.5
X56.0Y-44.6
X56.0Y-59.5
X56.0Y-60.6
X56.1Y-17.2
X56.1Y-18.5
X56.1Y-33.2
X56.1Y-34.5
X56.1Y-49.2
X56.1Y-50.5
X56.1Y-65.2
X56.1Y-66.5
X56.25Y-15.6
X56.25Y-31.6
X56.25Y-47.6
X56.25Y-63.6
X56.75Y-14.35
X56.75Y-30.35
X56.75Y-46.35
X56.75Y-62.35
X62.118Y-21.155
X62.118Y-37.155
X62.118Y-53.155
X62.118Y-69.155
X62.375Y-7.975
X62.375Y-23.975
X62.375Y-39.975
X62.375Y-55.975
X62.404Y-9.484
X62.404Y-25.484
X62.404Y-41.484
X62.404Y-57.484
X62.45Y-8.7
X62.45Y-24.7
X62.45Y-40.7
X62.45Y-56.7
X63.05Y-21.2
X63.05Y-37.2
X63.05Y-53.2
X63.05Y-69.2
X64.05Y-21.1
X64.05Y-37.1
X64.05Y-53.1
X64.05Y-69.1
X64.85Y-21.1
X64.85Y-37.1
X64.85Y-53.1
X64.85Y-69.1
X66.706Y-18.126
X66.706Y-34.126
X66.706Y-50.126
X66.706Y-66.126
X67.3Y-13.45
X67.3Y-18.75
X67.3Y-29.45
X67.3Y-34.75
X67.3Y-45.45
X67.3Y-50.75
X67.3Y-61.45
X67.3Y-66.75
X67.35Y-12.45
X67.35Y-28.45
X67.35Y-44.45
X67.35Y-60.45
X67.495Y-20.136
X67.495Y-36.136
X67.495Y-52.136
X67.495Y-68.136
X68.15Y-17.9
X68.15Y-33.9
X68.15Y-49.9
X68.15Y-65.9
X68.2Y-8.15
X68.2Y-9.5
X68.2Y-24.15
X68.2Y-25.5
X68.2Y-40.15
X68.2Y-41.5
X68.2Y-56.15
X68.2Y-57.5
X68.4Y-15.6
X68.4Y-31.6
X68.4Y-47.6
X68.4Y-63.6
X69.0Y-19.1
X69.0Y-35.1
X69.0Y-51.1
X69.0Y-67.1
X69.05Y-13.45
X69.05Y-29.45
X69.05Y-45.45
X69.05Y-61.45
X69.1Y-15.6
X69.1Y-31.6
X69.1Y-47.6
X69.1Y-63.6
X69.9Y-16.3
X69.9Y-32.3
X69.9Y-48.3
X69.9Y-64.3
X69.95Y-8.8
X69.95Y-24.8
X69.95Y-40.8
X69.95Y-56.8
X70.2Y-10.6
X70.2Y-11.65
X70.2Y-26.6
X70.2Y-27.65
X70.2Y-42.6
X70.2Y-43.65
X70.2Y-58.6
X70.2Y-59.65
X70.25Y-21.25
X70.25Y-21.9
X70.25Y-37.25
X70.25Y-37.9
X70.25Y-53.25
X70.25Y-53.9
X70.25Y-69.25
X70.25Y-69.9
X71.6Y-16.35
X71.6Y-32.35
X71.6Y-48.35
X71.6Y-64.35
X71.66Y-8.85
X71.66Y-24.85
X71.66Y-40.85
X71.66Y-56.85
X71.875Y-10.125
X71.875Y-26.125
X71.875Y-42.125
X71.875Y-58.125
X71.975Y-20.875
X71.975Y-36.875
X71.975Y-52.875
X71.975Y-68.875
X72.0Y-12.25
X72.0Y-28.25
X72.0Y-44.25
X72.0Y-60.25
X72.05Y-21.85
X72.05Y-37.85
X72.05Y-53.85
X72.05Y-69.85
X72.2Y-9.5
X72.2Y-15.0
X72.2Y-17.6
X72.2Y-25.5
X72.2Y-31.0
X72.2Y-33.6
X72.2Y-41.5
X72.2Y-47.0
X72.2Y-49.6
X72.2Y-57.5
X72.2Y-63.0
X72.2Y-65.6
X76.9Y-17.5
X76.9Y-33.5
X76.9Y-49.5
X76.9Y-65.5
X77.0Y-15.5
X77.0Y-31.5
X77.0Y-47.5
X77.0Y-63.5
X77.2Y-12.5
X77.2Y-28.5
X77.2Y-44.5
X77.2Y-60.5
X77.3Y-10.5
X77.3Y-11.8
X77.3Y-16.15
X77.3Y-16.9
X77.3Y-26.5
X77.3Y-27.8
X77.3Y-32.15
X77.3Y-32.9
X77.3Y-42.5
X77.3Y-43.8
X77.3Y-48.15
X77.3Y-48.9
X77.3Y-58.5
X77.3Y-59.8
X77.3Y-64.15
X77.3Y-64.9
X78.1Y-10.9
X78.1Y-26.9
X78.1Y-42.9
X78.1Y-58.9
X78.4Y-16.6
X78.4Y-32.6
X78.4Y-48.6
X78.4Y-64.6
X78.562Y-14.35
X78.562Y-30.35
X78.562Y-46.35
X78.562Y-62.35
X79.0Y-11.5
X79.0Y-12.6
X79.0Y-27.5
X79.0Y-28.6
X79.0Y-43.5
X79.0Y-44.6
X79.0Y-59.5
X79.0Y-60.6
X79.1Y-17.2
X79.1Y-18.5
X79.1Y-33.2
X79.1Y-34.5
X79.1Y-49.2
X79.1Y-50.5
X79.1Y-65.2
X79.1Y-66.5
X79.25Y-15.6
X79.25Y-31.6
X79.25Y-47.6
X79.25Y-63.6
X79.75Y-14.35
X79.75Y-30.35
X79.75Y-46.35
X79.75Y-62.35
X85.118Y-21.155
X85.118Y-37.155
X85.118Y-53.155
X85.118Y-69.155
X85.375Y-7.975
X85.375Y-23.975
X85.375Y-39.975
X85.375Y-55.975
X85.404Y-9.484
X85.404Y-25.484
X85.404Y-41.484
X85.404Y-57.484
X85.45Y-8.7
X85.45Y-24.7
X85.45Y-40.7
X85.45Y-56.7
X86.05Y-21.2
X86.05Y-37.2
X86.05Y-53.2
X86.05Y-69.2
X87.05Y-21.1
X87.05Y-37.1
X87.05Y-53.1
X87.05Y-69.1
X87.85Y-21.1
X87.85Y-37.1
X87.85Y-53.1
X87.85Y-69.1
X89.706Y-18.126
X89.706Y-34.126
X89.706Y-50.126
X89.706Y-66.126
X90.3Y-13.45
X90.3Y-18.75
X90.3Y-29.45
X90.3Y-34.75
X90.3Y-45.45
X90.3Y-50.75
X90.3Y-61.45
X90.3Y-66.75
X90.35Y-12.45
X90.35Y-28.45
X90.35Y-44.45
X90.35Y-60.45
X90.495Y-20.136
X90.495Y-36.136
X90.495Y-52.136
X90.495Y-68.136
X91.15Y-17.9
X91.15Y-33.9
X91.15Y-49.9
X91.15Y-65.9
X91.2Y-8.15
X91.2Y-9.5
X91.2Y-24.15
X91.2Y-25.5
X91.2Y-40.15
X91.2Y-41.5
X91.2Y-56.15
X91.2Y-57.5
X91.4Y-15.6
X91.4Y-31.6
X91.4Y-47.6
X91.4Y-63.6
X92.0Y-19.1
X92.0Y-35.1
X92.0Y-51.1
X92.0Y-67.1
X92.05Y-13.45
X92.05Y-29.45
X92.05Y-45.45
X92.05Y-61.45
X92.1Y-15.6
X92.1Y-31.6
X92.1Y-47.6
X92.1Y-63.6
X92.9Y-16.3
X92.9Y-32.3
X92.9Y-48.3
X92.9Y-64.3
X92.95Y-8.8
X92.95Y-24.8
X92.95Y-40.8
X92.95Y-56.8
X93.2Y-10.6
X93.2Y-11.65
X93.2Y-26.6
X93.2Y-27.65
X93.2Y-42.6
X93.2Y-43.65
X93.2Y-58.6
X93.2Y-59.65
X93.25Y-21.25
X93.25Y-21.9
X93.25Y-37.25
X93.25Y-37.9
X93.25Y-53.25
X93.25Y-53.9
X93.25Y-69.25
X93.25Y-69.9
X94.6Y-16.35
X94.6Y-32.35
X94.6Y-48.35
X94.6Y-64.35
X94.66Y-8.85
X94.66Y-24.85
X94.66Y-40.85
X94.66Y-56.85
X94.875Y-10.125
X94.875Y-26.125
X94.875Y-42.125
X94.875Y-58.125
X94.975Y-20.875
X94.975Y-36.875
X94.975Y-52.875
X94.975Y-68.875
X95.0Y-12.25
X95.0Y-28.25
X95.0Y-44.25
X95.0Y-60.25
X95.05Y-21.85
X95.05Y-37.85
X95.05Y-53.85
X95.05Y-69.85
X95.2Y-9.5
X95.2Y-15.0
X95.2Y-17.6
X95.2Y-25.5
X95.2Y-31.0
X95.2Y-33.6
X95.2Y-41.5
X95.2Y-47.0
X95.2Y-49.6
X95.2Y-57.5
X95.2Y-63.0
X95.2Y-65.6
T2
X7.0Y-11.19
X7.0Y-13.73
X7.0Y-16.27
X7.0Y-18.81
X7.0Y-27.19
X7.0Y-29.73
X7.0Y-32.27
X7.0Y-34.81
X7.0Y-43.19
X7.0Y-45.73
X7.0Y-48.27
X7.0Y-50.81
X7.0Y-59.19
X7.0Y-61.73
X7.0Y-64.27
X7.0Y-66.81
X27.0Y-11.19
X27.0Y-13.73
X27.0Y-16.27
X27.0Y-18.81
X27.0Y-27.19
X27.0Y-29.73
X27.0Y-32.27
X27.0Y-34.81
X27.0Y-43.19
X27.0Y-45.73
X27.0Y-48.27
X27.0Y-50.81
X27.0Y-59.19
X27.0Y-61.73
X27.0Y-64.27
X27.0Y-66.81
X30.0Y-11.19
X30.0Y-13.73
X30.0Y-16.27
X30.0Y-18.81
X30.0Y-27.19
X30.0Y-29.73
X30.0Y-32.27
X30.0Y-34.81
X30.0Y-43.19
X30.0Y-45.73
X30.0Y-48.27
X30.0Y-50.81
X30.0Y-59.19
X30.0Y-61.73
X30.0Y-64.27
X30.0Y-66.81
X50.0Y-11.19
X50.0Y-13.73
X50.0Y-16.27
X50.0Y-18.81
X50.0Y-27.19
X50.0Y-29.73
X50.0Y-32.27
X50.0Y-34.81
X50.0Y-43.19
X50.0Y-45.73
X50.0Y-48.27
X50.0Y-50.81
X50.0Y-59.19
X50.0Y-61.73
X50.0Y-64.27
X50.0Y-66.81
X53.0Y-11.19
X53.0Y-13.73
X53.0Y-16.27
X53.0Y-18.81
X53.0Y-27.19
X53.0Y-29.73
X53.0Y-32.27
X53.0Y-34.81
X53.0Y-43.19
X53.0Y-45.73
X53.0Y-48.27
X53.0Y-50.81
X53.0Y-59.19
X53.0Y-61.73
X53.0Y-64.27
X53.0Y-66.81
X73.0Y-11.19
X73.0Y-13.73
X73.0Y-16.27
X73.0Y-18.81
X73.0Y-27.19
X73.0Y-29.73
X73.0Y-32.27
X73.0Y-34.81
X73.0Y-43.19
X73.0Y-45.73
X73.0Y-48.27
X73.0Y-50.81
X73.0Y-59.19
X73.0Y-61.73
X73.0Y-64.27
X73.0Y-66.81
X76.0Y-11.19
X76.0Y-13.73
X76.0Y-16.27
X76.0Y-18.81
X76.0Y-27.19
X76.0Y-29.73
X76.0Y-32.27
X76.0Y-34.81
X76.0Y-43.19
X76.0Y-45.73
X76.0Y-48.27
X76.0Y-50.81
X76.0Y-59.19
X76.0Y-61.73
X76.0Y-64.27
X76.0Y-66.81
X96.0Y-11.19
X96.0Y-13.73
X96.0Y-16.27
X96.0Y-18.81
X96.0Y-27.19
X96.0Y-29.73
X96.0Y-32.27
X96.0Y-34.81
X96.0Y-43.19
X96.0Y-45.73
X96.0Y-48.27
X96.0Y-50.81
X96.0Y-59.19
X96.0Y-61.73
X96.0Y-64.27
X96.0Y-66.81
T3
X2.5Y-2.5
X2.5Y-75.5
X100.5Y-2.5
M30
