%TF.GenerationSoftware,KiCad,Pcbnew,8.0.9-8.0.9-0~ubuntu24.04.1*%
%TF.CreationDate,2025-07-21T09:14:07-04:00*%
%TF.ProjectId,panel,70616e65-6c2e-46b6-9963-61645f706362,0.1.X*%
%TF.SameCoordinates,Original*%
%TF.FileFunction,Soldermask,Bot*%
%TF.FilePolarity,Negative*%
%FSLAX46Y46*%
G04 Gerber Fmt 4.6, Leading zero omitted, Abs format (unit mm)*
G04 Created by KiCad (PCBNEW 8.0.9-8.0.9-0~ubuntu24.04.1) date 2025-07-21 09:14:07*
%MOMM*%
%LPD*%
G01*
G04 APERTURE LIST*
%ADD10R,1.900000X1.900000*%
%ADD11C,1.900000*%
%ADD12C,2.000000*%
%ADD13C,1.000000*%
G04 APERTURE END LIST*
D10*
%TO.C,J1*%
X7000000Y-27190000D03*
D11*
X7000000Y-29730000D03*
X7000000Y-32270000D03*
X7000000Y-34810000D03*
X27000000Y-34810000D03*
X27000000Y-32270000D03*
X27000000Y-29730000D03*
X27000000Y-27190000D03*
%TD*%
D12*
%TO.C,KiKit_TO_2*%
X100500000Y-2500000D03*
%TD*%
D10*
%TO.C,J1*%
X76000000Y-27190000D03*
D11*
X76000000Y-29730000D03*
X76000000Y-32270000D03*
X76000000Y-34810000D03*
X96000000Y-34810000D03*
X96000000Y-32270000D03*
X96000000Y-29730000D03*
X96000000Y-27190000D03*
%TD*%
D10*
%TO.C,J1*%
X7000000Y-11190000D03*
D11*
X7000000Y-13730000D03*
X7000000Y-16270000D03*
X7000000Y-18810000D03*
X27000000Y-18810000D03*
X27000000Y-16270000D03*
X27000000Y-13730000D03*
X27000000Y-11190000D03*
%TD*%
D10*
%TO.C,J1*%
X53000000Y-11190000D03*
D11*
X53000000Y-13730000D03*
X53000000Y-16270000D03*
X53000000Y-18810000D03*
X73000000Y-18810000D03*
X73000000Y-16270000D03*
X73000000Y-13730000D03*
X73000000Y-11190000D03*
%TD*%
D10*
%TO.C,J1*%
X7000000Y-43190000D03*
D11*
X7000000Y-45730000D03*
X7000000Y-48270000D03*
X7000000Y-50810000D03*
X27000000Y-50810000D03*
X27000000Y-48270000D03*
X27000000Y-45730000D03*
X27000000Y-43190000D03*
%TD*%
D10*
%TO.C,J1*%
X30000000Y-11190000D03*
D11*
X30000000Y-13730000D03*
X30000000Y-16270000D03*
X30000000Y-18810000D03*
X50000000Y-18810000D03*
X50000000Y-16270000D03*
X50000000Y-13730000D03*
X50000000Y-11190000D03*
%TD*%
D10*
%TO.C,J1*%
X53000000Y-27190000D03*
D11*
X53000000Y-29730000D03*
X53000000Y-32270000D03*
X53000000Y-34810000D03*
X73000000Y-34810000D03*
X73000000Y-32270000D03*
X73000000Y-29730000D03*
X73000000Y-27190000D03*
%TD*%
D10*
%TO.C,J1*%
X7000000Y-59190000D03*
D11*
X7000000Y-61730000D03*
X7000000Y-64270000D03*
X7000000Y-66810000D03*
X27000000Y-66810000D03*
X27000000Y-64270000D03*
X27000000Y-61730000D03*
X27000000Y-59190000D03*
%TD*%
D10*
%TO.C,J1*%
X30000000Y-43190000D03*
D11*
X30000000Y-45730000D03*
X30000000Y-48270000D03*
X30000000Y-50810000D03*
X50000000Y-50810000D03*
X50000000Y-48270000D03*
X50000000Y-45730000D03*
X50000000Y-43190000D03*
%TD*%
D12*
%TO.C,KiKit_TO_3*%
X2500000Y-75500000D03*
%TD*%
%TO.C,KiKit_TO_1*%
X2500000Y-2500000D03*
%TD*%
D10*
%TO.C,J1*%
X53000000Y-59190000D03*
D11*
X53000000Y-61730000D03*
X53000000Y-64270000D03*
X53000000Y-66810000D03*
X73000000Y-66810000D03*
X73000000Y-64270000D03*
X73000000Y-61730000D03*
X73000000Y-59190000D03*
%TD*%
D10*
%TO.C,J1*%
X30000000Y-27190000D03*
D11*
X30000000Y-29730000D03*
X30000000Y-32270000D03*
X30000000Y-34810000D03*
X50000000Y-34810000D03*
X50000000Y-32270000D03*
X50000000Y-29730000D03*
X50000000Y-27190000D03*
%TD*%
D10*
%TO.C,J1*%
X76000000Y-11190000D03*
D11*
X76000000Y-13730000D03*
X76000000Y-16270000D03*
X76000000Y-18810000D03*
X96000000Y-18810000D03*
X96000000Y-16270000D03*
X96000000Y-13730000D03*
X96000000Y-11190000D03*
%TD*%
D10*
%TO.C,J1*%
X30000000Y-59190000D03*
D11*
X30000000Y-61730000D03*
X30000000Y-64270000D03*
X30000000Y-66810000D03*
X50000000Y-66810000D03*
X50000000Y-64270000D03*
X50000000Y-61730000D03*
X50000000Y-59190000D03*
%TD*%
D10*
%TO.C,J1*%
X76000000Y-59190000D03*
D11*
X76000000Y-61730000D03*
X76000000Y-64270000D03*
X76000000Y-66810000D03*
X96000000Y-66810000D03*
X96000000Y-64270000D03*
X96000000Y-61730000D03*
X96000000Y-59190000D03*
%TD*%
D10*
%TO.C,J1*%
X53000000Y-43190000D03*
D11*
X53000000Y-45730000D03*
X53000000Y-48270000D03*
X53000000Y-50810000D03*
X73000000Y-50810000D03*
X73000000Y-48270000D03*
X73000000Y-45730000D03*
X73000000Y-43190000D03*
%TD*%
D10*
%TO.C,J1*%
X76000000Y-43190000D03*
D11*
X76000000Y-45730000D03*
X76000000Y-48270000D03*
X76000000Y-50810000D03*
X96000000Y-50810000D03*
X96000000Y-48270000D03*
X96000000Y-45730000D03*
X96000000Y-43190000D03*
%TD*%
D13*
%TO.C,TP5*%
X31300000Y-64300000D03*
%TD*%
%TO.C,TP3*%
X48650000Y-32350000D03*
%TD*%
%TO.C,TP7*%
X31300000Y-29600000D03*
%TD*%
%TO.C,TP8*%
X8300000Y-50800000D03*
%TD*%
%TO.C,TP5*%
X54300000Y-32300000D03*
%TD*%
%TO.C,TP4*%
X8300000Y-43200000D03*
%TD*%
%TO.C,TP7*%
X54300000Y-13600000D03*
%TD*%
%TO.C,TP1*%
X71650000Y-61700000D03*
%TD*%
%TO.C,TP8*%
X8300000Y-34800000D03*
%TD*%
%TO.C,TP1*%
X71650000Y-29700000D03*
%TD*%
%TO.C,TP7*%
X31300000Y-61600000D03*
%TD*%
%TO.C,TP3*%
X71650000Y-16350000D03*
%TD*%
%TO.C,TP1*%
X25650000Y-29700000D03*
%TD*%
%TO.C,TP2*%
X94650000Y-34800000D03*
%TD*%
%TO.C,TP4*%
X31300000Y-59200000D03*
%TD*%
%TO.C,TP7*%
X8300000Y-13600000D03*
%TD*%
%TO.C,TP4*%
X31300000Y-43200000D03*
%TD*%
%TO.C,TP8*%
X31300000Y-50800000D03*
%TD*%
%TO.C,TP7*%
X77300000Y-29600000D03*
%TD*%
%TO.C,TP6*%
X48600000Y-27200000D03*
%TD*%
%TO.C,TP1*%
X71650000Y-45700000D03*
%TD*%
%TO.C,TP4*%
X8300000Y-11200000D03*
%TD*%
%TO.C,TP5*%
X31300000Y-16300000D03*
%TD*%
%TO.C,TP1*%
X94650000Y-45700000D03*
%TD*%
%TO.C,TP3*%
X71650000Y-32350000D03*
%TD*%
%TO.C,TP4*%
X31300000Y-27200000D03*
%TD*%
%TO.C,TP4*%
X54300000Y-59200000D03*
%TD*%
%TO.C,TP2*%
X48650000Y-66800000D03*
%TD*%
%TO.C,TP4*%
X8300000Y-59200000D03*
%TD*%
%TO.C,KiKit_FID_B_2*%
X98000000Y-2500000D03*
%TD*%
%TO.C,TP6*%
X94600000Y-27200000D03*
%TD*%
%TO.C,TP6*%
X48600000Y-11200000D03*
%TD*%
%TO.C,TP3*%
X25650000Y-32350000D03*
%TD*%
%TO.C,TP8*%
X31300000Y-34800000D03*
%TD*%
%TO.C,TP3*%
X71650000Y-48350000D03*
%TD*%
%TO.C,TP8*%
X77300000Y-34800000D03*
%TD*%
%TO.C,TP3*%
X25650000Y-48350000D03*
%TD*%
%TO.C,TP5*%
X77300000Y-32300000D03*
%TD*%
%TO.C,TP5*%
X54300000Y-48300000D03*
%TD*%
%TO.C,TP8*%
X54300000Y-66800000D03*
%TD*%
%TO.C,TP3*%
X94650000Y-32350000D03*
%TD*%
%TO.C,TP5*%
X8300000Y-32300000D03*
%TD*%
%TO.C,TP4*%
X77300000Y-59200000D03*
%TD*%
%TO.C,TP2*%
X25650000Y-66800000D03*
%TD*%
%TO.C,TP6*%
X71600000Y-11200000D03*
%TD*%
%TO.C,TP3*%
X48650000Y-16350000D03*
%TD*%
%TO.C,TP5*%
X8300000Y-48300000D03*
%TD*%
%TO.C,TP3*%
X25650000Y-64350000D03*
%TD*%
%TO.C,TP2*%
X48650000Y-18800000D03*
%TD*%
%TO.C,TP4*%
X54300000Y-43200000D03*
%TD*%
%TO.C,TP1*%
X94650000Y-29700000D03*
%TD*%
%TO.C,TP3*%
X48650000Y-64350000D03*
%TD*%
%TO.C,TP5*%
X31300000Y-48300000D03*
%TD*%
%TO.C,TP8*%
X77300000Y-66800000D03*
%TD*%
%TO.C,TP8*%
X31300000Y-18800000D03*
%TD*%
%TO.C,TP7*%
X54300000Y-29600000D03*
%TD*%
%TO.C,TP1*%
X25650000Y-61700000D03*
%TD*%
%TO.C,TP2*%
X71650000Y-50800000D03*
%TD*%
%TO.C,TP7*%
X77300000Y-13600000D03*
%TD*%
%TO.C,TP5*%
X54300000Y-64300000D03*
%TD*%
%TO.C,TP1*%
X25650000Y-13700000D03*
%TD*%
%TO.C,TP5*%
X77300000Y-16300000D03*
%TD*%
%TO.C,TP4*%
X77300000Y-27200000D03*
%TD*%
%TO.C,TP3*%
X25650000Y-16350000D03*
%TD*%
%TO.C,TP2*%
X25650000Y-18800000D03*
%TD*%
%TO.C,TP3*%
X94650000Y-16350000D03*
%TD*%
%TO.C,TP5*%
X31300000Y-32300000D03*
%TD*%
%TO.C,TP5*%
X8300000Y-64300000D03*
%TD*%
%TO.C,TP1*%
X71650000Y-13700000D03*
%TD*%
%TO.C,TP7*%
X31300000Y-13600000D03*
%TD*%
%TO.C,TP6*%
X71600000Y-59200000D03*
%TD*%
%TO.C,TP7*%
X77300000Y-61600000D03*
%TD*%
%TO.C,TP3*%
X94650000Y-64350000D03*
%TD*%
%TO.C,TP3*%
X71650000Y-64350000D03*
%TD*%
%TO.C,TP1*%
X48650000Y-13700000D03*
%TD*%
%TO.C,TP6*%
X25600000Y-11200000D03*
%TD*%
%TO.C,TP6*%
X25600000Y-27200000D03*
%TD*%
%TO.C,TP7*%
X77300000Y-45600000D03*
%TD*%
%TO.C,TP8*%
X8300000Y-18800000D03*
%TD*%
%TO.C,TP2*%
X94650000Y-18800000D03*
%TD*%
%TO.C,TP1*%
X48650000Y-45700000D03*
%TD*%
%TO.C,TP1*%
X25650000Y-45700000D03*
%TD*%
%TO.C,TP4*%
X77300000Y-11200000D03*
%TD*%
%TO.C,KiKit_FID_B_1*%
X5000000Y-2500000D03*
%TD*%
%TO.C,TP2*%
X94650000Y-50800000D03*
%TD*%
%TO.C,TP1*%
X94650000Y-13700000D03*
%TD*%
%TO.C,TP5*%
X54300000Y-16300000D03*
%TD*%
%TO.C,TP6*%
X94600000Y-59200000D03*
%TD*%
%TO.C,TP8*%
X54300000Y-18800000D03*
%TD*%
%TO.C,TP2*%
X94650000Y-66800000D03*
%TD*%
%TO.C,TP2*%
X48650000Y-50800000D03*
%TD*%
%TO.C,TP6*%
X94600000Y-11200000D03*
%TD*%
%TO.C,TP8*%
X31300000Y-66800000D03*
%TD*%
%TO.C,TP6*%
X25600000Y-43200000D03*
%TD*%
%TO.C,KiKit_FID_B_3*%
X5000000Y-75500000D03*
%TD*%
%TO.C,TP7*%
X8300000Y-29600000D03*
%TD*%
%TO.C,TP6*%
X48600000Y-43200000D03*
%TD*%
%TO.C,TP7*%
X8300000Y-45600000D03*
%TD*%
%TO.C,TP4*%
X77300000Y-43200000D03*
%TD*%
%TO.C,TP5*%
X8300000Y-16300000D03*
%TD*%
%TO.C,TP7*%
X54300000Y-61600000D03*
%TD*%
%TO.C,TP6*%
X25600000Y-59200000D03*
%TD*%
%TO.C,TP2*%
X48650000Y-34800000D03*
%TD*%
%TO.C,TP1*%
X48650000Y-61700000D03*
%TD*%
%TO.C,TP8*%
X77300000Y-50800000D03*
%TD*%
%TO.C,TP3*%
X48650000Y-48350000D03*
%TD*%
%TO.C,TP3*%
X94650000Y-48350000D03*
%TD*%
%TO.C,TP7*%
X31300000Y-45600000D03*
%TD*%
%TO.C,TP6*%
X48600000Y-59200000D03*
%TD*%
%TO.C,TP2*%
X71650000Y-34800000D03*
%TD*%
%TO.C,TP4*%
X31300000Y-11200000D03*
%TD*%
%TO.C,TP4*%
X8300000Y-27200000D03*
%TD*%
%TO.C,TP8*%
X77300000Y-18800000D03*
%TD*%
%TO.C,TP8*%
X8300000Y-66800000D03*
%TD*%
%TO.C,TP7*%
X54300000Y-45600000D03*
%TD*%
%TO.C,TP8*%
X54300000Y-50800000D03*
%TD*%
%TO.C,TP8*%
X54300000Y-34800000D03*
%TD*%
%TO.C,TP2*%
X25650000Y-50800000D03*
%TD*%
%TO.C,TP2*%
X71650000Y-66800000D03*
%TD*%
%TO.C,TP2*%
X71650000Y-18800000D03*
%TD*%
%TO.C,TP1*%
X94650000Y-61700000D03*
%TD*%
%TO.C,TP5*%
X77300000Y-64300000D03*
%TD*%
%TO.C,TP6*%
X94600000Y-43200000D03*
%TD*%
%TO.C,TP4*%
X54300000Y-11200000D03*
%TD*%
%TO.C,TP2*%
X25650000Y-34800000D03*
%TD*%
%TO.C,TP6*%
X71600000Y-27200000D03*
%TD*%
%TO.C,TP1*%
X48650000Y-29700000D03*
%TD*%
%TO.C,TP7*%
X8300000Y-61600000D03*
%TD*%
%TO.C,TP4*%
X54300000Y-27200000D03*
%TD*%
%TO.C,TP5*%
X77300000Y-48300000D03*
%TD*%
%TO.C,TP6*%
X71600000Y-43200000D03*
%TD*%
M02*
