%TF.GenerationSoftware,KiCad,Pcbnew,8.0.9-8.0.9-0~ubuntu24.04.1*%
%TF.CreationDate,2025-07-21T09:14:07-04:00*%
%TF.ProjectId,panel,70616e65-6c2e-46b6-9963-61645f706362,0.1.X*%
%TF.SameCoordinates,Original*%
%TF.FileFunction,AssemblyDrawing,Bot*%
%FSLAX46Y46*%
G04 Gerber Fmt 4.6, Leading zero omitted, Abs format (unit mm)*
G04 Created by KiCad (PCBNEW 8.0.9-8.0.9-0~ubuntu24.04.1) date 2025-07-21 09:14:07*
%MOMM*%
%LPD*%
G01*
G04 APERTURE LIST*
%ADD10C,0.150000*%
%ADD11C,0.050000*%
G04 APERTURE END LIST*
D10*
X32561904Y-63754819D02*
X31990476Y-63754819D01*
X32276190Y-64754819D02*
X32276190Y-63754819D01*
X31657142Y-64754819D02*
X31657142Y-63754819D01*
X31657142Y-63754819D02*
X31276190Y-63754819D01*
X31276190Y-63754819D02*
X31180952Y-63802438D01*
X31180952Y-63802438D02*
X31133333Y-63850057D01*
X31133333Y-63850057D02*
X31085714Y-63945295D01*
X31085714Y-63945295D02*
X31085714Y-64088152D01*
X31085714Y-64088152D02*
X31133333Y-64183390D01*
X31133333Y-64183390D02*
X31180952Y-64231009D01*
X31180952Y-64231009D02*
X31276190Y-64278628D01*
X31276190Y-64278628D02*
X31657142Y-64278628D01*
X30180952Y-63754819D02*
X30657142Y-63754819D01*
X30657142Y-63754819D02*
X30704761Y-64231009D01*
X30704761Y-64231009D02*
X30657142Y-64183390D01*
X30657142Y-64183390D02*
X30561904Y-64135771D01*
X30561904Y-64135771D02*
X30323809Y-64135771D01*
X30323809Y-64135771D02*
X30228571Y-64183390D01*
X30228571Y-64183390D02*
X30180952Y-64231009D01*
X30180952Y-64231009D02*
X30133333Y-64326247D01*
X30133333Y-64326247D02*
X30133333Y-64564342D01*
X30133333Y-64564342D02*
X30180952Y-64659580D01*
X30180952Y-64659580D02*
X30228571Y-64707200D01*
X30228571Y-64707200D02*
X30323809Y-64754819D01*
X30323809Y-64754819D02*
X30561904Y-64754819D01*
X30561904Y-64754819D02*
X30657142Y-64707200D01*
X30657142Y-64707200D02*
X30704761Y-64659580D01*
X49911904Y-31804819D02*
X49340476Y-31804819D01*
X49626190Y-32804819D02*
X49626190Y-31804819D01*
X49007142Y-32804819D02*
X49007142Y-31804819D01*
X49007142Y-31804819D02*
X48626190Y-31804819D01*
X48626190Y-31804819D02*
X48530952Y-31852438D01*
X48530952Y-31852438D02*
X48483333Y-31900057D01*
X48483333Y-31900057D02*
X48435714Y-31995295D01*
X48435714Y-31995295D02*
X48435714Y-32138152D01*
X48435714Y-32138152D02*
X48483333Y-32233390D01*
X48483333Y-32233390D02*
X48530952Y-32281009D01*
X48530952Y-32281009D02*
X48626190Y-32328628D01*
X48626190Y-32328628D02*
X49007142Y-32328628D01*
X48102380Y-31804819D02*
X47483333Y-31804819D01*
X47483333Y-31804819D02*
X47816666Y-32185771D01*
X47816666Y-32185771D02*
X47673809Y-32185771D01*
X47673809Y-32185771D02*
X47578571Y-32233390D01*
X47578571Y-32233390D02*
X47530952Y-32281009D01*
X47530952Y-32281009D02*
X47483333Y-32376247D01*
X47483333Y-32376247D02*
X47483333Y-32614342D01*
X47483333Y-32614342D02*
X47530952Y-32709580D01*
X47530952Y-32709580D02*
X47578571Y-32757200D01*
X47578571Y-32757200D02*
X47673809Y-32804819D01*
X47673809Y-32804819D02*
X47959523Y-32804819D01*
X47959523Y-32804819D02*
X48054761Y-32757200D01*
X48054761Y-32757200D02*
X48102380Y-32709580D01*
X32561904Y-29054819D02*
X31990476Y-29054819D01*
X32276190Y-30054819D02*
X32276190Y-29054819D01*
X31657142Y-30054819D02*
X31657142Y-29054819D01*
X31657142Y-29054819D02*
X31276190Y-29054819D01*
X31276190Y-29054819D02*
X31180952Y-29102438D01*
X31180952Y-29102438D02*
X31133333Y-29150057D01*
X31133333Y-29150057D02*
X31085714Y-29245295D01*
X31085714Y-29245295D02*
X31085714Y-29388152D01*
X31085714Y-29388152D02*
X31133333Y-29483390D01*
X31133333Y-29483390D02*
X31180952Y-29531009D01*
X31180952Y-29531009D02*
X31276190Y-29578628D01*
X31276190Y-29578628D02*
X31657142Y-29578628D01*
X30752380Y-29054819D02*
X30085714Y-29054819D01*
X30085714Y-29054819D02*
X30514285Y-30054819D01*
X9561904Y-50254819D02*
X8990476Y-50254819D01*
X9276190Y-51254819D02*
X9276190Y-50254819D01*
X8657142Y-51254819D02*
X8657142Y-50254819D01*
X8657142Y-50254819D02*
X8276190Y-50254819D01*
X8276190Y-50254819D02*
X8180952Y-50302438D01*
X8180952Y-50302438D02*
X8133333Y-50350057D01*
X8133333Y-50350057D02*
X8085714Y-50445295D01*
X8085714Y-50445295D02*
X8085714Y-50588152D01*
X8085714Y-50588152D02*
X8133333Y-50683390D01*
X8133333Y-50683390D02*
X8180952Y-50731009D01*
X8180952Y-50731009D02*
X8276190Y-50778628D01*
X8276190Y-50778628D02*
X8657142Y-50778628D01*
X7514285Y-50683390D02*
X7609523Y-50635771D01*
X7609523Y-50635771D02*
X7657142Y-50588152D01*
X7657142Y-50588152D02*
X7704761Y-50492914D01*
X7704761Y-50492914D02*
X7704761Y-50445295D01*
X7704761Y-50445295D02*
X7657142Y-50350057D01*
X7657142Y-50350057D02*
X7609523Y-50302438D01*
X7609523Y-50302438D02*
X7514285Y-50254819D01*
X7514285Y-50254819D02*
X7323809Y-50254819D01*
X7323809Y-50254819D02*
X7228571Y-50302438D01*
X7228571Y-50302438D02*
X7180952Y-50350057D01*
X7180952Y-50350057D02*
X7133333Y-50445295D01*
X7133333Y-50445295D02*
X7133333Y-50492914D01*
X7133333Y-50492914D02*
X7180952Y-50588152D01*
X7180952Y-50588152D02*
X7228571Y-50635771D01*
X7228571Y-50635771D02*
X7323809Y-50683390D01*
X7323809Y-50683390D02*
X7514285Y-50683390D01*
X7514285Y-50683390D02*
X7609523Y-50731009D01*
X7609523Y-50731009D02*
X7657142Y-50778628D01*
X7657142Y-50778628D02*
X7704761Y-50873866D01*
X7704761Y-50873866D02*
X7704761Y-51064342D01*
X7704761Y-51064342D02*
X7657142Y-51159580D01*
X7657142Y-51159580D02*
X7609523Y-51207200D01*
X7609523Y-51207200D02*
X7514285Y-51254819D01*
X7514285Y-51254819D02*
X7323809Y-51254819D01*
X7323809Y-51254819D02*
X7228571Y-51207200D01*
X7228571Y-51207200D02*
X7180952Y-51159580D01*
X7180952Y-51159580D02*
X7133333Y-51064342D01*
X7133333Y-51064342D02*
X7133333Y-50873866D01*
X7133333Y-50873866D02*
X7180952Y-50778628D01*
X7180952Y-50778628D02*
X7228571Y-50731009D01*
X7228571Y-50731009D02*
X7323809Y-50683390D01*
X55561904Y-31754819D02*
X54990476Y-31754819D01*
X55276190Y-32754819D02*
X55276190Y-31754819D01*
X54657142Y-32754819D02*
X54657142Y-31754819D01*
X54657142Y-31754819D02*
X54276190Y-31754819D01*
X54276190Y-31754819D02*
X54180952Y-31802438D01*
X54180952Y-31802438D02*
X54133333Y-31850057D01*
X54133333Y-31850057D02*
X54085714Y-31945295D01*
X54085714Y-31945295D02*
X54085714Y-32088152D01*
X54085714Y-32088152D02*
X54133333Y-32183390D01*
X54133333Y-32183390D02*
X54180952Y-32231009D01*
X54180952Y-32231009D02*
X54276190Y-32278628D01*
X54276190Y-32278628D02*
X54657142Y-32278628D01*
X53180952Y-31754819D02*
X53657142Y-31754819D01*
X53657142Y-31754819D02*
X53704761Y-32231009D01*
X53704761Y-32231009D02*
X53657142Y-32183390D01*
X53657142Y-32183390D02*
X53561904Y-32135771D01*
X53561904Y-32135771D02*
X53323809Y-32135771D01*
X53323809Y-32135771D02*
X53228571Y-32183390D01*
X53228571Y-32183390D02*
X53180952Y-32231009D01*
X53180952Y-32231009D02*
X53133333Y-32326247D01*
X53133333Y-32326247D02*
X53133333Y-32564342D01*
X53133333Y-32564342D02*
X53180952Y-32659580D01*
X53180952Y-32659580D02*
X53228571Y-32707200D01*
X53228571Y-32707200D02*
X53323809Y-32754819D01*
X53323809Y-32754819D02*
X53561904Y-32754819D01*
X53561904Y-32754819D02*
X53657142Y-32707200D01*
X53657142Y-32707200D02*
X53704761Y-32659580D01*
X9561904Y-42654819D02*
X8990476Y-42654819D01*
X9276190Y-43654819D02*
X9276190Y-42654819D01*
X8657142Y-43654819D02*
X8657142Y-42654819D01*
X8657142Y-42654819D02*
X8276190Y-42654819D01*
X8276190Y-42654819D02*
X8180952Y-42702438D01*
X8180952Y-42702438D02*
X8133333Y-42750057D01*
X8133333Y-42750057D02*
X8085714Y-42845295D01*
X8085714Y-42845295D02*
X8085714Y-42988152D01*
X8085714Y-42988152D02*
X8133333Y-43083390D01*
X8133333Y-43083390D02*
X8180952Y-43131009D01*
X8180952Y-43131009D02*
X8276190Y-43178628D01*
X8276190Y-43178628D02*
X8657142Y-43178628D01*
X7228571Y-42988152D02*
X7228571Y-43654819D01*
X7466666Y-42607200D02*
X7704761Y-43321485D01*
X7704761Y-43321485D02*
X7085714Y-43321485D01*
X55561904Y-13054819D02*
X54990476Y-13054819D01*
X55276190Y-14054819D02*
X55276190Y-13054819D01*
X54657142Y-14054819D02*
X54657142Y-13054819D01*
X54657142Y-13054819D02*
X54276190Y-13054819D01*
X54276190Y-13054819D02*
X54180952Y-13102438D01*
X54180952Y-13102438D02*
X54133333Y-13150057D01*
X54133333Y-13150057D02*
X54085714Y-13245295D01*
X54085714Y-13245295D02*
X54085714Y-13388152D01*
X54085714Y-13388152D02*
X54133333Y-13483390D01*
X54133333Y-13483390D02*
X54180952Y-13531009D01*
X54180952Y-13531009D02*
X54276190Y-13578628D01*
X54276190Y-13578628D02*
X54657142Y-13578628D01*
X53752380Y-13054819D02*
X53085714Y-13054819D01*
X53085714Y-13054819D02*
X53514285Y-14054819D01*
X72911904Y-61154819D02*
X72340476Y-61154819D01*
X72626190Y-62154819D02*
X72626190Y-61154819D01*
X72007142Y-62154819D02*
X72007142Y-61154819D01*
X72007142Y-61154819D02*
X71626190Y-61154819D01*
X71626190Y-61154819D02*
X71530952Y-61202438D01*
X71530952Y-61202438D02*
X71483333Y-61250057D01*
X71483333Y-61250057D02*
X71435714Y-61345295D01*
X71435714Y-61345295D02*
X71435714Y-61488152D01*
X71435714Y-61488152D02*
X71483333Y-61583390D01*
X71483333Y-61583390D02*
X71530952Y-61631009D01*
X71530952Y-61631009D02*
X71626190Y-61678628D01*
X71626190Y-61678628D02*
X72007142Y-61678628D01*
X70483333Y-62154819D02*
X71054761Y-62154819D01*
X70769047Y-62154819D02*
X70769047Y-61154819D01*
X70769047Y-61154819D02*
X70864285Y-61297676D01*
X70864285Y-61297676D02*
X70959523Y-61392914D01*
X70959523Y-61392914D02*
X71054761Y-61440533D01*
X9561904Y-34254819D02*
X8990476Y-34254819D01*
X9276190Y-35254819D02*
X9276190Y-34254819D01*
X8657142Y-35254819D02*
X8657142Y-34254819D01*
X8657142Y-34254819D02*
X8276190Y-34254819D01*
X8276190Y-34254819D02*
X8180952Y-34302438D01*
X8180952Y-34302438D02*
X8133333Y-34350057D01*
X8133333Y-34350057D02*
X8085714Y-34445295D01*
X8085714Y-34445295D02*
X8085714Y-34588152D01*
X8085714Y-34588152D02*
X8133333Y-34683390D01*
X8133333Y-34683390D02*
X8180952Y-34731009D01*
X8180952Y-34731009D02*
X8276190Y-34778628D01*
X8276190Y-34778628D02*
X8657142Y-34778628D01*
X7514285Y-34683390D02*
X7609523Y-34635771D01*
X7609523Y-34635771D02*
X7657142Y-34588152D01*
X7657142Y-34588152D02*
X7704761Y-34492914D01*
X7704761Y-34492914D02*
X7704761Y-34445295D01*
X7704761Y-34445295D02*
X7657142Y-34350057D01*
X7657142Y-34350057D02*
X7609523Y-34302438D01*
X7609523Y-34302438D02*
X7514285Y-34254819D01*
X7514285Y-34254819D02*
X7323809Y-34254819D01*
X7323809Y-34254819D02*
X7228571Y-34302438D01*
X7228571Y-34302438D02*
X7180952Y-34350057D01*
X7180952Y-34350057D02*
X7133333Y-34445295D01*
X7133333Y-34445295D02*
X7133333Y-34492914D01*
X7133333Y-34492914D02*
X7180952Y-34588152D01*
X7180952Y-34588152D02*
X7228571Y-34635771D01*
X7228571Y-34635771D02*
X7323809Y-34683390D01*
X7323809Y-34683390D02*
X7514285Y-34683390D01*
X7514285Y-34683390D02*
X7609523Y-34731009D01*
X7609523Y-34731009D02*
X7657142Y-34778628D01*
X7657142Y-34778628D02*
X7704761Y-34873866D01*
X7704761Y-34873866D02*
X7704761Y-35064342D01*
X7704761Y-35064342D02*
X7657142Y-35159580D01*
X7657142Y-35159580D02*
X7609523Y-35207200D01*
X7609523Y-35207200D02*
X7514285Y-35254819D01*
X7514285Y-35254819D02*
X7323809Y-35254819D01*
X7323809Y-35254819D02*
X7228571Y-35207200D01*
X7228571Y-35207200D02*
X7180952Y-35159580D01*
X7180952Y-35159580D02*
X7133333Y-35064342D01*
X7133333Y-35064342D02*
X7133333Y-34873866D01*
X7133333Y-34873866D02*
X7180952Y-34778628D01*
X7180952Y-34778628D02*
X7228571Y-34731009D01*
X7228571Y-34731009D02*
X7323809Y-34683390D01*
X72911904Y-29154819D02*
X72340476Y-29154819D01*
X72626190Y-30154819D02*
X72626190Y-29154819D01*
X72007142Y-30154819D02*
X72007142Y-29154819D01*
X72007142Y-29154819D02*
X71626190Y-29154819D01*
X71626190Y-29154819D02*
X71530952Y-29202438D01*
X71530952Y-29202438D02*
X71483333Y-29250057D01*
X71483333Y-29250057D02*
X71435714Y-29345295D01*
X71435714Y-29345295D02*
X71435714Y-29488152D01*
X71435714Y-29488152D02*
X71483333Y-29583390D01*
X71483333Y-29583390D02*
X71530952Y-29631009D01*
X71530952Y-29631009D02*
X71626190Y-29678628D01*
X71626190Y-29678628D02*
X72007142Y-29678628D01*
X70483333Y-30154819D02*
X71054761Y-30154819D01*
X70769047Y-30154819D02*
X70769047Y-29154819D01*
X70769047Y-29154819D02*
X70864285Y-29297676D01*
X70864285Y-29297676D02*
X70959523Y-29392914D01*
X70959523Y-29392914D02*
X71054761Y-29440533D01*
X32561904Y-61054819D02*
X31990476Y-61054819D01*
X32276190Y-62054819D02*
X32276190Y-61054819D01*
X31657142Y-62054819D02*
X31657142Y-61054819D01*
X31657142Y-61054819D02*
X31276190Y-61054819D01*
X31276190Y-61054819D02*
X31180952Y-61102438D01*
X31180952Y-61102438D02*
X31133333Y-61150057D01*
X31133333Y-61150057D02*
X31085714Y-61245295D01*
X31085714Y-61245295D02*
X31085714Y-61388152D01*
X31085714Y-61388152D02*
X31133333Y-61483390D01*
X31133333Y-61483390D02*
X31180952Y-61531009D01*
X31180952Y-61531009D02*
X31276190Y-61578628D01*
X31276190Y-61578628D02*
X31657142Y-61578628D01*
X30752380Y-61054819D02*
X30085714Y-61054819D01*
X30085714Y-61054819D02*
X30514285Y-62054819D01*
X72911904Y-15804819D02*
X72340476Y-15804819D01*
X72626190Y-16804819D02*
X72626190Y-15804819D01*
X72007142Y-16804819D02*
X72007142Y-15804819D01*
X72007142Y-15804819D02*
X71626190Y-15804819D01*
X71626190Y-15804819D02*
X71530952Y-15852438D01*
X71530952Y-15852438D02*
X71483333Y-15900057D01*
X71483333Y-15900057D02*
X71435714Y-15995295D01*
X71435714Y-15995295D02*
X71435714Y-16138152D01*
X71435714Y-16138152D02*
X71483333Y-16233390D01*
X71483333Y-16233390D02*
X71530952Y-16281009D01*
X71530952Y-16281009D02*
X71626190Y-16328628D01*
X71626190Y-16328628D02*
X72007142Y-16328628D01*
X71102380Y-15804819D02*
X70483333Y-15804819D01*
X70483333Y-15804819D02*
X70816666Y-16185771D01*
X70816666Y-16185771D02*
X70673809Y-16185771D01*
X70673809Y-16185771D02*
X70578571Y-16233390D01*
X70578571Y-16233390D02*
X70530952Y-16281009D01*
X70530952Y-16281009D02*
X70483333Y-16376247D01*
X70483333Y-16376247D02*
X70483333Y-16614342D01*
X70483333Y-16614342D02*
X70530952Y-16709580D01*
X70530952Y-16709580D02*
X70578571Y-16757200D01*
X70578571Y-16757200D02*
X70673809Y-16804819D01*
X70673809Y-16804819D02*
X70959523Y-16804819D01*
X70959523Y-16804819D02*
X71054761Y-16757200D01*
X71054761Y-16757200D02*
X71102380Y-16709580D01*
X26911904Y-29154819D02*
X26340476Y-29154819D01*
X26626190Y-30154819D02*
X26626190Y-29154819D01*
X26007142Y-30154819D02*
X26007142Y-29154819D01*
X26007142Y-29154819D02*
X25626190Y-29154819D01*
X25626190Y-29154819D02*
X25530952Y-29202438D01*
X25530952Y-29202438D02*
X25483333Y-29250057D01*
X25483333Y-29250057D02*
X25435714Y-29345295D01*
X25435714Y-29345295D02*
X25435714Y-29488152D01*
X25435714Y-29488152D02*
X25483333Y-29583390D01*
X25483333Y-29583390D02*
X25530952Y-29631009D01*
X25530952Y-29631009D02*
X25626190Y-29678628D01*
X25626190Y-29678628D02*
X26007142Y-29678628D01*
X24483333Y-30154819D02*
X25054761Y-30154819D01*
X24769047Y-30154819D02*
X24769047Y-29154819D01*
X24769047Y-29154819D02*
X24864285Y-29297676D01*
X24864285Y-29297676D02*
X24959523Y-29392914D01*
X24959523Y-29392914D02*
X25054761Y-29440533D01*
X95911904Y-34254819D02*
X95340476Y-34254819D01*
X95626190Y-35254819D02*
X95626190Y-34254819D01*
X95007142Y-35254819D02*
X95007142Y-34254819D01*
X95007142Y-34254819D02*
X94626190Y-34254819D01*
X94626190Y-34254819D02*
X94530952Y-34302438D01*
X94530952Y-34302438D02*
X94483333Y-34350057D01*
X94483333Y-34350057D02*
X94435714Y-34445295D01*
X94435714Y-34445295D02*
X94435714Y-34588152D01*
X94435714Y-34588152D02*
X94483333Y-34683390D01*
X94483333Y-34683390D02*
X94530952Y-34731009D01*
X94530952Y-34731009D02*
X94626190Y-34778628D01*
X94626190Y-34778628D02*
X95007142Y-34778628D01*
X94054761Y-34350057D02*
X94007142Y-34302438D01*
X94007142Y-34302438D02*
X93911904Y-34254819D01*
X93911904Y-34254819D02*
X93673809Y-34254819D01*
X93673809Y-34254819D02*
X93578571Y-34302438D01*
X93578571Y-34302438D02*
X93530952Y-34350057D01*
X93530952Y-34350057D02*
X93483333Y-34445295D01*
X93483333Y-34445295D02*
X93483333Y-34540533D01*
X93483333Y-34540533D02*
X93530952Y-34683390D01*
X93530952Y-34683390D02*
X94102380Y-35254819D01*
X94102380Y-35254819D02*
X93483333Y-35254819D01*
X32561904Y-58654819D02*
X31990476Y-58654819D01*
X32276190Y-59654819D02*
X32276190Y-58654819D01*
X31657142Y-59654819D02*
X31657142Y-58654819D01*
X31657142Y-58654819D02*
X31276190Y-58654819D01*
X31276190Y-58654819D02*
X31180952Y-58702438D01*
X31180952Y-58702438D02*
X31133333Y-58750057D01*
X31133333Y-58750057D02*
X31085714Y-58845295D01*
X31085714Y-58845295D02*
X31085714Y-58988152D01*
X31085714Y-58988152D02*
X31133333Y-59083390D01*
X31133333Y-59083390D02*
X31180952Y-59131009D01*
X31180952Y-59131009D02*
X31276190Y-59178628D01*
X31276190Y-59178628D02*
X31657142Y-59178628D01*
X30228571Y-58988152D02*
X30228571Y-59654819D01*
X30466666Y-58607200D02*
X30704761Y-59321485D01*
X30704761Y-59321485D02*
X30085714Y-59321485D01*
X9561904Y-13054819D02*
X8990476Y-13054819D01*
X9276190Y-14054819D02*
X9276190Y-13054819D01*
X8657142Y-14054819D02*
X8657142Y-13054819D01*
X8657142Y-13054819D02*
X8276190Y-13054819D01*
X8276190Y-13054819D02*
X8180952Y-13102438D01*
X8180952Y-13102438D02*
X8133333Y-13150057D01*
X8133333Y-13150057D02*
X8085714Y-13245295D01*
X8085714Y-13245295D02*
X8085714Y-13388152D01*
X8085714Y-13388152D02*
X8133333Y-13483390D01*
X8133333Y-13483390D02*
X8180952Y-13531009D01*
X8180952Y-13531009D02*
X8276190Y-13578628D01*
X8276190Y-13578628D02*
X8657142Y-13578628D01*
X7752380Y-13054819D02*
X7085714Y-13054819D01*
X7085714Y-13054819D02*
X7514285Y-14054819D01*
X32561904Y-42654819D02*
X31990476Y-42654819D01*
X32276190Y-43654819D02*
X32276190Y-42654819D01*
X31657142Y-43654819D02*
X31657142Y-42654819D01*
X31657142Y-42654819D02*
X31276190Y-42654819D01*
X31276190Y-42654819D02*
X31180952Y-42702438D01*
X31180952Y-42702438D02*
X31133333Y-42750057D01*
X31133333Y-42750057D02*
X31085714Y-42845295D01*
X31085714Y-42845295D02*
X31085714Y-42988152D01*
X31085714Y-42988152D02*
X31133333Y-43083390D01*
X31133333Y-43083390D02*
X31180952Y-43131009D01*
X31180952Y-43131009D02*
X31276190Y-43178628D01*
X31276190Y-43178628D02*
X31657142Y-43178628D01*
X30228571Y-42988152D02*
X30228571Y-43654819D01*
X30466666Y-42607200D02*
X30704761Y-43321485D01*
X30704761Y-43321485D02*
X30085714Y-43321485D01*
X32561904Y-50254819D02*
X31990476Y-50254819D01*
X32276190Y-51254819D02*
X32276190Y-50254819D01*
X31657142Y-51254819D02*
X31657142Y-50254819D01*
X31657142Y-50254819D02*
X31276190Y-50254819D01*
X31276190Y-50254819D02*
X31180952Y-50302438D01*
X31180952Y-50302438D02*
X31133333Y-50350057D01*
X31133333Y-50350057D02*
X31085714Y-50445295D01*
X31085714Y-50445295D02*
X31085714Y-50588152D01*
X31085714Y-50588152D02*
X31133333Y-50683390D01*
X31133333Y-50683390D02*
X31180952Y-50731009D01*
X31180952Y-50731009D02*
X31276190Y-50778628D01*
X31276190Y-50778628D02*
X31657142Y-50778628D01*
X30514285Y-50683390D02*
X30609523Y-50635771D01*
X30609523Y-50635771D02*
X30657142Y-50588152D01*
X30657142Y-50588152D02*
X30704761Y-50492914D01*
X30704761Y-50492914D02*
X30704761Y-50445295D01*
X30704761Y-50445295D02*
X30657142Y-50350057D01*
X30657142Y-50350057D02*
X30609523Y-50302438D01*
X30609523Y-50302438D02*
X30514285Y-50254819D01*
X30514285Y-50254819D02*
X30323809Y-50254819D01*
X30323809Y-50254819D02*
X30228571Y-50302438D01*
X30228571Y-50302438D02*
X30180952Y-50350057D01*
X30180952Y-50350057D02*
X30133333Y-50445295D01*
X30133333Y-50445295D02*
X30133333Y-50492914D01*
X30133333Y-50492914D02*
X30180952Y-50588152D01*
X30180952Y-50588152D02*
X30228571Y-50635771D01*
X30228571Y-50635771D02*
X30323809Y-50683390D01*
X30323809Y-50683390D02*
X30514285Y-50683390D01*
X30514285Y-50683390D02*
X30609523Y-50731009D01*
X30609523Y-50731009D02*
X30657142Y-50778628D01*
X30657142Y-50778628D02*
X30704761Y-50873866D01*
X30704761Y-50873866D02*
X30704761Y-51064342D01*
X30704761Y-51064342D02*
X30657142Y-51159580D01*
X30657142Y-51159580D02*
X30609523Y-51207200D01*
X30609523Y-51207200D02*
X30514285Y-51254819D01*
X30514285Y-51254819D02*
X30323809Y-51254819D01*
X30323809Y-51254819D02*
X30228571Y-51207200D01*
X30228571Y-51207200D02*
X30180952Y-51159580D01*
X30180952Y-51159580D02*
X30133333Y-51064342D01*
X30133333Y-51064342D02*
X30133333Y-50873866D01*
X30133333Y-50873866D02*
X30180952Y-50778628D01*
X30180952Y-50778628D02*
X30228571Y-50731009D01*
X30228571Y-50731009D02*
X30323809Y-50683390D01*
X78561904Y-29054819D02*
X77990476Y-29054819D01*
X78276190Y-30054819D02*
X78276190Y-29054819D01*
X77657142Y-30054819D02*
X77657142Y-29054819D01*
X77657142Y-29054819D02*
X77276190Y-29054819D01*
X77276190Y-29054819D02*
X77180952Y-29102438D01*
X77180952Y-29102438D02*
X77133333Y-29150057D01*
X77133333Y-29150057D02*
X77085714Y-29245295D01*
X77085714Y-29245295D02*
X77085714Y-29388152D01*
X77085714Y-29388152D02*
X77133333Y-29483390D01*
X77133333Y-29483390D02*
X77180952Y-29531009D01*
X77180952Y-29531009D02*
X77276190Y-29578628D01*
X77276190Y-29578628D02*
X77657142Y-29578628D01*
X76752380Y-29054819D02*
X76085714Y-29054819D01*
X76085714Y-29054819D02*
X76514285Y-30054819D01*
X49861904Y-26654819D02*
X49290476Y-26654819D01*
X49576190Y-27654819D02*
X49576190Y-26654819D01*
X48957142Y-27654819D02*
X48957142Y-26654819D01*
X48957142Y-26654819D02*
X48576190Y-26654819D01*
X48576190Y-26654819D02*
X48480952Y-26702438D01*
X48480952Y-26702438D02*
X48433333Y-26750057D01*
X48433333Y-26750057D02*
X48385714Y-26845295D01*
X48385714Y-26845295D02*
X48385714Y-26988152D01*
X48385714Y-26988152D02*
X48433333Y-27083390D01*
X48433333Y-27083390D02*
X48480952Y-27131009D01*
X48480952Y-27131009D02*
X48576190Y-27178628D01*
X48576190Y-27178628D02*
X48957142Y-27178628D01*
X47528571Y-26654819D02*
X47719047Y-26654819D01*
X47719047Y-26654819D02*
X47814285Y-26702438D01*
X47814285Y-26702438D02*
X47861904Y-26750057D01*
X47861904Y-26750057D02*
X47957142Y-26892914D01*
X47957142Y-26892914D02*
X48004761Y-27083390D01*
X48004761Y-27083390D02*
X48004761Y-27464342D01*
X48004761Y-27464342D02*
X47957142Y-27559580D01*
X47957142Y-27559580D02*
X47909523Y-27607200D01*
X47909523Y-27607200D02*
X47814285Y-27654819D01*
X47814285Y-27654819D02*
X47623809Y-27654819D01*
X47623809Y-27654819D02*
X47528571Y-27607200D01*
X47528571Y-27607200D02*
X47480952Y-27559580D01*
X47480952Y-27559580D02*
X47433333Y-27464342D01*
X47433333Y-27464342D02*
X47433333Y-27226247D01*
X47433333Y-27226247D02*
X47480952Y-27131009D01*
X47480952Y-27131009D02*
X47528571Y-27083390D01*
X47528571Y-27083390D02*
X47623809Y-27035771D01*
X47623809Y-27035771D02*
X47814285Y-27035771D01*
X47814285Y-27035771D02*
X47909523Y-27083390D01*
X47909523Y-27083390D02*
X47957142Y-27131009D01*
X47957142Y-27131009D02*
X48004761Y-27226247D01*
X72911904Y-45154819D02*
X72340476Y-45154819D01*
X72626190Y-46154819D02*
X72626190Y-45154819D01*
X72007142Y-46154819D02*
X72007142Y-45154819D01*
X72007142Y-45154819D02*
X71626190Y-45154819D01*
X71626190Y-45154819D02*
X71530952Y-45202438D01*
X71530952Y-45202438D02*
X71483333Y-45250057D01*
X71483333Y-45250057D02*
X71435714Y-45345295D01*
X71435714Y-45345295D02*
X71435714Y-45488152D01*
X71435714Y-45488152D02*
X71483333Y-45583390D01*
X71483333Y-45583390D02*
X71530952Y-45631009D01*
X71530952Y-45631009D02*
X71626190Y-45678628D01*
X71626190Y-45678628D02*
X72007142Y-45678628D01*
X70483333Y-46154819D02*
X71054761Y-46154819D01*
X70769047Y-46154819D02*
X70769047Y-45154819D01*
X70769047Y-45154819D02*
X70864285Y-45297676D01*
X70864285Y-45297676D02*
X70959523Y-45392914D01*
X70959523Y-45392914D02*
X71054761Y-45440533D01*
X9561904Y-10654819D02*
X8990476Y-10654819D01*
X9276190Y-11654819D02*
X9276190Y-10654819D01*
X8657142Y-11654819D02*
X8657142Y-10654819D01*
X8657142Y-10654819D02*
X8276190Y-10654819D01*
X8276190Y-10654819D02*
X8180952Y-10702438D01*
X8180952Y-10702438D02*
X8133333Y-10750057D01*
X8133333Y-10750057D02*
X8085714Y-10845295D01*
X8085714Y-10845295D02*
X8085714Y-10988152D01*
X8085714Y-10988152D02*
X8133333Y-11083390D01*
X8133333Y-11083390D02*
X8180952Y-11131009D01*
X8180952Y-11131009D02*
X8276190Y-11178628D01*
X8276190Y-11178628D02*
X8657142Y-11178628D01*
X7228571Y-10988152D02*
X7228571Y-11654819D01*
X7466666Y-10607200D02*
X7704761Y-11321485D01*
X7704761Y-11321485D02*
X7085714Y-11321485D01*
X32561904Y-15754819D02*
X31990476Y-15754819D01*
X32276190Y-16754819D02*
X32276190Y-15754819D01*
X31657142Y-16754819D02*
X31657142Y-15754819D01*
X31657142Y-15754819D02*
X31276190Y-15754819D01*
X31276190Y-15754819D02*
X31180952Y-15802438D01*
X31180952Y-15802438D02*
X31133333Y-15850057D01*
X31133333Y-15850057D02*
X31085714Y-15945295D01*
X31085714Y-15945295D02*
X31085714Y-16088152D01*
X31085714Y-16088152D02*
X31133333Y-16183390D01*
X31133333Y-16183390D02*
X31180952Y-16231009D01*
X31180952Y-16231009D02*
X31276190Y-16278628D01*
X31276190Y-16278628D02*
X31657142Y-16278628D01*
X30180952Y-15754819D02*
X30657142Y-15754819D01*
X30657142Y-15754819D02*
X30704761Y-16231009D01*
X30704761Y-16231009D02*
X30657142Y-16183390D01*
X30657142Y-16183390D02*
X30561904Y-16135771D01*
X30561904Y-16135771D02*
X30323809Y-16135771D01*
X30323809Y-16135771D02*
X30228571Y-16183390D01*
X30228571Y-16183390D02*
X30180952Y-16231009D01*
X30180952Y-16231009D02*
X30133333Y-16326247D01*
X30133333Y-16326247D02*
X30133333Y-16564342D01*
X30133333Y-16564342D02*
X30180952Y-16659580D01*
X30180952Y-16659580D02*
X30228571Y-16707200D01*
X30228571Y-16707200D02*
X30323809Y-16754819D01*
X30323809Y-16754819D02*
X30561904Y-16754819D01*
X30561904Y-16754819D02*
X30657142Y-16707200D01*
X30657142Y-16707200D02*
X30704761Y-16659580D01*
X95911904Y-45154819D02*
X95340476Y-45154819D01*
X95626190Y-46154819D02*
X95626190Y-45154819D01*
X95007142Y-46154819D02*
X95007142Y-45154819D01*
X95007142Y-45154819D02*
X94626190Y-45154819D01*
X94626190Y-45154819D02*
X94530952Y-45202438D01*
X94530952Y-45202438D02*
X94483333Y-45250057D01*
X94483333Y-45250057D02*
X94435714Y-45345295D01*
X94435714Y-45345295D02*
X94435714Y-45488152D01*
X94435714Y-45488152D02*
X94483333Y-45583390D01*
X94483333Y-45583390D02*
X94530952Y-45631009D01*
X94530952Y-45631009D02*
X94626190Y-45678628D01*
X94626190Y-45678628D02*
X95007142Y-45678628D01*
X93483333Y-46154819D02*
X94054761Y-46154819D01*
X93769047Y-46154819D02*
X93769047Y-45154819D01*
X93769047Y-45154819D02*
X93864285Y-45297676D01*
X93864285Y-45297676D02*
X93959523Y-45392914D01*
X93959523Y-45392914D02*
X94054761Y-45440533D01*
X72911904Y-31804819D02*
X72340476Y-31804819D01*
X72626190Y-32804819D02*
X72626190Y-31804819D01*
X72007142Y-32804819D02*
X72007142Y-31804819D01*
X72007142Y-31804819D02*
X71626190Y-31804819D01*
X71626190Y-31804819D02*
X71530952Y-31852438D01*
X71530952Y-31852438D02*
X71483333Y-31900057D01*
X71483333Y-31900057D02*
X71435714Y-31995295D01*
X71435714Y-31995295D02*
X71435714Y-32138152D01*
X71435714Y-32138152D02*
X71483333Y-32233390D01*
X71483333Y-32233390D02*
X71530952Y-32281009D01*
X71530952Y-32281009D02*
X71626190Y-32328628D01*
X71626190Y-32328628D02*
X72007142Y-32328628D01*
X71102380Y-31804819D02*
X70483333Y-31804819D01*
X70483333Y-31804819D02*
X70816666Y-32185771D01*
X70816666Y-32185771D02*
X70673809Y-32185771D01*
X70673809Y-32185771D02*
X70578571Y-32233390D01*
X70578571Y-32233390D02*
X70530952Y-32281009D01*
X70530952Y-32281009D02*
X70483333Y-32376247D01*
X70483333Y-32376247D02*
X70483333Y-32614342D01*
X70483333Y-32614342D02*
X70530952Y-32709580D01*
X70530952Y-32709580D02*
X70578571Y-32757200D01*
X70578571Y-32757200D02*
X70673809Y-32804819D01*
X70673809Y-32804819D02*
X70959523Y-32804819D01*
X70959523Y-32804819D02*
X71054761Y-32757200D01*
X71054761Y-32757200D02*
X71102380Y-32709580D01*
X32561904Y-26654819D02*
X31990476Y-26654819D01*
X32276190Y-27654819D02*
X32276190Y-26654819D01*
X31657142Y-27654819D02*
X31657142Y-26654819D01*
X31657142Y-26654819D02*
X31276190Y-26654819D01*
X31276190Y-26654819D02*
X31180952Y-26702438D01*
X31180952Y-26702438D02*
X31133333Y-26750057D01*
X31133333Y-26750057D02*
X31085714Y-26845295D01*
X31085714Y-26845295D02*
X31085714Y-26988152D01*
X31085714Y-26988152D02*
X31133333Y-27083390D01*
X31133333Y-27083390D02*
X31180952Y-27131009D01*
X31180952Y-27131009D02*
X31276190Y-27178628D01*
X31276190Y-27178628D02*
X31657142Y-27178628D01*
X30228571Y-26988152D02*
X30228571Y-27654819D01*
X30466666Y-26607200D02*
X30704761Y-27321485D01*
X30704761Y-27321485D02*
X30085714Y-27321485D01*
X55561904Y-58654819D02*
X54990476Y-58654819D01*
X55276190Y-59654819D02*
X55276190Y-58654819D01*
X54657142Y-59654819D02*
X54657142Y-58654819D01*
X54657142Y-58654819D02*
X54276190Y-58654819D01*
X54276190Y-58654819D02*
X54180952Y-58702438D01*
X54180952Y-58702438D02*
X54133333Y-58750057D01*
X54133333Y-58750057D02*
X54085714Y-58845295D01*
X54085714Y-58845295D02*
X54085714Y-58988152D01*
X54085714Y-58988152D02*
X54133333Y-59083390D01*
X54133333Y-59083390D02*
X54180952Y-59131009D01*
X54180952Y-59131009D02*
X54276190Y-59178628D01*
X54276190Y-59178628D02*
X54657142Y-59178628D01*
X53228571Y-58988152D02*
X53228571Y-59654819D01*
X53466666Y-58607200D02*
X53704761Y-59321485D01*
X53704761Y-59321485D02*
X53085714Y-59321485D01*
X49911904Y-66254819D02*
X49340476Y-66254819D01*
X49626190Y-67254819D02*
X49626190Y-66254819D01*
X49007142Y-67254819D02*
X49007142Y-66254819D01*
X49007142Y-66254819D02*
X48626190Y-66254819D01*
X48626190Y-66254819D02*
X48530952Y-66302438D01*
X48530952Y-66302438D02*
X48483333Y-66350057D01*
X48483333Y-66350057D02*
X48435714Y-66445295D01*
X48435714Y-66445295D02*
X48435714Y-66588152D01*
X48435714Y-66588152D02*
X48483333Y-66683390D01*
X48483333Y-66683390D02*
X48530952Y-66731009D01*
X48530952Y-66731009D02*
X48626190Y-66778628D01*
X48626190Y-66778628D02*
X49007142Y-66778628D01*
X48054761Y-66350057D02*
X48007142Y-66302438D01*
X48007142Y-66302438D02*
X47911904Y-66254819D01*
X47911904Y-66254819D02*
X47673809Y-66254819D01*
X47673809Y-66254819D02*
X47578571Y-66302438D01*
X47578571Y-66302438D02*
X47530952Y-66350057D01*
X47530952Y-66350057D02*
X47483333Y-66445295D01*
X47483333Y-66445295D02*
X47483333Y-66540533D01*
X47483333Y-66540533D02*
X47530952Y-66683390D01*
X47530952Y-66683390D02*
X48102380Y-67254819D01*
X48102380Y-67254819D02*
X47483333Y-67254819D01*
X9561904Y-58654819D02*
X8990476Y-58654819D01*
X9276190Y-59654819D02*
X9276190Y-58654819D01*
X8657142Y-59654819D02*
X8657142Y-58654819D01*
X8657142Y-58654819D02*
X8276190Y-58654819D01*
X8276190Y-58654819D02*
X8180952Y-58702438D01*
X8180952Y-58702438D02*
X8133333Y-58750057D01*
X8133333Y-58750057D02*
X8085714Y-58845295D01*
X8085714Y-58845295D02*
X8085714Y-58988152D01*
X8085714Y-58988152D02*
X8133333Y-59083390D01*
X8133333Y-59083390D02*
X8180952Y-59131009D01*
X8180952Y-59131009D02*
X8276190Y-59178628D01*
X8276190Y-59178628D02*
X8657142Y-59178628D01*
X7228571Y-58988152D02*
X7228571Y-59654819D01*
X7466666Y-58607200D02*
X7704761Y-59321485D01*
X7704761Y-59321485D02*
X7085714Y-59321485D01*
X95861904Y-26654819D02*
X95290476Y-26654819D01*
X95576190Y-27654819D02*
X95576190Y-26654819D01*
X94957142Y-27654819D02*
X94957142Y-26654819D01*
X94957142Y-26654819D02*
X94576190Y-26654819D01*
X94576190Y-26654819D02*
X94480952Y-26702438D01*
X94480952Y-26702438D02*
X94433333Y-26750057D01*
X94433333Y-26750057D02*
X94385714Y-26845295D01*
X94385714Y-26845295D02*
X94385714Y-26988152D01*
X94385714Y-26988152D02*
X94433333Y-27083390D01*
X94433333Y-27083390D02*
X94480952Y-27131009D01*
X94480952Y-27131009D02*
X94576190Y-27178628D01*
X94576190Y-27178628D02*
X94957142Y-27178628D01*
X93528571Y-26654819D02*
X93719047Y-26654819D01*
X93719047Y-26654819D02*
X93814285Y-26702438D01*
X93814285Y-26702438D02*
X93861904Y-26750057D01*
X93861904Y-26750057D02*
X93957142Y-26892914D01*
X93957142Y-26892914D02*
X94004761Y-27083390D01*
X94004761Y-27083390D02*
X94004761Y-27464342D01*
X94004761Y-27464342D02*
X93957142Y-27559580D01*
X93957142Y-27559580D02*
X93909523Y-27607200D01*
X93909523Y-27607200D02*
X93814285Y-27654819D01*
X93814285Y-27654819D02*
X93623809Y-27654819D01*
X93623809Y-27654819D02*
X93528571Y-27607200D01*
X93528571Y-27607200D02*
X93480952Y-27559580D01*
X93480952Y-27559580D02*
X93433333Y-27464342D01*
X93433333Y-27464342D02*
X93433333Y-27226247D01*
X93433333Y-27226247D02*
X93480952Y-27131009D01*
X93480952Y-27131009D02*
X93528571Y-27083390D01*
X93528571Y-27083390D02*
X93623809Y-27035771D01*
X93623809Y-27035771D02*
X93814285Y-27035771D01*
X93814285Y-27035771D02*
X93909523Y-27083390D01*
X93909523Y-27083390D02*
X93957142Y-27131009D01*
X93957142Y-27131009D02*
X94004761Y-27226247D01*
X49861904Y-10654819D02*
X49290476Y-10654819D01*
X49576190Y-11654819D02*
X49576190Y-10654819D01*
X48957142Y-11654819D02*
X48957142Y-10654819D01*
X48957142Y-10654819D02*
X48576190Y-10654819D01*
X48576190Y-10654819D02*
X48480952Y-10702438D01*
X48480952Y-10702438D02*
X48433333Y-10750057D01*
X48433333Y-10750057D02*
X48385714Y-10845295D01*
X48385714Y-10845295D02*
X48385714Y-10988152D01*
X48385714Y-10988152D02*
X48433333Y-11083390D01*
X48433333Y-11083390D02*
X48480952Y-11131009D01*
X48480952Y-11131009D02*
X48576190Y-11178628D01*
X48576190Y-11178628D02*
X48957142Y-11178628D01*
X47528571Y-10654819D02*
X47719047Y-10654819D01*
X47719047Y-10654819D02*
X47814285Y-10702438D01*
X47814285Y-10702438D02*
X47861904Y-10750057D01*
X47861904Y-10750057D02*
X47957142Y-10892914D01*
X47957142Y-10892914D02*
X48004761Y-11083390D01*
X48004761Y-11083390D02*
X48004761Y-11464342D01*
X48004761Y-11464342D02*
X47957142Y-11559580D01*
X47957142Y-11559580D02*
X47909523Y-11607200D01*
X47909523Y-11607200D02*
X47814285Y-11654819D01*
X47814285Y-11654819D02*
X47623809Y-11654819D01*
X47623809Y-11654819D02*
X47528571Y-11607200D01*
X47528571Y-11607200D02*
X47480952Y-11559580D01*
X47480952Y-11559580D02*
X47433333Y-11464342D01*
X47433333Y-11464342D02*
X47433333Y-11226247D01*
X47433333Y-11226247D02*
X47480952Y-11131009D01*
X47480952Y-11131009D02*
X47528571Y-11083390D01*
X47528571Y-11083390D02*
X47623809Y-11035771D01*
X47623809Y-11035771D02*
X47814285Y-11035771D01*
X47814285Y-11035771D02*
X47909523Y-11083390D01*
X47909523Y-11083390D02*
X47957142Y-11131009D01*
X47957142Y-11131009D02*
X48004761Y-11226247D01*
X26911904Y-31804819D02*
X26340476Y-31804819D01*
X26626190Y-32804819D02*
X26626190Y-31804819D01*
X26007142Y-32804819D02*
X26007142Y-31804819D01*
X26007142Y-31804819D02*
X25626190Y-31804819D01*
X25626190Y-31804819D02*
X25530952Y-31852438D01*
X25530952Y-31852438D02*
X25483333Y-31900057D01*
X25483333Y-31900057D02*
X25435714Y-31995295D01*
X25435714Y-31995295D02*
X25435714Y-32138152D01*
X25435714Y-32138152D02*
X25483333Y-32233390D01*
X25483333Y-32233390D02*
X25530952Y-32281009D01*
X25530952Y-32281009D02*
X25626190Y-32328628D01*
X25626190Y-32328628D02*
X26007142Y-32328628D01*
X25102380Y-31804819D02*
X24483333Y-31804819D01*
X24483333Y-31804819D02*
X24816666Y-32185771D01*
X24816666Y-32185771D02*
X24673809Y-32185771D01*
X24673809Y-32185771D02*
X24578571Y-32233390D01*
X24578571Y-32233390D02*
X24530952Y-32281009D01*
X24530952Y-32281009D02*
X24483333Y-32376247D01*
X24483333Y-32376247D02*
X24483333Y-32614342D01*
X24483333Y-32614342D02*
X24530952Y-32709580D01*
X24530952Y-32709580D02*
X24578571Y-32757200D01*
X24578571Y-32757200D02*
X24673809Y-32804819D01*
X24673809Y-32804819D02*
X24959523Y-32804819D01*
X24959523Y-32804819D02*
X25054761Y-32757200D01*
X25054761Y-32757200D02*
X25102380Y-32709580D01*
X32561904Y-34254819D02*
X31990476Y-34254819D01*
X32276190Y-35254819D02*
X32276190Y-34254819D01*
X31657142Y-35254819D02*
X31657142Y-34254819D01*
X31657142Y-34254819D02*
X31276190Y-34254819D01*
X31276190Y-34254819D02*
X31180952Y-34302438D01*
X31180952Y-34302438D02*
X31133333Y-34350057D01*
X31133333Y-34350057D02*
X31085714Y-34445295D01*
X31085714Y-34445295D02*
X31085714Y-34588152D01*
X31085714Y-34588152D02*
X31133333Y-34683390D01*
X31133333Y-34683390D02*
X31180952Y-34731009D01*
X31180952Y-34731009D02*
X31276190Y-34778628D01*
X31276190Y-34778628D02*
X31657142Y-34778628D01*
X30514285Y-34683390D02*
X30609523Y-34635771D01*
X30609523Y-34635771D02*
X30657142Y-34588152D01*
X30657142Y-34588152D02*
X30704761Y-34492914D01*
X30704761Y-34492914D02*
X30704761Y-34445295D01*
X30704761Y-34445295D02*
X30657142Y-34350057D01*
X30657142Y-34350057D02*
X30609523Y-34302438D01*
X30609523Y-34302438D02*
X30514285Y-34254819D01*
X30514285Y-34254819D02*
X30323809Y-34254819D01*
X30323809Y-34254819D02*
X30228571Y-34302438D01*
X30228571Y-34302438D02*
X30180952Y-34350057D01*
X30180952Y-34350057D02*
X30133333Y-34445295D01*
X30133333Y-34445295D02*
X30133333Y-34492914D01*
X30133333Y-34492914D02*
X30180952Y-34588152D01*
X30180952Y-34588152D02*
X30228571Y-34635771D01*
X30228571Y-34635771D02*
X30323809Y-34683390D01*
X30323809Y-34683390D02*
X30514285Y-34683390D01*
X30514285Y-34683390D02*
X30609523Y-34731009D01*
X30609523Y-34731009D02*
X30657142Y-34778628D01*
X30657142Y-34778628D02*
X30704761Y-34873866D01*
X30704761Y-34873866D02*
X30704761Y-35064342D01*
X30704761Y-35064342D02*
X30657142Y-35159580D01*
X30657142Y-35159580D02*
X30609523Y-35207200D01*
X30609523Y-35207200D02*
X30514285Y-35254819D01*
X30514285Y-35254819D02*
X30323809Y-35254819D01*
X30323809Y-35254819D02*
X30228571Y-35207200D01*
X30228571Y-35207200D02*
X30180952Y-35159580D01*
X30180952Y-35159580D02*
X30133333Y-35064342D01*
X30133333Y-35064342D02*
X30133333Y-34873866D01*
X30133333Y-34873866D02*
X30180952Y-34778628D01*
X30180952Y-34778628D02*
X30228571Y-34731009D01*
X30228571Y-34731009D02*
X30323809Y-34683390D01*
X72911904Y-47804819D02*
X72340476Y-47804819D01*
X72626190Y-48804819D02*
X72626190Y-47804819D01*
X72007142Y-48804819D02*
X72007142Y-47804819D01*
X72007142Y-47804819D02*
X71626190Y-47804819D01*
X71626190Y-47804819D02*
X71530952Y-47852438D01*
X71530952Y-47852438D02*
X71483333Y-47900057D01*
X71483333Y-47900057D02*
X71435714Y-47995295D01*
X71435714Y-47995295D02*
X71435714Y-48138152D01*
X71435714Y-48138152D02*
X71483333Y-48233390D01*
X71483333Y-48233390D02*
X71530952Y-48281009D01*
X71530952Y-48281009D02*
X71626190Y-48328628D01*
X71626190Y-48328628D02*
X72007142Y-48328628D01*
X71102380Y-47804819D02*
X70483333Y-47804819D01*
X70483333Y-47804819D02*
X70816666Y-48185771D01*
X70816666Y-48185771D02*
X70673809Y-48185771D01*
X70673809Y-48185771D02*
X70578571Y-48233390D01*
X70578571Y-48233390D02*
X70530952Y-48281009D01*
X70530952Y-48281009D02*
X70483333Y-48376247D01*
X70483333Y-48376247D02*
X70483333Y-48614342D01*
X70483333Y-48614342D02*
X70530952Y-48709580D01*
X70530952Y-48709580D02*
X70578571Y-48757200D01*
X70578571Y-48757200D02*
X70673809Y-48804819D01*
X70673809Y-48804819D02*
X70959523Y-48804819D01*
X70959523Y-48804819D02*
X71054761Y-48757200D01*
X71054761Y-48757200D02*
X71102380Y-48709580D01*
X78561904Y-34254819D02*
X77990476Y-34254819D01*
X78276190Y-35254819D02*
X78276190Y-34254819D01*
X77657142Y-35254819D02*
X77657142Y-34254819D01*
X77657142Y-34254819D02*
X77276190Y-34254819D01*
X77276190Y-34254819D02*
X77180952Y-34302438D01*
X77180952Y-34302438D02*
X77133333Y-34350057D01*
X77133333Y-34350057D02*
X77085714Y-34445295D01*
X77085714Y-34445295D02*
X77085714Y-34588152D01*
X77085714Y-34588152D02*
X77133333Y-34683390D01*
X77133333Y-34683390D02*
X77180952Y-34731009D01*
X77180952Y-34731009D02*
X77276190Y-34778628D01*
X77276190Y-34778628D02*
X77657142Y-34778628D01*
X76514285Y-34683390D02*
X76609523Y-34635771D01*
X76609523Y-34635771D02*
X76657142Y-34588152D01*
X76657142Y-34588152D02*
X76704761Y-34492914D01*
X76704761Y-34492914D02*
X76704761Y-34445295D01*
X76704761Y-34445295D02*
X76657142Y-34350057D01*
X76657142Y-34350057D02*
X76609523Y-34302438D01*
X76609523Y-34302438D02*
X76514285Y-34254819D01*
X76514285Y-34254819D02*
X76323809Y-34254819D01*
X76323809Y-34254819D02*
X76228571Y-34302438D01*
X76228571Y-34302438D02*
X76180952Y-34350057D01*
X76180952Y-34350057D02*
X76133333Y-34445295D01*
X76133333Y-34445295D02*
X76133333Y-34492914D01*
X76133333Y-34492914D02*
X76180952Y-34588152D01*
X76180952Y-34588152D02*
X76228571Y-34635771D01*
X76228571Y-34635771D02*
X76323809Y-34683390D01*
X76323809Y-34683390D02*
X76514285Y-34683390D01*
X76514285Y-34683390D02*
X76609523Y-34731009D01*
X76609523Y-34731009D02*
X76657142Y-34778628D01*
X76657142Y-34778628D02*
X76704761Y-34873866D01*
X76704761Y-34873866D02*
X76704761Y-35064342D01*
X76704761Y-35064342D02*
X76657142Y-35159580D01*
X76657142Y-35159580D02*
X76609523Y-35207200D01*
X76609523Y-35207200D02*
X76514285Y-35254819D01*
X76514285Y-35254819D02*
X76323809Y-35254819D01*
X76323809Y-35254819D02*
X76228571Y-35207200D01*
X76228571Y-35207200D02*
X76180952Y-35159580D01*
X76180952Y-35159580D02*
X76133333Y-35064342D01*
X76133333Y-35064342D02*
X76133333Y-34873866D01*
X76133333Y-34873866D02*
X76180952Y-34778628D01*
X76180952Y-34778628D02*
X76228571Y-34731009D01*
X76228571Y-34731009D02*
X76323809Y-34683390D01*
X26911904Y-47804819D02*
X26340476Y-47804819D01*
X26626190Y-48804819D02*
X26626190Y-47804819D01*
X26007142Y-48804819D02*
X26007142Y-47804819D01*
X26007142Y-47804819D02*
X25626190Y-47804819D01*
X25626190Y-47804819D02*
X25530952Y-47852438D01*
X25530952Y-47852438D02*
X25483333Y-47900057D01*
X25483333Y-47900057D02*
X25435714Y-47995295D01*
X25435714Y-47995295D02*
X25435714Y-48138152D01*
X25435714Y-48138152D02*
X25483333Y-48233390D01*
X25483333Y-48233390D02*
X25530952Y-48281009D01*
X25530952Y-48281009D02*
X25626190Y-48328628D01*
X25626190Y-48328628D02*
X26007142Y-48328628D01*
X25102380Y-47804819D02*
X24483333Y-47804819D01*
X24483333Y-47804819D02*
X24816666Y-48185771D01*
X24816666Y-48185771D02*
X24673809Y-48185771D01*
X24673809Y-48185771D02*
X24578571Y-48233390D01*
X24578571Y-48233390D02*
X24530952Y-48281009D01*
X24530952Y-48281009D02*
X24483333Y-48376247D01*
X24483333Y-48376247D02*
X24483333Y-48614342D01*
X24483333Y-48614342D02*
X24530952Y-48709580D01*
X24530952Y-48709580D02*
X24578571Y-48757200D01*
X24578571Y-48757200D02*
X24673809Y-48804819D01*
X24673809Y-48804819D02*
X24959523Y-48804819D01*
X24959523Y-48804819D02*
X25054761Y-48757200D01*
X25054761Y-48757200D02*
X25102380Y-48709580D01*
X78561904Y-31754819D02*
X77990476Y-31754819D01*
X78276190Y-32754819D02*
X78276190Y-31754819D01*
X77657142Y-32754819D02*
X77657142Y-31754819D01*
X77657142Y-31754819D02*
X77276190Y-31754819D01*
X77276190Y-31754819D02*
X77180952Y-31802438D01*
X77180952Y-31802438D02*
X77133333Y-31850057D01*
X77133333Y-31850057D02*
X77085714Y-31945295D01*
X77085714Y-31945295D02*
X77085714Y-32088152D01*
X77085714Y-32088152D02*
X77133333Y-32183390D01*
X77133333Y-32183390D02*
X77180952Y-32231009D01*
X77180952Y-32231009D02*
X77276190Y-32278628D01*
X77276190Y-32278628D02*
X77657142Y-32278628D01*
X76180952Y-31754819D02*
X76657142Y-31754819D01*
X76657142Y-31754819D02*
X76704761Y-32231009D01*
X76704761Y-32231009D02*
X76657142Y-32183390D01*
X76657142Y-32183390D02*
X76561904Y-32135771D01*
X76561904Y-32135771D02*
X76323809Y-32135771D01*
X76323809Y-32135771D02*
X76228571Y-32183390D01*
X76228571Y-32183390D02*
X76180952Y-32231009D01*
X76180952Y-32231009D02*
X76133333Y-32326247D01*
X76133333Y-32326247D02*
X76133333Y-32564342D01*
X76133333Y-32564342D02*
X76180952Y-32659580D01*
X76180952Y-32659580D02*
X76228571Y-32707200D01*
X76228571Y-32707200D02*
X76323809Y-32754819D01*
X76323809Y-32754819D02*
X76561904Y-32754819D01*
X76561904Y-32754819D02*
X76657142Y-32707200D01*
X76657142Y-32707200D02*
X76704761Y-32659580D01*
X55561904Y-47754819D02*
X54990476Y-47754819D01*
X55276190Y-48754819D02*
X55276190Y-47754819D01*
X54657142Y-48754819D02*
X54657142Y-47754819D01*
X54657142Y-47754819D02*
X54276190Y-47754819D01*
X54276190Y-47754819D02*
X54180952Y-47802438D01*
X54180952Y-47802438D02*
X54133333Y-47850057D01*
X54133333Y-47850057D02*
X54085714Y-47945295D01*
X54085714Y-47945295D02*
X54085714Y-48088152D01*
X54085714Y-48088152D02*
X54133333Y-48183390D01*
X54133333Y-48183390D02*
X54180952Y-48231009D01*
X54180952Y-48231009D02*
X54276190Y-48278628D01*
X54276190Y-48278628D02*
X54657142Y-48278628D01*
X53180952Y-47754819D02*
X53657142Y-47754819D01*
X53657142Y-47754819D02*
X53704761Y-48231009D01*
X53704761Y-48231009D02*
X53657142Y-48183390D01*
X53657142Y-48183390D02*
X53561904Y-48135771D01*
X53561904Y-48135771D02*
X53323809Y-48135771D01*
X53323809Y-48135771D02*
X53228571Y-48183390D01*
X53228571Y-48183390D02*
X53180952Y-48231009D01*
X53180952Y-48231009D02*
X53133333Y-48326247D01*
X53133333Y-48326247D02*
X53133333Y-48564342D01*
X53133333Y-48564342D02*
X53180952Y-48659580D01*
X53180952Y-48659580D02*
X53228571Y-48707200D01*
X53228571Y-48707200D02*
X53323809Y-48754819D01*
X53323809Y-48754819D02*
X53561904Y-48754819D01*
X53561904Y-48754819D02*
X53657142Y-48707200D01*
X53657142Y-48707200D02*
X53704761Y-48659580D01*
X55561904Y-66254819D02*
X54990476Y-66254819D01*
X55276190Y-67254819D02*
X55276190Y-66254819D01*
X54657142Y-67254819D02*
X54657142Y-66254819D01*
X54657142Y-66254819D02*
X54276190Y-66254819D01*
X54276190Y-66254819D02*
X54180952Y-66302438D01*
X54180952Y-66302438D02*
X54133333Y-66350057D01*
X54133333Y-66350057D02*
X54085714Y-66445295D01*
X54085714Y-66445295D02*
X54085714Y-66588152D01*
X54085714Y-66588152D02*
X54133333Y-66683390D01*
X54133333Y-66683390D02*
X54180952Y-66731009D01*
X54180952Y-66731009D02*
X54276190Y-66778628D01*
X54276190Y-66778628D02*
X54657142Y-66778628D01*
X53514285Y-66683390D02*
X53609523Y-66635771D01*
X53609523Y-66635771D02*
X53657142Y-66588152D01*
X53657142Y-66588152D02*
X53704761Y-66492914D01*
X53704761Y-66492914D02*
X53704761Y-66445295D01*
X53704761Y-66445295D02*
X53657142Y-66350057D01*
X53657142Y-66350057D02*
X53609523Y-66302438D01*
X53609523Y-66302438D02*
X53514285Y-66254819D01*
X53514285Y-66254819D02*
X53323809Y-66254819D01*
X53323809Y-66254819D02*
X53228571Y-66302438D01*
X53228571Y-66302438D02*
X53180952Y-66350057D01*
X53180952Y-66350057D02*
X53133333Y-66445295D01*
X53133333Y-66445295D02*
X53133333Y-66492914D01*
X53133333Y-66492914D02*
X53180952Y-66588152D01*
X53180952Y-66588152D02*
X53228571Y-66635771D01*
X53228571Y-66635771D02*
X53323809Y-66683390D01*
X53323809Y-66683390D02*
X53514285Y-66683390D01*
X53514285Y-66683390D02*
X53609523Y-66731009D01*
X53609523Y-66731009D02*
X53657142Y-66778628D01*
X53657142Y-66778628D02*
X53704761Y-66873866D01*
X53704761Y-66873866D02*
X53704761Y-67064342D01*
X53704761Y-67064342D02*
X53657142Y-67159580D01*
X53657142Y-67159580D02*
X53609523Y-67207200D01*
X53609523Y-67207200D02*
X53514285Y-67254819D01*
X53514285Y-67254819D02*
X53323809Y-67254819D01*
X53323809Y-67254819D02*
X53228571Y-67207200D01*
X53228571Y-67207200D02*
X53180952Y-67159580D01*
X53180952Y-67159580D02*
X53133333Y-67064342D01*
X53133333Y-67064342D02*
X53133333Y-66873866D01*
X53133333Y-66873866D02*
X53180952Y-66778628D01*
X53180952Y-66778628D02*
X53228571Y-66731009D01*
X53228571Y-66731009D02*
X53323809Y-66683390D01*
X95911904Y-31804819D02*
X95340476Y-31804819D01*
X95626190Y-32804819D02*
X95626190Y-31804819D01*
X95007142Y-32804819D02*
X95007142Y-31804819D01*
X95007142Y-31804819D02*
X94626190Y-31804819D01*
X94626190Y-31804819D02*
X94530952Y-31852438D01*
X94530952Y-31852438D02*
X94483333Y-31900057D01*
X94483333Y-31900057D02*
X94435714Y-31995295D01*
X94435714Y-31995295D02*
X94435714Y-32138152D01*
X94435714Y-32138152D02*
X94483333Y-32233390D01*
X94483333Y-32233390D02*
X94530952Y-32281009D01*
X94530952Y-32281009D02*
X94626190Y-32328628D01*
X94626190Y-32328628D02*
X95007142Y-32328628D01*
X94102380Y-31804819D02*
X93483333Y-31804819D01*
X93483333Y-31804819D02*
X93816666Y-32185771D01*
X93816666Y-32185771D02*
X93673809Y-32185771D01*
X93673809Y-32185771D02*
X93578571Y-32233390D01*
X93578571Y-32233390D02*
X93530952Y-32281009D01*
X93530952Y-32281009D02*
X93483333Y-32376247D01*
X93483333Y-32376247D02*
X93483333Y-32614342D01*
X93483333Y-32614342D02*
X93530952Y-32709580D01*
X93530952Y-32709580D02*
X93578571Y-32757200D01*
X93578571Y-32757200D02*
X93673809Y-32804819D01*
X93673809Y-32804819D02*
X93959523Y-32804819D01*
X93959523Y-32804819D02*
X94054761Y-32757200D01*
X94054761Y-32757200D02*
X94102380Y-32709580D01*
X9561904Y-31754819D02*
X8990476Y-31754819D01*
X9276190Y-32754819D02*
X9276190Y-31754819D01*
X8657142Y-32754819D02*
X8657142Y-31754819D01*
X8657142Y-31754819D02*
X8276190Y-31754819D01*
X8276190Y-31754819D02*
X8180952Y-31802438D01*
X8180952Y-31802438D02*
X8133333Y-31850057D01*
X8133333Y-31850057D02*
X8085714Y-31945295D01*
X8085714Y-31945295D02*
X8085714Y-32088152D01*
X8085714Y-32088152D02*
X8133333Y-32183390D01*
X8133333Y-32183390D02*
X8180952Y-32231009D01*
X8180952Y-32231009D02*
X8276190Y-32278628D01*
X8276190Y-32278628D02*
X8657142Y-32278628D01*
X7180952Y-31754819D02*
X7657142Y-31754819D01*
X7657142Y-31754819D02*
X7704761Y-32231009D01*
X7704761Y-32231009D02*
X7657142Y-32183390D01*
X7657142Y-32183390D02*
X7561904Y-32135771D01*
X7561904Y-32135771D02*
X7323809Y-32135771D01*
X7323809Y-32135771D02*
X7228571Y-32183390D01*
X7228571Y-32183390D02*
X7180952Y-32231009D01*
X7180952Y-32231009D02*
X7133333Y-32326247D01*
X7133333Y-32326247D02*
X7133333Y-32564342D01*
X7133333Y-32564342D02*
X7180952Y-32659580D01*
X7180952Y-32659580D02*
X7228571Y-32707200D01*
X7228571Y-32707200D02*
X7323809Y-32754819D01*
X7323809Y-32754819D02*
X7561904Y-32754819D01*
X7561904Y-32754819D02*
X7657142Y-32707200D01*
X7657142Y-32707200D02*
X7704761Y-32659580D01*
X78561904Y-58654819D02*
X77990476Y-58654819D01*
X78276190Y-59654819D02*
X78276190Y-58654819D01*
X77657142Y-59654819D02*
X77657142Y-58654819D01*
X77657142Y-58654819D02*
X77276190Y-58654819D01*
X77276190Y-58654819D02*
X77180952Y-58702438D01*
X77180952Y-58702438D02*
X77133333Y-58750057D01*
X77133333Y-58750057D02*
X77085714Y-58845295D01*
X77085714Y-58845295D02*
X77085714Y-58988152D01*
X77085714Y-58988152D02*
X77133333Y-59083390D01*
X77133333Y-59083390D02*
X77180952Y-59131009D01*
X77180952Y-59131009D02*
X77276190Y-59178628D01*
X77276190Y-59178628D02*
X77657142Y-59178628D01*
X76228571Y-58988152D02*
X76228571Y-59654819D01*
X76466666Y-58607200D02*
X76704761Y-59321485D01*
X76704761Y-59321485D02*
X76085714Y-59321485D01*
X26911904Y-66254819D02*
X26340476Y-66254819D01*
X26626190Y-67254819D02*
X26626190Y-66254819D01*
X26007142Y-67254819D02*
X26007142Y-66254819D01*
X26007142Y-66254819D02*
X25626190Y-66254819D01*
X25626190Y-66254819D02*
X25530952Y-66302438D01*
X25530952Y-66302438D02*
X25483333Y-66350057D01*
X25483333Y-66350057D02*
X25435714Y-66445295D01*
X25435714Y-66445295D02*
X25435714Y-66588152D01*
X25435714Y-66588152D02*
X25483333Y-66683390D01*
X25483333Y-66683390D02*
X25530952Y-66731009D01*
X25530952Y-66731009D02*
X25626190Y-66778628D01*
X25626190Y-66778628D02*
X26007142Y-66778628D01*
X25054761Y-66350057D02*
X25007142Y-66302438D01*
X25007142Y-66302438D02*
X24911904Y-66254819D01*
X24911904Y-66254819D02*
X24673809Y-66254819D01*
X24673809Y-66254819D02*
X24578571Y-66302438D01*
X24578571Y-66302438D02*
X24530952Y-66350057D01*
X24530952Y-66350057D02*
X24483333Y-66445295D01*
X24483333Y-66445295D02*
X24483333Y-66540533D01*
X24483333Y-66540533D02*
X24530952Y-66683390D01*
X24530952Y-66683390D02*
X25102380Y-67254819D01*
X25102380Y-67254819D02*
X24483333Y-67254819D01*
X72861904Y-10654819D02*
X72290476Y-10654819D01*
X72576190Y-11654819D02*
X72576190Y-10654819D01*
X71957142Y-11654819D02*
X71957142Y-10654819D01*
X71957142Y-10654819D02*
X71576190Y-10654819D01*
X71576190Y-10654819D02*
X71480952Y-10702438D01*
X71480952Y-10702438D02*
X71433333Y-10750057D01*
X71433333Y-10750057D02*
X71385714Y-10845295D01*
X71385714Y-10845295D02*
X71385714Y-10988152D01*
X71385714Y-10988152D02*
X71433333Y-11083390D01*
X71433333Y-11083390D02*
X71480952Y-11131009D01*
X71480952Y-11131009D02*
X71576190Y-11178628D01*
X71576190Y-11178628D02*
X71957142Y-11178628D01*
X70528571Y-10654819D02*
X70719047Y-10654819D01*
X70719047Y-10654819D02*
X70814285Y-10702438D01*
X70814285Y-10702438D02*
X70861904Y-10750057D01*
X70861904Y-10750057D02*
X70957142Y-10892914D01*
X70957142Y-10892914D02*
X71004761Y-11083390D01*
X71004761Y-11083390D02*
X71004761Y-11464342D01*
X71004761Y-11464342D02*
X70957142Y-11559580D01*
X70957142Y-11559580D02*
X70909523Y-11607200D01*
X70909523Y-11607200D02*
X70814285Y-11654819D01*
X70814285Y-11654819D02*
X70623809Y-11654819D01*
X70623809Y-11654819D02*
X70528571Y-11607200D01*
X70528571Y-11607200D02*
X70480952Y-11559580D01*
X70480952Y-11559580D02*
X70433333Y-11464342D01*
X70433333Y-11464342D02*
X70433333Y-11226247D01*
X70433333Y-11226247D02*
X70480952Y-11131009D01*
X70480952Y-11131009D02*
X70528571Y-11083390D01*
X70528571Y-11083390D02*
X70623809Y-11035771D01*
X70623809Y-11035771D02*
X70814285Y-11035771D01*
X70814285Y-11035771D02*
X70909523Y-11083390D01*
X70909523Y-11083390D02*
X70957142Y-11131009D01*
X70957142Y-11131009D02*
X71004761Y-11226247D01*
X49911904Y-15804819D02*
X49340476Y-15804819D01*
X49626190Y-16804819D02*
X49626190Y-15804819D01*
X49007142Y-16804819D02*
X49007142Y-15804819D01*
X49007142Y-15804819D02*
X48626190Y-15804819D01*
X48626190Y-15804819D02*
X48530952Y-15852438D01*
X48530952Y-15852438D02*
X48483333Y-15900057D01*
X48483333Y-15900057D02*
X48435714Y-15995295D01*
X48435714Y-15995295D02*
X48435714Y-16138152D01*
X48435714Y-16138152D02*
X48483333Y-16233390D01*
X48483333Y-16233390D02*
X48530952Y-16281009D01*
X48530952Y-16281009D02*
X48626190Y-16328628D01*
X48626190Y-16328628D02*
X49007142Y-16328628D01*
X48102380Y-15804819D02*
X47483333Y-15804819D01*
X47483333Y-15804819D02*
X47816666Y-16185771D01*
X47816666Y-16185771D02*
X47673809Y-16185771D01*
X47673809Y-16185771D02*
X47578571Y-16233390D01*
X47578571Y-16233390D02*
X47530952Y-16281009D01*
X47530952Y-16281009D02*
X47483333Y-16376247D01*
X47483333Y-16376247D02*
X47483333Y-16614342D01*
X47483333Y-16614342D02*
X47530952Y-16709580D01*
X47530952Y-16709580D02*
X47578571Y-16757200D01*
X47578571Y-16757200D02*
X47673809Y-16804819D01*
X47673809Y-16804819D02*
X47959523Y-16804819D01*
X47959523Y-16804819D02*
X48054761Y-16757200D01*
X48054761Y-16757200D02*
X48102380Y-16709580D01*
X9561904Y-47754819D02*
X8990476Y-47754819D01*
X9276190Y-48754819D02*
X9276190Y-47754819D01*
X8657142Y-48754819D02*
X8657142Y-47754819D01*
X8657142Y-47754819D02*
X8276190Y-47754819D01*
X8276190Y-47754819D02*
X8180952Y-47802438D01*
X8180952Y-47802438D02*
X8133333Y-47850057D01*
X8133333Y-47850057D02*
X8085714Y-47945295D01*
X8085714Y-47945295D02*
X8085714Y-48088152D01*
X8085714Y-48088152D02*
X8133333Y-48183390D01*
X8133333Y-48183390D02*
X8180952Y-48231009D01*
X8180952Y-48231009D02*
X8276190Y-48278628D01*
X8276190Y-48278628D02*
X8657142Y-48278628D01*
X7180952Y-47754819D02*
X7657142Y-47754819D01*
X7657142Y-47754819D02*
X7704761Y-48231009D01*
X7704761Y-48231009D02*
X7657142Y-48183390D01*
X7657142Y-48183390D02*
X7561904Y-48135771D01*
X7561904Y-48135771D02*
X7323809Y-48135771D01*
X7323809Y-48135771D02*
X7228571Y-48183390D01*
X7228571Y-48183390D02*
X7180952Y-48231009D01*
X7180952Y-48231009D02*
X7133333Y-48326247D01*
X7133333Y-48326247D02*
X7133333Y-48564342D01*
X7133333Y-48564342D02*
X7180952Y-48659580D01*
X7180952Y-48659580D02*
X7228571Y-48707200D01*
X7228571Y-48707200D02*
X7323809Y-48754819D01*
X7323809Y-48754819D02*
X7561904Y-48754819D01*
X7561904Y-48754819D02*
X7657142Y-48707200D01*
X7657142Y-48707200D02*
X7704761Y-48659580D01*
X26911904Y-63804819D02*
X26340476Y-63804819D01*
X26626190Y-64804819D02*
X26626190Y-63804819D01*
X26007142Y-64804819D02*
X26007142Y-63804819D01*
X26007142Y-63804819D02*
X25626190Y-63804819D01*
X25626190Y-63804819D02*
X25530952Y-63852438D01*
X25530952Y-63852438D02*
X25483333Y-63900057D01*
X25483333Y-63900057D02*
X25435714Y-63995295D01*
X25435714Y-63995295D02*
X25435714Y-64138152D01*
X25435714Y-64138152D02*
X25483333Y-64233390D01*
X25483333Y-64233390D02*
X25530952Y-64281009D01*
X25530952Y-64281009D02*
X25626190Y-64328628D01*
X25626190Y-64328628D02*
X26007142Y-64328628D01*
X25102380Y-63804819D02*
X24483333Y-63804819D01*
X24483333Y-63804819D02*
X24816666Y-64185771D01*
X24816666Y-64185771D02*
X24673809Y-64185771D01*
X24673809Y-64185771D02*
X24578571Y-64233390D01*
X24578571Y-64233390D02*
X24530952Y-64281009D01*
X24530952Y-64281009D02*
X24483333Y-64376247D01*
X24483333Y-64376247D02*
X24483333Y-64614342D01*
X24483333Y-64614342D02*
X24530952Y-64709580D01*
X24530952Y-64709580D02*
X24578571Y-64757200D01*
X24578571Y-64757200D02*
X24673809Y-64804819D01*
X24673809Y-64804819D02*
X24959523Y-64804819D01*
X24959523Y-64804819D02*
X25054761Y-64757200D01*
X25054761Y-64757200D02*
X25102380Y-64709580D01*
X49911904Y-18254819D02*
X49340476Y-18254819D01*
X49626190Y-19254819D02*
X49626190Y-18254819D01*
X49007142Y-19254819D02*
X49007142Y-18254819D01*
X49007142Y-18254819D02*
X48626190Y-18254819D01*
X48626190Y-18254819D02*
X48530952Y-18302438D01*
X48530952Y-18302438D02*
X48483333Y-18350057D01*
X48483333Y-18350057D02*
X48435714Y-18445295D01*
X48435714Y-18445295D02*
X48435714Y-18588152D01*
X48435714Y-18588152D02*
X48483333Y-18683390D01*
X48483333Y-18683390D02*
X48530952Y-18731009D01*
X48530952Y-18731009D02*
X48626190Y-18778628D01*
X48626190Y-18778628D02*
X49007142Y-18778628D01*
X48054761Y-18350057D02*
X48007142Y-18302438D01*
X48007142Y-18302438D02*
X47911904Y-18254819D01*
X47911904Y-18254819D02*
X47673809Y-18254819D01*
X47673809Y-18254819D02*
X47578571Y-18302438D01*
X47578571Y-18302438D02*
X47530952Y-18350057D01*
X47530952Y-18350057D02*
X47483333Y-18445295D01*
X47483333Y-18445295D02*
X47483333Y-18540533D01*
X47483333Y-18540533D02*
X47530952Y-18683390D01*
X47530952Y-18683390D02*
X48102380Y-19254819D01*
X48102380Y-19254819D02*
X47483333Y-19254819D01*
X55561904Y-42654819D02*
X54990476Y-42654819D01*
X55276190Y-43654819D02*
X55276190Y-42654819D01*
X54657142Y-43654819D02*
X54657142Y-42654819D01*
X54657142Y-42654819D02*
X54276190Y-42654819D01*
X54276190Y-42654819D02*
X54180952Y-42702438D01*
X54180952Y-42702438D02*
X54133333Y-42750057D01*
X54133333Y-42750057D02*
X54085714Y-42845295D01*
X54085714Y-42845295D02*
X54085714Y-42988152D01*
X54085714Y-42988152D02*
X54133333Y-43083390D01*
X54133333Y-43083390D02*
X54180952Y-43131009D01*
X54180952Y-43131009D02*
X54276190Y-43178628D01*
X54276190Y-43178628D02*
X54657142Y-43178628D01*
X53228571Y-42988152D02*
X53228571Y-43654819D01*
X53466666Y-42607200D02*
X53704761Y-43321485D01*
X53704761Y-43321485D02*
X53085714Y-43321485D01*
X95911904Y-29154819D02*
X95340476Y-29154819D01*
X95626190Y-30154819D02*
X95626190Y-29154819D01*
X95007142Y-30154819D02*
X95007142Y-29154819D01*
X95007142Y-29154819D02*
X94626190Y-29154819D01*
X94626190Y-29154819D02*
X94530952Y-29202438D01*
X94530952Y-29202438D02*
X94483333Y-29250057D01*
X94483333Y-29250057D02*
X94435714Y-29345295D01*
X94435714Y-29345295D02*
X94435714Y-29488152D01*
X94435714Y-29488152D02*
X94483333Y-29583390D01*
X94483333Y-29583390D02*
X94530952Y-29631009D01*
X94530952Y-29631009D02*
X94626190Y-29678628D01*
X94626190Y-29678628D02*
X95007142Y-29678628D01*
X93483333Y-30154819D02*
X94054761Y-30154819D01*
X93769047Y-30154819D02*
X93769047Y-29154819D01*
X93769047Y-29154819D02*
X93864285Y-29297676D01*
X93864285Y-29297676D02*
X93959523Y-29392914D01*
X93959523Y-29392914D02*
X94054761Y-29440533D01*
X49911904Y-63804819D02*
X49340476Y-63804819D01*
X49626190Y-64804819D02*
X49626190Y-63804819D01*
X49007142Y-64804819D02*
X49007142Y-63804819D01*
X49007142Y-63804819D02*
X48626190Y-63804819D01*
X48626190Y-63804819D02*
X48530952Y-63852438D01*
X48530952Y-63852438D02*
X48483333Y-63900057D01*
X48483333Y-63900057D02*
X48435714Y-63995295D01*
X48435714Y-63995295D02*
X48435714Y-64138152D01*
X48435714Y-64138152D02*
X48483333Y-64233390D01*
X48483333Y-64233390D02*
X48530952Y-64281009D01*
X48530952Y-64281009D02*
X48626190Y-64328628D01*
X48626190Y-64328628D02*
X49007142Y-64328628D01*
X48102380Y-63804819D02*
X47483333Y-63804819D01*
X47483333Y-63804819D02*
X47816666Y-64185771D01*
X47816666Y-64185771D02*
X47673809Y-64185771D01*
X47673809Y-64185771D02*
X47578571Y-64233390D01*
X47578571Y-64233390D02*
X47530952Y-64281009D01*
X47530952Y-64281009D02*
X47483333Y-64376247D01*
X47483333Y-64376247D02*
X47483333Y-64614342D01*
X47483333Y-64614342D02*
X47530952Y-64709580D01*
X47530952Y-64709580D02*
X47578571Y-64757200D01*
X47578571Y-64757200D02*
X47673809Y-64804819D01*
X47673809Y-64804819D02*
X47959523Y-64804819D01*
X47959523Y-64804819D02*
X48054761Y-64757200D01*
X48054761Y-64757200D02*
X48102380Y-64709580D01*
X32561904Y-47754819D02*
X31990476Y-47754819D01*
X32276190Y-48754819D02*
X32276190Y-47754819D01*
X31657142Y-48754819D02*
X31657142Y-47754819D01*
X31657142Y-47754819D02*
X31276190Y-47754819D01*
X31276190Y-47754819D02*
X31180952Y-47802438D01*
X31180952Y-47802438D02*
X31133333Y-47850057D01*
X31133333Y-47850057D02*
X31085714Y-47945295D01*
X31085714Y-47945295D02*
X31085714Y-48088152D01*
X31085714Y-48088152D02*
X31133333Y-48183390D01*
X31133333Y-48183390D02*
X31180952Y-48231009D01*
X31180952Y-48231009D02*
X31276190Y-48278628D01*
X31276190Y-48278628D02*
X31657142Y-48278628D01*
X30180952Y-47754819D02*
X30657142Y-47754819D01*
X30657142Y-47754819D02*
X30704761Y-48231009D01*
X30704761Y-48231009D02*
X30657142Y-48183390D01*
X30657142Y-48183390D02*
X30561904Y-48135771D01*
X30561904Y-48135771D02*
X30323809Y-48135771D01*
X30323809Y-48135771D02*
X30228571Y-48183390D01*
X30228571Y-48183390D02*
X30180952Y-48231009D01*
X30180952Y-48231009D02*
X30133333Y-48326247D01*
X30133333Y-48326247D02*
X30133333Y-48564342D01*
X30133333Y-48564342D02*
X30180952Y-48659580D01*
X30180952Y-48659580D02*
X30228571Y-48707200D01*
X30228571Y-48707200D02*
X30323809Y-48754819D01*
X30323809Y-48754819D02*
X30561904Y-48754819D01*
X30561904Y-48754819D02*
X30657142Y-48707200D01*
X30657142Y-48707200D02*
X30704761Y-48659580D01*
X78561904Y-66254819D02*
X77990476Y-66254819D01*
X78276190Y-67254819D02*
X78276190Y-66254819D01*
X77657142Y-67254819D02*
X77657142Y-66254819D01*
X77657142Y-66254819D02*
X77276190Y-66254819D01*
X77276190Y-66254819D02*
X77180952Y-66302438D01*
X77180952Y-66302438D02*
X77133333Y-66350057D01*
X77133333Y-66350057D02*
X77085714Y-66445295D01*
X77085714Y-66445295D02*
X77085714Y-66588152D01*
X77085714Y-66588152D02*
X77133333Y-66683390D01*
X77133333Y-66683390D02*
X77180952Y-66731009D01*
X77180952Y-66731009D02*
X77276190Y-66778628D01*
X77276190Y-66778628D02*
X77657142Y-66778628D01*
X76514285Y-66683390D02*
X76609523Y-66635771D01*
X76609523Y-66635771D02*
X76657142Y-66588152D01*
X76657142Y-66588152D02*
X76704761Y-66492914D01*
X76704761Y-66492914D02*
X76704761Y-66445295D01*
X76704761Y-66445295D02*
X76657142Y-66350057D01*
X76657142Y-66350057D02*
X76609523Y-66302438D01*
X76609523Y-66302438D02*
X76514285Y-66254819D01*
X76514285Y-66254819D02*
X76323809Y-66254819D01*
X76323809Y-66254819D02*
X76228571Y-66302438D01*
X76228571Y-66302438D02*
X76180952Y-66350057D01*
X76180952Y-66350057D02*
X76133333Y-66445295D01*
X76133333Y-66445295D02*
X76133333Y-66492914D01*
X76133333Y-66492914D02*
X76180952Y-66588152D01*
X76180952Y-66588152D02*
X76228571Y-66635771D01*
X76228571Y-66635771D02*
X76323809Y-66683390D01*
X76323809Y-66683390D02*
X76514285Y-66683390D01*
X76514285Y-66683390D02*
X76609523Y-66731009D01*
X76609523Y-66731009D02*
X76657142Y-66778628D01*
X76657142Y-66778628D02*
X76704761Y-66873866D01*
X76704761Y-66873866D02*
X76704761Y-67064342D01*
X76704761Y-67064342D02*
X76657142Y-67159580D01*
X76657142Y-67159580D02*
X76609523Y-67207200D01*
X76609523Y-67207200D02*
X76514285Y-67254819D01*
X76514285Y-67254819D02*
X76323809Y-67254819D01*
X76323809Y-67254819D02*
X76228571Y-67207200D01*
X76228571Y-67207200D02*
X76180952Y-67159580D01*
X76180952Y-67159580D02*
X76133333Y-67064342D01*
X76133333Y-67064342D02*
X76133333Y-66873866D01*
X76133333Y-66873866D02*
X76180952Y-66778628D01*
X76180952Y-66778628D02*
X76228571Y-66731009D01*
X76228571Y-66731009D02*
X76323809Y-66683390D01*
X32561904Y-18254819D02*
X31990476Y-18254819D01*
X32276190Y-19254819D02*
X32276190Y-18254819D01*
X31657142Y-19254819D02*
X31657142Y-18254819D01*
X31657142Y-18254819D02*
X31276190Y-18254819D01*
X31276190Y-18254819D02*
X31180952Y-18302438D01*
X31180952Y-18302438D02*
X31133333Y-18350057D01*
X31133333Y-18350057D02*
X31085714Y-18445295D01*
X31085714Y-18445295D02*
X31085714Y-18588152D01*
X31085714Y-18588152D02*
X31133333Y-18683390D01*
X31133333Y-18683390D02*
X31180952Y-18731009D01*
X31180952Y-18731009D02*
X31276190Y-18778628D01*
X31276190Y-18778628D02*
X31657142Y-18778628D01*
X30514285Y-18683390D02*
X30609523Y-18635771D01*
X30609523Y-18635771D02*
X30657142Y-18588152D01*
X30657142Y-18588152D02*
X30704761Y-18492914D01*
X30704761Y-18492914D02*
X30704761Y-18445295D01*
X30704761Y-18445295D02*
X30657142Y-18350057D01*
X30657142Y-18350057D02*
X30609523Y-18302438D01*
X30609523Y-18302438D02*
X30514285Y-18254819D01*
X30514285Y-18254819D02*
X30323809Y-18254819D01*
X30323809Y-18254819D02*
X30228571Y-18302438D01*
X30228571Y-18302438D02*
X30180952Y-18350057D01*
X30180952Y-18350057D02*
X30133333Y-18445295D01*
X30133333Y-18445295D02*
X30133333Y-18492914D01*
X30133333Y-18492914D02*
X30180952Y-18588152D01*
X30180952Y-18588152D02*
X30228571Y-18635771D01*
X30228571Y-18635771D02*
X30323809Y-18683390D01*
X30323809Y-18683390D02*
X30514285Y-18683390D01*
X30514285Y-18683390D02*
X30609523Y-18731009D01*
X30609523Y-18731009D02*
X30657142Y-18778628D01*
X30657142Y-18778628D02*
X30704761Y-18873866D01*
X30704761Y-18873866D02*
X30704761Y-19064342D01*
X30704761Y-19064342D02*
X30657142Y-19159580D01*
X30657142Y-19159580D02*
X30609523Y-19207200D01*
X30609523Y-19207200D02*
X30514285Y-19254819D01*
X30514285Y-19254819D02*
X30323809Y-19254819D01*
X30323809Y-19254819D02*
X30228571Y-19207200D01*
X30228571Y-19207200D02*
X30180952Y-19159580D01*
X30180952Y-19159580D02*
X30133333Y-19064342D01*
X30133333Y-19064342D02*
X30133333Y-18873866D01*
X30133333Y-18873866D02*
X30180952Y-18778628D01*
X30180952Y-18778628D02*
X30228571Y-18731009D01*
X30228571Y-18731009D02*
X30323809Y-18683390D01*
X55561904Y-29054819D02*
X54990476Y-29054819D01*
X55276190Y-30054819D02*
X55276190Y-29054819D01*
X54657142Y-30054819D02*
X54657142Y-29054819D01*
X54657142Y-29054819D02*
X54276190Y-29054819D01*
X54276190Y-29054819D02*
X54180952Y-29102438D01*
X54180952Y-29102438D02*
X54133333Y-29150057D01*
X54133333Y-29150057D02*
X54085714Y-29245295D01*
X54085714Y-29245295D02*
X54085714Y-29388152D01*
X54085714Y-29388152D02*
X54133333Y-29483390D01*
X54133333Y-29483390D02*
X54180952Y-29531009D01*
X54180952Y-29531009D02*
X54276190Y-29578628D01*
X54276190Y-29578628D02*
X54657142Y-29578628D01*
X53752380Y-29054819D02*
X53085714Y-29054819D01*
X53085714Y-29054819D02*
X53514285Y-30054819D01*
X26911904Y-61154819D02*
X26340476Y-61154819D01*
X26626190Y-62154819D02*
X26626190Y-61154819D01*
X26007142Y-62154819D02*
X26007142Y-61154819D01*
X26007142Y-61154819D02*
X25626190Y-61154819D01*
X25626190Y-61154819D02*
X25530952Y-61202438D01*
X25530952Y-61202438D02*
X25483333Y-61250057D01*
X25483333Y-61250057D02*
X25435714Y-61345295D01*
X25435714Y-61345295D02*
X25435714Y-61488152D01*
X25435714Y-61488152D02*
X25483333Y-61583390D01*
X25483333Y-61583390D02*
X25530952Y-61631009D01*
X25530952Y-61631009D02*
X25626190Y-61678628D01*
X25626190Y-61678628D02*
X26007142Y-61678628D01*
X24483333Y-62154819D02*
X25054761Y-62154819D01*
X24769047Y-62154819D02*
X24769047Y-61154819D01*
X24769047Y-61154819D02*
X24864285Y-61297676D01*
X24864285Y-61297676D02*
X24959523Y-61392914D01*
X24959523Y-61392914D02*
X25054761Y-61440533D01*
X72911904Y-50254819D02*
X72340476Y-50254819D01*
X72626190Y-51254819D02*
X72626190Y-50254819D01*
X72007142Y-51254819D02*
X72007142Y-50254819D01*
X72007142Y-50254819D02*
X71626190Y-50254819D01*
X71626190Y-50254819D02*
X71530952Y-50302438D01*
X71530952Y-50302438D02*
X71483333Y-50350057D01*
X71483333Y-50350057D02*
X71435714Y-50445295D01*
X71435714Y-50445295D02*
X71435714Y-50588152D01*
X71435714Y-50588152D02*
X71483333Y-50683390D01*
X71483333Y-50683390D02*
X71530952Y-50731009D01*
X71530952Y-50731009D02*
X71626190Y-50778628D01*
X71626190Y-50778628D02*
X72007142Y-50778628D01*
X71054761Y-50350057D02*
X71007142Y-50302438D01*
X71007142Y-50302438D02*
X70911904Y-50254819D01*
X70911904Y-50254819D02*
X70673809Y-50254819D01*
X70673809Y-50254819D02*
X70578571Y-50302438D01*
X70578571Y-50302438D02*
X70530952Y-50350057D01*
X70530952Y-50350057D02*
X70483333Y-50445295D01*
X70483333Y-50445295D02*
X70483333Y-50540533D01*
X70483333Y-50540533D02*
X70530952Y-50683390D01*
X70530952Y-50683390D02*
X71102380Y-51254819D01*
X71102380Y-51254819D02*
X70483333Y-51254819D01*
X78561904Y-13054819D02*
X77990476Y-13054819D01*
X78276190Y-14054819D02*
X78276190Y-13054819D01*
X77657142Y-14054819D02*
X77657142Y-13054819D01*
X77657142Y-13054819D02*
X77276190Y-13054819D01*
X77276190Y-13054819D02*
X77180952Y-13102438D01*
X77180952Y-13102438D02*
X77133333Y-13150057D01*
X77133333Y-13150057D02*
X77085714Y-13245295D01*
X77085714Y-13245295D02*
X77085714Y-13388152D01*
X77085714Y-13388152D02*
X77133333Y-13483390D01*
X77133333Y-13483390D02*
X77180952Y-13531009D01*
X77180952Y-13531009D02*
X77276190Y-13578628D01*
X77276190Y-13578628D02*
X77657142Y-13578628D01*
X76752380Y-13054819D02*
X76085714Y-13054819D01*
X76085714Y-13054819D02*
X76514285Y-14054819D01*
X55561904Y-63754819D02*
X54990476Y-63754819D01*
X55276190Y-64754819D02*
X55276190Y-63754819D01*
X54657142Y-64754819D02*
X54657142Y-63754819D01*
X54657142Y-63754819D02*
X54276190Y-63754819D01*
X54276190Y-63754819D02*
X54180952Y-63802438D01*
X54180952Y-63802438D02*
X54133333Y-63850057D01*
X54133333Y-63850057D02*
X54085714Y-63945295D01*
X54085714Y-63945295D02*
X54085714Y-64088152D01*
X54085714Y-64088152D02*
X54133333Y-64183390D01*
X54133333Y-64183390D02*
X54180952Y-64231009D01*
X54180952Y-64231009D02*
X54276190Y-64278628D01*
X54276190Y-64278628D02*
X54657142Y-64278628D01*
X53180952Y-63754819D02*
X53657142Y-63754819D01*
X53657142Y-63754819D02*
X53704761Y-64231009D01*
X53704761Y-64231009D02*
X53657142Y-64183390D01*
X53657142Y-64183390D02*
X53561904Y-64135771D01*
X53561904Y-64135771D02*
X53323809Y-64135771D01*
X53323809Y-64135771D02*
X53228571Y-64183390D01*
X53228571Y-64183390D02*
X53180952Y-64231009D01*
X53180952Y-64231009D02*
X53133333Y-64326247D01*
X53133333Y-64326247D02*
X53133333Y-64564342D01*
X53133333Y-64564342D02*
X53180952Y-64659580D01*
X53180952Y-64659580D02*
X53228571Y-64707200D01*
X53228571Y-64707200D02*
X53323809Y-64754819D01*
X53323809Y-64754819D02*
X53561904Y-64754819D01*
X53561904Y-64754819D02*
X53657142Y-64707200D01*
X53657142Y-64707200D02*
X53704761Y-64659580D01*
X26911904Y-13154819D02*
X26340476Y-13154819D01*
X26626190Y-14154819D02*
X26626190Y-13154819D01*
X26007142Y-14154819D02*
X26007142Y-13154819D01*
X26007142Y-13154819D02*
X25626190Y-13154819D01*
X25626190Y-13154819D02*
X25530952Y-13202438D01*
X25530952Y-13202438D02*
X25483333Y-13250057D01*
X25483333Y-13250057D02*
X25435714Y-13345295D01*
X25435714Y-13345295D02*
X25435714Y-13488152D01*
X25435714Y-13488152D02*
X25483333Y-13583390D01*
X25483333Y-13583390D02*
X25530952Y-13631009D01*
X25530952Y-13631009D02*
X25626190Y-13678628D01*
X25626190Y-13678628D02*
X26007142Y-13678628D01*
X24483333Y-14154819D02*
X25054761Y-14154819D01*
X24769047Y-14154819D02*
X24769047Y-13154819D01*
X24769047Y-13154819D02*
X24864285Y-13297676D01*
X24864285Y-13297676D02*
X24959523Y-13392914D01*
X24959523Y-13392914D02*
X25054761Y-13440533D01*
X78561904Y-15754819D02*
X77990476Y-15754819D01*
X78276190Y-16754819D02*
X78276190Y-15754819D01*
X77657142Y-16754819D02*
X77657142Y-15754819D01*
X77657142Y-15754819D02*
X77276190Y-15754819D01*
X77276190Y-15754819D02*
X77180952Y-15802438D01*
X77180952Y-15802438D02*
X77133333Y-15850057D01*
X77133333Y-15850057D02*
X77085714Y-15945295D01*
X77085714Y-15945295D02*
X77085714Y-16088152D01*
X77085714Y-16088152D02*
X77133333Y-16183390D01*
X77133333Y-16183390D02*
X77180952Y-16231009D01*
X77180952Y-16231009D02*
X77276190Y-16278628D01*
X77276190Y-16278628D02*
X77657142Y-16278628D01*
X76180952Y-15754819D02*
X76657142Y-15754819D01*
X76657142Y-15754819D02*
X76704761Y-16231009D01*
X76704761Y-16231009D02*
X76657142Y-16183390D01*
X76657142Y-16183390D02*
X76561904Y-16135771D01*
X76561904Y-16135771D02*
X76323809Y-16135771D01*
X76323809Y-16135771D02*
X76228571Y-16183390D01*
X76228571Y-16183390D02*
X76180952Y-16231009D01*
X76180952Y-16231009D02*
X76133333Y-16326247D01*
X76133333Y-16326247D02*
X76133333Y-16564342D01*
X76133333Y-16564342D02*
X76180952Y-16659580D01*
X76180952Y-16659580D02*
X76228571Y-16707200D01*
X76228571Y-16707200D02*
X76323809Y-16754819D01*
X76323809Y-16754819D02*
X76561904Y-16754819D01*
X76561904Y-16754819D02*
X76657142Y-16707200D01*
X76657142Y-16707200D02*
X76704761Y-16659580D01*
X78561904Y-26654819D02*
X77990476Y-26654819D01*
X78276190Y-27654819D02*
X78276190Y-26654819D01*
X77657142Y-27654819D02*
X77657142Y-26654819D01*
X77657142Y-26654819D02*
X77276190Y-26654819D01*
X77276190Y-26654819D02*
X77180952Y-26702438D01*
X77180952Y-26702438D02*
X77133333Y-26750057D01*
X77133333Y-26750057D02*
X77085714Y-26845295D01*
X77085714Y-26845295D02*
X77085714Y-26988152D01*
X77085714Y-26988152D02*
X77133333Y-27083390D01*
X77133333Y-27083390D02*
X77180952Y-27131009D01*
X77180952Y-27131009D02*
X77276190Y-27178628D01*
X77276190Y-27178628D02*
X77657142Y-27178628D01*
X76228571Y-26988152D02*
X76228571Y-27654819D01*
X76466666Y-26607200D02*
X76704761Y-27321485D01*
X76704761Y-27321485D02*
X76085714Y-27321485D01*
X26911904Y-15804819D02*
X26340476Y-15804819D01*
X26626190Y-16804819D02*
X26626190Y-15804819D01*
X26007142Y-16804819D02*
X26007142Y-15804819D01*
X26007142Y-15804819D02*
X25626190Y-15804819D01*
X25626190Y-15804819D02*
X25530952Y-15852438D01*
X25530952Y-15852438D02*
X25483333Y-15900057D01*
X25483333Y-15900057D02*
X25435714Y-15995295D01*
X25435714Y-15995295D02*
X25435714Y-16138152D01*
X25435714Y-16138152D02*
X25483333Y-16233390D01*
X25483333Y-16233390D02*
X25530952Y-16281009D01*
X25530952Y-16281009D02*
X25626190Y-16328628D01*
X25626190Y-16328628D02*
X26007142Y-16328628D01*
X25102380Y-15804819D02*
X24483333Y-15804819D01*
X24483333Y-15804819D02*
X24816666Y-16185771D01*
X24816666Y-16185771D02*
X24673809Y-16185771D01*
X24673809Y-16185771D02*
X24578571Y-16233390D01*
X24578571Y-16233390D02*
X24530952Y-16281009D01*
X24530952Y-16281009D02*
X24483333Y-16376247D01*
X24483333Y-16376247D02*
X24483333Y-16614342D01*
X24483333Y-16614342D02*
X24530952Y-16709580D01*
X24530952Y-16709580D02*
X24578571Y-16757200D01*
X24578571Y-16757200D02*
X24673809Y-16804819D01*
X24673809Y-16804819D02*
X24959523Y-16804819D01*
X24959523Y-16804819D02*
X25054761Y-16757200D01*
X25054761Y-16757200D02*
X25102380Y-16709580D01*
X26911904Y-18254819D02*
X26340476Y-18254819D01*
X26626190Y-19254819D02*
X26626190Y-18254819D01*
X26007142Y-19254819D02*
X26007142Y-18254819D01*
X26007142Y-18254819D02*
X25626190Y-18254819D01*
X25626190Y-18254819D02*
X25530952Y-18302438D01*
X25530952Y-18302438D02*
X25483333Y-18350057D01*
X25483333Y-18350057D02*
X25435714Y-18445295D01*
X25435714Y-18445295D02*
X25435714Y-18588152D01*
X25435714Y-18588152D02*
X25483333Y-18683390D01*
X25483333Y-18683390D02*
X25530952Y-18731009D01*
X25530952Y-18731009D02*
X25626190Y-18778628D01*
X25626190Y-18778628D02*
X26007142Y-18778628D01*
X25054761Y-18350057D02*
X25007142Y-18302438D01*
X25007142Y-18302438D02*
X24911904Y-18254819D01*
X24911904Y-18254819D02*
X24673809Y-18254819D01*
X24673809Y-18254819D02*
X24578571Y-18302438D01*
X24578571Y-18302438D02*
X24530952Y-18350057D01*
X24530952Y-18350057D02*
X24483333Y-18445295D01*
X24483333Y-18445295D02*
X24483333Y-18540533D01*
X24483333Y-18540533D02*
X24530952Y-18683390D01*
X24530952Y-18683390D02*
X25102380Y-19254819D01*
X25102380Y-19254819D02*
X24483333Y-19254819D01*
X95911904Y-15804819D02*
X95340476Y-15804819D01*
X95626190Y-16804819D02*
X95626190Y-15804819D01*
X95007142Y-16804819D02*
X95007142Y-15804819D01*
X95007142Y-15804819D02*
X94626190Y-15804819D01*
X94626190Y-15804819D02*
X94530952Y-15852438D01*
X94530952Y-15852438D02*
X94483333Y-15900057D01*
X94483333Y-15900057D02*
X94435714Y-15995295D01*
X94435714Y-15995295D02*
X94435714Y-16138152D01*
X94435714Y-16138152D02*
X94483333Y-16233390D01*
X94483333Y-16233390D02*
X94530952Y-16281009D01*
X94530952Y-16281009D02*
X94626190Y-16328628D01*
X94626190Y-16328628D02*
X95007142Y-16328628D01*
X94102380Y-15804819D02*
X93483333Y-15804819D01*
X93483333Y-15804819D02*
X93816666Y-16185771D01*
X93816666Y-16185771D02*
X93673809Y-16185771D01*
X93673809Y-16185771D02*
X93578571Y-16233390D01*
X93578571Y-16233390D02*
X93530952Y-16281009D01*
X93530952Y-16281009D02*
X93483333Y-16376247D01*
X93483333Y-16376247D02*
X93483333Y-16614342D01*
X93483333Y-16614342D02*
X93530952Y-16709580D01*
X93530952Y-16709580D02*
X93578571Y-16757200D01*
X93578571Y-16757200D02*
X93673809Y-16804819D01*
X93673809Y-16804819D02*
X93959523Y-16804819D01*
X93959523Y-16804819D02*
X94054761Y-16757200D01*
X94054761Y-16757200D02*
X94102380Y-16709580D01*
X32561904Y-31754819D02*
X31990476Y-31754819D01*
X32276190Y-32754819D02*
X32276190Y-31754819D01*
X31657142Y-32754819D02*
X31657142Y-31754819D01*
X31657142Y-31754819D02*
X31276190Y-31754819D01*
X31276190Y-31754819D02*
X31180952Y-31802438D01*
X31180952Y-31802438D02*
X31133333Y-31850057D01*
X31133333Y-31850057D02*
X31085714Y-31945295D01*
X31085714Y-31945295D02*
X31085714Y-32088152D01*
X31085714Y-32088152D02*
X31133333Y-32183390D01*
X31133333Y-32183390D02*
X31180952Y-32231009D01*
X31180952Y-32231009D02*
X31276190Y-32278628D01*
X31276190Y-32278628D02*
X31657142Y-32278628D01*
X30180952Y-31754819D02*
X30657142Y-31754819D01*
X30657142Y-31754819D02*
X30704761Y-32231009D01*
X30704761Y-32231009D02*
X30657142Y-32183390D01*
X30657142Y-32183390D02*
X30561904Y-32135771D01*
X30561904Y-32135771D02*
X30323809Y-32135771D01*
X30323809Y-32135771D02*
X30228571Y-32183390D01*
X30228571Y-32183390D02*
X30180952Y-32231009D01*
X30180952Y-32231009D02*
X30133333Y-32326247D01*
X30133333Y-32326247D02*
X30133333Y-32564342D01*
X30133333Y-32564342D02*
X30180952Y-32659580D01*
X30180952Y-32659580D02*
X30228571Y-32707200D01*
X30228571Y-32707200D02*
X30323809Y-32754819D01*
X30323809Y-32754819D02*
X30561904Y-32754819D01*
X30561904Y-32754819D02*
X30657142Y-32707200D01*
X30657142Y-32707200D02*
X30704761Y-32659580D01*
X9561904Y-63754819D02*
X8990476Y-63754819D01*
X9276190Y-64754819D02*
X9276190Y-63754819D01*
X8657142Y-64754819D02*
X8657142Y-63754819D01*
X8657142Y-63754819D02*
X8276190Y-63754819D01*
X8276190Y-63754819D02*
X8180952Y-63802438D01*
X8180952Y-63802438D02*
X8133333Y-63850057D01*
X8133333Y-63850057D02*
X8085714Y-63945295D01*
X8085714Y-63945295D02*
X8085714Y-64088152D01*
X8085714Y-64088152D02*
X8133333Y-64183390D01*
X8133333Y-64183390D02*
X8180952Y-64231009D01*
X8180952Y-64231009D02*
X8276190Y-64278628D01*
X8276190Y-64278628D02*
X8657142Y-64278628D01*
X7180952Y-63754819D02*
X7657142Y-63754819D01*
X7657142Y-63754819D02*
X7704761Y-64231009D01*
X7704761Y-64231009D02*
X7657142Y-64183390D01*
X7657142Y-64183390D02*
X7561904Y-64135771D01*
X7561904Y-64135771D02*
X7323809Y-64135771D01*
X7323809Y-64135771D02*
X7228571Y-64183390D01*
X7228571Y-64183390D02*
X7180952Y-64231009D01*
X7180952Y-64231009D02*
X7133333Y-64326247D01*
X7133333Y-64326247D02*
X7133333Y-64564342D01*
X7133333Y-64564342D02*
X7180952Y-64659580D01*
X7180952Y-64659580D02*
X7228571Y-64707200D01*
X7228571Y-64707200D02*
X7323809Y-64754819D01*
X7323809Y-64754819D02*
X7561904Y-64754819D01*
X7561904Y-64754819D02*
X7657142Y-64707200D01*
X7657142Y-64707200D02*
X7704761Y-64659580D01*
X72911904Y-13154819D02*
X72340476Y-13154819D01*
X72626190Y-14154819D02*
X72626190Y-13154819D01*
X72007142Y-14154819D02*
X72007142Y-13154819D01*
X72007142Y-13154819D02*
X71626190Y-13154819D01*
X71626190Y-13154819D02*
X71530952Y-13202438D01*
X71530952Y-13202438D02*
X71483333Y-13250057D01*
X71483333Y-13250057D02*
X71435714Y-13345295D01*
X71435714Y-13345295D02*
X71435714Y-13488152D01*
X71435714Y-13488152D02*
X71483333Y-13583390D01*
X71483333Y-13583390D02*
X71530952Y-13631009D01*
X71530952Y-13631009D02*
X71626190Y-13678628D01*
X71626190Y-13678628D02*
X72007142Y-13678628D01*
X70483333Y-14154819D02*
X71054761Y-14154819D01*
X70769047Y-14154819D02*
X70769047Y-13154819D01*
X70769047Y-13154819D02*
X70864285Y-13297676D01*
X70864285Y-13297676D02*
X70959523Y-13392914D01*
X70959523Y-13392914D02*
X71054761Y-13440533D01*
X32561904Y-13054819D02*
X31990476Y-13054819D01*
X32276190Y-14054819D02*
X32276190Y-13054819D01*
X31657142Y-14054819D02*
X31657142Y-13054819D01*
X31657142Y-13054819D02*
X31276190Y-13054819D01*
X31276190Y-13054819D02*
X31180952Y-13102438D01*
X31180952Y-13102438D02*
X31133333Y-13150057D01*
X31133333Y-13150057D02*
X31085714Y-13245295D01*
X31085714Y-13245295D02*
X31085714Y-13388152D01*
X31085714Y-13388152D02*
X31133333Y-13483390D01*
X31133333Y-13483390D02*
X31180952Y-13531009D01*
X31180952Y-13531009D02*
X31276190Y-13578628D01*
X31276190Y-13578628D02*
X31657142Y-13578628D01*
X30752380Y-13054819D02*
X30085714Y-13054819D01*
X30085714Y-13054819D02*
X30514285Y-14054819D01*
X72861904Y-58654819D02*
X72290476Y-58654819D01*
X72576190Y-59654819D02*
X72576190Y-58654819D01*
X71957142Y-59654819D02*
X71957142Y-58654819D01*
X71957142Y-58654819D02*
X71576190Y-58654819D01*
X71576190Y-58654819D02*
X71480952Y-58702438D01*
X71480952Y-58702438D02*
X71433333Y-58750057D01*
X71433333Y-58750057D02*
X71385714Y-58845295D01*
X71385714Y-58845295D02*
X71385714Y-58988152D01*
X71385714Y-58988152D02*
X71433333Y-59083390D01*
X71433333Y-59083390D02*
X71480952Y-59131009D01*
X71480952Y-59131009D02*
X71576190Y-59178628D01*
X71576190Y-59178628D02*
X71957142Y-59178628D01*
X70528571Y-58654819D02*
X70719047Y-58654819D01*
X70719047Y-58654819D02*
X70814285Y-58702438D01*
X70814285Y-58702438D02*
X70861904Y-58750057D01*
X70861904Y-58750057D02*
X70957142Y-58892914D01*
X70957142Y-58892914D02*
X71004761Y-59083390D01*
X71004761Y-59083390D02*
X71004761Y-59464342D01*
X71004761Y-59464342D02*
X70957142Y-59559580D01*
X70957142Y-59559580D02*
X70909523Y-59607200D01*
X70909523Y-59607200D02*
X70814285Y-59654819D01*
X70814285Y-59654819D02*
X70623809Y-59654819D01*
X70623809Y-59654819D02*
X70528571Y-59607200D01*
X70528571Y-59607200D02*
X70480952Y-59559580D01*
X70480952Y-59559580D02*
X70433333Y-59464342D01*
X70433333Y-59464342D02*
X70433333Y-59226247D01*
X70433333Y-59226247D02*
X70480952Y-59131009D01*
X70480952Y-59131009D02*
X70528571Y-59083390D01*
X70528571Y-59083390D02*
X70623809Y-59035771D01*
X70623809Y-59035771D02*
X70814285Y-59035771D01*
X70814285Y-59035771D02*
X70909523Y-59083390D01*
X70909523Y-59083390D02*
X70957142Y-59131009D01*
X70957142Y-59131009D02*
X71004761Y-59226247D01*
X78561904Y-61054819D02*
X77990476Y-61054819D01*
X78276190Y-62054819D02*
X78276190Y-61054819D01*
X77657142Y-62054819D02*
X77657142Y-61054819D01*
X77657142Y-61054819D02*
X77276190Y-61054819D01*
X77276190Y-61054819D02*
X77180952Y-61102438D01*
X77180952Y-61102438D02*
X77133333Y-61150057D01*
X77133333Y-61150057D02*
X77085714Y-61245295D01*
X77085714Y-61245295D02*
X77085714Y-61388152D01*
X77085714Y-61388152D02*
X77133333Y-61483390D01*
X77133333Y-61483390D02*
X77180952Y-61531009D01*
X77180952Y-61531009D02*
X77276190Y-61578628D01*
X77276190Y-61578628D02*
X77657142Y-61578628D01*
X76752380Y-61054819D02*
X76085714Y-61054819D01*
X76085714Y-61054819D02*
X76514285Y-62054819D01*
X95911904Y-63804819D02*
X95340476Y-63804819D01*
X95626190Y-64804819D02*
X95626190Y-63804819D01*
X95007142Y-64804819D02*
X95007142Y-63804819D01*
X95007142Y-63804819D02*
X94626190Y-63804819D01*
X94626190Y-63804819D02*
X94530952Y-63852438D01*
X94530952Y-63852438D02*
X94483333Y-63900057D01*
X94483333Y-63900057D02*
X94435714Y-63995295D01*
X94435714Y-63995295D02*
X94435714Y-64138152D01*
X94435714Y-64138152D02*
X94483333Y-64233390D01*
X94483333Y-64233390D02*
X94530952Y-64281009D01*
X94530952Y-64281009D02*
X94626190Y-64328628D01*
X94626190Y-64328628D02*
X95007142Y-64328628D01*
X94102380Y-63804819D02*
X93483333Y-63804819D01*
X93483333Y-63804819D02*
X93816666Y-64185771D01*
X93816666Y-64185771D02*
X93673809Y-64185771D01*
X93673809Y-64185771D02*
X93578571Y-64233390D01*
X93578571Y-64233390D02*
X93530952Y-64281009D01*
X93530952Y-64281009D02*
X93483333Y-64376247D01*
X93483333Y-64376247D02*
X93483333Y-64614342D01*
X93483333Y-64614342D02*
X93530952Y-64709580D01*
X93530952Y-64709580D02*
X93578571Y-64757200D01*
X93578571Y-64757200D02*
X93673809Y-64804819D01*
X93673809Y-64804819D02*
X93959523Y-64804819D01*
X93959523Y-64804819D02*
X94054761Y-64757200D01*
X94054761Y-64757200D02*
X94102380Y-64709580D01*
X72911904Y-63804819D02*
X72340476Y-63804819D01*
X72626190Y-64804819D02*
X72626190Y-63804819D01*
X72007142Y-64804819D02*
X72007142Y-63804819D01*
X72007142Y-63804819D02*
X71626190Y-63804819D01*
X71626190Y-63804819D02*
X71530952Y-63852438D01*
X71530952Y-63852438D02*
X71483333Y-63900057D01*
X71483333Y-63900057D02*
X71435714Y-63995295D01*
X71435714Y-63995295D02*
X71435714Y-64138152D01*
X71435714Y-64138152D02*
X71483333Y-64233390D01*
X71483333Y-64233390D02*
X71530952Y-64281009D01*
X71530952Y-64281009D02*
X71626190Y-64328628D01*
X71626190Y-64328628D02*
X72007142Y-64328628D01*
X71102380Y-63804819D02*
X70483333Y-63804819D01*
X70483333Y-63804819D02*
X70816666Y-64185771D01*
X70816666Y-64185771D02*
X70673809Y-64185771D01*
X70673809Y-64185771D02*
X70578571Y-64233390D01*
X70578571Y-64233390D02*
X70530952Y-64281009D01*
X70530952Y-64281009D02*
X70483333Y-64376247D01*
X70483333Y-64376247D02*
X70483333Y-64614342D01*
X70483333Y-64614342D02*
X70530952Y-64709580D01*
X70530952Y-64709580D02*
X70578571Y-64757200D01*
X70578571Y-64757200D02*
X70673809Y-64804819D01*
X70673809Y-64804819D02*
X70959523Y-64804819D01*
X70959523Y-64804819D02*
X71054761Y-64757200D01*
X71054761Y-64757200D02*
X71102380Y-64709580D01*
X49911904Y-13154819D02*
X49340476Y-13154819D01*
X49626190Y-14154819D02*
X49626190Y-13154819D01*
X49007142Y-14154819D02*
X49007142Y-13154819D01*
X49007142Y-13154819D02*
X48626190Y-13154819D01*
X48626190Y-13154819D02*
X48530952Y-13202438D01*
X48530952Y-13202438D02*
X48483333Y-13250057D01*
X48483333Y-13250057D02*
X48435714Y-13345295D01*
X48435714Y-13345295D02*
X48435714Y-13488152D01*
X48435714Y-13488152D02*
X48483333Y-13583390D01*
X48483333Y-13583390D02*
X48530952Y-13631009D01*
X48530952Y-13631009D02*
X48626190Y-13678628D01*
X48626190Y-13678628D02*
X49007142Y-13678628D01*
X47483333Y-14154819D02*
X48054761Y-14154819D01*
X47769047Y-14154819D02*
X47769047Y-13154819D01*
X47769047Y-13154819D02*
X47864285Y-13297676D01*
X47864285Y-13297676D02*
X47959523Y-13392914D01*
X47959523Y-13392914D02*
X48054761Y-13440533D01*
X26861904Y-10654819D02*
X26290476Y-10654819D01*
X26576190Y-11654819D02*
X26576190Y-10654819D01*
X25957142Y-11654819D02*
X25957142Y-10654819D01*
X25957142Y-10654819D02*
X25576190Y-10654819D01*
X25576190Y-10654819D02*
X25480952Y-10702438D01*
X25480952Y-10702438D02*
X25433333Y-10750057D01*
X25433333Y-10750057D02*
X25385714Y-10845295D01*
X25385714Y-10845295D02*
X25385714Y-10988152D01*
X25385714Y-10988152D02*
X25433333Y-11083390D01*
X25433333Y-11083390D02*
X25480952Y-11131009D01*
X25480952Y-11131009D02*
X25576190Y-11178628D01*
X25576190Y-11178628D02*
X25957142Y-11178628D01*
X24528571Y-10654819D02*
X24719047Y-10654819D01*
X24719047Y-10654819D02*
X24814285Y-10702438D01*
X24814285Y-10702438D02*
X24861904Y-10750057D01*
X24861904Y-10750057D02*
X24957142Y-10892914D01*
X24957142Y-10892914D02*
X25004761Y-11083390D01*
X25004761Y-11083390D02*
X25004761Y-11464342D01*
X25004761Y-11464342D02*
X24957142Y-11559580D01*
X24957142Y-11559580D02*
X24909523Y-11607200D01*
X24909523Y-11607200D02*
X24814285Y-11654819D01*
X24814285Y-11654819D02*
X24623809Y-11654819D01*
X24623809Y-11654819D02*
X24528571Y-11607200D01*
X24528571Y-11607200D02*
X24480952Y-11559580D01*
X24480952Y-11559580D02*
X24433333Y-11464342D01*
X24433333Y-11464342D02*
X24433333Y-11226247D01*
X24433333Y-11226247D02*
X24480952Y-11131009D01*
X24480952Y-11131009D02*
X24528571Y-11083390D01*
X24528571Y-11083390D02*
X24623809Y-11035771D01*
X24623809Y-11035771D02*
X24814285Y-11035771D01*
X24814285Y-11035771D02*
X24909523Y-11083390D01*
X24909523Y-11083390D02*
X24957142Y-11131009D01*
X24957142Y-11131009D02*
X25004761Y-11226247D01*
X26861904Y-26654819D02*
X26290476Y-26654819D01*
X26576190Y-27654819D02*
X26576190Y-26654819D01*
X25957142Y-27654819D02*
X25957142Y-26654819D01*
X25957142Y-26654819D02*
X25576190Y-26654819D01*
X25576190Y-26654819D02*
X25480952Y-26702438D01*
X25480952Y-26702438D02*
X25433333Y-26750057D01*
X25433333Y-26750057D02*
X25385714Y-26845295D01*
X25385714Y-26845295D02*
X25385714Y-26988152D01*
X25385714Y-26988152D02*
X25433333Y-27083390D01*
X25433333Y-27083390D02*
X25480952Y-27131009D01*
X25480952Y-27131009D02*
X25576190Y-27178628D01*
X25576190Y-27178628D02*
X25957142Y-27178628D01*
X24528571Y-26654819D02*
X24719047Y-26654819D01*
X24719047Y-26654819D02*
X24814285Y-26702438D01*
X24814285Y-26702438D02*
X24861904Y-26750057D01*
X24861904Y-26750057D02*
X24957142Y-26892914D01*
X24957142Y-26892914D02*
X25004761Y-27083390D01*
X25004761Y-27083390D02*
X25004761Y-27464342D01*
X25004761Y-27464342D02*
X24957142Y-27559580D01*
X24957142Y-27559580D02*
X24909523Y-27607200D01*
X24909523Y-27607200D02*
X24814285Y-27654819D01*
X24814285Y-27654819D02*
X24623809Y-27654819D01*
X24623809Y-27654819D02*
X24528571Y-27607200D01*
X24528571Y-27607200D02*
X24480952Y-27559580D01*
X24480952Y-27559580D02*
X24433333Y-27464342D01*
X24433333Y-27464342D02*
X24433333Y-27226247D01*
X24433333Y-27226247D02*
X24480952Y-27131009D01*
X24480952Y-27131009D02*
X24528571Y-27083390D01*
X24528571Y-27083390D02*
X24623809Y-27035771D01*
X24623809Y-27035771D02*
X24814285Y-27035771D01*
X24814285Y-27035771D02*
X24909523Y-27083390D01*
X24909523Y-27083390D02*
X24957142Y-27131009D01*
X24957142Y-27131009D02*
X25004761Y-27226247D01*
X78561904Y-45054819D02*
X77990476Y-45054819D01*
X78276190Y-46054819D02*
X78276190Y-45054819D01*
X77657142Y-46054819D02*
X77657142Y-45054819D01*
X77657142Y-45054819D02*
X77276190Y-45054819D01*
X77276190Y-45054819D02*
X77180952Y-45102438D01*
X77180952Y-45102438D02*
X77133333Y-45150057D01*
X77133333Y-45150057D02*
X77085714Y-45245295D01*
X77085714Y-45245295D02*
X77085714Y-45388152D01*
X77085714Y-45388152D02*
X77133333Y-45483390D01*
X77133333Y-45483390D02*
X77180952Y-45531009D01*
X77180952Y-45531009D02*
X77276190Y-45578628D01*
X77276190Y-45578628D02*
X77657142Y-45578628D01*
X76752380Y-45054819D02*
X76085714Y-45054819D01*
X76085714Y-45054819D02*
X76514285Y-46054819D01*
X9561904Y-18254819D02*
X8990476Y-18254819D01*
X9276190Y-19254819D02*
X9276190Y-18254819D01*
X8657142Y-19254819D02*
X8657142Y-18254819D01*
X8657142Y-18254819D02*
X8276190Y-18254819D01*
X8276190Y-18254819D02*
X8180952Y-18302438D01*
X8180952Y-18302438D02*
X8133333Y-18350057D01*
X8133333Y-18350057D02*
X8085714Y-18445295D01*
X8085714Y-18445295D02*
X8085714Y-18588152D01*
X8085714Y-18588152D02*
X8133333Y-18683390D01*
X8133333Y-18683390D02*
X8180952Y-18731009D01*
X8180952Y-18731009D02*
X8276190Y-18778628D01*
X8276190Y-18778628D02*
X8657142Y-18778628D01*
X7514285Y-18683390D02*
X7609523Y-18635771D01*
X7609523Y-18635771D02*
X7657142Y-18588152D01*
X7657142Y-18588152D02*
X7704761Y-18492914D01*
X7704761Y-18492914D02*
X7704761Y-18445295D01*
X7704761Y-18445295D02*
X7657142Y-18350057D01*
X7657142Y-18350057D02*
X7609523Y-18302438D01*
X7609523Y-18302438D02*
X7514285Y-18254819D01*
X7514285Y-18254819D02*
X7323809Y-18254819D01*
X7323809Y-18254819D02*
X7228571Y-18302438D01*
X7228571Y-18302438D02*
X7180952Y-18350057D01*
X7180952Y-18350057D02*
X7133333Y-18445295D01*
X7133333Y-18445295D02*
X7133333Y-18492914D01*
X7133333Y-18492914D02*
X7180952Y-18588152D01*
X7180952Y-18588152D02*
X7228571Y-18635771D01*
X7228571Y-18635771D02*
X7323809Y-18683390D01*
X7323809Y-18683390D02*
X7514285Y-18683390D01*
X7514285Y-18683390D02*
X7609523Y-18731009D01*
X7609523Y-18731009D02*
X7657142Y-18778628D01*
X7657142Y-18778628D02*
X7704761Y-18873866D01*
X7704761Y-18873866D02*
X7704761Y-19064342D01*
X7704761Y-19064342D02*
X7657142Y-19159580D01*
X7657142Y-19159580D02*
X7609523Y-19207200D01*
X7609523Y-19207200D02*
X7514285Y-19254819D01*
X7514285Y-19254819D02*
X7323809Y-19254819D01*
X7323809Y-19254819D02*
X7228571Y-19207200D01*
X7228571Y-19207200D02*
X7180952Y-19159580D01*
X7180952Y-19159580D02*
X7133333Y-19064342D01*
X7133333Y-19064342D02*
X7133333Y-18873866D01*
X7133333Y-18873866D02*
X7180952Y-18778628D01*
X7180952Y-18778628D02*
X7228571Y-18731009D01*
X7228571Y-18731009D02*
X7323809Y-18683390D01*
X95911904Y-18254819D02*
X95340476Y-18254819D01*
X95626190Y-19254819D02*
X95626190Y-18254819D01*
X95007142Y-19254819D02*
X95007142Y-18254819D01*
X95007142Y-18254819D02*
X94626190Y-18254819D01*
X94626190Y-18254819D02*
X94530952Y-18302438D01*
X94530952Y-18302438D02*
X94483333Y-18350057D01*
X94483333Y-18350057D02*
X94435714Y-18445295D01*
X94435714Y-18445295D02*
X94435714Y-18588152D01*
X94435714Y-18588152D02*
X94483333Y-18683390D01*
X94483333Y-18683390D02*
X94530952Y-18731009D01*
X94530952Y-18731009D02*
X94626190Y-18778628D01*
X94626190Y-18778628D02*
X95007142Y-18778628D01*
X94054761Y-18350057D02*
X94007142Y-18302438D01*
X94007142Y-18302438D02*
X93911904Y-18254819D01*
X93911904Y-18254819D02*
X93673809Y-18254819D01*
X93673809Y-18254819D02*
X93578571Y-18302438D01*
X93578571Y-18302438D02*
X93530952Y-18350057D01*
X93530952Y-18350057D02*
X93483333Y-18445295D01*
X93483333Y-18445295D02*
X93483333Y-18540533D01*
X93483333Y-18540533D02*
X93530952Y-18683390D01*
X93530952Y-18683390D02*
X94102380Y-19254819D01*
X94102380Y-19254819D02*
X93483333Y-19254819D01*
X49911904Y-45154819D02*
X49340476Y-45154819D01*
X49626190Y-46154819D02*
X49626190Y-45154819D01*
X49007142Y-46154819D02*
X49007142Y-45154819D01*
X49007142Y-45154819D02*
X48626190Y-45154819D01*
X48626190Y-45154819D02*
X48530952Y-45202438D01*
X48530952Y-45202438D02*
X48483333Y-45250057D01*
X48483333Y-45250057D02*
X48435714Y-45345295D01*
X48435714Y-45345295D02*
X48435714Y-45488152D01*
X48435714Y-45488152D02*
X48483333Y-45583390D01*
X48483333Y-45583390D02*
X48530952Y-45631009D01*
X48530952Y-45631009D02*
X48626190Y-45678628D01*
X48626190Y-45678628D02*
X49007142Y-45678628D01*
X47483333Y-46154819D02*
X48054761Y-46154819D01*
X47769047Y-46154819D02*
X47769047Y-45154819D01*
X47769047Y-45154819D02*
X47864285Y-45297676D01*
X47864285Y-45297676D02*
X47959523Y-45392914D01*
X47959523Y-45392914D02*
X48054761Y-45440533D01*
X26911904Y-45154819D02*
X26340476Y-45154819D01*
X26626190Y-46154819D02*
X26626190Y-45154819D01*
X26007142Y-46154819D02*
X26007142Y-45154819D01*
X26007142Y-45154819D02*
X25626190Y-45154819D01*
X25626190Y-45154819D02*
X25530952Y-45202438D01*
X25530952Y-45202438D02*
X25483333Y-45250057D01*
X25483333Y-45250057D02*
X25435714Y-45345295D01*
X25435714Y-45345295D02*
X25435714Y-45488152D01*
X25435714Y-45488152D02*
X25483333Y-45583390D01*
X25483333Y-45583390D02*
X25530952Y-45631009D01*
X25530952Y-45631009D02*
X25626190Y-45678628D01*
X25626190Y-45678628D02*
X26007142Y-45678628D01*
X24483333Y-46154819D02*
X25054761Y-46154819D01*
X24769047Y-46154819D02*
X24769047Y-45154819D01*
X24769047Y-45154819D02*
X24864285Y-45297676D01*
X24864285Y-45297676D02*
X24959523Y-45392914D01*
X24959523Y-45392914D02*
X25054761Y-45440533D01*
X78561904Y-10654819D02*
X77990476Y-10654819D01*
X78276190Y-11654819D02*
X78276190Y-10654819D01*
X77657142Y-11654819D02*
X77657142Y-10654819D01*
X77657142Y-10654819D02*
X77276190Y-10654819D01*
X77276190Y-10654819D02*
X77180952Y-10702438D01*
X77180952Y-10702438D02*
X77133333Y-10750057D01*
X77133333Y-10750057D02*
X77085714Y-10845295D01*
X77085714Y-10845295D02*
X77085714Y-10988152D01*
X77085714Y-10988152D02*
X77133333Y-11083390D01*
X77133333Y-11083390D02*
X77180952Y-11131009D01*
X77180952Y-11131009D02*
X77276190Y-11178628D01*
X77276190Y-11178628D02*
X77657142Y-11178628D01*
X76228571Y-10988152D02*
X76228571Y-11654819D01*
X76466666Y-10607200D02*
X76704761Y-11321485D01*
X76704761Y-11321485D02*
X76085714Y-11321485D01*
X95911904Y-50254819D02*
X95340476Y-50254819D01*
X95626190Y-51254819D02*
X95626190Y-50254819D01*
X95007142Y-51254819D02*
X95007142Y-50254819D01*
X95007142Y-50254819D02*
X94626190Y-50254819D01*
X94626190Y-50254819D02*
X94530952Y-50302438D01*
X94530952Y-50302438D02*
X94483333Y-50350057D01*
X94483333Y-50350057D02*
X94435714Y-50445295D01*
X94435714Y-50445295D02*
X94435714Y-50588152D01*
X94435714Y-50588152D02*
X94483333Y-50683390D01*
X94483333Y-50683390D02*
X94530952Y-50731009D01*
X94530952Y-50731009D02*
X94626190Y-50778628D01*
X94626190Y-50778628D02*
X95007142Y-50778628D01*
X94054761Y-50350057D02*
X94007142Y-50302438D01*
X94007142Y-50302438D02*
X93911904Y-50254819D01*
X93911904Y-50254819D02*
X93673809Y-50254819D01*
X93673809Y-50254819D02*
X93578571Y-50302438D01*
X93578571Y-50302438D02*
X93530952Y-50350057D01*
X93530952Y-50350057D02*
X93483333Y-50445295D01*
X93483333Y-50445295D02*
X93483333Y-50540533D01*
X93483333Y-50540533D02*
X93530952Y-50683390D01*
X93530952Y-50683390D02*
X94102380Y-51254819D01*
X94102380Y-51254819D02*
X93483333Y-51254819D01*
X95911904Y-13154819D02*
X95340476Y-13154819D01*
X95626190Y-14154819D02*
X95626190Y-13154819D01*
X95007142Y-14154819D02*
X95007142Y-13154819D01*
X95007142Y-13154819D02*
X94626190Y-13154819D01*
X94626190Y-13154819D02*
X94530952Y-13202438D01*
X94530952Y-13202438D02*
X94483333Y-13250057D01*
X94483333Y-13250057D02*
X94435714Y-13345295D01*
X94435714Y-13345295D02*
X94435714Y-13488152D01*
X94435714Y-13488152D02*
X94483333Y-13583390D01*
X94483333Y-13583390D02*
X94530952Y-13631009D01*
X94530952Y-13631009D02*
X94626190Y-13678628D01*
X94626190Y-13678628D02*
X95007142Y-13678628D01*
X93483333Y-14154819D02*
X94054761Y-14154819D01*
X93769047Y-14154819D02*
X93769047Y-13154819D01*
X93769047Y-13154819D02*
X93864285Y-13297676D01*
X93864285Y-13297676D02*
X93959523Y-13392914D01*
X93959523Y-13392914D02*
X94054761Y-13440533D01*
X55561904Y-15754819D02*
X54990476Y-15754819D01*
X55276190Y-16754819D02*
X55276190Y-15754819D01*
X54657142Y-16754819D02*
X54657142Y-15754819D01*
X54657142Y-15754819D02*
X54276190Y-15754819D01*
X54276190Y-15754819D02*
X54180952Y-15802438D01*
X54180952Y-15802438D02*
X54133333Y-15850057D01*
X54133333Y-15850057D02*
X54085714Y-15945295D01*
X54085714Y-15945295D02*
X54085714Y-16088152D01*
X54085714Y-16088152D02*
X54133333Y-16183390D01*
X54133333Y-16183390D02*
X54180952Y-16231009D01*
X54180952Y-16231009D02*
X54276190Y-16278628D01*
X54276190Y-16278628D02*
X54657142Y-16278628D01*
X53180952Y-15754819D02*
X53657142Y-15754819D01*
X53657142Y-15754819D02*
X53704761Y-16231009D01*
X53704761Y-16231009D02*
X53657142Y-16183390D01*
X53657142Y-16183390D02*
X53561904Y-16135771D01*
X53561904Y-16135771D02*
X53323809Y-16135771D01*
X53323809Y-16135771D02*
X53228571Y-16183390D01*
X53228571Y-16183390D02*
X53180952Y-16231009D01*
X53180952Y-16231009D02*
X53133333Y-16326247D01*
X53133333Y-16326247D02*
X53133333Y-16564342D01*
X53133333Y-16564342D02*
X53180952Y-16659580D01*
X53180952Y-16659580D02*
X53228571Y-16707200D01*
X53228571Y-16707200D02*
X53323809Y-16754819D01*
X53323809Y-16754819D02*
X53561904Y-16754819D01*
X53561904Y-16754819D02*
X53657142Y-16707200D01*
X53657142Y-16707200D02*
X53704761Y-16659580D01*
X95861904Y-58654819D02*
X95290476Y-58654819D01*
X95576190Y-59654819D02*
X95576190Y-58654819D01*
X94957142Y-59654819D02*
X94957142Y-58654819D01*
X94957142Y-58654819D02*
X94576190Y-58654819D01*
X94576190Y-58654819D02*
X94480952Y-58702438D01*
X94480952Y-58702438D02*
X94433333Y-58750057D01*
X94433333Y-58750057D02*
X94385714Y-58845295D01*
X94385714Y-58845295D02*
X94385714Y-58988152D01*
X94385714Y-58988152D02*
X94433333Y-59083390D01*
X94433333Y-59083390D02*
X94480952Y-59131009D01*
X94480952Y-59131009D02*
X94576190Y-59178628D01*
X94576190Y-59178628D02*
X94957142Y-59178628D01*
X93528571Y-58654819D02*
X93719047Y-58654819D01*
X93719047Y-58654819D02*
X93814285Y-58702438D01*
X93814285Y-58702438D02*
X93861904Y-58750057D01*
X93861904Y-58750057D02*
X93957142Y-58892914D01*
X93957142Y-58892914D02*
X94004761Y-59083390D01*
X94004761Y-59083390D02*
X94004761Y-59464342D01*
X94004761Y-59464342D02*
X93957142Y-59559580D01*
X93957142Y-59559580D02*
X93909523Y-59607200D01*
X93909523Y-59607200D02*
X93814285Y-59654819D01*
X93814285Y-59654819D02*
X93623809Y-59654819D01*
X93623809Y-59654819D02*
X93528571Y-59607200D01*
X93528571Y-59607200D02*
X93480952Y-59559580D01*
X93480952Y-59559580D02*
X93433333Y-59464342D01*
X93433333Y-59464342D02*
X93433333Y-59226247D01*
X93433333Y-59226247D02*
X93480952Y-59131009D01*
X93480952Y-59131009D02*
X93528571Y-59083390D01*
X93528571Y-59083390D02*
X93623809Y-59035771D01*
X93623809Y-59035771D02*
X93814285Y-59035771D01*
X93814285Y-59035771D02*
X93909523Y-59083390D01*
X93909523Y-59083390D02*
X93957142Y-59131009D01*
X93957142Y-59131009D02*
X94004761Y-59226247D01*
X55561904Y-18254819D02*
X54990476Y-18254819D01*
X55276190Y-19254819D02*
X55276190Y-18254819D01*
X54657142Y-19254819D02*
X54657142Y-18254819D01*
X54657142Y-18254819D02*
X54276190Y-18254819D01*
X54276190Y-18254819D02*
X54180952Y-18302438D01*
X54180952Y-18302438D02*
X54133333Y-18350057D01*
X54133333Y-18350057D02*
X54085714Y-18445295D01*
X54085714Y-18445295D02*
X54085714Y-18588152D01*
X54085714Y-18588152D02*
X54133333Y-18683390D01*
X54133333Y-18683390D02*
X54180952Y-18731009D01*
X54180952Y-18731009D02*
X54276190Y-18778628D01*
X54276190Y-18778628D02*
X54657142Y-18778628D01*
X53514285Y-18683390D02*
X53609523Y-18635771D01*
X53609523Y-18635771D02*
X53657142Y-18588152D01*
X53657142Y-18588152D02*
X53704761Y-18492914D01*
X53704761Y-18492914D02*
X53704761Y-18445295D01*
X53704761Y-18445295D02*
X53657142Y-18350057D01*
X53657142Y-18350057D02*
X53609523Y-18302438D01*
X53609523Y-18302438D02*
X53514285Y-18254819D01*
X53514285Y-18254819D02*
X53323809Y-18254819D01*
X53323809Y-18254819D02*
X53228571Y-18302438D01*
X53228571Y-18302438D02*
X53180952Y-18350057D01*
X53180952Y-18350057D02*
X53133333Y-18445295D01*
X53133333Y-18445295D02*
X53133333Y-18492914D01*
X53133333Y-18492914D02*
X53180952Y-18588152D01*
X53180952Y-18588152D02*
X53228571Y-18635771D01*
X53228571Y-18635771D02*
X53323809Y-18683390D01*
X53323809Y-18683390D02*
X53514285Y-18683390D01*
X53514285Y-18683390D02*
X53609523Y-18731009D01*
X53609523Y-18731009D02*
X53657142Y-18778628D01*
X53657142Y-18778628D02*
X53704761Y-18873866D01*
X53704761Y-18873866D02*
X53704761Y-19064342D01*
X53704761Y-19064342D02*
X53657142Y-19159580D01*
X53657142Y-19159580D02*
X53609523Y-19207200D01*
X53609523Y-19207200D02*
X53514285Y-19254819D01*
X53514285Y-19254819D02*
X53323809Y-19254819D01*
X53323809Y-19254819D02*
X53228571Y-19207200D01*
X53228571Y-19207200D02*
X53180952Y-19159580D01*
X53180952Y-19159580D02*
X53133333Y-19064342D01*
X53133333Y-19064342D02*
X53133333Y-18873866D01*
X53133333Y-18873866D02*
X53180952Y-18778628D01*
X53180952Y-18778628D02*
X53228571Y-18731009D01*
X53228571Y-18731009D02*
X53323809Y-18683390D01*
X95911904Y-66254819D02*
X95340476Y-66254819D01*
X95626190Y-67254819D02*
X95626190Y-66254819D01*
X95007142Y-67254819D02*
X95007142Y-66254819D01*
X95007142Y-66254819D02*
X94626190Y-66254819D01*
X94626190Y-66254819D02*
X94530952Y-66302438D01*
X94530952Y-66302438D02*
X94483333Y-66350057D01*
X94483333Y-66350057D02*
X94435714Y-66445295D01*
X94435714Y-66445295D02*
X94435714Y-66588152D01*
X94435714Y-66588152D02*
X94483333Y-66683390D01*
X94483333Y-66683390D02*
X94530952Y-66731009D01*
X94530952Y-66731009D02*
X94626190Y-66778628D01*
X94626190Y-66778628D02*
X95007142Y-66778628D01*
X94054761Y-66350057D02*
X94007142Y-66302438D01*
X94007142Y-66302438D02*
X93911904Y-66254819D01*
X93911904Y-66254819D02*
X93673809Y-66254819D01*
X93673809Y-66254819D02*
X93578571Y-66302438D01*
X93578571Y-66302438D02*
X93530952Y-66350057D01*
X93530952Y-66350057D02*
X93483333Y-66445295D01*
X93483333Y-66445295D02*
X93483333Y-66540533D01*
X93483333Y-66540533D02*
X93530952Y-66683390D01*
X93530952Y-66683390D02*
X94102380Y-67254819D01*
X94102380Y-67254819D02*
X93483333Y-67254819D01*
X49911904Y-50254819D02*
X49340476Y-50254819D01*
X49626190Y-51254819D02*
X49626190Y-50254819D01*
X49007142Y-51254819D02*
X49007142Y-50254819D01*
X49007142Y-50254819D02*
X48626190Y-50254819D01*
X48626190Y-50254819D02*
X48530952Y-50302438D01*
X48530952Y-50302438D02*
X48483333Y-50350057D01*
X48483333Y-50350057D02*
X48435714Y-50445295D01*
X48435714Y-50445295D02*
X48435714Y-50588152D01*
X48435714Y-50588152D02*
X48483333Y-50683390D01*
X48483333Y-50683390D02*
X48530952Y-50731009D01*
X48530952Y-50731009D02*
X48626190Y-50778628D01*
X48626190Y-50778628D02*
X49007142Y-50778628D01*
X48054761Y-50350057D02*
X48007142Y-50302438D01*
X48007142Y-50302438D02*
X47911904Y-50254819D01*
X47911904Y-50254819D02*
X47673809Y-50254819D01*
X47673809Y-50254819D02*
X47578571Y-50302438D01*
X47578571Y-50302438D02*
X47530952Y-50350057D01*
X47530952Y-50350057D02*
X47483333Y-50445295D01*
X47483333Y-50445295D02*
X47483333Y-50540533D01*
X47483333Y-50540533D02*
X47530952Y-50683390D01*
X47530952Y-50683390D02*
X48102380Y-51254819D01*
X48102380Y-51254819D02*
X47483333Y-51254819D01*
X95861904Y-10654819D02*
X95290476Y-10654819D01*
X95576190Y-11654819D02*
X95576190Y-10654819D01*
X94957142Y-11654819D02*
X94957142Y-10654819D01*
X94957142Y-10654819D02*
X94576190Y-10654819D01*
X94576190Y-10654819D02*
X94480952Y-10702438D01*
X94480952Y-10702438D02*
X94433333Y-10750057D01*
X94433333Y-10750057D02*
X94385714Y-10845295D01*
X94385714Y-10845295D02*
X94385714Y-10988152D01*
X94385714Y-10988152D02*
X94433333Y-11083390D01*
X94433333Y-11083390D02*
X94480952Y-11131009D01*
X94480952Y-11131009D02*
X94576190Y-11178628D01*
X94576190Y-11178628D02*
X94957142Y-11178628D01*
X93528571Y-10654819D02*
X93719047Y-10654819D01*
X93719047Y-10654819D02*
X93814285Y-10702438D01*
X93814285Y-10702438D02*
X93861904Y-10750057D01*
X93861904Y-10750057D02*
X93957142Y-10892914D01*
X93957142Y-10892914D02*
X94004761Y-11083390D01*
X94004761Y-11083390D02*
X94004761Y-11464342D01*
X94004761Y-11464342D02*
X93957142Y-11559580D01*
X93957142Y-11559580D02*
X93909523Y-11607200D01*
X93909523Y-11607200D02*
X93814285Y-11654819D01*
X93814285Y-11654819D02*
X93623809Y-11654819D01*
X93623809Y-11654819D02*
X93528571Y-11607200D01*
X93528571Y-11607200D02*
X93480952Y-11559580D01*
X93480952Y-11559580D02*
X93433333Y-11464342D01*
X93433333Y-11464342D02*
X93433333Y-11226247D01*
X93433333Y-11226247D02*
X93480952Y-11131009D01*
X93480952Y-11131009D02*
X93528571Y-11083390D01*
X93528571Y-11083390D02*
X93623809Y-11035771D01*
X93623809Y-11035771D02*
X93814285Y-11035771D01*
X93814285Y-11035771D02*
X93909523Y-11083390D01*
X93909523Y-11083390D02*
X93957142Y-11131009D01*
X93957142Y-11131009D02*
X94004761Y-11226247D01*
X32561904Y-66254819D02*
X31990476Y-66254819D01*
X32276190Y-67254819D02*
X32276190Y-66254819D01*
X31657142Y-67254819D02*
X31657142Y-66254819D01*
X31657142Y-66254819D02*
X31276190Y-66254819D01*
X31276190Y-66254819D02*
X31180952Y-66302438D01*
X31180952Y-66302438D02*
X31133333Y-66350057D01*
X31133333Y-66350057D02*
X31085714Y-66445295D01*
X31085714Y-66445295D02*
X31085714Y-66588152D01*
X31085714Y-66588152D02*
X31133333Y-66683390D01*
X31133333Y-66683390D02*
X31180952Y-66731009D01*
X31180952Y-66731009D02*
X31276190Y-66778628D01*
X31276190Y-66778628D02*
X31657142Y-66778628D01*
X30514285Y-66683390D02*
X30609523Y-66635771D01*
X30609523Y-66635771D02*
X30657142Y-66588152D01*
X30657142Y-66588152D02*
X30704761Y-66492914D01*
X30704761Y-66492914D02*
X30704761Y-66445295D01*
X30704761Y-66445295D02*
X30657142Y-66350057D01*
X30657142Y-66350057D02*
X30609523Y-66302438D01*
X30609523Y-66302438D02*
X30514285Y-66254819D01*
X30514285Y-66254819D02*
X30323809Y-66254819D01*
X30323809Y-66254819D02*
X30228571Y-66302438D01*
X30228571Y-66302438D02*
X30180952Y-66350057D01*
X30180952Y-66350057D02*
X30133333Y-66445295D01*
X30133333Y-66445295D02*
X30133333Y-66492914D01*
X30133333Y-66492914D02*
X30180952Y-66588152D01*
X30180952Y-66588152D02*
X30228571Y-66635771D01*
X30228571Y-66635771D02*
X30323809Y-66683390D01*
X30323809Y-66683390D02*
X30514285Y-66683390D01*
X30514285Y-66683390D02*
X30609523Y-66731009D01*
X30609523Y-66731009D02*
X30657142Y-66778628D01*
X30657142Y-66778628D02*
X30704761Y-66873866D01*
X30704761Y-66873866D02*
X30704761Y-67064342D01*
X30704761Y-67064342D02*
X30657142Y-67159580D01*
X30657142Y-67159580D02*
X30609523Y-67207200D01*
X30609523Y-67207200D02*
X30514285Y-67254819D01*
X30514285Y-67254819D02*
X30323809Y-67254819D01*
X30323809Y-67254819D02*
X30228571Y-67207200D01*
X30228571Y-67207200D02*
X30180952Y-67159580D01*
X30180952Y-67159580D02*
X30133333Y-67064342D01*
X30133333Y-67064342D02*
X30133333Y-66873866D01*
X30133333Y-66873866D02*
X30180952Y-66778628D01*
X30180952Y-66778628D02*
X30228571Y-66731009D01*
X30228571Y-66731009D02*
X30323809Y-66683390D01*
X26861904Y-42654819D02*
X26290476Y-42654819D01*
X26576190Y-43654819D02*
X26576190Y-42654819D01*
X25957142Y-43654819D02*
X25957142Y-42654819D01*
X25957142Y-42654819D02*
X25576190Y-42654819D01*
X25576190Y-42654819D02*
X25480952Y-42702438D01*
X25480952Y-42702438D02*
X25433333Y-42750057D01*
X25433333Y-42750057D02*
X25385714Y-42845295D01*
X25385714Y-42845295D02*
X25385714Y-42988152D01*
X25385714Y-42988152D02*
X25433333Y-43083390D01*
X25433333Y-43083390D02*
X25480952Y-43131009D01*
X25480952Y-43131009D02*
X25576190Y-43178628D01*
X25576190Y-43178628D02*
X25957142Y-43178628D01*
X24528571Y-42654819D02*
X24719047Y-42654819D01*
X24719047Y-42654819D02*
X24814285Y-42702438D01*
X24814285Y-42702438D02*
X24861904Y-42750057D01*
X24861904Y-42750057D02*
X24957142Y-42892914D01*
X24957142Y-42892914D02*
X25004761Y-43083390D01*
X25004761Y-43083390D02*
X25004761Y-43464342D01*
X25004761Y-43464342D02*
X24957142Y-43559580D01*
X24957142Y-43559580D02*
X24909523Y-43607200D01*
X24909523Y-43607200D02*
X24814285Y-43654819D01*
X24814285Y-43654819D02*
X24623809Y-43654819D01*
X24623809Y-43654819D02*
X24528571Y-43607200D01*
X24528571Y-43607200D02*
X24480952Y-43559580D01*
X24480952Y-43559580D02*
X24433333Y-43464342D01*
X24433333Y-43464342D02*
X24433333Y-43226247D01*
X24433333Y-43226247D02*
X24480952Y-43131009D01*
X24480952Y-43131009D02*
X24528571Y-43083390D01*
X24528571Y-43083390D02*
X24623809Y-43035771D01*
X24623809Y-43035771D02*
X24814285Y-43035771D01*
X24814285Y-43035771D02*
X24909523Y-43083390D01*
X24909523Y-43083390D02*
X24957142Y-43131009D01*
X24957142Y-43131009D02*
X25004761Y-43226247D01*
X9561904Y-29054819D02*
X8990476Y-29054819D01*
X9276190Y-30054819D02*
X9276190Y-29054819D01*
X8657142Y-30054819D02*
X8657142Y-29054819D01*
X8657142Y-29054819D02*
X8276190Y-29054819D01*
X8276190Y-29054819D02*
X8180952Y-29102438D01*
X8180952Y-29102438D02*
X8133333Y-29150057D01*
X8133333Y-29150057D02*
X8085714Y-29245295D01*
X8085714Y-29245295D02*
X8085714Y-29388152D01*
X8085714Y-29388152D02*
X8133333Y-29483390D01*
X8133333Y-29483390D02*
X8180952Y-29531009D01*
X8180952Y-29531009D02*
X8276190Y-29578628D01*
X8276190Y-29578628D02*
X8657142Y-29578628D01*
X7752380Y-29054819D02*
X7085714Y-29054819D01*
X7085714Y-29054819D02*
X7514285Y-30054819D01*
X49861904Y-42654819D02*
X49290476Y-42654819D01*
X49576190Y-43654819D02*
X49576190Y-42654819D01*
X48957142Y-43654819D02*
X48957142Y-42654819D01*
X48957142Y-42654819D02*
X48576190Y-42654819D01*
X48576190Y-42654819D02*
X48480952Y-42702438D01*
X48480952Y-42702438D02*
X48433333Y-42750057D01*
X48433333Y-42750057D02*
X48385714Y-42845295D01*
X48385714Y-42845295D02*
X48385714Y-42988152D01*
X48385714Y-42988152D02*
X48433333Y-43083390D01*
X48433333Y-43083390D02*
X48480952Y-43131009D01*
X48480952Y-43131009D02*
X48576190Y-43178628D01*
X48576190Y-43178628D02*
X48957142Y-43178628D01*
X47528571Y-42654819D02*
X47719047Y-42654819D01*
X47719047Y-42654819D02*
X47814285Y-42702438D01*
X47814285Y-42702438D02*
X47861904Y-42750057D01*
X47861904Y-42750057D02*
X47957142Y-42892914D01*
X47957142Y-42892914D02*
X48004761Y-43083390D01*
X48004761Y-43083390D02*
X48004761Y-43464342D01*
X48004761Y-43464342D02*
X47957142Y-43559580D01*
X47957142Y-43559580D02*
X47909523Y-43607200D01*
X47909523Y-43607200D02*
X47814285Y-43654819D01*
X47814285Y-43654819D02*
X47623809Y-43654819D01*
X47623809Y-43654819D02*
X47528571Y-43607200D01*
X47528571Y-43607200D02*
X47480952Y-43559580D01*
X47480952Y-43559580D02*
X47433333Y-43464342D01*
X47433333Y-43464342D02*
X47433333Y-43226247D01*
X47433333Y-43226247D02*
X47480952Y-43131009D01*
X47480952Y-43131009D02*
X47528571Y-43083390D01*
X47528571Y-43083390D02*
X47623809Y-43035771D01*
X47623809Y-43035771D02*
X47814285Y-43035771D01*
X47814285Y-43035771D02*
X47909523Y-43083390D01*
X47909523Y-43083390D02*
X47957142Y-43131009D01*
X47957142Y-43131009D02*
X48004761Y-43226247D01*
X9561904Y-45054819D02*
X8990476Y-45054819D01*
X9276190Y-46054819D02*
X9276190Y-45054819D01*
X8657142Y-46054819D02*
X8657142Y-45054819D01*
X8657142Y-45054819D02*
X8276190Y-45054819D01*
X8276190Y-45054819D02*
X8180952Y-45102438D01*
X8180952Y-45102438D02*
X8133333Y-45150057D01*
X8133333Y-45150057D02*
X8085714Y-45245295D01*
X8085714Y-45245295D02*
X8085714Y-45388152D01*
X8085714Y-45388152D02*
X8133333Y-45483390D01*
X8133333Y-45483390D02*
X8180952Y-45531009D01*
X8180952Y-45531009D02*
X8276190Y-45578628D01*
X8276190Y-45578628D02*
X8657142Y-45578628D01*
X7752380Y-45054819D02*
X7085714Y-45054819D01*
X7085714Y-45054819D02*
X7514285Y-46054819D01*
X78561904Y-42654819D02*
X77990476Y-42654819D01*
X78276190Y-43654819D02*
X78276190Y-42654819D01*
X77657142Y-43654819D02*
X77657142Y-42654819D01*
X77657142Y-42654819D02*
X77276190Y-42654819D01*
X77276190Y-42654819D02*
X77180952Y-42702438D01*
X77180952Y-42702438D02*
X77133333Y-42750057D01*
X77133333Y-42750057D02*
X77085714Y-42845295D01*
X77085714Y-42845295D02*
X77085714Y-42988152D01*
X77085714Y-42988152D02*
X77133333Y-43083390D01*
X77133333Y-43083390D02*
X77180952Y-43131009D01*
X77180952Y-43131009D02*
X77276190Y-43178628D01*
X77276190Y-43178628D02*
X77657142Y-43178628D01*
X76228571Y-42988152D02*
X76228571Y-43654819D01*
X76466666Y-42607200D02*
X76704761Y-43321485D01*
X76704761Y-43321485D02*
X76085714Y-43321485D01*
X9561904Y-15754819D02*
X8990476Y-15754819D01*
X9276190Y-16754819D02*
X9276190Y-15754819D01*
X8657142Y-16754819D02*
X8657142Y-15754819D01*
X8657142Y-15754819D02*
X8276190Y-15754819D01*
X8276190Y-15754819D02*
X8180952Y-15802438D01*
X8180952Y-15802438D02*
X8133333Y-15850057D01*
X8133333Y-15850057D02*
X8085714Y-15945295D01*
X8085714Y-15945295D02*
X8085714Y-16088152D01*
X8085714Y-16088152D02*
X8133333Y-16183390D01*
X8133333Y-16183390D02*
X8180952Y-16231009D01*
X8180952Y-16231009D02*
X8276190Y-16278628D01*
X8276190Y-16278628D02*
X8657142Y-16278628D01*
X7180952Y-15754819D02*
X7657142Y-15754819D01*
X7657142Y-15754819D02*
X7704761Y-16231009D01*
X7704761Y-16231009D02*
X7657142Y-16183390D01*
X7657142Y-16183390D02*
X7561904Y-16135771D01*
X7561904Y-16135771D02*
X7323809Y-16135771D01*
X7323809Y-16135771D02*
X7228571Y-16183390D01*
X7228571Y-16183390D02*
X7180952Y-16231009D01*
X7180952Y-16231009D02*
X7133333Y-16326247D01*
X7133333Y-16326247D02*
X7133333Y-16564342D01*
X7133333Y-16564342D02*
X7180952Y-16659580D01*
X7180952Y-16659580D02*
X7228571Y-16707200D01*
X7228571Y-16707200D02*
X7323809Y-16754819D01*
X7323809Y-16754819D02*
X7561904Y-16754819D01*
X7561904Y-16754819D02*
X7657142Y-16707200D01*
X7657142Y-16707200D02*
X7704761Y-16659580D01*
X55561904Y-61054819D02*
X54990476Y-61054819D01*
X55276190Y-62054819D02*
X55276190Y-61054819D01*
X54657142Y-62054819D02*
X54657142Y-61054819D01*
X54657142Y-61054819D02*
X54276190Y-61054819D01*
X54276190Y-61054819D02*
X54180952Y-61102438D01*
X54180952Y-61102438D02*
X54133333Y-61150057D01*
X54133333Y-61150057D02*
X54085714Y-61245295D01*
X54085714Y-61245295D02*
X54085714Y-61388152D01*
X54085714Y-61388152D02*
X54133333Y-61483390D01*
X54133333Y-61483390D02*
X54180952Y-61531009D01*
X54180952Y-61531009D02*
X54276190Y-61578628D01*
X54276190Y-61578628D02*
X54657142Y-61578628D01*
X53752380Y-61054819D02*
X53085714Y-61054819D01*
X53085714Y-61054819D02*
X53514285Y-62054819D01*
X26861904Y-58654819D02*
X26290476Y-58654819D01*
X26576190Y-59654819D02*
X26576190Y-58654819D01*
X25957142Y-59654819D02*
X25957142Y-58654819D01*
X25957142Y-58654819D02*
X25576190Y-58654819D01*
X25576190Y-58654819D02*
X25480952Y-58702438D01*
X25480952Y-58702438D02*
X25433333Y-58750057D01*
X25433333Y-58750057D02*
X25385714Y-58845295D01*
X25385714Y-58845295D02*
X25385714Y-58988152D01*
X25385714Y-58988152D02*
X25433333Y-59083390D01*
X25433333Y-59083390D02*
X25480952Y-59131009D01*
X25480952Y-59131009D02*
X25576190Y-59178628D01*
X25576190Y-59178628D02*
X25957142Y-59178628D01*
X24528571Y-58654819D02*
X24719047Y-58654819D01*
X24719047Y-58654819D02*
X24814285Y-58702438D01*
X24814285Y-58702438D02*
X24861904Y-58750057D01*
X24861904Y-58750057D02*
X24957142Y-58892914D01*
X24957142Y-58892914D02*
X25004761Y-59083390D01*
X25004761Y-59083390D02*
X25004761Y-59464342D01*
X25004761Y-59464342D02*
X24957142Y-59559580D01*
X24957142Y-59559580D02*
X24909523Y-59607200D01*
X24909523Y-59607200D02*
X24814285Y-59654819D01*
X24814285Y-59654819D02*
X24623809Y-59654819D01*
X24623809Y-59654819D02*
X24528571Y-59607200D01*
X24528571Y-59607200D02*
X24480952Y-59559580D01*
X24480952Y-59559580D02*
X24433333Y-59464342D01*
X24433333Y-59464342D02*
X24433333Y-59226247D01*
X24433333Y-59226247D02*
X24480952Y-59131009D01*
X24480952Y-59131009D02*
X24528571Y-59083390D01*
X24528571Y-59083390D02*
X24623809Y-59035771D01*
X24623809Y-59035771D02*
X24814285Y-59035771D01*
X24814285Y-59035771D02*
X24909523Y-59083390D01*
X24909523Y-59083390D02*
X24957142Y-59131009D01*
X24957142Y-59131009D02*
X25004761Y-59226247D01*
X49911904Y-34254819D02*
X49340476Y-34254819D01*
X49626190Y-35254819D02*
X49626190Y-34254819D01*
X49007142Y-35254819D02*
X49007142Y-34254819D01*
X49007142Y-34254819D02*
X48626190Y-34254819D01*
X48626190Y-34254819D02*
X48530952Y-34302438D01*
X48530952Y-34302438D02*
X48483333Y-34350057D01*
X48483333Y-34350057D02*
X48435714Y-34445295D01*
X48435714Y-34445295D02*
X48435714Y-34588152D01*
X48435714Y-34588152D02*
X48483333Y-34683390D01*
X48483333Y-34683390D02*
X48530952Y-34731009D01*
X48530952Y-34731009D02*
X48626190Y-34778628D01*
X48626190Y-34778628D02*
X49007142Y-34778628D01*
X48054761Y-34350057D02*
X48007142Y-34302438D01*
X48007142Y-34302438D02*
X47911904Y-34254819D01*
X47911904Y-34254819D02*
X47673809Y-34254819D01*
X47673809Y-34254819D02*
X47578571Y-34302438D01*
X47578571Y-34302438D02*
X47530952Y-34350057D01*
X47530952Y-34350057D02*
X47483333Y-34445295D01*
X47483333Y-34445295D02*
X47483333Y-34540533D01*
X47483333Y-34540533D02*
X47530952Y-34683390D01*
X47530952Y-34683390D02*
X48102380Y-35254819D01*
X48102380Y-35254819D02*
X47483333Y-35254819D01*
X49911904Y-61154819D02*
X49340476Y-61154819D01*
X49626190Y-62154819D02*
X49626190Y-61154819D01*
X49007142Y-62154819D02*
X49007142Y-61154819D01*
X49007142Y-61154819D02*
X48626190Y-61154819D01*
X48626190Y-61154819D02*
X48530952Y-61202438D01*
X48530952Y-61202438D02*
X48483333Y-61250057D01*
X48483333Y-61250057D02*
X48435714Y-61345295D01*
X48435714Y-61345295D02*
X48435714Y-61488152D01*
X48435714Y-61488152D02*
X48483333Y-61583390D01*
X48483333Y-61583390D02*
X48530952Y-61631009D01*
X48530952Y-61631009D02*
X48626190Y-61678628D01*
X48626190Y-61678628D02*
X49007142Y-61678628D01*
X47483333Y-62154819D02*
X48054761Y-62154819D01*
X47769047Y-62154819D02*
X47769047Y-61154819D01*
X47769047Y-61154819D02*
X47864285Y-61297676D01*
X47864285Y-61297676D02*
X47959523Y-61392914D01*
X47959523Y-61392914D02*
X48054761Y-61440533D01*
X78561904Y-50254819D02*
X77990476Y-50254819D01*
X78276190Y-51254819D02*
X78276190Y-50254819D01*
X77657142Y-51254819D02*
X77657142Y-50254819D01*
X77657142Y-50254819D02*
X77276190Y-50254819D01*
X77276190Y-50254819D02*
X77180952Y-50302438D01*
X77180952Y-50302438D02*
X77133333Y-50350057D01*
X77133333Y-50350057D02*
X77085714Y-50445295D01*
X77085714Y-50445295D02*
X77085714Y-50588152D01*
X77085714Y-50588152D02*
X77133333Y-50683390D01*
X77133333Y-50683390D02*
X77180952Y-50731009D01*
X77180952Y-50731009D02*
X77276190Y-50778628D01*
X77276190Y-50778628D02*
X77657142Y-50778628D01*
X76514285Y-50683390D02*
X76609523Y-50635771D01*
X76609523Y-50635771D02*
X76657142Y-50588152D01*
X76657142Y-50588152D02*
X76704761Y-50492914D01*
X76704761Y-50492914D02*
X76704761Y-50445295D01*
X76704761Y-50445295D02*
X76657142Y-50350057D01*
X76657142Y-50350057D02*
X76609523Y-50302438D01*
X76609523Y-50302438D02*
X76514285Y-50254819D01*
X76514285Y-50254819D02*
X76323809Y-50254819D01*
X76323809Y-50254819D02*
X76228571Y-50302438D01*
X76228571Y-50302438D02*
X76180952Y-50350057D01*
X76180952Y-50350057D02*
X76133333Y-50445295D01*
X76133333Y-50445295D02*
X76133333Y-50492914D01*
X76133333Y-50492914D02*
X76180952Y-50588152D01*
X76180952Y-50588152D02*
X76228571Y-50635771D01*
X76228571Y-50635771D02*
X76323809Y-50683390D01*
X76323809Y-50683390D02*
X76514285Y-50683390D01*
X76514285Y-50683390D02*
X76609523Y-50731009D01*
X76609523Y-50731009D02*
X76657142Y-50778628D01*
X76657142Y-50778628D02*
X76704761Y-50873866D01*
X76704761Y-50873866D02*
X76704761Y-51064342D01*
X76704761Y-51064342D02*
X76657142Y-51159580D01*
X76657142Y-51159580D02*
X76609523Y-51207200D01*
X76609523Y-51207200D02*
X76514285Y-51254819D01*
X76514285Y-51254819D02*
X76323809Y-51254819D01*
X76323809Y-51254819D02*
X76228571Y-51207200D01*
X76228571Y-51207200D02*
X76180952Y-51159580D01*
X76180952Y-51159580D02*
X76133333Y-51064342D01*
X76133333Y-51064342D02*
X76133333Y-50873866D01*
X76133333Y-50873866D02*
X76180952Y-50778628D01*
X76180952Y-50778628D02*
X76228571Y-50731009D01*
X76228571Y-50731009D02*
X76323809Y-50683390D01*
X49911904Y-47804819D02*
X49340476Y-47804819D01*
X49626190Y-48804819D02*
X49626190Y-47804819D01*
X49007142Y-48804819D02*
X49007142Y-47804819D01*
X49007142Y-47804819D02*
X48626190Y-47804819D01*
X48626190Y-47804819D02*
X48530952Y-47852438D01*
X48530952Y-47852438D02*
X48483333Y-47900057D01*
X48483333Y-47900057D02*
X48435714Y-47995295D01*
X48435714Y-47995295D02*
X48435714Y-48138152D01*
X48435714Y-48138152D02*
X48483333Y-48233390D01*
X48483333Y-48233390D02*
X48530952Y-48281009D01*
X48530952Y-48281009D02*
X48626190Y-48328628D01*
X48626190Y-48328628D02*
X49007142Y-48328628D01*
X48102380Y-47804819D02*
X47483333Y-47804819D01*
X47483333Y-47804819D02*
X47816666Y-48185771D01*
X47816666Y-48185771D02*
X47673809Y-48185771D01*
X47673809Y-48185771D02*
X47578571Y-48233390D01*
X47578571Y-48233390D02*
X47530952Y-48281009D01*
X47530952Y-48281009D02*
X47483333Y-48376247D01*
X47483333Y-48376247D02*
X47483333Y-48614342D01*
X47483333Y-48614342D02*
X47530952Y-48709580D01*
X47530952Y-48709580D02*
X47578571Y-48757200D01*
X47578571Y-48757200D02*
X47673809Y-48804819D01*
X47673809Y-48804819D02*
X47959523Y-48804819D01*
X47959523Y-48804819D02*
X48054761Y-48757200D01*
X48054761Y-48757200D02*
X48102380Y-48709580D01*
X95911904Y-47804819D02*
X95340476Y-47804819D01*
X95626190Y-48804819D02*
X95626190Y-47804819D01*
X95007142Y-48804819D02*
X95007142Y-47804819D01*
X95007142Y-47804819D02*
X94626190Y-47804819D01*
X94626190Y-47804819D02*
X94530952Y-47852438D01*
X94530952Y-47852438D02*
X94483333Y-47900057D01*
X94483333Y-47900057D02*
X94435714Y-47995295D01*
X94435714Y-47995295D02*
X94435714Y-48138152D01*
X94435714Y-48138152D02*
X94483333Y-48233390D01*
X94483333Y-48233390D02*
X94530952Y-48281009D01*
X94530952Y-48281009D02*
X94626190Y-48328628D01*
X94626190Y-48328628D02*
X95007142Y-48328628D01*
X94102380Y-47804819D02*
X93483333Y-47804819D01*
X93483333Y-47804819D02*
X93816666Y-48185771D01*
X93816666Y-48185771D02*
X93673809Y-48185771D01*
X93673809Y-48185771D02*
X93578571Y-48233390D01*
X93578571Y-48233390D02*
X93530952Y-48281009D01*
X93530952Y-48281009D02*
X93483333Y-48376247D01*
X93483333Y-48376247D02*
X93483333Y-48614342D01*
X93483333Y-48614342D02*
X93530952Y-48709580D01*
X93530952Y-48709580D02*
X93578571Y-48757200D01*
X93578571Y-48757200D02*
X93673809Y-48804819D01*
X93673809Y-48804819D02*
X93959523Y-48804819D01*
X93959523Y-48804819D02*
X94054761Y-48757200D01*
X94054761Y-48757200D02*
X94102380Y-48709580D01*
X32561904Y-45054819D02*
X31990476Y-45054819D01*
X32276190Y-46054819D02*
X32276190Y-45054819D01*
X31657142Y-46054819D02*
X31657142Y-45054819D01*
X31657142Y-45054819D02*
X31276190Y-45054819D01*
X31276190Y-45054819D02*
X31180952Y-45102438D01*
X31180952Y-45102438D02*
X31133333Y-45150057D01*
X31133333Y-45150057D02*
X31085714Y-45245295D01*
X31085714Y-45245295D02*
X31085714Y-45388152D01*
X31085714Y-45388152D02*
X31133333Y-45483390D01*
X31133333Y-45483390D02*
X31180952Y-45531009D01*
X31180952Y-45531009D02*
X31276190Y-45578628D01*
X31276190Y-45578628D02*
X31657142Y-45578628D01*
X30752380Y-45054819D02*
X30085714Y-45054819D01*
X30085714Y-45054819D02*
X30514285Y-46054819D01*
X49861904Y-58654819D02*
X49290476Y-58654819D01*
X49576190Y-59654819D02*
X49576190Y-58654819D01*
X48957142Y-59654819D02*
X48957142Y-58654819D01*
X48957142Y-58654819D02*
X48576190Y-58654819D01*
X48576190Y-58654819D02*
X48480952Y-58702438D01*
X48480952Y-58702438D02*
X48433333Y-58750057D01*
X48433333Y-58750057D02*
X48385714Y-58845295D01*
X48385714Y-58845295D02*
X48385714Y-58988152D01*
X48385714Y-58988152D02*
X48433333Y-59083390D01*
X48433333Y-59083390D02*
X48480952Y-59131009D01*
X48480952Y-59131009D02*
X48576190Y-59178628D01*
X48576190Y-59178628D02*
X48957142Y-59178628D01*
X47528571Y-58654819D02*
X47719047Y-58654819D01*
X47719047Y-58654819D02*
X47814285Y-58702438D01*
X47814285Y-58702438D02*
X47861904Y-58750057D01*
X47861904Y-58750057D02*
X47957142Y-58892914D01*
X47957142Y-58892914D02*
X48004761Y-59083390D01*
X48004761Y-59083390D02*
X48004761Y-59464342D01*
X48004761Y-59464342D02*
X47957142Y-59559580D01*
X47957142Y-59559580D02*
X47909523Y-59607200D01*
X47909523Y-59607200D02*
X47814285Y-59654819D01*
X47814285Y-59654819D02*
X47623809Y-59654819D01*
X47623809Y-59654819D02*
X47528571Y-59607200D01*
X47528571Y-59607200D02*
X47480952Y-59559580D01*
X47480952Y-59559580D02*
X47433333Y-59464342D01*
X47433333Y-59464342D02*
X47433333Y-59226247D01*
X47433333Y-59226247D02*
X47480952Y-59131009D01*
X47480952Y-59131009D02*
X47528571Y-59083390D01*
X47528571Y-59083390D02*
X47623809Y-59035771D01*
X47623809Y-59035771D02*
X47814285Y-59035771D01*
X47814285Y-59035771D02*
X47909523Y-59083390D01*
X47909523Y-59083390D02*
X47957142Y-59131009D01*
X47957142Y-59131009D02*
X48004761Y-59226247D01*
X72911904Y-34254819D02*
X72340476Y-34254819D01*
X72626190Y-35254819D02*
X72626190Y-34254819D01*
X72007142Y-35254819D02*
X72007142Y-34254819D01*
X72007142Y-34254819D02*
X71626190Y-34254819D01*
X71626190Y-34254819D02*
X71530952Y-34302438D01*
X71530952Y-34302438D02*
X71483333Y-34350057D01*
X71483333Y-34350057D02*
X71435714Y-34445295D01*
X71435714Y-34445295D02*
X71435714Y-34588152D01*
X71435714Y-34588152D02*
X71483333Y-34683390D01*
X71483333Y-34683390D02*
X71530952Y-34731009D01*
X71530952Y-34731009D02*
X71626190Y-34778628D01*
X71626190Y-34778628D02*
X72007142Y-34778628D01*
X71054761Y-34350057D02*
X71007142Y-34302438D01*
X71007142Y-34302438D02*
X70911904Y-34254819D01*
X70911904Y-34254819D02*
X70673809Y-34254819D01*
X70673809Y-34254819D02*
X70578571Y-34302438D01*
X70578571Y-34302438D02*
X70530952Y-34350057D01*
X70530952Y-34350057D02*
X70483333Y-34445295D01*
X70483333Y-34445295D02*
X70483333Y-34540533D01*
X70483333Y-34540533D02*
X70530952Y-34683390D01*
X70530952Y-34683390D02*
X71102380Y-35254819D01*
X71102380Y-35254819D02*
X70483333Y-35254819D01*
X32561904Y-10654819D02*
X31990476Y-10654819D01*
X32276190Y-11654819D02*
X32276190Y-10654819D01*
X31657142Y-11654819D02*
X31657142Y-10654819D01*
X31657142Y-10654819D02*
X31276190Y-10654819D01*
X31276190Y-10654819D02*
X31180952Y-10702438D01*
X31180952Y-10702438D02*
X31133333Y-10750057D01*
X31133333Y-10750057D02*
X31085714Y-10845295D01*
X31085714Y-10845295D02*
X31085714Y-10988152D01*
X31085714Y-10988152D02*
X31133333Y-11083390D01*
X31133333Y-11083390D02*
X31180952Y-11131009D01*
X31180952Y-11131009D02*
X31276190Y-11178628D01*
X31276190Y-11178628D02*
X31657142Y-11178628D01*
X30228571Y-10988152D02*
X30228571Y-11654819D01*
X30466666Y-10607200D02*
X30704761Y-11321485D01*
X30704761Y-11321485D02*
X30085714Y-11321485D01*
X9561904Y-26654819D02*
X8990476Y-26654819D01*
X9276190Y-27654819D02*
X9276190Y-26654819D01*
X8657142Y-27654819D02*
X8657142Y-26654819D01*
X8657142Y-26654819D02*
X8276190Y-26654819D01*
X8276190Y-26654819D02*
X8180952Y-26702438D01*
X8180952Y-26702438D02*
X8133333Y-26750057D01*
X8133333Y-26750057D02*
X8085714Y-26845295D01*
X8085714Y-26845295D02*
X8085714Y-26988152D01*
X8085714Y-26988152D02*
X8133333Y-27083390D01*
X8133333Y-27083390D02*
X8180952Y-27131009D01*
X8180952Y-27131009D02*
X8276190Y-27178628D01*
X8276190Y-27178628D02*
X8657142Y-27178628D01*
X7228571Y-26988152D02*
X7228571Y-27654819D01*
X7466666Y-26607200D02*
X7704761Y-27321485D01*
X7704761Y-27321485D02*
X7085714Y-27321485D01*
X78561904Y-18254819D02*
X77990476Y-18254819D01*
X78276190Y-19254819D02*
X78276190Y-18254819D01*
X77657142Y-19254819D02*
X77657142Y-18254819D01*
X77657142Y-18254819D02*
X77276190Y-18254819D01*
X77276190Y-18254819D02*
X77180952Y-18302438D01*
X77180952Y-18302438D02*
X77133333Y-18350057D01*
X77133333Y-18350057D02*
X77085714Y-18445295D01*
X77085714Y-18445295D02*
X77085714Y-18588152D01*
X77085714Y-18588152D02*
X77133333Y-18683390D01*
X77133333Y-18683390D02*
X77180952Y-18731009D01*
X77180952Y-18731009D02*
X77276190Y-18778628D01*
X77276190Y-18778628D02*
X77657142Y-18778628D01*
X76514285Y-18683390D02*
X76609523Y-18635771D01*
X76609523Y-18635771D02*
X76657142Y-18588152D01*
X76657142Y-18588152D02*
X76704761Y-18492914D01*
X76704761Y-18492914D02*
X76704761Y-18445295D01*
X76704761Y-18445295D02*
X76657142Y-18350057D01*
X76657142Y-18350057D02*
X76609523Y-18302438D01*
X76609523Y-18302438D02*
X76514285Y-18254819D01*
X76514285Y-18254819D02*
X76323809Y-18254819D01*
X76323809Y-18254819D02*
X76228571Y-18302438D01*
X76228571Y-18302438D02*
X76180952Y-18350057D01*
X76180952Y-18350057D02*
X76133333Y-18445295D01*
X76133333Y-18445295D02*
X76133333Y-18492914D01*
X76133333Y-18492914D02*
X76180952Y-18588152D01*
X76180952Y-18588152D02*
X76228571Y-18635771D01*
X76228571Y-18635771D02*
X76323809Y-18683390D01*
X76323809Y-18683390D02*
X76514285Y-18683390D01*
X76514285Y-18683390D02*
X76609523Y-18731009D01*
X76609523Y-18731009D02*
X76657142Y-18778628D01*
X76657142Y-18778628D02*
X76704761Y-18873866D01*
X76704761Y-18873866D02*
X76704761Y-19064342D01*
X76704761Y-19064342D02*
X76657142Y-19159580D01*
X76657142Y-19159580D02*
X76609523Y-19207200D01*
X76609523Y-19207200D02*
X76514285Y-19254819D01*
X76514285Y-19254819D02*
X76323809Y-19254819D01*
X76323809Y-19254819D02*
X76228571Y-19207200D01*
X76228571Y-19207200D02*
X76180952Y-19159580D01*
X76180952Y-19159580D02*
X76133333Y-19064342D01*
X76133333Y-19064342D02*
X76133333Y-18873866D01*
X76133333Y-18873866D02*
X76180952Y-18778628D01*
X76180952Y-18778628D02*
X76228571Y-18731009D01*
X76228571Y-18731009D02*
X76323809Y-18683390D01*
X9561904Y-66254819D02*
X8990476Y-66254819D01*
X9276190Y-67254819D02*
X9276190Y-66254819D01*
X8657142Y-67254819D02*
X8657142Y-66254819D01*
X8657142Y-66254819D02*
X8276190Y-66254819D01*
X8276190Y-66254819D02*
X8180952Y-66302438D01*
X8180952Y-66302438D02*
X8133333Y-66350057D01*
X8133333Y-66350057D02*
X8085714Y-66445295D01*
X8085714Y-66445295D02*
X8085714Y-66588152D01*
X8085714Y-66588152D02*
X8133333Y-66683390D01*
X8133333Y-66683390D02*
X8180952Y-66731009D01*
X8180952Y-66731009D02*
X8276190Y-66778628D01*
X8276190Y-66778628D02*
X8657142Y-66778628D01*
X7514285Y-66683390D02*
X7609523Y-66635771D01*
X7609523Y-66635771D02*
X7657142Y-66588152D01*
X7657142Y-66588152D02*
X7704761Y-66492914D01*
X7704761Y-66492914D02*
X7704761Y-66445295D01*
X7704761Y-66445295D02*
X7657142Y-66350057D01*
X7657142Y-66350057D02*
X7609523Y-66302438D01*
X7609523Y-66302438D02*
X7514285Y-66254819D01*
X7514285Y-66254819D02*
X7323809Y-66254819D01*
X7323809Y-66254819D02*
X7228571Y-66302438D01*
X7228571Y-66302438D02*
X7180952Y-66350057D01*
X7180952Y-66350057D02*
X7133333Y-66445295D01*
X7133333Y-66445295D02*
X7133333Y-66492914D01*
X7133333Y-66492914D02*
X7180952Y-66588152D01*
X7180952Y-66588152D02*
X7228571Y-66635771D01*
X7228571Y-66635771D02*
X7323809Y-66683390D01*
X7323809Y-66683390D02*
X7514285Y-66683390D01*
X7514285Y-66683390D02*
X7609523Y-66731009D01*
X7609523Y-66731009D02*
X7657142Y-66778628D01*
X7657142Y-66778628D02*
X7704761Y-66873866D01*
X7704761Y-66873866D02*
X7704761Y-67064342D01*
X7704761Y-67064342D02*
X7657142Y-67159580D01*
X7657142Y-67159580D02*
X7609523Y-67207200D01*
X7609523Y-67207200D02*
X7514285Y-67254819D01*
X7514285Y-67254819D02*
X7323809Y-67254819D01*
X7323809Y-67254819D02*
X7228571Y-67207200D01*
X7228571Y-67207200D02*
X7180952Y-67159580D01*
X7180952Y-67159580D02*
X7133333Y-67064342D01*
X7133333Y-67064342D02*
X7133333Y-66873866D01*
X7133333Y-66873866D02*
X7180952Y-66778628D01*
X7180952Y-66778628D02*
X7228571Y-66731009D01*
X7228571Y-66731009D02*
X7323809Y-66683390D01*
X55561904Y-45054819D02*
X54990476Y-45054819D01*
X55276190Y-46054819D02*
X55276190Y-45054819D01*
X54657142Y-46054819D02*
X54657142Y-45054819D01*
X54657142Y-45054819D02*
X54276190Y-45054819D01*
X54276190Y-45054819D02*
X54180952Y-45102438D01*
X54180952Y-45102438D02*
X54133333Y-45150057D01*
X54133333Y-45150057D02*
X54085714Y-45245295D01*
X54085714Y-45245295D02*
X54085714Y-45388152D01*
X54085714Y-45388152D02*
X54133333Y-45483390D01*
X54133333Y-45483390D02*
X54180952Y-45531009D01*
X54180952Y-45531009D02*
X54276190Y-45578628D01*
X54276190Y-45578628D02*
X54657142Y-45578628D01*
X53752380Y-45054819D02*
X53085714Y-45054819D01*
X53085714Y-45054819D02*
X53514285Y-46054819D01*
X55561904Y-50254819D02*
X54990476Y-50254819D01*
X55276190Y-51254819D02*
X55276190Y-50254819D01*
X54657142Y-51254819D02*
X54657142Y-50254819D01*
X54657142Y-50254819D02*
X54276190Y-50254819D01*
X54276190Y-50254819D02*
X54180952Y-50302438D01*
X54180952Y-50302438D02*
X54133333Y-50350057D01*
X54133333Y-50350057D02*
X54085714Y-50445295D01*
X54085714Y-50445295D02*
X54085714Y-50588152D01*
X54085714Y-50588152D02*
X54133333Y-50683390D01*
X54133333Y-50683390D02*
X54180952Y-50731009D01*
X54180952Y-50731009D02*
X54276190Y-50778628D01*
X54276190Y-50778628D02*
X54657142Y-50778628D01*
X53514285Y-50683390D02*
X53609523Y-50635771D01*
X53609523Y-50635771D02*
X53657142Y-50588152D01*
X53657142Y-50588152D02*
X53704761Y-50492914D01*
X53704761Y-50492914D02*
X53704761Y-50445295D01*
X53704761Y-50445295D02*
X53657142Y-50350057D01*
X53657142Y-50350057D02*
X53609523Y-50302438D01*
X53609523Y-50302438D02*
X53514285Y-50254819D01*
X53514285Y-50254819D02*
X53323809Y-50254819D01*
X53323809Y-50254819D02*
X53228571Y-50302438D01*
X53228571Y-50302438D02*
X53180952Y-50350057D01*
X53180952Y-50350057D02*
X53133333Y-50445295D01*
X53133333Y-50445295D02*
X53133333Y-50492914D01*
X53133333Y-50492914D02*
X53180952Y-50588152D01*
X53180952Y-50588152D02*
X53228571Y-50635771D01*
X53228571Y-50635771D02*
X53323809Y-50683390D01*
X53323809Y-50683390D02*
X53514285Y-50683390D01*
X53514285Y-50683390D02*
X53609523Y-50731009D01*
X53609523Y-50731009D02*
X53657142Y-50778628D01*
X53657142Y-50778628D02*
X53704761Y-50873866D01*
X53704761Y-50873866D02*
X53704761Y-51064342D01*
X53704761Y-51064342D02*
X53657142Y-51159580D01*
X53657142Y-51159580D02*
X53609523Y-51207200D01*
X53609523Y-51207200D02*
X53514285Y-51254819D01*
X53514285Y-51254819D02*
X53323809Y-51254819D01*
X53323809Y-51254819D02*
X53228571Y-51207200D01*
X53228571Y-51207200D02*
X53180952Y-51159580D01*
X53180952Y-51159580D02*
X53133333Y-51064342D01*
X53133333Y-51064342D02*
X53133333Y-50873866D01*
X53133333Y-50873866D02*
X53180952Y-50778628D01*
X53180952Y-50778628D02*
X53228571Y-50731009D01*
X53228571Y-50731009D02*
X53323809Y-50683390D01*
X55561904Y-34254819D02*
X54990476Y-34254819D01*
X55276190Y-35254819D02*
X55276190Y-34254819D01*
X54657142Y-35254819D02*
X54657142Y-34254819D01*
X54657142Y-34254819D02*
X54276190Y-34254819D01*
X54276190Y-34254819D02*
X54180952Y-34302438D01*
X54180952Y-34302438D02*
X54133333Y-34350057D01*
X54133333Y-34350057D02*
X54085714Y-34445295D01*
X54085714Y-34445295D02*
X54085714Y-34588152D01*
X54085714Y-34588152D02*
X54133333Y-34683390D01*
X54133333Y-34683390D02*
X54180952Y-34731009D01*
X54180952Y-34731009D02*
X54276190Y-34778628D01*
X54276190Y-34778628D02*
X54657142Y-34778628D01*
X53514285Y-34683390D02*
X53609523Y-34635771D01*
X53609523Y-34635771D02*
X53657142Y-34588152D01*
X53657142Y-34588152D02*
X53704761Y-34492914D01*
X53704761Y-34492914D02*
X53704761Y-34445295D01*
X53704761Y-34445295D02*
X53657142Y-34350057D01*
X53657142Y-34350057D02*
X53609523Y-34302438D01*
X53609523Y-34302438D02*
X53514285Y-34254819D01*
X53514285Y-34254819D02*
X53323809Y-34254819D01*
X53323809Y-34254819D02*
X53228571Y-34302438D01*
X53228571Y-34302438D02*
X53180952Y-34350057D01*
X53180952Y-34350057D02*
X53133333Y-34445295D01*
X53133333Y-34445295D02*
X53133333Y-34492914D01*
X53133333Y-34492914D02*
X53180952Y-34588152D01*
X53180952Y-34588152D02*
X53228571Y-34635771D01*
X53228571Y-34635771D02*
X53323809Y-34683390D01*
X53323809Y-34683390D02*
X53514285Y-34683390D01*
X53514285Y-34683390D02*
X53609523Y-34731009D01*
X53609523Y-34731009D02*
X53657142Y-34778628D01*
X53657142Y-34778628D02*
X53704761Y-34873866D01*
X53704761Y-34873866D02*
X53704761Y-35064342D01*
X53704761Y-35064342D02*
X53657142Y-35159580D01*
X53657142Y-35159580D02*
X53609523Y-35207200D01*
X53609523Y-35207200D02*
X53514285Y-35254819D01*
X53514285Y-35254819D02*
X53323809Y-35254819D01*
X53323809Y-35254819D02*
X53228571Y-35207200D01*
X53228571Y-35207200D02*
X53180952Y-35159580D01*
X53180952Y-35159580D02*
X53133333Y-35064342D01*
X53133333Y-35064342D02*
X53133333Y-34873866D01*
X53133333Y-34873866D02*
X53180952Y-34778628D01*
X53180952Y-34778628D02*
X53228571Y-34731009D01*
X53228571Y-34731009D02*
X53323809Y-34683390D01*
X26911904Y-50254819D02*
X26340476Y-50254819D01*
X26626190Y-51254819D02*
X26626190Y-50254819D01*
X26007142Y-51254819D02*
X26007142Y-50254819D01*
X26007142Y-50254819D02*
X25626190Y-50254819D01*
X25626190Y-50254819D02*
X25530952Y-50302438D01*
X25530952Y-50302438D02*
X25483333Y-50350057D01*
X25483333Y-50350057D02*
X25435714Y-50445295D01*
X25435714Y-50445295D02*
X25435714Y-50588152D01*
X25435714Y-50588152D02*
X25483333Y-50683390D01*
X25483333Y-50683390D02*
X25530952Y-50731009D01*
X25530952Y-50731009D02*
X25626190Y-50778628D01*
X25626190Y-50778628D02*
X26007142Y-50778628D01*
X25054761Y-50350057D02*
X25007142Y-50302438D01*
X25007142Y-50302438D02*
X24911904Y-50254819D01*
X24911904Y-50254819D02*
X24673809Y-50254819D01*
X24673809Y-50254819D02*
X24578571Y-50302438D01*
X24578571Y-50302438D02*
X24530952Y-50350057D01*
X24530952Y-50350057D02*
X24483333Y-50445295D01*
X24483333Y-50445295D02*
X24483333Y-50540533D01*
X24483333Y-50540533D02*
X24530952Y-50683390D01*
X24530952Y-50683390D02*
X25102380Y-51254819D01*
X25102380Y-51254819D02*
X24483333Y-51254819D01*
X72911904Y-66254819D02*
X72340476Y-66254819D01*
X72626190Y-67254819D02*
X72626190Y-66254819D01*
X72007142Y-67254819D02*
X72007142Y-66254819D01*
X72007142Y-66254819D02*
X71626190Y-66254819D01*
X71626190Y-66254819D02*
X71530952Y-66302438D01*
X71530952Y-66302438D02*
X71483333Y-66350057D01*
X71483333Y-66350057D02*
X71435714Y-66445295D01*
X71435714Y-66445295D02*
X71435714Y-66588152D01*
X71435714Y-66588152D02*
X71483333Y-66683390D01*
X71483333Y-66683390D02*
X71530952Y-66731009D01*
X71530952Y-66731009D02*
X71626190Y-66778628D01*
X71626190Y-66778628D02*
X72007142Y-66778628D01*
X71054761Y-66350057D02*
X71007142Y-66302438D01*
X71007142Y-66302438D02*
X70911904Y-66254819D01*
X70911904Y-66254819D02*
X70673809Y-66254819D01*
X70673809Y-66254819D02*
X70578571Y-66302438D01*
X70578571Y-66302438D02*
X70530952Y-66350057D01*
X70530952Y-66350057D02*
X70483333Y-66445295D01*
X70483333Y-66445295D02*
X70483333Y-66540533D01*
X70483333Y-66540533D02*
X70530952Y-66683390D01*
X70530952Y-66683390D02*
X71102380Y-67254819D01*
X71102380Y-67254819D02*
X70483333Y-67254819D01*
X72911904Y-18254819D02*
X72340476Y-18254819D01*
X72626190Y-19254819D02*
X72626190Y-18254819D01*
X72007142Y-19254819D02*
X72007142Y-18254819D01*
X72007142Y-18254819D02*
X71626190Y-18254819D01*
X71626190Y-18254819D02*
X71530952Y-18302438D01*
X71530952Y-18302438D02*
X71483333Y-18350057D01*
X71483333Y-18350057D02*
X71435714Y-18445295D01*
X71435714Y-18445295D02*
X71435714Y-18588152D01*
X71435714Y-18588152D02*
X71483333Y-18683390D01*
X71483333Y-18683390D02*
X71530952Y-18731009D01*
X71530952Y-18731009D02*
X71626190Y-18778628D01*
X71626190Y-18778628D02*
X72007142Y-18778628D01*
X71054761Y-18350057D02*
X71007142Y-18302438D01*
X71007142Y-18302438D02*
X70911904Y-18254819D01*
X70911904Y-18254819D02*
X70673809Y-18254819D01*
X70673809Y-18254819D02*
X70578571Y-18302438D01*
X70578571Y-18302438D02*
X70530952Y-18350057D01*
X70530952Y-18350057D02*
X70483333Y-18445295D01*
X70483333Y-18445295D02*
X70483333Y-18540533D01*
X70483333Y-18540533D02*
X70530952Y-18683390D01*
X70530952Y-18683390D02*
X71102380Y-19254819D01*
X71102380Y-19254819D02*
X70483333Y-19254819D01*
X95911904Y-61154819D02*
X95340476Y-61154819D01*
X95626190Y-62154819D02*
X95626190Y-61154819D01*
X95007142Y-62154819D02*
X95007142Y-61154819D01*
X95007142Y-61154819D02*
X94626190Y-61154819D01*
X94626190Y-61154819D02*
X94530952Y-61202438D01*
X94530952Y-61202438D02*
X94483333Y-61250057D01*
X94483333Y-61250057D02*
X94435714Y-61345295D01*
X94435714Y-61345295D02*
X94435714Y-61488152D01*
X94435714Y-61488152D02*
X94483333Y-61583390D01*
X94483333Y-61583390D02*
X94530952Y-61631009D01*
X94530952Y-61631009D02*
X94626190Y-61678628D01*
X94626190Y-61678628D02*
X95007142Y-61678628D01*
X93483333Y-62154819D02*
X94054761Y-62154819D01*
X93769047Y-62154819D02*
X93769047Y-61154819D01*
X93769047Y-61154819D02*
X93864285Y-61297676D01*
X93864285Y-61297676D02*
X93959523Y-61392914D01*
X93959523Y-61392914D02*
X94054761Y-61440533D01*
X78561904Y-63754819D02*
X77990476Y-63754819D01*
X78276190Y-64754819D02*
X78276190Y-63754819D01*
X77657142Y-64754819D02*
X77657142Y-63754819D01*
X77657142Y-63754819D02*
X77276190Y-63754819D01*
X77276190Y-63754819D02*
X77180952Y-63802438D01*
X77180952Y-63802438D02*
X77133333Y-63850057D01*
X77133333Y-63850057D02*
X77085714Y-63945295D01*
X77085714Y-63945295D02*
X77085714Y-64088152D01*
X77085714Y-64088152D02*
X77133333Y-64183390D01*
X77133333Y-64183390D02*
X77180952Y-64231009D01*
X77180952Y-64231009D02*
X77276190Y-64278628D01*
X77276190Y-64278628D02*
X77657142Y-64278628D01*
X76180952Y-63754819D02*
X76657142Y-63754819D01*
X76657142Y-63754819D02*
X76704761Y-64231009D01*
X76704761Y-64231009D02*
X76657142Y-64183390D01*
X76657142Y-64183390D02*
X76561904Y-64135771D01*
X76561904Y-64135771D02*
X76323809Y-64135771D01*
X76323809Y-64135771D02*
X76228571Y-64183390D01*
X76228571Y-64183390D02*
X76180952Y-64231009D01*
X76180952Y-64231009D02*
X76133333Y-64326247D01*
X76133333Y-64326247D02*
X76133333Y-64564342D01*
X76133333Y-64564342D02*
X76180952Y-64659580D01*
X76180952Y-64659580D02*
X76228571Y-64707200D01*
X76228571Y-64707200D02*
X76323809Y-64754819D01*
X76323809Y-64754819D02*
X76561904Y-64754819D01*
X76561904Y-64754819D02*
X76657142Y-64707200D01*
X76657142Y-64707200D02*
X76704761Y-64659580D01*
X95861904Y-42654819D02*
X95290476Y-42654819D01*
X95576190Y-43654819D02*
X95576190Y-42654819D01*
X94957142Y-43654819D02*
X94957142Y-42654819D01*
X94957142Y-42654819D02*
X94576190Y-42654819D01*
X94576190Y-42654819D02*
X94480952Y-42702438D01*
X94480952Y-42702438D02*
X94433333Y-42750057D01*
X94433333Y-42750057D02*
X94385714Y-42845295D01*
X94385714Y-42845295D02*
X94385714Y-42988152D01*
X94385714Y-42988152D02*
X94433333Y-43083390D01*
X94433333Y-43083390D02*
X94480952Y-43131009D01*
X94480952Y-43131009D02*
X94576190Y-43178628D01*
X94576190Y-43178628D02*
X94957142Y-43178628D01*
X93528571Y-42654819D02*
X93719047Y-42654819D01*
X93719047Y-42654819D02*
X93814285Y-42702438D01*
X93814285Y-42702438D02*
X93861904Y-42750057D01*
X93861904Y-42750057D02*
X93957142Y-42892914D01*
X93957142Y-42892914D02*
X94004761Y-43083390D01*
X94004761Y-43083390D02*
X94004761Y-43464342D01*
X94004761Y-43464342D02*
X93957142Y-43559580D01*
X93957142Y-43559580D02*
X93909523Y-43607200D01*
X93909523Y-43607200D02*
X93814285Y-43654819D01*
X93814285Y-43654819D02*
X93623809Y-43654819D01*
X93623809Y-43654819D02*
X93528571Y-43607200D01*
X93528571Y-43607200D02*
X93480952Y-43559580D01*
X93480952Y-43559580D02*
X93433333Y-43464342D01*
X93433333Y-43464342D02*
X93433333Y-43226247D01*
X93433333Y-43226247D02*
X93480952Y-43131009D01*
X93480952Y-43131009D02*
X93528571Y-43083390D01*
X93528571Y-43083390D02*
X93623809Y-43035771D01*
X93623809Y-43035771D02*
X93814285Y-43035771D01*
X93814285Y-43035771D02*
X93909523Y-43083390D01*
X93909523Y-43083390D02*
X93957142Y-43131009D01*
X93957142Y-43131009D02*
X94004761Y-43226247D01*
X55561904Y-10654819D02*
X54990476Y-10654819D01*
X55276190Y-11654819D02*
X55276190Y-10654819D01*
X54657142Y-11654819D02*
X54657142Y-10654819D01*
X54657142Y-10654819D02*
X54276190Y-10654819D01*
X54276190Y-10654819D02*
X54180952Y-10702438D01*
X54180952Y-10702438D02*
X54133333Y-10750057D01*
X54133333Y-10750057D02*
X54085714Y-10845295D01*
X54085714Y-10845295D02*
X54085714Y-10988152D01*
X54085714Y-10988152D02*
X54133333Y-11083390D01*
X54133333Y-11083390D02*
X54180952Y-11131009D01*
X54180952Y-11131009D02*
X54276190Y-11178628D01*
X54276190Y-11178628D02*
X54657142Y-11178628D01*
X53228571Y-10988152D02*
X53228571Y-11654819D01*
X53466666Y-10607200D02*
X53704761Y-11321485D01*
X53704761Y-11321485D02*
X53085714Y-11321485D01*
X26911904Y-34254819D02*
X26340476Y-34254819D01*
X26626190Y-35254819D02*
X26626190Y-34254819D01*
X26007142Y-35254819D02*
X26007142Y-34254819D01*
X26007142Y-34254819D02*
X25626190Y-34254819D01*
X25626190Y-34254819D02*
X25530952Y-34302438D01*
X25530952Y-34302438D02*
X25483333Y-34350057D01*
X25483333Y-34350057D02*
X25435714Y-34445295D01*
X25435714Y-34445295D02*
X25435714Y-34588152D01*
X25435714Y-34588152D02*
X25483333Y-34683390D01*
X25483333Y-34683390D02*
X25530952Y-34731009D01*
X25530952Y-34731009D02*
X25626190Y-34778628D01*
X25626190Y-34778628D02*
X26007142Y-34778628D01*
X25054761Y-34350057D02*
X25007142Y-34302438D01*
X25007142Y-34302438D02*
X24911904Y-34254819D01*
X24911904Y-34254819D02*
X24673809Y-34254819D01*
X24673809Y-34254819D02*
X24578571Y-34302438D01*
X24578571Y-34302438D02*
X24530952Y-34350057D01*
X24530952Y-34350057D02*
X24483333Y-34445295D01*
X24483333Y-34445295D02*
X24483333Y-34540533D01*
X24483333Y-34540533D02*
X24530952Y-34683390D01*
X24530952Y-34683390D02*
X25102380Y-35254819D01*
X25102380Y-35254819D02*
X24483333Y-35254819D01*
X72861904Y-26654819D02*
X72290476Y-26654819D01*
X72576190Y-27654819D02*
X72576190Y-26654819D01*
X71957142Y-27654819D02*
X71957142Y-26654819D01*
X71957142Y-26654819D02*
X71576190Y-26654819D01*
X71576190Y-26654819D02*
X71480952Y-26702438D01*
X71480952Y-26702438D02*
X71433333Y-26750057D01*
X71433333Y-26750057D02*
X71385714Y-26845295D01*
X71385714Y-26845295D02*
X71385714Y-26988152D01*
X71385714Y-26988152D02*
X71433333Y-27083390D01*
X71433333Y-27083390D02*
X71480952Y-27131009D01*
X71480952Y-27131009D02*
X71576190Y-27178628D01*
X71576190Y-27178628D02*
X71957142Y-27178628D01*
X70528571Y-26654819D02*
X70719047Y-26654819D01*
X70719047Y-26654819D02*
X70814285Y-26702438D01*
X70814285Y-26702438D02*
X70861904Y-26750057D01*
X70861904Y-26750057D02*
X70957142Y-26892914D01*
X70957142Y-26892914D02*
X71004761Y-27083390D01*
X71004761Y-27083390D02*
X71004761Y-27464342D01*
X71004761Y-27464342D02*
X70957142Y-27559580D01*
X70957142Y-27559580D02*
X70909523Y-27607200D01*
X70909523Y-27607200D02*
X70814285Y-27654819D01*
X70814285Y-27654819D02*
X70623809Y-27654819D01*
X70623809Y-27654819D02*
X70528571Y-27607200D01*
X70528571Y-27607200D02*
X70480952Y-27559580D01*
X70480952Y-27559580D02*
X70433333Y-27464342D01*
X70433333Y-27464342D02*
X70433333Y-27226247D01*
X70433333Y-27226247D02*
X70480952Y-27131009D01*
X70480952Y-27131009D02*
X70528571Y-27083390D01*
X70528571Y-27083390D02*
X70623809Y-27035771D01*
X70623809Y-27035771D02*
X70814285Y-27035771D01*
X70814285Y-27035771D02*
X70909523Y-27083390D01*
X70909523Y-27083390D02*
X70957142Y-27131009D01*
X70957142Y-27131009D02*
X71004761Y-27226247D01*
X49911904Y-29154819D02*
X49340476Y-29154819D01*
X49626190Y-30154819D02*
X49626190Y-29154819D01*
X49007142Y-30154819D02*
X49007142Y-29154819D01*
X49007142Y-29154819D02*
X48626190Y-29154819D01*
X48626190Y-29154819D02*
X48530952Y-29202438D01*
X48530952Y-29202438D02*
X48483333Y-29250057D01*
X48483333Y-29250057D02*
X48435714Y-29345295D01*
X48435714Y-29345295D02*
X48435714Y-29488152D01*
X48435714Y-29488152D02*
X48483333Y-29583390D01*
X48483333Y-29583390D02*
X48530952Y-29631009D01*
X48530952Y-29631009D02*
X48626190Y-29678628D01*
X48626190Y-29678628D02*
X49007142Y-29678628D01*
X47483333Y-30154819D02*
X48054761Y-30154819D01*
X47769047Y-30154819D02*
X47769047Y-29154819D01*
X47769047Y-29154819D02*
X47864285Y-29297676D01*
X47864285Y-29297676D02*
X47959523Y-29392914D01*
X47959523Y-29392914D02*
X48054761Y-29440533D01*
X9561904Y-61054819D02*
X8990476Y-61054819D01*
X9276190Y-62054819D02*
X9276190Y-61054819D01*
X8657142Y-62054819D02*
X8657142Y-61054819D01*
X8657142Y-61054819D02*
X8276190Y-61054819D01*
X8276190Y-61054819D02*
X8180952Y-61102438D01*
X8180952Y-61102438D02*
X8133333Y-61150057D01*
X8133333Y-61150057D02*
X8085714Y-61245295D01*
X8085714Y-61245295D02*
X8085714Y-61388152D01*
X8085714Y-61388152D02*
X8133333Y-61483390D01*
X8133333Y-61483390D02*
X8180952Y-61531009D01*
X8180952Y-61531009D02*
X8276190Y-61578628D01*
X8276190Y-61578628D02*
X8657142Y-61578628D01*
X7752380Y-61054819D02*
X7085714Y-61054819D01*
X7085714Y-61054819D02*
X7514285Y-62054819D01*
X55561904Y-26654819D02*
X54990476Y-26654819D01*
X55276190Y-27654819D02*
X55276190Y-26654819D01*
X54657142Y-27654819D02*
X54657142Y-26654819D01*
X54657142Y-26654819D02*
X54276190Y-26654819D01*
X54276190Y-26654819D02*
X54180952Y-26702438D01*
X54180952Y-26702438D02*
X54133333Y-26750057D01*
X54133333Y-26750057D02*
X54085714Y-26845295D01*
X54085714Y-26845295D02*
X54085714Y-26988152D01*
X54085714Y-26988152D02*
X54133333Y-27083390D01*
X54133333Y-27083390D02*
X54180952Y-27131009D01*
X54180952Y-27131009D02*
X54276190Y-27178628D01*
X54276190Y-27178628D02*
X54657142Y-27178628D01*
X53228571Y-26988152D02*
X53228571Y-27654819D01*
X53466666Y-26607200D02*
X53704761Y-27321485D01*
X53704761Y-27321485D02*
X53085714Y-27321485D01*
X78561904Y-47754819D02*
X77990476Y-47754819D01*
X78276190Y-48754819D02*
X78276190Y-47754819D01*
X77657142Y-48754819D02*
X77657142Y-47754819D01*
X77657142Y-47754819D02*
X77276190Y-47754819D01*
X77276190Y-47754819D02*
X77180952Y-47802438D01*
X77180952Y-47802438D02*
X77133333Y-47850057D01*
X77133333Y-47850057D02*
X77085714Y-47945295D01*
X77085714Y-47945295D02*
X77085714Y-48088152D01*
X77085714Y-48088152D02*
X77133333Y-48183390D01*
X77133333Y-48183390D02*
X77180952Y-48231009D01*
X77180952Y-48231009D02*
X77276190Y-48278628D01*
X77276190Y-48278628D02*
X77657142Y-48278628D01*
X76180952Y-47754819D02*
X76657142Y-47754819D01*
X76657142Y-47754819D02*
X76704761Y-48231009D01*
X76704761Y-48231009D02*
X76657142Y-48183390D01*
X76657142Y-48183390D02*
X76561904Y-48135771D01*
X76561904Y-48135771D02*
X76323809Y-48135771D01*
X76323809Y-48135771D02*
X76228571Y-48183390D01*
X76228571Y-48183390D02*
X76180952Y-48231009D01*
X76180952Y-48231009D02*
X76133333Y-48326247D01*
X76133333Y-48326247D02*
X76133333Y-48564342D01*
X76133333Y-48564342D02*
X76180952Y-48659580D01*
X76180952Y-48659580D02*
X76228571Y-48707200D01*
X76228571Y-48707200D02*
X76323809Y-48754819D01*
X76323809Y-48754819D02*
X76561904Y-48754819D01*
X76561904Y-48754819D02*
X76657142Y-48707200D01*
X76657142Y-48707200D02*
X76704761Y-48659580D01*
X72861904Y-42654819D02*
X72290476Y-42654819D01*
X72576190Y-43654819D02*
X72576190Y-42654819D01*
X71957142Y-43654819D02*
X71957142Y-42654819D01*
X71957142Y-42654819D02*
X71576190Y-42654819D01*
X71576190Y-42654819D02*
X71480952Y-42702438D01*
X71480952Y-42702438D02*
X71433333Y-42750057D01*
X71433333Y-42750057D02*
X71385714Y-42845295D01*
X71385714Y-42845295D02*
X71385714Y-42988152D01*
X71385714Y-42988152D02*
X71433333Y-43083390D01*
X71433333Y-43083390D02*
X71480952Y-43131009D01*
X71480952Y-43131009D02*
X71576190Y-43178628D01*
X71576190Y-43178628D02*
X71957142Y-43178628D01*
X70528571Y-42654819D02*
X70719047Y-42654819D01*
X70719047Y-42654819D02*
X70814285Y-42702438D01*
X70814285Y-42702438D02*
X70861904Y-42750057D01*
X70861904Y-42750057D02*
X70957142Y-42892914D01*
X70957142Y-42892914D02*
X71004761Y-43083390D01*
X71004761Y-43083390D02*
X71004761Y-43464342D01*
X71004761Y-43464342D02*
X70957142Y-43559580D01*
X70957142Y-43559580D02*
X70909523Y-43607200D01*
X70909523Y-43607200D02*
X70814285Y-43654819D01*
X70814285Y-43654819D02*
X70623809Y-43654819D01*
X70623809Y-43654819D02*
X70528571Y-43607200D01*
X70528571Y-43607200D02*
X70480952Y-43559580D01*
X70480952Y-43559580D02*
X70433333Y-43464342D01*
X70433333Y-43464342D02*
X70433333Y-43226247D01*
X70433333Y-43226247D02*
X70480952Y-43131009D01*
X70480952Y-43131009D02*
X70528571Y-43083390D01*
X70528571Y-43083390D02*
X70623809Y-43035771D01*
X70623809Y-43035771D02*
X70814285Y-43035771D01*
X70814285Y-43035771D02*
X70909523Y-43083390D01*
X70909523Y-43083390D02*
X70957142Y-43131009D01*
X70957142Y-43131009D02*
X71004761Y-43226247D01*
D11*
%TO.C,KiKit_FID_B_2*%
X98500000Y-2500000D02*
G75*
G02*
X97500000Y-2500000I-500000J0D01*
G01*
X97500000Y-2500000D02*
G75*
G02*
X98500000Y-2500000I500000J0D01*
G01*
%TO.C,KiKit_FID_B_1*%
X5500000Y-2500000D02*
G75*
G02*
X4500000Y-2500000I-500000J0D01*
G01*
X4500000Y-2500000D02*
G75*
G02*
X5500000Y-2500000I500000J0D01*
G01*
%TO.C,KiKit_FID_B_3*%
X5500000Y-75500000D02*
G75*
G02*
X4500000Y-75500000I-500000J0D01*
G01*
X4500000Y-75500000D02*
G75*
G02*
X5500000Y-75500000I500000J0D01*
G01*
%TD*%
M02*
