%TF.GenerationSoftware,KiCad,Pcbnew,8.0.9-8.0.9-0~ubuntu24.04.1*%
%TF.CreationDate,2025-07-21T09:14:07-04:00*%
%TF.ProjectId,panel,70616e65-6c2e-46b6-9963-61645f706362,0.1.X*%
%TF.SameCoordinates,Original*%
%TF.FileFunction,Profile,NP*%
%FSLAX46Y46*%
G04 Gerber Fmt 4.6, Leading zero omitted, Abs format (unit mm)*
G04 Created by KiCad (PCBNEW 8.0.9-8.0.9-0~ubuntu24.04.1) date 2025-07-21 09:14:07*
%MOMM*%
%LPD*%
G01*
G04 APERTURE LIST*
%TA.AperFunction,Profile*%
%ADD10C,0.100000*%
%TD*%
G04 APERTURE END LIST*
D10*
X5863081Y-24510906D02*
X5912178Y-24505397D01*
X19022919Y-5793911D02*
X19034066Y-5746543D01*
X27584283Y-56592497D02*
X27629433Y-56573119D01*
X19965764Y-71001552D02*
X19978945Y-71000971D01*
X96102833Y-57062477D02*
X96125415Y-57018953D01*
X27001235Y-52523823D02*
X27000000Y-52474146D01*
X37453610Y-71110879D02*
X37496011Y-71133834D01*
X27455851Y-37336930D02*
X27415418Y-37309190D01*
X27924832Y-40504258D02*
X27977895Y-40501542D01*
X88893116Y-71007547D02*
X88942081Y-71003460D01*
X52763781Y-56857361D02*
X52794420Y-56895643D01*
X27014042Y-57344303D02*
X27022918Y-57295979D01*
X75998764Y-9476176D02*
X76000000Y-9525853D01*
X52182096Y-69481575D02*
X52180472Y-69481877D01*
X75177988Y-56517577D02*
X75228985Y-56528291D01*
X50540531Y-21386097D02*
X50497574Y-21362454D01*
X50000000Y-9530329D02*
X50001719Y-9471719D01*
X96629664Y-24573077D02*
X96675625Y-24555993D01*
X97330143Y-37442870D02*
X97283163Y-37457973D01*
X75795194Y-69103168D02*
X75764548Y-69141572D01*
X19194402Y-72591295D02*
X19166236Y-72550776D01*
X14944032Y-71675599D02*
X14958840Y-71722343D01*
X73822011Y-53482422D02*
X73771014Y-53471708D01*
X75764548Y-69141572D02*
X75732051Y-69178423D01*
X52021066Y-24501517D02*
X52076167Y-24504393D01*
X50987744Y-40501300D02*
X51012271Y-40501000D01*
X27540141Y-24614072D02*
X27584283Y-24592497D01*
X73455302Y-40663596D02*
X73497112Y-40637791D01*
X6768046Y-24862370D02*
X6797799Y-24899995D01*
X96123426Y-20977613D02*
X96101442Y-20934884D01*
X29965378Y-41245845D02*
X29976708Y-41293551D01*
X5534516Y-40615984D02*
X5578774Y-40594119D01*
X27868974Y-21489693D02*
X27866180Y-21489313D01*
X37997811Y-5960242D02*
X37998506Y-6009602D01*
X50302931Y-37214360D02*
X50268687Y-37179265D01*
X59976945Y-71000002D02*
X60021033Y-71000970D01*
X5841766Y-53485907D02*
X5793911Y-53477080D01*
X97995116Y-52598041D02*
X97989022Y-52647069D01*
X29951721Y-41198751D02*
X29965378Y-41245845D01*
X27034611Y-68754062D02*
X27023281Y-68706355D01*
X52897304Y-9062441D02*
X52917728Y-9107032D01*
X29661823Y-53247113D02*
X29624261Y-53278785D01*
X5813733Y-56518854D02*
X5862471Y-56510898D01*
X14992477Y-72109678D02*
X14986005Y-72157918D01*
X50064207Y-36847415D02*
X50048256Y-36801048D01*
X5756262Y-72970060D02*
X5709005Y-72956983D01*
X97969607Y-52743921D02*
X97956333Y-52791509D01*
X7000000Y-57525853D02*
X7000000Y-68474146D01*
X97556014Y-5168362D02*
X97596103Y-5196595D01*
X29918227Y-68891220D02*
X29897853Y-68935930D01*
X97989349Y-25355159D02*
X97995261Y-25403461D01*
X50176085Y-40936695D02*
X50204805Y-40896831D01*
X50675481Y-56555984D02*
X50722316Y-56541134D01*
X50150105Y-69023410D02*
X50125415Y-68981046D01*
X5018906Y-68692796D02*
X5010650Y-68644840D01*
X60123005Y-6991029D02*
X60072167Y-6996088D01*
X29021066Y-24501517D02*
X29076167Y-24504393D01*
X52182096Y-53481575D02*
X52180472Y-53481877D01*
X5010650Y-52644840D02*
X5004738Y-52596538D01*
X5001185Y-36548006D02*
X5000000Y-36499347D01*
X50150105Y-37023410D02*
X50125415Y-36981046D01*
X73267879Y-8821712D02*
X73302140Y-8786505D01*
X52875224Y-20979842D02*
X52850542Y-21022346D01*
X65409423Y-5193727D02*
X65449339Y-5165893D01*
X42936224Y-71003291D02*
X42965764Y-71001552D01*
X96989112Y-53498312D02*
X96939728Y-53496502D01*
X42166135Y-72550492D02*
X42140009Y-72508607D01*
X97989349Y-57355159D02*
X97995261Y-57403461D01*
X30000000Y-25525853D02*
X30000000Y-36469670D01*
X82976945Y-71000002D02*
X83021033Y-71000970D01*
X97800963Y-37098030D02*
X97770437Y-37136803D01*
X83874586Y-6481215D02*
X83849896Y-6523578D01*
X6976730Y-52706249D02*
X6965400Y-52753955D01*
X5716836Y-8542026D02*
X5764504Y-8529262D01*
X96891368Y-53492373D02*
X96843742Y-53485976D01*
X5097193Y-41070615D02*
X5119527Y-41026591D01*
X5077186Y-25115572D02*
X5097349Y-25070469D01*
X75764609Y-21141438D02*
X75732120Y-21178287D01*
X27102146Y-41064069D02*
X27124693Y-41020415D01*
X73102844Y-52937628D02*
X73082425Y-52893049D01*
X6430039Y-24599166D02*
X6472816Y-24620870D01*
X14970737Y-5764504D02*
X14981132Y-5812744D01*
X52415363Y-21407782D02*
X52370178Y-21427155D01*
X14513556Y-6855870D02*
X14471706Y-6879629D01*
X29897881Y-20935814D02*
X29875340Y-20979463D01*
X52075167Y-37495741D02*
X52022104Y-37498457D01*
X96002440Y-68548050D02*
X96001235Y-68523823D01*
X75277683Y-37458865D02*
X75230175Y-37471394D01*
X14926948Y-71629638D02*
X14944032Y-71675599D01*
X5043011Y-6290142D02*
X5029935Y-6242888D01*
X27204805Y-40896831D02*
X27235451Y-40858427D01*
X96584596Y-40592395D02*
X96629664Y-40573077D01*
X42018072Y-6179766D02*
X42010517Y-6132174D01*
X5076044Y-5616699D02*
X5095914Y-5571872D01*
X5938480Y-53496524D02*
X5889993Y-53492394D01*
X6487164Y-40628681D02*
X6530513Y-40654382D01*
X5579612Y-24593911D02*
X5624951Y-24574286D01*
X96001235Y-68523823D02*
X96000000Y-68474146D01*
X50769783Y-69471311D02*
X50722369Y-69458815D01*
X97136918Y-53489093D02*
X97087821Y-53494602D01*
X97711590Y-56798457D02*
X97744941Y-56833893D01*
X96703479Y-69453174D02*
X96657956Y-69437788D01*
X27866206Y-8510716D02*
X27915045Y-8505298D01*
X75951737Y-25198895D02*
X75965394Y-25245989D01*
X50022918Y-41295979D02*
X50034159Y-41248149D01*
X50125415Y-20981046D02*
X50102833Y-20937522D01*
X6277659Y-37458814D02*
X6230245Y-37471310D01*
X29459858Y-37385927D02*
X29415716Y-37407502D01*
X52850542Y-21022346D02*
X52823800Y-21063583D01*
X29230212Y-24528633D02*
X29277626Y-24541129D01*
X5170847Y-24941901D02*
X5199482Y-24901641D01*
X29012255Y-21498699D02*
X28987728Y-21499000D01*
X998844Y-563D02*
X990339Y-8660D01*
X50124659Y-9020536D02*
X50149319Y-8978048D01*
X50082414Y-52892943D02*
X50064207Y-52847415D01*
X52917579Y-25107001D02*
X52935786Y-25152529D01*
X27822011Y-53482422D02*
X27771014Y-53471708D01*
X29661138Y-8752212D02*
X29697063Y-8785584D01*
X29075167Y-69495741D02*
X29022104Y-69498457D01*
X96064207Y-25152584D02*
X96082414Y-25107056D01*
X27455302Y-24663596D02*
X27497112Y-24637791D01*
X73000000Y-36474146D02*
X73000000Y-25530329D01*
X75823914Y-37063304D02*
X75795194Y-37103168D01*
X6825711Y-24939005D02*
X6851719Y-24979310D01*
X14564536Y-71176820D02*
X14604276Y-71205543D01*
X14981132Y-5812744D02*
X14989132Y-5861439D01*
X52324518Y-37444015D02*
X52277683Y-37458865D01*
X97773266Y-71366109D02*
X97803429Y-71404763D01*
X19302823Y-71285580D02*
X19338747Y-71252208D01*
X83935793Y-6347583D02*
X83917586Y-6393111D01*
X14958840Y-71722343D02*
X14971337Y-71769757D01*
X97989022Y-52647069D02*
X97980513Y-52695735D01*
X75370474Y-8573041D02*
X75415541Y-8592360D01*
X96201326Y-53098780D02*
X96173425Y-53059656D01*
X29992947Y-9396337D02*
X29997801Y-9456827D01*
X52823144Y-56935382D02*
X52849883Y-56976483D01*
X88759605Y-5029502D02*
X88807113Y-5018915D01*
X73540141Y-24614072D02*
X73584283Y-24592497D01*
X27375643Y-8721353D02*
X27414708Y-8691565D01*
X83623626Y-6779470D02*
X83584604Y-6809160D01*
X52074095Y-21495889D02*
X52023362Y-21498426D01*
X7000086Y-71000999D02*
X13974074Y-71000003D01*
X88333723Y-5255168D02*
X88370744Y-5223570D01*
X42034066Y-5746543D02*
X42047506Y-5699774D01*
X19057129Y-72330143D02*
X19042026Y-72283163D01*
X96123426Y-52977613D02*
X96101442Y-52934884D01*
X52850640Y-53022076D02*
X52823914Y-53063304D01*
X97741242Y-71328981D02*
X97773266Y-71366109D01*
X96023269Y-9293750D02*
X96034599Y-9246044D01*
X97012889Y-40501711D02*
X97061519Y-40503475D01*
X73102844Y-68937628D02*
X73082425Y-68893049D01*
X37731388Y-6679286D02*
X37697144Y-6714381D01*
X97831631Y-6555055D02*
X97803396Y-6595145D01*
X28987728Y-69499000D02*
X28012271Y-69499000D01*
X29415716Y-69407502D02*
X29370566Y-69426880D01*
X73102118Y-9064185D02*
X73124659Y-9020536D01*
X5001185Y-52548006D02*
X5000000Y-52499347D01*
X73176855Y-53064617D02*
X73150116Y-53023516D01*
X27769824Y-56528605D02*
X27817903Y-56518424D01*
X19526655Y-72880552D02*
X19483799Y-72856087D01*
X96843742Y-69485976D02*
X96796480Y-69477296D01*
X29965840Y-68751850D02*
X29952262Y-68799069D01*
X50268687Y-21179265D02*
X50236207Y-21142533D01*
X6917585Y-52892943D02*
X6897166Y-52937522D01*
X42965764Y-71001552D02*
X42978945Y-71000971D01*
X52874579Y-25018898D02*
X52897160Y-25062422D01*
X30000000Y-36469670D02*
X29998280Y-36528280D01*
X98000000Y-57500652D02*
X98000000Y-68499370D01*
X96101442Y-68934884D02*
X96081539Y-68891147D01*
X75823914Y-69063304D02*
X75795194Y-69103168D01*
X6897195Y-36937521D02*
X6874613Y-36981045D01*
X50455830Y-37336731D02*
X50415397Y-37308992D01*
X97590419Y-69305971D02*
X97549821Y-69334125D01*
X6298489Y-56547414D02*
X6344046Y-56562925D01*
X73415408Y-53309097D02*
X73376385Y-53279407D01*
X97049988Y-6997829D02*
X97000956Y-6999031D01*
X53000000Y-41525853D02*
X53000000Y-52469670D01*
X60653102Y-71245241D02*
X60688788Y-71277664D01*
X73924832Y-56504258D02*
X73977895Y-56501542D01*
X73047737Y-41200930D02*
X73063621Y-41154436D01*
X73868974Y-21489693D02*
X73866037Y-21489294D01*
X29182242Y-24518477D02*
X29230212Y-24528633D01*
X75230175Y-53471394D02*
X75182096Y-53481575D01*
X5528074Y-72882039D02*
X5485411Y-72857870D01*
X50987744Y-56501300D02*
X51012271Y-56501000D01*
X65902350Y-72995187D02*
X65853675Y-72989182D01*
X83028106Y-71001282D02*
X83069873Y-71003999D01*
X5296359Y-40790298D02*
X5332297Y-40756455D01*
X52012255Y-69498699D02*
X51987728Y-69499000D01*
X74987728Y-8501000D02*
X75012255Y-8501300D01*
X37849970Y-6523431D02*
X37823231Y-6564532D01*
X65264687Y-5323445D02*
X65298457Y-5288409D01*
X27007052Y-68603662D02*
X27002198Y-68543172D01*
X42363098Y-72770286D02*
X42325875Y-72737863D01*
X27584607Y-53407710D02*
X27540542Y-53386203D01*
X52794569Y-8895713D02*
X52823293Y-8935453D01*
X52459463Y-24613848D02*
X52502420Y-24637491D01*
X5116215Y-20967004D02*
X5094490Y-20923461D01*
X50629283Y-8573244D02*
X50675322Y-8556104D01*
X96415397Y-56691007D02*
X96455830Y-56663268D01*
X60997681Y-71964219D02*
X60998288Y-72012889D01*
X50629664Y-53426922D02*
X50584596Y-53407604D01*
X96210130Y-37110451D02*
X96180226Y-37069676D01*
X73776165Y-37473088D02*
X73727201Y-37460464D01*
X52661823Y-69247113D02*
X52624261Y-69278785D01*
X29324518Y-37444015D02*
X29277683Y-37458865D01*
X5193727Y-21090576D02*
X5165893Y-21050660D01*
X88607031Y-6917609D02*
X88562451Y-6897191D01*
X73819527Y-56518122D02*
X73872002Y-56509789D01*
X6763821Y-21142531D02*
X6731340Y-21179264D01*
X97375048Y-69425713D02*
X97328793Y-69443073D01*
X75997801Y-25456827D02*
X75998764Y-25476176D01*
X83333462Y-72942475D02*
X83287219Y-72957627D01*
X50236207Y-37142533D02*
X50205568Y-37104250D01*
X75897853Y-68935930D02*
X75875306Y-68979584D01*
X5226762Y-72634758D02*
X5196595Y-72596103D01*
X60423461Y-72905509D02*
X60378911Y-72925088D01*
X96892450Y-37492734D02*
X96843542Y-37486162D01*
X52661609Y-21247418D02*
X52624025Y-21279091D01*
X14836757Y-71455804D02*
X14862479Y-71497549D01*
X73022918Y-25295979D02*
X73034159Y-25248149D01*
X29965840Y-52751850D02*
X29952262Y-52799069D01*
X65712780Y-5042372D02*
X65759706Y-5029489D01*
X97514588Y-5142129D02*
X97556014Y-5168362D01*
X27727201Y-37460464D02*
X27678938Y-37445378D01*
X50414811Y-24691427D02*
X50455302Y-24663596D01*
X51018405Y-37499000D02*
X50981618Y-37498322D01*
X37775570Y-5369862D02*
X37805701Y-5408964D01*
X75459457Y-56613796D02*
X75502414Y-56637439D01*
X27014042Y-41344303D02*
X27022918Y-41295979D01*
X0Y-76988752D02*
X288Y-77000490D01*
X42855159Y-5010650D02*
X42903461Y-5004738D01*
X27236218Y-53142638D02*
X27205579Y-53104356D01*
X75917574Y-57106950D02*
X75935781Y-57152478D01*
X96526555Y-69378768D02*
X96484815Y-69354960D01*
X6347550Y-8564127D02*
X6394498Y-8582943D01*
X73540542Y-69386203D02*
X73497585Y-69362560D01*
X60763794Y-6642701D02*
X60731313Y-6679433D01*
X97923965Y-71617556D02*
X97941609Y-71663301D01*
X42818630Y-6981682D02*
X42771474Y-6971761D01*
X6997539Y-9451549D02*
X6998764Y-9476176D01*
X53000000Y-57525853D02*
X53000000Y-68469670D01*
X98000000Y-41500652D02*
X98000000Y-52499370D01*
X83735312Y-72676554D02*
X83701542Y-72711590D01*
X98000000Y-25500652D02*
X98000000Y-36499637D01*
X5029489Y-52740293D02*
X5018906Y-52692796D01*
X6668452Y-24758653D02*
X6703298Y-24791617D01*
X83970790Y-5765447D02*
X83981145Y-5813733D01*
X19232663Y-5360085D02*
X19264687Y-5323445D01*
X51987728Y-37499000D02*
X51018405Y-37499000D01*
X42003236Y-71941063D02*
X42007414Y-71891876D01*
X96048256Y-41198951D02*
X96064207Y-41152584D01*
X75661823Y-69247113D02*
X75624261Y-69278785D01*
X97834106Y-24949339D02*
X97859964Y-24990562D01*
X42010885Y-72138072D02*
X42005322Y-72089022D01*
X65125265Y-71518901D02*
X65149955Y-71476538D01*
X97235495Y-37470737D02*
X97187255Y-37481132D01*
X6998764Y-57476176D02*
X7000000Y-57525853D01*
X73497112Y-24637791D02*
X73540141Y-24614072D01*
X65059596Y-72337291D02*
X65044225Y-72290718D01*
X50082414Y-36892943D02*
X50064207Y-36847415D01*
X96866164Y-40510743D02*
X96914898Y-40505338D01*
X60429450Y-5097267D02*
X60473486Y-5119617D01*
X29073994Y-40504096D02*
X29124305Y-40509168D01*
X52624261Y-53278785D02*
X52585188Y-53308572D01*
X97521265Y-8647807D02*
X97562177Y-8674154D01*
X5653715Y-37436791D02*
X5608475Y-37418865D01*
X6851719Y-24979310D02*
X6875761Y-25020817D01*
X52370566Y-53426880D02*
X52324518Y-53444015D01*
X14516200Y-5143912D02*
X14557796Y-5170463D01*
X5258799Y-71329070D02*
X5292611Y-71293557D01*
X19422316Y-6813975D02*
X19383708Y-6785139D01*
X50497112Y-24637791D02*
X50540141Y-24614072D01*
X75127997Y-53490210D02*
X75075167Y-53495741D01*
X6396858Y-40583993D02*
X6442575Y-40605198D01*
X50414708Y-8691565D02*
X50455189Y-8663734D01*
X6993429Y-36600735D02*
X6986204Y-36655115D01*
X96817753Y-40518532D02*
X96866164Y-40510743D01*
X29584591Y-56690902D02*
X29623614Y-56720592D01*
X51018405Y-21499000D02*
X50981618Y-21498322D01*
X14986005Y-72157918D02*
X14977191Y-72205787D01*
X97562177Y-24674154D02*
X97601758Y-24702462D01*
X29415716Y-53407502D02*
X29370566Y-53426880D01*
X37230293Y-6971333D02*
X37182323Y-6981488D01*
X37898757Y-72435837D02*
X37876515Y-72479118D01*
X52992445Y-52606993D02*
X52985957Y-52655696D01*
X27063621Y-57154436D02*
X27081772Y-57108779D01*
X83034235Y-6998447D02*
X83021054Y-6999028D01*
X29012255Y-56501300D02*
X29022648Y-56501556D01*
X37192796Y-72981093D02*
X37144840Y-72989349D01*
X50007554Y-57393006D02*
X50014042Y-57344303D01*
X5001203Y-71950948D02*
X5004810Y-71902047D01*
X27540542Y-69386203D02*
X27497585Y-69362560D01*
X37996763Y-6058936D02*
X37992585Y-6108123D01*
X50047737Y-41200930D02*
X50063621Y-41154436D01*
X6993734Y-41400986D02*
X6997539Y-41451549D01*
X88903392Y-5004740D02*
X88951934Y-5001186D01*
X97773237Y-72634758D02*
X97741209Y-72671887D01*
X82976924Y-6999996D02*
X75999878Y-6999000D01*
X73675486Y-21444042D02*
X73629525Y-21426958D01*
X29992294Y-57390448D02*
X29992947Y-57396337D01*
X5076047Y-71617660D02*
X5095918Y-71572833D01*
X5764950Y-40529240D02*
X5813212Y-40518864D01*
X75075167Y-37495741D02*
X75022104Y-37498457D01*
X29370325Y-56572971D02*
X29415392Y-56592289D01*
X5403846Y-6802534D02*
X5365196Y-6772367D01*
X75661282Y-8752232D02*
X75697206Y-8785604D01*
X6432658Y-56600434D02*
X6475506Y-56622345D01*
X96769783Y-40528688D02*
X96817753Y-40518532D01*
X73014042Y-57344303D02*
X73022918Y-57295979D01*
X52324513Y-8555957D02*
X52370474Y-8573041D01*
X27176855Y-69064617D02*
X27150116Y-69023516D01*
X97337529Y-6940642D02*
X97290969Y-6956022D01*
X96102833Y-9062477D02*
X96125415Y-9018953D01*
X52986760Y-41347635D02*
X52993575Y-41400101D01*
X73540141Y-40614072D02*
X73584283Y-40592497D01*
X75965417Y-41245862D02*
X75976749Y-41293581D01*
X50675625Y-69444006D02*
X50629664Y-69426922D01*
X27584601Y-21407658D02*
X27540536Y-21386151D01*
X5492118Y-24639761D02*
X5535298Y-24615754D01*
X19158233Y-6536364D02*
X19133319Y-6495116D01*
X96205568Y-8895749D02*
X96236207Y-8857466D01*
X75502887Y-69362208D02*
X75459858Y-69385927D01*
X19022816Y-71795018D02*
X19034181Y-71746997D01*
X73872002Y-24509789D02*
X73924832Y-24504258D01*
X60321741Y-6945119D02*
X60273003Y-6960394D01*
X96007694Y-9390555D02*
X96014294Y-9341955D01*
X73001719Y-57471719D02*
X73003466Y-57441980D01*
X73012627Y-20649306D02*
X73006265Y-20599013D01*
X50769783Y-53471311D02*
X50722369Y-53458815D01*
X88899264Y-6993429D02*
X88844884Y-6986204D01*
X19325977Y-72738035D02*
X19290403Y-72703834D01*
X50000000Y-68474146D02*
X50000000Y-57530329D01*
X27047737Y-57200930D02*
X27063621Y-57154436D01*
X6997801Y-52543172D02*
X6992947Y-52603662D01*
X5223473Y-21129088D02*
X5193727Y-21090576D01*
X37951819Y-6301070D02*
X37935868Y-6347436D01*
X52697782Y-69213632D02*
X52661823Y-69247113D01*
X50003466Y-41441980D02*
X50007554Y-41393006D01*
X50063621Y-57154436D02*
X50081772Y-57108779D01*
X52998764Y-9476176D02*
X53000000Y-9525853D01*
X60338335Y-5059226D02*
X60384363Y-5077120D01*
X50014042Y-25344303D02*
X50022918Y-25295979D01*
X73722379Y-53458921D02*
X73675635Y-53444112D01*
X19866221Y-6989319D02*
X19818630Y-6981682D01*
X73497112Y-40637791D02*
X73540141Y-40614072D01*
X50235390Y-8858561D02*
X50267879Y-8821712D01*
X83096538Y-72995261D02*
X83048006Y-72998814D01*
X97420387Y-69406088D02*
X97375048Y-69425713D01*
X29977081Y-36704020D02*
X29965840Y-36751850D01*
X19001401Y-71990941D02*
X19003116Y-71941623D01*
X73235451Y-56858427D02*
X73267948Y-56821576D01*
X29794420Y-56895643D02*
X29823144Y-56935382D01*
X5360085Y-37267336D02*
X5323445Y-37235312D01*
X52795194Y-53103168D02*
X52764548Y-53141572D01*
X27376385Y-53279407D02*
X27338867Y-53247838D01*
X50023269Y-52706249D02*
X50014294Y-52658044D01*
X50376374Y-21279301D02*
X50338856Y-21247732D01*
X27125420Y-20981101D02*
X27102839Y-20937577D01*
X42101242Y-5564162D02*
X42123484Y-5520881D01*
X6370335Y-53426922D02*
X6324374Y-53444006D01*
X96367125Y-69271900D02*
X96330708Y-69240549D01*
X65010524Y-6132201D02*
X65005268Y-6084272D01*
X60866541Y-71504667D02*
X60889461Y-71547088D01*
X96081539Y-68891147D02*
X96063762Y-68846503D01*
X14833763Y-5449223D02*
X14859895Y-5491084D01*
X8660Y-990339D02*
X563Y-998844D01*
X97206088Y-8522919D02*
X97253456Y-8534066D01*
X50302931Y-69214360D02*
X50268687Y-69179265D01*
X97940722Y-20838383D02*
X97922813Y-20884427D01*
X83063775Y-6996708D02*
X83034235Y-6998447D01*
X65268537Y-71320683D02*
X65302781Y-71285588D01*
X50267948Y-40821576D02*
X50302217Y-40786367D01*
X5535298Y-24615754D02*
X5579612Y-24593911D01*
X27176866Y-37064710D02*
X27150127Y-37023609D01*
X27769824Y-40528605D02*
X27817903Y-40518424D01*
X29074692Y-56504192D02*
X29126514Y-56509537D01*
X27205589Y-37104449D02*
X27176866Y-37064710D01*
X50629433Y-40573119D02*
X50675481Y-40555984D01*
X73001235Y-20523823D02*
X73000000Y-20474146D01*
X96125415Y-25018953D02*
X96150105Y-24976589D01*
X6689344Y-40777987D02*
X6724906Y-40813695D01*
X75996533Y-68558019D02*
X75992445Y-68606993D01*
X5140035Y-69009437D02*
X5116215Y-68967004D01*
X50914898Y-69494661D02*
X50866164Y-69489256D01*
X6688342Y-8777010D02*
X6724070Y-8812793D01*
X5261964Y-8825977D02*
X5296165Y-8790403D01*
X51987728Y-24501000D02*
X52012255Y-24501300D01*
X66023054Y-6999997D02*
X65978966Y-6999029D01*
X60365733Y-71071236D02*
X60410150Y-71089997D01*
X29951737Y-25198895D02*
X29965394Y-25245989D01*
X19018867Y-72187255D02*
X19010867Y-72138560D01*
X29850640Y-53022076D02*
X29823914Y-53063304D01*
X27149319Y-8978048D02*
X27176038Y-8936823D01*
X76000000Y-52469670D02*
X75998280Y-52528280D01*
X6085101Y-53494661D02*
X6036147Y-53497668D01*
X73001719Y-9471719D02*
X73003462Y-9442046D01*
X19034181Y-71746997D02*
X19047903Y-71699595D01*
X19089600Y-6409258D02*
X19070896Y-6364848D01*
X50014042Y-57344303D02*
X50022918Y-57295979D01*
X5019455Y-41304241D02*
X5030342Y-41256092D01*
X29875306Y-52979584D02*
X29850640Y-53022076D01*
X29992947Y-57396337D02*
X29997801Y-57456827D01*
X96769783Y-24528688D02*
X96817753Y-24518532D01*
X52823800Y-21063583D02*
X52795061Y-21103456D01*
X97136918Y-69489093D02*
X97087821Y-69494602D01*
X29763787Y-24857412D02*
X29794426Y-24895694D01*
X88793724Y-6976754D02*
X88746018Y-6965424D01*
X76000000Y-36469670D02*
X75998280Y-36528280D01*
X27631500Y-37427869D02*
X27584998Y-37407977D01*
X65725554Y-6959751D02*
X65679536Y-6945359D01*
X88174154Y-72562177D02*
X88147807Y-72521265D01*
X50675625Y-37444006D02*
X50629664Y-37426922D01*
X27007700Y-20609500D02*
X27007052Y-20603662D01*
X6819773Y-8930323D02*
X6847574Y-8972560D01*
X97110006Y-24507605D02*
X97158233Y-24514092D01*
X29998280Y-20528280D02*
X29996537Y-20557953D01*
X6998764Y-68523823D02*
X6997801Y-68543172D01*
X19401969Y-72800963D02*
X19363196Y-72770437D01*
X5001203Y-6049182D02*
X5000000Y-6000154D01*
X52952262Y-36799069D02*
X52936378Y-36845563D01*
X29965394Y-25245989D02*
X29976724Y-25293695D01*
X27150116Y-53023516D02*
X27125426Y-52981152D01*
X29585291Y-21308434D02*
X29544810Y-21336265D01*
X65047506Y-5699774D02*
X65063208Y-5653715D01*
X83147098Y-5010967D02*
X83195744Y-5019470D01*
X75763810Y-40857286D02*
X75794449Y-40895568D01*
X73584142Y-8592626D02*
X73629283Y-8573244D01*
X6058936Y-40503236D02*
X6108123Y-40507414D01*
X5004738Y-20596538D02*
X5001185Y-20548006D01*
X50003466Y-25441980D02*
X50007554Y-25393006D01*
X83959945Y-71726310D02*
X83972062Y-71772979D01*
X37884015Y-5534516D02*
X37905880Y-5578774D01*
X60994731Y-71915727D02*
X60997668Y-71963866D01*
X97883784Y-41032995D02*
X97905509Y-41076538D01*
X27987744Y-21498699D02*
X27978933Y-21498482D01*
X14992734Y-6107549D02*
X14986162Y-6156457D01*
X96405007Y-69301464D02*
X96367125Y-69271900D01*
X75823293Y-8935453D02*
X75850032Y-8976554D01*
X52874602Y-41018772D02*
X52897183Y-41062296D01*
X52180472Y-69481877D02*
X52127997Y-69490210D01*
X75324518Y-53444015D02*
X75277683Y-53458865D01*
X37910307Y-71590564D02*
X37929032Y-71634996D01*
X6874613Y-20981045D02*
X6849923Y-21023409D01*
X27722148Y-8541248D02*
X27769647Y-8528712D01*
X50914898Y-53494661D02*
X50866164Y-53489256D01*
X6976730Y-68706249D02*
X6965400Y-68753955D01*
X27769647Y-8528712D02*
X27817705Y-8518527D01*
X73149359Y-56977923D02*
X73176085Y-56936695D01*
X13999637Y-5000000D02*
X14048981Y-5001219D01*
X6917962Y-25107579D02*
X6936751Y-25154676D01*
X14809017Y-71415372D02*
X14836757Y-71455804D01*
X14392968Y-71082390D02*
X14437548Y-71102808D01*
X27007052Y-52603662D02*
X27002198Y-52543172D01*
X60291479Y-5043629D02*
X60338335Y-5059226D01*
X27149359Y-24977923D02*
X27176085Y-24936695D01*
X97925088Y-57121088D02*
X97942475Y-57166537D01*
X75126514Y-56509537D02*
X75177988Y-56517577D01*
X27675629Y-21444061D02*
X27629668Y-21426977D01*
X5042372Y-20787219D02*
X5029489Y-20740293D01*
X5119447Y-9026655D02*
X5143912Y-8983799D01*
X5852416Y-72989187D02*
X5804104Y-72980804D01*
X96012809Y-68650220D02*
X96006312Y-68599275D01*
X5170577Y-40942120D02*
X5199169Y-40901878D01*
X65445166Y-72831563D02*
X65405072Y-72803318D01*
X83048006Y-72998814D02*
X82999347Y-73000000D01*
X73063603Y-9154541D02*
X73081749Y-9108889D01*
X75965394Y-25245989D02*
X75976724Y-25293695D01*
X97601758Y-24702462D02*
X97639914Y-24732663D01*
X52795194Y-37103168D02*
X52764548Y-37141572D01*
X5328071Y-6740339D02*
X5292563Y-6706529D01*
X96082037Y-36892420D02*
X96063248Y-36845323D01*
X65772213Y-6971907D02*
X65725554Y-6959751D01*
X97479118Y-24623484D02*
X97521265Y-24647807D01*
X88041159Y-6277656D02*
X88028662Y-6230242D01*
X97738035Y-37174022D02*
X97703834Y-37209596D01*
X52230355Y-8528652D02*
X52277769Y-8541149D01*
X73001235Y-52523823D02*
X73000000Y-52474146D01*
X19064095Y-71652536D02*
X19082306Y-71606997D01*
X5709005Y-72956983D02*
X5662447Y-72941602D01*
X73102695Y-20937558D02*
X73082271Y-20892967D01*
X52795194Y-69103168D02*
X52764548Y-69141572D01*
X96001235Y-52523823D02*
X96000000Y-52474146D01*
X5059277Y-25161616D02*
X5077186Y-25115572D01*
X52998280Y-20528280D02*
X52996526Y-20558141D01*
X88080984Y-5608718D02*
X88101085Y-5564390D01*
X50540141Y-56614072D02*
X50584283Y-56592497D01*
X5910977Y-40505322D02*
X5960242Y-40502188D01*
X96001235Y-9476176D02*
X96002198Y-9456827D01*
X37989475Y-71867798D02*
X37994731Y-71915727D01*
X97138560Y-37489132D02*
X97089529Y-37494718D01*
X75230352Y-21471287D02*
X75182294Y-21481472D01*
X73125397Y-36981227D02*
X73102816Y-36937703D01*
X88409423Y-72806272D02*
X88370911Y-72776526D01*
X19244479Y-6652244D02*
X19213878Y-6615020D01*
X42634488Y-71070850D02*
X42681694Y-71053599D01*
X83951744Y-6301217D02*
X83935793Y-6347583D01*
X88844884Y-6986204D02*
X88841942Y-6985731D01*
X52370325Y-56572971D02*
X52415392Y-56592289D01*
X74012271Y-8501000D02*
X74987728Y-8501000D01*
X96540531Y-56613902D02*
X96584596Y-56592395D01*
X52918227Y-36891220D02*
X52897853Y-36935930D01*
X29731290Y-40820535D02*
X29763771Y-40857268D01*
X50415397Y-37308992D02*
X50376374Y-37279301D01*
X27048267Y-68801155D02*
X27034611Y-68754062D01*
X75999878Y-6999000D02*
X66023054Y-6999997D01*
X14598030Y-5199036D02*
X14636803Y-5229562D01*
X96236207Y-56857466D02*
X96268687Y-56820734D01*
X97061519Y-40503475D02*
X97110006Y-40507605D01*
X60874586Y-6481215D02*
X60849896Y-6523578D01*
X88264687Y-72676554D02*
X88232663Y-72639914D01*
X60743670Y-5332536D02*
X60775696Y-5370127D01*
X29997801Y-25456827D02*
X29998764Y-25476176D01*
X97601758Y-56702462D02*
X97639914Y-56732663D01*
X88746018Y-6965424D02*
X88698925Y-6951767D01*
X29624261Y-53278785D02*
X29585188Y-53308572D01*
X65158398Y-6536597D02*
X65133458Y-6495332D01*
X5010812Y-5852416D02*
X5019195Y-5804104D01*
X102999436Y-998844D02*
X102991339Y-990339D01*
X75874579Y-25018898D02*
X75897160Y-25062422D01*
X52697206Y-8785604D02*
X52731450Y-8820699D01*
X52794426Y-24895694D02*
X52823149Y-24935433D01*
X52502887Y-69362208D02*
X52459858Y-69385927D01*
X27629668Y-21426977D02*
X27584601Y-21407658D01*
X75732051Y-37178423D02*
X75697782Y-37213632D01*
X5074911Y-52878911D02*
X5057524Y-52833462D01*
X27001719Y-9471719D02*
X27003462Y-9442046D01*
X29502414Y-56637439D02*
X29544159Y-56663162D01*
X96063248Y-36845323D02*
X96046876Y-36797346D01*
X37028106Y-6998717D02*
X37021054Y-6999028D01*
X65031158Y-72243446D02*
X65020427Y-72195590D01*
X52324370Y-24555938D02*
X52370331Y-24573022D01*
X50002198Y-68543172D02*
X50001235Y-68523823D01*
X73204805Y-40896831D02*
X73235451Y-40858427D01*
X97435837Y-24601242D02*
X97479118Y-24623484D01*
X73924832Y-24504258D02*
X73977895Y-24501542D01*
X50236207Y-53142533D02*
X50205568Y-53104250D01*
X97883784Y-25032995D02*
X97905509Y-25076538D01*
X52502420Y-24637491D02*
X52544164Y-24663213D01*
X83825845Y-72562177D02*
X83797537Y-72601758D01*
X29918227Y-36891220D02*
X29897853Y-36935930D01*
X27081772Y-57108779D02*
X27102146Y-57064069D01*
X27236212Y-21142587D02*
X27205573Y-21104305D01*
X83021054Y-6999028D02*
X82976924Y-6999996D01*
X52273734Y-21460166D02*
X52224570Y-21472894D01*
X5029489Y-36740293D02*
X5018906Y-36692796D01*
X88807113Y-5018915D02*
X88855079Y-5010654D01*
X52965840Y-68751850D02*
X52952262Y-68799069D01*
X75897853Y-36935930D02*
X75875306Y-36979584D01*
X73769824Y-24528605D02*
X73817903Y-24518424D01*
X97998814Y-41451993D02*
X98000000Y-41500652D01*
X60674246Y-5262328D02*
X60709826Y-5296574D01*
X73082397Y-36893124D02*
X73064190Y-36847596D01*
X96497574Y-8637545D02*
X96540531Y-8613902D01*
X50540141Y-24614072D02*
X50584283Y-24592497D01*
X5938480Y-21496524D02*
X5889993Y-21492394D01*
X52012255Y-37498699D02*
X51987728Y-37499000D01*
X50866164Y-53489256D02*
X50817753Y-53481467D01*
X29277626Y-24541129D02*
X29324370Y-24555938D01*
X27497595Y-37362652D02*
X27455851Y-37336930D01*
X97969677Y-36743910D02*
X97956433Y-36791448D01*
X27822011Y-69482422D02*
X27771014Y-69471708D01*
X97465814Y-37383927D02*
X97421580Y-37405802D01*
X50722369Y-37458815D02*
X50675625Y-37444006D01*
X96455830Y-40663268D02*
X96497574Y-40637545D01*
X42927398Y-71003942D02*
X42936224Y-71003291D01*
X73204752Y-8896962D02*
X73235390Y-8858561D01*
X88564241Y-71102105D02*
X88608943Y-71081739D01*
X65540380Y-71113851D02*
X65584445Y-71092344D01*
X50149319Y-8978048D02*
X50176038Y-8936823D01*
X6107549Y-8507265D02*
X6156457Y-8513837D01*
X6623625Y-53279301D02*
X6584602Y-53308992D01*
X5365196Y-6772367D02*
X5328071Y-6740339D01*
X27003466Y-25441980D02*
X27007554Y-25393006D01*
X60981913Y-71820179D02*
X60989475Y-71867798D01*
X96675625Y-40555993D02*
X96722369Y-40541184D01*
X65486598Y-72857807D02*
X65445166Y-72831563D01*
X96866164Y-24510743D02*
X96914898Y-24505338D01*
X52965417Y-41245862D02*
X52976749Y-41293581D01*
X97521265Y-56647807D02*
X97562177Y-56674154D01*
X88007522Y-5890321D02*
X88013994Y-5842081D01*
X97995116Y-68598041D02*
X97989022Y-68647069D01*
X60557979Y-5170704D02*
X60598229Y-5199316D01*
X5960829Y-56502254D02*
X6010208Y-56501588D01*
X19449339Y-5165893D02*
X19490562Y-5140035D01*
X96388310Y-37288906D02*
X96349149Y-37256917D01*
X14957973Y-5716836D02*
X14970737Y-5764504D01*
X97925088Y-9121088D02*
X97942475Y-9166537D01*
X50540009Y-8614204D02*
X50584142Y-8592626D01*
X73338090Y-8753025D02*
X73375643Y-8721353D01*
X65003475Y-5938480D02*
X65007605Y-5889993D01*
X75850032Y-8976554D02*
X75874722Y-9018917D01*
X19010517Y-6132174D02*
X19005267Y-6084272D01*
X19013837Y-71843542D02*
X19022816Y-71795018D01*
X27048278Y-36801248D02*
X27034621Y-36754154D01*
X5094490Y-52923461D02*
X5074911Y-52878911D01*
X75012255Y-56501300D02*
X75022648Y-56501556D01*
X60998288Y-72012889D02*
X60996524Y-72061519D01*
X60952493Y-72300225D02*
X60936791Y-72346284D01*
X29585188Y-53308572D02*
X29544697Y-53336403D01*
X96048256Y-25198951D02*
X96064207Y-25152584D01*
X29977081Y-68704020D02*
X29965840Y-68751850D01*
X88092370Y-6415428D02*
X88073051Y-6370361D01*
X42063208Y-5653715D02*
X42081134Y-5608475D01*
X97957627Y-9212780D02*
X97970510Y-9259706D01*
X5001203Y-72050018D02*
X5000000Y-72000987D01*
X14046041Y-71002340D02*
X14100735Y-71006570D01*
X97630374Y-37275463D02*
X97591295Y-37305597D01*
X88101085Y-5564390D02*
X88123321Y-5521093D01*
X73338867Y-53247838D02*
X73302942Y-53214466D01*
X52661823Y-53247113D02*
X52624261Y-53278785D01*
X65529268Y-72881986D02*
X65486598Y-72857807D01*
X50497112Y-56637791D02*
X50540141Y-56614072D01*
X97667194Y-69243819D02*
X97629575Y-69275845D01*
X5900983Y-6994346D02*
X5852323Y-6988340D01*
X97942475Y-41166537D02*
X97957627Y-41212780D01*
X29084954Y-21494701D02*
X29079580Y-21495164D01*
X73375738Y-24721214D02*
X73414811Y-24691427D01*
X74012271Y-21499000D02*
X73987744Y-21498699D01*
X75967040Y-9251399D02*
X75978466Y-9300788D01*
X97676554Y-56764687D02*
X97711590Y-56798457D01*
X29976708Y-41293551D02*
X29985683Y-41341756D01*
X19951018Y-72998780D02*
X19901805Y-72995127D01*
X27915045Y-8505298D02*
X27920419Y-8504835D01*
X96268687Y-24820734D02*
X96302931Y-24785639D01*
X5001185Y-20548006D02*
X5000000Y-20499347D01*
X96405007Y-53301464D02*
X96367125Y-53271900D01*
X60537256Y-71158808D02*
X60577248Y-71185743D01*
X37048912Y-5001219D02*
X37098141Y-5004875D01*
X27977895Y-24501542D02*
X27987744Y-24501300D01*
X1011272Y-78000000D02*
X101988727Y-78000000D01*
X50497574Y-53362454D02*
X50455830Y-53336731D01*
X75182242Y-24518477D02*
X75230212Y-24528633D01*
X50022918Y-25295979D02*
X50034159Y-25248149D01*
X27022918Y-25295979D02*
X27034159Y-25248149D01*
X65415247Y-71190956D02*
X65455679Y-71163216D01*
X60992426Y-6108763D02*
X60985787Y-6157711D01*
X75952262Y-52799069D02*
X75936378Y-52845563D01*
X28012271Y-21499000D02*
X27987744Y-21498699D01*
X42661700Y-72940818D02*
X42615688Y-72922937D01*
X19852834Y-72989048D02*
X19804222Y-72980558D01*
X19661726Y-72940858D02*
X19615727Y-72922990D01*
X5323445Y-21235312D02*
X5288409Y-21201542D01*
X75763930Y-8857431D02*
X75794569Y-8895713D01*
X60195744Y-5019470D02*
X60243910Y-5030366D01*
X42010517Y-6132174D02*
X42005267Y-6084272D01*
X52998280Y-52528280D02*
X52996533Y-52558019D01*
X50267879Y-8821712D02*
X50302140Y-8786505D01*
X50817705Y-8518527D02*
X50866206Y-8510716D01*
X5142134Y-71486370D02*
X5168368Y-71444944D01*
X5288409Y-37201542D02*
X5255058Y-37166106D01*
X28012271Y-24501000D02*
X28987728Y-24501000D01*
X73769647Y-8528712D02*
X73817705Y-8518527D01*
X5255058Y-37166106D02*
X5223473Y-37129088D01*
X42422316Y-6813975D02*
X42383708Y-6785139D01*
X19666537Y-5057524D02*
X19712780Y-5042372D01*
X27678938Y-37445378D02*
X27631500Y-37427869D01*
X5578419Y-8594197D02*
X5623680Y-8574534D01*
X65759706Y-5029489D02*
X65807203Y-5018906D01*
X97956333Y-68791509D02*
X97940722Y-68838383D01*
X37918865Y-72391524D02*
X37898757Y-72435837D01*
X37653102Y-71245241D02*
X37688788Y-71277664D01*
X96311657Y-37222989D02*
X96275929Y-37187206D01*
X37994677Y-5910977D02*
X37997811Y-5960242D01*
X88666537Y-72942475D02*
X88621088Y-72925088D01*
X52985944Y-20655852D02*
X52977063Y-20704193D01*
X60048006Y-72998814D02*
X59999347Y-73000000D01*
X27064213Y-20847470D02*
X27048262Y-20801104D01*
X50455830Y-69336731D02*
X50415397Y-69308992D01*
X98000000Y-5999012D02*
X98000000Y-6000019D01*
X50007694Y-52609444D02*
X50007052Y-52603662D01*
X96205568Y-56895749D02*
X96236207Y-56857466D01*
X5999043Y-71000968D02*
X7000086Y-71000999D01*
X42040016Y-6273582D02*
X42027912Y-6226939D01*
X60415405Y-6907772D02*
X60370326Y-6927095D01*
X97940722Y-52838383D02*
X97922813Y-52884427D01*
X73819527Y-40518122D02*
X73872002Y-40509789D01*
X29985957Y-36655696D02*
X29977081Y-36704020D01*
X27176855Y-53064617D02*
X27150116Y-53023516D01*
X73268698Y-53179371D02*
X73236218Y-53142638D01*
X50376374Y-69279301D02*
X50338856Y-69247732D01*
X5057524Y-36833462D02*
X5042372Y-36787219D01*
X50924832Y-56504258D02*
X50977895Y-56501542D01*
X97556014Y-72831637D02*
X97514588Y-72857870D01*
X75012255Y-8501300D02*
X75021066Y-8501517D01*
X83369647Y-6927367D02*
X83321741Y-6945119D01*
X50014036Y-9344383D02*
X50022910Y-9296065D01*
X6823155Y-53064511D02*
X6794431Y-53104250D01*
X60661145Y-6747900D02*
X60623626Y-6779470D01*
X96796480Y-21477296D02*
X96749689Y-21466354D01*
X14852359Y-72521068D02*
X14826016Y-72561996D01*
X88005278Y-6084723D02*
X88002283Y-6036130D01*
X73034159Y-41248149D02*
X73047737Y-41200930D01*
X5119718Y-25026418D02*
X5144237Y-24983527D01*
X5168362Y-72556014D02*
X5142129Y-72514588D01*
X83763794Y-6642701D02*
X83731313Y-6679433D01*
X42804241Y-72980544D02*
X42756092Y-72969657D01*
X5999012Y-73000000D02*
X5949981Y-72998796D01*
X29917563Y-41106857D02*
X29935770Y-41152385D01*
X5077120Y-57115636D02*
X5097267Y-57070549D01*
X83590576Y-72806272D02*
X83550660Y-72834106D01*
X60992394Y-72110006D02*
X60985907Y-72158233D01*
X27987744Y-8501300D02*
X28012271Y-8501000D01*
X27022918Y-41295979D02*
X27034159Y-41248149D01*
X19708551Y-72956433D02*
X19661726Y-72940858D01*
X83496011Y-71133834D02*
X83537256Y-71158808D01*
X37423461Y-72905509D02*
X37378911Y-72925088D01*
X29823914Y-53063304D02*
X29795194Y-53103168D01*
X83833984Y-5449823D02*
X83860104Y-5491734D01*
X65663666Y-72941576D02*
X65617909Y-72923921D01*
X29182096Y-37481575D02*
X29180472Y-37481877D01*
X83805825Y-5409255D02*
X83833984Y-5449823D01*
X83144840Y-72989349D02*
X83096538Y-72995261D01*
X27338176Y-40752886D02*
X27375738Y-40721214D01*
X14144920Y-72989345D02*
X14096607Y-72995259D01*
X88807203Y-72981093D02*
X88759706Y-72970510D01*
X50001719Y-9471719D02*
X50003462Y-9442046D01*
X29849888Y-8976534D02*
X29874579Y-9018898D01*
X29182242Y-8518477D02*
X29230212Y-8528633D01*
X27302936Y-21214415D02*
X27268693Y-21179320D01*
X97136918Y-21489093D02*
X97087821Y-21494602D01*
X75230355Y-8528652D02*
X75277769Y-8541149D01*
X51018405Y-53499000D02*
X50981618Y-53498322D01*
X50022918Y-57295979D02*
X50034159Y-57248149D01*
X73014306Y-68658150D02*
X73007705Y-68609551D01*
X50149359Y-56977923D02*
X50176085Y-56936695D01*
X14593583Y-6802447D02*
X14554213Y-6830123D01*
X83814698Y-71423389D02*
X83841601Y-71463402D01*
X75124305Y-40509168D02*
X75174294Y-40516780D01*
X50000000Y-25530329D02*
X50001719Y-25471719D01*
X97904085Y-5571872D02*
X97923955Y-5616699D01*
X96033607Y-52750773D02*
X96021915Y-52700764D01*
X83767336Y-72639914D02*
X83735312Y-72676554D01*
X97904081Y-6427166D02*
X97882034Y-6470965D01*
X74987728Y-56501000D02*
X75012255Y-56501300D01*
X6986204Y-20655115D02*
X6985735Y-20658030D01*
X5196595Y-72596103D02*
X5168362Y-72556014D01*
X6770756Y-56865775D02*
X6800433Y-56903661D01*
X42383708Y-6785139D02*
X42346536Y-6754474D01*
X5332805Y-24756180D02*
X5370424Y-24724154D01*
X52935809Y-41152403D02*
X52951760Y-41198769D01*
X5369625Y-8724536D02*
X5408704Y-8694402D01*
X60972062Y-71772979D02*
X60981913Y-71820179D01*
X42002188Y-72039757D02*
X42001493Y-71990397D01*
X14981492Y-71817727D02*
X14989282Y-71866138D01*
X6058376Y-8503116D02*
X6107549Y-8507265D01*
X97000987Y-5000000D02*
X97050018Y-5001203D01*
X50176844Y-37064511D02*
X50150105Y-37023410D01*
X29976724Y-25293695D02*
X29985699Y-25341900D01*
X6998764Y-36523823D02*
X6997659Y-36546041D01*
X14971337Y-71769757D02*
X14981492Y-71817727D01*
X96584596Y-24592395D02*
X96629664Y-24573077D01*
X73014042Y-41344303D02*
X73022918Y-41295979D01*
X75370566Y-53426880D02*
X75324518Y-53444015D01*
X97061519Y-24503475D02*
X97110006Y-24507605D01*
X29370331Y-24573022D02*
X29415398Y-24592341D01*
X50872002Y-40509789D02*
X50924832Y-40504258D01*
X19149997Y-71476530D02*
X19176736Y-71435429D01*
X73063621Y-57154436D02*
X73081772Y-57108779D01*
X50081772Y-57108779D02*
X50102146Y-57064069D01*
X5030322Y-9256089D02*
X5043566Y-9208551D01*
X73817705Y-8518527D02*
X73866206Y-8510716D01*
X60688788Y-71277664D02*
X60722868Y-71311773D01*
X6133835Y-69489256D02*
X6085101Y-69494661D01*
X75697057Y-56785533D02*
X75731301Y-56820628D01*
X37144840Y-72989349D02*
X37096538Y-72995261D01*
X60775696Y-5370127D02*
X60805825Y-5409255D01*
X75272798Y-40539535D02*
X75321061Y-40554621D01*
X5043595Y-41208540D02*
X5059181Y-41161700D01*
X27150116Y-69023516D02*
X27125426Y-68981152D01*
X27338867Y-53247838D02*
X27302942Y-53214466D01*
X6300404Y-8547903D02*
X6347081Y-8563953D01*
X19174154Y-5437822D02*
X19202462Y-5398241D01*
X42202462Y-5398241D02*
X42232663Y-5360085D01*
X29544697Y-37336403D02*
X29502887Y-37362208D01*
X14797892Y-6599797D02*
X14768044Y-6637546D01*
X6035780Y-37497681D02*
X5987110Y-37498288D01*
X73540513Y-37386278D02*
X73497557Y-37362635D01*
X14023894Y-71001238D02*
X14046041Y-71002340D01*
X83321741Y-6945119D02*
X83273003Y-6960394D01*
X83637016Y-5229883D02*
X83674246Y-5262328D01*
X75998764Y-25476176D02*
X76000000Y-25525853D01*
X6703298Y-24791617D02*
X6736521Y-24826216D01*
X52985693Y-57341849D02*
X52992294Y-57390448D01*
X52764548Y-37141572D02*
X52732051Y-37178423D01*
X75459858Y-69385927D02*
X75415716Y-69407502D01*
X65853675Y-72989182D02*
X65805353Y-72980795D01*
X50817903Y-56518424D02*
X50819527Y-56518122D01*
X88221420Y-71375601D02*
X88253092Y-71338052D01*
X73176085Y-56936695D02*
X73204805Y-56896831D01*
X5019193Y-6195049D02*
X5010811Y-6146741D01*
X6010887Y-24501687D02*
X6060271Y-24503497D01*
X5369862Y-40724429D02*
X5408964Y-40694298D01*
X5766004Y-24529167D02*
X5814317Y-24518836D01*
X29584597Y-24690953D02*
X29623619Y-24720643D01*
X88123484Y-72479118D02*
X88101242Y-72435837D01*
X28987728Y-56501000D02*
X29012255Y-56501300D01*
X27629433Y-24573119D02*
X27675481Y-24555984D01*
X83889461Y-71547088D02*
X83910307Y-71590564D01*
X5398241Y-69297537D02*
X5360085Y-69267336D01*
X83965401Y-6254124D02*
X83951744Y-6301217D01*
X73977895Y-40501542D02*
X73987744Y-40501300D01*
X52850032Y-8976554D02*
X52874722Y-9018917D01*
X5000000Y-25500629D02*
X5001221Y-25451227D01*
X75850680Y-21021951D02*
X75823961Y-21063176D01*
X6530513Y-40654382D02*
X6572510Y-40682237D01*
X75022104Y-53498457D02*
X75012255Y-53498699D01*
X96569392Y-21400541D02*
X96526555Y-21378768D01*
X50497574Y-69362454D02*
X50455830Y-69336731D01*
X96415397Y-40691007D02*
X96455830Y-40663268D01*
X96152425Y-37027439D02*
X96126796Y-36983850D01*
X73455840Y-69336837D02*
X73415408Y-69309097D01*
X6823155Y-69064511D02*
X6794431Y-69104250D01*
X83509437Y-72859964D02*
X83467004Y-72883784D01*
X29897144Y-41062278D02*
X29917563Y-41106857D01*
X19213878Y-6615020D02*
X19185106Y-6576363D01*
X5564162Y-37398757D02*
X5520881Y-37376515D01*
X5564162Y-69398757D02*
X5520881Y-69376515D01*
X37797537Y-72601758D02*
X37767336Y-72639914D01*
X75997604Y-41452868D02*
X75998764Y-41476176D01*
X50338856Y-21247732D02*
X50302931Y-21214360D01*
X88409261Y-5193812D02*
X88449181Y-5165966D01*
X73047737Y-57200930D02*
X73063621Y-57154436D01*
X97479118Y-56623484D02*
X97521265Y-56647807D01*
X29874573Y-57018847D02*
X29897155Y-57062371D01*
X52459858Y-53385927D02*
X52415716Y-53407502D01*
X73150088Y-37023591D02*
X73125397Y-36981227D01*
X14876678Y-72478906D02*
X14852359Y-72521068D01*
X65032947Y-71751454D02*
X65046748Y-71703026D01*
X14735486Y-72676416D02*
X14701714Y-72711467D01*
X5653715Y-53436791D02*
X5608475Y-53418865D01*
X19003475Y-5938480D02*
X19007605Y-5889993D01*
X6849923Y-21023409D02*
X6823183Y-21064510D01*
X5398241Y-53297537D02*
X5360085Y-53267336D01*
X75936751Y-9154676D02*
X75953123Y-9202653D01*
X97629575Y-69275845D02*
X97590419Y-69305971D01*
X5262328Y-56825753D02*
X5296574Y-56790173D01*
X14886122Y-71540506D02*
X14907629Y-71584571D01*
X83180595Y-71018203D02*
X83227786Y-71028092D01*
X5961487Y-24502321D02*
X6010887Y-24501687D01*
X97831637Y-5443985D02*
X97857870Y-5485411D01*
X60945591Y-71680280D02*
X60959945Y-71726310D01*
X97942475Y-57166537D02*
X97957627Y-57212780D01*
X65965764Y-71001552D02*
X65978945Y-71000971D01*
X83473486Y-5119617D02*
X83516364Y-5144116D01*
X27007554Y-41393006D02*
X27014042Y-41344303D01*
X52228985Y-56528291D02*
X52230194Y-56528578D01*
X60976731Y-6206418D02*
X60965401Y-6254124D01*
X89000652Y-73000000D02*
X88951993Y-72998814D01*
X27022918Y-57295979D02*
X27034159Y-57248149D01*
X73048239Y-36801230D02*
X73034582Y-36754137D01*
X88532995Y-72883784D02*
X88490562Y-72859964D01*
X97834106Y-56949339D02*
X97859964Y-56990562D01*
X97905509Y-25076538D02*
X97925088Y-25121088D01*
X52459606Y-8613867D02*
X52502563Y-8637510D01*
X29230194Y-56528578D02*
X29277620Y-56541078D01*
X6731312Y-69179265D02*
X6697068Y-69214360D01*
X75661823Y-37247113D02*
X75624261Y-37278785D01*
X6993429Y-20600735D02*
X6986204Y-20655115D01*
X37473408Y-5119527D02*
X37516274Y-5144008D01*
X50003462Y-9442046D02*
X50007549Y-9393079D01*
X88063208Y-72346284D02*
X88047506Y-72300225D01*
X52897853Y-68935930D02*
X52875306Y-68979584D01*
X88321778Y-71267848D02*
X88358626Y-71235363D01*
X75076167Y-24504393D02*
X75131025Y-24510306D01*
X97187255Y-37481132D02*
X97138560Y-37489132D01*
X97290994Y-5043016D02*
X97337552Y-5058397D01*
X52124622Y-21490778D02*
X52074095Y-21495889D01*
X29874579Y-9018898D02*
X29897160Y-9062422D01*
X75897183Y-41062296D02*
X75917602Y-41106875D01*
X6967040Y-9251399D02*
X6978466Y-9300788D01*
X50302217Y-40786367D02*
X50338176Y-40752886D01*
X6997539Y-25451549D02*
X6998764Y-25476176D01*
X74012271Y-56501000D02*
X74987728Y-56501000D01*
X97514647Y-71142997D02*
X97556068Y-71169231D01*
X29875306Y-36979584D02*
X29850640Y-37022076D01*
X75623763Y-8720662D02*
X75661282Y-8752232D01*
X42729708Y-71038744D02*
X42778407Y-71026323D01*
X73678938Y-37445378D02*
X73631500Y-37427869D01*
X6874613Y-36981045D02*
X6849923Y-37023409D01*
X19264687Y-5323445D02*
X19298457Y-5288409D01*
X73302217Y-24786367D02*
X73338176Y-24752886D01*
X83338335Y-5059226D02*
X83384363Y-5077120D01*
X96007052Y-41396337D02*
X96007694Y-41390555D01*
X5608475Y-53418865D02*
X5564162Y-53398757D01*
X97989349Y-9355159D02*
X97995261Y-9403461D01*
X73455189Y-8663734D02*
X73496990Y-8637926D01*
X50000121Y-71000999D02*
X59976945Y-71000002D01*
X27924832Y-24504258D02*
X27977895Y-24501542D01*
X5960242Y-40502188D02*
X6009602Y-40501493D01*
X42110424Y-6452714D02*
X42089600Y-6409258D01*
X50204805Y-40896831D02*
X50235451Y-40858427D01*
X27414708Y-8691565D02*
X27455189Y-8663734D01*
X20000362Y-73000000D02*
X19951018Y-72998780D01*
X42094119Y-72421225D02*
X42074467Y-72375941D01*
X19932671Y-6996445D02*
X19871686Y-6990061D01*
X37502501Y-6862475D02*
X37459544Y-6886118D01*
X29992445Y-68606993D02*
X29985957Y-68655696D01*
X73338176Y-40752886D02*
X73375738Y-40721214D01*
X83925614Y-5624479D02*
X83942991Y-5670704D01*
X14096607Y-72995259D02*
X14048065Y-72998813D01*
X50102833Y-68937522D02*
X50082414Y-68892943D01*
X5987110Y-69498288D02*
X5938480Y-69496524D01*
X19276840Y-6687949D02*
X19244479Y-6652244D01*
X65867018Y-6989397D02*
X65819404Y-6981796D01*
X42526591Y-72880472D02*
X42483725Y-72855991D01*
X19576538Y-5094490D02*
X19621088Y-5074911D01*
X83910307Y-71590564D02*
X83929032Y-71634996D01*
X97514588Y-72857870D02*
X97471925Y-72882039D01*
X6230216Y-69471311D02*
X6182246Y-69481467D01*
X75585188Y-69308572D02*
X75544697Y-69336403D01*
X27034159Y-25248149D02*
X27047737Y-25200930D01*
X27629674Y-53427028D02*
X27584607Y-53407710D01*
X88621088Y-72925088D02*
X88576538Y-72905509D01*
X88010717Y-6133861D02*
X88005311Y-6085114D01*
X50063621Y-41154436D02*
X50081772Y-41108779D01*
X73236218Y-53142638D02*
X73205579Y-53104356D01*
X96002198Y-9456827D02*
X96007052Y-9396337D01*
X75223834Y-40526911D02*
X75272798Y-40539535D01*
X88252242Y-6661168D02*
X88220672Y-6623649D01*
X14158057Y-71014268D02*
X14206275Y-71023245D01*
X29182294Y-21481472D02*
X29133793Y-21489283D01*
X50675625Y-53444006D02*
X50629664Y-53426922D01*
X37496011Y-71133834D02*
X37537256Y-71158808D01*
X75277620Y-56541078D02*
X75324364Y-56555887D01*
X19063208Y-5653715D02*
X19081134Y-5608475D01*
X97703834Y-37209596D02*
X97667918Y-37243437D01*
X97391524Y-40581134D02*
X97435837Y-40601242D01*
X27014316Y-36658243D02*
X27007716Y-36609643D01*
X60048843Y-5001220D02*
X60098091Y-5004879D01*
X88202462Y-72601758D02*
X88174154Y-72562177D01*
X75277683Y-53458865D02*
X75230175Y-53471394D01*
X42034575Y-71745826D02*
X42048235Y-71698721D01*
X52127997Y-69490210D02*
X52075167Y-69495741D01*
X96540531Y-8613902D02*
X96584596Y-8592395D01*
X65006401Y-71900040D02*
X65012748Y-71850086D01*
X29992283Y-41390356D02*
X29992947Y-41396337D01*
X5662470Y-71059357D02*
X5709030Y-71043977D01*
X73987744Y-21498699D02*
X73978933Y-21498482D01*
X5030392Y-25256078D02*
X5043666Y-25208490D01*
X96302931Y-24785639D02*
X96338856Y-24752267D01*
X50002198Y-52543172D02*
X50001235Y-52523823D01*
X6874584Y-68981046D02*
X6849894Y-69023410D01*
X5010811Y-6146741D02*
X5004810Y-6098079D01*
X6594217Y-24697928D02*
X6632063Y-24727399D01*
X97744941Y-40833893D02*
X97776526Y-40870911D01*
X6584630Y-37308991D02*
X6544198Y-37336730D01*
X52697782Y-53213632D02*
X52661823Y-53247113D01*
X73235390Y-8858561D02*
X73267879Y-8821712D01*
X73204805Y-24896831D02*
X73235451Y-24858427D01*
X29180472Y-69481877D02*
X29127997Y-69490210D01*
X75794420Y-56895643D02*
X75823144Y-56935382D01*
X83273003Y-6960394D02*
X83223548Y-6973159D01*
X73415259Y-21309027D02*
X73376236Y-21279337D01*
X75992947Y-25396337D02*
X75997801Y-25456827D01*
X83743670Y-5332536D02*
X83775696Y-5370127D01*
X19014092Y-5841766D02*
X19022919Y-5793911D01*
X75324677Y-21443895D02*
X75277851Y-21458751D01*
X5901080Y-5004810D02*
X5949981Y-5001203D01*
X5812744Y-8518867D02*
X5861439Y-8510867D01*
X50150105Y-53023410D02*
X50125415Y-52981046D01*
X6992947Y-68603662D02*
X6992305Y-68609444D01*
X75764548Y-37141572D02*
X75732051Y-37178423D01*
X65971893Y-6998717D02*
X65930126Y-6996000D01*
X65634266Y-6928763D02*
X65589849Y-6910002D01*
X96939257Y-53496473D02*
X96891368Y-53492373D01*
X6060789Y-24503529D02*
X6108594Y-24507620D01*
X96275929Y-37187206D02*
X96242058Y-37149662D01*
X6897784Y-25063430D02*
X6917741Y-25107063D01*
X29459463Y-8613848D02*
X29502420Y-8637491D01*
X65293767Y-72707273D02*
X65259955Y-72671747D01*
X83997745Y-5960829D02*
X83998411Y-6010208D01*
X73987744Y-69498699D02*
X73977351Y-69498443D01*
X19256562Y-72667918D02*
X19224536Y-72630374D01*
X50002198Y-36543172D02*
X50001235Y-36523823D01*
X5332081Y-8756562D02*
X5369625Y-8724536D01*
X97676554Y-40764687D02*
X97711590Y-40798457D01*
X97923952Y-6382339D02*
X97904081Y-6427166D01*
X6324403Y-37444005D02*
X6277659Y-37458814D01*
X88034066Y-72253456D02*
X88022919Y-72206088D01*
X83410150Y-71089997D02*
X83453610Y-71110879D01*
X73302942Y-69214466D02*
X73268698Y-69179371D01*
X83905975Y-5579169D02*
X83925614Y-5624479D01*
X88490410Y-5140097D02*
X88532851Y-5116266D01*
X52180472Y-37481877D02*
X52127997Y-37490210D01*
X29731301Y-56820628D02*
X29763781Y-56857361D01*
X50302931Y-53214360D02*
X50268687Y-53179265D01*
X14481072Y-71125390D02*
X14523435Y-71150080D01*
X97989048Y-36647165D02*
X97980558Y-36695777D01*
X27722316Y-40541134D02*
X27769824Y-40528605D01*
X27023281Y-68706355D02*
X27014306Y-68658150D01*
X53000000Y-52469670D02*
X52998280Y-52528280D01*
X65936224Y-71003291D02*
X65965764Y-71001552D01*
X5001220Y-57451156D02*
X5004879Y-57401908D01*
X29996533Y-36558019D02*
X29992445Y-36606993D01*
X5030342Y-41256092D02*
X5043595Y-41208540D01*
X42029240Y-72235049D02*
X42018864Y-72186787D01*
X59999462Y-5000000D02*
X60048843Y-5001220D01*
X6661143Y-53247732D02*
X6623625Y-53279301D01*
X74012271Y-69499000D02*
X73987744Y-69498699D01*
X96002198Y-25456827D02*
X96007052Y-25396337D01*
X75502420Y-24637491D02*
X75544164Y-24663213D01*
X14905802Y-5578419D02*
X14925465Y-5623680D01*
X5670704Y-56557008D02*
X5717732Y-56541937D01*
X20000652Y-5000000D02*
X36999551Y-5000000D01*
X27125426Y-52981152D02*
X27102844Y-52937628D01*
X97300225Y-24547506D02*
X97346284Y-24563208D01*
X52624261Y-69278785D02*
X52585188Y-69308572D01*
X42074467Y-72375941D02*
X42057076Y-72329742D01*
X27497112Y-40637791D02*
X27540141Y-40614072D01*
X96236207Y-8857466D02*
X96268687Y-8820734D01*
X97508915Y-37359895D02*
X97465814Y-37383927D01*
X29795194Y-69103168D02*
X29764548Y-69141572D01*
X29624261Y-69278785D02*
X29585188Y-69308572D01*
X83291479Y-5043629D02*
X83338335Y-5059226D01*
X27125436Y-36981245D02*
X27102855Y-36937721D01*
X97514570Y-6856912D02*
X97471906Y-6881080D01*
X52697085Y-40785458D02*
X52731329Y-40820553D01*
X27497112Y-56637791D02*
X27540141Y-56614072D01*
X88654592Y-71063595D02*
X88701078Y-71047717D01*
X6849923Y-37023409D02*
X6823183Y-37064510D01*
X27769824Y-24528605D02*
X27817903Y-24518424D01*
X97855762Y-69016472D02*
X97829152Y-69058098D01*
X75074692Y-56504192D02*
X75126514Y-56509537D01*
X6204981Y-8522816D02*
X6253002Y-8534181D01*
X27000000Y-25530329D02*
X27001719Y-25471719D01*
X60320463Y-71054640D02*
X60365733Y-71071236D01*
X5010650Y-20644840D02*
X5004738Y-20596538D01*
X50722316Y-56541134D02*
X50769824Y-56528605D01*
X27003466Y-41441980D02*
X27007554Y-41393006D01*
X97773237Y-5365241D02*
X97803404Y-5403896D01*
X50540141Y-40614072D02*
X50584283Y-40592497D01*
X102991322Y-990322D02*
X102009677Y-8677D01*
X5199169Y-40901878D02*
X5229713Y-40863098D01*
X101988727Y0D02*
X1011272Y0D01*
X83897168Y-6437691D02*
X83874586Y-6481215D01*
X88490562Y-72859964D02*
X88449339Y-72834106D01*
X97902650Y-68929530D02*
X97880281Y-68973581D01*
X5999012Y-5000000D02*
X13999637Y-5000000D01*
X75230212Y-24528633D02*
X75277626Y-24541129D01*
X52277683Y-37458865D02*
X52230175Y-37471394D01*
X97639914Y-40732663D02*
X97676554Y-40764687D01*
X97857865Y-6513629D02*
X97831631Y-6555055D01*
X75415398Y-24592341D02*
X75459463Y-24613848D01*
X73925307Y-69495807D02*
X73873485Y-69490462D01*
X98000000Y-9500652D02*
X98000000Y-20499370D01*
X52415398Y-24592341D02*
X52459463Y-24613848D01*
X97922813Y-52884427D02*
X97902650Y-52929530D01*
X75992947Y-57396337D02*
X75997801Y-57456827D01*
X37666106Y-72744941D02*
X37629088Y-72776526D01*
X6953123Y-25202653D02*
X6967040Y-25251399D01*
X5332536Y-56756329D02*
X5370127Y-56724303D01*
X5258790Y-72671887D02*
X5226762Y-72634758D01*
X29917579Y-25107001D02*
X29935786Y-25152529D01*
X97829152Y-53058098D02*
X97800517Y-53098358D01*
X19338747Y-71252208D02*
X19376266Y-71220639D01*
X96989112Y-21498312D02*
X96939728Y-21496502D01*
X50769824Y-56528605D02*
X50817903Y-56518424D01*
X88532851Y-5116266D02*
X88576401Y-5094532D01*
X65951262Y-72998795D02*
X65902350Y-72995187D01*
X52502414Y-56637439D02*
X52544159Y-56663162D01*
X52935781Y-57152478D02*
X52951732Y-57198844D01*
X60731313Y-6679433D02*
X60697070Y-6714528D01*
X27204805Y-56896831D02*
X27235451Y-56858427D01*
X50048256Y-20801048D02*
X50034599Y-20753955D01*
X5143912Y-8983799D02*
X5170463Y-8942203D01*
X42442120Y-72829422D02*
X42401878Y-72800830D01*
X96471234Y-37346738D02*
X96429040Y-37318872D01*
X97435837Y-8601242D02*
X97479118Y-8623484D01*
X7000000Y-36474146D02*
X6998764Y-36523823D01*
X97391524Y-24581134D02*
X97435837Y-24601242D01*
X50769783Y-21471311D02*
X50722369Y-21458815D01*
X88147640Y-5478931D02*
X88173983Y-5438003D01*
X73977895Y-56501542D02*
X73987744Y-56501300D01*
X75936378Y-36845563D02*
X75918227Y-36891220D01*
X50817753Y-69481467D02*
X50769783Y-69471311D01*
X52732051Y-69178423D02*
X52697782Y-69213632D01*
X42054355Y-6319588D02*
X42040016Y-6273582D01*
X5699774Y-21452493D02*
X5653715Y-21436791D01*
X29076167Y-24504393D02*
X29131025Y-24510306D01*
X19082306Y-71606997D02*
X19102725Y-71562417D01*
X98000000Y-68499370D02*
X97998778Y-68548772D01*
X75998280Y-68528280D02*
X75996533Y-68558019D01*
X6985735Y-36658030D02*
X6976758Y-36706248D01*
X97744941Y-56833893D02*
X97776526Y-56870911D01*
X50914898Y-21494661D02*
X50866164Y-21489256D01*
X27007705Y-52609551D02*
X27007052Y-52603662D01*
X75764548Y-53141572D02*
X75732051Y-53178423D01*
X6277630Y-69458815D02*
X6230216Y-69471311D01*
X88953958Y-6997659D02*
X88899264Y-6993429D01*
X27124693Y-57020415D02*
X27149359Y-56977923D01*
X37291459Y-5043595D02*
X37338299Y-5059181D01*
X97346284Y-56563208D02*
X97391524Y-56581134D01*
X75228985Y-56528291D02*
X75230194Y-56528578D01*
X96964219Y-56502318D02*
X97012889Y-56501711D01*
X97904085Y-72428127D02*
X97882039Y-72471925D01*
X96914898Y-56505338D02*
X96963852Y-56502331D01*
X990339Y-77991339D02*
X998844Y-77999436D01*
X37085044Y-71005305D02*
X37132981Y-71010602D01*
X52124305Y-40509168D02*
X52174294Y-40516780D01*
X50102833Y-36937522D02*
X50082414Y-36892943D01*
X96000000Y-25525853D02*
X96001235Y-25476176D01*
X60098091Y-5004879D02*
X60147098Y-5010967D01*
X73873485Y-53490462D02*
X73822011Y-53482422D01*
X97707399Y-5292600D02*
X97741209Y-5328112D01*
X97776526Y-40870911D02*
X97806272Y-40909423D01*
X73064218Y-68847521D02*
X73048267Y-68801155D01*
X5296165Y-8790403D02*
X5332081Y-8756562D01*
X75823914Y-53063304D02*
X75795194Y-53103168D01*
X88576401Y-5094532D02*
X88620959Y-5074944D01*
X37992394Y-72110006D02*
X37985907Y-72158233D01*
X73023281Y-52706355D02*
X73014306Y-52658150D01*
X5398241Y-21297537D02*
X5360085Y-21267336D01*
X97337552Y-72941602D02*
X97290994Y-72956983D01*
X97243822Y-71030793D02*
X97291075Y-71043874D01*
X97421580Y-37405802D02*
X97376319Y-37425465D01*
X60989475Y-71867798D02*
X60994731Y-71915727D01*
X6697096Y-37214359D02*
X6661172Y-37247731D01*
X60629088Y-72776526D02*
X60590576Y-72806272D01*
X27675635Y-53444112D02*
X27629674Y-53427028D01*
X97634758Y-72773237D02*
X97596103Y-72803404D01*
X83629088Y-72776526D02*
X83590576Y-72806272D01*
X60997745Y-5960829D02*
X60998411Y-6010208D01*
X42174154Y-5437822D02*
X42202462Y-5398241D01*
X37985982Y-6157044D02*
X37976970Y-6205580D01*
X19462269Y-6840916D02*
X19422316Y-6813975D01*
X96675625Y-56555993D02*
X96722369Y-56541184D01*
X65503988Y-6866165D02*
X65462743Y-6841191D01*
X19442203Y-72829536D02*
X19401969Y-72800963D01*
X96376374Y-40720698D02*
X96415397Y-40691007D01*
X27002198Y-36543172D02*
X27001235Y-36523823D01*
X50963852Y-21497668D02*
X50914898Y-21494661D01*
X5624479Y-56574385D02*
X5670704Y-56557008D01*
X97942475Y-9166537D02*
X97957627Y-9212780D01*
X5662447Y-5058397D02*
X5709005Y-5043016D01*
X97707388Y-6706442D02*
X97671874Y-6740252D01*
X50675481Y-24555984D02*
X50722316Y-24541134D01*
X37972062Y-71772979D02*
X37981913Y-71820179D01*
X73007554Y-41393006D02*
X73014042Y-41344303D01*
X52952262Y-68799069D02*
X52936378Y-68845563D01*
X50205568Y-69104250D02*
X50176844Y-69064511D01*
X88047373Y-5700047D02*
X88063066Y-5653973D01*
X88253092Y-71338052D02*
X88286572Y-71302105D01*
X5226762Y-5365241D02*
X5258790Y-5328112D01*
X73204805Y-56896831D02*
X73235451Y-56858427D01*
X37709701Y-5296359D02*
X37743544Y-5332297D01*
X97050119Y-71002041D02*
X97099016Y-71005653D01*
X42325875Y-72737863D02*
X42290298Y-72703640D01*
X88191632Y-71414662D02*
X88221420Y-71375601D01*
X6978466Y-25300788D02*
X6987372Y-25350693D01*
X5029489Y-68740293D02*
X5018906Y-68692796D01*
X75874602Y-41018772D02*
X75897183Y-41062296D01*
X5144008Y-40983725D02*
X5170577Y-40942120D01*
X5449823Y-56666015D02*
X5491734Y-56639895D01*
X75953123Y-9202653D02*
X75967040Y-9251399D01*
X75897160Y-25062422D02*
X75917579Y-25107001D01*
X29874563Y-41018754D02*
X29897144Y-41062278D01*
X96000000Y-57525853D02*
X96001235Y-57476176D01*
X27540141Y-40614072D02*
X27584283Y-40592497D01*
X5001185Y-68548006D02*
X5000000Y-68499347D01*
X29623619Y-24720643D02*
X29661138Y-24752212D01*
X5709005Y-5043016D02*
X5756262Y-5029939D01*
X97634803Y-71227632D02*
X97671928Y-71259660D01*
X73034148Y-9248242D02*
X73047723Y-9201029D01*
X5437822Y-53325845D02*
X5398241Y-53297537D01*
X14098194Y-5004872D02*
X14147165Y-5010951D01*
X97769927Y-21137153D02*
X97737456Y-21174388D01*
X14384820Y-6920968D02*
X14339984Y-6938452D01*
X52174294Y-40516780D02*
X52223834Y-40526911D01*
X288Y-999509D02*
X0Y-1011247D01*
X75794426Y-24895694D02*
X75823149Y-24935433D01*
X75993734Y-9400986D02*
X75997539Y-9451549D01*
X73338717Y-21247767D02*
X73302793Y-21214395D01*
X19007265Y-71892450D02*
X19013837Y-71843542D01*
X42224429Y-72630137D02*
X42194298Y-72591035D01*
X75732051Y-69178423D02*
X75697782Y-69213632D01*
X96484815Y-69354960D02*
X96444268Y-69329172D01*
X97420387Y-21406088D02*
X97375048Y-21425713D01*
X37976970Y-6205580D02*
X37965569Y-6253622D01*
X83958062Y-5717732D02*
X83970790Y-5765447D01*
X6277659Y-21458814D02*
X6230245Y-21471310D01*
X96002198Y-57456827D02*
X96007052Y-57396337D01*
X50205568Y-53104250D02*
X50176844Y-53064511D01*
X19102725Y-71562417D02*
X19125307Y-71518893D01*
X14679291Y-71268663D02*
X14714385Y-71302906D01*
X5662447Y-72941602D02*
X5616699Y-72923955D01*
X6731312Y-53179265D02*
X6697068Y-53214360D01*
X73034611Y-52754062D02*
X73023281Y-52706355D01*
X29794426Y-24895694D02*
X29823149Y-24935433D01*
X37320463Y-71054640D02*
X37365733Y-71071236D01*
X27875694Y-37490831D02*
X27825705Y-37483219D01*
X97831659Y-71444850D02*
X97857889Y-71486275D01*
X5398241Y-37297537D02*
X5360085Y-37267336D01*
X27540009Y-8614204D02*
X27584142Y-8592626D01*
X60994639Y-5911543D02*
X60997745Y-5960829D01*
X29998764Y-57476176D02*
X30000000Y-57525853D01*
X97956981Y-6290031D02*
X97941599Y-6336590D01*
X75459990Y-21385795D02*
X75415857Y-21407373D01*
X73629433Y-56573119D02*
X73675481Y-56555984D01*
X5608475Y-21418865D02*
X5564162Y-21398757D01*
X97855762Y-53016472D02*
X97829152Y-53058098D01*
X14248049Y-6966846D02*
X14201163Y-6977690D01*
X97942475Y-25166537D02*
X97957627Y-25212780D01*
X19101242Y-5564162D02*
X19123484Y-5520881D01*
X42057076Y-72329742D02*
X42041988Y-72282739D01*
X20023075Y-71000003D02*
X27000121Y-71000999D01*
X52584928Y-21308877D02*
X52544414Y-21336704D01*
X73375643Y-8721353D02*
X73414708Y-8691565D01*
X97471925Y-5117960D02*
X97514588Y-5142129D01*
X42064186Y-71652354D02*
X42082393Y-71606827D01*
X73007705Y-52609551D02*
X73007052Y-52603662D01*
X65422751Y-6814256D02*
X65384106Y-6785423D01*
X14925465Y-5623680D02*
X14942870Y-5669856D01*
X42102812Y-71562247D02*
X42125394Y-71518723D01*
X5764504Y-8529262D02*
X5812744Y-8518867D01*
X19185106Y-6576363D02*
X19158233Y-6536364D01*
X6632063Y-24727399D02*
X6668452Y-24758653D01*
X19268579Y-71320675D02*
X19302823Y-71285580D01*
X96006312Y-52599275D02*
X96002440Y-52548050D01*
X14997716Y-71963869D02*
X14998339Y-72012538D01*
X60384363Y-5077120D02*
X60429450Y-5097267D01*
X14736413Y-6673814D02*
X14703073Y-6708517D01*
X5444001Y-71169319D02*
X5485429Y-71143087D01*
X97206088Y-24522919D02*
X97253456Y-24534066D01*
X42023029Y-71794419D02*
X42034430Y-71746377D01*
X6502425Y-69362454D02*
X6459468Y-69386097D01*
X96569392Y-53400541D02*
X96526555Y-53378768D01*
X14994721Y-71915276D02*
X14997716Y-71963869D01*
X30000000Y-52469670D02*
X29998280Y-52528280D01*
X29624356Y-21278646D02*
X29585291Y-21308434D01*
X6977097Y-57295459D02*
X6985841Y-57342783D01*
X97956333Y-52791509D02*
X97940722Y-52838383D01*
X37410150Y-71089997D02*
X37453610Y-71110879D01*
X27001719Y-57471719D02*
X27003466Y-57441980D01*
X19110424Y-6452714D02*
X19089600Y-6409258D01*
X96796480Y-69477296D02*
X96749689Y-69466354D01*
X52936378Y-36845563D02*
X52918227Y-36891220D01*
X19589259Y-6909764D02*
X19545838Y-6888867D01*
X96002440Y-52548050D02*
X96001235Y-52523823D01*
X60132981Y-71010602D02*
X60180595Y-71018203D01*
X75623614Y-56720592D02*
X75661132Y-56752161D01*
X42712780Y-5042372D02*
X42759706Y-5029489D01*
X50102146Y-25064069D02*
X50124693Y-25020415D01*
X52993575Y-41400101D02*
X52997604Y-41452868D01*
X73629674Y-53427028D02*
X73584607Y-53407710D01*
X6557791Y-56672225D02*
X6597037Y-56700079D01*
X89000605Y-5000000D02*
X97000987Y-5000000D01*
X6763792Y-53142533D02*
X6731312Y-53179265D01*
X6873384Y-41016484D02*
X6896685Y-41061169D01*
X5004738Y-68596538D02*
X5001185Y-68548006D01*
X19003116Y-71941623D02*
X19007265Y-71892450D01*
X19290403Y-72703834D02*
X19256562Y-72667918D01*
X50375738Y-40721214D02*
X50414811Y-40691427D01*
X60502427Y-6862622D02*
X60459470Y-6886265D01*
X50034599Y-20753955D02*
X50023269Y-20706249D01*
X97922990Y-36884272D02*
X97902871Y-36929332D01*
X43023054Y-6999997D02*
X42978966Y-6999029D01*
X73047737Y-25200930D02*
X73063621Y-25154436D01*
X27987744Y-37498699D02*
X27976520Y-37498423D01*
X97998814Y-9451993D02*
X98000000Y-9500652D01*
X29795194Y-37103168D02*
X29764548Y-37141572D01*
X52324364Y-56555887D02*
X52370325Y-56572971D01*
X5019195Y-72195895D02*
X5010812Y-72147583D01*
X7000000Y-52474146D02*
X6998764Y-52523823D01*
X5889993Y-69492394D02*
X5841766Y-69485907D01*
X29127997Y-53490210D02*
X29075167Y-53495741D01*
X37069873Y-71003999D02*
X37085044Y-71005305D01*
X52661161Y-40752086D02*
X52697085Y-40785458D01*
X65298457Y-5288409D02*
X65333893Y-5255058D01*
X5662370Y-6940741D02*
X5616627Y-6923092D01*
X52977081Y-52704020D02*
X52965840Y-52751850D01*
X88520594Y-71124644D02*
X88564241Y-71102105D01*
X65805353Y-72980795D02*
X65757501Y-72970047D01*
X5813212Y-40518864D02*
X5861927Y-40510885D01*
X50102833Y-52937522D02*
X50082414Y-52892943D01*
X73822011Y-69482422D02*
X73771014Y-69471708D01*
X97471988Y-71118827D02*
X97514647Y-71142997D01*
X27923832Y-21495606D02*
X27868974Y-21489693D01*
X6896594Y-9060979D02*
X6917691Y-9106947D01*
X73722316Y-24541134D02*
X73769824Y-24528605D01*
X5746543Y-37465933D02*
X5699774Y-37452493D01*
X27034159Y-57248149D02*
X27047737Y-57200930D01*
X27414811Y-40691427D02*
X27455302Y-40663596D01*
X5478734Y-69352192D02*
X5437822Y-69325845D01*
X30000000Y-41525853D02*
X30000000Y-52469670D01*
X27302942Y-53214466D02*
X27268698Y-53179371D01*
X97158233Y-24514092D02*
X97206088Y-24522919D01*
X5365254Y-71227720D02*
X5403911Y-71197553D01*
X88298457Y-72711590D02*
X88264687Y-72676554D01*
X5571872Y-5095914D02*
X5616699Y-5076044D01*
X5004810Y-6098079D02*
X5001203Y-6049182D01*
X97435837Y-56601242D02*
X97479118Y-56623484D01*
X75584591Y-56690902D02*
X75623614Y-56720592D01*
X97998778Y-68548772D02*
X97995116Y-68598041D01*
X19176736Y-71435429D02*
X19205460Y-71395690D01*
X14996883Y-6058376D02*
X14992734Y-6107549D01*
X5861927Y-40510885D02*
X5910977Y-40505322D01*
X83952493Y-72300225D02*
X83936791Y-72346284D01*
X83701542Y-72711590D02*
X83666106Y-72744941D01*
X52224570Y-21472894D02*
X52174823Y-21483107D01*
X52992294Y-57390448D02*
X52992947Y-57396337D01*
X27771014Y-69471708D02*
X27769805Y-69471421D01*
X88018507Y-6182272D02*
X88010717Y-6133861D01*
X65546389Y-6889120D02*
X65503988Y-6866165D01*
X88163800Y-71455139D02*
X88191632Y-71414662D01*
X42633638Y-6928544D02*
X42589259Y-6909764D01*
X19007605Y-5889993D02*
X19014092Y-5841766D01*
X50981618Y-21498322D02*
X50963852Y-21497668D01*
X75661823Y-53247113D02*
X75624261Y-53278785D01*
X75850640Y-37022076D02*
X75823914Y-37063304D01*
X52965840Y-52751850D02*
X52952262Y-52799069D01*
X96540531Y-24613902D02*
X96584596Y-24592395D01*
X50204805Y-56896831D02*
X50235451Y-56858427D01*
X42415376Y-71190778D02*
X42455818Y-71163031D01*
X73023250Y-36706418D02*
X73022824Y-36704409D01*
X27236228Y-37142731D02*
X27205589Y-37104449D01*
X50584596Y-69407604D02*
X50540531Y-69386097D01*
X96064207Y-57152584D02*
X96082414Y-57107056D01*
X73081772Y-41108779D02*
X73102146Y-41064069D01*
X5852416Y-5010812D02*
X5901080Y-5004810D01*
X73205579Y-53104356D02*
X73176855Y-53064617D01*
X88005341Y-71914943D02*
X88010762Y-71866121D01*
X97233995Y-21470832D02*
X97185682Y-21481163D01*
X14797710Y-72601592D02*
X14767510Y-72639762D01*
X37240293Y-72970510D02*
X37192796Y-72981093D01*
X97629575Y-53275845D02*
X97590419Y-53305971D01*
X37429384Y-5097193D02*
X37473408Y-5119527D01*
X73338867Y-69247838D02*
X73302942Y-69214466D01*
X88041304Y-71722073D02*
X88056162Y-71675251D01*
X73002198Y-52543172D02*
X73001235Y-52523823D01*
X73920419Y-8504835D02*
X73981646Y-8501450D01*
X5262136Y-40825875D02*
X5296359Y-40790298D01*
X75998280Y-20528280D02*
X75996537Y-20557953D01*
X65497424Y-71137494D02*
X65540380Y-71113851D01*
X83823156Y-6564679D02*
X83794433Y-6604419D01*
X52985957Y-36655696D02*
X52977081Y-36704020D01*
X50124693Y-41020415D02*
X50149359Y-40977923D01*
X89025925Y-6999996D02*
X88976105Y-6998761D01*
X5579169Y-56594024D02*
X5624479Y-56574385D01*
X29997801Y-9456827D02*
X29998764Y-9476176D01*
X50455302Y-24663596D02*
X50497112Y-24637791D01*
X75763781Y-56857361D02*
X75794420Y-56895643D01*
X97923955Y-5616699D02*
X97941602Y-5662447D01*
X75897155Y-57062371D02*
X75917574Y-57106950D01*
X50977895Y-56501542D02*
X50987744Y-56501300D01*
X97562177Y-40674154D02*
X97601758Y-40702462D01*
X97346284Y-24563208D02*
X97391524Y-24581134D01*
X83884120Y-5534884D02*
X83905975Y-5579169D01*
X60666106Y-72744941D02*
X60629088Y-72776526D01*
X83069873Y-71003999D02*
X83085044Y-71005305D01*
X14977183Y-6204981D02*
X14965818Y-6253002D01*
X96102833Y-25062477D02*
X96125415Y-25018953D01*
X65232663Y-5360085D02*
X65264687Y-5323445D01*
X42503475Y-6865900D02*
X42462269Y-6840916D01*
X6253002Y-8534181D02*
X6300404Y-8547903D01*
X6935821Y-20847414D02*
X6917614Y-20892942D01*
X6302510Y-40548630D02*
X6350130Y-40565121D01*
X37133912Y-6989277D02*
X37085166Y-6994683D01*
X65819404Y-6981796D02*
X65772213Y-6971907D01*
X37021054Y-6999028D02*
X36976924Y-6999996D01*
X6059560Y-56503362D02*
X6108763Y-56507573D01*
X96102833Y-41062477D02*
X96125415Y-41018953D01*
X65573074Y-72904042D02*
X65529268Y-72881986D01*
X5000000Y-41500448D02*
X5001219Y-41451087D01*
X75823149Y-24935433D02*
X75849888Y-24976534D01*
X60897168Y-6437691D02*
X60874586Y-6481215D01*
X27920419Y-8504835D02*
X27981646Y-8501450D01*
X14826016Y-72561996D02*
X14797710Y-72601592D01*
X29415398Y-8592341D02*
X29459463Y-8613848D01*
X42456086Y-71162857D02*
X42498901Y-71136511D01*
X65930126Y-6996000D02*
X65914955Y-6994694D01*
X88478108Y-71149302D02*
X88520594Y-71124644D01*
X53000000Y-68469670D02*
X52998280Y-68528280D01*
X14287329Y-72957608D02*
X14240394Y-72970497D01*
X5804015Y-6979953D02*
X5756177Y-6969206D01*
X37227786Y-71028092D02*
X37274445Y-71040248D01*
X96584596Y-56592395D02*
X96629664Y-56573077D01*
X6597037Y-56700079D02*
X6634895Y-56729791D01*
X83989101Y-5862471D02*
X83994639Y-5911543D01*
X73817614Y-21481502D02*
X73769644Y-21471347D01*
X83755263Y-71347485D02*
X83785897Y-71384720D01*
X42290298Y-72703640D02*
X42256455Y-72667702D01*
X19615727Y-72922990D02*
X19570667Y-72902871D01*
X83985708Y-6158200D02*
X83976731Y-6206418D01*
X50014294Y-20658044D02*
X50007694Y-20609444D01*
X6854146Y-56983497D02*
X6878057Y-57025262D01*
X37905880Y-5578774D02*
X37925532Y-5624058D01*
X6544169Y-69336731D02*
X6502425Y-69362454D01*
X52127997Y-37490210D02*
X52075167Y-37495741D01*
X97711590Y-40798457D02*
X97744941Y-40833893D01*
X65589849Y-6910002D02*
X65546389Y-6889120D01*
X27675481Y-40555984D02*
X27722316Y-40541134D01*
X52544187Y-40663087D02*
X52584620Y-40690827D01*
X37722868Y-71311773D02*
X37755263Y-71347485D01*
X75985957Y-36655696D02*
X75977081Y-36704020D01*
X50769824Y-40528605D02*
X50817903Y-40518424D01*
X50125415Y-52981046D02*
X50102833Y-52937522D01*
X65054408Y-6319719D02*
X65040054Y-6273689D01*
X29697859Y-21213494D02*
X29661909Y-21246974D01*
X52823914Y-69063304D02*
X52795194Y-69103168D01*
X97098889Y-6994223D02*
X97049988Y-6997829D01*
X27205579Y-53104356D02*
X27176855Y-53064617D01*
X6502425Y-53362454D02*
X6459468Y-53386097D01*
X97941602Y-72337552D02*
X97923955Y-72383300D01*
X75324370Y-24555938D02*
X75370331Y-24573022D01*
X6985735Y-20658030D02*
X6976758Y-20706248D01*
X73302217Y-40786367D02*
X73338176Y-40752886D01*
X97970510Y-9259706D02*
X97981093Y-9307203D01*
X52997801Y-57456827D02*
X52998764Y-57476176D01*
X88033943Y-5746830D02*
X88047373Y-5700047D01*
X96001235Y-57476176D02*
X96002198Y-57456827D01*
X29544697Y-53336403D02*
X29502887Y-53362208D01*
X73082037Y-20892420D02*
X73063248Y-20845323D01*
X5042372Y-36787219D02*
X5029489Y-36740293D01*
X52544697Y-53336403D02*
X52502887Y-53362208D01*
X42449339Y-5165893D02*
X42490562Y-5140035D01*
X96866164Y-56510743D02*
X96914898Y-56505338D01*
X51987728Y-69499000D02*
X51018405Y-69499000D01*
X83048843Y-5001220D02*
X83098091Y-5004879D01*
X14942870Y-5669856D02*
X14957973Y-5716836D01*
X88202289Y-5398407D02*
X88232489Y-5360237D01*
X83243910Y-5030366D02*
X83291479Y-5043629D01*
X27338867Y-69247838D02*
X27302942Y-69214466D01*
X5987110Y-21498288D02*
X5938480Y-21496524D01*
X27081772Y-41108779D02*
X27102146Y-41064069D01*
X6650850Y-8743082D02*
X6688342Y-8777010D01*
X42041988Y-72282739D02*
X42029240Y-72235049D01*
X97185682Y-21481163D02*
X97136918Y-21489093D01*
X73338176Y-24752886D02*
X73375738Y-24721214D01*
X42007414Y-71891876D02*
X42014017Y-71842955D01*
X52459457Y-56613796D02*
X52502414Y-56637439D01*
X6951772Y-36801047D02*
X6935821Y-36847414D01*
X60577248Y-71185743D02*
X60615893Y-71214576D01*
X5449507Y-40666135D02*
X5491392Y-40640009D01*
X37590576Y-72806272D02*
X37550660Y-72834106D01*
X97471925Y-72882039D02*
X97428127Y-72904085D01*
X74987728Y-53499000D02*
X74012271Y-53499000D01*
X52415716Y-69407502D02*
X52370566Y-69426880D01*
X27338090Y-8753025D02*
X27375643Y-8721353D01*
X75917579Y-25107001D02*
X75935786Y-25152529D01*
X27302952Y-37214559D02*
X27268709Y-37179464D01*
X60590576Y-72806272D02*
X60550660Y-72834106D01*
X37866541Y-71504667D02*
X37889461Y-71547088D01*
X65405072Y-72803318D02*
X65366413Y-72773138D01*
X50540531Y-69386097D02*
X50497574Y-69362454D01*
X97464701Y-21384245D02*
X97420387Y-21406088D01*
X14805597Y-5408704D02*
X14833763Y-5449223D01*
X97995261Y-25403461D02*
X97998814Y-25451993D01*
X29661823Y-37247113D02*
X29624261Y-37278785D01*
X19123484Y-5520881D02*
X19147807Y-5478734D01*
X29917579Y-9107001D02*
X29935786Y-9152529D01*
X88001711Y-72012889D02*
X88002318Y-71964219D01*
X14147165Y-5010951D02*
X14195777Y-5019441D01*
X60410150Y-71089997D02*
X60453610Y-71110879D01*
X52584597Y-24690953D02*
X52623619Y-24720643D01*
X5949981Y-5001203D02*
X5999012Y-5000000D01*
X19202462Y-5398241D02*
X19232663Y-5360085D01*
X42759706Y-5029489D02*
X42807203Y-5018906D01*
X65302781Y-71285588D02*
X65338705Y-71252216D01*
X97158233Y-40514092D02*
X97206088Y-40522919D01*
X5000000Y-68499347D02*
X5000000Y-57500537D01*
X65621088Y-5074911D02*
X65666537Y-5057524D01*
X96126796Y-36983850D02*
X96103405Y-36939020D01*
X50963852Y-69497668D02*
X50914898Y-69494661D01*
X19633638Y-6928544D02*
X19589259Y-6909764D01*
X27176085Y-24936695D02*
X27204805Y-24896831D01*
X6873203Y-9016149D02*
X6896594Y-9060979D01*
X6919711Y-57112002D02*
X6937357Y-57156776D01*
X52127997Y-53490210D02*
X52075167Y-53495741D01*
X66023075Y-71000003D02*
X73000121Y-71000999D01*
X6344046Y-56562925D02*
X6388804Y-56580612D01*
X88759706Y-72970510D02*
X88712780Y-72957627D01*
X75370716Y-21426755D02*
X75324677Y-21443895D01*
X96866164Y-8510743D02*
X96914898Y-8505338D01*
X42877372Y-71008901D02*
X42927398Y-71003942D01*
X5117965Y-71529034D02*
X5142134Y-71486370D01*
X14714385Y-71302906D02*
X14747757Y-71338831D01*
X50977895Y-40501542D02*
X50987744Y-40501300D01*
X75732051Y-53178423D02*
X75697782Y-53213632D01*
X103000000Y-76988727D02*
X103000000Y-1011272D01*
X73540009Y-8614204D02*
X73584142Y-8592626D01*
X96699595Y-37452096D02*
X96652918Y-37436046D01*
X97507881Y-53360238D02*
X97464701Y-53384245D01*
X75697782Y-69213632D02*
X75661823Y-69247113D01*
X29459447Y-40613704D02*
X29502404Y-40637347D01*
X74987728Y-37499000D02*
X74012271Y-37499000D01*
X50205568Y-37104250D02*
X50176844Y-37064511D01*
X75661161Y-40752086D02*
X75697085Y-40785458D01*
X27082436Y-36893142D02*
X27064229Y-36847614D01*
X14291448Y-5043566D02*
X14338273Y-5059141D01*
X75174294Y-40516780D02*
X75223834Y-40526911D01*
X19415289Y-71190948D02*
X19455721Y-71163209D01*
X52998764Y-41476176D02*
X53000000Y-41525853D01*
X19951993Y-5001185D02*
X20000652Y-5000000D01*
X29917574Y-57106950D02*
X29935781Y-57152478D01*
X97922813Y-20884427D02*
X97902650Y-20929530D01*
X14859895Y-5491084D02*
X14883927Y-5534185D01*
X29277683Y-37458865D02*
X29230175Y-37471394D01*
X75502563Y-8637510D02*
X75544308Y-8663233D01*
X5119527Y-41026591D02*
X5144008Y-40983725D01*
X27124659Y-9020536D02*
X27149319Y-8978048D01*
X75977175Y-41295590D02*
X75986760Y-41347635D01*
X29623619Y-8720643D02*
X29661138Y-8752212D01*
X83123005Y-6991029D02*
X83072167Y-6996088D01*
X19047903Y-71699595D02*
X19063953Y-71652918D01*
X65820570Y-71017928D02*
X65875071Y-71009330D01*
X5043018Y-71709968D02*
X5058400Y-71663409D01*
X65021604Y-71800515D02*
X65032947Y-71751454D01*
X52022104Y-69498457D02*
X52012255Y-69498699D01*
X75324513Y-8555957D02*
X75370474Y-8573041D01*
X27014042Y-25344303D02*
X27022918Y-25295979D01*
X5328125Y-71259747D02*
X5365254Y-71227720D01*
X97956983Y-72290994D02*
X97941602Y-72337552D01*
X50176085Y-24936695D02*
X50204805Y-24896831D01*
X88358626Y-71235363D02*
X88397026Y-71204728D01*
X5408704Y-8694402D02*
X5449223Y-8666236D01*
X50722369Y-21458815D02*
X50675625Y-21444006D01*
X75624261Y-37278785D02*
X75585188Y-37308572D01*
X60034235Y-6998447D02*
X60021054Y-6999028D01*
X50629664Y-21426922D02*
X50584596Y-21407604D01*
X19047506Y-5699774D02*
X19063208Y-5653715D01*
X5019470Y-57304255D02*
X5030366Y-57256089D01*
X36976924Y-6999996D02*
X29999878Y-6999000D01*
X50205568Y-21104250D02*
X50176844Y-21064511D01*
X73124693Y-57020415D02*
X73149359Y-56977923D01*
X50000000Y-57530329D02*
X50001719Y-57471719D01*
X5323445Y-37235312D02*
X5288409Y-37201542D01*
X5095914Y-72428127D02*
X5076044Y-72383300D01*
X50007052Y-20603662D02*
X50002198Y-20543172D01*
X27540542Y-53386203D02*
X27497585Y-53362560D01*
X73977895Y-24501542D02*
X73987744Y-24501300D01*
X97087821Y-69494602D02*
X97038512Y-69497678D01*
X5010967Y-57352901D02*
X5019470Y-57304255D01*
X75874573Y-57018847D02*
X75897155Y-57062371D01*
X27769787Y-21471366D02*
X27722373Y-21458870D01*
X27455840Y-53336837D02*
X27415408Y-53309097D01*
X5199482Y-24901641D02*
X5230072Y-24862846D01*
X37550660Y-72834106D02*
X37509437Y-72859964D01*
X73205550Y-37104431D02*
X73176827Y-37064692D01*
X5564162Y-53398757D02*
X5520881Y-53376515D01*
X5804104Y-5019195D02*
X5852416Y-5010812D01*
X5292600Y-72707399D02*
X5258790Y-72671887D01*
X52992436Y-20607133D02*
X52985944Y-20655852D01*
X29022104Y-53498457D02*
X29012255Y-53498699D01*
X52182242Y-24518477D02*
X52230212Y-24528633D01*
X97000956Y-6999031D02*
X95999913Y-6999000D01*
X96231075Y-21136516D02*
X96201326Y-21098780D01*
X96703479Y-53453174D02*
X96657956Y-53437788D01*
X88123321Y-5521093D02*
X88147640Y-5478931D01*
X6965429Y-20753954D02*
X6951772Y-20801047D01*
X6967040Y-41251399D02*
X6978466Y-41300788D01*
X37516274Y-5144008D02*
X37557879Y-5170577D01*
X27007052Y-36603662D02*
X27002198Y-36543172D01*
X60860104Y-5491734D02*
X60884120Y-5534884D01*
X98000000Y-71999845D02*
X98000000Y-72000987D01*
X75012255Y-40501300D02*
X75023479Y-40501576D01*
X42932671Y-6996445D02*
X42871686Y-6990061D01*
X52936378Y-52845563D02*
X52918227Y-52891220D01*
X75731329Y-40820553D02*
X75763810Y-40857286D01*
X52875306Y-52979584D02*
X52850640Y-53022076D01*
X52823914Y-37063304D02*
X52795194Y-37103168D01*
X29502887Y-53362208D02*
X29459858Y-53385927D01*
X6252237Y-56534116D02*
X6298489Y-56547414D01*
X27149359Y-40977923D02*
X27176085Y-40936695D01*
X5074911Y-20878911D02*
X5057524Y-20833462D01*
X27023275Y-20706304D02*
X27014300Y-20658099D01*
X97562177Y-56674154D02*
X97601758Y-56702462D01*
X97902871Y-36929332D02*
X97880552Y-36973344D01*
X50063603Y-9154541D02*
X50081749Y-9108889D01*
X5370127Y-56724303D02*
X5409255Y-56694174D01*
X6794431Y-53104250D02*
X6763792Y-53142533D01*
X73081749Y-9108889D02*
X73102118Y-9064185D01*
X97185682Y-53481163D02*
X97136918Y-53489093D01*
X29935786Y-25152529D02*
X29951737Y-25198895D01*
X5987110Y-53498288D02*
X5938480Y-53496524D01*
X73149319Y-8978048D02*
X73176038Y-8936823D01*
X27048262Y-20801104D02*
X27034605Y-20754010D01*
X97253456Y-24534066D02*
X97300225Y-24547506D01*
X27873485Y-69490462D02*
X27822011Y-69482422D01*
X27102839Y-20937577D02*
X27082420Y-20892998D01*
X75544697Y-69336403D02*
X75502887Y-69362208D01*
X30000000Y-68469670D02*
X29998280Y-68528280D01*
X5756262Y-5029939D02*
X5804104Y-5019195D01*
X19070896Y-6364848D02*
X19054355Y-6319588D01*
X96173425Y-69059656D02*
X96147439Y-69019236D01*
X88081134Y-72391524D02*
X88063208Y-72346284D01*
X75624261Y-53278785D02*
X75585188Y-53308572D01*
X27722316Y-24541134D02*
X27769824Y-24528605D01*
X97671874Y-6740252D02*
X97634745Y-6772279D01*
X5491734Y-56639895D02*
X5534884Y-56615879D01*
X27455835Y-21336786D02*
X27415402Y-21309046D01*
X97703183Y-69209973D02*
X97667194Y-69243819D01*
X27819527Y-56518122D02*
X27872002Y-56509789D01*
X97995189Y-71901920D02*
X97998796Y-71950817D01*
X83615893Y-71214576D02*
X83653102Y-71245241D01*
X5534884Y-56615879D02*
X5579169Y-56594024D01*
X97233995Y-53470832D02*
X97185682Y-53481163D01*
X96046876Y-36797346D02*
X96032959Y-36748600D01*
X65176694Y-71435437D02*
X65205418Y-71395697D01*
X52544308Y-8663233D02*
X52584740Y-8690972D01*
X97676554Y-24764687D02*
X97711590Y-24798457D01*
X13969617Y-6999996D02*
X5998908Y-6999166D01*
X5793911Y-21477080D02*
X5746543Y-21465933D01*
X75952262Y-36799069D02*
X75936378Y-36845563D01*
X5140035Y-21009437D02*
X5116215Y-20967004D01*
X97711590Y-8798457D02*
X97744941Y-8833893D01*
X29992445Y-52606993D02*
X29985957Y-52655696D01*
X50007052Y-36603662D02*
X50002198Y-36543172D01*
X6823183Y-37064510D02*
X6794460Y-37104249D01*
X75182096Y-69481575D02*
X75180472Y-69481877D01*
X6797799Y-24899995D02*
X6825711Y-24939005D01*
X73338176Y-56752886D02*
X73375738Y-56721214D01*
X83584604Y-6809160D02*
X83544172Y-6836900D01*
X52623642Y-40720517D02*
X52661161Y-40752086D01*
X42147807Y-5478734D02*
X42174154Y-5437822D01*
X83227786Y-71028092D02*
X83274445Y-71040248D01*
X75936378Y-68845563D02*
X75918227Y-68891220D01*
X27268709Y-37179464D02*
X27236228Y-37142731D01*
X14825887Y-6560654D02*
X14797892Y-6599797D01*
X5165893Y-21050660D02*
X5140035Y-21009437D01*
X6965429Y-36753954D02*
X6951772Y-36801047D01*
X50082414Y-20892943D02*
X50064207Y-20847415D01*
X60735312Y-72676554D02*
X60701542Y-72711590D01*
X27987744Y-24501300D02*
X28012271Y-24501000D01*
X52917574Y-57106950D02*
X52935781Y-57152478D01*
X96082414Y-41107056D02*
X96102833Y-41062477D01*
X52897853Y-52935930D02*
X52875306Y-52979584D01*
X73034611Y-68754062D02*
X73023281Y-68706355D01*
X65081134Y-5608475D02*
X65101242Y-5564162D01*
X65338705Y-71252216D02*
X65376224Y-71220646D01*
X83709826Y-5296574D02*
X83743670Y-5332536D01*
X50176844Y-69064511D02*
X50150105Y-69023410D01*
X88844424Y-71014033D02*
X88893116Y-71007547D01*
X65022919Y-5793911D02*
X65034066Y-5746543D01*
X97800517Y-69098358D02*
X97769927Y-69137153D01*
X42778407Y-71026323D02*
X42827670Y-71016367D01*
X29935786Y-9152529D02*
X29951737Y-9198895D01*
X96338856Y-8752267D02*
X96376374Y-8720698D01*
X97328793Y-21443073D02*
X97281737Y-21458125D01*
X14876064Y-6478553D02*
X14851965Y-6520208D01*
X83794433Y-6604419D02*
X83763794Y-6642701D01*
X88712780Y-72957627D02*
X88666537Y-72942475D01*
X73102146Y-25064069D02*
X73124693Y-25020415D01*
X96405007Y-21301464D02*
X96367125Y-21271900D01*
X29998280Y-68528280D02*
X29996533Y-68558019D01*
X29936378Y-52845563D02*
X29918227Y-52891220D01*
X28987728Y-40501000D02*
X29012255Y-40501300D01*
X42003475Y-5938480D02*
X42007605Y-5889993D01*
X5059181Y-41161700D02*
X5077062Y-41115688D01*
X27082420Y-20892998D02*
X27064213Y-20847470D01*
X5938480Y-69496524D02*
X5889993Y-69492394D01*
X14898914Y-72435609D02*
X14876678Y-72478906D01*
X6182274Y-21481466D02*
X6133864Y-21489255D01*
X6133864Y-37489255D02*
X6085129Y-37494659D01*
X28012271Y-37499000D02*
X27987744Y-37498699D01*
X97147583Y-5010812D02*
X97195895Y-5019195D01*
X50268687Y-69179265D02*
X50236207Y-69142533D01*
X97590419Y-21305971D02*
X97549821Y-21334125D01*
X83320463Y-71054640D02*
X83365733Y-71071236D01*
X563Y-77001155D02*
X8660Y-77009660D01*
X73150116Y-53023516D02*
X73125426Y-52981152D01*
X52996526Y-20558141D02*
X52992436Y-20607133D01*
X6992305Y-52609444D02*
X6985705Y-52658044D01*
X75415716Y-53407502D02*
X75370566Y-53426880D01*
X52415716Y-53407502D02*
X52370566Y-53426880D01*
X27925307Y-69495807D02*
X27873485Y-69490462D01*
X96006312Y-68599275D02*
X96002440Y-68548050D01*
X5746543Y-53465933D02*
X5699774Y-53452493D01*
X5624951Y-24574286D02*
X5671206Y-24556926D01*
X14989282Y-71866138D02*
X14994688Y-71914885D01*
X73584458Y-21407639D02*
X73540393Y-21386132D01*
X19346536Y-6754474D02*
X19310886Y-6722052D01*
X97507881Y-69360238D02*
X97464701Y-69384245D01*
X52459858Y-37385927D02*
X52415716Y-37407502D01*
X97859964Y-8990562D02*
X97883784Y-9032995D01*
X50817753Y-37481467D02*
X50769783Y-37471311D01*
X83731313Y-6679433D02*
X83697070Y-6714528D01*
X50048256Y-68801048D02*
X50034599Y-68753955D01*
X6953123Y-9202653D02*
X6967040Y-9251399D01*
X37384311Y-5077062D02*
X37429384Y-5097193D01*
X97087821Y-53494602D02*
X97038512Y-53497678D01*
X73376385Y-69279407D02*
X73338867Y-69247838D01*
X19978945Y-71000971D02*
X20023075Y-71000003D01*
X6847860Y-40973030D02*
X6873384Y-41016484D01*
X27034148Y-9248242D02*
X27047723Y-9201029D01*
X96629664Y-56573077D02*
X96675625Y-56555993D01*
X65710233Y-72956963D02*
X65663666Y-72941576D01*
X52502887Y-53362208D02*
X52459858Y-53385927D01*
X29897853Y-36935930D02*
X29875306Y-36979584D01*
X73584607Y-53407710D02*
X73540542Y-53386203D01*
X6230245Y-21471310D02*
X6182274Y-21481466D01*
X75823172Y-40935307D02*
X75849911Y-40976408D01*
X73013239Y-36652364D02*
X73006424Y-36599898D01*
X50034159Y-25248149D02*
X50047737Y-25200930D01*
X60981145Y-5813733D02*
X60989101Y-5862471D01*
X30000000Y-57525853D02*
X30000000Y-68469670D01*
X52012255Y-8501300D02*
X52021066Y-8501517D01*
X96014294Y-25341955D02*
X96023269Y-25293750D01*
X27819527Y-24518122D02*
X27872002Y-24509789D01*
X73987744Y-56501300D02*
X74012271Y-56501000D01*
X6998764Y-52523823D02*
X6997801Y-52543172D01*
X37180595Y-71018203D02*
X37227786Y-71028092D01*
X42194298Y-72591035D02*
X42166135Y-72550492D01*
X27817903Y-40518424D02*
X27819527Y-40518122D01*
X6156457Y-8513837D02*
X6204981Y-8522816D01*
X14384272Y-5077009D02*
X14429332Y-5097128D01*
X6584602Y-53308992D02*
X6544169Y-53336731D01*
X97061519Y-8503475D02*
X97110006Y-8507605D01*
X75022104Y-69498457D02*
X75012255Y-69498699D01*
X97970064Y-71757111D02*
X97980806Y-71804950D01*
X50496990Y-8637926D02*
X50540009Y-8614204D01*
X50722369Y-69458815D02*
X50675625Y-69444006D01*
X75415857Y-21407373D02*
X75370716Y-21426755D01*
X83537256Y-71158808D02*
X83577248Y-71185743D01*
X97859964Y-40990562D02*
X97883784Y-41032995D01*
X65462743Y-6841191D02*
X65422751Y-6814256D01*
X14862479Y-71497549D02*
X14886122Y-71540506D01*
X6009602Y-40501493D02*
X6058936Y-40503236D01*
X50014294Y-52658044D02*
X50007694Y-52609444D01*
X27102118Y-9064185D02*
X27124659Y-9020536D01*
X52223834Y-40526911D02*
X52272798Y-40539535D01*
X96722369Y-56541184D02*
X96769783Y-56528688D01*
X5165893Y-69050660D02*
X5140035Y-69009437D01*
X65277131Y-6688226D02*
X65244736Y-6652514D01*
X43000652Y-5000000D02*
X59999462Y-5000000D01*
X96338856Y-56752267D02*
X96376374Y-56720698D01*
X50675625Y-21444006D02*
X50629664Y-21426922D01*
X6978466Y-41300788D02*
X6987372Y-41350693D01*
X19147807Y-5478734D02*
X19174154Y-5437822D01*
X29731306Y-8820679D02*
X29763787Y-8857412D01*
X5001219Y-41451087D02*
X5004875Y-41401858D01*
X50007694Y-68609444D02*
X50007052Y-68603662D01*
X37876515Y-72479118D02*
X37852192Y-72521265D01*
X19621088Y-5074911D02*
X19666537Y-5057524D01*
X6794431Y-69104250D02*
X6763792Y-69142533D01*
X96001235Y-36523823D02*
X96000000Y-36474146D01*
X29763781Y-56857361D02*
X29794420Y-56895643D01*
X96034599Y-41246044D02*
X96048256Y-41198951D01*
X75936378Y-52845563D02*
X75918227Y-52891220D01*
X27376385Y-69279407D02*
X27338867Y-69247838D01*
X42615688Y-72922937D02*
X42570615Y-72902806D01*
X96001235Y-25476176D02*
X96002198Y-25456827D01*
X42123484Y-5520881D02*
X42147807Y-5478734D01*
X37743544Y-5332297D02*
X37775570Y-5369862D01*
X73001235Y-36523823D02*
X73000000Y-36474146D01*
X27981646Y-8501450D02*
X27987744Y-8501300D01*
X6108123Y-40507414D02*
X6157044Y-40514017D01*
X88397026Y-71204728D02*
X88436885Y-71176018D01*
X5443985Y-5168362D02*
X5485411Y-5142129D01*
X65185301Y-6576610D02*
X65158398Y-6536597D01*
X28987728Y-37499000D02*
X28012271Y-37499000D01*
X52992299Y-25390499D02*
X52992947Y-25396337D01*
X75977081Y-36704020D02*
X75965840Y-36751850D01*
X88007605Y-72110006D02*
X88003475Y-72061519D01*
X73375738Y-40721214D02*
X73414811Y-40691427D01*
X65855159Y-5010650D02*
X65903461Y-5004738D01*
X83550660Y-72834106D02*
X83509437Y-72859964D01*
X14636803Y-5229562D02*
X14674022Y-5261964D01*
X5717260Y-40541988D02*
X5764950Y-40529240D01*
X52731450Y-8820699D02*
X52763930Y-8857431D01*
X52370474Y-8573041D02*
X52415541Y-8592360D01*
X88002326Y-71963986D02*
X88005341Y-71914943D01*
X60794433Y-6604419D02*
X60763794Y-6642701D01*
X6570959Y-8681127D02*
X6611689Y-8711093D01*
X97880552Y-36973344D02*
X97856087Y-37016200D01*
X60996524Y-72061519D02*
X60992394Y-72110006D01*
X65629513Y-71073025D02*
X65675474Y-71055941D01*
X19383708Y-6785139D02*
X19346536Y-6754474D01*
X5910470Y-8505281D02*
X5959716Y-8502123D01*
X73048267Y-52801155D02*
X73034611Y-52754062D01*
X60598229Y-5199316D02*
X60637016Y-5229883D01*
X27000000Y-68474146D02*
X27000000Y-57530329D01*
X27414811Y-56691427D02*
X27455302Y-56663596D01*
X73001235Y-68523823D02*
X73000000Y-68474146D01*
X97038512Y-69497678D02*
X96989112Y-69498312D01*
X5095914Y-5571872D02*
X5117960Y-5528074D01*
X50023269Y-36706249D02*
X50014294Y-36658044D01*
X82999347Y-73000000D02*
X66000304Y-73000000D01*
X5042372Y-52787219D02*
X5029489Y-52740293D01*
X42978966Y-6999029D02*
X42965764Y-6998447D01*
X52661823Y-37247113D02*
X52624261Y-37278785D01*
X73675481Y-56555984D02*
X73722316Y-56541134D01*
X96101442Y-52934884D02*
X96081539Y-52891147D01*
X5226771Y-71366199D02*
X5258799Y-71329070D01*
X88620959Y-5074944D02*
X88666418Y-5057550D01*
X52415541Y-8592360D02*
X52459606Y-8613867D01*
X96006265Y-36599013D02*
X96002460Y-36548450D01*
X97711590Y-24798457D02*
X97744941Y-24833893D01*
X75544164Y-24663213D02*
X75584597Y-24690953D01*
X97925088Y-41121088D02*
X97942475Y-41166537D01*
X29936378Y-36845563D02*
X29918227Y-36891220D01*
X60942991Y-5670704D02*
X60958062Y-5717732D01*
X50302931Y-21214360D02*
X50268687Y-21179265D01*
X50455302Y-56663596D02*
X50497112Y-56637791D01*
X52277683Y-53458865D02*
X52230175Y-53471394D01*
X52415392Y-56592289D02*
X52459457Y-56613796D01*
X65046748Y-71703026D02*
X65062972Y-71655356D01*
X5196603Y-71404854D02*
X5226771Y-71366199D01*
X5520881Y-21376515D02*
X5478734Y-21352192D01*
X50722316Y-24541134D02*
X50769824Y-24528605D01*
X83849896Y-6523578D02*
X83823156Y-6564679D01*
X96176844Y-8935488D02*
X96205568Y-8895749D01*
X50007554Y-41393006D02*
X50014042Y-41344303D01*
X5408964Y-40694298D02*
X5449507Y-40666135D01*
X83936791Y-72346284D02*
X83918865Y-72391524D01*
X29998764Y-41476176D02*
X30000000Y-41525853D01*
X5001203Y-5949981D02*
X5004810Y-5901080D01*
X19540422Y-71113843D02*
X19584487Y-71092336D01*
X29732051Y-69178423D02*
X29697782Y-69213632D01*
X27987744Y-53498699D02*
X27977351Y-53498443D01*
X29180472Y-37481877D02*
X29127997Y-37490210D01*
X27007554Y-57393006D02*
X27014042Y-57344303D01*
X52012255Y-24501300D02*
X52021066Y-24501517D01*
X5042372Y-68787219D02*
X5029489Y-68740293D01*
X97831637Y-72556014D02*
X97803404Y-72596103D01*
X29952276Y-20798970D02*
X29936396Y-20845458D01*
X5449223Y-8666236D02*
X5491084Y-8640104D01*
X6370364Y-37426921D02*
X6324403Y-37444005D01*
X97989187Y-72147583D02*
X97980804Y-72195895D01*
X29952262Y-68799069D02*
X29936378Y-68845563D01*
X73584589Y-37407790D02*
X73540513Y-37386278D01*
X5804104Y-72980804D02*
X5756262Y-72970060D01*
X5841766Y-69485907D02*
X5793911Y-69477080D01*
X97741209Y-5328112D02*
X97773237Y-5365241D01*
X29985963Y-20655616D02*
X29977089Y-20703934D01*
X97383372Y-71076907D02*
X97428194Y-71096779D01*
X50001235Y-20523823D02*
X50000000Y-20474146D01*
X65034066Y-5746543D02*
X65047506Y-5699774D01*
X5229562Y-8863196D02*
X5261964Y-8825977D01*
X27000000Y-9530329D02*
X27001719Y-9471719D01*
X6739288Y-56829363D02*
X6770756Y-56865775D01*
X60072167Y-6996088D02*
X60063775Y-6996708D01*
X42462269Y-6840916D02*
X42422316Y-6813975D01*
X50415397Y-69308992D02*
X50376374Y-69279301D01*
X52502563Y-8637510D02*
X52544308Y-8663233D01*
X14048981Y-5001219D02*
X14098194Y-5004872D01*
X50001719Y-57471719D02*
X50003466Y-57441980D01*
X5140035Y-53009437D02*
X5116215Y-52967004D01*
X6623625Y-69279301D02*
X6584602Y-69308992D01*
X75623642Y-40720517D02*
X75661161Y-40752086D01*
X50817903Y-40518424D02*
X50819527Y-40518122D01*
X6847574Y-8972560D02*
X6873203Y-9016149D01*
X14965818Y-6253002D02*
X14952096Y-6300404D01*
X75952276Y-20798970D02*
X75936396Y-20845458D01*
X27002198Y-52543172D02*
X27001235Y-52523823D01*
X75459463Y-24613848D02*
X75502420Y-24637491D01*
X52021066Y-8501517D02*
X52076167Y-8504393D01*
X27204752Y-8896962D02*
X27235390Y-8858561D01*
X27149359Y-56977923D02*
X27176085Y-56936695D01*
X5365241Y-5226762D02*
X5403896Y-5196595D01*
X97012889Y-24501711D02*
X97061519Y-24503475D01*
X29584597Y-8690953D02*
X29623619Y-8720643D01*
X96891368Y-21492373D02*
X96843742Y-21485976D01*
X52012255Y-53498699D02*
X51987728Y-53499000D01*
X96001235Y-20523823D02*
X96000000Y-20474146D01*
X5793911Y-37477080D02*
X5746543Y-37465933D01*
X5076044Y-72383300D02*
X5058397Y-72337552D01*
X27872002Y-24509789D02*
X27924832Y-24504258D01*
X52951737Y-25198895D02*
X52965394Y-25245989D01*
X75918227Y-36891220D02*
X75897853Y-36935930D01*
X51987728Y-40501000D02*
X52012255Y-40501300D01*
X73236189Y-37142713D02*
X73205550Y-37104431D01*
X96123426Y-68977613D02*
X96101442Y-68934884D01*
X42542976Y-71112358D02*
X42588210Y-71090453D01*
X96236207Y-40857466D02*
X96268687Y-40820734D01*
X50236207Y-69142533D02*
X50205568Y-69104250D01*
X75897881Y-20935814D02*
X75875340Y-20979463D01*
X5000000Y-6000154D02*
X5000000Y-5999012D01*
X6763821Y-37142531D02*
X6731340Y-37179264D01*
X19771474Y-6971761D02*
X19724851Y-6959578D01*
X19712780Y-5042372D02*
X19759706Y-5029489D01*
X19081134Y-5608475D02*
X19101242Y-5564162D01*
X42158233Y-6536364D02*
X42133319Y-6495116D01*
X60755263Y-71347485D02*
X60785897Y-71384720D01*
X29502887Y-69362208D02*
X29459858Y-69385927D01*
X97883784Y-57032995D02*
X97905509Y-57076538D01*
X19054355Y-6319588D02*
X19040016Y-6273582D01*
X73102146Y-41064069D02*
X73124693Y-41020415D01*
X6623653Y-21279300D02*
X6584630Y-21308991D01*
X60905975Y-5579169D02*
X60925614Y-5624479D01*
X75952262Y-68799069D02*
X75936378Y-68845563D01*
X50866164Y-69489256D02*
X50817753Y-69481467D01*
X73338838Y-37247913D02*
X73302914Y-37214541D01*
X89030382Y-71000003D02*
X97001091Y-71000833D01*
X19807203Y-5018906D02*
X19855159Y-5010650D01*
X65455679Y-71163216D02*
X65497424Y-71137494D01*
X96367125Y-21271900D02*
X96330708Y-21240549D01*
X29823133Y-40935289D02*
X29849872Y-40976390D01*
X97857870Y-5485411D02*
X97882039Y-5528074D01*
X83674246Y-5262328D02*
X83709826Y-5296574D01*
X5043629Y-57208520D02*
X5059226Y-57161664D01*
X88063066Y-5653973D02*
X88080984Y-5608718D01*
X73496990Y-8637926D02*
X73540009Y-8614204D01*
X29368499Y-40572130D02*
X29415001Y-40592022D01*
X96749689Y-69466354D02*
X96703479Y-69453174D01*
X6937357Y-57156776D02*
X6952827Y-57202347D01*
X75018353Y-21498549D02*
X75012255Y-21498699D01*
X5861439Y-8510867D02*
X5910470Y-8505281D01*
X5076034Y-6382443D02*
X5058390Y-6336698D01*
X73124693Y-41020415D02*
X73149359Y-40977923D01*
X29795194Y-53103168D02*
X29764548Y-53141572D01*
X29277851Y-21458751D02*
X29230352Y-21471287D01*
X6878057Y-57025262D02*
X6899929Y-57068130D01*
X37636901Y-5229713D02*
X37674124Y-5262136D01*
X97995261Y-41403461D02*
X97998814Y-41451993D01*
X97671887Y-72741209D02*
X97634758Y-72773237D01*
X52976724Y-25293695D02*
X52985699Y-25341900D01*
X29415857Y-21407373D02*
X29370716Y-21426755D01*
X27675481Y-56555984D02*
X27722316Y-56541134D01*
X14996592Y-72061179D02*
X14992477Y-72109678D01*
X29823144Y-56935382D02*
X29849883Y-56976483D01*
X14952626Y-72299952D02*
X14936933Y-72346026D01*
X96769783Y-8528688D02*
X96817753Y-8518532D01*
X29936378Y-68845563D02*
X29918227Y-68891220D01*
X50125415Y-68981046D02*
X50102833Y-68937522D01*
X97596088Y-6802446D02*
X97555998Y-6830680D01*
X37459544Y-6886118D02*
X37415479Y-6907624D01*
X65143301Y-72514388D02*
X65119137Y-72471710D01*
X27415408Y-69309097D02*
X27376385Y-69279407D01*
X27455302Y-56663596D02*
X27497112Y-56637791D01*
X50267948Y-24821576D02*
X50302217Y-24786367D01*
X75850640Y-53022076D02*
X75823914Y-53063304D01*
X14779327Y-71376350D02*
X14809017Y-71415372D01*
X19001711Y-5987110D02*
X19003475Y-5938480D01*
X6157044Y-40514017D02*
X6205580Y-40523029D01*
X96429040Y-37318872D02*
X96388310Y-37288906D01*
X65449339Y-5165893D02*
X65490562Y-5140035D01*
X83598229Y-5199316D02*
X83637016Y-5229883D01*
X50924832Y-24504258D02*
X50977895Y-24501542D01*
X60823156Y-6564679D02*
X60794433Y-6604419D01*
X96722369Y-24541184D02*
X96769783Y-24528688D01*
X27235451Y-24858427D02*
X27267948Y-24821576D01*
X75795194Y-37103168D02*
X75764548Y-37141572D01*
X60935793Y-6347583D02*
X60917586Y-6393111D01*
X27629674Y-69427028D02*
X27584607Y-69407710D01*
X96843742Y-53485976D02*
X96796480Y-53477296D01*
X5193727Y-53090576D02*
X5165893Y-53050660D01*
X42681694Y-71053599D02*
X42729708Y-71038744D01*
X42150084Y-71476360D02*
X42176823Y-71435259D01*
X73205579Y-69104356D02*
X73176855Y-69064617D01*
X29661823Y-69247113D02*
X29624261Y-69278785D01*
X73584283Y-24592497D02*
X73629433Y-24573119D01*
X50497574Y-21362454D02*
X50455830Y-21336731D01*
X27987744Y-56501300D02*
X28012271Y-56501000D01*
X88173983Y-5438003D02*
X88202289Y-5398407D01*
X52321061Y-40554621D02*
X52368499Y-40572130D01*
X37945591Y-71680280D02*
X37959945Y-71726310D01*
X6849894Y-53023410D02*
X6823155Y-53064511D01*
X73415379Y-37309172D02*
X73376357Y-37279482D01*
X52174823Y-21483107D02*
X52124622Y-21490778D01*
X27000000Y-20474146D02*
X27000000Y-9530329D01*
X75180472Y-53481877D02*
X75127997Y-53490210D01*
X60959945Y-71726310D02*
X60972062Y-71772979D01*
X60453610Y-71110879D02*
X60496011Y-71133834D01*
X5004872Y-9401805D02*
X5010951Y-9352834D01*
X65903461Y-5004738D02*
X65951993Y-5001185D01*
X73722316Y-56541134D02*
X73769824Y-56528605D01*
X88608943Y-71081739D02*
X88654592Y-71063595D01*
X29794410Y-40895550D02*
X29823133Y-40935289D01*
X97970060Y-72243737D02*
X97956983Y-72290994D01*
X42588210Y-71090453D02*
X42634488Y-71070850D01*
X88022808Y-5794212D02*
X88033943Y-5746830D01*
X83429450Y-5097267D02*
X83473486Y-5119617D01*
X96455830Y-56663268D02*
X96497574Y-56637545D01*
X97737456Y-53174388D02*
X97703183Y-53209973D01*
X29977081Y-52704020D02*
X29965840Y-52751850D01*
X14703073Y-6708517D02*
X14668099Y-6741574D01*
X27034605Y-20754010D02*
X27023275Y-20706304D01*
X5616721Y-71077004D02*
X5662470Y-71059357D01*
X14768044Y-6637546D02*
X14736413Y-6673814D01*
X37182323Y-6981488D02*
X37133912Y-6989277D01*
X6277630Y-53458815D02*
X6230216Y-53471311D01*
X14977191Y-72205787D02*
X14966056Y-72253169D01*
X27034159Y-41248149D02*
X27047737Y-41200930D01*
X5841766Y-37485907D02*
X5793911Y-37477080D01*
X27584142Y-8592626D02*
X27629283Y-8573244D01*
X60852192Y-72521265D02*
X60825845Y-72562177D01*
X29182096Y-53481575D02*
X29180472Y-53481877D01*
X97639914Y-24732663D02*
X97676554Y-24764687D01*
X52012255Y-21498699D02*
X51987728Y-21499000D01*
X52993734Y-9400986D02*
X52997539Y-9451549D01*
X5077009Y-9115727D02*
X5097128Y-9070667D01*
X60998411Y-6010208D02*
X60996637Y-6059560D01*
X14423598Y-72905467D02*
X14379040Y-72925055D01*
X50176844Y-21064511D02*
X50150105Y-21023410D01*
X50817753Y-21481467D02*
X50769783Y-21471311D01*
X88022919Y-72206088D02*
X88014092Y-72158233D01*
X5852444Y-71011777D02*
X5901110Y-71005776D01*
X97667918Y-37243437D02*
X97630374Y-37275463D01*
X29180472Y-53481877D02*
X29127997Y-53490210D01*
X29370566Y-53426880D02*
X29324518Y-53444015D01*
X27771014Y-53471708D02*
X27769805Y-53471421D01*
X97882039Y-5528074D02*
X97904085Y-5571872D01*
X83866541Y-71504667D02*
X83889461Y-71547088D01*
X101988752Y-77999999D02*
X102000490Y-77999711D01*
X50236207Y-21142533D02*
X50205568Y-21104250D01*
X60550660Y-72834106D02*
X60509437Y-72859964D01*
X96990941Y-37498598D02*
X96941623Y-37496883D01*
X88285614Y-6697093D02*
X88252242Y-6661168D01*
X83661145Y-6747900D02*
X83623626Y-6779470D01*
X52370566Y-37426880D02*
X52324518Y-37444015D01*
X42409423Y-5193727D02*
X42449339Y-5165893D01*
X88003407Y-5938820D02*
X88007522Y-5890321D01*
X73976520Y-37498423D02*
X73926005Y-37495903D01*
X5043566Y-9208551D02*
X5059141Y-9161726D01*
X96722369Y-40541184D02*
X96769783Y-40528688D01*
X52918172Y-20891454D02*
X52897786Y-20936177D01*
X29823914Y-37063304D02*
X29795194Y-37103168D01*
X27000000Y-57530329D02*
X27001719Y-57471719D01*
X73978933Y-21498482D02*
X73923832Y-21495606D01*
X96268687Y-8820734D02*
X96302931Y-8785639D01*
X96150105Y-8976589D02*
X96176844Y-8935488D01*
X75661132Y-56752161D02*
X75697057Y-56785533D01*
X73455840Y-53336837D02*
X73415408Y-53309097D01*
X6967040Y-25251399D02*
X6978466Y-25300788D01*
X6661172Y-37247731D02*
X6623653Y-37279300D01*
X30000000Y-9525853D02*
X30000000Y-20469670D01*
X6997801Y-68543172D02*
X6992947Y-68603662D01*
X97206088Y-56522919D02*
X97253456Y-56534066D01*
X29661138Y-24752212D02*
X29697063Y-24785584D01*
X29977089Y-20703934D02*
X29965851Y-20751757D01*
X73302914Y-37214541D02*
X73268670Y-37179446D01*
X60701542Y-72711590D02*
X60666106Y-72744941D01*
X6010208Y-56501588D02*
X6059560Y-56503362D01*
X5901080Y-72995189D02*
X5852416Y-72989187D01*
X29277620Y-56541078D02*
X29324364Y-56555887D01*
X37805701Y-5408964D02*
X37833864Y-5449507D01*
X75624356Y-21278646D02*
X75585291Y-21308434D01*
X5058397Y-5662447D02*
X5076044Y-5616699D01*
X29230352Y-21471287D02*
X29182294Y-21481472D01*
X73769644Y-21471347D02*
X73722230Y-21458850D01*
X52415410Y-40592209D02*
X52459486Y-40613721D01*
X5950011Y-71002170D02*
X5999043Y-71000968D01*
X75795194Y-53103168D02*
X75764548Y-53141572D01*
X29697063Y-8785584D02*
X29731306Y-8820679D01*
X73584283Y-40592497D02*
X73629433Y-40573119D01*
X75584597Y-24690953D02*
X75623619Y-24720643D01*
X29022648Y-56501556D02*
X29074692Y-56504192D01*
X50981646Y-8501450D02*
X50987744Y-8501300D01*
X6035780Y-53497681D02*
X5987110Y-53498288D01*
X14379040Y-72925055D02*
X14333581Y-72942449D01*
X73002198Y-68543172D02*
X73001235Y-68523823D01*
X73376385Y-53279407D02*
X73338867Y-53247838D01*
X14429332Y-5097128D02*
X14473344Y-5119447D01*
X29985699Y-9341900D02*
X29992299Y-9390499D01*
X27001719Y-25471719D02*
X27003466Y-25441980D01*
X73727201Y-37460464D02*
X73678938Y-37445378D01*
X29272798Y-40539535D02*
X29321061Y-40554621D01*
X75849888Y-24976534D02*
X75874579Y-25018898D01*
X50102833Y-20937522D02*
X50082414Y-20892943D01*
X88055967Y-6324400D02*
X88041159Y-6277656D01*
X5328112Y-72741209D02*
X5292600Y-72707399D01*
X60889461Y-71547088D02*
X60910307Y-71590564D01*
X6661143Y-69247732D02*
X6623625Y-69279301D01*
X74012271Y-53499000D02*
X73987744Y-53498699D01*
X5616699Y-72923955D02*
X5571872Y-72904085D01*
X29324370Y-24555938D02*
X29370331Y-24573022D01*
X14153809Y-6986264D02*
X14106098Y-6992547D01*
X97596103Y-5196595D02*
X97634758Y-5226762D01*
X36976945Y-71000002D02*
X37021033Y-71000970D01*
X65006070Y-72098588D02*
X65002478Y-72049675D01*
X97040283Y-37497876D02*
X96990941Y-37498598D01*
X5671206Y-24556926D02*
X5718262Y-24541874D01*
X37274445Y-71040248D02*
X37320463Y-71054640D01*
X60021033Y-71000970D02*
X60028106Y-71001282D01*
X97998814Y-57451993D02*
X98000000Y-57500652D01*
X96236207Y-24857466D02*
X96268687Y-24820734D01*
X65929964Y-71003753D02*
X65936224Y-71003291D01*
X5437822Y-69325845D02*
X5398241Y-69297537D01*
X50047737Y-25200930D02*
X50063621Y-25154436D01*
X42978945Y-71000971D02*
X43023075Y-71000003D01*
X75976718Y-57293644D02*
X75985693Y-57341849D01*
X6108763Y-56507573D02*
X6157711Y-56514212D01*
X5097349Y-25070469D02*
X5119718Y-25026418D01*
X75731450Y-8820699D02*
X75763930Y-8857431D01*
X50007694Y-36609444D02*
X50007052Y-36603662D01*
X6324403Y-21444005D02*
X6277659Y-21458814D01*
X73497436Y-21362489D02*
X73455691Y-21336766D01*
X97989022Y-68647069D02*
X97980513Y-68695735D01*
X96002198Y-41456827D02*
X96007052Y-41396337D01*
X29079580Y-21495164D02*
X29018353Y-21498549D01*
X52918227Y-52891220D02*
X52897853Y-52935930D01*
X19483799Y-72856087D02*
X19442203Y-72829536D01*
X5292563Y-6706529D02*
X5258757Y-6671018D01*
X52936751Y-9154676D02*
X52953123Y-9202653D01*
X50048256Y-36801048D02*
X50034599Y-36753955D01*
X6987372Y-9350693D02*
X6993734Y-9400986D01*
X65532995Y-5116215D02*
X65576538Y-5094490D01*
X5901110Y-71005776D02*
X5950011Y-71002170D01*
X73414811Y-56691427D02*
X73455302Y-56663596D01*
X96014294Y-9341955D02*
X96023269Y-9293750D01*
X50376374Y-53279301D02*
X50338856Y-53247732D01*
X27047737Y-25200930D02*
X27063621Y-25154436D01*
X97769927Y-53137153D02*
X97737456Y-53174388D01*
X65214102Y-6615279D02*
X65185301Y-6576610D01*
X5097267Y-57070549D02*
X5119617Y-57026513D01*
X6514501Y-24644602D02*
X6554999Y-24670308D01*
X65370911Y-5223473D02*
X65409423Y-5193727D01*
X6584602Y-69308992D02*
X6544169Y-69336731D01*
X29732051Y-37178423D02*
X29697782Y-37213632D01*
X50022910Y-9296065D02*
X50034148Y-9248242D01*
X37048006Y-72998814D02*
X36999347Y-73000000D01*
X75131025Y-24510306D02*
X75133819Y-24510686D01*
X75965840Y-68751850D02*
X75952262Y-68799069D01*
X52849883Y-56976483D02*
X52874573Y-57018847D01*
X6108594Y-24507620D02*
X6156135Y-24513999D01*
X96941623Y-37496883D02*
X96892450Y-37492734D01*
X19236099Y-71357407D02*
X19268579Y-71320675D01*
X52897786Y-20936177D02*
X52875224Y-20979842D01*
X29503009Y-21362073D02*
X29459990Y-21385795D01*
X6085129Y-21494659D02*
X6036175Y-21497667D01*
X52324518Y-69444015D02*
X52277683Y-69458865D01*
X5058390Y-6336698D02*
X5043011Y-6290142D01*
X97420387Y-53406088D02*
X97375048Y-53425713D01*
X5520881Y-37376515D02*
X5478734Y-37352192D01*
X52732051Y-37178423D02*
X52697782Y-37213632D01*
X5043016Y-5709005D02*
X5058397Y-5662447D01*
X5491084Y-8640104D02*
X5534185Y-8616072D01*
X74012271Y-24501000D02*
X74987728Y-24501000D01*
X73125277Y-20981082D02*
X73102695Y-20937558D01*
X29075167Y-53495741D02*
X29022104Y-53498457D01*
X97671887Y-5258790D02*
X97707399Y-5292600D01*
X5699774Y-53452493D02*
X5653715Y-53436791D01*
X65197762Y-72595934D02*
X65169530Y-72555830D01*
X83274445Y-71040248D02*
X83320463Y-71054640D01*
X73003466Y-25441980D02*
X73007554Y-25393006D01*
X42125394Y-71518723D02*
X42150084Y-71476360D01*
X97857870Y-72514588D02*
X97831637Y-72556014D01*
X75415716Y-37407502D02*
X75370566Y-37426880D01*
X75976749Y-41293581D02*
X75977175Y-41295590D01*
X29952262Y-36799069D02*
X29936378Y-36845563D01*
X83976731Y-6206418D02*
X83965401Y-6254124D01*
X37584678Y-6809012D02*
X37544246Y-6836752D01*
X5199316Y-56901770D02*
X5229883Y-56862983D01*
X65205418Y-71395697D02*
X65236057Y-71357415D01*
X73375738Y-56721214D02*
X73414811Y-56691427D01*
X96242058Y-37149662D02*
X96210130Y-37110451D01*
X50007549Y-9393079D02*
X50014036Y-9344383D01*
X97591295Y-37305597D02*
X97550776Y-37333763D01*
X60544172Y-6836900D02*
X60502427Y-6862622D01*
X96262604Y-69172779D02*
X96231075Y-69136516D01*
X97776526Y-8870911D02*
X97806272Y-8909423D01*
X50817903Y-24518424D02*
X50819527Y-24518122D01*
X88047506Y-72300225D02*
X88034066Y-72253456D01*
X73629283Y-8573244D02*
X73675322Y-8556104D01*
X5332297Y-40756455D02*
X5369862Y-40724429D01*
X6697068Y-53214360D02*
X6661143Y-53247732D01*
X27497585Y-53362560D02*
X27455840Y-53336837D01*
X75544159Y-56663162D02*
X75584591Y-56690902D01*
X83072167Y-6996088D02*
X83063775Y-6996708D01*
X73497557Y-37362635D02*
X73455812Y-37336912D01*
X96047858Y-52800127D02*
X96033607Y-52750773D01*
X37981135Y-5813212D02*
X37989114Y-5861927D01*
X13974074Y-71000003D02*
X14023894Y-71001238D01*
X50268687Y-53179265D02*
X50236207Y-53142533D01*
X75584740Y-8690972D02*
X75623763Y-8720662D01*
X29897155Y-57062371D02*
X29917574Y-57106950D01*
X96063762Y-68846503D02*
X96048148Y-68801045D01*
X97375048Y-53425713D02*
X97328793Y-53443073D01*
X83998411Y-6010208D02*
X83996637Y-6059560D01*
X73002395Y-36547131D02*
X73001235Y-36523823D01*
X6758622Y-40851150D02*
X6790406Y-40890258D01*
X27267948Y-56821576D02*
X27302217Y-56786367D01*
X97995127Y-36598194D02*
X97989048Y-36647165D01*
X37852192Y-72521265D02*
X37825845Y-72562177D01*
X75585291Y-21308434D02*
X75544810Y-21336265D01*
X50338856Y-53247732D02*
X50302931Y-53214360D01*
X5616699Y-5076044D02*
X5662447Y-5058397D01*
X96048256Y-9198951D02*
X96064207Y-9152584D01*
X75918227Y-52891220D02*
X75897853Y-52935930D01*
X96989112Y-69498312D02*
X96939728Y-69496502D01*
X96000000Y-68474146D02*
X96000000Y-57525853D01*
X27002198Y-68543172D02*
X27001235Y-68523823D01*
X88073051Y-6370361D02*
X88055967Y-6324400D01*
X88286572Y-71302105D02*
X88321778Y-71267848D01*
X27675481Y-24555984D02*
X27722316Y-24541134D01*
X50003466Y-57441980D02*
X50007554Y-57393006D01*
X97980513Y-20695735D02*
X97969607Y-20743921D01*
X5323445Y-53235312D02*
X5288409Y-53201542D01*
X6085129Y-37494659D02*
X6036175Y-37497667D01*
X14919015Y-72391281D02*
X14898914Y-72435609D01*
X83860104Y-5491734D02*
X83884120Y-5534884D01*
X5443931Y-6830768D02*
X5403846Y-6802534D01*
X97980804Y-5804104D02*
X97989187Y-5852416D01*
X5019196Y-71805069D02*
X5029940Y-71757226D01*
X52126514Y-56509537D02*
X52177988Y-56517577D01*
X97707436Y-71293470D02*
X97741242Y-71328981D01*
X37467004Y-72883784D02*
X37423461Y-72905509D01*
X73014036Y-9344383D02*
X73022910Y-9296065D01*
X27338176Y-56752886D02*
X27375738Y-56721214D01*
X37965479Y-6253965D02*
X37951819Y-6301070D01*
X88748288Y-71034143D02*
X88796109Y-71022906D01*
X27415402Y-21309046D02*
X27376380Y-21279356D01*
X52823293Y-8935453D02*
X52850032Y-8976554D01*
X97773228Y-6633800D02*
X97741200Y-6670929D01*
X65236057Y-71357415D02*
X65268537Y-71320683D01*
X52732051Y-53178423D02*
X52697782Y-53213632D01*
X75985693Y-57341849D02*
X75992294Y-57390448D01*
X65617909Y-72923921D02*
X65573074Y-72904042D01*
X42256455Y-72667702D02*
X42224429Y-72630137D01*
X52322187Y-21444956D02*
X52273734Y-21460166D01*
X5255058Y-53166106D02*
X5223473Y-53129088D01*
X52998764Y-25476176D02*
X53000000Y-25525853D01*
X96034599Y-57246044D02*
X96048256Y-57198951D01*
X5564162Y-21398757D02*
X5520881Y-21376515D01*
X37952493Y-72300225D02*
X37936791Y-72346284D01*
X65769631Y-71028636D02*
X65817614Y-71018478D01*
X5624058Y-40574467D02*
X5670257Y-40557076D01*
X83876515Y-72479118D02*
X83852192Y-72521265D01*
X37841601Y-71463402D02*
X37866541Y-71504667D01*
X96444268Y-53329172D02*
X96405007Y-53301464D01*
X60459470Y-6886265D02*
X60415405Y-6907772D01*
X29459858Y-69385927D02*
X29415716Y-69407502D01*
X75321061Y-40554621D02*
X75368499Y-40572130D01*
X5258790Y-5328112D02*
X5292600Y-5292600D01*
X52624261Y-37278785D02*
X52585188Y-37308572D01*
X42756092Y-72969657D02*
X42708540Y-72956404D01*
X97803404Y-5403896D02*
X97831637Y-5443985D01*
X60814698Y-71423389D02*
X60841601Y-71463402D01*
X6794460Y-37104249D02*
X6763821Y-37142531D01*
X37365733Y-71071236D02*
X37410150Y-71089997D01*
X14339984Y-6938452D02*
X14294359Y-6953756D01*
X37874660Y-6481067D02*
X37849970Y-6523431D01*
X5288409Y-21201542D02*
X5255058Y-21166106D01*
X27629433Y-40573119D02*
X27675481Y-40555984D01*
X27063621Y-25154436D02*
X27081772Y-25108779D01*
X50722369Y-53458815D02*
X50675625Y-53444006D01*
X97253456Y-56534066D02*
X97300225Y-56547506D01*
X29324518Y-53444015D02*
X29277683Y-53458865D01*
X97834106Y-8949339D02*
X97859964Y-8990562D01*
X42205547Y-71395519D02*
X42236186Y-71357237D01*
X60977080Y-72206088D02*
X60965933Y-72253456D01*
X42333893Y-5255058D02*
X42370911Y-5223473D01*
X50722148Y-8541248D02*
X50769647Y-8528712D01*
X5793911Y-69477080D02*
X5746543Y-69465933D01*
X5144237Y-24983527D02*
X5170847Y-24941901D01*
X5019441Y-9304222D02*
X5030322Y-9256089D01*
X83085044Y-71005305D02*
X83132981Y-71010602D01*
X73875694Y-37490831D02*
X73825705Y-37483219D01*
X75230194Y-56528578D02*
X75277620Y-56541078D01*
X37823231Y-6564532D02*
X37794507Y-6604271D01*
X14523435Y-71150080D02*
X14564536Y-71176820D01*
X6623653Y-37279300D02*
X6584630Y-37308991D01*
X75976724Y-25293695D02*
X75985699Y-25341900D01*
X51987728Y-21499000D02*
X51018405Y-21499000D01*
X75277851Y-21458751D02*
X75230352Y-21471287D01*
X50414811Y-40691427D02*
X50455302Y-40663596D01*
X52623763Y-8720662D02*
X52661282Y-8752232D01*
X88113877Y-6459493D02*
X88092370Y-6415428D01*
X75370331Y-24573022D02*
X75415398Y-24592341D01*
X96034599Y-9246044D02*
X96048256Y-9198951D01*
X65012748Y-71850086D02*
X65021604Y-71800515D01*
X75951732Y-57198844D02*
X75965388Y-57245937D01*
X83998288Y-72012889D02*
X83996524Y-72061519D01*
X97507881Y-21360238D02*
X97464701Y-21384245D01*
X52415716Y-37407502D02*
X52370566Y-37426880D01*
X75977081Y-52704020D02*
X75965840Y-52751850D01*
X88137520Y-6502450D02*
X88113877Y-6459493D01*
X27584628Y-37407808D02*
X27540552Y-37386295D01*
X52965388Y-57245937D02*
X52976718Y-57293644D01*
X52073994Y-40504096D02*
X52124305Y-40509168D01*
X88476564Y-6849919D02*
X88435463Y-6823179D01*
X96262604Y-53172779D02*
X96231075Y-53136516D01*
X96201326Y-69098780D02*
X96173425Y-69059656D01*
X27102844Y-52937628D02*
X27082425Y-52893049D01*
X96722369Y-8541184D02*
X96769783Y-8528688D01*
X96033607Y-68750773D02*
X96021915Y-68700764D01*
X75076167Y-8504393D02*
X75131025Y-8510306D01*
X5718262Y-24541874D02*
X5766004Y-24529167D01*
X50176844Y-53064511D02*
X50150105Y-53023410D01*
X96497574Y-40637545D02*
X96540531Y-40613902D01*
X83577248Y-71185743D02*
X83615893Y-71214576D01*
X75415716Y-69407502D02*
X75370566Y-69426880D01*
X6350130Y-40565121D02*
X6396858Y-40583993D01*
X73022910Y-9296065D02*
X73034148Y-9248242D01*
X5288409Y-53201542D02*
X5255058Y-53166106D01*
X37814698Y-71423389D02*
X37841601Y-71463402D01*
X19310886Y-6722052D02*
X19276840Y-6687949D01*
X5360085Y-21267336D02*
X5323445Y-21235312D01*
X27267879Y-8821712D02*
X27302140Y-8786505D01*
X73001719Y-25471719D02*
X73003466Y-25441980D01*
X73722230Y-21458850D02*
X73675486Y-21444042D01*
X14907629Y-71584571D02*
X14926948Y-71629638D01*
X19034066Y-5746543D02*
X19047506Y-5699774D01*
X29544697Y-69336403D02*
X29502887Y-69362208D01*
X96675625Y-24555993D02*
X96722369Y-24541184D01*
X75182385Y-8518497D02*
X75230355Y-8528652D01*
X19901805Y-72995127D02*
X19852834Y-72989048D01*
X97770437Y-37136803D02*
X97738035Y-37174022D01*
X102009677Y-77991322D02*
X102991322Y-77009677D01*
X50150105Y-21023410D02*
X50125415Y-20981046D01*
X97969607Y-20743921D02*
X97956333Y-20791509D01*
X73268698Y-69179371D02*
X73236218Y-69142638D01*
X60369647Y-6927367D02*
X60321741Y-6945119D01*
X27064229Y-36847614D02*
X27048278Y-36801248D01*
X52763810Y-40857286D02*
X52794449Y-40895568D01*
X97012889Y-8501711D02*
X97061519Y-8503475D01*
X990322Y-8677D02*
X8677Y-990322D01*
X29875306Y-68979584D02*
X29850640Y-69022076D01*
X6731340Y-37179264D02*
X6697096Y-37214359D01*
X75731306Y-24820679D02*
X75763787Y-24857412D01*
X52952262Y-52799069D02*
X52936378Y-52845563D01*
X83384363Y-5077120D02*
X83429450Y-5097267D01*
X60849896Y-6523578D02*
X60823156Y-6564679D01*
X6897195Y-20937521D02*
X6874613Y-20981045D01*
X14935964Y-6347304D02*
X14918110Y-6392006D01*
X29370566Y-37426880D02*
X29324518Y-37444015D01*
X27540141Y-56614072D02*
X27584283Y-56592497D01*
X83898757Y-72435837D02*
X83876515Y-72479118D01*
X29823149Y-24935433D02*
X29849888Y-24976534D01*
X52795061Y-21103456D02*
X52764396Y-21141867D01*
X52459486Y-40613721D02*
X52502442Y-40637364D01*
X5004810Y-71902047D02*
X5010813Y-71853381D01*
X6085101Y-69494661D02*
X6036147Y-69497668D01*
X96082414Y-25107056D02*
X96102833Y-25062477D01*
X37889461Y-71547088D02*
X37910307Y-71590564D01*
X14936933Y-72346026D02*
X14919015Y-72391281D01*
X73064190Y-36847596D02*
X73048239Y-36801230D01*
X27176085Y-40936695D02*
X27204805Y-40896831D01*
X27629433Y-56573119D02*
X27675481Y-56555984D01*
X73924832Y-40504258D02*
X73977895Y-40501542D01*
X97703183Y-21209973D02*
X97667194Y-21243819D01*
X27817903Y-56518424D02*
X27819527Y-56518122D01*
X5019486Y-25304264D02*
X5030392Y-25256078D01*
X27455302Y-40663596D02*
X27497112Y-40637791D01*
X27302217Y-56786367D02*
X27338176Y-56752886D01*
X42346536Y-6754474D02*
X42310886Y-6722052D01*
X52131025Y-24510306D02*
X52133819Y-24510686D01*
X42014092Y-5841766D02*
X42022919Y-5793911D01*
X29935781Y-57152478D02*
X29951732Y-57198844D01*
X50267948Y-56821576D02*
X50302217Y-56786367D01*
X29897160Y-9062422D02*
X29917579Y-9107001D01*
X97291075Y-71043874D02*
X97337629Y-71059258D01*
X52230212Y-24528633D02*
X52277626Y-24541129D01*
X75697782Y-37213632D02*
X75661823Y-37247113D01*
X97206088Y-40522919D02*
X97253456Y-40534066D01*
X27102855Y-36937721D02*
X27082436Y-36893142D01*
X75849883Y-56976483D02*
X75874573Y-57018847D01*
X65044225Y-72290718D02*
X65031158Y-72243446D01*
X6706104Y-56794508D02*
X6739288Y-56829363D01*
X88698925Y-6951767D02*
X88652559Y-6935816D01*
X27150127Y-37023609D02*
X27125436Y-36981245D01*
X50014294Y-68658044D02*
X50007694Y-68609444D01*
X96526555Y-53378768D02*
X96484815Y-53354960D01*
X96330708Y-21240549D02*
X96295841Y-21207483D01*
X97639914Y-8732663D02*
X97676554Y-8764687D01*
X42018864Y-72186787D02*
X42010885Y-72138072D01*
X96007052Y-9396337D02*
X96007694Y-9390555D01*
X65027937Y-6227020D02*
X65018086Y-6179820D01*
X50034148Y-9248242D02*
X50047723Y-9201029D01*
X65490562Y-5140035D02*
X65532995Y-5116215D01*
X36999347Y-73000000D02*
X20000362Y-73000000D01*
X60180595Y-71018203D02*
X60227786Y-71028092D01*
X83994731Y-71915727D02*
X83997668Y-71963866D01*
X97283163Y-37457973D02*
X97235495Y-37470737D01*
X52917602Y-41106875D02*
X52935809Y-41152403D01*
X6324374Y-69444006D02*
X6277630Y-69458815D01*
X52987372Y-9350693D02*
X52993734Y-9400986D01*
X14883927Y-5534185D02*
X14905802Y-5578419D01*
X50001719Y-25471719D02*
X50003466Y-25441980D01*
X19545838Y-6888867D02*
X19503475Y-6865900D01*
X74012271Y-37499000D02*
X73987744Y-37498699D01*
X29623603Y-40720499D02*
X29661122Y-40752068D01*
X52022104Y-53498457D02*
X52012255Y-53498699D01*
X50338856Y-69247732D02*
X50302931Y-69214360D01*
X42022919Y-5793911D02*
X42034066Y-5746543D01*
X88073305Y-71629216D02*
X88092689Y-71584080D01*
X29951737Y-9198895D02*
X29965394Y-9245989D01*
X52585188Y-69308572D02*
X52544697Y-69336403D01*
X19010867Y-72138560D02*
X19005281Y-72089529D01*
X50014042Y-41344303D02*
X50022918Y-41295979D01*
X98000000Y-20499370D02*
X97998778Y-20548772D01*
X73302942Y-53214466D02*
X73268698Y-53179371D01*
X52277620Y-56541078D02*
X52324364Y-56555887D01*
X37992585Y-6108123D02*
X37985982Y-6157044D01*
X75897853Y-52935930D02*
X75875306Y-52979584D01*
X5074911Y-36878911D02*
X5057524Y-36833462D01*
X6899929Y-57068130D02*
X6919711Y-57112002D01*
X97744941Y-24833893D02*
X97776526Y-24870911D01*
X42570615Y-72902806D02*
X42526591Y-72880472D01*
X29897853Y-68935930D02*
X29875306Y-68979584D01*
X52823149Y-24935433D02*
X52849888Y-24976534D01*
X29850640Y-37022076D02*
X29823914Y-37063304D01*
X42232663Y-5360085D02*
X42264687Y-5323445D01*
X50081772Y-41108779D02*
X50102146Y-41064069D01*
X96749689Y-21466354D02*
X96703479Y-21453174D01*
X97980803Y-6194930D02*
X97970059Y-6242773D01*
X6998764Y-20523823D02*
X6997659Y-20546041D01*
X27872002Y-40509789D02*
X27924832Y-40504258D01*
X37958011Y-5717260D02*
X37970759Y-5764950D01*
X29277683Y-69458865D02*
X29230175Y-69471394D01*
X28987728Y-8501000D02*
X29012255Y-8501300D01*
X75277769Y-8541149D02*
X75324513Y-8555957D01*
X42048235Y-71698721D02*
X42064186Y-71652354D01*
X73023281Y-68706355D02*
X73014306Y-68658150D01*
X52897155Y-57062371D02*
X52917574Y-57106950D01*
X65101242Y-5564162D02*
X65123484Y-5520881D01*
X50540531Y-37386097D02*
X50497574Y-37362454D01*
X5097128Y-9070667D02*
X5119447Y-9026655D01*
X83453610Y-71110879D02*
X83496011Y-71133834D01*
X42903461Y-5004738D02*
X42951993Y-5001185D01*
X6965400Y-68753955D02*
X6951743Y-68801048D01*
X60273003Y-6960394D02*
X60223548Y-6973159D01*
X29277626Y-8541129D02*
X29324370Y-8555938D01*
X50769783Y-37471311D02*
X50722369Y-37458815D01*
X73302140Y-8786505D02*
X73338090Y-8753025D01*
X14998598Y-6009058D02*
X14996883Y-6058376D01*
X75370566Y-69426880D02*
X75324518Y-69444015D01*
X5571872Y-72904085D02*
X5528074Y-72882039D01*
X42532995Y-5116215D02*
X42576538Y-5094490D01*
X96205568Y-24895749D02*
X96236207Y-24857466D01*
X29697782Y-69213632D02*
X29661823Y-69247113D01*
X52544697Y-37336403D02*
X52502887Y-37362208D01*
X27722379Y-69458921D02*
X27675635Y-69444112D01*
X97989186Y-6146618D02*
X97980803Y-6194930D01*
X29918227Y-52891220D02*
X29897853Y-52935930D01*
X88712670Y-5042391D02*
X88759605Y-5029502D01*
X5255058Y-21166106D02*
X5223473Y-21129088D01*
X5571805Y-6903220D02*
X5528011Y-6881172D01*
X83992426Y-6108763D02*
X83985787Y-6157711D01*
X88220672Y-6623649D02*
X88190982Y-6584627D01*
X14701714Y-72711467D02*
X14666276Y-72744831D01*
X88576538Y-72905509D02*
X88532995Y-72883784D01*
X6935792Y-52847415D02*
X6917585Y-52892943D01*
X65077234Y-72383054D02*
X65059596Y-72337291D01*
X73540393Y-21386132D02*
X73497436Y-21362489D01*
X27047723Y-9201029D02*
X27063603Y-9154541D01*
X52952228Y-20799274D02*
X52936334Y-20845783D01*
X96047858Y-68800127D02*
X96033607Y-68750773D01*
X73000000Y-52474146D02*
X73000000Y-41530329D01*
X65376224Y-71220646D02*
X65415247Y-71190956D01*
X5196570Y-6595236D02*
X5168340Y-6555149D01*
X14997876Y-5959716D02*
X14998598Y-6009058D01*
X52624025Y-21279091D02*
X52584928Y-21308877D01*
X5520881Y-53376515D02*
X5478734Y-53352192D01*
X29012255Y-53498699D02*
X28987728Y-53499000D01*
X60173505Y-6983380D02*
X60123005Y-6991029D01*
X88002283Y-6036130D02*
X88001660Y-5987461D01*
X42490562Y-5140035D02*
X42532995Y-5116215D01*
X97882034Y-6470965D02*
X97857865Y-6513629D01*
X73063621Y-25154436D02*
X73081772Y-25108779D01*
X75965851Y-20751757D02*
X75952276Y-20798970D01*
X97158233Y-56514092D02*
X97206088Y-56522919D01*
X73001719Y-41471719D02*
X73003466Y-41441980D01*
X6203316Y-24522654D02*
X6250027Y-24533562D01*
X19978966Y-6999029D02*
X19965764Y-6998447D01*
X73268549Y-21179300D02*
X73236069Y-21142568D01*
X96201326Y-21098780D02*
X96173425Y-21059656D01*
X73081772Y-57108779D02*
X73102146Y-57064069D01*
X7000000Y-9525853D02*
X7000000Y-20474146D01*
X27302217Y-40786367D02*
X27338176Y-40752886D01*
X14918110Y-6392006D02*
X14898130Y-6435786D01*
X29985957Y-52655696D02*
X29977081Y-52704020D01*
X19205460Y-71395690D02*
X19236099Y-71357407D01*
X6370335Y-69426922D02*
X6324374Y-69444006D01*
X42298457Y-5288409D02*
X42333893Y-5255058D01*
X50064207Y-68847415D02*
X50048256Y-68801048D01*
X5000000Y-52499347D02*
X5000000Y-41500448D01*
X97905509Y-57076538D02*
X97925088Y-57121088D01*
X75459858Y-37385927D02*
X75415716Y-37407502D01*
X88449181Y-5165966D02*
X88490410Y-5140097D01*
X96063762Y-52846503D02*
X96048148Y-52801045D01*
X75180472Y-69481877D02*
X75127997Y-69490210D01*
X42545838Y-6888867D02*
X42503475Y-6865900D01*
X60085044Y-71005305D02*
X60132981Y-71010602D01*
X19370911Y-5223473D02*
X19409423Y-5193727D01*
X29897853Y-52935930D02*
X29875306Y-52979584D01*
X97995261Y-9403461D02*
X97998814Y-9451993D01*
X73981646Y-8501450D02*
X73987744Y-8501300D01*
X60917586Y-6393111D02*
X60897168Y-6437691D01*
X6415403Y-53407604D02*
X6370335Y-53426922D01*
X96526555Y-21378768D02*
X96484815Y-21354960D01*
X75370566Y-37426880D02*
X75324518Y-37444015D01*
X50001719Y-41471719D02*
X50003466Y-41441980D01*
X5000000Y-72000987D02*
X5000000Y-71999980D01*
X52584740Y-8690972D02*
X52623763Y-8720662D01*
X73000000Y-57530329D02*
X73001719Y-57471719D01*
X52277683Y-69458865D02*
X52230175Y-69471394D01*
X5360085Y-53267336D02*
X5323445Y-53235312D01*
X6388804Y-56580612D02*
X6432658Y-56600434D01*
X96012809Y-52650220D02*
X96006312Y-52599275D01*
X52272798Y-40539535D02*
X52321061Y-40554621D01*
X60970790Y-5765447D02*
X60981145Y-5813733D01*
X75965840Y-52751850D02*
X75952262Y-52799069D01*
X5199036Y-8901969D02*
X5229562Y-8863196D01*
X6572510Y-40682237D02*
X6613049Y-40712175D01*
X96000000Y-20474146D02*
X96000000Y-9525853D01*
X29965394Y-9245989D02*
X29976724Y-9293695D01*
X5229713Y-40863098D02*
X5262136Y-40825875D01*
X27819527Y-40518122D02*
X27872002Y-40509789D01*
X27002198Y-20543172D02*
X27001235Y-20523823D01*
X27102146Y-25064069D02*
X27124693Y-25020415D01*
X65384106Y-6785423D02*
X65346897Y-6754758D01*
X6997659Y-36546041D02*
X6993429Y-36600735D01*
X96376374Y-56720698D02*
X96415397Y-56691007D01*
X97995116Y-20598041D02*
X97989022Y-20647069D01*
X96000000Y-9525853D02*
X96001235Y-9476176D01*
X88137991Y-71496936D02*
X88163800Y-71455139D01*
X65001711Y-5987110D02*
X65003475Y-5938480D01*
X27415408Y-53309097D02*
X27376385Y-53279407D01*
X52763787Y-24857412D02*
X52794426Y-24895694D01*
X97471906Y-6881080D02*
X97428106Y-6903126D01*
X52012255Y-56501300D02*
X52022648Y-56501556D01*
X5058397Y-72337552D02*
X5043016Y-72290994D01*
X73771014Y-69471708D02*
X73769805Y-69471421D01*
X5717732Y-56541937D02*
X5765447Y-56529209D01*
X6661172Y-21247731D02*
X6623653Y-21279300D01*
X102999999Y-1011247D02*
X102999711Y-999509D01*
X5004810Y-5901080D02*
X5010812Y-5852416D01*
X75823144Y-56935382D02*
X75849883Y-56976483D01*
X97001091Y-71000833D02*
X97050119Y-71002041D01*
X6951743Y-68801048D02*
X6935792Y-68847415D01*
X6544198Y-21336730D02*
X6502453Y-21362453D01*
X5814317Y-24518836D02*
X5863081Y-24510906D01*
X75992445Y-36606993D02*
X75985957Y-36655696D01*
X73000121Y-71000999D02*
X82976945Y-71000002D01*
X88018576Y-71817623D02*
X88028765Y-71769569D01*
X97880281Y-20973581D02*
X97855762Y-21016472D01*
X5223473Y-69129088D02*
X5193727Y-69090576D01*
X27268693Y-21179320D02*
X27236212Y-21142587D01*
X52918227Y-68891220D02*
X52897853Y-68935930D01*
X97970060Y-5756262D02*
X97980804Y-5804104D01*
X52992947Y-57396337D02*
X52997801Y-57456827D01*
X29992299Y-25390499D02*
X29992947Y-25396337D01*
X27063621Y-41154436D02*
X27081772Y-41108779D01*
X19018072Y-6179766D02*
X19010517Y-6132174D01*
X51987728Y-53499000D02*
X51018405Y-53499000D01*
X19376266Y-71220639D02*
X19415289Y-71190948D01*
X5230072Y-24862846D02*
X5262543Y-24825611D01*
X97521265Y-40647807D02*
X97562177Y-40674154D01*
X27925307Y-53495807D02*
X27873485Y-53490462D01*
X37959945Y-71726310D02*
X37972062Y-71772979D01*
X75697859Y-21213494D02*
X75661909Y-21246974D01*
X75997801Y-57456827D02*
X75998764Y-57476176D01*
X73082425Y-68893049D02*
X73064218Y-68847521D01*
X50149359Y-40977923D02*
X50176085Y-40936695D01*
X96817753Y-24518532D02*
X96866164Y-24510743D01*
X28012271Y-56501000D02*
X28987728Y-56501000D01*
X29459457Y-56613796D02*
X29502414Y-56637439D01*
X5699774Y-69452493D02*
X5653715Y-69436791D01*
X50023269Y-68706249D02*
X50014294Y-68658044D01*
X8677Y-77009677D02*
X990322Y-77991322D01*
X50034599Y-68753955D02*
X50023269Y-68706249D01*
X29370331Y-8573022D02*
X29415398Y-8592341D01*
X97479118Y-40623484D02*
X97521265Y-40647807D01*
X27540536Y-21386151D02*
X27497579Y-21362508D01*
X29230175Y-37471394D02*
X29182096Y-37481575D01*
X37338299Y-5059181D02*
X37384311Y-5077062D01*
X6182246Y-69481467D02*
X6133835Y-69489256D01*
X73176085Y-40936695D02*
X73204805Y-40896831D01*
X73817903Y-24518424D02*
X73819527Y-24518122D01*
X6985705Y-52658044D02*
X6976730Y-52706249D01*
X73034159Y-25248149D02*
X73047737Y-25200930D01*
X52370331Y-24573022D02*
X52415398Y-24592341D01*
X5226733Y-6633890D02*
X5196570Y-6595236D01*
X73102146Y-57064069D02*
X73124693Y-57020415D01*
X5140035Y-37009437D02*
X5116215Y-36967004D01*
X52953123Y-9202653D02*
X52967040Y-9251399D01*
X88264513Y-5323583D02*
X88298285Y-5288532D01*
X5328112Y-5258790D02*
X5365241Y-5226762D01*
X96629664Y-8573077D02*
X96675625Y-8555993D01*
X14471706Y-6879629D02*
X14428761Y-6901345D01*
X83996524Y-72061519D02*
X83992394Y-72110006D01*
X96914898Y-24505338D02*
X96963852Y-24502331D01*
X19804222Y-72980558D02*
X19756089Y-72969677D01*
X5170463Y-8942203D02*
X5199036Y-8901969D01*
X96338856Y-40752267D02*
X96376374Y-40720698D01*
X50629433Y-24573119D02*
X50675481Y-24555984D01*
X6634895Y-56729791D02*
X6671279Y-56761292D01*
X97098919Y-72995189D02*
X97050018Y-72998796D01*
X37028106Y-71001282D02*
X37069873Y-71003999D01*
X50981618Y-37498322D02*
X50963852Y-37497668D01*
X65202462Y-5398241D02*
X65232663Y-5360085D01*
X73007052Y-68603662D02*
X73002198Y-68543172D01*
X83557979Y-5170704D02*
X83598229Y-5199316D01*
X29370716Y-21426755D02*
X29324677Y-21443895D01*
X75997539Y-9451549D02*
X75998764Y-9476176D01*
X65102677Y-71562436D02*
X65125265Y-71518901D01*
X73176827Y-37064692D02*
X73150088Y-37023591D01*
X75584620Y-40690827D02*
X75623642Y-40720517D01*
X102009660Y-8660D02*
X102001155Y-563D01*
X97555998Y-6830680D02*
X97514570Y-6856912D01*
X73629674Y-69427028D02*
X73584607Y-69407710D01*
X42047506Y-5699774D02*
X42063208Y-5653715D01*
X52823172Y-40935307D02*
X52849911Y-40976408D01*
X83132981Y-71010602D02*
X83180595Y-71018203D01*
X37977080Y-72206088D02*
X37965933Y-72253456D01*
X27001235Y-20523823D02*
X27000000Y-20474146D01*
X5987110Y-37498288D02*
X5938480Y-37496524D01*
X96415397Y-8691007D02*
X96455830Y-8663268D01*
X27000000Y-36474146D02*
X27000000Y-25530329D01*
X5001219Y-9451018D02*
X5004872Y-9401805D01*
X96047858Y-20800127D02*
X96033607Y-20750773D01*
X6156135Y-24513999D02*
X6203316Y-24522654D01*
X29021066Y-8501517D02*
X29076167Y-8504393D01*
X29823149Y-8935433D02*
X29849888Y-8976534D01*
X29992450Y-20606920D02*
X29985963Y-20655616D01*
X37370412Y-6926943D02*
X37324451Y-6944027D01*
X97803404Y-72596103D02*
X97773237Y-72634758D01*
X75544697Y-53336403D02*
X75502887Y-53362208D01*
X97253456Y-40534066D02*
X97300225Y-40547506D01*
X1011247Y0D02*
X999509Y-288D01*
X27176850Y-21064566D02*
X27150111Y-21023465D01*
X73267948Y-40821576D02*
X73302217Y-40786367D01*
X27267948Y-24821576D02*
X27302217Y-24786367D01*
X60722868Y-71311773D02*
X60755263Y-71347485D01*
X37069873Y-6996000D02*
X37028106Y-6998717D01*
X52875306Y-68979584D02*
X52850640Y-69022076D01*
X75998764Y-57476176D02*
X76000000Y-57525853D01*
X29996537Y-20557953D02*
X29992450Y-20606920D01*
X37378911Y-72925088D02*
X37333462Y-72942475D01*
X65012057Y-72147265D02*
X65006070Y-72098588D01*
X96295841Y-69207483D02*
X96262604Y-69172779D01*
X73866037Y-21489294D02*
X73817614Y-21481502D01*
X75023479Y-40501576D02*
X75073994Y-40504096D01*
X5142129Y-5485411D02*
X5168362Y-5443985D01*
X5653715Y-69436791D02*
X5608475Y-69418865D01*
X6976758Y-36706248D02*
X6965429Y-36753954D01*
X5608475Y-37418865D02*
X5564162Y-37398757D01*
X27873485Y-53490462D02*
X27822011Y-53482422D01*
X6442575Y-40605198D02*
X6487164Y-40628681D01*
X27722316Y-56541134D02*
X27769824Y-56528605D01*
X29992299Y-9390499D02*
X29992947Y-9396337D01*
X14338273Y-5059141D02*
X14384272Y-5077009D01*
X97428127Y-5095914D02*
X97471925Y-5117960D01*
X88903461Y-72995261D02*
X88855159Y-72989349D01*
X5193727Y-69090576D02*
X5165893Y-69050660D01*
X50007052Y-52603662D02*
X50002198Y-52543172D01*
X75585188Y-37308572D02*
X75544697Y-37336403D01*
X27023281Y-52706355D02*
X27014306Y-52658150D01*
X50014294Y-36658044D02*
X50007694Y-36609444D01*
X50497574Y-37362454D02*
X50455830Y-37336731D01*
X29998280Y-52528280D02*
X29996533Y-52558019D01*
X20023054Y-6999997D02*
X19978966Y-6999029D01*
X98000000Y-6000019D02*
X97998796Y-6049051D01*
X6584630Y-21308991D02*
X6544198Y-21336730D01*
X52849911Y-40976408D02*
X52874602Y-41018772D01*
X65366413Y-72773138D02*
X65329281Y-72741098D01*
X73176706Y-21064546D02*
X73149967Y-21023445D01*
X29697782Y-53213632D02*
X29661823Y-53247113D01*
X96007052Y-57396337D02*
X96007694Y-57390555D01*
X52544164Y-24663213D02*
X52584597Y-24690953D01*
X65147807Y-5478734D02*
X65174154Y-5437822D01*
X19871686Y-6990061D02*
X19866221Y-6989319D01*
X50124693Y-57020415D02*
X50149359Y-56977923D01*
X42589259Y-6909764D02*
X42545838Y-6888867D01*
X6731340Y-21179264D02*
X6697096Y-21214359D01*
X42370911Y-5223473D02*
X42409423Y-5193727D01*
X27000000Y-41530329D02*
X27001719Y-41471719D01*
X96376374Y-24720698D02*
X96415397Y-24691007D01*
X96652449Y-37435872D02*
X96605501Y-37417056D01*
X60637016Y-5229883D02*
X60674246Y-5262328D01*
X27872002Y-56509789D02*
X27924832Y-56504258D01*
X42276840Y-6687949D02*
X42244479Y-6652244D01*
X65333893Y-5255058D02*
X65370911Y-5223473D01*
X5004875Y-41401858D02*
X5010959Y-41352869D01*
X29849888Y-24976534D02*
X29874579Y-25018898D01*
X65817614Y-71018478D02*
X65820570Y-71017928D01*
X75951760Y-41198769D02*
X75965417Y-41245862D01*
X29459990Y-21385795D02*
X29415857Y-21407373D01*
X37615893Y-71214576D02*
X37653102Y-71245241D01*
X73629433Y-24573119D02*
X73675481Y-24555984D01*
X6763792Y-69142533D02*
X6731312Y-69179265D01*
X6544169Y-53336731D02*
X6502425Y-53362454D01*
X96150105Y-40976589D02*
X96176844Y-40935488D01*
X97521265Y-24647807D02*
X97562177Y-24674154D01*
X60467004Y-72883784D02*
X60423461Y-72905509D01*
X5193727Y-37090576D02*
X5165893Y-37050660D01*
X97922813Y-68884427D02*
X97902650Y-68929530D01*
X50920419Y-8504835D02*
X50981646Y-8501450D01*
X96939257Y-21496473D02*
X96891368Y-21492373D01*
X37794507Y-6604271D02*
X37763868Y-6642553D01*
X97346284Y-8563208D02*
X97391524Y-8581134D01*
X75823961Y-21063176D02*
X75795247Y-21103037D01*
X27722379Y-53458921D02*
X27675635Y-53444112D01*
X73817903Y-40518424D02*
X73819527Y-40518122D01*
X7000000Y-25525853D02*
X7000000Y-36474146D01*
X5094490Y-36923461D02*
X5074911Y-36878911D01*
X29544164Y-24663213D02*
X29584597Y-24690953D01*
X73376236Y-21279337D02*
X73338717Y-21247767D01*
X5116215Y-36967004D02*
X5094490Y-36923461D01*
X29133793Y-21489283D02*
X29084954Y-21494701D01*
X52544414Y-21336704D02*
X52502581Y-21362505D01*
X29985957Y-68655696D02*
X29977081Y-68704020D01*
X96613226Y-21420230D02*
X96569392Y-21400541D01*
X97676554Y-8764687D02*
X97711590Y-8798457D01*
X83942991Y-5670704D02*
X83958062Y-5717732D01*
X29992947Y-25396337D02*
X29997801Y-25456827D01*
X76000000Y-41525853D02*
X76000000Y-52469670D01*
X52076167Y-24504393D02*
X52131025Y-24510306D01*
X6992947Y-52603662D02*
X6992305Y-52609444D01*
X14743437Y-5332081D02*
X14775463Y-5369625D01*
X14557796Y-5170463D02*
X14598030Y-5199036D01*
X50064207Y-20847415D02*
X50048256Y-20801048D01*
X73235451Y-40858427D02*
X73267948Y-40821576D01*
X75875306Y-52979584D02*
X75850640Y-53022076D01*
X83977080Y-72206088D02*
X83965933Y-72253456D01*
X97998796Y-72050018D02*
X97995189Y-72098919D01*
X29585188Y-69308572D02*
X29544697Y-69336403D01*
X42951993Y-5001185D02*
X43000652Y-5000000D01*
X29997801Y-41456827D02*
X29998764Y-41476176D01*
X27034621Y-36754154D02*
X27023291Y-36706448D01*
X5029939Y-72243737D02*
X5019195Y-72195895D01*
X42264687Y-5323445D02*
X42298457Y-5288409D01*
X96497574Y-24637545D02*
X96540531Y-24613902D01*
X29794426Y-8895694D02*
X29823149Y-8935433D01*
X6936751Y-25154676D02*
X6953123Y-25202653D01*
X60287219Y-72957627D02*
X60240293Y-72970510D01*
X96746997Y-37465818D02*
X96699595Y-37452096D01*
X29951732Y-57198844D02*
X29965388Y-57245937D01*
X73007554Y-57393006D02*
X73014042Y-57344303D01*
X29697782Y-37213632D02*
X29661823Y-37247113D01*
X42666537Y-5057524D02*
X42712780Y-5042372D01*
X5030366Y-57256089D02*
X5043629Y-57208520D01*
X5653715Y-21436791D02*
X5608475Y-21418865D01*
X52585188Y-53308572D02*
X52544697Y-53336403D01*
X73819527Y-24518122D02*
X73872002Y-24509789D01*
X42133319Y-6495116D02*
X42110424Y-6452714D01*
X5852323Y-6988340D02*
X5804015Y-6979953D01*
X98000000Y-72000987D02*
X97998796Y-72050018D01*
X65001292Y-72000603D02*
X65002579Y-71950251D01*
X52370566Y-69426880D02*
X52324518Y-69444015D01*
X97970510Y-41259706D02*
X97981093Y-41307203D01*
X65063208Y-5653715D02*
X65081134Y-5608475D01*
X52661132Y-56752161D02*
X52697057Y-56785533D01*
X83841601Y-71463402D02*
X83866541Y-71504667D01*
X73014042Y-25344303D02*
X73022918Y-25295979D01*
X96455830Y-24663268D02*
X96497574Y-24637545D01*
X29177988Y-56517577D02*
X29228985Y-56528291D01*
X52985699Y-25341900D02*
X52992299Y-25390499D01*
X50338176Y-40752886D02*
X50375738Y-40721214D01*
X97376319Y-37425465D02*
X97330143Y-37442870D01*
X97855762Y-21016472D02*
X97829152Y-21058098D01*
X27629283Y-8573244D02*
X27675322Y-8556104D01*
X52874722Y-9018917D02*
X52897304Y-9062441D01*
X102991339Y-77009660D02*
X102999436Y-77001155D01*
X37132981Y-71010602D02*
X37180595Y-71018203D01*
X19503475Y-6865900D02*
X19462269Y-6840916D01*
X96964219Y-8502318D02*
X97012889Y-8501711D01*
X97549821Y-21334125D02*
X97507881Y-21360238D01*
X5746543Y-21465933D02*
X5699774Y-21452493D01*
X27977895Y-56501542D02*
X27987744Y-56501300D01*
X29697057Y-56785533D02*
X29731301Y-56820628D01*
X50872002Y-24509789D02*
X50924832Y-24504258D01*
X73150116Y-69023516D02*
X73125426Y-68981152D01*
X50915045Y-8505298D02*
X50920419Y-8504835D01*
X19903461Y-5004738D02*
X19951993Y-5001185D01*
X65169530Y-72555830D02*
X65143301Y-72514388D01*
X27235451Y-56858427D02*
X27267948Y-56821576D01*
X37324451Y-6944027D02*
X37277707Y-6958836D01*
X29661122Y-40752068D02*
X29697047Y-40785440D01*
X75415541Y-8592360D02*
X75459606Y-8613867D01*
X50102118Y-9064185D02*
X50124659Y-9020536D01*
X97957627Y-57212780D02*
X97970510Y-57259706D01*
X88701078Y-71047717D02*
X88748288Y-71034143D01*
X83021033Y-71000970D02*
X83028106Y-71001282D01*
X96001235Y-41476176D02*
X96002198Y-41456827D01*
X50047723Y-9201029D02*
X50063603Y-9154541D01*
X83797537Y-72601758D02*
X83767336Y-72639914D01*
X52794449Y-40895568D02*
X52823172Y-40935307D01*
X96514784Y-37372434D02*
X96471234Y-37346738D01*
X42027912Y-6226939D02*
X42018072Y-6179766D01*
X6951772Y-20801047D02*
X6935821Y-20847414D01*
X5142129Y-72514588D02*
X5117960Y-72471925D01*
X29075167Y-37495741D02*
X29022104Y-37498457D01*
X19629555Y-71073018D02*
X19675516Y-71055933D01*
X14195777Y-5019441D02*
X14243910Y-5030322D01*
X96007694Y-57390555D02*
X96014294Y-57341955D01*
X37688788Y-71277664D02*
X37722868Y-71311773D01*
X52023479Y-40501576D02*
X52073994Y-40504096D01*
X97550776Y-37333763D02*
X97508915Y-37359895D01*
X75075167Y-69495741D02*
X75022104Y-69498457D01*
X6985705Y-68658044D02*
X6976730Y-68706249D01*
X29228985Y-56528291D02*
X29230194Y-56528578D01*
X5029939Y-5756262D02*
X5043016Y-5709005D01*
X97337629Y-71059258D02*
X97383372Y-71076907D01*
X97998814Y-25451993D02*
X98000000Y-25500652D01*
X27007549Y-9393079D02*
X27014036Y-9344383D01*
X6035780Y-21497681D02*
X5987110Y-21498288D01*
X27014306Y-52658150D02*
X27007705Y-52609551D01*
X65018086Y-6179820D02*
X65010524Y-6132201D01*
X50338176Y-56752886D02*
X50375738Y-56721214D01*
X97337552Y-5058397D02*
X97383300Y-5076044D01*
X37917661Y-6392964D02*
X37897242Y-6437543D01*
X65005268Y-6084272D02*
X65002331Y-6036133D01*
X52368499Y-40572130D02*
X52415001Y-40592022D01*
X73034582Y-36754137D02*
X73023250Y-36706418D01*
X75996533Y-52558019D02*
X75992445Y-52606993D01*
X60623626Y-6779470D02*
X60584604Y-6809160D01*
X52230175Y-69471394D02*
X52182096Y-69481575D01*
X96657956Y-21437788D02*
X96613226Y-21420230D01*
X96023269Y-25293750D02*
X96034599Y-25246044D01*
X73675481Y-24555984D02*
X73722316Y-24541134D01*
X42401878Y-72800830D02*
X42363098Y-72770286D01*
X65978945Y-71000971D02*
X66023075Y-71000003D01*
X88435463Y-6823179D02*
X88395723Y-6794456D01*
X27977351Y-53498443D02*
X27925307Y-53495807D01*
X42070896Y-6364848D02*
X42054355Y-6319588D01*
X76000000Y-68469670D02*
X75998280Y-68528280D01*
X96173425Y-21059656D02*
X96147439Y-21019236D01*
X50235451Y-56858427D02*
X50267948Y-56821576D01*
X88320708Y-6731336D02*
X88285614Y-6697093D01*
X75732120Y-21178287D02*
X75697859Y-21213494D01*
X50102146Y-57064069D02*
X50124693Y-57020415D01*
X29985693Y-57341849D02*
X29992294Y-57390448D01*
X52917962Y-9107579D02*
X52936751Y-9154676D01*
X97479118Y-8623484D02*
X97521265Y-8647807D01*
X5168362Y-5443985D02*
X5196595Y-5403896D01*
X42310886Y-6722052D02*
X42276840Y-6687949D01*
X97383300Y-5076044D02*
X97428127Y-5095914D01*
X50987744Y-24501300D02*
X51012271Y-24501000D01*
X73268670Y-37179446D02*
X73236189Y-37142713D01*
X83945591Y-71680280D02*
X83959945Y-71726310D01*
X52369817Y-21427299D02*
X52322187Y-21444956D01*
X97904097Y-71572732D02*
X97923965Y-71617556D01*
X42236186Y-71357237D02*
X42268666Y-71320504D01*
X6459496Y-21386096D02*
X6415431Y-21407602D01*
X75697063Y-24785584D02*
X75731306Y-24820679D01*
X27455840Y-69336837D02*
X27415408Y-69309097D01*
X97806272Y-8909423D02*
X97834106Y-8949339D01*
X29849883Y-56976483D02*
X29874573Y-57018847D01*
X5889993Y-21492394D02*
X5841766Y-21485907D01*
X88092689Y-71584080D02*
X88114268Y-71539951D01*
X73497585Y-69362560D02*
X73455840Y-69336837D01*
X97549821Y-53334125D02*
X97507881Y-53360238D01*
X5117945Y-6471063D02*
X5095902Y-6427267D01*
X27007052Y-20603662D02*
X27002198Y-20543172D01*
X96817753Y-56518532D02*
X96866164Y-56510743D01*
X88841942Y-6985731D02*
X88793724Y-6976754D01*
X52976749Y-41293581D02*
X52977175Y-41295590D01*
X97995189Y-6097952D02*
X97989186Y-6146618D01*
X5000000Y-57500537D02*
X5001220Y-57451156D01*
X75133793Y-21489283D02*
X75084954Y-21494701D01*
X50034159Y-57248149D02*
X50047737Y-57200930D01*
X60767336Y-72639914D02*
X60735312Y-72676554D01*
X5029935Y-6242888D02*
X5019193Y-6195049D01*
X60825845Y-72562177D02*
X60797537Y-72601758D01*
X97905509Y-41076538D02*
X97925088Y-41121088D01*
X75763787Y-24857412D02*
X75794426Y-24895694D01*
X5004738Y-52596538D02*
X5001185Y-52548006D01*
X6998764Y-25476176D02*
X7000000Y-25525853D01*
X27124693Y-41020415D02*
X27149359Y-40977923D01*
X50007694Y-20609444D02*
X50007052Y-20603662D01*
X27007554Y-25393006D02*
X27014042Y-25344303D01*
X14509589Y-72859902D02*
X14467148Y-72883733D01*
X83688788Y-71277664D02*
X83722868Y-71311773D01*
X29623614Y-56720592D02*
X29661132Y-56752161D01*
X96703479Y-21453174D02*
X96657956Y-21437788D01*
X37557879Y-5170577D02*
X37598121Y-5199169D01*
X19140104Y-72508915D02*
X19116072Y-72465814D01*
X75324364Y-56555887D02*
X75370325Y-56572971D01*
X75459858Y-53385927D02*
X75415716Y-53407502D01*
X5010951Y-9352834D02*
X5019441Y-9304222D01*
X37661220Y-6747753D02*
X37623701Y-6779322D01*
X96101442Y-20934884D02*
X96081539Y-20891147D01*
X73014306Y-52658150D02*
X73007705Y-52609551D01*
X50235451Y-40858427D02*
X50267948Y-40821576D01*
X19769673Y-71028628D02*
X19817656Y-71018470D01*
X50002198Y-20543172D02*
X50001235Y-20523823D01*
X60516364Y-5144116D02*
X60557979Y-5170704D01*
X75998280Y-36528280D02*
X75996533Y-36558019D01*
X73149359Y-24977923D02*
X73176085Y-24936695D01*
X19818630Y-6981682D02*
X19771474Y-6971761D01*
X29324370Y-8555938D02*
X29370331Y-8573022D01*
X27584283Y-24592497D02*
X27629433Y-24573119D01*
X96021915Y-20700764D02*
X96012809Y-20650220D01*
X5450178Y-24665874D02*
X5492118Y-24639761D01*
X27540552Y-37386295D02*
X27497595Y-37362652D01*
X96034599Y-25246044D02*
X96048256Y-25198951D01*
X65576538Y-5094490D02*
X65621088Y-5074911D01*
X97923955Y-72383300D02*
X97904085Y-72428127D01*
X27235390Y-8858561D02*
X27267879Y-8821712D01*
X88449339Y-72834106D02*
X88409423Y-72806272D01*
X75917962Y-9107579D02*
X75936751Y-9154676D01*
X52764548Y-69141572D02*
X52732051Y-69178423D01*
X97601758Y-8702462D02*
X97639914Y-8732663D01*
X52965394Y-25245989D02*
X52976724Y-25293695D01*
X29764548Y-37141572D02*
X29732051Y-37178423D01*
X88652559Y-6935816D02*
X88607031Y-6917609D01*
X66000304Y-73000000D02*
X65951262Y-72998795D01*
X29732051Y-53178423D02*
X29697782Y-53213632D01*
X29023479Y-40501576D02*
X29073994Y-40504096D01*
X60833984Y-5449823D02*
X60860104Y-5491734D01*
X5001221Y-25451227D02*
X5004883Y-25401958D01*
X73675322Y-8556104D02*
X73722148Y-8541248D01*
X97981093Y-9307203D02*
X97989349Y-9355159D01*
X14100735Y-71006570D02*
X14155115Y-71013795D01*
X42951087Y-72998780D02*
X42901858Y-72995124D01*
X37989114Y-5861927D02*
X37994677Y-5910977D01*
X88855079Y-5010654D02*
X88903392Y-5004740D01*
X5116215Y-68967004D02*
X5094490Y-68923461D01*
X97195895Y-5019195D02*
X97243737Y-5029939D01*
X52230175Y-37471394D02*
X52182096Y-37481575D01*
X6985841Y-57342783D02*
X6992298Y-57390486D01*
X96559578Y-37395893D02*
X96514784Y-37372434D01*
X50000000Y-20474146D02*
X50000000Y-9530329D01*
X50000000Y-52474146D02*
X50000000Y-41530329D01*
X97980558Y-36695777D02*
X97969677Y-36743910D01*
X52992947Y-25396337D02*
X52997801Y-25456827D01*
X42302910Y-71285410D02*
X42338834Y-71252038D01*
X88855159Y-72989349D02*
X88807203Y-72981093D01*
X75503009Y-21362073D02*
X75459990Y-21385795D01*
X88357441Y-6763817D02*
X88320708Y-6731336D01*
X27497112Y-24637791D02*
X27540141Y-24614072D01*
X75624261Y-69278785D02*
X75585188Y-69308572D01*
X28987728Y-24501000D02*
X29012255Y-24501300D01*
X27205573Y-21104305D02*
X27176850Y-21064566D01*
X75415392Y-56592289D02*
X75459457Y-56613796D01*
X75075167Y-53495741D02*
X75022104Y-53498457D01*
X50082414Y-68892943D02*
X50064207Y-68847415D01*
X60989101Y-5862471D02*
X60994639Y-5911543D01*
X19455721Y-71163209D02*
X19497466Y-71137486D01*
X5074911Y-68878911D02*
X5057524Y-68833462D01*
X96584596Y-8592395D02*
X96629664Y-8573077D01*
X50455189Y-8663734D02*
X50496990Y-8637926D01*
X27014036Y-9344383D02*
X27022910Y-9296065D01*
X37935868Y-6347436D02*
X37917661Y-6392964D01*
X75986760Y-41347635D02*
X75993575Y-41400101D01*
X73872002Y-40509789D02*
X73924832Y-40504258D01*
X5168340Y-6555149D02*
X5142110Y-6513724D01*
X97998778Y-20548772D02*
X97995116Y-20598041D01*
X73497585Y-53362560D02*
X73455840Y-53336837D01*
X97956988Y-71709857D02*
X97970064Y-71757111D01*
X52794420Y-56895643D02*
X52823144Y-56935382D01*
X5403896Y-5196595D02*
X5443985Y-5168362D01*
X96914898Y-40505338D02*
X96963852Y-40502331D01*
X6611689Y-8711093D02*
X6650850Y-8743082D01*
X27082425Y-68893049D02*
X27064218Y-68847521D01*
X96231075Y-69136516D02*
X96201326Y-69098780D01*
X5323445Y-69235312D02*
X5288409Y-69201542D01*
X5043016Y-72290994D02*
X5029939Y-72243737D01*
X5004879Y-57401908D02*
X5010967Y-57352901D01*
X6415431Y-37407602D02*
X6370364Y-37426921D01*
X75874722Y-9018917D02*
X75897304Y-9062441D01*
X27817903Y-24518424D02*
X27819527Y-24518122D01*
X6554999Y-24670308D02*
X6594217Y-24697928D01*
X6993734Y-9400986D02*
X6997539Y-9451549D01*
X50675481Y-40555984D02*
X50722316Y-40541134D01*
X96014294Y-41341955D02*
X96023269Y-41293750D01*
X19875071Y-71009330D02*
X19929964Y-71003753D01*
X28987728Y-21499000D02*
X28012271Y-21499000D01*
X83997681Y-71964219D02*
X83998288Y-72012889D01*
X6997801Y-57456827D02*
X6998764Y-57476176D01*
X52697057Y-56785533D02*
X52731301Y-56820628D01*
X42724851Y-6959578D02*
X42678870Y-6945161D01*
X27338861Y-21247787D02*
X27302936Y-21214415D01*
X75897304Y-9062441D02*
X75917728Y-9107032D01*
X75324518Y-69444015D02*
X75277683Y-69458865D01*
X97038512Y-21497678D02*
X96989112Y-21498312D01*
X52731301Y-56820628D02*
X52763781Y-56857361D01*
X5296816Y-24790026D02*
X5332805Y-24756180D01*
X83378911Y-72925088D02*
X83333462Y-72942475D01*
X6874584Y-52981046D02*
X6849894Y-53023410D01*
X29415371Y-40592191D02*
X29459447Y-40613704D01*
X29230175Y-69471394D02*
X29182096Y-69481575D01*
X97012889Y-56501711D02*
X97061519Y-56503475D01*
X75918227Y-68891220D02*
X75897853Y-68935930D01*
X27769805Y-53471421D02*
X27722379Y-53458921D01*
X6254106Y-40534557D02*
X6302510Y-40548630D01*
X6472816Y-24620870D02*
X6514501Y-24644602D01*
X75935809Y-41152403D02*
X75951760Y-41198769D01*
X96007052Y-25396337D02*
X96007694Y-25390555D01*
X73769824Y-56528605D02*
X73817903Y-56518424D01*
X50987744Y-8501300D02*
X51012271Y-8501000D01*
X60243910Y-5030366D02*
X60291479Y-5043629D01*
X60797537Y-72601758D02*
X60767336Y-72639914D01*
X97147583Y-72989187D02*
X97098919Y-72995189D01*
X97110006Y-56507605D02*
X97158233Y-56514092D01*
X75230175Y-69471394D02*
X75182096Y-69481575D01*
X27205579Y-69104356D02*
X27176855Y-69064617D01*
X97995189Y-5901080D02*
X97998796Y-5949981D01*
X14966056Y-72253169D02*
X14952626Y-72299952D01*
X52849888Y-24976534D02*
X52874579Y-25018898D01*
X75987372Y-9350693D02*
X75993734Y-9400986D01*
X5057524Y-20833462D02*
X5042372Y-20787219D01*
X88951993Y-72998814D02*
X88903461Y-72995261D01*
X83287219Y-72957627D02*
X83240293Y-72970510D01*
X96302931Y-56785639D02*
X96338856Y-56752267D01*
X999509Y-77999711D02*
X1011247Y-77999999D01*
X83544172Y-6836900D02*
X83502427Y-6862622D01*
X19005281Y-72089529D02*
X19002123Y-72040283D01*
X50819527Y-56518122D02*
X50872002Y-56509789D01*
X14155115Y-71013795D02*
X14158057Y-71014268D01*
X27081749Y-9108889D02*
X27102118Y-9064185D01*
X96012809Y-20650220D02*
X96006312Y-20599275D01*
X37509437Y-72859964D02*
X37467004Y-72883784D01*
X50047737Y-57200930D02*
X50063621Y-57154436D01*
X50375738Y-24721214D02*
X50414811Y-24691427D01*
X97956433Y-36791448D02*
X97940858Y-36838273D01*
X50455830Y-21336731D02*
X50415397Y-21308992D01*
X96176844Y-24935488D02*
X96205568Y-24895749D01*
X96605501Y-37417056D02*
X96559578Y-37395893D01*
X65014092Y-5841766D02*
X65022919Y-5793911D01*
X37629088Y-72776526D02*
X37590576Y-72806272D01*
X97195895Y-72980804D02*
X97147583Y-72989187D01*
X65133458Y-6495332D02*
X65110538Y-6452911D01*
X6790406Y-40890258D02*
X6820177Y-40930920D01*
X27034611Y-52754062D02*
X27023281Y-52706355D01*
X6965400Y-52753955D02*
X6951743Y-52801048D01*
X53000000Y-9525853D02*
X53000000Y-20469670D01*
X6205580Y-40523029D02*
X6253622Y-40534430D01*
X88013994Y-5842081D02*
X88022808Y-5794212D01*
X73003466Y-57441980D02*
X73007554Y-57393006D01*
X50497112Y-40637791D02*
X50540141Y-40614072D01*
X97806272Y-56909423D02*
X97834106Y-56949339D01*
X52823914Y-53063304D02*
X52795194Y-53103168D01*
X52997604Y-41452868D02*
X52998764Y-41476176D01*
X73235451Y-24858427D02*
X73267948Y-24821576D01*
X75012255Y-21498699D02*
X74987728Y-21499000D01*
X83917586Y-6393111D02*
X83897168Y-6437691D01*
X29850640Y-69022076D02*
X29823914Y-69063304D01*
X60496011Y-71133834D02*
X60537256Y-71158808D01*
X6502453Y-21362453D02*
X6459496Y-21386096D01*
X96749689Y-53466354D02*
X96703479Y-53453174D01*
X96843742Y-21485976D02*
X96796480Y-21477296D01*
X97800517Y-21098358D02*
X97769927Y-21137153D01*
X88010762Y-71866121D02*
X88018576Y-71817623D01*
X37925532Y-5624058D02*
X37942923Y-5670257D01*
X19363196Y-72770437D02*
X19325977Y-72738035D01*
X50629433Y-56573119D02*
X50675481Y-56555984D01*
X53000000Y-36469670D02*
X52998280Y-36528280D01*
X96023269Y-57293750D02*
X96034599Y-57246044D01*
X75697206Y-8785604D02*
X75731450Y-8820699D01*
X29459463Y-24613848D02*
X29502420Y-24637491D01*
X75544697Y-37336403D02*
X75502887Y-37362208D01*
X52874573Y-57018847D02*
X52897155Y-57062371D01*
X83981145Y-5813733D02*
X83989101Y-5862471D01*
X96147439Y-69019236D02*
X96123426Y-68977613D01*
X29230212Y-8528633D02*
X29277626Y-8541129D01*
X60333462Y-72942475D02*
X60287219Y-72957627D01*
X52875306Y-36979584D02*
X52850640Y-37022076D01*
X96033607Y-20750773D02*
X96021915Y-20700764D01*
X52992445Y-68606993D02*
X52985957Y-68655696D01*
X14301074Y-71048232D02*
X14347440Y-71064183D01*
X52731306Y-24820679D02*
X52763787Y-24857412D01*
X19002123Y-72040283D02*
X19001401Y-71990941D01*
X96540531Y-40613902D02*
X96584596Y-40592395D01*
X27497579Y-21362508D02*
X27455835Y-21336786D01*
X52976718Y-57293644D02*
X52985693Y-57341849D01*
X74987728Y-21499000D02*
X74012271Y-21499000D01*
X29277683Y-53458865D02*
X29230175Y-53471394D01*
X52324518Y-53444015D02*
X52277683Y-53458865D01*
X97099016Y-71005653D02*
X97147676Y-71011659D01*
X5057524Y-68833462D02*
X5042372Y-68787219D01*
X42965764Y-6998447D02*
X42936224Y-6996708D01*
X96231075Y-53136516D02*
X96201326Y-53098780D01*
X7000000Y-20474146D02*
X6998764Y-20523823D01*
X27124693Y-25020415D02*
X27149359Y-24977923D01*
X27976520Y-37498423D02*
X27926005Y-37495903D01*
X29230175Y-53471394D02*
X29182096Y-53481575D01*
X27375738Y-40721214D02*
X27414811Y-40691427D01*
X5485352Y-6857002D02*
X5443931Y-6830768D01*
X6986204Y-36655115D02*
X6985735Y-36658030D01*
X75180472Y-37481877D02*
X75127997Y-37490210D01*
X88232489Y-5360237D02*
X88264513Y-5323583D01*
X6917962Y-9107579D02*
X6936751Y-9154676D01*
X52230194Y-56528578D02*
X52277620Y-56541078D01*
X97707399Y-72707399D02*
X97671887Y-72741209D01*
X27924832Y-56504258D02*
X27977895Y-56501542D01*
X52697589Y-21213935D02*
X52661609Y-21247418D01*
X14642558Y-71236182D02*
X14679291Y-71268663D01*
X75794569Y-8895713D02*
X75823293Y-8935453D01*
X37985907Y-72158233D02*
X37977080Y-72206088D01*
X29697063Y-24785584D02*
X29731306Y-24820679D01*
X6517249Y-56646294D02*
X6557791Y-56672225D01*
X50375643Y-8721353D02*
X50414708Y-8691565D01*
X97980804Y-72195895D02*
X97970060Y-72243737D01*
X52997539Y-9451549D02*
X52998764Y-9476176D01*
X97328793Y-69443073D02*
X97281737Y-69458125D01*
X5168368Y-71444944D02*
X5196603Y-71404854D01*
X83981913Y-71820179D02*
X83989475Y-71867798D01*
X6341609Y-24562039D02*
X6386270Y-24579541D01*
X97158233Y-8514092D02*
X97206088Y-8522919D01*
X50584283Y-56592497D02*
X50629433Y-56573119D01*
X5058400Y-71663409D02*
X5076047Y-71617660D01*
X27063603Y-9154541D02*
X27081749Y-9108889D01*
X28012271Y-69499000D02*
X27987744Y-69498699D01*
X52977063Y-20704193D02*
X52965816Y-20752039D01*
X97829152Y-21058098D02*
X97800517Y-21098358D01*
X97829536Y-37057796D02*
X97800963Y-37098030D01*
X97980513Y-68695735D02*
X97969607Y-68743921D01*
X19570667Y-72902871D02*
X19526655Y-72880552D01*
X50204752Y-8896962D02*
X50235390Y-8858561D01*
X75277626Y-24541129D02*
X75324370Y-24555938D01*
X5010812Y-72147583D02*
X5004810Y-72098919D01*
X73007705Y-68609551D02*
X73007052Y-68603662D01*
X19724851Y-6959578D02*
X19678870Y-6945161D01*
X29127997Y-37490210D02*
X29075167Y-37495741D01*
X97981093Y-57307203D02*
X97989349Y-57355159D01*
X19133319Y-6495116D02*
X19110424Y-6452714D01*
X6736521Y-24826216D02*
X6768046Y-24862370D01*
X97737456Y-69174388D02*
X97703183Y-69209973D01*
X19855159Y-5010650D02*
X19903461Y-5004738D01*
X88976105Y-6998761D02*
X88953958Y-6997659D01*
X43000448Y-73000000D02*
X42951087Y-72998780D01*
X29127997Y-69490210D02*
X29075167Y-69495741D01*
X73926005Y-37495903D02*
X73875694Y-37490831D01*
X51012271Y-24501000D02*
X51987728Y-24501000D01*
X73063248Y-20845323D02*
X73046876Y-20797346D01*
X29459858Y-53385927D02*
X29415716Y-53407502D01*
X75324518Y-37444015D02*
X75277683Y-37458865D01*
X6724906Y-40813695D02*
X6758622Y-40851150D01*
X75182096Y-37481575D02*
X75180472Y-37481877D01*
X5746543Y-69465933D02*
X5699774Y-69452493D01*
X27866180Y-21489313D02*
X27817757Y-21481522D01*
X60929032Y-71634996D02*
X60945591Y-71680280D01*
X75459486Y-40613721D02*
X75502442Y-40637364D01*
X37623701Y-6779322D02*
X37584678Y-6809012D01*
X97806272Y-40909423D02*
X97834106Y-40949339D01*
X37096538Y-72995261D02*
X37048006Y-72998814D01*
X29544810Y-21336265D02*
X29503009Y-21362073D01*
X52177988Y-56517577D02*
X52228985Y-56528291D01*
X97087821Y-21494602D02*
X97038512Y-21497678D01*
X88796109Y-71022906D02*
X88844424Y-71014033D01*
X29502404Y-40637347D02*
X29544148Y-40663069D01*
X73267948Y-56821576D02*
X73302217Y-56786367D01*
X50034599Y-52753955D02*
X50023269Y-52706249D01*
X75012255Y-24501300D02*
X75021066Y-24501517D01*
X97050018Y-72998796D02*
X97000987Y-73000000D01*
X60951744Y-6301217D02*
X60935793Y-6347583D01*
X27268698Y-69179371D02*
X27236218Y-69142638D01*
X42771474Y-6971761D02*
X42724851Y-6959578D01*
X50584596Y-37407604D02*
X50540531Y-37386097D01*
X96569392Y-69400541D02*
X96526555Y-69378768D01*
X97281737Y-21458125D02*
X97233995Y-21470832D01*
X73825705Y-37483219D02*
X73776165Y-37473088D01*
X60805825Y-5409255D02*
X60833984Y-5449823D01*
X52985957Y-68655696D02*
X52977081Y-68704020D01*
X65329281Y-72741098D02*
X65293767Y-72707273D01*
X97744941Y-8833893D02*
X97776526Y-8870911D01*
X97671928Y-71259660D02*
X97707436Y-71293470D01*
X5223473Y-53129088D02*
X5193727Y-53090576D01*
X50584596Y-21407604D02*
X50540531Y-21386097D01*
X50204805Y-24896831D02*
X50235451Y-24858427D01*
X65062972Y-71655356D02*
X65081577Y-71608563D01*
X5019195Y-5804104D02*
X5029939Y-5756262D01*
X73000000Y-41530329D02*
X73001719Y-41471719D01*
X5485411Y-5142129D02*
X5528074Y-5117960D01*
X6951743Y-52801048D02*
X6935792Y-52847415D01*
X75012255Y-53498699D02*
X74987728Y-53499000D01*
X19040016Y-6273582D02*
X19027912Y-6226939D01*
X42176823Y-71435259D02*
X42205547Y-71395519D01*
X75697782Y-53213632D02*
X75661823Y-53247113D01*
X75182096Y-53481575D02*
X75180472Y-53481877D01*
X73987744Y-53498699D02*
X73977351Y-53498443D01*
X42268666Y-71320504D02*
X42302910Y-71285410D01*
X97902650Y-52929530D02*
X97880281Y-52973581D01*
X96629664Y-40573077D02*
X96675625Y-40555993D01*
X37998506Y-6009602D02*
X37996763Y-6058936D01*
X27455189Y-8663734D02*
X27496990Y-8637926D01*
X37981913Y-71820179D02*
X37989475Y-71867798D01*
X37785897Y-71384720D02*
X37814698Y-71423389D01*
X42901858Y-72995124D02*
X42852869Y-72989040D01*
X42213878Y-6615020D02*
X42185106Y-6576363D01*
X75544187Y-40663087D02*
X75584620Y-40690827D01*
X65020427Y-72195590D02*
X65012057Y-72147265D01*
X97956333Y-20791509D02*
X97940722Y-20838383D01*
X73048267Y-68801155D02*
X73034611Y-68754062D01*
X60147098Y-5010967D02*
X60195744Y-5019470D01*
X29124305Y-40509168D02*
X29174294Y-40516780D01*
X97998778Y-52548772D02*
X97995116Y-52598041D01*
X29370566Y-69426880D02*
X29324518Y-69444015D01*
X75917602Y-41106875D02*
X75935809Y-41152403D01*
X65002318Y-6035780D02*
X65001711Y-5987110D01*
X29126514Y-56509537D02*
X29177988Y-56517577D01*
X75502442Y-40637364D02*
X75544187Y-40663087D01*
X97776526Y-56870911D02*
X97806272Y-56909423D01*
X37277707Y-6958836D02*
X37230293Y-6971333D01*
X42001711Y-5987110D02*
X42003475Y-5938480D01*
X27776165Y-37473088D02*
X27727201Y-37460464D01*
X19074534Y-72376319D02*
X19057129Y-72330143D01*
X6952827Y-57202347D02*
X6966083Y-57248611D01*
X97243737Y-72970060D02*
X97195895Y-72980804D01*
X73022918Y-57295979D02*
X73034159Y-57248149D01*
X75936396Y-20845458D02*
X75918250Y-20891110D01*
X5478734Y-21352192D02*
X5437822Y-21325845D01*
X60985708Y-6158200D02*
X60976731Y-6206418D01*
X60063775Y-6996708D02*
X60034235Y-6998447D01*
X97776526Y-24870911D02*
X97806272Y-24909423D01*
X37287219Y-72957627D02*
X37240293Y-72970510D01*
X37767336Y-72639914D02*
X37735312Y-72676554D01*
X73987744Y-37498699D02*
X73976520Y-37498423D01*
X29874579Y-25018898D02*
X29897160Y-25062422D01*
X5534185Y-8616072D02*
X5578419Y-8594197D01*
X97629575Y-21275845D02*
X97590419Y-21305971D01*
X29764548Y-69141572D02*
X29732051Y-69178423D01*
X27236218Y-69142638D02*
X27205579Y-69104356D01*
X6415431Y-21407602D02*
X6370364Y-21426921D01*
X19094197Y-72421580D02*
X19074534Y-72376319D01*
X29850680Y-21021951D02*
X29823961Y-21063176D01*
X50001235Y-36523823D02*
X50000000Y-36474146D01*
X6296160Y-24546701D02*
X6341609Y-24562039D01*
X75623619Y-24720643D02*
X75661138Y-24752212D01*
X75021066Y-8501517D02*
X75076167Y-8504393D01*
X27375738Y-56721214D02*
X27414811Y-56691427D01*
X42005322Y-72089022D02*
X42002188Y-72039757D01*
X50176085Y-56936695D02*
X50204805Y-56896831D01*
X6671279Y-56761292D02*
X6706104Y-56794508D01*
X50048256Y-52801048D02*
X50034599Y-52753955D01*
X5756288Y-71030901D02*
X5804131Y-71020158D01*
X19936224Y-71003291D02*
X19965764Y-71001552D01*
X75992445Y-68606993D02*
X75985957Y-68655696D01*
X6697096Y-21214359D02*
X6661172Y-21247731D01*
X96180226Y-37069676D02*
X96152425Y-37027439D01*
X14240394Y-72970497D02*
X14192886Y-72981084D01*
X60876515Y-72479118D02*
X60852192Y-72521265D01*
X73003462Y-9442046D02*
X73007549Y-9393079D01*
X73007554Y-25393006D02*
X73014042Y-25344303D01*
X52230175Y-53471394D02*
X52182096Y-53481575D01*
X97601758Y-40702462D02*
X97639914Y-40732663D01*
X60378911Y-72925088D02*
X60333462Y-72942475D01*
X97859964Y-56990562D02*
X97883784Y-57032995D01*
X59976924Y-6999996D02*
X52999878Y-6999000D01*
X28012271Y-8501000D02*
X28987728Y-8501000D01*
X29182096Y-69481575D02*
X29180472Y-69481877D01*
X37674124Y-5262136D02*
X37709701Y-5296359D01*
X75133962Y-8510705D02*
X75182385Y-8518497D01*
X5095918Y-71572833D02*
X5117965Y-71529034D01*
X88333893Y-72744941D02*
X88298457Y-72711590D01*
X5018906Y-36692796D02*
X5010650Y-36644840D01*
X50924832Y-40504258D02*
X50977895Y-40501542D01*
X96964219Y-24502318D02*
X97012889Y-24501711D01*
X5000000Y-9500362D02*
X5001219Y-9451018D01*
X19490562Y-5140035D02*
X19532995Y-5116215D01*
X6997539Y-41451549D02*
X6998764Y-41476176D01*
X52277769Y-8541149D02*
X52324513Y-8555957D01*
X37825845Y-72562177D02*
X37797537Y-72601758D01*
X27769805Y-69471421D02*
X27722379Y-69458921D01*
X29996533Y-68558019D02*
X29992445Y-68606993D01*
X19817656Y-71018470D02*
X19820570Y-71017928D01*
X97098919Y-5004810D02*
X97147583Y-5010812D01*
X6917614Y-20892942D02*
X6897195Y-20937521D01*
X65346897Y-6754758D02*
X65311211Y-6722335D01*
X14631574Y-6772908D02*
X14593583Y-6802447D01*
X52133962Y-8510705D02*
X52182385Y-8518497D01*
X28012271Y-40501000D02*
X28987728Y-40501000D01*
X75993575Y-41400101D02*
X75997604Y-41452868D01*
X27102146Y-57064069D02*
X27124693Y-57020415D01*
X5292600Y-5292600D02*
X5328112Y-5258790D01*
X96205568Y-40895749D02*
X96236207Y-40857466D01*
X29661909Y-21246974D02*
X29624356Y-21278646D01*
X42001493Y-71990397D02*
X42003236Y-71941063D01*
X75978466Y-9300788D02*
X75987372Y-9350693D01*
X73007052Y-52603662D02*
X73002198Y-52543172D01*
X27176038Y-8936823D02*
X27204752Y-8896962D01*
X73987744Y-24501300D02*
X74012271Y-24501000D01*
X5623680Y-8574534D02*
X5669856Y-8557129D01*
X5889993Y-53492394D02*
X5841766Y-53485907D01*
X97829152Y-69058098D02*
X97800517Y-69098358D01*
X97383300Y-72923955D02*
X97337552Y-72941602D01*
X75965388Y-57245937D02*
X75976718Y-57293644D01*
X52965840Y-36751850D02*
X52952262Y-36799069D01*
X52697063Y-24785584D02*
X52731306Y-24820679D01*
X96349149Y-37256917D02*
X96311657Y-37222989D01*
X52978466Y-9300788D02*
X52987372Y-9350693D01*
X19584487Y-71092336D02*
X19629555Y-71073018D01*
X29985699Y-25341900D02*
X29992299Y-25390499D01*
X75012255Y-69498699D02*
X74987728Y-69499000D01*
X19759706Y-5029489D02*
X19807203Y-5018906D01*
X88014092Y-72158233D02*
X88007605Y-72110006D01*
X50375738Y-56721214D02*
X50414811Y-56691427D01*
X6849894Y-69023410D02*
X6823155Y-69064511D01*
X14554213Y-6830123D02*
X14513556Y-6855870D01*
X65259955Y-72671747D02*
X65227928Y-72634604D01*
X76000000Y-25525853D02*
X76000000Y-36469670D01*
X97883784Y-9032995D02*
X97905509Y-9076538D01*
X97998796Y-71950817D02*
X98000000Y-71999845D01*
X27081772Y-25108779D02*
X27102146Y-25064069D01*
X52074692Y-56504192D02*
X52126514Y-56509537D01*
X73236218Y-69142638D02*
X73205579Y-69104356D01*
X52897160Y-25062422D02*
X52917579Y-25107001D01*
X83722868Y-71311773D02*
X83755263Y-71347485D01*
X65089692Y-6409435D02*
X65070967Y-6365003D01*
X29976718Y-57293644D02*
X29985693Y-57341849D01*
X6386270Y-24579541D02*
X6430039Y-24599166D01*
X97464701Y-53384245D02*
X97420387Y-53406088D01*
X6992305Y-68609444D02*
X6985705Y-68658044D01*
X97737456Y-21174388D02*
X97703183Y-21209973D01*
X14253981Y-71034575D02*
X14301074Y-71048232D01*
X73003466Y-41441980D02*
X73007554Y-41393006D01*
X52977081Y-36704020D02*
X52965840Y-36751850D01*
X65666537Y-5057524D02*
X65712780Y-5042372D01*
X5571893Y-71096873D02*
X5616721Y-71077004D01*
X65951993Y-5001185D02*
X66000652Y-5000000D01*
X52996533Y-52558019D02*
X52992445Y-52606993D01*
X6800433Y-56903661D02*
X6828251Y-56942932D01*
X97998796Y-5949981D02*
X98000000Y-5999012D01*
X5670257Y-40557076D02*
X5717260Y-40541988D01*
X5018906Y-52692796D02*
X5010650Y-52644840D01*
X37994731Y-71915727D02*
X37997668Y-71963866D01*
X52661282Y-8752232D02*
X52697206Y-8785604D01*
X50584283Y-24592497D02*
X50629433Y-24573119D01*
X19820570Y-71017928D02*
X19875071Y-71009330D01*
X75996537Y-20557953D02*
X75992450Y-20606920D01*
X5360085Y-69267336D02*
X5323445Y-69235312D01*
X5059226Y-57161664D02*
X5077120Y-57115636D01*
X96064207Y-9152584D02*
X96082414Y-9107056D01*
X6009058Y-8501401D02*
X6058376Y-8503116D01*
X96147439Y-53019236D02*
X96123426Y-52977613D01*
X96613226Y-53420230D02*
X96569392Y-53400541D01*
X73063621Y-41154436D02*
X73081772Y-41108779D01*
X43023075Y-71000003D02*
X50000121Y-71000999D01*
X5029940Y-71757226D02*
X5043018Y-71709968D01*
X50977895Y-24501542D02*
X50987744Y-24501300D01*
X37701542Y-72711590D02*
X37666106Y-72744941D01*
X52850640Y-37022076D02*
X52823914Y-37063304D01*
X96795018Y-37477183D02*
X96746997Y-37465818D01*
X52998280Y-36528280D02*
X52996533Y-36558019D01*
X27064218Y-68847521D02*
X27048267Y-68801155D01*
X5029489Y-20740293D02*
X5018906Y-20692796D01*
X42014017Y-71842955D02*
X42023029Y-71794419D01*
X52584591Y-56690902D02*
X52623614Y-56720592D01*
X27064218Y-52847521D02*
X27048267Y-52801155D01*
X42498901Y-71136511D02*
X42542976Y-71112358D01*
X52967040Y-9251399D02*
X52978466Y-9300788D01*
X37755263Y-71347485D02*
X37785897Y-71384720D01*
X6987372Y-41350693D02*
X6993734Y-41400986D01*
X42140009Y-72508607D02*
X42115984Y-72465483D01*
X50415397Y-53308992D02*
X50376374Y-53279301D01*
X6896685Y-41061169D02*
X6917707Y-41106983D01*
X27338877Y-37247931D02*
X27302952Y-37214559D01*
X96914898Y-8505338D02*
X96963852Y-8502331D01*
X73540141Y-56614072D02*
X73584283Y-56592497D01*
X97981093Y-41307203D02*
X97989349Y-41355159D01*
X65757501Y-72970047D02*
X65710233Y-72956963D01*
X75079580Y-21495164D02*
X75018353Y-21498549D01*
X5095902Y-6427267D02*
X5076034Y-6382443D01*
X6394498Y-8582943D02*
X6440421Y-8604106D01*
X14347440Y-71064183D02*
X14392968Y-71082390D01*
X29584581Y-40690809D02*
X29623603Y-40720499D01*
X52459858Y-69385927D02*
X52415716Y-69407502D01*
X88436885Y-71176018D02*
X88478108Y-71149302D01*
X6992947Y-57396337D02*
X6997801Y-57456827D01*
X19409423Y-5193727D02*
X19449339Y-5165893D01*
X74987728Y-40501000D02*
X75012255Y-40501300D01*
X73047723Y-9201029D02*
X73063603Y-9154541D01*
X97556068Y-71169231D02*
X97596153Y-71197465D01*
X6993734Y-25400986D02*
X6997539Y-25451549D01*
X50629664Y-69426922D02*
X50584596Y-69407604D01*
X27001235Y-68523823D02*
X27000000Y-68474146D01*
X73631500Y-37427869D02*
X73584998Y-37407977D01*
X76000000Y-9525853D02*
X76000000Y-20469670D01*
X29502420Y-8637491D02*
X29544164Y-8663213D01*
X75021066Y-24501517D02*
X75076167Y-24504393D01*
X14898130Y-6435786D02*
X14876064Y-6478553D01*
X75977089Y-20703934D02*
X75965851Y-20751757D01*
X29415398Y-24592341D02*
X29459463Y-24613848D01*
X6230216Y-53471311D02*
X6182246Y-53481467D01*
X97995189Y-72098919D02*
X97989187Y-72147583D01*
X97800517Y-53098358D02*
X97769927Y-53137153D01*
X96376374Y-8720698D02*
X96415397Y-8691007D01*
X74987728Y-24501000D02*
X75012255Y-24501300D01*
X6230245Y-37471310D02*
X6182274Y-37481466D01*
X14028332Y-6998277D02*
X13969617Y-6999996D01*
X97346284Y-40563208D02*
X97391524Y-40581134D01*
X29415392Y-56592289D02*
X29459457Y-56613796D01*
X73817903Y-56518424D02*
X73819527Y-56518122D01*
X75661138Y-24752212D02*
X75697063Y-24785584D01*
X14467148Y-72883733D02*
X14423598Y-72905467D01*
X60841601Y-71463402D02*
X60866541Y-71504667D01*
X88971667Y-71001722D02*
X89030382Y-71000003D01*
X19722259Y-71041125D02*
X19769673Y-71028628D01*
X37897242Y-6437543D02*
X37874660Y-6481067D01*
X5000000Y-71999980D02*
X5001203Y-71950948D01*
X96268687Y-40820734D02*
X96302931Y-40785639D01*
X42807203Y-5018906D02*
X42855159Y-5010650D01*
X52075167Y-69495741D02*
X52022104Y-69498457D01*
X75368499Y-40572130D02*
X75415001Y-40592022D01*
X5862471Y-56510898D02*
X5911543Y-56505360D01*
X19756089Y-72969677D02*
X19708551Y-72956433D01*
X73125426Y-52981152D02*
X73102844Y-52937628D01*
X14666276Y-72744831D02*
X14629255Y-72776429D01*
X97233995Y-69470832D02*
X97185682Y-69481163D01*
X97957627Y-25212780D02*
X97970510Y-25259706D01*
X73497112Y-56637791D02*
X73540141Y-56614072D01*
X51987728Y-56501000D02*
X52012255Y-56501300D01*
X6820177Y-40930920D02*
X6847860Y-40973030D01*
X73002460Y-20548450D02*
X73001235Y-20523823D01*
X96014294Y-57341955D02*
X96023269Y-57293750D01*
X52623614Y-56720592D02*
X52661132Y-56752161D01*
X73176855Y-69064617D02*
X73150116Y-69023516D01*
X19005267Y-6084272D02*
X19002332Y-6036162D01*
X52985957Y-52655696D02*
X52977081Y-52704020D01*
X37965933Y-72253456D02*
X37952493Y-72300225D01*
X27722373Y-21458870D02*
X27675629Y-21444061D01*
X75073994Y-40504096D02*
X75124305Y-40509168D01*
X97038512Y-53497678D02*
X96989112Y-53498312D01*
X27000121Y-71000999D02*
X36976945Y-71000002D01*
X19029262Y-72235495D02*
X19018867Y-72187255D01*
X5000000Y-20499347D02*
X5000000Y-9500362D01*
X29996533Y-52558019D02*
X29992445Y-52606993D01*
X50125415Y-36981046D02*
X50102833Y-36937522D01*
X73102816Y-36937703D02*
X73082397Y-36893124D01*
X27338176Y-24752886D02*
X27375738Y-24721214D01*
X97925088Y-25121088D02*
X97942475Y-25166537D01*
X29624261Y-37278785D02*
X29585188Y-37308572D01*
X96302931Y-8785639D02*
X96338856Y-8752267D01*
X50722316Y-40541134D02*
X50769824Y-40528605D01*
X73675481Y-40555984D02*
X73722316Y-40541134D01*
X19675516Y-71055933D02*
X19722259Y-71041125D01*
X96843542Y-37486162D02*
X96795018Y-37477183D01*
X96081539Y-20891147D02*
X96063762Y-20846503D01*
X73584607Y-69407710D02*
X73540542Y-69386203D01*
X6998764Y-41476176D02*
X7000000Y-41525853D01*
X37243907Y-5030342D02*
X37291459Y-5043595D01*
X52133819Y-24510686D02*
X52182242Y-24518477D01*
X37998288Y-72012889D02*
X37996524Y-72061519D01*
X97902650Y-20929530D02*
X97880281Y-20973581D01*
X75977081Y-68704020D02*
X75965840Y-68751850D01*
X96302931Y-40785639D02*
X96338856Y-40752267D01*
X83365733Y-71071236D02*
X83410150Y-71089997D01*
X37859990Y-5491392D02*
X37884015Y-5534516D01*
X6544198Y-37336730D02*
X6502453Y-37362453D01*
X29875340Y-20979463D02*
X29850680Y-21021951D01*
X29918250Y-20891110D02*
X29897881Y-20935814D01*
X29544164Y-8663213D02*
X29584597Y-8690953D01*
X65149955Y-71476538D02*
X65176694Y-71435437D01*
X29018353Y-21498549D02*
X29012255Y-21498699D01*
X88370911Y-72776526D02*
X88333893Y-72744941D01*
X19166236Y-72550776D02*
X19140104Y-72508915D01*
X5528011Y-6881172D02*
X5485352Y-6857002D01*
X97856087Y-37016200D02*
X97829536Y-37057796D01*
X27414811Y-24691427D02*
X27455302Y-24663596D01*
X60021054Y-6999028D02*
X59976924Y-6999996D01*
X14294359Y-6953756D02*
X14248049Y-6966846D01*
X5165893Y-37050660D02*
X5140035Y-37009437D01*
X14629255Y-72776429D02*
X14590738Y-72806187D01*
X27007716Y-36609643D02*
X27007052Y-36603662D01*
X88028765Y-71769569D02*
X88041304Y-71722073D01*
X97061519Y-56503475D02*
X97110006Y-56507605D01*
X60473486Y-5119617D02*
X60516364Y-5144116D01*
X42678870Y-6945161D02*
X42633638Y-6928544D01*
X60985907Y-72158233D02*
X60977080Y-72206088D01*
X29174294Y-40516780D02*
X29223834Y-40526911D01*
X27001235Y-36523823D02*
X27000000Y-36474146D01*
X75850640Y-69022076D02*
X75823914Y-69063304D01*
X60096538Y-72995261D02*
X60048006Y-72998814D01*
X29965388Y-57245937D02*
X29976718Y-57293644D01*
X73236069Y-21142568D02*
X73205430Y-21104286D01*
X27235451Y-40858427D02*
X27267948Y-40821576D01*
X37598121Y-5199169D02*
X37636901Y-5229713D01*
X75985963Y-20655616D02*
X75977089Y-20703934D01*
X27047737Y-41200930D02*
X27063621Y-41154436D01*
X37544246Y-6836752D02*
X37502501Y-6862475D01*
X37735312Y-72676554D02*
X37701542Y-72711590D01*
X14048065Y-72998813D02*
X13999394Y-73000000D01*
X29131025Y-24510306D02*
X29133819Y-24510686D01*
X52850640Y-69022076D02*
X52823914Y-69063304D01*
X27022910Y-9296065D02*
X27034148Y-9248242D01*
X75998280Y-52528280D02*
X75996533Y-52558019D01*
X65679536Y-6945359D02*
X65634266Y-6928763D01*
X73414811Y-24691427D02*
X73455302Y-24663596D01*
X97989188Y-71853258D02*
X97995189Y-71901920D01*
X97859964Y-24990562D02*
X97883784Y-25032995D01*
X42185106Y-6576363D02*
X42158233Y-6536364D01*
X73675635Y-69444112D02*
X73629674Y-69427028D01*
X5142110Y-6513724D02*
X5117945Y-6471063D01*
X37997681Y-71964219D02*
X37998288Y-72012889D01*
X29502887Y-37362208D02*
X29459858Y-37385927D01*
X29764548Y-53141572D02*
X29732051Y-53178423D01*
X29661132Y-56752161D02*
X29697057Y-56785533D01*
X96021915Y-52700764D02*
X96012809Y-52650220D01*
X5057524Y-52833462D02*
X5042372Y-52787219D01*
X29133819Y-24510686D02*
X29182242Y-24518477D01*
X50007554Y-25393006D02*
X50014042Y-25344303D01*
X73415408Y-69309097D02*
X73376385Y-69279407D01*
X27001719Y-41471719D02*
X27003466Y-41441980D01*
X83989475Y-71867798D02*
X83994731Y-71915727D01*
X75370325Y-56572971D02*
X75415392Y-56592289D01*
X83467004Y-72883784D02*
X83423461Y-72905509D01*
X30000000Y-20469670D02*
X29998280Y-20528280D01*
X97857889Y-71486275D02*
X97882054Y-71528936D01*
X73000000Y-25530329D02*
X73001719Y-25471719D01*
X52977081Y-68704020D02*
X52965840Y-68751850D01*
X97634758Y-5226762D02*
X97671887Y-5258790D01*
X96295841Y-21207483D02*
X96262604Y-21172779D01*
X96125415Y-9018953D02*
X96150105Y-8976589D01*
X65123484Y-5520881D02*
X65147807Y-5478734D01*
X27926005Y-37495903D02*
X27875694Y-37490831D01*
X52731329Y-40820553D02*
X52763810Y-40857286D01*
X5959716Y-8502123D02*
X6009058Y-8501401D01*
X60958062Y-5717732D02*
X60970790Y-5765447D01*
X66000652Y-5000000D02*
X82999462Y-5000000D01*
X97989187Y-5852416D02*
X97995189Y-5901080D01*
X83653102Y-71245241D02*
X83688788Y-71277664D01*
X5709030Y-71043977D02*
X5756288Y-71030901D01*
X29965851Y-20751757D02*
X29952276Y-20798970D01*
X6613049Y-40712175D02*
X6652027Y-40744119D01*
X96173425Y-53059656D02*
X96147439Y-53019236D01*
X6897166Y-68937522D02*
X6874584Y-68981046D01*
X5000000Y-5999012D02*
X5001203Y-5949981D01*
X6789869Y-8889548D02*
X6819773Y-8930323D01*
X83173505Y-6983380D02*
X83123005Y-6991029D01*
X6936751Y-9154676D02*
X6953123Y-9202653D01*
X42576538Y-5094490D02*
X42621088Y-5074911D01*
X5370424Y-24724154D02*
X5409580Y-24694028D01*
X5004810Y-72098919D02*
X5001203Y-72050018D01*
X6324374Y-53444006D02*
X6277630Y-53458815D01*
X96048256Y-57198951D02*
X96064207Y-57152584D01*
X73455302Y-56663596D02*
X73497112Y-56637791D01*
X96150105Y-56976589D02*
X96176844Y-56935488D01*
X73000000Y-20474146D02*
X73000000Y-9530329D01*
X75544308Y-8663233D02*
X75584740Y-8690972D01*
X42338834Y-71252038D02*
X42376353Y-71220468D01*
X42866221Y-6989319D02*
X42818630Y-6981682D01*
X5144116Y-56983635D02*
X5170704Y-56942020D01*
X52544697Y-69336403D02*
X52502887Y-69362208D01*
X5059141Y-9161726D02*
X5077009Y-9115727D01*
X29324364Y-56555887D02*
X29370325Y-56572971D01*
X50149359Y-24977923D02*
X50176085Y-24936695D01*
X96064207Y-41152584D02*
X96082414Y-41107056D01*
X50338090Y-8753025D02*
X50375643Y-8721353D01*
X29992947Y-41396337D02*
X29997801Y-41456827D01*
X83972062Y-71772979D02*
X83981913Y-71820179D01*
X5437822Y-37325845D02*
X5398241Y-37297537D01*
X5437822Y-21325845D02*
X5398241Y-21297537D01*
X6987372Y-25350693D02*
X6993734Y-25400986D01*
X75918250Y-20891110D02*
X75897881Y-20935814D01*
X50584142Y-8592626D02*
X50629283Y-8573244D01*
X75996533Y-36558019D02*
X75992445Y-36606993D01*
X29012255Y-24501300D02*
X29021066Y-24501517D01*
X97957627Y-41212780D02*
X97970510Y-41259706D01*
X50000000Y-41530329D02*
X50001719Y-41471719D01*
X7000000Y-41525853D02*
X7000000Y-52474146D01*
X50007052Y-68603662D02*
X50002198Y-68543172D01*
X73046876Y-20797346D02*
X73032959Y-20748600D01*
X75277683Y-69458865D02*
X75230175Y-69471394D01*
X37537256Y-71158808D02*
X37577248Y-71185743D01*
X73149967Y-21023445D02*
X73125277Y-20981082D01*
X73925307Y-53495807D02*
X73873485Y-53490462D01*
X60240293Y-72970510D02*
X60192796Y-72981093D01*
X97989349Y-41355159D02*
X97995261Y-41403461D01*
X36999551Y-5000000D02*
X37048912Y-5001219D01*
X65110538Y-6452911D02*
X65089692Y-6409435D01*
X19678870Y-6945161D02*
X19633638Y-6928544D01*
X19042026Y-72283163D02*
X19029262Y-72235495D01*
X73081772Y-25108779D02*
X73102146Y-25064069D01*
X6828251Y-56942932D02*
X6854146Y-56983497D01*
X96150105Y-24976589D02*
X96176844Y-24935488D01*
X29823961Y-21063176D02*
X29795247Y-21103037D01*
X6953123Y-41202653D02*
X6967040Y-41251399D01*
X50064207Y-52847415D02*
X50048256Y-52801048D01*
X29544159Y-56663162D02*
X29584591Y-56690902D01*
X73034159Y-57248149D02*
X73047737Y-57200930D01*
X6459496Y-37386096D02*
X6415431Y-37407602D01*
X60274445Y-71040248D02*
X60320463Y-71054640D01*
X5010977Y-25352930D02*
X5019486Y-25304264D01*
X83098091Y-5004879D02*
X83147098Y-5010967D01*
X50302217Y-24786367D02*
X50338176Y-24752886D01*
X52996533Y-68558019D02*
X52992445Y-68606993D01*
X60709826Y-5296574D02*
X60743670Y-5332536D01*
X83223548Y-6973159D02*
X83173505Y-6983380D01*
X73977351Y-69498443D02*
X73925307Y-69495807D01*
X5608475Y-69418865D02*
X5564162Y-69398757D01*
X27003466Y-57441980D02*
X27007554Y-57393006D01*
X97834106Y-40949339D02*
X97859964Y-40990562D01*
X73872002Y-56509789D02*
X73924832Y-56504258D01*
X83996637Y-6059560D02*
X83992426Y-6108763D01*
X14668099Y-6741574D02*
X14631574Y-6772908D01*
X73923832Y-21495606D02*
X73868974Y-21489693D01*
X83992394Y-72110006D02*
X83985907Y-72158233D01*
X52999878Y-6999000D02*
X43023054Y-6999997D01*
X5119617Y-57026513D02*
X5144116Y-56983635D01*
X97941599Y-6336590D02*
X97923952Y-6382339D01*
X6935792Y-68847415D02*
X6917585Y-68892943D01*
X27584283Y-40592497D02*
X27629433Y-40573119D01*
X6897166Y-52937522D02*
X6874584Y-52981046D01*
X5911543Y-56505360D02*
X5960829Y-56502254D01*
X73006424Y-36599898D02*
X73002395Y-36547131D01*
X96675625Y-8555993D02*
X96722369Y-8541184D01*
X5165893Y-53050660D02*
X5140035Y-53009437D01*
X73455302Y-24663596D02*
X73497112Y-24637791D01*
X29321061Y-40554621D02*
X29368499Y-40572130D01*
X29502420Y-24637491D02*
X29544164Y-24663213D01*
X97050018Y-5001203D02*
X97098919Y-5004810D01*
X98000000Y-36499637D02*
X97998780Y-36548981D01*
X50302140Y-8786505D02*
X50338090Y-8753025D01*
X73022824Y-36704409D02*
X73013239Y-36652364D01*
X73629525Y-21426958D02*
X73584458Y-21407639D01*
X97590419Y-53305971D02*
X97549821Y-53334125D01*
X52022104Y-37498457D02*
X52012255Y-37498699D01*
X97880281Y-52973581D02*
X97855762Y-53016472D01*
X28012271Y-53499000D02*
X27987744Y-53498699D01*
X96081539Y-52891147D02*
X96063762Y-52846503D01*
X27496990Y-8637926D02*
X27540009Y-8614204D01*
X73455812Y-37336912D02*
X73415379Y-37309172D01*
X88562451Y-6897191D02*
X88518927Y-6874609D01*
X102000490Y-288D02*
X101988752Y0D01*
X96125415Y-57018953D02*
X96150105Y-56976589D01*
X52697782Y-37213632D02*
X52661823Y-37247113D01*
X50081749Y-9108889D02*
X50102118Y-9064185D01*
X73987744Y-40501300D02*
X74012271Y-40501000D01*
X96444268Y-21329172D02*
X96405007Y-21301464D01*
X29998764Y-9476176D02*
X30000000Y-9525853D01*
X96000000Y-52474146D02*
X96000000Y-41525853D01*
X65875071Y-71009330D02*
X65929964Y-71003753D01*
X27176085Y-56936695D02*
X27204805Y-56896831D01*
X27675635Y-69444112D02*
X27629674Y-69427028D01*
X88370744Y-5223570D02*
X88409261Y-5193812D01*
X27497585Y-69362560D02*
X27455840Y-69336837D01*
X60910307Y-71590564D02*
X60929032Y-71634996D01*
X5938480Y-37496524D02*
X5889993Y-37492394D01*
X73000000Y-68474146D02*
X73000000Y-57530329D01*
X27125426Y-68981152D02*
X27102844Y-68937628D01*
X27977895Y-40501542D02*
X27987744Y-40501300D01*
X14986162Y-6156457D02*
X14977183Y-6204981D01*
X97195868Y-6979841D02*
X97147555Y-6988222D01*
X88232663Y-72639914D02*
X88202462Y-72601758D01*
X6936751Y-41154676D02*
X6953123Y-41202653D01*
X7000000Y-68474146D02*
X6998764Y-68523823D01*
X60192796Y-72981093D02*
X60144840Y-72989349D01*
X5889993Y-37492394D02*
X5841766Y-37485907D01*
X50769647Y-8528712D02*
X50817705Y-8518527D01*
X88001660Y-5987461D02*
X88003407Y-5938820D01*
X65002579Y-71950251D02*
X65006401Y-71900040D01*
X19298457Y-5288409D02*
X19333893Y-5255058D01*
X50034599Y-36753955D02*
X50023269Y-36706249D01*
X6502453Y-37362453D02*
X6459496Y-37386096D01*
X60965401Y-6254124D02*
X60951744Y-6301217D01*
X6133864Y-21489255D02*
X6085129Y-21494659D01*
X73064218Y-52847521D02*
X73048267Y-52801155D01*
X27817757Y-21481522D02*
X27769787Y-21471366D01*
X96484815Y-53354960D02*
X96444268Y-53329172D01*
X88101242Y-72435837D02*
X88081134Y-72391524D01*
X50268687Y-37179265D02*
X50236207Y-37142533D01*
X27014306Y-68658150D02*
X27007705Y-68609551D01*
X37697144Y-6714381D02*
X37661220Y-6747753D01*
X97328793Y-53443073D02*
X97281737Y-53458125D01*
X97110006Y-40507605D02*
X97158233Y-40514092D01*
X5077062Y-41115688D02*
X5097193Y-41070615D01*
X14550818Y-72834033D02*
X14509589Y-72859902D01*
X97998796Y-6049051D02*
X97995189Y-6097952D01*
X60509437Y-72859964D02*
X60467004Y-72883784D01*
X83415405Y-6907772D02*
X83370326Y-6927095D01*
X50034159Y-41248149D02*
X50047737Y-41200930D01*
X29965840Y-36751850D02*
X29952262Y-36799069D01*
X96176844Y-40935488D02*
X96205568Y-40895749D01*
X5528093Y-71118919D02*
X5571893Y-71096873D01*
X97940858Y-36838273D02*
X97922990Y-36884272D01*
X5491392Y-40640009D02*
X5534516Y-40615984D01*
X88163242Y-6544195D02*
X88137520Y-6502450D01*
X6370364Y-21426921D02*
X6324403Y-21444005D01*
X19002318Y-6035780D02*
X19001711Y-5987110D01*
X50584283Y-40592497D02*
X50629433Y-40573119D01*
X96455830Y-8663268D02*
X96497574Y-8637545D01*
X75697085Y-40785458D02*
X75731329Y-40820553D01*
X37415479Y-6907624D02*
X37370412Y-6926943D01*
X102999711Y-77000490D02*
X102999999Y-76988752D01*
X14201163Y-6977690D02*
X14153809Y-6986264D01*
X5288409Y-69201542D02*
X5255058Y-69166106D01*
X14192886Y-72981084D02*
X14144920Y-72989345D01*
X5010650Y-36644840D02*
X5004738Y-36596538D01*
X29976724Y-9293695D02*
X29985699Y-9341900D01*
X52731880Y-21178723D02*
X52697589Y-21213935D01*
X96021915Y-68700764D02*
X96012809Y-68650220D01*
X6794460Y-21104249D02*
X6763821Y-21142531D01*
X37970759Y-5764950D02*
X37981135Y-5813212D01*
X50124693Y-25020415D02*
X50149359Y-24977923D01*
X27267948Y-40821576D02*
X27302217Y-40786367D01*
X97290994Y-72956983D02*
X97243737Y-72970060D01*
X27415418Y-37309190D02*
X27376396Y-37279500D01*
X96012627Y-36649306D02*
X96006265Y-36599013D01*
X29012255Y-69498699D02*
X28987728Y-69499000D01*
X14767510Y-72639762D02*
X14735486Y-72676416D01*
X73675635Y-53444112D02*
X73629674Y-53427028D01*
X50235451Y-24858427D02*
X50267948Y-24821576D01*
X60069873Y-71003999D02*
X60085044Y-71005305D01*
X5949981Y-72998796D02*
X5901080Y-72995189D01*
X37147130Y-5010959D02*
X37195758Y-5019455D01*
X88056162Y-71675251D02*
X88073305Y-71629216D01*
X97941602Y-5662447D02*
X97956983Y-5709005D01*
X97428106Y-6903126D02*
X97383278Y-6922995D01*
X96176844Y-56935488D02*
X96205568Y-56895749D01*
X52022648Y-56501556D02*
X52074692Y-56504192D01*
X75992445Y-52606993D02*
X75985957Y-52655696D01*
X29998764Y-25476176D02*
X30000000Y-25525853D01*
X6998764Y-9476176D02*
X7000000Y-9525853D01*
X52131025Y-8510306D02*
X52133962Y-8510705D01*
X73022918Y-41295979D02*
X73034159Y-41248149D01*
X88395723Y-6794456D02*
X88357441Y-6763817D01*
X60965933Y-72253456D02*
X60952493Y-72300225D01*
X52996533Y-36558019D02*
X52992445Y-36606993D01*
X97634745Y-6772279D02*
X97596088Y-6802446D01*
X75985957Y-52655696D02*
X75977081Y-52704020D01*
X73021533Y-20699211D02*
X73012627Y-20649306D01*
X65807203Y-5018906D02*
X65855159Y-5010650D01*
X65081577Y-71608563D02*
X65102521Y-71562756D01*
X14674022Y-5261964D02*
X14709596Y-5296165D01*
X73584283Y-56592497D02*
X73629433Y-56573119D01*
X6652027Y-40744119D02*
X6689344Y-40777987D01*
X6976758Y-20706248D02*
X6965429Y-20753954D01*
X52502442Y-40637364D02*
X52544187Y-40663087D01*
X52023362Y-21498426D02*
X52012255Y-21498699D01*
X5094490Y-68923461D02*
X5074911Y-68878911D01*
X6528765Y-8653261D02*
X6570959Y-8681127D01*
X97596103Y-72803404D02*
X97556014Y-72831637D01*
X96330708Y-53240549D02*
X96295841Y-53207483D01*
X50000000Y-36474146D02*
X50000000Y-25530329D01*
X50023269Y-20706249D02*
X50014294Y-20658044D01*
X96939257Y-69496473D02*
X96891368Y-69492373D01*
X75875340Y-20979463D02*
X75850680Y-21021951D01*
X75849911Y-40976408D02*
X75874602Y-41018772D01*
X19497466Y-71137486D02*
X19540422Y-71113843D01*
X5478734Y-37352192D02*
X5437822Y-37325845D01*
X96082414Y-9107056D02*
X96102833Y-9062477D01*
X14998339Y-72012538D02*
X14996592Y-72061179D01*
X97970510Y-57259706D02*
X97981093Y-57307203D01*
X96338856Y-24752267D02*
X96376374Y-24720698D01*
X52544159Y-56663162D02*
X52584591Y-56690902D01*
X97803429Y-71404763D02*
X97831659Y-71444850D01*
X29763787Y-8857412D02*
X29794426Y-8895694D01*
X5841766Y-21485907D02*
X5793911Y-21477080D01*
X50414811Y-56691427D02*
X50455302Y-56663596D01*
X29415716Y-37407502D02*
X29370566Y-37426880D01*
X29697047Y-40785440D02*
X29731290Y-40820535D01*
X60223548Y-6973159D02*
X60173505Y-6983380D01*
X19936224Y-6996708D02*
X19932671Y-6996445D01*
X29936396Y-20845458D02*
X29918250Y-20891110D01*
X29823914Y-69063304D02*
X29795194Y-69103168D01*
X27007705Y-68609551D02*
X27007052Y-68603662D01*
X27302942Y-69214466D02*
X27268698Y-69179371D01*
X97981093Y-25307203D02*
X97989349Y-25355159D01*
X96484815Y-21354960D02*
X96444268Y-21329172D01*
X5485429Y-71143087D02*
X5528093Y-71118919D01*
X97000987Y-73000000D02*
X89000652Y-73000000D01*
X6917614Y-36892942D02*
X6897195Y-36937521D01*
X97969607Y-68743921D02*
X97956333Y-68791509D01*
X6997659Y-20546041D02*
X6993429Y-20600735D01*
X97980806Y-71804950D02*
X97989188Y-71853258D01*
X60144840Y-72989349D02*
X60096538Y-72995261D01*
X75935786Y-25152529D02*
X75951737Y-25198895D01*
X65675474Y-71055941D02*
X65722217Y-71041133D01*
X65584445Y-71092344D02*
X65629513Y-71073025D01*
X75794449Y-40895568D02*
X75823172Y-40935307D01*
X59999347Y-73000000D02*
X43000448Y-73000000D01*
X83459470Y-6886265D02*
X83415405Y-6907772D01*
X97596153Y-71197465D02*
X97634803Y-71227632D01*
X52998764Y-57476176D02*
X53000000Y-57525853D01*
X52897183Y-41062296D02*
X52917602Y-41106875D01*
X88298285Y-5288532D02*
X88333723Y-5255168D01*
X5018906Y-20692796D02*
X5010650Y-20644840D01*
X75022648Y-56501556D02*
X75074692Y-56504192D01*
X50819527Y-24518122D02*
X50872002Y-24509789D01*
X52997801Y-25456827D02*
X52998764Y-25476176D01*
X97703183Y-53209973D02*
X97667194Y-53243819D01*
X75084954Y-21494701D02*
X75079580Y-21495164D01*
X88951934Y-5001186D02*
X89000605Y-5000000D01*
X5485411Y-72857870D02*
X5443985Y-72831637D01*
X65311211Y-6722335D02*
X65277131Y-6688226D01*
X14473344Y-5119447D02*
X14516200Y-5143912D01*
X5000000Y-36499347D02*
X5000000Y-25500629D01*
X37098141Y-5004875D02*
X37147130Y-5010959D01*
X83192796Y-72981093D02*
X83144840Y-72989349D01*
X96032959Y-36748600D02*
X96021533Y-36699211D01*
X5804131Y-71020158D02*
X5852444Y-71011777D01*
X65914955Y-6994694D02*
X65867018Y-6989397D01*
X27023291Y-36706448D02*
X27014316Y-36658243D01*
X6935821Y-36847414D02*
X6917614Y-36892942D01*
X14590738Y-72806187D02*
X14550818Y-72834033D01*
X65070967Y-6365003D02*
X65054408Y-6319719D01*
X73414811Y-40691427D02*
X73455302Y-40663596D01*
X52951732Y-57198844D02*
X52965388Y-57245937D01*
X97147676Y-71011659D02*
X97195984Y-71020046D01*
X5765447Y-56529209D02*
X5813733Y-56518854D01*
X29763771Y-40857268D02*
X29794410Y-40895550D01*
X97667194Y-53243819D02*
X97629575Y-53275845D01*
X6875761Y-25020817D02*
X6897784Y-25063430D01*
X53000000Y-25525853D02*
X53000000Y-36469670D01*
X75502887Y-53362208D02*
X75459858Y-53385927D01*
X27302217Y-24786367D02*
X27338176Y-24752886D01*
X96147439Y-21019236D02*
X96123426Y-20977613D01*
X75459606Y-8613867D02*
X75502563Y-8637510D01*
X75661909Y-21246974D02*
X75624356Y-21278646D01*
X6724070Y-8812793D02*
X6757941Y-8850337D01*
X50981618Y-69498322D02*
X50963852Y-69497668D01*
X75230175Y-37471394D02*
X75182096Y-37481575D01*
X73149359Y-40977923D02*
X73176085Y-40936695D01*
X52585188Y-37308572D02*
X52544697Y-37336403D01*
X51987728Y-8501000D02*
X52012255Y-8501300D01*
X52075167Y-53495741D02*
X52022104Y-53498457D01*
X97880281Y-68973581D02*
X97855762Y-69016472D01*
X5004883Y-25401958D02*
X5010977Y-25352930D01*
X52182385Y-8518497D02*
X52230355Y-8528652D01*
X75985699Y-25341900D02*
X75992299Y-25390499D01*
X27082425Y-52893049D02*
X27064218Y-52847521D01*
X83994639Y-5911543D02*
X83997745Y-5960829D01*
X29585188Y-37308572D02*
X29544697Y-37336403D01*
X88147807Y-72521265D02*
X88123484Y-72479118D01*
X97940722Y-68838383D02*
X97922813Y-68884427D01*
X83240293Y-72970510D02*
X83192796Y-72981093D01*
X6415403Y-69407604D02*
X6370335Y-69426922D01*
X96657956Y-53437788D02*
X96613226Y-53420230D01*
X14994718Y-5910470D02*
X14997876Y-5959716D01*
X97243711Y-6969098D02*
X97195868Y-6979841D01*
X14775463Y-5369625D02*
X14805597Y-5408704D01*
X83516364Y-5144116D02*
X83557979Y-5170704D01*
X65097097Y-72427896D02*
X65077234Y-72383054D01*
X6182274Y-37481466D02*
X6133864Y-37489255D01*
X37996524Y-72061519D02*
X37992394Y-72110006D01*
X98000000Y-52499370D02*
X97998778Y-52548772D01*
X97281737Y-53458125D02*
X97233995Y-53470832D01*
X6035780Y-69497681D02*
X5987110Y-69498288D01*
X60615893Y-71214576D02*
X60653102Y-71245241D01*
X19929964Y-71003753D02*
X19936224Y-71003291D01*
X73205430Y-21104286D02*
X73176706Y-21064546D01*
X97383278Y-6922995D02*
X97337529Y-6940642D01*
X29131025Y-8510306D02*
X29133819Y-8510686D01*
X73006265Y-20599013D02*
X73002460Y-20548450D01*
X6475506Y-56622345D02*
X6517249Y-56646294D01*
X60996637Y-6059560D02*
X60992426Y-6108763D01*
X27987744Y-69498699D02*
X27977351Y-69498443D01*
X5117960Y-72471925D02*
X5095914Y-72428127D01*
X6440421Y-8604106D02*
X6485215Y-8627565D01*
X83502427Y-6862622D02*
X83459470Y-6886265D01*
X75731301Y-56820628D02*
X75763781Y-56857361D01*
X37577248Y-71185743D02*
X37615893Y-71214576D01*
X5010650Y-68644840D02*
X5004738Y-68596538D01*
X73124659Y-9020536D02*
X73149319Y-8978048D01*
X5616627Y-6923092D02*
X5571805Y-6903220D01*
X97300225Y-56547506D02*
X97346284Y-56563208D01*
X88114268Y-71539951D02*
X88137991Y-71496936D01*
X96000000Y-36474146D02*
X96000000Y-25525853D01*
X19027912Y-6226939D02*
X19018072Y-6179766D01*
X6917585Y-68892943D02*
X6897166Y-68937522D01*
X97147555Y-6988222D02*
X97098889Y-6994223D01*
X27102844Y-68937628D02*
X27082425Y-68893049D01*
X60918865Y-72391524D02*
X60898757Y-72435837D01*
X97882054Y-71528936D02*
X97904097Y-71572732D01*
X88518927Y-6874609D02*
X88476564Y-6849919D01*
X74987728Y-69499000D02*
X74012271Y-69499000D01*
X42483725Y-72855991D02*
X42442120Y-72829422D01*
X6250027Y-24533562D02*
X6296160Y-24546701D01*
X52277626Y-24541129D02*
X52324370Y-24555938D01*
X42852869Y-72989040D02*
X42804241Y-72980544D01*
X28987728Y-53499000D02*
X28012271Y-53499000D01*
X5196595Y-5403896D02*
X5226762Y-5365241D01*
X75992450Y-20606920D02*
X75985963Y-20655616D01*
X97300225Y-8547506D02*
X97346284Y-8563208D01*
X27014300Y-20658099D02*
X27007700Y-20609500D01*
X73082425Y-52893049D02*
X73064218Y-52847521D01*
X52502581Y-21362505D02*
X52459529Y-21386217D01*
X29985683Y-41341756D02*
X29992283Y-41390356D01*
X96002460Y-36548450D02*
X96001235Y-36523823D01*
X50866206Y-8510716D02*
X50915045Y-8505298D01*
X97803396Y-6595145D02*
X97773228Y-6633800D01*
X50302217Y-56786367D02*
X50338176Y-56752886D01*
X88028662Y-6230242D02*
X88018507Y-6182272D01*
X97428194Y-71096779D02*
X97471988Y-71118827D01*
X42244479Y-6652244D02*
X42213878Y-6615020D01*
X73007549Y-9393079D02*
X73014036Y-9344383D01*
X50176038Y-8936823D02*
X50204752Y-8896962D01*
X5296574Y-56790173D02*
X5332536Y-56756329D01*
X14747757Y-71338831D02*
X14779327Y-71376350D01*
X96103405Y-36939020D02*
X96082308Y-36893052D01*
X6757941Y-8850337D02*
X6789869Y-8889548D01*
X75935781Y-57152478D02*
X75951732Y-57198844D01*
X27000000Y-52474146D02*
X27000000Y-41530329D01*
X29935770Y-41152385D02*
X29951721Y-41198751D01*
X14437548Y-71102808D02*
X14481072Y-71125390D01*
X42089600Y-6409258D02*
X42070896Y-6364848D01*
X96415397Y-24691007D02*
X96455830Y-24663268D01*
X96268687Y-56820734D02*
X96302931Y-56785639D01*
X37929032Y-71634996D02*
X37945591Y-71680280D01*
X96021533Y-36699211D02*
X96012627Y-36649306D01*
X97375048Y-21425713D02*
X97328793Y-21443073D01*
X97769927Y-69137153D02*
X97737456Y-69174388D01*
X27376380Y-21279356D02*
X27338861Y-21247787D01*
X96007694Y-25390555D02*
X96014294Y-25341955D01*
X97549821Y-69334125D02*
X97507881Y-69360238D01*
X73376357Y-37279482D02*
X73338838Y-37247913D01*
X27150111Y-21023465D02*
X27125420Y-20981101D01*
X88666418Y-5057550D02*
X88712670Y-5042391D01*
X83775696Y-5370127D02*
X83805825Y-5409255D01*
X73987744Y-8501300D02*
X74012271Y-8501000D01*
X75131025Y-8510306D02*
X75133962Y-8510705D01*
X5699774Y-37452493D02*
X5653715Y-37436791D01*
X50866164Y-21489256D02*
X50817753Y-21481467D01*
X50872002Y-56509789D02*
X50924832Y-56504258D01*
X37942923Y-5670257D02*
X37958011Y-5717260D01*
X5998908Y-6999166D02*
X5949880Y-6997958D01*
X52951760Y-41198769D02*
X52965417Y-41245862D01*
X73722148Y-8541248D02*
X73769647Y-8528712D01*
X6992298Y-57390486D02*
X6992947Y-57396337D01*
X95999913Y-6999000D02*
X89025925Y-6999996D01*
X29731306Y-24820679D02*
X29763787Y-24857412D01*
X50338176Y-24752886D02*
X50375738Y-24721214D01*
X75502414Y-56637439D02*
X75544159Y-56663162D01*
X29998280Y-36528280D02*
X29996533Y-36558019D01*
X97391524Y-56581134D02*
X97435837Y-56601242D01*
X5409255Y-56694174D02*
X5449823Y-56666015D01*
X5365241Y-72773237D02*
X5328112Y-72741209D01*
X83195744Y-5019470D02*
X83243910Y-5030366D01*
X96613226Y-69420230D02*
X96569392Y-69400541D01*
X96295841Y-53207483D02*
X96262604Y-53172779D01*
X73915045Y-8505298D02*
X73920419Y-8504835D01*
X97905509Y-9076538D02*
X97925088Y-9121088D01*
X29897160Y-25062422D02*
X29917579Y-25107001D01*
X14604276Y-71205543D02*
X14642558Y-71236182D01*
X52897853Y-36935930D02*
X52875306Y-36979584D01*
X27048267Y-52801155D02*
X27034611Y-52754062D01*
X52623619Y-24720643D02*
X52661138Y-24752212D01*
X14206275Y-71023245D02*
X14253981Y-71034575D01*
X5262543Y-24825611D02*
X5296816Y-24790026D01*
X97998780Y-36548981D02*
X97995127Y-36598194D01*
X52012255Y-40501300D02*
X52023479Y-40501576D01*
X6917962Y-41107579D02*
X6936751Y-41154676D01*
X50584596Y-53407604D02*
X50540531Y-53386097D01*
X14709596Y-5296165D02*
X14743437Y-5332081D01*
X50629664Y-37426922D02*
X50584596Y-37407604D01*
X6966083Y-57248611D02*
X6977097Y-57295459D01*
X97089529Y-37494718D02*
X97040283Y-37497876D01*
X5403911Y-71197553D02*
X5444001Y-71169319D01*
X0Y-1011272D02*
X0Y-76988727D01*
X27003462Y-9442046D02*
X27007549Y-9393079D01*
X50338856Y-37247732D02*
X50302931Y-37214360D01*
X37195758Y-5019455D02*
X37243907Y-5030342D01*
X97185682Y-69481163D02*
X97136918Y-69489093D01*
X42007605Y-5889993D02*
X42014092Y-5841766D01*
X96817753Y-8518532D02*
X96866164Y-8510743D01*
X50102146Y-41064069D02*
X50124693Y-41020415D01*
X75012255Y-37498699D02*
X74987728Y-37499000D01*
X75502887Y-37362208D02*
X75459858Y-37385927D01*
X75998764Y-41476176D02*
X76000000Y-41525853D01*
X65244736Y-6652514D02*
X65214102Y-6615279D01*
X27825705Y-37483219D02*
X27776165Y-37473088D01*
X29999878Y-6999000D02*
X20023054Y-6999997D01*
X96964219Y-40502318D02*
X97012889Y-40501711D01*
X52076167Y-8504393D02*
X52131025Y-8510306D01*
X60925614Y-5624479D02*
X60942991Y-5670704D01*
X88942081Y-71003460D02*
X88971667Y-71001722D01*
X73176038Y-8936823D02*
X73204752Y-8896962D01*
X27817705Y-8518527D02*
X27866206Y-8510716D01*
X97741200Y-6670929D02*
X97707388Y-6706442D01*
X83785897Y-71384720D02*
X83814698Y-71423389D01*
X53000000Y-20469670D02*
X52998280Y-20528280D01*
X42002318Y-6035780D02*
X42001711Y-5987110D01*
X29012255Y-40501300D02*
X29023479Y-40501576D01*
X97300225Y-40547506D02*
X97346284Y-40563208D01*
X96006312Y-20599275D02*
X96002440Y-20548050D01*
X6823183Y-21064510D02*
X6794460Y-21104249D01*
X73771014Y-53471708D02*
X73769805Y-53471421D01*
X74012271Y-40501000D02*
X74987728Y-40501000D01*
X75875306Y-36979584D02*
X75850640Y-37022076D01*
X97956983Y-5709005D02*
X97970060Y-5756262D01*
X5043666Y-25208490D02*
X5059277Y-25161616D01*
X42115984Y-72465483D02*
X42094119Y-72421225D01*
X60884120Y-5534884D02*
X60905975Y-5579169D01*
X27204805Y-24896831D02*
X27235451Y-24858427D01*
X75022104Y-37498457D02*
X75012255Y-37498699D01*
X75133819Y-24510686D02*
X75182242Y-24518477D01*
X50819527Y-40518122D02*
X50872002Y-40509789D01*
X5443985Y-72831637D02*
X5403896Y-72803404D01*
X51012271Y-8501000D02*
X51987728Y-8501000D01*
X83852192Y-72521265D02*
X83825845Y-72562177D01*
X60936791Y-72346284D02*
X60918865Y-72391524D01*
X52965816Y-20752039D02*
X52952228Y-20799274D01*
X97195984Y-71020046D02*
X97243822Y-71030793D01*
X73722316Y-40541134D02*
X73769824Y-40528605D01*
X37833864Y-5449507D02*
X37859990Y-5491392D01*
X37021033Y-71000970D02*
X37028106Y-71001282D01*
X83965933Y-72253456D02*
X83952493Y-72300225D01*
X52763930Y-8857431D02*
X52794569Y-8895713D01*
X14989132Y-5861439D02*
X14994718Y-5910470D01*
X5170704Y-56942020D02*
X5199316Y-56901770D01*
X5578774Y-40594119D02*
X5624058Y-40574467D01*
X5403896Y-72803404D02*
X5365241Y-72773237D01*
X97970510Y-25259706D02*
X97981093Y-25307203D01*
X76000000Y-20469670D02*
X75998280Y-20528280D01*
X29849872Y-40976390D02*
X29874563Y-41018754D01*
X97428127Y-72904085D02*
X97383300Y-72923955D01*
X82999462Y-5000000D02*
X83048843Y-5001220D01*
X73124693Y-25020415D02*
X73149359Y-24977923D01*
X97980513Y-52695735D02*
X97969607Y-52743921D01*
X75544810Y-21336265D02*
X75503009Y-21362073D01*
X29544148Y-40663069D02*
X29584581Y-40690809D01*
X75875306Y-68979584D02*
X75850640Y-69022076D01*
X65002478Y-72049675D02*
X65001292Y-72000632D01*
X83697070Y-6714528D02*
X83661145Y-6747900D01*
X96023269Y-41293750D02*
X96034599Y-41246044D01*
X42081134Y-5608475D02*
X42101242Y-5564162D01*
X6697068Y-69214360D02*
X6661143Y-69247732D01*
X6459468Y-69386097D02*
X6415403Y-69407604D01*
X14106098Y-6992547D02*
X14058126Y-6996526D01*
X97741209Y-72671887D02*
X97707399Y-72707399D01*
X60028106Y-71001282D02*
X60069873Y-71003999D01*
X29022104Y-69498457D02*
X29012255Y-69498699D01*
X42621088Y-5074911D02*
X42666537Y-5057524D01*
X52992445Y-36606993D02*
X52985957Y-36655696D01*
X51012271Y-40501000D02*
X51987728Y-40501000D01*
X75992299Y-25390499D02*
X75992947Y-25396337D01*
X5094490Y-20923461D02*
X5074911Y-20878911D01*
X5949880Y-6997958D02*
X5900983Y-6994346D01*
X37085166Y-6994683D02*
X37069873Y-6996000D01*
X5116215Y-52967004D02*
X5094490Y-52923461D01*
X52936378Y-68845563D02*
X52918227Y-68891220D01*
X50769824Y-24528605D02*
X50817903Y-24518424D01*
X60227786Y-71028092D02*
X60274445Y-71040248D01*
X73866206Y-8510716D02*
X73915045Y-8505298D01*
X5229883Y-56862983D02*
X5262328Y-56825753D01*
X97941609Y-71663301D02*
X97956988Y-71709857D01*
X83666106Y-72744941D02*
X83629088Y-72776526D01*
X5669856Y-8557129D02*
X5716836Y-8542026D01*
X14243910Y-5030322D02*
X14291448Y-5043566D01*
X50001235Y-52523823D02*
X50000000Y-52474146D01*
X19333893Y-5255058D02*
X19370911Y-5223473D01*
X52998280Y-68528280D02*
X52996533Y-68558019D01*
X27977351Y-69498443D02*
X27925307Y-69495807D01*
X50540531Y-53386097D02*
X50497574Y-53362454D01*
X60785897Y-71384720D02*
X60814698Y-71423389D01*
X73540542Y-53386203D02*
X73497585Y-53362560D01*
X29992445Y-36606993D02*
X29985957Y-36655696D01*
X65040054Y-6273689D02*
X65027937Y-6227020D01*
X97989022Y-20647069D02*
X97980513Y-20695735D01*
X88003475Y-72061519D02*
X88001711Y-72012889D01*
X27584607Y-69407710D02*
X27540542Y-69386203D01*
X5004738Y-36596538D02*
X5001185Y-36548006D01*
X96444268Y-69329172D02*
X96405007Y-69301464D01*
X96796480Y-53477296D02*
X96749689Y-53466354D01*
X5520881Y-69376515D02*
X5478734Y-69352192D01*
X83929032Y-71634996D02*
X83945591Y-71680280D01*
X96000000Y-41525853D02*
X96001235Y-41476176D01*
X96082414Y-57107056D02*
X96102833Y-57062477D01*
X96367125Y-53271900D02*
X96330708Y-53240549D01*
X27978933Y-21498482D02*
X27923832Y-21495606D01*
X52935786Y-25152529D02*
X52951737Y-25198895D01*
X65227928Y-72634604D02*
X65197762Y-72595934D01*
X50415397Y-21308992D02*
X50376374Y-21279301D01*
X5292611Y-71293557D02*
X5328125Y-71259747D01*
X75795247Y-21103037D02*
X75764609Y-21141438D01*
X5409580Y-24694028D02*
X5450178Y-24665874D01*
X60584604Y-6809160D02*
X60544172Y-6836900D01*
X75985957Y-68655696D02*
X75977081Y-68704020D01*
X42871686Y-6990061D02*
X42866221Y-6989319D01*
X52180472Y-53481877D02*
X52127997Y-53490210D01*
X50866164Y-37489256D02*
X50817753Y-37481467D01*
X83423461Y-72905509D02*
X83378911Y-72925088D01*
X60898757Y-72435837D02*
X60876515Y-72479118D01*
X97970059Y-6242773D02*
X97956981Y-6290031D01*
X42708540Y-72956404D02*
X42661700Y-72940818D01*
X52977175Y-41295590D02*
X52986760Y-41347635D01*
X73977351Y-53498443D02*
X73925307Y-53495807D01*
X52661138Y-24752212D02*
X52697063Y-24785584D01*
X52764548Y-53141572D02*
X52732051Y-53178423D01*
X14058126Y-6996526D02*
X14028332Y-6998277D01*
X50455302Y-40663596D02*
X50497112Y-40637791D01*
X97667194Y-21243819D02*
X97629575Y-21275845D01*
X5010813Y-71853381D02*
X5019196Y-71805069D01*
X97110006Y-8507605D02*
X97158233Y-8514092D01*
X73176085Y-24936695D02*
X73204805Y-24896831D01*
X50914898Y-37494661D02*
X50866164Y-37489256D01*
X19532995Y-5116215D02*
X19576538Y-5094490D01*
X52502887Y-37362208D02*
X52459858Y-37385927D01*
X6978466Y-9300788D02*
X6987372Y-9350693D01*
X65007605Y-5889993D02*
X65014092Y-5841766D01*
X50081772Y-25108779D02*
X50102146Y-25064069D01*
X29324518Y-69444015D02*
X29277683Y-69458865D01*
X60697070Y-6714528D02*
X60661145Y-6747900D01*
X73267948Y-24821576D02*
X73302217Y-24786367D01*
X97243737Y-5029939D02*
X97290994Y-5043016D01*
X75585188Y-53308572D02*
X75544697Y-53336403D01*
X50817753Y-53481467D02*
X50769783Y-53471311D01*
X76000000Y-57525853D02*
X76000000Y-68469670D01*
X42936224Y-6996708D02*
X42932671Y-6996445D01*
X97882039Y-72471925D02*
X97857870Y-72514588D01*
X97806272Y-24909423D02*
X97834106Y-24949339D01*
X96007694Y-41390555D02*
X96014294Y-41341955D01*
X50001235Y-68523823D02*
X50000000Y-68474146D01*
X51012271Y-56501000D02*
X51987728Y-56501000D01*
X52459529Y-21386217D02*
X52415363Y-21407782D01*
X88190982Y-6584627D02*
X88163242Y-6544195D01*
X6182246Y-53481467D02*
X6133835Y-53489256D01*
X65978966Y-6999029D02*
X65971893Y-6998717D01*
X96002440Y-20548050D02*
X96001235Y-20523823D01*
X52182096Y-37481575D02*
X52180472Y-37481877D01*
X83985907Y-72158233D02*
X83977080Y-72206088D01*
X42082393Y-71606827D02*
X42102812Y-71562247D01*
X5756177Y-6969206D02*
X5708924Y-6956125D01*
X14428761Y-6901345D02*
X14384820Y-6920968D01*
X96891368Y-69492373D02*
X96843742Y-69485976D01*
X97253456Y-8534066D02*
X97300225Y-8547506D01*
X75965840Y-36751850D02*
X75952262Y-36799069D01*
X83918865Y-72391524D02*
X83898757Y-72435837D01*
X65722217Y-71041133D02*
X65769631Y-71028636D01*
X27987744Y-40501300D02*
X28012271Y-40501000D01*
X96063762Y-20846503D02*
X96048148Y-20801045D01*
X27268698Y-53179371D02*
X27236218Y-53142638D01*
X65174154Y-5437822D02*
X65202462Y-5398241D01*
X29133819Y-8510686D02*
X29182242Y-8518477D01*
X29997801Y-57456827D02*
X29998764Y-57476176D01*
X27302140Y-8786505D02*
X27338090Y-8753025D01*
X52764396Y-21141867D02*
X52731880Y-21178723D01*
X14952096Y-6300404D02*
X14936046Y-6347081D01*
X37333462Y-72942475D02*
X37287219Y-72957627D01*
X50455830Y-53336731D02*
X50415397Y-53308992D01*
X5010959Y-41352869D02*
X5019455Y-41304241D01*
X5478734Y-53352192D02*
X5437822Y-53325845D01*
X51018405Y-69499000D02*
X50981618Y-69498322D01*
X50675322Y-8556104D02*
X50722148Y-8541248D01*
X42827670Y-71016367D02*
X42877372Y-71008901D01*
X50063621Y-25154436D02*
X50081772Y-25108779D01*
X5708924Y-6956125D02*
X5662370Y-6940741D01*
X37936791Y-72346284D02*
X37918865Y-72391524D01*
X29223834Y-40526911D02*
X29272798Y-40539535D01*
X75182294Y-21481472D02*
X75133793Y-21489283D01*
X96497574Y-56637545D02*
X96540531Y-56613902D01*
X97464701Y-69384245D02*
X97420387Y-69406088D01*
X73769805Y-53471421D02*
X73722379Y-53458921D01*
X50981618Y-53498322D02*
X50963852Y-53497668D01*
X6133835Y-53489256D02*
X6085101Y-53494661D01*
X27375738Y-24721214D02*
X27414811Y-24691427D01*
X5223473Y-37129088D02*
X5193727Y-37090576D01*
X5117960Y-5528074D02*
X5142129Y-5485411D01*
X37763868Y-6642553D02*
X37731388Y-6679286D01*
X19125307Y-71518893D02*
X19149997Y-71476530D01*
X97995261Y-57403461D02*
X97998814Y-57451993D01*
X29076167Y-8504393D02*
X29131025Y-8510306D01*
X6459468Y-53386097D02*
X6415403Y-53407604D01*
X50963852Y-37497668D02*
X50914898Y-37494661D01*
X96125415Y-41018953D02*
X96150105Y-40976589D01*
X96330708Y-69240549D02*
X96295841Y-69207483D01*
X65119137Y-72471710D02*
X65097097Y-72427896D01*
X52584620Y-40690827D02*
X52623642Y-40720517D01*
X97639914Y-56732663D02*
X97676554Y-56764687D01*
X5793911Y-53477080D02*
X5746543Y-53465933D01*
X97391524Y-8581134D02*
X97435837Y-8601242D01*
X5255058Y-69166106D02*
X5223473Y-69129088D01*
X73722379Y-69458921D02*
X73675635Y-69444112D01*
X14851965Y-6520208D02*
X14825887Y-6560654D01*
X29795247Y-21103037D02*
X29764609Y-21141438D01*
X6485215Y-8627565D02*
X6528765Y-8653261D01*
X73000000Y-9530329D02*
X73001719Y-9471719D01*
X27376396Y-37279500D02*
X27338877Y-37247931D01*
X97562177Y-8674154D02*
X97601758Y-8702462D01*
X5258757Y-6671018D02*
X5226733Y-6633890D01*
X27675322Y-8556104D02*
X27722148Y-8541248D01*
X29012255Y-37498699D02*
X28987728Y-37499000D01*
X73873485Y-69490462D02*
X73822011Y-69482422D01*
X97435837Y-40601242D02*
X97479118Y-40623484D01*
X19965764Y-6998447D02*
X19936224Y-6996708D01*
X5912178Y-24505397D02*
X5961487Y-24502321D01*
X73032959Y-20748600D02*
X73021533Y-20699211D01*
X73302217Y-56786367D02*
X73338176Y-56752886D01*
X73629433Y-40573119D02*
X73675481Y-40555984D01*
X73769805Y-69471421D02*
X73722379Y-69458921D01*
X19116072Y-72465814D02*
X19094197Y-72421580D01*
X102001155Y-77999436D02*
X102009660Y-77991339D01*
X75127997Y-37490210D02*
X75075167Y-37495741D01*
X73455691Y-21336766D02*
X73415259Y-21309027D01*
X97281737Y-69458125D02*
X97233995Y-69470832D01*
X73769824Y-40528605D02*
X73817903Y-40518424D01*
X50376374Y-37279301D02*
X50338856Y-37247732D01*
X97290969Y-6956022D02*
X97243711Y-6969098D01*
X14333581Y-72942449D02*
X14287329Y-72957608D01*
X13999394Y-73000000D02*
X5999012Y-73000000D01*
X6205399Y-56523060D02*
X6252237Y-56534116D01*
X42005267Y-6084272D02*
X42002332Y-6036162D01*
X73302793Y-21214395D02*
X73268549Y-21179300D01*
X75992294Y-57390448D02*
X75992947Y-57396337D01*
X75127997Y-69490210D02*
X75075167Y-69495741D01*
X73125426Y-68981152D02*
X73102844Y-68937628D01*
X73414708Y-8691565D02*
X73455189Y-8663734D01*
X29012255Y-8501300D02*
X29021066Y-8501517D01*
X29022104Y-37498457D02*
X29012255Y-37498699D01*
X42376353Y-71220468D02*
X42415376Y-71190778D01*
X29764609Y-21141438D02*
X29732120Y-21178287D01*
X19224536Y-72630374D02*
X19194402Y-72591295D01*
X75415410Y-40592209D02*
X75459486Y-40613721D01*
X29324677Y-21443895D02*
X29277851Y-21458751D01*
X50963852Y-53497668D02*
X50914898Y-53494661D01*
X96657956Y-69437788D02*
X96613226Y-69420230D01*
X29952262Y-52799069D02*
X29936378Y-52845563D01*
X6158071Y-56514270D02*
X6205399Y-56523060D01*
X5528074Y-5117960D02*
X5571872Y-5095914D01*
X96769783Y-56528688D02*
X96817753Y-56518532D01*
X96262604Y-21172779D02*
X96231075Y-21136516D01*
X29732120Y-21178287D02*
X29697859Y-21213494D01*
X52936334Y-20845783D02*
X52918172Y-20891454D01*
M02*
