%TF.GenerationSoftware,KiCad,Pcbnew,8.0.9-8.0.9-0~ubuntu24.04.1*%
%TF.CreationDate,2025-07-21T09:14:06-04:00*%
%TF.ProjectId,cap_multiplier_tile,6361705f-6d75-46c7-9469-706c6965725f,0.1.X*%
%TF.SameCoordinates,Original*%
%TF.FileFunction,Legend,Top*%
%TF.FilePolarity,Positive*%
%FSLAX46Y46*%
G04 Gerber Fmt 4.6, Leading zero omitted, Abs format (unit mm)*
G04 Created by KiCad (PCBNEW 8.0.9-8.0.9-0~ubuntu24.04.1) date 2025-07-21 09:14:06*
%MOMM*%
%LPD*%
G01*
G04 APERTURE LIST*
%ADD10C,0.100000*%
%ADD11C,0.000000*%
%ADD12C,0.191421*%
%ADD13C,0.110000*%
%ADD14C,0.150000*%
%ADD15C,0.250000*%
%ADD16C,0.120000*%
G04 APERTURE END LIST*
D10*
X9200000Y-2400000D02*
X9200000Y-2000000D01*
X-8400000Y-1300000D02*
X-8400000Y-900000D01*
D11*
G36*
X-8400000Y-1900000D02*
G01*
X-8900000Y-1300000D01*
X-7900000Y-1300000D01*
X-8400000Y-1900000D01*
G37*
G36*
X9200000Y2100000D02*
G01*
X8700000Y2700000D01*
X9700000Y2700000D01*
X9200000Y2100000D01*
G37*
D12*
X-9604290Y5000000D02*
G75*
G02*
X-9795710Y5000000I-95710J0D01*
G01*
X-9795710Y5000000D02*
G75*
G02*
X-9604290Y5000000I95710J0D01*
G01*
D10*
X-8400000Y4400000D02*
X-8400000Y4800000D01*
D11*
G36*
X9200000Y-3000000D02*
G01*
X8700000Y-2400000D01*
X9700000Y-2400000D01*
X9200000Y-3000000D01*
G37*
D10*
X9200000Y2700000D02*
X9200000Y3100000D01*
D11*
G36*
X-8400000Y3800000D02*
G01*
X-8900000Y4400000D01*
X-7900000Y4400000D01*
X-8400000Y3800000D01*
G37*
D13*
G36*
X-4053058Y7739368D02*
G01*
X-4017745Y7726915D01*
X-3985816Y7707203D01*
X-3958016Y7681082D01*
X-3935094Y7649407D01*
X-3917796Y7613027D01*
X-3906870Y7572797D01*
X-3903062Y7529568D01*
X-3906960Y7488092D01*
X-3918106Y7449180D01*
X-3935674Y7413744D01*
X-3958841Y7382702D01*
X-3986782Y7356965D01*
X-4018673Y7337450D01*
X-4053689Y7325070D01*
X-4091007Y7320740D01*
X-4128640Y7325076D01*
X-4163804Y7337499D01*
X-4195715Y7357129D01*
X-4223585Y7383091D01*
X-4246629Y7414505D01*
X-4264062Y7450493D01*
X-4275098Y7490178D01*
X-4278951Y7532682D01*
X-4275098Y7574883D01*
X-4264062Y7614341D01*
X-4246629Y7650167D01*
X-4223585Y7681472D01*
X-4195715Y7707367D01*
X-4163804Y7726964D01*
X-4128640Y7739374D01*
X-4091007Y7743708D01*
X-4053058Y7739368D01*
G37*
G36*
X-271138Y7587083D02*
G01*
X-233920Y7575110D01*
X-201904Y7556400D01*
X-172088Y7526490D01*
X-153668Y7490106D01*
X-148561Y7456112D01*
X-155871Y7415254D01*
X-176439Y7379711D01*
X-208223Y7351128D01*
X-241803Y7333812D01*
X-280570Y7323424D01*
X-314524Y7320740D01*
X-356577Y7324902D01*
X-394371Y7336752D01*
X-426731Y7355339D01*
X-456737Y7385196D01*
X-475200Y7421739D01*
X-480304Y7456112D01*
X-472996Y7497293D01*
X-452367Y7532857D01*
X-420358Y7561283D01*
X-386393Y7578420D01*
X-346997Y7588662D01*
X-312326Y7591300D01*
X-271138Y7587083D01*
G37*
G36*
X977186Y7587540D02*
G01*
X1014024Y7576675D01*
X1049873Y7555850D01*
X1076368Y7527193D01*
X1090300Y7497145D01*
X781638Y7497145D01*
X798274Y7531289D01*
X826183Y7558872D01*
X863389Y7578697D01*
X901179Y7588609D01*
X935878Y7591300D01*
X977186Y7587540D01*
G37*
G36*
X-893609Y7728267D02*
G01*
X-858070Y7715026D01*
X-829754Y7689191D01*
X-815941Y7653160D01*
X-814794Y7637279D01*
X-822797Y7598281D01*
X-845843Y7568746D01*
X-882491Y7550030D01*
X-924581Y7543595D01*
X-931298Y7543490D01*
X-1055129Y7543490D01*
X-1055129Y7731984D01*
X-931298Y7731984D01*
X-893609Y7728267D01*
G37*
G36*
X5044638Y7132444D02*
G01*
X-5105088Y7132444D01*
X-5105088Y7784557D01*
X-5021755Y7784557D01*
X-5010086Y7749005D01*
X-4976558Y7733603D01*
X-4952512Y7731984D01*
X-4936759Y7731984D01*
X-4936759Y7332464D01*
X-4952512Y7332464D01*
X-4990521Y7327470D01*
X-5018504Y7301136D01*
X-5021755Y7279891D01*
X-5009184Y7245452D01*
X-4972370Y7228850D01*
X-4952512Y7227500D01*
X-4457920Y7227500D01*
X-4457920Y7387052D01*
X-4462905Y7425892D01*
X-4489150Y7454136D01*
X-4510310Y7457394D01*
X-4545460Y7446198D01*
X-4561162Y7412480D01*
X-4562884Y7387052D01*
X-4562884Y7332464D01*
X-4831612Y7332464D01*
X-4831612Y7485421D01*
X-4742402Y7485421D01*
X-4742402Y7477910D01*
X-4738922Y7441056D01*
X-4718877Y7410201D01*
X-4690012Y7403355D01*
X-4655210Y7415266D01*
X-4640125Y7448920D01*
X-4638538Y7472598D01*
X-4638538Y7532682D01*
X-4383915Y7532682D01*
X-4380539Y7484693D01*
X-4370745Y7438883D01*
X-4355028Y7395806D01*
X-4333886Y7356017D01*
X-4307816Y7320071D01*
X-4277316Y7288524D01*
X-4242882Y7261931D01*
X-4205012Y7240847D01*
X-4164203Y7225827D01*
X-4120952Y7217426D01*
X-4091007Y7215777D01*
X-4046865Y7219452D01*
X-4004643Y7230092D01*
X-3964870Y7247115D01*
X-3928075Y7269940D01*
X-3894786Y7297989D01*
X-3865533Y7330679D01*
X-3840844Y7367430D01*
X-3821248Y7407663D01*
X-3807274Y7450796D01*
X-3799452Y7496249D01*
X-3797915Y7527553D01*
X-3800527Y7575959D01*
X-3807969Y7619407D01*
X-3819657Y7658150D01*
X-3835004Y7692440D01*
X-3863600Y7736081D01*
X-3897128Y7771130D01*
X-3915063Y7784557D01*
X-3689471Y7784557D01*
X-3677744Y7749005D01*
X-3644113Y7733603D01*
X-3620045Y7731984D01*
X-3513983Y7731984D01*
X-3513983Y7332464D01*
X-3620045Y7332464D01*
X-3657240Y7328112D01*
X-3685560Y7303580D01*
X-3689471Y7279891D01*
X-3674845Y7243866D01*
X-3639911Y7228888D01*
X-3620045Y7227500D01*
X-3302957Y7227500D01*
X-3266442Y7232678D01*
X-3238042Y7257099D01*
X-3233714Y7279891D01*
X-3241747Y7304987D01*
X-2448412Y7304987D01*
X-2432942Y7268404D01*
X-2402580Y7246412D01*
X-2366367Y7232205D01*
X-2321287Y7222168D01*
X-2279500Y7217409D01*
X-2233173Y7215777D01*
X-2194479Y7217107D01*
X-2143203Y7223764D01*
X-2099573Y7235386D01*
X-2063061Y7251265D01*
X-2024533Y7277839D01*
X-1996459Y7309047D01*
X-1977585Y7343214D01*
X-1966654Y7378663D01*
X-1962247Y7422223D01*
X-1967845Y7464129D01*
X-1984731Y7501896D01*
X-1995260Y7514913D01*
X-1844278Y7514913D01*
X-1832550Y7479361D01*
X-1798920Y7463959D01*
X-1774852Y7462340D01*
X-1371668Y7462340D01*
X-1332693Y7467914D01*
X-1305487Y7494484D01*
X-1302425Y7514913D01*
X-1313273Y7550465D01*
X-1349701Y7566324D01*
X-1371668Y7567487D01*
X-1774852Y7567487D01*
X-1813884Y7562203D01*
X-1841199Y7535750D01*
X-1844278Y7514913D01*
X-1995260Y7514913D01*
X-2008293Y7531027D01*
X-2040337Y7557211D01*
X-2073582Y7576812D01*
X-2080949Y7580492D01*
X-2046752Y7603579D01*
X-2017070Y7631303D01*
X-1995562Y7665676D01*
X-1986059Y7704843D01*
X-1985328Y7721176D01*
X-1989282Y7758978D01*
X-1997701Y7784557D01*
X-1245272Y7784557D01*
X-1233603Y7749005D01*
X-1200075Y7733603D01*
X-1176029Y7731984D01*
X-1160276Y7731984D01*
X-1160276Y7543490D01*
X-1160276Y7332464D01*
X-1176029Y7332464D01*
X-1215004Y7327180D01*
X-1242210Y7300728D01*
X-1245272Y7279891D01*
X-1232701Y7245452D01*
X-1195887Y7228850D01*
X-1176029Y7227500D01*
X-951265Y7227500D01*
X-914120Y7232526D01*
X-885911Y7257471D01*
X-882022Y7279891D01*
X-894223Y7315926D01*
X-928026Y7330969D01*
X-951265Y7332464D01*
X-1055129Y7332464D01*
X-1055129Y7438526D01*
X-952364Y7438526D01*
X-900089Y7441494D01*
X-855246Y7449903D01*
X-837291Y7456112D01*
X-585450Y7456112D01*
X-582364Y7419579D01*
X-569178Y7373594D01*
X-546575Y7331619D01*
X-515592Y7294632D01*
X-487480Y7270752D01*
X-455674Y7250639D01*
X-420612Y7234705D01*
X-382732Y7223361D01*
X-342471Y7217021D01*
X-314524Y7215777D01*
X-272876Y7218553D01*
X-233335Y7226607D01*
X-196334Y7239526D01*
X-162308Y7256899D01*
X-131692Y7278314D01*
X-130006Y7279891D01*
X65030Y7279891D01*
X77601Y7245452D01*
X114415Y7228850D01*
X134273Y7227500D01*
X495508Y7227500D01*
X532702Y7232526D01*
X561023Y7257471D01*
X564934Y7279891D01*
X552675Y7315926D01*
X518769Y7330969D01*
X495508Y7332464D01*
X367463Y7332464D01*
X367463Y7450800D01*
X664035Y7450800D01*
X666999Y7413975D01*
X679777Y7368199D01*
X701927Y7326945D01*
X732674Y7291000D01*
X771240Y7261153D01*
X804829Y7243242D01*
X842051Y7229536D01*
X882578Y7220368D01*
X926083Y7216070D01*
X941190Y7215777D01*
X983497Y7217139D01*
X1024900Y7220556D01*
X1069116Y7226511D01*
X1112540Y7235439D01*
X1151568Y7247772D01*
X1188681Y7268638D01*
X1206804Y7302788D01*
X1192264Y7338165D01*
X1156429Y7352248D01*
X1118643Y7346173D01*
X1081530Y7336494D01*
X1041337Y7328048D01*
X1000200Y7322807D01*
X961343Y7320831D01*
X950715Y7320740D01*
X910030Y7322713D01*
X868161Y7330370D01*
X833688Y7343934D01*
X802544Y7367417D01*
X780867Y7399369D01*
X778524Y7404638D01*
X1206804Y7404638D01*
X1206804Y7445670D01*
X1203822Y7485297D01*
X1195123Y7522551D01*
X1181318Y7556496D01*
X1922863Y7556496D01*
X1922863Y7488535D01*
X1926225Y7445658D01*
X1936043Y7405272D01*
X1951913Y7367756D01*
X1973433Y7333486D01*
X2000199Y7302838D01*
X2031810Y7276189D01*
X2067860Y7253916D01*
X2107948Y7236396D01*
X2151671Y7224006D01*
X2198626Y7217121D01*
X2231525Y7215777D01*
X2272121Y7217664D01*
X2309869Y7223013D01*
X2355336Y7234718D01*
X2394703Y7250626D01*
X2427376Y7269625D01*
X2457903Y7296022D01*
X2477879Y7328710D01*
X2480469Y7344371D01*
X2466587Y7378749D01*
X2433166Y7395573D01*
X2427896Y7395845D01*
X2392209Y7378426D01*
X2363883Y7354777D01*
X2327342Y7335221D01*
X2282688Y7323967D01*
X2234639Y7320740D01*
X2189568Y7323814D01*
X2149156Y7332796D01*
X2113818Y7347325D01*
X2077417Y7372736D01*
X2050409Y7405547D01*
X2033607Y7445053D01*
X2027826Y7490550D01*
X2027826Y7556496D01*
X2031373Y7595570D01*
X2041636Y7631343D01*
X2063052Y7670520D01*
X2092977Y7702470D01*
X2130310Y7726045D01*
X2173948Y7740096D01*
X2212657Y7743708D01*
X2252908Y7739854D01*
X2293395Y7729213D01*
X2326413Y7712554D01*
X2354404Y7681973D01*
X2360668Y7664573D01*
X2372254Y7629196D01*
X2404698Y7610539D01*
X2412142Y7610168D01*
X2447694Y7621895D01*
X2463097Y7655526D01*
X2464716Y7679594D01*
X2464716Y7767705D01*
X2462723Y7784741D01*
X2517655Y7784741D01*
X2528406Y7749626D01*
X2561619Y7731435D01*
X2561619Y7332464D01*
X2527636Y7317093D01*
X2517655Y7279891D01*
X2526849Y7243819D01*
X2562423Y7227650D01*
X2568030Y7227500D01*
X2713843Y7227500D01*
X2750026Y7235914D01*
X2771546Y7267384D01*
X2772645Y7279891D01*
X2758905Y7315271D01*
X2725416Y7331587D01*
X2713843Y7332464D01*
X2666766Y7332464D01*
X2666766Y7633249D01*
X2790597Y7371115D01*
X2886218Y7371115D01*
X3002722Y7634348D01*
X3002722Y7332464D01*
X2955461Y7332464D01*
X2919750Y7323392D01*
X2897803Y7291827D01*
X2896659Y7279891D01*
X2909323Y7243643D01*
X2944783Y7228043D01*
X2955461Y7227500D01*
X3102373Y7227500D01*
X3137736Y7241998D01*
X3147619Y7279891D01*
X3137283Y7317093D01*
X3107685Y7332464D01*
X3107685Y7632150D01*
X3160625Y7632150D01*
X3174650Y7596256D01*
X3208903Y7580150D01*
X3218327Y7579577D01*
X3246720Y7579577D01*
X3246720Y7392181D01*
X3250399Y7351731D01*
X3261000Y7316318D01*
X3282996Y7279304D01*
X3313523Y7250548D01*
X3351309Y7230262D01*
X3395086Y7218661D01*
X3433566Y7215777D01*
X3473090Y7218837D01*
X3511702Y7231178D01*
X3545326Y7252131D01*
X3577547Y7279707D01*
X3577547Y7227500D01*
X3677198Y7227500D01*
X3715346Y7232727D01*
X3743372Y7259070D01*
X3746624Y7279891D01*
X3841513Y7279891D01*
X3854083Y7245452D01*
X3890898Y7228850D01*
X3910755Y7227500D01*
X4271991Y7227500D01*
X4309185Y7232526D01*
X4337506Y7257471D01*
X4341417Y7279891D01*
X4329158Y7315926D01*
X4295251Y7330969D01*
X4271991Y7332464D01*
X4143946Y7332464D01*
X4143946Y7632150D01*
X4419452Y7632150D01*
X4431122Y7597081D01*
X4464650Y7581318D01*
X4488695Y7579577D01*
X4525515Y7579577D01*
X4525515Y7359575D01*
X4530863Y7320675D01*
X4546457Y7287099D01*
X4571622Y7259365D01*
X4605684Y7237995D01*
X4647966Y7223507D01*
X4687258Y7217222D01*
X4719688Y7215777D01*
X4762193Y7218349D01*
X4801087Y7224031D01*
X4841233Y7232832D01*
X4879776Y7244657D01*
X4913862Y7259413D01*
X4945851Y7281834D01*
X4961305Y7314329D01*
X4948419Y7349558D01*
X4913573Y7366651D01*
X4910930Y7366719D01*
X4874644Y7356055D01*
X4835984Y7339442D01*
X4795860Y7327924D01*
X4752280Y7321877D01*
X4720787Y7320740D01*
X4683611Y7322788D01*
X4646506Y7335303D01*
X4630854Y7368582D01*
X4630478Y7378992D01*
X4630478Y7579577D01*
X4820621Y7579577D01*
X4859596Y7585150D01*
X4886802Y7611721D01*
X4889864Y7632150D01*
X4878484Y7667702D01*
X4845107Y7683104D01*
X4820621Y7684723D01*
X4630478Y7684723D01*
X4630478Y7778512D01*
X4626177Y7816120D01*
X4601755Y7844872D01*
X4578088Y7848854D01*
X4542053Y7836403D01*
X4527010Y7802032D01*
X4525515Y7778512D01*
X4525515Y7684723D01*
X4488695Y7684723D01*
X4451632Y7680372D01*
X4423361Y7655839D01*
X4419452Y7632150D01*
X4143946Y7632150D01*
X4143946Y7883476D01*
X3956917Y7883476D01*
X3919554Y7879380D01*
X3890619Y7855032D01*
X3886575Y7830902D01*
X3898592Y7795408D01*
X3932737Y7780109D01*
X3956917Y7778512D01*
X4038983Y7778512D01*
X4038983Y7332464D01*
X3910755Y7332464D01*
X3873692Y7328112D01*
X3845422Y7303580D01*
X3841513Y7279891D01*
X3746624Y7279891D01*
X3733800Y7315271D01*
X3700410Y7331097D01*
X3682511Y7332464D01*
X3682511Y7684723D01*
X3540728Y7684723D01*
X3501753Y7679439D01*
X3474547Y7652987D01*
X3471485Y7632150D01*
X3486460Y7596040D01*
X3522711Y7580761D01*
X3540728Y7579577D01*
X3577547Y7579577D01*
X3577547Y7391082D01*
X3549459Y7363436D01*
X3517558Y7338813D01*
X3483428Y7324586D01*
X3444191Y7320740D01*
X3407607Y7324191D01*
X3371539Y7341370D01*
X3353859Y7373471D01*
X3351684Y7395295D01*
X3351684Y7684723D01*
X3229867Y7684723D01*
X3192804Y7680372D01*
X3164534Y7655839D01*
X3160625Y7632150D01*
X3107685Y7632150D01*
X3107685Y7732534D01*
X3138535Y7752670D01*
X3147619Y7784741D01*
X3138412Y7821599D01*
X3102631Y7836834D01*
X3093030Y7837131D01*
X2977442Y7837131D01*
X2835659Y7525721D01*
X2690762Y7837131D01*
X2572244Y7837131D01*
X2536744Y7827929D01*
X2518373Y7795514D01*
X2517655Y7784741D01*
X2462723Y7784741D01*
X2460364Y7804899D01*
X2435831Y7833220D01*
X2412142Y7837131D01*
X2376919Y7822509D01*
X2367996Y7811852D01*
X2357554Y7816065D01*
X2322280Y7829844D01*
X2286195Y7840594D01*
X2246657Y7847157D01*
X2208444Y7848854D01*
X2164022Y7845563D01*
X2122025Y7835986D01*
X2082877Y7820573D01*
X2047003Y7799772D01*
X2014827Y7774031D01*
X1986775Y7743798D01*
X1963270Y7709522D01*
X1944739Y7671651D01*
X1931605Y7630634D01*
X1924293Y7586917D01*
X1922863Y7556496D01*
X1181318Y7556496D01*
X1181072Y7557101D01*
X1162040Y7588613D01*
X1138392Y7616753D01*
X1110496Y7641189D01*
X1078721Y7661587D01*
X1043434Y7677613D01*
X1005003Y7688936D01*
X963795Y7695220D01*
X934962Y7696447D01*
X892849Y7693684D01*
X853024Y7685644D01*
X815893Y7672704D01*
X781860Y7655237D01*
X751330Y7633619D01*
X724708Y7608224D01*
X695990Y7569138D01*
X675899Y7524894D01*
X669099Y7497145D01*
X667069Y7488860D01*
X664035Y7450800D01*
X367463Y7450800D01*
X367463Y7883476D01*
X180434Y7883476D01*
X143071Y7879380D01*
X114136Y7855032D01*
X110093Y7830902D01*
X122110Y7795408D01*
X156254Y7780109D01*
X180434Y7778512D01*
X262500Y7778512D01*
X262500Y7332464D01*
X134273Y7332464D01*
X97209Y7328112D01*
X68939Y7303580D01*
X65030Y7279891D01*
X-130006Y7279891D01*
X-104921Y7303358D01*
X-75958Y7341684D01*
X-55634Y7384752D01*
X-44978Y7431587D01*
X-43597Y7456112D01*
X-49027Y7504096D01*
X-64603Y7548997D01*
X-89260Y7589793D01*
X-121931Y7625464D01*
X-151050Y7648238D01*
X-183628Y7667122D01*
X-219212Y7681687D01*
X-257354Y7691499D01*
X-297603Y7696130D01*
X-311410Y7696447D01*
X-354065Y7693714D01*
X-394383Y7685774D01*
X-431957Y7673010D01*
X-466382Y7655807D01*
X-497252Y7634551D01*
X-524161Y7609626D01*
X-553179Y7571352D01*
X-573472Y7528152D01*
X-584079Y7480938D01*
X-585450Y7456112D01*
X-837291Y7456112D01*
X-817333Y7463014D01*
X-776700Y7486526D01*
X-746316Y7515322D01*
X-724995Y7547646D01*
X-711552Y7581742D01*
X-704022Y7624179D01*
X-703419Y7640393D01*
X-707741Y7681770D01*
X-720272Y7719511D01*
X-740359Y7753035D01*
X-767350Y7781764D01*
X-800592Y7805117D01*
X-839432Y7822516D01*
X-883218Y7833380D01*
X-931298Y7837131D01*
X-1176029Y7837131D01*
X-1213092Y7832779D01*
X-1241363Y7808246D01*
X-1245272Y7784557D01*
X-1997701Y7784557D01*
X-2000815Y7794017D01*
X-2019437Y7825591D01*
X-2044656Y7852999D01*
X-2075980Y7875538D01*
X-2112917Y7892506D01*
X-2154976Y7903202D01*
X-2201666Y7906923D01*
X-2243202Y7904410D01*
X-2282841Y7897263D01*
X-2319463Y7886067D01*
X-2359286Y7867272D01*
X-2390445Y7844210D01*
X-2413314Y7812518D01*
X-2418004Y7789870D01*
X-2404620Y7753582D01*
X-2371787Y7735754D01*
X-2366530Y7735465D01*
X-2330084Y7750887D01*
X-2301457Y7777953D01*
X-2263091Y7795823D01*
X-2218912Y7801769D01*
X-2207894Y7801960D01*
X-2170172Y7798698D01*
X-2134348Y7787092D01*
X-2102994Y7761012D01*
X-2090423Y7723895D01*
X-2090291Y7719161D01*
X-2099948Y7682600D01*
X-2125643Y7653292D01*
X-2162461Y7635885D01*
X-2185912Y7633066D01*
X-2227861Y7633066D01*
X-2263149Y7621504D01*
X-2281853Y7588816D01*
X-2282449Y7580492D01*
X-2268207Y7546512D01*
X-2231080Y7532550D01*
X-2227861Y7532316D01*
X-2190822Y7528556D01*
X-2151134Y7519171D01*
X-2113398Y7501725D01*
X-2083329Y7473993D01*
X-2068673Y7439683D01*
X-2067210Y7423322D01*
X-2074274Y7385082D01*
X-2098956Y7352995D01*
X-2132431Y7334996D01*
X-2175641Y7324629D01*
X-2217967Y7321041D01*
X-2236287Y7320740D01*
X-2279696Y7322314D01*
X-2318798Y7327804D01*
X-2356135Y7340774D01*
X-2389946Y7356965D01*
X-2396022Y7357377D01*
X-2431397Y7343898D01*
X-2448146Y7310405D01*
X-2448412Y7304987D01*
X-3241747Y7304987D01*
X-3245094Y7315443D01*
X-3278471Y7330845D01*
X-3302957Y7332464D01*
X-3409020Y7332464D01*
X-3409020Y7731984D01*
X-3302957Y7731984D01*
X-3263982Y7737268D01*
X-3236776Y7763720D01*
X-3233714Y7784557D01*
X-3245094Y7820109D01*
X-3278471Y7835512D01*
X-3302957Y7837131D01*
X-3620045Y7837131D01*
X-3657240Y7832779D01*
X-3685560Y7808246D01*
X-3689471Y7784557D01*
X-3915063Y7784557D01*
X-3933609Y7798441D01*
X-3971062Y7818870D01*
X-4007508Y7833270D01*
X-4051114Y7844572D01*
X-4091007Y7848854D01*
X-4135609Y7845171D01*
X-4178102Y7834495D01*
X-4217986Y7817387D01*
X-4254766Y7794411D01*
X-4287944Y7766125D01*
X-4317023Y7733094D01*
X-4341505Y7695877D01*
X-4360894Y7655036D01*
X-4374692Y7611133D01*
X-4382402Y7564730D01*
X-4383915Y7532682D01*
X-4638538Y7532682D01*
X-4638538Y7591300D01*
X-4643564Y7628664D01*
X-4668509Y7657598D01*
X-4690928Y7661642D01*
X-4726132Y7649335D01*
X-4740918Y7615040D01*
X-4742402Y7591300D01*
X-4742402Y7589285D01*
X-4831612Y7589285D01*
X-4831612Y7731984D01*
X-4585965Y7731984D01*
X-4585965Y7681426D01*
X-4581869Y7644050D01*
X-4557521Y7613644D01*
X-4533391Y7609252D01*
X-4497897Y7620979D01*
X-4482598Y7654974D01*
X-4481001Y7679594D01*
X-4481001Y7837131D01*
X-4952512Y7837131D01*
X-4989575Y7832779D01*
X-5017846Y7808246D01*
X-5021755Y7784557D01*
X-5105088Y7784557D01*
X-5105088Y7990256D01*
X5044638Y7990256D01*
X5044638Y7132444D01*
G37*
D14*
X-8763221Y1311134D02*
X-8001316Y1311134D01*
X-8382269Y930181D02*
X-8382269Y1692086D01*
D15*
G36*
X7504714Y7085030D02*
G01*
X7561125Y7028619D01*
X7596615Y6886659D01*
X7596615Y6584104D01*
X7561125Y6442145D01*
X7504711Y6385731D01*
X7454012Y6360381D01*
X7322553Y6360381D01*
X7271852Y6385732D01*
X7215438Y6442145D01*
X7179949Y6584104D01*
X7179949Y6886659D01*
X7215439Y7028619D01*
X7271849Y7085030D01*
X7322553Y7110381D01*
X7454012Y7110381D01*
X7504714Y7085030D01*
G37*
G36*
X9873975Y5985381D02*
G01*
X6804949Y5985381D01*
X6804949Y6902048D01*
X6929949Y6902048D01*
X6929949Y6568715D01*
X6930368Y6564461D01*
X6930097Y6562639D01*
X6931446Y6553511D01*
X6932351Y6544329D01*
X6933055Y6542628D01*
X6933681Y6538398D01*
X6981300Y6347922D01*
X6989545Y6324847D01*
X6995077Y6317381D01*
X6998634Y6308793D01*
X7014179Y6289851D01*
X7109417Y6194612D01*
X7119005Y6186743D01*
X7121167Y6184251D01*
X7124924Y6181886D01*
X7128359Y6179067D01*
X7131409Y6177804D01*
X7141904Y6171197D01*
X7237142Y6123578D01*
X7260028Y6114820D01*
X7264508Y6114502D01*
X7268658Y6112783D01*
X7293044Y6110381D01*
X7483520Y6110381D01*
X7507906Y6112783D01*
X7512054Y6114502D01*
X7516536Y6114820D01*
X7539422Y6123578D01*
X7634659Y6171196D01*
X7645155Y6177804D01*
X7648205Y6179067D01*
X7651639Y6181886D01*
X7655397Y6184251D01*
X7657558Y6186743D01*
X7667147Y6194612D01*
X7762385Y6289851D01*
X7777930Y6308793D01*
X7781487Y6317382D01*
X7787019Y6324847D01*
X7795264Y6347922D01*
X7842883Y6538398D01*
X7843508Y6542628D01*
X7844213Y6544329D01*
X7845117Y6553509D01*
X7846467Y6562638D01*
X7846195Y6564461D01*
X7846615Y6568715D01*
X7846615Y6902048D01*
X7846195Y6906303D01*
X7846467Y6908125D01*
X7845117Y6917255D01*
X7844213Y6926434D01*
X7843508Y6928136D01*
X7842883Y6932365D01*
X7795264Y7122841D01*
X7787019Y7145916D01*
X7781485Y7153385D01*
X7777929Y7161970D01*
X7762384Y7180912D01*
X7707915Y7235381D01*
X8025187Y7235381D01*
X8025187Y6425858D01*
X8027589Y6401472D01*
X8029307Y6397324D01*
X8029626Y6392842D01*
X8038384Y6369956D01*
X8086002Y6274719D01*
X8092609Y6264223D01*
X8093872Y6261175D01*
X8096689Y6257742D01*
X8099057Y6253981D01*
X8101551Y6251818D01*
X8109417Y6242233D01*
X8157036Y6194613D01*
X8166624Y6186744D01*
X8168786Y6184251D01*
X8172540Y6181888D01*
X8175977Y6179067D01*
X8179030Y6177803D01*
X8189523Y6171197D01*
X8284761Y6123578D01*
X8307647Y6114820D01*
X8312127Y6114502D01*
X8316277Y6112783D01*
X8340663Y6110381D01*
X8531139Y6110381D01*
X8555525Y6112783D01*
X8559673Y6114502D01*
X8564155Y6114820D01*
X8587041Y6123578D01*
X8682278Y6171196D01*
X8692774Y6177804D01*
X8695824Y6179067D01*
X8699257Y6181886D01*
X8703016Y6184251D01*
X8705178Y6186745D01*
X8714766Y6194613D01*
X8762385Y6242232D01*
X8770252Y6251820D01*
X8772745Y6253981D01*
X8775111Y6257741D01*
X8777930Y6261175D01*
X8779192Y6264224D01*
X8785799Y6274718D01*
X8833418Y6369956D01*
X8842176Y6392842D01*
X8842494Y6397323D01*
X8844213Y6401472D01*
X8846615Y6425858D01*
X8846615Y7235381D01*
X8844213Y7259767D01*
X8932351Y7259767D01*
X8932351Y7210995D01*
X8951015Y7165935D01*
X8985503Y7131447D01*
X9030563Y7112783D01*
X9054949Y7110381D01*
X9215663Y7110381D01*
X9215663Y6235381D01*
X9218065Y6210995D01*
X9236729Y6165935D01*
X9271217Y6131447D01*
X9316277Y6112783D01*
X9365049Y6112783D01*
X9410109Y6131447D01*
X9444597Y6165935D01*
X9463261Y6210995D01*
X9465663Y6235381D01*
X9465663Y7110381D01*
X9626377Y7110381D01*
X9650763Y7112783D01*
X9695823Y7131447D01*
X9730311Y7165935D01*
X9748975Y7210995D01*
X9748975Y7259767D01*
X9730311Y7304827D01*
X9695823Y7339315D01*
X9650763Y7357979D01*
X9626377Y7360381D01*
X9054949Y7360381D01*
X9030563Y7357979D01*
X8985503Y7339315D01*
X8951015Y7304827D01*
X8932351Y7259767D01*
X8844213Y7259767D01*
X8825549Y7304827D01*
X8791061Y7339315D01*
X8746001Y7357979D01*
X8697229Y7357979D01*
X8652169Y7339315D01*
X8617681Y7304827D01*
X8599017Y7259767D01*
X8596615Y7235381D01*
X8596615Y6455367D01*
X8571263Y6404664D01*
X8552332Y6385732D01*
X8501631Y6360381D01*
X8370172Y6360381D01*
X8319470Y6385732D01*
X8300538Y6404664D01*
X8275187Y6455366D01*
X8275187Y7235381D01*
X8272785Y7259767D01*
X8254121Y7304827D01*
X8219633Y7339315D01*
X8174573Y7357979D01*
X8125801Y7357979D01*
X8080741Y7339315D01*
X8046253Y7304827D01*
X8027589Y7259767D01*
X8025187Y7235381D01*
X7707915Y7235381D01*
X7667146Y7276150D01*
X7657560Y7284017D01*
X7655397Y7286511D01*
X7651635Y7288880D01*
X7648204Y7291695D01*
X7645157Y7292957D01*
X7634659Y7299566D01*
X7539422Y7347184D01*
X7516536Y7355942D01*
X7512054Y7356261D01*
X7507906Y7357979D01*
X7483520Y7360381D01*
X7293044Y7360381D01*
X7268658Y7357979D01*
X7264508Y7356261D01*
X7260028Y7355942D01*
X7237142Y7347184D01*
X7141904Y7299565D01*
X7131407Y7292958D01*
X7128360Y7291695D01*
X7124928Y7288879D01*
X7121167Y7286511D01*
X7119003Y7284017D01*
X7109418Y7276150D01*
X7014180Y7180912D01*
X6998635Y7161970D01*
X6995078Y7153385D01*
X6989545Y7145916D01*
X6981300Y7122841D01*
X6933681Y6932365D01*
X6933055Y6928136D01*
X6932351Y6926434D01*
X6931446Y6917253D01*
X6930097Y6908124D01*
X6930368Y6906303D01*
X6929949Y6902048D01*
X6804949Y6902048D01*
X6804949Y7485381D01*
X9873975Y7485381D01*
X9873975Y5985381D01*
G37*
D14*
X-8763221Y-3988866D02*
X-8001316Y-3988866D01*
X8836779Y-88866D02*
X9598684Y-88866D01*
X9217731Y-469819D02*
X9217731Y292086D01*
D15*
G36*
X-7599814Y-764314D02*
G01*
X-9147432Y-764314D01*
X-9147432Y485381D01*
X-9022432Y485381D01*
X-9022432Y-514619D01*
X-9020030Y-539005D01*
X-9001366Y-584065D01*
X-8966878Y-618553D01*
X-8921818Y-637217D01*
X-8873046Y-637217D01*
X-8827986Y-618553D01*
X-8793498Y-584065D01*
X-8774834Y-539005D01*
X-8772432Y-514619D01*
X-8772432Y485381D01*
X-8546242Y485381D01*
X-8546242Y-514619D01*
X-8543840Y-539005D01*
X-8525176Y-584065D01*
X-8490688Y-618553D01*
X-8445628Y-637217D01*
X-8396856Y-637217D01*
X-8351796Y-618553D01*
X-8317308Y-584065D01*
X-8298644Y-539005D01*
X-8296242Y-514619D01*
X-8296242Y14687D01*
X-7958344Y-576636D01*
X-7954698Y-581773D01*
X-7953748Y-584065D01*
X-7951414Y-586399D01*
X-7944160Y-596618D01*
X-7931016Y-606797D01*
X-7919260Y-618553D01*
X-7911900Y-621601D01*
X-7905599Y-626481D01*
X-7889558Y-630855D01*
X-7874200Y-637217D01*
X-7866233Y-637217D01*
X-7858544Y-639314D01*
X-7842049Y-637217D01*
X-7825428Y-637217D01*
X-7818068Y-634168D01*
X-7810161Y-633163D01*
X-7795727Y-624914D01*
X-7780368Y-618553D01*
X-7774734Y-612918D01*
X-7767815Y-608965D01*
X-7757636Y-595820D01*
X-7745880Y-584065D01*
X-7742832Y-576704D01*
X-7737952Y-570404D01*
X-7733577Y-554361D01*
X-7727216Y-539005D01*
X-7725988Y-526535D01*
X-7725119Y-523350D01*
X-7725432Y-520890D01*
X-7724814Y-514619D01*
X-7724814Y485381D01*
X-7727216Y509767D01*
X-7745880Y554827D01*
X-7780368Y589315D01*
X-7825428Y607979D01*
X-7874200Y607979D01*
X-7919260Y589315D01*
X-7953748Y554827D01*
X-7972412Y509767D01*
X-7974814Y485381D01*
X-7974814Y-43923D01*
X-8312712Y547398D01*
X-8316359Y552536D01*
X-8317308Y554827D01*
X-8319643Y557162D01*
X-8326896Y567380D01*
X-8340041Y577560D01*
X-8351796Y589315D01*
X-8359157Y592364D01*
X-8365457Y597243D01*
X-8381499Y601618D01*
X-8396856Y607979D01*
X-8404823Y607979D01*
X-8412512Y610076D01*
X-8429007Y607979D01*
X-8445628Y607979D01*
X-8452989Y604931D01*
X-8460895Y603925D01*
X-8475330Y595677D01*
X-8490688Y589315D01*
X-8496323Y583681D01*
X-8503241Y579727D01*
X-8513421Y566583D01*
X-8525176Y554827D01*
X-8528225Y547467D01*
X-8533104Y541166D01*
X-8537479Y525125D01*
X-8543840Y509767D01*
X-8545069Y497296D01*
X-8545937Y494111D01*
X-8545625Y491652D01*
X-8546242Y485381D01*
X-8772432Y485381D01*
X-8774834Y509767D01*
X-8793498Y554827D01*
X-8827986Y589315D01*
X-8873046Y607979D01*
X-8921818Y607979D01*
X-8966878Y589315D01*
X-9001366Y554827D01*
X-9020030Y509767D01*
X-9022432Y485381D01*
X-9147432Y485381D01*
X-9147432Y735076D01*
X-7599814Y735076D01*
X-7599814Y-764314D01*
G37*
D14*
X8836779Y-5088866D02*
X9598684Y-5088866D01*
D16*
%TO.C,R2*%
X3246359Y4930000D02*
X3553641Y4930000D01*
X3246359Y4170000D02*
X3553641Y4170000D01*
%TO.C,R7*%
X3320000Y-6653641D02*
X3320000Y-6346359D01*
X4080000Y-6653641D02*
X4080000Y-6346359D01*
%TO.C,R4*%
X1146359Y4930000D02*
X1453641Y4930000D01*
X1146359Y4170000D02*
X1453641Y4170000D01*
%TO.C,R3*%
X-953641Y4930000D02*
X-646359Y4930000D01*
X-953641Y4170000D02*
X-646359Y4170000D01*
%TO.C,C14*%
X940000Y-4688748D02*
X940000Y-6111252D01*
X2760000Y-4688748D02*
X2760000Y-6111252D01*
%TO.C,C11*%
X5938748Y-5540000D02*
X7361252Y-5540000D01*
X5938748Y-7360000D02*
X7361252Y-7360000D01*
%TO.C,R8*%
X-2480000Y-3896359D02*
X-2480000Y-4203641D01*
X-1720000Y-3896359D02*
X-1720000Y-4203641D01*
%TO.C,C3*%
X5963748Y4760000D02*
X7386252Y4760000D01*
X5963748Y2940000D02*
X7386252Y2940000D01*
%TO.C,Q3*%
X-1925000Y160000D02*
X-2575000Y160000D01*
X-1925000Y160000D02*
X-1275000Y160000D01*
X-1925000Y-2960000D02*
X-2575000Y-2960000D01*
X-1925000Y-2960000D02*
X-1275000Y-2960000D01*
X-522500Y-3240000D02*
X-1002500Y-3240000D01*
X-762500Y-2910000D01*
X-522500Y-3240000D01*
G36*
X-522500Y-3240000D02*
G01*
X-1002500Y-3240000D01*
X-762500Y-2910000D01*
X-522500Y-3240000D01*
G37*
%TO.C,Q1*%
X-1925000Y3860000D02*
X-2575000Y3860000D01*
X-1925000Y3860000D02*
X-1275000Y3860000D01*
X-1925000Y740000D02*
X-2575000Y740000D01*
X-1925000Y740000D02*
X-1275000Y740000D01*
X-522500Y460000D02*
X-1002500Y460000D01*
X-762500Y790000D01*
X-522500Y460000D01*
G36*
X-522500Y460000D02*
G01*
X-1002500Y460000D01*
X-762500Y790000D01*
X-522500Y460000D01*
G37*
%TO.C,R5*%
X8303641Y5880000D02*
X7996359Y5880000D01*
X8303641Y5120000D02*
X7996359Y5120000D01*
%TO.C,R10*%
X3320000Y-4096359D02*
X3320000Y-4403641D01*
X4080000Y-4096359D02*
X4080000Y-4403641D01*
%TO.C,R9*%
X-2480000Y-5796359D02*
X-2480000Y-6103641D01*
X-1720000Y-5796359D02*
X-1720000Y-6103641D01*
%TO.C,C5*%
X-5438748Y3760000D02*
X-6861252Y3760000D01*
X-5438748Y1940000D02*
X-6861252Y1940000D01*
%TO.C,Q4*%
X2000000Y160000D02*
X1350000Y160000D01*
X2000000Y160000D02*
X2650000Y160000D01*
X2000000Y-2960000D02*
X1350000Y-2960000D01*
X2000000Y-2960000D02*
X2650000Y-2960000D01*
X3402500Y-3240000D02*
X2922500Y-3240000D01*
X3162500Y-2910000D01*
X3402500Y-3240000D01*
G36*
X3402500Y-3240000D02*
G01*
X2922500Y-3240000D01*
X3162500Y-2910000D01*
X3402500Y-3240000D01*
G37*
%TO.C,C12*%
X-5438748Y-1940000D02*
X-6861252Y-1940000D01*
X-5438748Y-3760000D02*
X-6861252Y-3760000D01*
%TO.C,D3*%
X6700000Y260000D02*
X6050000Y260000D01*
X6700000Y260000D02*
X7350000Y260000D01*
X6700000Y-2860000D02*
X6050000Y-2860000D01*
X6700000Y-2860000D02*
X7350000Y-2860000D01*
X8102500Y-3140000D02*
X7622500Y-3140000D01*
X7862500Y-2810000D01*
X8102500Y-3140000D01*
G36*
X8102500Y-3140000D02*
G01*
X7622500Y-3140000D01*
X7862500Y-2810000D01*
X8102500Y-3140000D01*
G37*
%TO.C,Q2*%
X2000000Y3860000D02*
X1350000Y3860000D01*
X2000000Y3860000D02*
X2650000Y3860000D01*
X2000000Y740000D02*
X1350000Y740000D01*
X2000000Y740000D02*
X2650000Y740000D01*
X3402500Y460000D02*
X2922500Y460000D01*
X3162500Y790000D01*
X3402500Y460000D01*
G36*
X3402500Y460000D02*
G01*
X2922500Y460000D01*
X3162500Y790000D01*
X3402500Y460000D01*
G37*
%TO.C,C4*%
X7386252Y2460000D02*
X5963748Y2460000D01*
X7386252Y640000D02*
X5963748Y640000D01*
%TO.C,D1*%
X-2640000Y4800000D02*
X-2640000Y7000000D01*
%TO.C,C13*%
X-1370000Y-4688748D02*
X-1370000Y-6111252D01*
X450000Y-4688748D02*
X450000Y-6111252D01*
%TO.C,D4*%
X-9705000Y-4800000D02*
X-9705000Y-7000000D01*
%TO.C,D2*%
X-5850000Y1560000D02*
X-6500000Y1560000D01*
X-5850000Y1560000D02*
X-5200000Y1560000D01*
X-5850000Y-1560000D02*
X-6500000Y-1560000D01*
X-5850000Y-1560000D02*
X-5200000Y-1560000D01*
X-4447500Y-1840000D02*
X-4927500Y-1840000D01*
X-4687500Y-1510000D01*
X-4447500Y-1840000D01*
G36*
X-4447500Y-1840000D02*
G01*
X-4927500Y-1840000D01*
X-4687500Y-1510000D01*
X-4447500Y-1840000D01*
G37*
%TO.C,C10*%
X7361252Y-3240000D02*
X5938748Y-3240000D01*
X7361252Y-5060000D02*
X5938748Y-5060000D01*
%TD*%
M02*
