%TF.GenerationSoftware,KiCad,Pcbnew,8.0.9-8.0.9-0~ubuntu24.04.1*%
%TF.CreationDate,2025-07-21T09:14:06-04:00*%
%TF.ProjectId,cap_multiplier_tile,6361705f-6d75-46c7-9469-706c6965725f,0.1.X*%
%TF.SameCoordinates,Original*%
%TF.FileFunction,Soldermask,Top*%
%TF.FilePolarity,Negative*%
%FSLAX46Y46*%
G04 Gerber Fmt 4.6, Leading zero omitted, Abs format (unit mm)*
G04 Created by KiCad (PCBNEW 8.0.9-8.0.9-0~ubuntu24.04.1) date 2025-07-21 09:14:06*
%MOMM*%
%LPD*%
G01*
G04 APERTURE LIST*
G04 Aperture macros list*
%AMRoundRect*
0 Rectangle with rounded corners*
0 $1 Rounding radius*
0 $2 $3 $4 $5 $6 $7 $8 $9 X,Y pos of 4 corners*
0 Add a 4 corners polygon primitive as box body*
4,1,4,$2,$3,$4,$5,$6,$7,$8,$9,$2,$3,0*
0 Add four circle primitives for the rounded corners*
1,1,$1+$1,$2,$3*
1,1,$1+$1,$4,$5*
1,1,$1+$1,$6,$7*
1,1,$1+$1,$8,$9*
0 Add four rect primitives between the rounded corners*
20,1,$1+$1,$2,$3,$4,$5,0*
20,1,$1+$1,$4,$5,$6,$7,0*
20,1,$1+$1,$6,$7,$8,$9,0*
20,1,$1+$1,$8,$9,$2,$3,0*%
G04 Aperture macros list end*
%ADD10RoundRect,0.135000X-0.135000X-0.185000X0.135000X-0.185000X0.135000X0.185000X-0.135000X0.185000X0*%
%ADD11RoundRect,0.135000X0.185000X-0.135000X0.185000X0.135000X-0.185000X0.135000X-0.185000X-0.135000X0*%
%ADD12RoundRect,0.250000X-0.325000X-0.650000X0.325000X-0.650000X0.325000X0.650000X-0.325000X0.650000X0*%
%ADD13RoundRect,0.250000X-0.650000X0.325000X-0.650000X-0.325000X0.650000X-0.325000X0.650000X0.325000X0*%
%ADD14RoundRect,0.135000X-0.185000X0.135000X-0.185000X-0.135000X0.185000X-0.135000X0.185000X0.135000X0*%
%ADD15RoundRect,0.250000X0.325000X0.650000X-0.325000X0.650000X-0.325000X-0.650000X0.325000X-0.650000X0*%
%ADD16RoundRect,0.150000X0.587500X0.150000X-0.587500X0.150000X-0.587500X-0.150000X0.587500X-0.150000X0*%
%ADD17RoundRect,0.135000X0.135000X0.185000X-0.135000X0.185000X-0.135000X-0.185000X0.135000X-0.185000X0*%
%ADD18R,1.900000X1.900000*%
%ADD19C,1.900000*%
%ADD20RoundRect,0.250000X1.000000X0.650000X-1.000000X0.650000X-1.000000X-0.650000X1.000000X-0.650000X0*%
%ADD21RoundRect,0.250000X-1.000000X-0.650000X1.000000X-0.650000X1.000000X0.650000X-1.000000X0.650000X0*%
G04 APERTURE END LIST*
D10*
%TO.C,R2*%
X2890000Y4550000D03*
X3910000Y4550000D03*
%TD*%
D11*
%TO.C,R7*%
X3700000Y-7010000D03*
X3700000Y-5990000D03*
%TD*%
D10*
%TO.C,R4*%
X790000Y4550000D03*
X1810000Y4550000D03*
%TD*%
D12*
%TO.C,C7*%
X3200000Y6200000D03*
X6150000Y6200000D03*
%TD*%
D10*
%TO.C,R3*%
X-1310000Y4550000D03*
X-290000Y4550000D03*
%TD*%
D13*
%TO.C,C14*%
X1850000Y-3925000D03*
X1850000Y-6875000D03*
%TD*%
D12*
%TO.C,C11*%
X5175000Y-6450000D03*
X8125000Y-6450000D03*
%TD*%
D14*
%TO.C,R8*%
X-2100000Y-3540000D03*
X-2100000Y-4560000D03*
%TD*%
D15*
%TO.C,C6*%
X1525000Y6200000D03*
X-1425000Y6200000D03*
%TD*%
D12*
%TO.C,C3*%
X5200000Y3850000D03*
X8150000Y3850000D03*
%TD*%
D16*
%TO.C,Q3*%
X-987500Y-2350000D03*
X-987500Y-450000D03*
X-2862500Y-1400000D03*
%TD*%
%TO.C,Q1*%
X-987500Y1350000D03*
X-987500Y3250000D03*
X-2862500Y2300000D03*
%TD*%
D17*
%TO.C,R5*%
X8660000Y5500000D03*
X7640000Y5500000D03*
%TD*%
D14*
%TO.C,R10*%
X3700000Y-3740000D03*
X3700000Y-4760000D03*
%TD*%
%TO.C,R9*%
X-2100000Y-5440000D03*
X-2100000Y-6460000D03*
%TD*%
D15*
%TO.C,C5*%
X-4675000Y2850000D03*
X-7625000Y2850000D03*
%TD*%
D16*
%TO.C,Q4*%
X2937500Y-2350000D03*
X2937500Y-450000D03*
X1062500Y-1400000D03*
%TD*%
D15*
%TO.C,C12*%
X-4675000Y-2850000D03*
X-7625000Y-2850000D03*
%TD*%
D18*
%TO.C,J1*%
X-10000000Y3810000D03*
D19*
X-10000000Y1270000D03*
X-10000000Y-1270000D03*
X-10000000Y-3810000D03*
X10000000Y-3810000D03*
X10000000Y-1270000D03*
X10000000Y1270000D03*
X10000000Y3810000D03*
%TD*%
D16*
%TO.C,D3*%
X7637500Y-2250000D03*
X7637500Y-350000D03*
X5762500Y-1300000D03*
%TD*%
%TO.C,Q2*%
X2937500Y1350000D03*
X2937500Y3250000D03*
X1062500Y2300000D03*
%TD*%
D15*
%TO.C,C4*%
X8150000Y1550000D03*
X5200000Y1550000D03*
%TD*%
D20*
%TO.C,D1*%
X-4150000Y5900000D03*
X-8150000Y5900000D03*
%TD*%
D13*
%TO.C,C13*%
X-460000Y-3925000D03*
X-460000Y-6875000D03*
%TD*%
D21*
%TO.C,D4*%
X-8195000Y-5900000D03*
X-4195000Y-5900000D03*
%TD*%
D16*
%TO.C,D2*%
X-4912500Y-950000D03*
X-4912500Y950000D03*
X-6787500Y0D03*
%TD*%
D15*
%TO.C,C10*%
X8125000Y-4150000D03*
X5175000Y-4150000D03*
%TD*%
M02*
