%TF.GenerationSoftware,KiCad,Pcbnew,8.0.9-8.0.9-0~ubuntu24.04.1*%
%TF.CreationDate,2025-07-21T09:14:06-04:00*%
%TF.ProjectId,cap_multiplier_tile,6361705f-6d75-46c7-9469-706c6965725f,0.1.X*%
%TF.SameCoordinates,Original*%
%TF.FileFunction,Copper,L2,Bot*%
%TF.FilePolarity,Positive*%
%FSLAX46Y46*%
G04 Gerber Fmt 4.6, Leading zero omitted, Abs format (unit mm)*
G04 Created by KiCad (PCBNEW 8.0.9-8.0.9-0~ubuntu24.04.1) date 2025-07-21 09:14:06*
%MOMM*%
%LPD*%
G01*
G04 APERTURE LIST*
%TA.AperFunction,CastellatedPad*%
%ADD10R,1.900000X1.900000*%
%TD*%
%TA.AperFunction,CastellatedPad*%
%ADD11C,1.900000*%
%TD*%
%TA.AperFunction,TestPad*%
%ADD12C,1.000000*%
%TD*%
%TA.AperFunction,ViaPad*%
%ADD13C,0.600000*%
%TD*%
%TA.AperFunction,Conductor*%
%ADD14C,0.203200*%
%TD*%
%TA.AperFunction,Conductor*%
%ADD15C,0.200000*%
%TD*%
%TA.AperFunction,Conductor*%
%ADD16C,0.500000*%
%TD*%
G04 APERTURE END LIST*
D10*
%TO.P,J1,1,GND*%
%TO.N,GND*%
X-10000000Y3810000D03*
D11*
%TO.P,J1,2,V+IN*%
%TO.N,/V+IN*%
X-10000000Y1270000D03*
%TO.P,J1,3,GND*%
%TO.N,GND*%
X-10000000Y-1270000D03*
%TO.P,J1,4,V-IN*%
%TO.N,/V-IN*%
X-10000000Y-3810000D03*
%TO.P,J1,5,V-OUT*%
%TO.N,/V-OUT*%
X10000000Y-3810000D03*
%TO.P,J1,6,GND*%
%TO.N,GND*%
X10000000Y-1270000D03*
%TO.P,J1,7,V+OUT*%
%TO.N,/V+OUT*%
X10000000Y1270000D03*
%TO.P,J1,8,GND*%
%TO.N,GND*%
X10000000Y3810000D03*
%TD*%
D12*
%TO.P,TP4,1,1*%
%TO.N,GND*%
X-8700000Y3800000D03*
%TD*%
%TO.P,TP6,1,1*%
%TO.N,GND*%
X8600000Y3800000D03*
%TD*%
%TO.P,TP2,1,1*%
%TO.N,/V-OUT*%
X8650000Y-3800000D03*
%TD*%
%TO.P,TP3,1,1*%
%TO.N,GND*%
X8650000Y-1350000D03*
%TD*%
%TO.P,TP1,1,1*%
%TO.N,/V+OUT*%
X8650000Y1300000D03*
%TD*%
%TO.P,TP5,1,1*%
%TO.N,GND*%
X-8700000Y-1300000D03*
%TD*%
%TO.P,TP7,1,1*%
%TO.N,/V+IN*%
X-8700000Y1400000D03*
%TD*%
%TO.P,TP8,1,1*%
%TO.N,/V-IN*%
X-8700000Y-3800000D03*
%TD*%
D13*
%TO.N,GND*%
X-9100000Y-2500000D03*
X-625000Y7025000D03*
X8660000Y6150000D03*
X-8700000Y4500000D03*
X4350000Y2550000D03*
X1850000Y-6100000D03*
X6000000Y-4100000D03*
X50000Y-6200000D03*
X4300000Y-3750000D03*
X-6750000Y-600000D03*
X7250000Y-6900000D03*
X7200000Y4400000D03*
X-6900000Y-3500000D03*
X5200000Y6850000D03*
X6100000Y-600000D03*
X8600000Y-1350000D03*
X-550000Y6300000D03*
X-7437500Y650000D03*
X-7900000Y4100000D03*
X-8800000Y2500000D03*
X9000000Y2750000D03*
X-8700000Y-1150000D03*
X7200000Y3350000D03*
X4300000Y1550000D03*
X-6900000Y-2200000D03*
X3706164Y-3126024D03*
X-9000000Y-500000D03*
X-8700000Y-1900000D03*
X6950000Y6200000D03*
X-7000000Y3500000D03*
X6050000Y1550000D03*
X5150000Y-2900000D03*
X-881793Y-6155286D03*
X1050000Y-6100000D03*
X6900000Y-1300000D03*
X5200000Y5500000D03*
X9200000Y5500000D03*
X-596331Y5516259D03*
X5400000Y-600000D03*
X-6250000Y650000D03*
X9200000Y-2600000D03*
X8875000Y4875000D03*
X9050000Y-6850000D03*
X9200000Y0D03*
X8975000Y-5875000D03*
X-7600000Y-1600000D03*
X4494876Y-5135957D03*
X7250000Y-6250000D03*
X-7000000Y2400000D03*
X-8700000Y3200000D03*
%TD*%
D14*
%TO.N,GND*%
X-9990000Y3800000D02*
X-10000000Y3810000D01*
X8600000Y3800000D02*
X9990000Y3800000D01*
X-9970000Y-1300000D02*
X-10000000Y-1270000D01*
X9990000Y3800000D02*
X10000000Y3810000D01*
X-8700000Y-1300000D02*
X-9970000Y-1300000D01*
X-8700000Y3800000D02*
X-9990000Y3800000D01*
D15*
X-8950000Y3200000D02*
X-9560000Y3810000D01*
D14*
X-8700000Y3800000D02*
X-8200000Y3800000D01*
X-8200000Y3800000D02*
X-7900000Y4100000D01*
D16*
X8650000Y-1350000D02*
X9920000Y-1350000D01*
D14*
%TO.N,/V+IN*%
X-8700000Y1400000D02*
X-9870000Y1400000D01*
X-9870000Y1400000D02*
X-10000000Y1270000D01*
%TO.N,/V-IN*%
X-9990000Y-3800000D02*
X-10000000Y-3810000D01*
X-8700000Y-3800000D02*
X-9990000Y-3800000D01*
D16*
%TO.N,/V+OUT*%
X10000000Y1270000D02*
X8730000Y1270000D01*
X8650000Y1300000D02*
X9970000Y1300000D01*
%TO.N,/V-OUT*%
X8650000Y-3800000D02*
X9990000Y-3800000D01*
%TD*%
%TA.AperFunction,Conductor*%
%TO.N,GND*%
G36*
X9442539Y7479815D02*
G01*
X9488294Y7427011D01*
X9499500Y7375500D01*
X9499500Y2441164D01*
X9479815Y2374125D01*
X9440778Y2335737D01*
X9273436Y2232123D01*
X9109019Y2082238D01*
X9075291Y2037574D01*
X9019182Y1995939D01*
X8949470Y1991248D01*
X8935384Y1995260D01*
X8818057Y2036314D01*
X8650003Y2055249D01*
X8649997Y2055249D01*
X8481943Y2036315D01*
X8322305Y1980455D01*
X8322302Y1980453D01*
X8179115Y1890482D01*
X8179109Y1890477D01*
X8059523Y1770891D01*
X8059518Y1770885D01*
X7969547Y1627698D01*
X7969545Y1627695D01*
X7913685Y1468057D01*
X7894751Y1300003D01*
X7894751Y1299998D01*
X7913685Y1131944D01*
X7969545Y972306D01*
X7969547Y972303D01*
X8059518Y829116D01*
X8059523Y829110D01*
X8179109Y709524D01*
X8179115Y709519D01*
X8322302Y619548D01*
X8322305Y619546D01*
X8322309Y619545D01*
X8322310Y619544D01*
X8390278Y595761D01*
X8481943Y563686D01*
X8649997Y544751D01*
X8650000Y544751D01*
X8650003Y544751D01*
X8818059Y563687D01*
X8818060Y563687D01*
X8899543Y592199D01*
X8969322Y595761D01*
X9029949Y561033D01*
X9039452Y549885D01*
X9109020Y457762D01*
X9273437Y307877D01*
X9273439Y307875D01*
X9350042Y260445D01*
X9440777Y204264D01*
X9487413Y152238D01*
X9499500Y98838D01*
X9499500Y-2638836D01*
X9479815Y-2705875D01*
X9440778Y-2744263D01*
X9273436Y-2847877D01*
X9109019Y-2997762D01*
X9063344Y-3058246D01*
X9007235Y-3099881D01*
X8937523Y-3104572D01*
X8923438Y-3100560D01*
X8883887Y-3086721D01*
X8818056Y-3063685D01*
X8650003Y-3044751D01*
X8649997Y-3044751D01*
X8481943Y-3063685D01*
X8322305Y-3119545D01*
X8322302Y-3119547D01*
X8179115Y-3209518D01*
X8179109Y-3209523D01*
X8059523Y-3329109D01*
X8059518Y-3329115D01*
X7969547Y-3472302D01*
X7969545Y-3472305D01*
X7913685Y-3631943D01*
X7894751Y-3799997D01*
X7894751Y-3800002D01*
X7913685Y-3968056D01*
X7969545Y-4127694D01*
X7969547Y-4127697D01*
X8059518Y-4270884D01*
X8059523Y-4270890D01*
X8179109Y-4390476D01*
X8179115Y-4390481D01*
X8322302Y-4480452D01*
X8322305Y-4480454D01*
X8322309Y-4480455D01*
X8322310Y-4480456D01*
X8388509Y-4503620D01*
X8481943Y-4536314D01*
X8649997Y-4555249D01*
X8650000Y-4555249D01*
X8650003Y-4555249D01*
X8818056Y-4536314D01*
X8870003Y-4518137D01*
X8911490Y-4503619D01*
X8981269Y-4500059D01*
X9041896Y-4534788D01*
X9051399Y-4545935D01*
X9109020Y-4622238D01*
X9273437Y-4772123D01*
X9273439Y-4772125D01*
X9350042Y-4819555D01*
X9440777Y-4875736D01*
X9487413Y-4927762D01*
X9499500Y-4981162D01*
X9499500Y-7375500D01*
X9479815Y-7442539D01*
X9427011Y-7488294D01*
X9375500Y-7499500D01*
X-9375500Y-7499500D01*
X-9442539Y-7479815D01*
X-9488294Y-7427011D01*
X-9499500Y-7375500D01*
X-9499500Y-4981162D01*
X-9479815Y-4914123D01*
X-9440779Y-4875736D01*
X-9273438Y-4772124D01*
X-9109019Y-4622236D01*
X-9061850Y-4559773D01*
X-9005743Y-4518137D01*
X-8936031Y-4513444D01*
X-8921958Y-4517453D01*
X-8868059Y-4536313D01*
X-8868058Y-4536313D01*
X-8868055Y-4536314D01*
X-8700003Y-4555249D01*
X-8700000Y-4555249D01*
X-8699997Y-4555249D01*
X-8531944Y-4536314D01*
X-8479997Y-4518137D01*
X-8372310Y-4480456D01*
X-8372308Y-4480454D01*
X-8372306Y-4480454D01*
X-8372303Y-4480452D01*
X-8229116Y-4390481D01*
X-8229115Y-4390480D01*
X-8229110Y-4390477D01*
X-8109523Y-4270890D01*
X-8019548Y-4127697D01*
X-8019546Y-4127694D01*
X-8019546Y-4127692D01*
X-8019544Y-4127690D01*
X-7963687Y-3968059D01*
X-7963687Y-3968058D01*
X-7963686Y-3968056D01*
X-7944751Y-3800002D01*
X-7944751Y-3799997D01*
X-7963686Y-3631943D01*
X-8019546Y-3472305D01*
X-8019548Y-3472302D01*
X-8109519Y-3329115D01*
X-8109524Y-3329109D01*
X-8229110Y-3209523D01*
X-8229116Y-3209518D01*
X-8372303Y-3119547D01*
X-8372306Y-3119545D01*
X-8531944Y-3063685D01*
X-8699997Y-3044751D01*
X-8700003Y-3044751D01*
X-8868055Y-3063685D01*
X-8868062Y-3063687D01*
X-8933890Y-3086721D01*
X-9003669Y-3090282D01*
X-9064296Y-3055552D01*
X-9073797Y-3044405D01*
X-9109018Y-2997765D01*
X-9109020Y-2997762D01*
X-9273437Y-2847877D01*
X-9273438Y-2847876D01*
X-9322063Y-2817768D01*
X-9440778Y-2744263D01*
X-9487413Y-2692235D01*
X-9499500Y-2638836D01*
X-9499500Y98838D01*
X-9479815Y165877D01*
X-9440779Y204264D01*
X-9273438Y307876D01*
X-9109019Y457764D01*
X-8989290Y616312D01*
X-8933184Y657946D01*
X-8875275Y661844D01*
X-8874979Y664466D01*
X-8700003Y644751D01*
X-8700000Y644751D01*
X-8699997Y644751D01*
X-8531944Y663686D01*
X-8529715Y664466D01*
X-8372310Y719544D01*
X-8372308Y719546D01*
X-8372306Y719546D01*
X-8372303Y719548D01*
X-8229116Y809519D01*
X-8229115Y809520D01*
X-8229110Y809523D01*
X-8109523Y929110D01*
X-8082378Y972310D01*
X-8019548Y1072303D01*
X-8019546Y1072306D01*
X-8019546Y1072308D01*
X-8019544Y1072310D01*
X-7963687Y1231941D01*
X-7963687Y1231942D01*
X-7963686Y1231944D01*
X-7944751Y1399998D01*
X-7944751Y1400003D01*
X-7963686Y1568057D01*
X-8019546Y1727695D01*
X-8019548Y1727698D01*
X-8109519Y1870885D01*
X-8109524Y1870891D01*
X-8229110Y1990477D01*
X-8229116Y1990482D01*
X-8372303Y2080453D01*
X-8372306Y2080455D01*
X-8531944Y2136315D01*
X-8699997Y2155249D01*
X-8700003Y2155249D01*
X-8868058Y2136314D01*
X-9015226Y2084818D01*
X-9085005Y2081257D01*
X-9139718Y2110223D01*
X-9273437Y2232123D01*
X-9273438Y2232124D01*
X-9322063Y2262232D01*
X-9440778Y2335737D01*
X-9487413Y2387765D01*
X-9499500Y2441164D01*
X-9499500Y7375500D01*
X-9479815Y7442539D01*
X-9427011Y7488294D01*
X-9375500Y7499500D01*
X9375500Y7499500D01*
X9442539Y7479815D01*
G37*
%TD.AperFunction*%
%TD*%
M02*
