%TF.GenerationSoftware,KiCad,Pcbnew,8.0.9-8.0.9-0~ubuntu24.04.1*%
%TF.CreationDate,2025-07-21T09:14:06-04:00*%
%TF.ProjectId,cap_multiplier_tile,6361705f-6d75-46c7-9469-706c6965725f,0.1.X*%
%TF.SameCoordinates,Original*%
%TF.FileFunction,AssemblyDrawing,Top*%
%FSLAX46Y46*%
G04 Gerber Fmt 4.6, Leading zero omitted, Abs format (unit mm)*
G04 Created by KiCad (PCBNEW 8.0.9-8.0.9-0~ubuntu24.04.1) date 2025-07-21 09:14:06*
%MOMM*%
%LPD*%
G01*
G04 APERTURE LIST*
%ADD10C,0.040000*%
%ADD11C,0.120000*%
%ADD12C,0.050000*%
%ADD13C,0.150000*%
%ADD14C,0.100000*%
G04 APERTURE END LIST*
D10*
X3356667Y4431800D02*
X3270000Y4555609D01*
X3208095Y4431800D02*
X3208095Y4691800D01*
X3208095Y4691800D02*
X3307143Y4691800D01*
X3307143Y4691800D02*
X3331905Y4679419D01*
X3331905Y4679419D02*
X3344286Y4667038D01*
X3344286Y4667038D02*
X3356667Y4642276D01*
X3356667Y4642276D02*
X3356667Y4605133D01*
X3356667Y4605133D02*
X3344286Y4580371D01*
X3344286Y4580371D02*
X3331905Y4567990D01*
X3331905Y4567990D02*
X3307143Y4555609D01*
X3307143Y4555609D02*
X3208095Y4555609D01*
X3455714Y4667038D02*
X3468095Y4679419D01*
X3468095Y4679419D02*
X3492857Y4691800D01*
X3492857Y4691800D02*
X3554762Y4691800D01*
X3554762Y4691800D02*
X3579524Y4679419D01*
X3579524Y4679419D02*
X3591905Y4667038D01*
X3591905Y4667038D02*
X3604286Y4642276D01*
X3604286Y4642276D02*
X3604286Y4617514D01*
X3604286Y4617514D02*
X3591905Y4580371D01*
X3591905Y4580371D02*
X3443333Y4431800D01*
X3443333Y4431800D02*
X3604286Y4431800D01*
X3818200Y-6543332D02*
X3694391Y-6629999D01*
X3818200Y-6691904D02*
X3558200Y-6691904D01*
X3558200Y-6691904D02*
X3558200Y-6592856D01*
X3558200Y-6592856D02*
X3570581Y-6568094D01*
X3570581Y-6568094D02*
X3582962Y-6555713D01*
X3582962Y-6555713D02*
X3607724Y-6543332D01*
X3607724Y-6543332D02*
X3644867Y-6543332D01*
X3644867Y-6543332D02*
X3669629Y-6555713D01*
X3669629Y-6555713D02*
X3682010Y-6568094D01*
X3682010Y-6568094D02*
X3694391Y-6592856D01*
X3694391Y-6592856D02*
X3694391Y-6691904D01*
X3558200Y-6456666D02*
X3558200Y-6283332D01*
X3558200Y-6283332D02*
X3818200Y-6394761D01*
X1256667Y4431800D02*
X1170000Y4555609D01*
X1108095Y4431800D02*
X1108095Y4691800D01*
X1108095Y4691800D02*
X1207143Y4691800D01*
X1207143Y4691800D02*
X1231905Y4679419D01*
X1231905Y4679419D02*
X1244286Y4667038D01*
X1244286Y4667038D02*
X1256667Y4642276D01*
X1256667Y4642276D02*
X1256667Y4605133D01*
X1256667Y4605133D02*
X1244286Y4580371D01*
X1244286Y4580371D02*
X1231905Y4567990D01*
X1231905Y4567990D02*
X1207143Y4555609D01*
X1207143Y4555609D02*
X1108095Y4555609D01*
X1479524Y4605133D02*
X1479524Y4431800D01*
X1417619Y4704180D02*
X1355714Y4518466D01*
X1355714Y4518466D02*
X1516667Y4518466D01*
D11*
X4541667Y5912336D02*
X4503571Y5874240D01*
X4503571Y5874240D02*
X4389286Y5836145D01*
X4389286Y5836145D02*
X4313095Y5836145D01*
X4313095Y5836145D02*
X4198809Y5874240D01*
X4198809Y5874240D02*
X4122619Y5950431D01*
X4122619Y5950431D02*
X4084524Y6026621D01*
X4084524Y6026621D02*
X4046428Y6179002D01*
X4046428Y6179002D02*
X4046428Y6293288D01*
X4046428Y6293288D02*
X4084524Y6445669D01*
X4084524Y6445669D02*
X4122619Y6521860D01*
X4122619Y6521860D02*
X4198809Y6598050D01*
X4198809Y6598050D02*
X4313095Y6636145D01*
X4313095Y6636145D02*
X4389286Y6636145D01*
X4389286Y6636145D02*
X4503571Y6598050D01*
X4503571Y6598050D02*
X4541667Y6559955D01*
X4808333Y6636145D02*
X5341667Y6636145D01*
X5341667Y6636145D02*
X4998809Y5836145D01*
D10*
X-843333Y4431800D02*
X-930000Y4555609D01*
X-991905Y4431800D02*
X-991905Y4691800D01*
X-991905Y4691800D02*
X-892857Y4691800D01*
X-892857Y4691800D02*
X-868095Y4679419D01*
X-868095Y4679419D02*
X-855714Y4667038D01*
X-855714Y4667038D02*
X-843333Y4642276D01*
X-843333Y4642276D02*
X-843333Y4605133D01*
X-843333Y4605133D02*
X-855714Y4580371D01*
X-855714Y4580371D02*
X-868095Y4567990D01*
X-868095Y4567990D02*
X-892857Y4555609D01*
X-892857Y4555609D02*
X-991905Y4555609D01*
X-756667Y4691800D02*
X-595714Y4691800D01*
X-595714Y4691800D02*
X-682381Y4592752D01*
X-682381Y4592752D02*
X-645238Y4592752D01*
X-645238Y4592752D02*
X-620476Y4580371D01*
X-620476Y4580371D02*
X-608095Y4567990D01*
X-608095Y4567990D02*
X-595714Y4543228D01*
X-595714Y4543228D02*
X-595714Y4481323D01*
X-595714Y4481323D02*
X-608095Y4456561D01*
X-608095Y4456561D02*
X-620476Y4444180D01*
X-620476Y4444180D02*
X-645238Y4431800D01*
X-645238Y4431800D02*
X-719524Y4431800D01*
X-719524Y4431800D02*
X-744286Y4444180D01*
X-744286Y4444180D02*
X-756667Y4456561D01*
D11*
X2137664Y-5914285D02*
X2175760Y-5952381D01*
X2175760Y-5952381D02*
X2213855Y-6066666D01*
X2213855Y-6066666D02*
X2213855Y-6142857D01*
X2213855Y-6142857D02*
X2175760Y-6257143D01*
X2175760Y-6257143D02*
X2099569Y-6333333D01*
X2099569Y-6333333D02*
X2023379Y-6371428D01*
X2023379Y-6371428D02*
X1870998Y-6409524D01*
X1870998Y-6409524D02*
X1756712Y-6409524D01*
X1756712Y-6409524D02*
X1604331Y-6371428D01*
X1604331Y-6371428D02*
X1528140Y-6333333D01*
X1528140Y-6333333D02*
X1451950Y-6257143D01*
X1451950Y-6257143D02*
X1413855Y-6142857D01*
X1413855Y-6142857D02*
X1413855Y-6066666D01*
X1413855Y-6066666D02*
X1451950Y-5952381D01*
X1451950Y-5952381D02*
X1490045Y-5914285D01*
X2213855Y-5152381D02*
X2213855Y-5609524D01*
X2213855Y-5380952D02*
X1413855Y-5380952D01*
X1413855Y-5380952D02*
X1528140Y-5457143D01*
X1528140Y-5457143D02*
X1604331Y-5533333D01*
X1604331Y-5533333D02*
X1642426Y-5609524D01*
X1680521Y-4466666D02*
X2213855Y-4466666D01*
X1375760Y-4657142D02*
X1947188Y-4847619D01*
X1947188Y-4847619D02*
X1947188Y-4352380D01*
X6135714Y-6737664D02*
X6097618Y-6775760D01*
X6097618Y-6775760D02*
X5983333Y-6813855D01*
X5983333Y-6813855D02*
X5907142Y-6813855D01*
X5907142Y-6813855D02*
X5792856Y-6775760D01*
X5792856Y-6775760D02*
X5716666Y-6699569D01*
X5716666Y-6699569D02*
X5678571Y-6623379D01*
X5678571Y-6623379D02*
X5640475Y-6470998D01*
X5640475Y-6470998D02*
X5640475Y-6356712D01*
X5640475Y-6356712D02*
X5678571Y-6204331D01*
X5678571Y-6204331D02*
X5716666Y-6128140D01*
X5716666Y-6128140D02*
X5792856Y-6051950D01*
X5792856Y-6051950D02*
X5907142Y-6013855D01*
X5907142Y-6013855D02*
X5983333Y-6013855D01*
X5983333Y-6013855D02*
X6097618Y-6051950D01*
X6097618Y-6051950D02*
X6135714Y-6090045D01*
X6897618Y-6813855D02*
X6440475Y-6813855D01*
X6669047Y-6813855D02*
X6669047Y-6013855D01*
X6669047Y-6013855D02*
X6592856Y-6128140D01*
X6592856Y-6128140D02*
X6516666Y-6204331D01*
X6516666Y-6204331D02*
X6440475Y-6242426D01*
X7659523Y-6813855D02*
X7202380Y-6813855D01*
X7430952Y-6813855D02*
X7430952Y-6013855D01*
X7430952Y-6013855D02*
X7354761Y-6128140D01*
X7354761Y-6128140D02*
X7278571Y-6204331D01*
X7278571Y-6204331D02*
X7202380Y-6242426D01*
D10*
X-1981800Y-4093332D02*
X-2105609Y-4179999D01*
X-1981800Y-4241904D02*
X-2241800Y-4241904D01*
X-2241800Y-4241904D02*
X-2241800Y-4142856D01*
X-2241800Y-4142856D02*
X-2229419Y-4118094D01*
X-2229419Y-4118094D02*
X-2217038Y-4105713D01*
X-2217038Y-4105713D02*
X-2192276Y-4093332D01*
X-2192276Y-4093332D02*
X-2155133Y-4093332D01*
X-2155133Y-4093332D02*
X-2130371Y-4105713D01*
X-2130371Y-4105713D02*
X-2117990Y-4118094D01*
X-2117990Y-4118094D02*
X-2105609Y-4142856D01*
X-2105609Y-4142856D02*
X-2105609Y-4241904D01*
X-2130371Y-3944761D02*
X-2142752Y-3969523D01*
X-2142752Y-3969523D02*
X-2155133Y-3981904D01*
X-2155133Y-3981904D02*
X-2179895Y-3994285D01*
X-2179895Y-3994285D02*
X-2192276Y-3994285D01*
X-2192276Y-3994285D02*
X-2217038Y-3981904D01*
X-2217038Y-3981904D02*
X-2229419Y-3969523D01*
X-2229419Y-3969523D02*
X-2241800Y-3944761D01*
X-2241800Y-3944761D02*
X-2241800Y-3895237D01*
X-2241800Y-3895237D02*
X-2229419Y-3870475D01*
X-2229419Y-3870475D02*
X-2217038Y-3858094D01*
X-2217038Y-3858094D02*
X-2192276Y-3845713D01*
X-2192276Y-3845713D02*
X-2179895Y-3845713D01*
X-2179895Y-3845713D02*
X-2155133Y-3858094D01*
X-2155133Y-3858094D02*
X-2142752Y-3870475D01*
X-2142752Y-3870475D02*
X-2130371Y-3895237D01*
X-2130371Y-3895237D02*
X-2130371Y-3944761D01*
X-2130371Y-3944761D02*
X-2117990Y-3969523D01*
X-2117990Y-3969523D02*
X-2105609Y-3981904D01*
X-2105609Y-3981904D02*
X-2080847Y-3994285D01*
X-2080847Y-3994285D02*
X-2031323Y-3994285D01*
X-2031323Y-3994285D02*
X-2006561Y-3981904D01*
X-2006561Y-3981904D02*
X-1994180Y-3969523D01*
X-1994180Y-3969523D02*
X-1981800Y-3944761D01*
X-1981800Y-3944761D02*
X-1981800Y-3895237D01*
X-1981800Y-3895237D02*
X-1994180Y-3870475D01*
X-1994180Y-3870475D02*
X-2006561Y-3858094D01*
X-2006561Y-3858094D02*
X-2031323Y-3845713D01*
X-2031323Y-3845713D02*
X-2080847Y-3845713D01*
X-2080847Y-3845713D02*
X-2105609Y-3858094D01*
X-2105609Y-3858094D02*
X-2117990Y-3870475D01*
X-2117990Y-3870475D02*
X-2130371Y-3895237D01*
D11*
X-83333Y5912336D02*
X-121429Y5874240D01*
X-121429Y5874240D02*
X-235714Y5836145D01*
X-235714Y5836145D02*
X-311905Y5836145D01*
X-311905Y5836145D02*
X-426191Y5874240D01*
X-426191Y5874240D02*
X-502381Y5950431D01*
X-502381Y5950431D02*
X-540476Y6026621D01*
X-540476Y6026621D02*
X-578572Y6179002D01*
X-578572Y6179002D02*
X-578572Y6293288D01*
X-578572Y6293288D02*
X-540476Y6445669D01*
X-540476Y6445669D02*
X-502381Y6521860D01*
X-502381Y6521860D02*
X-426191Y6598050D01*
X-426191Y6598050D02*
X-311905Y6636145D01*
X-311905Y6636145D02*
X-235714Y6636145D01*
X-235714Y6636145D02*
X-121429Y6598050D01*
X-121429Y6598050D02*
X-83333Y6559955D01*
X602381Y6636145D02*
X450000Y6636145D01*
X450000Y6636145D02*
X373809Y6598050D01*
X373809Y6598050D02*
X335714Y6559955D01*
X335714Y6559955D02*
X259524Y6445669D01*
X259524Y6445669D02*
X221428Y6293288D01*
X221428Y6293288D02*
X221428Y5988526D01*
X221428Y5988526D02*
X259524Y5912336D01*
X259524Y5912336D02*
X297619Y5874240D01*
X297619Y5874240D02*
X373809Y5836145D01*
X373809Y5836145D02*
X526190Y5836145D01*
X526190Y5836145D02*
X602381Y5874240D01*
X602381Y5874240D02*
X640476Y5912336D01*
X640476Y5912336D02*
X678571Y5988526D01*
X678571Y5988526D02*
X678571Y6179002D01*
X678571Y6179002D02*
X640476Y6255193D01*
X640476Y6255193D02*
X602381Y6293288D01*
X602381Y6293288D02*
X526190Y6331383D01*
X526190Y6331383D02*
X373809Y6331383D01*
X373809Y6331383D02*
X297619Y6293288D01*
X297619Y6293288D02*
X259524Y6255193D01*
X259524Y6255193D02*
X221428Y6179002D01*
X6541667Y3562336D02*
X6503571Y3524240D01*
X6503571Y3524240D02*
X6389286Y3486145D01*
X6389286Y3486145D02*
X6313095Y3486145D01*
X6313095Y3486145D02*
X6198809Y3524240D01*
X6198809Y3524240D02*
X6122619Y3600431D01*
X6122619Y3600431D02*
X6084524Y3676621D01*
X6084524Y3676621D02*
X6046428Y3829002D01*
X6046428Y3829002D02*
X6046428Y3943288D01*
X6046428Y3943288D02*
X6084524Y4095669D01*
X6084524Y4095669D02*
X6122619Y4171860D01*
X6122619Y4171860D02*
X6198809Y4248050D01*
X6198809Y4248050D02*
X6313095Y4286145D01*
X6313095Y4286145D02*
X6389286Y4286145D01*
X6389286Y4286145D02*
X6503571Y4248050D01*
X6503571Y4248050D02*
X6541667Y4209955D01*
X6808333Y4286145D02*
X7303571Y4286145D01*
X7303571Y4286145D02*
X7036905Y3981383D01*
X7036905Y3981383D02*
X7151190Y3981383D01*
X7151190Y3981383D02*
X7227381Y3943288D01*
X7227381Y3943288D02*
X7265476Y3905193D01*
X7265476Y3905193D02*
X7303571Y3829002D01*
X7303571Y3829002D02*
X7303571Y3638526D01*
X7303571Y3638526D02*
X7265476Y3562336D01*
X7265476Y3562336D02*
X7227381Y3524240D01*
X7227381Y3524240D02*
X7151190Y3486145D01*
X7151190Y3486145D02*
X6922619Y3486145D01*
X6922619Y3486145D02*
X6846428Y3524240D01*
X6846428Y3524240D02*
X6808333Y3562336D01*
D12*
X-1955477Y-1575914D02*
X-1985953Y-1560676D01*
X-1985953Y-1560676D02*
X-2016429Y-1530200D01*
X-2016429Y-1530200D02*
X-2062143Y-1484485D01*
X-2062143Y-1484485D02*
X-2092620Y-1469247D01*
X-2092620Y-1469247D02*
X-2123096Y-1469247D01*
X-2107858Y-1545438D02*
X-2138334Y-1530200D01*
X-2138334Y-1530200D02*
X-2168810Y-1499723D01*
X-2168810Y-1499723D02*
X-2184048Y-1438771D01*
X-2184048Y-1438771D02*
X-2184048Y-1332104D01*
X-2184048Y-1332104D02*
X-2168810Y-1271152D01*
X-2168810Y-1271152D02*
X-2138334Y-1240676D01*
X-2138334Y-1240676D02*
X-2107858Y-1225438D01*
X-2107858Y-1225438D02*
X-2046905Y-1225438D01*
X-2046905Y-1225438D02*
X-2016429Y-1240676D01*
X-2016429Y-1240676D02*
X-1985953Y-1271152D01*
X-1985953Y-1271152D02*
X-1970715Y-1332104D01*
X-1970715Y-1332104D02*
X-1970715Y-1438771D01*
X-1970715Y-1438771D02*
X-1985953Y-1499723D01*
X-1985953Y-1499723D02*
X-2016429Y-1530200D01*
X-2016429Y-1530200D02*
X-2046905Y-1545438D01*
X-2046905Y-1545438D02*
X-2107858Y-1545438D01*
X-1864048Y-1225438D02*
X-1665953Y-1225438D01*
X-1665953Y-1225438D02*
X-1772620Y-1347342D01*
X-1772620Y-1347342D02*
X-1726905Y-1347342D01*
X-1726905Y-1347342D02*
X-1696429Y-1362580D01*
X-1696429Y-1362580D02*
X-1681191Y-1377819D01*
X-1681191Y-1377819D02*
X-1665953Y-1408295D01*
X-1665953Y-1408295D02*
X-1665953Y-1484485D01*
X-1665953Y-1484485D02*
X-1681191Y-1514961D01*
X-1681191Y-1514961D02*
X-1696429Y-1530200D01*
X-1696429Y-1530200D02*
X-1726905Y-1545438D01*
X-1726905Y-1545438D02*
X-1818334Y-1545438D01*
X-1818334Y-1545438D02*
X-1848810Y-1530200D01*
X-1848810Y-1530200D02*
X-1864048Y-1514961D01*
X-1955477Y2124086D02*
X-1985953Y2139324D01*
X-1985953Y2139324D02*
X-2016429Y2169800D01*
X-2016429Y2169800D02*
X-2062143Y2215515D01*
X-2062143Y2215515D02*
X-2092620Y2230753D01*
X-2092620Y2230753D02*
X-2123096Y2230753D01*
X-2107858Y2154562D02*
X-2138334Y2169800D01*
X-2138334Y2169800D02*
X-2168810Y2200277D01*
X-2168810Y2200277D02*
X-2184048Y2261229D01*
X-2184048Y2261229D02*
X-2184048Y2367896D01*
X-2184048Y2367896D02*
X-2168810Y2428848D01*
X-2168810Y2428848D02*
X-2138334Y2459324D01*
X-2138334Y2459324D02*
X-2107858Y2474562D01*
X-2107858Y2474562D02*
X-2046905Y2474562D01*
X-2046905Y2474562D02*
X-2016429Y2459324D01*
X-2016429Y2459324D02*
X-1985953Y2428848D01*
X-1985953Y2428848D02*
X-1970715Y2367896D01*
X-1970715Y2367896D02*
X-1970715Y2261229D01*
X-1970715Y2261229D02*
X-1985953Y2200277D01*
X-1985953Y2200277D02*
X-2016429Y2169800D01*
X-2016429Y2169800D02*
X-2046905Y2154562D01*
X-2046905Y2154562D02*
X-2107858Y2154562D01*
X-1665953Y2154562D02*
X-1848810Y2154562D01*
X-1757382Y2154562D02*
X-1757382Y2474562D01*
X-1757382Y2474562D02*
X-1787858Y2428848D01*
X-1787858Y2428848D02*
X-1818334Y2398372D01*
X-1818334Y2398372D02*
X-1848810Y2383134D01*
D10*
X8106667Y5381800D02*
X8020000Y5505609D01*
X7958095Y5381800D02*
X7958095Y5641800D01*
X7958095Y5641800D02*
X8057143Y5641800D01*
X8057143Y5641800D02*
X8081905Y5629419D01*
X8081905Y5629419D02*
X8094286Y5617038D01*
X8094286Y5617038D02*
X8106667Y5592276D01*
X8106667Y5592276D02*
X8106667Y5555133D01*
X8106667Y5555133D02*
X8094286Y5530371D01*
X8094286Y5530371D02*
X8081905Y5517990D01*
X8081905Y5517990D02*
X8057143Y5505609D01*
X8057143Y5505609D02*
X7958095Y5505609D01*
X8341905Y5641800D02*
X8218095Y5641800D01*
X8218095Y5641800D02*
X8205714Y5517990D01*
X8205714Y5517990D02*
X8218095Y5530371D01*
X8218095Y5530371D02*
X8242857Y5542752D01*
X8242857Y5542752D02*
X8304762Y5542752D01*
X8304762Y5542752D02*
X8329524Y5530371D01*
X8329524Y5530371D02*
X8341905Y5517990D01*
X8341905Y5517990D02*
X8354286Y5493228D01*
X8354286Y5493228D02*
X8354286Y5431323D01*
X8354286Y5431323D02*
X8341905Y5406561D01*
X8341905Y5406561D02*
X8329524Y5394180D01*
X8329524Y5394180D02*
X8304762Y5381800D01*
X8304762Y5381800D02*
X8242857Y5381800D01*
X8242857Y5381800D02*
X8218095Y5394180D01*
X8218095Y5394180D02*
X8205714Y5406561D01*
X3818200Y-4417142D02*
X3694391Y-4503809D01*
X3818200Y-4565714D02*
X3558200Y-4565714D01*
X3558200Y-4565714D02*
X3558200Y-4466666D01*
X3558200Y-4466666D02*
X3570581Y-4441904D01*
X3570581Y-4441904D02*
X3582962Y-4429523D01*
X3582962Y-4429523D02*
X3607724Y-4417142D01*
X3607724Y-4417142D02*
X3644867Y-4417142D01*
X3644867Y-4417142D02*
X3669629Y-4429523D01*
X3669629Y-4429523D02*
X3682010Y-4441904D01*
X3682010Y-4441904D02*
X3694391Y-4466666D01*
X3694391Y-4466666D02*
X3694391Y-4565714D01*
X3818200Y-4169523D02*
X3818200Y-4318095D01*
X3818200Y-4243809D02*
X3558200Y-4243809D01*
X3558200Y-4243809D02*
X3595343Y-4268571D01*
X3595343Y-4268571D02*
X3620105Y-4293333D01*
X3620105Y-4293333D02*
X3632486Y-4318095D01*
X3558200Y-4008571D02*
X3558200Y-3983809D01*
X3558200Y-3983809D02*
X3570581Y-3959047D01*
X3570581Y-3959047D02*
X3582962Y-3946666D01*
X3582962Y-3946666D02*
X3607724Y-3934285D01*
X3607724Y-3934285D02*
X3657248Y-3921904D01*
X3657248Y-3921904D02*
X3719153Y-3921904D01*
X3719153Y-3921904D02*
X3768677Y-3934285D01*
X3768677Y-3934285D02*
X3793439Y-3946666D01*
X3793439Y-3946666D02*
X3805820Y-3959047D01*
X3805820Y-3959047D02*
X3818200Y-3983809D01*
X3818200Y-3983809D02*
X3818200Y-4008571D01*
X3818200Y-4008571D02*
X3805820Y-4033333D01*
X3805820Y-4033333D02*
X3793439Y-4045714D01*
X3793439Y-4045714D02*
X3768677Y-4058095D01*
X3768677Y-4058095D02*
X3719153Y-4070476D01*
X3719153Y-4070476D02*
X3657248Y-4070476D01*
X3657248Y-4070476D02*
X3607724Y-4058095D01*
X3607724Y-4058095D02*
X3582962Y-4045714D01*
X3582962Y-4045714D02*
X3570581Y-4033333D01*
X3570581Y-4033333D02*
X3558200Y-4008571D01*
X-1981800Y-5993332D02*
X-2105609Y-6079999D01*
X-1981800Y-6141904D02*
X-2241800Y-6141904D01*
X-2241800Y-6141904D02*
X-2241800Y-6042856D01*
X-2241800Y-6042856D02*
X-2229419Y-6018094D01*
X-2229419Y-6018094D02*
X-2217038Y-6005713D01*
X-2217038Y-6005713D02*
X-2192276Y-5993332D01*
X-2192276Y-5993332D02*
X-2155133Y-5993332D01*
X-2155133Y-5993332D02*
X-2130371Y-6005713D01*
X-2130371Y-6005713D02*
X-2117990Y-6018094D01*
X-2117990Y-6018094D02*
X-2105609Y-6042856D01*
X-2105609Y-6042856D02*
X-2105609Y-6141904D01*
X-1981800Y-5869523D02*
X-1981800Y-5819999D01*
X-1981800Y-5819999D02*
X-1994180Y-5795237D01*
X-1994180Y-5795237D02*
X-2006561Y-5782856D01*
X-2006561Y-5782856D02*
X-2043704Y-5758094D01*
X-2043704Y-5758094D02*
X-2093228Y-5745713D01*
X-2093228Y-5745713D02*
X-2192276Y-5745713D01*
X-2192276Y-5745713D02*
X-2217038Y-5758094D01*
X-2217038Y-5758094D02*
X-2229419Y-5770475D01*
X-2229419Y-5770475D02*
X-2241800Y-5795237D01*
X-2241800Y-5795237D02*
X-2241800Y-5844761D01*
X-2241800Y-5844761D02*
X-2229419Y-5869523D01*
X-2229419Y-5869523D02*
X-2217038Y-5881904D01*
X-2217038Y-5881904D02*
X-2192276Y-5894285D01*
X-2192276Y-5894285D02*
X-2130371Y-5894285D01*
X-2130371Y-5894285D02*
X-2105609Y-5881904D01*
X-2105609Y-5881904D02*
X-2093228Y-5869523D01*
X-2093228Y-5869523D02*
X-2080847Y-5844761D01*
X-2080847Y-5844761D02*
X-2080847Y-5795237D01*
X-2080847Y-5795237D02*
X-2093228Y-5770475D01*
X-2093228Y-5770475D02*
X-2105609Y-5758094D01*
X-2105609Y-5758094D02*
X-2130371Y-5745713D01*
D11*
X-6283333Y2562336D02*
X-6321429Y2524240D01*
X-6321429Y2524240D02*
X-6435714Y2486145D01*
X-6435714Y2486145D02*
X-6511905Y2486145D01*
X-6511905Y2486145D02*
X-6626191Y2524240D01*
X-6626191Y2524240D02*
X-6702381Y2600431D01*
X-6702381Y2600431D02*
X-6740476Y2676621D01*
X-6740476Y2676621D02*
X-6778572Y2829002D01*
X-6778572Y2829002D02*
X-6778572Y2943288D01*
X-6778572Y2943288D02*
X-6740476Y3095669D01*
X-6740476Y3095669D02*
X-6702381Y3171860D01*
X-6702381Y3171860D02*
X-6626191Y3248050D01*
X-6626191Y3248050D02*
X-6511905Y3286145D01*
X-6511905Y3286145D02*
X-6435714Y3286145D01*
X-6435714Y3286145D02*
X-6321429Y3248050D01*
X-6321429Y3248050D02*
X-6283333Y3209955D01*
X-5559524Y3286145D02*
X-5940476Y3286145D01*
X-5940476Y3286145D02*
X-5978572Y2905193D01*
X-5978572Y2905193D02*
X-5940476Y2943288D01*
X-5940476Y2943288D02*
X-5864286Y2981383D01*
X-5864286Y2981383D02*
X-5673810Y2981383D01*
X-5673810Y2981383D02*
X-5597619Y2943288D01*
X-5597619Y2943288D02*
X-5559524Y2905193D01*
X-5559524Y2905193D02*
X-5521429Y2829002D01*
X-5521429Y2829002D02*
X-5521429Y2638526D01*
X-5521429Y2638526D02*
X-5559524Y2562336D01*
X-5559524Y2562336D02*
X-5597619Y2524240D01*
X-5597619Y2524240D02*
X-5673810Y2486145D01*
X-5673810Y2486145D02*
X-5864286Y2486145D01*
X-5864286Y2486145D02*
X-5940476Y2524240D01*
X-5940476Y2524240D02*
X-5978572Y2562336D01*
D12*
X1969523Y-1575914D02*
X1939047Y-1560676D01*
X1939047Y-1560676D02*
X1908571Y-1530200D01*
X1908571Y-1530200D02*
X1862857Y-1484485D01*
X1862857Y-1484485D02*
X1832380Y-1469247D01*
X1832380Y-1469247D02*
X1801904Y-1469247D01*
X1817142Y-1545438D02*
X1786666Y-1530200D01*
X1786666Y-1530200D02*
X1756190Y-1499723D01*
X1756190Y-1499723D02*
X1740952Y-1438771D01*
X1740952Y-1438771D02*
X1740952Y-1332104D01*
X1740952Y-1332104D02*
X1756190Y-1271152D01*
X1756190Y-1271152D02*
X1786666Y-1240676D01*
X1786666Y-1240676D02*
X1817142Y-1225438D01*
X1817142Y-1225438D02*
X1878095Y-1225438D01*
X1878095Y-1225438D02*
X1908571Y-1240676D01*
X1908571Y-1240676D02*
X1939047Y-1271152D01*
X1939047Y-1271152D02*
X1954285Y-1332104D01*
X1954285Y-1332104D02*
X1954285Y-1438771D01*
X1954285Y-1438771D02*
X1939047Y-1499723D01*
X1939047Y-1499723D02*
X1908571Y-1530200D01*
X1908571Y-1530200D02*
X1878095Y-1545438D01*
X1878095Y-1545438D02*
X1817142Y-1545438D01*
X2228571Y-1332104D02*
X2228571Y-1545438D01*
X2152380Y-1210200D02*
X2076190Y-1438771D01*
X2076190Y-1438771D02*
X2274285Y-1438771D01*
D11*
X-6664286Y-3137664D02*
X-6702382Y-3175760D01*
X-6702382Y-3175760D02*
X-6816667Y-3213855D01*
X-6816667Y-3213855D02*
X-6892858Y-3213855D01*
X-6892858Y-3213855D02*
X-7007144Y-3175760D01*
X-7007144Y-3175760D02*
X-7083334Y-3099569D01*
X-7083334Y-3099569D02*
X-7121429Y-3023379D01*
X-7121429Y-3023379D02*
X-7159525Y-2870998D01*
X-7159525Y-2870998D02*
X-7159525Y-2756712D01*
X-7159525Y-2756712D02*
X-7121429Y-2604331D01*
X-7121429Y-2604331D02*
X-7083334Y-2528140D01*
X-7083334Y-2528140D02*
X-7007144Y-2451950D01*
X-7007144Y-2451950D02*
X-6892858Y-2413855D01*
X-6892858Y-2413855D02*
X-6816667Y-2413855D01*
X-6816667Y-2413855D02*
X-6702382Y-2451950D01*
X-6702382Y-2451950D02*
X-6664286Y-2490045D01*
X-5902382Y-3213855D02*
X-6359525Y-3213855D01*
X-6130953Y-3213855D02*
X-6130953Y-2413855D01*
X-6130953Y-2413855D02*
X-6207144Y-2528140D01*
X-6207144Y-2528140D02*
X-6283334Y-2604331D01*
X-6283334Y-2604331D02*
X-6359525Y-2642426D01*
X-5597620Y-2490045D02*
X-5559524Y-2451950D01*
X-5559524Y-2451950D02*
X-5483334Y-2413855D01*
X-5483334Y-2413855D02*
X-5292858Y-2413855D01*
X-5292858Y-2413855D02*
X-5216667Y-2451950D01*
X-5216667Y-2451950D02*
X-5178572Y-2490045D01*
X-5178572Y-2490045D02*
X-5140477Y-2566236D01*
X-5140477Y-2566236D02*
X-5140477Y-2642426D01*
X-5140477Y-2642426D02*
X-5178572Y-2756712D01*
X-5178572Y-2756712D02*
X-5635715Y-3213855D01*
X-5635715Y-3213855D02*
X-5140477Y-3213855D01*
D13*
X-7142859Y-1407200D02*
X-7238097Y-1454819D01*
X-7238097Y-1454819D02*
X-7428573Y-1454819D01*
X-7428573Y-1454819D02*
X-7523811Y-1407200D01*
X-7523811Y-1407200D02*
X-7571430Y-1359580D01*
X-7571430Y-1359580D02*
X-7619049Y-1264342D01*
X-7619049Y-1264342D02*
X-7619049Y-978628D01*
X-7619049Y-978628D02*
X-7571430Y-883390D01*
X-7571430Y-883390D02*
X-7523811Y-835771D01*
X-7523811Y-835771D02*
X-7428573Y-788152D01*
X-7428573Y-788152D02*
X-7238097Y-788152D01*
X-7238097Y-788152D02*
X-7142859Y-835771D01*
X-6285716Y-1454819D02*
X-6285716Y-931009D01*
X-6285716Y-931009D02*
X-6333335Y-835771D01*
X-6333335Y-835771D02*
X-6428573Y-788152D01*
X-6428573Y-788152D02*
X-6619049Y-788152D01*
X-6619049Y-788152D02*
X-6714287Y-835771D01*
X-6285716Y-1407200D02*
X-6380954Y-1454819D01*
X-6380954Y-1454819D02*
X-6619049Y-1454819D01*
X-6619049Y-1454819D02*
X-6714287Y-1407200D01*
X-6714287Y-1407200D02*
X-6761906Y-1311961D01*
X-6761906Y-1311961D02*
X-6761906Y-1216723D01*
X-6761906Y-1216723D02*
X-6714287Y-1121485D01*
X-6714287Y-1121485D02*
X-6619049Y-1073866D01*
X-6619049Y-1073866D02*
X-6380954Y-1073866D01*
X-6380954Y-1073866D02*
X-6285716Y-1026247D01*
X-5809525Y-788152D02*
X-5809525Y-1788152D01*
X-5809525Y-835771D02*
X-5714287Y-788152D01*
X-5714287Y-788152D02*
X-5523811Y-788152D01*
X-5523811Y-788152D02*
X-5428573Y-835771D01*
X-5428573Y-835771D02*
X-5380954Y-883390D01*
X-5380954Y-883390D02*
X-5333335Y-978628D01*
X-5333335Y-978628D02*
X-5333335Y-1264342D01*
X-5333335Y-1264342D02*
X-5380954Y-1359580D01*
X-5380954Y-1359580D02*
X-5428573Y-1407200D01*
X-5428573Y-1407200D02*
X-5523811Y-1454819D01*
X-5523811Y-1454819D02*
X-5714287Y-1454819D01*
X-5714287Y-1454819D02*
X-5809525Y-1407200D01*
X-5142858Y-1550057D02*
X-4380954Y-1550057D01*
X-4142858Y-1454819D02*
X-4142858Y-788152D01*
X-4142858Y-883390D02*
X-4095239Y-835771D01*
X-4095239Y-835771D02*
X-4000001Y-788152D01*
X-4000001Y-788152D02*
X-3857144Y-788152D01*
X-3857144Y-788152D02*
X-3761906Y-835771D01*
X-3761906Y-835771D02*
X-3714287Y-931009D01*
X-3714287Y-931009D02*
X-3714287Y-1454819D01*
X-3714287Y-931009D02*
X-3666668Y-835771D01*
X-3666668Y-835771D02*
X-3571430Y-788152D01*
X-3571430Y-788152D02*
X-3428573Y-788152D01*
X-3428573Y-788152D02*
X-3333334Y-835771D01*
X-3333334Y-835771D02*
X-3285715Y-931009D01*
X-3285715Y-931009D02*
X-3285715Y-1454819D01*
X-2380954Y-788152D02*
X-2380954Y-1454819D01*
X-2809525Y-788152D02*
X-2809525Y-1311961D01*
X-2809525Y-1311961D02*
X-2761906Y-1407200D01*
X-2761906Y-1407200D02*
X-2666668Y-1454819D01*
X-2666668Y-1454819D02*
X-2523811Y-1454819D01*
X-2523811Y-1454819D02*
X-2428573Y-1407200D01*
X-2428573Y-1407200D02*
X-2380954Y-1359580D01*
X-1761906Y-1454819D02*
X-1857144Y-1407200D01*
X-1857144Y-1407200D02*
X-1904763Y-1311961D01*
X-1904763Y-1311961D02*
X-1904763Y-454819D01*
X-1523810Y-788152D02*
X-1142858Y-788152D01*
X-1380953Y-454819D02*
X-1380953Y-1311961D01*
X-1380953Y-1311961D02*
X-1333334Y-1407200D01*
X-1333334Y-1407200D02*
X-1238096Y-1454819D01*
X-1238096Y-1454819D02*
X-1142858Y-1454819D01*
X-809524Y-1454819D02*
X-809524Y-788152D01*
X-809524Y-454819D02*
X-857143Y-502438D01*
X-857143Y-502438D02*
X-809524Y-550057D01*
X-809524Y-550057D02*
X-761905Y-502438D01*
X-761905Y-502438D02*
X-809524Y-454819D01*
X-809524Y-454819D02*
X-809524Y-550057D01*
X-333334Y-788152D02*
X-333334Y-1788152D01*
X-333334Y-835771D02*
X-238096Y-788152D01*
X-238096Y-788152D02*
X-47620Y-788152D01*
X-47620Y-788152D02*
X47618Y-835771D01*
X47618Y-835771D02*
X95237Y-883390D01*
X95237Y-883390D02*
X142856Y-978628D01*
X142856Y-978628D02*
X142856Y-1264342D01*
X142856Y-1264342D02*
X95237Y-1359580D01*
X95237Y-1359580D02*
X47618Y-1407200D01*
X47618Y-1407200D02*
X-47620Y-1454819D01*
X-47620Y-1454819D02*
X-238096Y-1454819D01*
X-238096Y-1454819D02*
X-333334Y-1407200D01*
X714285Y-1454819D02*
X619047Y-1407200D01*
X619047Y-1407200D02*
X571428Y-1311961D01*
X571428Y-1311961D02*
X571428Y-454819D01*
X1095238Y-1454819D02*
X1095238Y-788152D01*
X1095238Y-454819D02*
X1047619Y-502438D01*
X1047619Y-502438D02*
X1095238Y-550057D01*
X1095238Y-550057D02*
X1142857Y-502438D01*
X1142857Y-502438D02*
X1095238Y-454819D01*
X1095238Y-454819D02*
X1095238Y-550057D01*
X1952380Y-1407200D02*
X1857142Y-1454819D01*
X1857142Y-1454819D02*
X1666666Y-1454819D01*
X1666666Y-1454819D02*
X1571428Y-1407200D01*
X1571428Y-1407200D02*
X1523809Y-1311961D01*
X1523809Y-1311961D02*
X1523809Y-931009D01*
X1523809Y-931009D02*
X1571428Y-835771D01*
X1571428Y-835771D02*
X1666666Y-788152D01*
X1666666Y-788152D02*
X1857142Y-788152D01*
X1857142Y-788152D02*
X1952380Y-835771D01*
X1952380Y-835771D02*
X1999999Y-931009D01*
X1999999Y-931009D02*
X1999999Y-1026247D01*
X1999999Y-1026247D02*
X1523809Y-1121485D01*
X2428571Y-1454819D02*
X2428571Y-788152D01*
X2428571Y-978628D02*
X2476190Y-883390D01*
X2476190Y-883390D02*
X2523809Y-835771D01*
X2523809Y-835771D02*
X2619047Y-788152D01*
X2619047Y-788152D02*
X2714285Y-788152D01*
X2809524Y-1550057D02*
X3571428Y-1550057D01*
X3809524Y-1454819D02*
X3809524Y-454819D01*
X3809524Y-835771D02*
X3904762Y-788152D01*
X3904762Y-788152D02*
X4095238Y-788152D01*
X4095238Y-788152D02*
X4190476Y-835771D01*
X4190476Y-835771D02*
X4238095Y-883390D01*
X4238095Y-883390D02*
X4285714Y-978628D01*
X4285714Y-978628D02*
X4285714Y-1264342D01*
X4285714Y-1264342D02*
X4238095Y-1359580D01*
X4238095Y-1359580D02*
X4190476Y-1407200D01*
X4190476Y-1407200D02*
X4095238Y-1454819D01*
X4095238Y-1454819D02*
X3904762Y-1454819D01*
X3904762Y-1454819D02*
X3809524Y-1407200D01*
X4857143Y-1454819D02*
X4761905Y-1407200D01*
X4761905Y-1407200D02*
X4714286Y-1359580D01*
X4714286Y-1359580D02*
X4666667Y-1264342D01*
X4666667Y-1264342D02*
X4666667Y-978628D01*
X4666667Y-978628D02*
X4714286Y-883390D01*
X4714286Y-883390D02*
X4761905Y-835771D01*
X4761905Y-835771D02*
X4857143Y-788152D01*
X4857143Y-788152D02*
X5000000Y-788152D01*
X5000000Y-788152D02*
X5095238Y-835771D01*
X5095238Y-835771D02*
X5142857Y-883390D01*
X5142857Y-883390D02*
X5190476Y-978628D01*
X5190476Y-978628D02*
X5190476Y-1264342D01*
X5190476Y-1264342D02*
X5142857Y-1359580D01*
X5142857Y-1359580D02*
X5095238Y-1407200D01*
X5095238Y-1407200D02*
X5000000Y-1454819D01*
X5000000Y-1454819D02*
X4857143Y-1454819D01*
X6047619Y-1454819D02*
X6047619Y-931009D01*
X6047619Y-931009D02*
X6000000Y-835771D01*
X6000000Y-835771D02*
X5904762Y-788152D01*
X5904762Y-788152D02*
X5714286Y-788152D01*
X5714286Y-788152D02*
X5619048Y-835771D01*
X6047619Y-1407200D02*
X5952381Y-1454819D01*
X5952381Y-1454819D02*
X5714286Y-1454819D01*
X5714286Y-1454819D02*
X5619048Y-1407200D01*
X5619048Y-1407200D02*
X5571429Y-1311961D01*
X5571429Y-1311961D02*
X5571429Y-1216723D01*
X5571429Y-1216723D02*
X5619048Y-1121485D01*
X5619048Y-1121485D02*
X5714286Y-1073866D01*
X5714286Y-1073866D02*
X5952381Y-1073866D01*
X5952381Y-1073866D02*
X6047619Y-1026247D01*
X6523810Y-1454819D02*
X6523810Y-788152D01*
X6523810Y-978628D02*
X6571429Y-883390D01*
X6571429Y-883390D02*
X6619048Y-835771D01*
X6619048Y-835771D02*
X6714286Y-788152D01*
X6714286Y-788152D02*
X6809524Y-788152D01*
X7571429Y-1454819D02*
X7571429Y-454819D01*
X7571429Y-1407200D02*
X7476191Y-1454819D01*
X7476191Y-1454819D02*
X7285715Y-1454819D01*
X7285715Y-1454819D02*
X7190477Y-1407200D01*
X7190477Y-1407200D02*
X7142858Y-1359580D01*
X7142858Y-1359580D02*
X7095239Y-1264342D01*
X7095239Y-1264342D02*
X7095239Y-978628D01*
X7095239Y-978628D02*
X7142858Y-883390D01*
X7142858Y-883390D02*
X7190477Y-835771D01*
X7190477Y-835771D02*
X7285715Y-788152D01*
X7285715Y-788152D02*
X7476191Y-788152D01*
X7476191Y-788152D02*
X7571429Y-835771D01*
D12*
X6463809Y-1445438D02*
X6463809Y-1125438D01*
X6463809Y-1125438D02*
X6539999Y-1125438D01*
X6539999Y-1125438D02*
X6585714Y-1140676D01*
X6585714Y-1140676D02*
X6616190Y-1171152D01*
X6616190Y-1171152D02*
X6631428Y-1201628D01*
X6631428Y-1201628D02*
X6646666Y-1262580D01*
X6646666Y-1262580D02*
X6646666Y-1308295D01*
X6646666Y-1308295D02*
X6631428Y-1369247D01*
X6631428Y-1369247D02*
X6616190Y-1399723D01*
X6616190Y-1399723D02*
X6585714Y-1430200D01*
X6585714Y-1430200D02*
X6539999Y-1445438D01*
X6539999Y-1445438D02*
X6463809Y-1445438D01*
X6753333Y-1125438D02*
X6951428Y-1125438D01*
X6951428Y-1125438D02*
X6844761Y-1247342D01*
X6844761Y-1247342D02*
X6890476Y-1247342D01*
X6890476Y-1247342D02*
X6920952Y-1262580D01*
X6920952Y-1262580D02*
X6936190Y-1277819D01*
X6936190Y-1277819D02*
X6951428Y-1308295D01*
X6951428Y-1308295D02*
X6951428Y-1384485D01*
X6951428Y-1384485D02*
X6936190Y-1414961D01*
X6936190Y-1414961D02*
X6920952Y-1430200D01*
X6920952Y-1430200D02*
X6890476Y-1445438D01*
X6890476Y-1445438D02*
X6799047Y-1445438D01*
X6799047Y-1445438D02*
X6768571Y-1430200D01*
X6768571Y-1430200D02*
X6753333Y-1414961D01*
X1969523Y2124086D02*
X1939047Y2139324D01*
X1939047Y2139324D02*
X1908571Y2169800D01*
X1908571Y2169800D02*
X1862857Y2215515D01*
X1862857Y2215515D02*
X1832380Y2230753D01*
X1832380Y2230753D02*
X1801904Y2230753D01*
X1817142Y2154562D02*
X1786666Y2169800D01*
X1786666Y2169800D02*
X1756190Y2200277D01*
X1756190Y2200277D02*
X1740952Y2261229D01*
X1740952Y2261229D02*
X1740952Y2367896D01*
X1740952Y2367896D02*
X1756190Y2428848D01*
X1756190Y2428848D02*
X1786666Y2459324D01*
X1786666Y2459324D02*
X1817142Y2474562D01*
X1817142Y2474562D02*
X1878095Y2474562D01*
X1878095Y2474562D02*
X1908571Y2459324D01*
X1908571Y2459324D02*
X1939047Y2428848D01*
X1939047Y2428848D02*
X1954285Y2367896D01*
X1954285Y2367896D02*
X1954285Y2261229D01*
X1954285Y2261229D02*
X1939047Y2200277D01*
X1939047Y2200277D02*
X1908571Y2169800D01*
X1908571Y2169800D02*
X1878095Y2154562D01*
X1878095Y2154562D02*
X1817142Y2154562D01*
X2076190Y2444086D02*
X2091428Y2459324D01*
X2091428Y2459324D02*
X2121904Y2474562D01*
X2121904Y2474562D02*
X2198095Y2474562D01*
X2198095Y2474562D02*
X2228571Y2459324D01*
X2228571Y2459324D02*
X2243809Y2444086D01*
X2243809Y2444086D02*
X2259047Y2413610D01*
X2259047Y2413610D02*
X2259047Y2383134D01*
X2259047Y2383134D02*
X2243809Y2337420D01*
X2243809Y2337420D02*
X2060952Y2154562D01*
X2060952Y2154562D02*
X2259047Y2154562D01*
D11*
X6541667Y1262336D02*
X6503571Y1224240D01*
X6503571Y1224240D02*
X6389286Y1186145D01*
X6389286Y1186145D02*
X6313095Y1186145D01*
X6313095Y1186145D02*
X6198809Y1224240D01*
X6198809Y1224240D02*
X6122619Y1300431D01*
X6122619Y1300431D02*
X6084524Y1376621D01*
X6084524Y1376621D02*
X6046428Y1529002D01*
X6046428Y1529002D02*
X6046428Y1643288D01*
X6046428Y1643288D02*
X6084524Y1795669D01*
X6084524Y1795669D02*
X6122619Y1871860D01*
X6122619Y1871860D02*
X6198809Y1948050D01*
X6198809Y1948050D02*
X6313095Y1986145D01*
X6313095Y1986145D02*
X6389286Y1986145D01*
X6389286Y1986145D02*
X6503571Y1948050D01*
X6503571Y1948050D02*
X6541667Y1909955D01*
X7227381Y1719479D02*
X7227381Y1186145D01*
X7036905Y2024240D02*
X6846428Y1452812D01*
X6846428Y1452812D02*
X7341667Y1452812D01*
D14*
X-6519048Y4530891D02*
X-6519048Y5030891D01*
X-6519048Y5030891D02*
X-6400000Y5030891D01*
X-6400000Y5030891D02*
X-6328572Y5007081D01*
X-6328572Y5007081D02*
X-6280953Y4959462D01*
X-6280953Y4959462D02*
X-6257143Y4911843D01*
X-6257143Y4911843D02*
X-6233334Y4816605D01*
X-6233334Y4816605D02*
X-6233334Y4745177D01*
X-6233334Y4745177D02*
X-6257143Y4649939D01*
X-6257143Y4649939D02*
X-6280953Y4602320D01*
X-6280953Y4602320D02*
X-6328572Y4554700D01*
X-6328572Y4554700D02*
X-6400000Y4530891D01*
X-6400000Y4530891D02*
X-6519048Y4530891D01*
X-5757143Y4530891D02*
X-6042857Y4530891D01*
X-5900000Y4530891D02*
X-5900000Y5030891D01*
X-5900000Y5030891D02*
X-5947619Y4959462D01*
X-5947619Y4959462D02*
X-5995238Y4911843D01*
X-5995238Y4911843D02*
X-6042857Y4888034D01*
D11*
X-172336Y-5914285D02*
X-134240Y-5952381D01*
X-134240Y-5952381D02*
X-96145Y-6066666D01*
X-96145Y-6066666D02*
X-96145Y-6142857D01*
X-96145Y-6142857D02*
X-134240Y-6257143D01*
X-134240Y-6257143D02*
X-210431Y-6333333D01*
X-210431Y-6333333D02*
X-286621Y-6371428D01*
X-286621Y-6371428D02*
X-439002Y-6409524D01*
X-439002Y-6409524D02*
X-553288Y-6409524D01*
X-553288Y-6409524D02*
X-705669Y-6371428D01*
X-705669Y-6371428D02*
X-781860Y-6333333D01*
X-781860Y-6333333D02*
X-858050Y-6257143D01*
X-858050Y-6257143D02*
X-896145Y-6142857D01*
X-896145Y-6142857D02*
X-896145Y-6066666D01*
X-896145Y-6066666D02*
X-858050Y-5952381D01*
X-858050Y-5952381D02*
X-819955Y-5914285D01*
X-96145Y-5152381D02*
X-96145Y-5609524D01*
X-96145Y-5380952D02*
X-896145Y-5380952D01*
X-896145Y-5380952D02*
X-781860Y-5457143D01*
X-781860Y-5457143D02*
X-705669Y-5533333D01*
X-705669Y-5533333D02*
X-667574Y-5609524D01*
X-896145Y-4885714D02*
X-896145Y-4390476D01*
X-896145Y-4390476D02*
X-591383Y-4657142D01*
X-591383Y-4657142D02*
X-591383Y-4542857D01*
X-591383Y-4542857D02*
X-553288Y-4466666D01*
X-553288Y-4466666D02*
X-515193Y-4428571D01*
X-515193Y-4428571D02*
X-439002Y-4390476D01*
X-439002Y-4390476D02*
X-248526Y-4390476D01*
X-248526Y-4390476D02*
X-172336Y-4428571D01*
X-172336Y-4428571D02*
X-134240Y-4466666D01*
X-134240Y-4466666D02*
X-96145Y-4542857D01*
X-96145Y-4542857D02*
X-96145Y-4771428D01*
X-96145Y-4771428D02*
X-134240Y-4847619D01*
X-134240Y-4847619D02*
X-172336Y-4885714D01*
D14*
X-6564048Y-4983109D02*
X-6564048Y-4483109D01*
X-6564048Y-4483109D02*
X-6445000Y-4483109D01*
X-6445000Y-4483109D02*
X-6373572Y-4506919D01*
X-6373572Y-4506919D02*
X-6325953Y-4554538D01*
X-6325953Y-4554538D02*
X-6302143Y-4602157D01*
X-6302143Y-4602157D02*
X-6278334Y-4697395D01*
X-6278334Y-4697395D02*
X-6278334Y-4768823D01*
X-6278334Y-4768823D02*
X-6302143Y-4864061D01*
X-6302143Y-4864061D02*
X-6325953Y-4911680D01*
X-6325953Y-4911680D02*
X-6373572Y-4959300D01*
X-6373572Y-4959300D02*
X-6445000Y-4983109D01*
X-6445000Y-4983109D02*
X-6564048Y-4983109D01*
X-5849762Y-4649776D02*
X-5849762Y-4983109D01*
X-5968810Y-4459300D02*
X-6087857Y-4816442D01*
X-6087857Y-4816442D02*
X-5778334Y-4816442D01*
D12*
X-6086191Y-145438D02*
X-6086191Y174562D01*
X-6086191Y174562D02*
X-6010001Y174562D01*
X-6010001Y174562D02*
X-5964286Y159324D01*
X-5964286Y159324D02*
X-5933810Y128848D01*
X-5933810Y128848D02*
X-5918572Y98372D01*
X-5918572Y98372D02*
X-5903334Y37420D01*
X-5903334Y37420D02*
X-5903334Y-8295D01*
X-5903334Y-8295D02*
X-5918572Y-69247D01*
X-5918572Y-69247D02*
X-5933810Y-99723D01*
X-5933810Y-99723D02*
X-5964286Y-130200D01*
X-5964286Y-130200D02*
X-6010001Y-145438D01*
X-6010001Y-145438D02*
X-6086191Y-145438D01*
X-5781429Y144086D02*
X-5766191Y159324D01*
X-5766191Y159324D02*
X-5735715Y174562D01*
X-5735715Y174562D02*
X-5659524Y174562D01*
X-5659524Y174562D02*
X-5629048Y159324D01*
X-5629048Y159324D02*
X-5613810Y144086D01*
X-5613810Y144086D02*
X-5598572Y113610D01*
X-5598572Y113610D02*
X-5598572Y83134D01*
X-5598572Y83134D02*
X-5613810Y37420D01*
X-5613810Y37420D02*
X-5796667Y-145438D01*
X-5796667Y-145438D02*
X-5598572Y-145438D01*
D11*
X6135714Y-4437664D02*
X6097618Y-4475760D01*
X6097618Y-4475760D02*
X5983333Y-4513855D01*
X5983333Y-4513855D02*
X5907142Y-4513855D01*
X5907142Y-4513855D02*
X5792856Y-4475760D01*
X5792856Y-4475760D02*
X5716666Y-4399569D01*
X5716666Y-4399569D02*
X5678571Y-4323379D01*
X5678571Y-4323379D02*
X5640475Y-4170998D01*
X5640475Y-4170998D02*
X5640475Y-4056712D01*
X5640475Y-4056712D02*
X5678571Y-3904331D01*
X5678571Y-3904331D02*
X5716666Y-3828140D01*
X5716666Y-3828140D02*
X5792856Y-3751950D01*
X5792856Y-3751950D02*
X5907142Y-3713855D01*
X5907142Y-3713855D02*
X5983333Y-3713855D01*
X5983333Y-3713855D02*
X6097618Y-3751950D01*
X6097618Y-3751950D02*
X6135714Y-3790045D01*
X6897618Y-4513855D02*
X6440475Y-4513855D01*
X6669047Y-4513855D02*
X6669047Y-3713855D01*
X6669047Y-3713855D02*
X6592856Y-3828140D01*
X6592856Y-3828140D02*
X6516666Y-3904331D01*
X6516666Y-3904331D02*
X6440475Y-3942426D01*
X7392857Y-3713855D02*
X7469047Y-3713855D01*
X7469047Y-3713855D02*
X7545238Y-3751950D01*
X7545238Y-3751950D02*
X7583333Y-3790045D01*
X7583333Y-3790045D02*
X7621428Y-3866236D01*
X7621428Y-3866236D02*
X7659523Y-4018617D01*
X7659523Y-4018617D02*
X7659523Y-4209093D01*
X7659523Y-4209093D02*
X7621428Y-4361474D01*
X7621428Y-4361474D02*
X7583333Y-4437664D01*
X7583333Y-4437664D02*
X7545238Y-4475760D01*
X7545238Y-4475760D02*
X7469047Y-4513855D01*
X7469047Y-4513855D02*
X7392857Y-4513855D01*
X7392857Y-4513855D02*
X7316666Y-4475760D01*
X7316666Y-4475760D02*
X7278571Y-4437664D01*
X7278571Y-4437664D02*
X7240476Y-4361474D01*
X7240476Y-4361474D02*
X7202380Y-4209093D01*
X7202380Y-4209093D02*
X7202380Y-4018617D01*
X7202380Y-4018617D02*
X7240476Y-3866236D01*
X7240476Y-3866236D02*
X7278571Y-3790045D01*
X7278571Y-3790045D02*
X7316666Y-3751950D01*
X7316666Y-3751950D02*
X7392857Y-3713855D01*
D14*
%TO.C,R2*%
X2875000Y4820000D02*
X3925000Y4820000D01*
X2875000Y4280000D02*
X2875000Y4820000D01*
X3925000Y4820000D02*
X3925000Y4280000D01*
X3925000Y4280000D02*
X2875000Y4280000D01*
%TO.C,R7*%
X3430000Y-5975000D02*
X3970000Y-5975000D01*
X3430000Y-7025000D02*
X3430000Y-5975000D01*
X3970000Y-5975000D02*
X3970000Y-7025000D01*
X3970000Y-7025000D02*
X3430000Y-7025000D01*
%TO.C,R4*%
X775000Y4820000D02*
X1825000Y4820000D01*
X775000Y4280000D02*
X775000Y4820000D01*
X1825000Y4820000D02*
X1825000Y4280000D01*
X1825000Y4280000D02*
X775000Y4280000D01*
%TO.C,C7*%
X3075000Y7000000D02*
X6275000Y7000000D01*
X3075000Y5400000D02*
X3075000Y7000000D01*
X6275000Y7000000D02*
X6275000Y5400000D01*
X6275000Y5400000D02*
X3075000Y5400000D01*
%TO.C,R3*%
X-1325000Y4820000D02*
X-275000Y4820000D01*
X-1325000Y4280000D02*
X-1325000Y4820000D01*
X-275000Y4820000D02*
X-275000Y4280000D01*
X-275000Y4280000D02*
X-1325000Y4280000D01*
%TO.C,C14*%
X1050000Y-3800000D02*
X2650000Y-3800000D01*
X1050000Y-7000000D02*
X1050000Y-3800000D01*
X2650000Y-3800000D02*
X2650000Y-7000000D01*
X2650000Y-7000000D02*
X1050000Y-7000000D01*
%TO.C,C11*%
X5050000Y-5650000D02*
X8250000Y-5650000D01*
X5050000Y-7250000D02*
X5050000Y-5650000D01*
X8250000Y-5650000D02*
X8250000Y-7250000D01*
X8250000Y-7250000D02*
X5050000Y-7250000D01*
%TO.C,R8*%
X-2370000Y-3525000D02*
X-1830000Y-3525000D01*
X-2370000Y-4575000D02*
X-2370000Y-3525000D01*
X-1830000Y-3525000D02*
X-1830000Y-4575000D01*
X-1830000Y-4575000D02*
X-2370000Y-4575000D01*
%TO.C,C6*%
X-1550000Y7000000D02*
X1650000Y7000000D01*
X-1550000Y5400000D02*
X-1550000Y7000000D01*
X1650000Y7000000D02*
X1650000Y5400000D01*
X1650000Y5400000D02*
X-1550000Y5400000D01*
%TO.C,C3*%
X5075000Y4650000D02*
X8275000Y4650000D01*
X5075000Y3050000D02*
X5075000Y4650000D01*
X8275000Y4650000D02*
X8275000Y3050000D01*
X8275000Y3050000D02*
X5075000Y3050000D01*
%TO.C,Q3*%
X-2575000Y50000D02*
X-1275000Y50000D01*
X-2575000Y-2850000D02*
X-2575000Y50000D01*
X-1600000Y-2850000D02*
X-2575000Y-2850000D01*
X-1275000Y50000D02*
X-1275000Y-2525000D01*
X-1275000Y-2525000D02*
X-1600000Y-2850000D01*
%TO.C,Q1*%
X-2575000Y3750000D02*
X-1275000Y3750000D01*
X-2575000Y850000D02*
X-2575000Y3750000D01*
X-1600000Y850000D02*
X-2575000Y850000D01*
X-1275000Y3750000D02*
X-1275000Y1175000D01*
X-1275000Y1175000D02*
X-1600000Y850000D01*
%TO.C,R5*%
X7625000Y5770000D02*
X8675000Y5770000D01*
X7625000Y5230000D02*
X7625000Y5770000D01*
X8675000Y5770000D02*
X8675000Y5230000D01*
X8675000Y5230000D02*
X7625000Y5230000D01*
%TO.C,R10*%
X3430000Y-3725000D02*
X3970000Y-3725000D01*
X3430000Y-4775000D02*
X3430000Y-3725000D01*
X3970000Y-3725000D02*
X3970000Y-4775000D01*
X3970000Y-4775000D02*
X3430000Y-4775000D01*
%TO.C,R9*%
X-2370000Y-5425000D02*
X-1830000Y-5425000D01*
X-2370000Y-6475000D02*
X-2370000Y-5425000D01*
X-1830000Y-5425000D02*
X-1830000Y-6475000D01*
X-1830000Y-6475000D02*
X-2370000Y-6475000D01*
%TO.C,C5*%
X-7750000Y3650000D02*
X-4550000Y3650000D01*
X-7750000Y2050000D02*
X-7750000Y3650000D01*
X-4550000Y3650000D02*
X-4550000Y2050000D01*
X-4550000Y2050000D02*
X-7750000Y2050000D01*
%TO.C,Q4*%
X1350000Y50000D02*
X2650000Y50000D01*
X1350000Y-2850000D02*
X1350000Y50000D01*
X2325000Y-2850000D02*
X1350000Y-2850000D01*
X2650000Y50000D02*
X2650000Y-2525000D01*
X2650000Y-2525000D02*
X2325000Y-2850000D01*
%TO.C,C12*%
X-7750000Y-2050000D02*
X-4550000Y-2050000D01*
X-7750000Y-3650000D02*
X-7750000Y-2050000D01*
X-4550000Y-2050000D02*
X-4550000Y-3650000D01*
X-4550000Y-3650000D02*
X-7750000Y-3650000D01*
%TO.C,D3*%
X6050000Y150000D02*
X7350000Y150000D01*
X6050000Y-2750000D02*
X6050000Y150000D01*
X7025000Y-2750000D02*
X6050000Y-2750000D01*
X7350000Y150000D02*
X7350000Y-2425000D01*
X7350000Y-2425000D02*
X7025000Y-2750000D01*
%TO.C,Q2*%
X1350000Y3750000D02*
X2650000Y3750000D01*
X1350000Y850000D02*
X1350000Y3750000D01*
X2325000Y850000D02*
X1350000Y850000D01*
X2650000Y3750000D02*
X2650000Y1175000D01*
X2650000Y1175000D02*
X2325000Y850000D01*
%TO.C,C4*%
X5075000Y2350000D02*
X8275000Y2350000D01*
X5075000Y750000D02*
X5075000Y2350000D01*
X8275000Y2350000D02*
X8275000Y750000D01*
X8275000Y750000D02*
X5075000Y750000D01*
%TO.C,D1*%
X-8450000Y7400000D02*
X-3850000Y7400000D01*
X-8450000Y4400000D02*
X-8450000Y7400000D01*
X-8450000Y4400000D02*
X-3850000Y4400000D01*
X-6651180Y6650320D02*
X-6651180Y5100920D01*
X-6651180Y5901020D02*
X-7649400Y5901020D01*
X-5500560Y5901020D02*
X-6651180Y6650320D01*
X-5500560Y5901020D02*
X-6651180Y5100920D01*
X-5500560Y5901020D02*
X-4598860Y5901020D01*
X-5500560Y5100920D02*
X-5500560Y6701120D01*
X-3850000Y7400000D02*
X-3850000Y4400000D01*
%TO.C,C13*%
X-1260000Y-3800000D02*
X340000Y-3800000D01*
X-1260000Y-7000000D02*
X-1260000Y-3800000D01*
X340000Y-3800000D02*
X340000Y-7000000D01*
X340000Y-7000000D02*
X-1260000Y-7000000D01*
%TO.C,D4*%
X-8495000Y-7400000D02*
X-8495000Y-4400000D01*
X-6844440Y-5100920D02*
X-6844440Y-6701120D01*
X-6844440Y-5901020D02*
X-7746140Y-5901020D01*
X-6844440Y-5901020D02*
X-5693820Y-5100920D01*
X-6844440Y-5901020D02*
X-5693820Y-6650320D01*
X-5693820Y-5901020D02*
X-4695600Y-5901020D01*
X-5693820Y-6650320D02*
X-5693820Y-5100920D01*
X-3895000Y-4400000D02*
X-8495000Y-4400000D01*
X-3895000Y-4400000D02*
X-3895000Y-7400000D01*
X-3895000Y-7400000D02*
X-8495000Y-7400000D01*
%TO.C,D2*%
X-6500000Y1450000D02*
X-5200000Y1450000D01*
X-6500000Y-1450000D02*
X-6500000Y1450000D01*
X-5525000Y-1450000D02*
X-6500000Y-1450000D01*
X-5200000Y1450000D02*
X-5200000Y-1125000D01*
X-5200000Y-1125000D02*
X-5525000Y-1450000D01*
%TO.C,C10*%
X5050000Y-3350000D02*
X8250000Y-3350000D01*
X5050000Y-4950000D02*
X5050000Y-3350000D01*
X8250000Y-3350000D02*
X8250000Y-4950000D01*
X8250000Y-4950000D02*
X5050000Y-4950000D01*
%TD*%
M02*
