%TF.GenerationSoftware,KiCad,Pcbnew,8.0.9-8.0.9-0~ubuntu24.04.1*%
%TF.CreationDate,2025-07-21T09:14:06-04:00*%
%TF.ProjectId,cap_multiplier_tile,6361705f-6d75-46c7-9469-706c6965725f,0.1.X*%
%TF.SameCoordinates,Original*%
%TF.FileFunction,OtherDrawing,Comment*%
%FSLAX46Y46*%
G04 Gerber Fmt 4.6, Leading zero omitted, Abs format (unit mm)*
G04 Created by KiCad (PCBNEW 8.0.9-8.0.9-0~ubuntu24.04.1) date 2025-07-21 09:14:06*
%MOMM*%
%LPD*%
G01*
G04 APERTURE LIST*
%ADD10C,0.200000*%
%ADD11C,0.150000*%
%ADD12C,0.300000*%
G04 APERTURE END LIST*
D10*
X-14428572Y-5594742D02*
X-13742857Y-5594742D01*
X-14085715Y-6794742D02*
X-14085715Y-5594742D01*
X-12828571Y-6794742D02*
X-12828571Y-6166171D01*
X-12828571Y-6166171D02*
X-12885714Y-6051885D01*
X-12885714Y-6051885D02*
X-13000000Y-5994742D01*
X-13000000Y-5994742D02*
X-13228571Y-5994742D01*
X-13228571Y-5994742D02*
X-13342857Y-6051885D01*
X-12828571Y-6737600D02*
X-12942857Y-6794742D01*
X-12942857Y-6794742D02*
X-13228571Y-6794742D01*
X-13228571Y-6794742D02*
X-13342857Y-6737600D01*
X-13342857Y-6737600D02*
X-13400000Y-6623314D01*
X-13400000Y-6623314D02*
X-13400000Y-6509028D01*
X-13400000Y-6509028D02*
X-13342857Y-6394742D01*
X-13342857Y-6394742D02*
X-13228571Y-6337600D01*
X-13228571Y-6337600D02*
X-12942857Y-6337600D01*
X-12942857Y-6337600D02*
X-12828571Y-6280457D01*
X-12257143Y-6794742D02*
X-12257143Y-5594742D01*
X-12257143Y-6051885D02*
X-12142857Y-5994742D01*
X-12142857Y-5994742D02*
X-11914286Y-5994742D01*
X-11914286Y-5994742D02*
X-11800000Y-6051885D01*
X-11800000Y-6051885D02*
X-11742857Y-6109028D01*
X-11742857Y-6109028D02*
X-11685715Y-6223314D01*
X-11685715Y-6223314D02*
X-11685715Y-6566171D01*
X-11685715Y-6566171D02*
X-11742857Y-6680457D01*
X-11742857Y-6680457D02*
X-11800000Y-6737600D01*
X-11800000Y-6737600D02*
X-11914286Y-6794742D01*
X-11914286Y-6794742D02*
X-12142857Y-6794742D01*
X-12142857Y-6794742D02*
X-12257143Y-6737600D01*
D11*
X-15045181Y-14583331D02*
X-16045181Y-14583331D01*
X-15045181Y-14011903D02*
X-15616610Y-14440474D01*
X-16045181Y-14011903D02*
X-15473753Y-14583331D01*
X-15045181Y-13583331D02*
X-16045181Y-13583331D01*
X-15045181Y-13107141D02*
X-16045181Y-13107141D01*
X-15045181Y-12535713D02*
X-15616610Y-12964284D01*
X-16045181Y-12535713D02*
X-15473753Y-13107141D01*
X-15045181Y-12107141D02*
X-16045181Y-12107141D01*
X-16045181Y-11773808D02*
X-16045181Y-11202380D01*
X-15045181Y-11488094D02*
X-16045181Y-11488094D01*
X-15140420Y-10869046D02*
X-15092800Y-10821427D01*
X-15092800Y-10821427D02*
X-15045181Y-10869046D01*
X-15045181Y-10869046D02*
X-15092800Y-10916665D01*
X-15092800Y-10916665D02*
X-15140420Y-10869046D01*
X-15140420Y-10869046D02*
X-15045181Y-10869046D01*
X-15664229Y-10869046D02*
X-15616610Y-10821427D01*
X-15616610Y-10821427D02*
X-15568991Y-10869046D01*
X-15568991Y-10869046D02*
X-15616610Y-10916665D01*
X-15616610Y-10916665D02*
X-15664229Y-10869046D01*
X-15664229Y-10869046D02*
X-15568991Y-10869046D01*
X-15711848Y-9726189D02*
X-15045181Y-9535713D01*
X-15045181Y-9535713D02*
X-15521372Y-9345237D01*
X-15521372Y-9345237D02*
X-15045181Y-9154761D01*
X-15045181Y-9154761D02*
X-15711848Y-8964285D01*
X-15045181Y-8583332D02*
X-15711848Y-8583332D01*
X-16045181Y-8583332D02*
X-15997562Y-8630951D01*
X-15997562Y-8630951D02*
X-15949943Y-8583332D01*
X-15949943Y-8583332D02*
X-15997562Y-8535713D01*
X-15997562Y-8535713D02*
X-16045181Y-8583332D01*
X-16045181Y-8583332D02*
X-15949943Y-8583332D01*
X-15045181Y-7678571D02*
X-16045181Y-7678571D01*
X-15092800Y-7678571D02*
X-15045181Y-7773809D01*
X-15045181Y-7773809D02*
X-15045181Y-7964285D01*
X-15045181Y-7964285D02*
X-15092800Y-8059523D01*
X-15092800Y-8059523D02*
X-15140420Y-8107142D01*
X-15140420Y-8107142D02*
X-15235658Y-8154761D01*
X-15235658Y-8154761D02*
X-15521372Y-8154761D01*
X-15521372Y-8154761D02*
X-15616610Y-8107142D01*
X-15616610Y-8107142D02*
X-15664229Y-8059523D01*
X-15664229Y-8059523D02*
X-15711848Y-7964285D01*
X-15711848Y-7964285D02*
X-15711848Y-7773809D01*
X-15711848Y-7773809D02*
X-15664229Y-7678571D01*
X-15711848Y-7345237D02*
X-15711848Y-6964285D01*
X-16045181Y-7202380D02*
X-15188039Y-7202380D01*
X-15188039Y-7202380D02*
X-15092800Y-7154761D01*
X-15092800Y-7154761D02*
X-15045181Y-7059523D01*
X-15045181Y-7059523D02*
X-15045181Y-6964285D01*
X-15045181Y-6630951D02*
X-16045181Y-6630951D01*
X-15045181Y-6202380D02*
X-15568991Y-6202380D01*
X-15568991Y-6202380D02*
X-15664229Y-6249999D01*
X-15664229Y-6249999D02*
X-15711848Y-6345237D01*
X-15711848Y-6345237D02*
X-15711848Y-6488094D01*
X-15711848Y-6488094D02*
X-15664229Y-6583332D01*
X-15664229Y-6583332D02*
X-15616610Y-6630951D01*
X-15140420Y-5726189D02*
X-15092800Y-5678570D01*
X-15092800Y-5678570D02*
X-15045181Y-5726189D01*
X-15045181Y-5726189D02*
X-15092800Y-5773808D01*
X-15092800Y-5773808D02*
X-15140420Y-5726189D01*
X-15140420Y-5726189D02*
X-15045181Y-5726189D01*
X-15664229Y-5726189D02*
X-15616610Y-5678570D01*
X-15616610Y-5678570D02*
X-15568991Y-5726189D01*
X-15568991Y-5726189D02*
X-15616610Y-5773808D01*
X-15616610Y-5773808D02*
X-15664229Y-5726189D01*
X-15664229Y-5726189D02*
X-15568991Y-5726189D01*
X-15045181Y-3964285D02*
X-15045181Y-4535713D01*
X-15045181Y-4249999D02*
X-16045181Y-4249999D01*
X-16045181Y-4249999D02*
X-15902324Y-4345237D01*
X-15902324Y-4345237D02*
X-15807086Y-4440475D01*
X-15807086Y-4440475D02*
X-15759467Y-4535713D01*
X-15140420Y-3535713D02*
X-15092800Y-3488094D01*
X-15092800Y-3488094D02*
X-15045181Y-3535713D01*
X-15045181Y-3535713D02*
X-15092800Y-3583332D01*
X-15092800Y-3583332D02*
X-15140420Y-3535713D01*
X-15140420Y-3535713D02*
X-15045181Y-3535713D01*
X-16045181Y-2583333D02*
X-16045181Y-3059523D01*
X-16045181Y-3059523D02*
X-15568991Y-3107142D01*
X-15568991Y-3107142D02*
X-15616610Y-3059523D01*
X-15616610Y-3059523D02*
X-15664229Y-2964285D01*
X-15664229Y-2964285D02*
X-15664229Y-2726190D01*
X-15664229Y-2726190D02*
X-15616610Y-2630952D01*
X-15616610Y-2630952D02*
X-15568991Y-2583333D01*
X-15568991Y-2583333D02*
X-15473753Y-2535714D01*
X-15473753Y-2535714D02*
X-15235658Y-2535714D01*
X-15235658Y-2535714D02*
X-15140420Y-2583333D01*
X-15140420Y-2583333D02*
X-15092800Y-2630952D01*
X-15092800Y-2630952D02*
X-15045181Y-2726190D01*
X-15045181Y-2726190D02*
X-15045181Y-2964285D01*
X-15045181Y-2964285D02*
X-15092800Y-3059523D01*
X-15092800Y-3059523D02*
X-15140420Y-3107142D01*
X-15045181Y-2107142D02*
X-15711848Y-2107142D01*
X-15616610Y-2107142D02*
X-15664229Y-2059523D01*
X-15664229Y-2059523D02*
X-15711848Y-1964285D01*
X-15711848Y-1964285D02*
X-15711848Y-1821428D01*
X-15711848Y-1821428D02*
X-15664229Y-1726190D01*
X-15664229Y-1726190D02*
X-15568991Y-1678571D01*
X-15568991Y-1678571D02*
X-15045181Y-1678571D01*
X-15568991Y-1678571D02*
X-15664229Y-1630952D01*
X-15664229Y-1630952D02*
X-15711848Y-1535714D01*
X-15711848Y-1535714D02*
X-15711848Y-1392857D01*
X-15711848Y-1392857D02*
X-15664229Y-1297618D01*
X-15664229Y-1297618D02*
X-15568991Y-1249999D01*
X-15568991Y-1249999D02*
X-15045181Y-1249999D01*
X-15045181Y-773809D02*
X-15711848Y-773809D01*
X-15616610Y-773809D02*
X-15664229Y-726190D01*
X-15664229Y-726190D02*
X-15711848Y-630952D01*
X-15711848Y-630952D02*
X-15711848Y-488095D01*
X-15711848Y-488095D02*
X-15664229Y-392857D01*
X-15664229Y-392857D02*
X-15568991Y-345238D01*
X-15568991Y-345238D02*
X-15045181Y-345238D01*
X-15568991Y-345238D02*
X-15664229Y-297619D01*
X-15664229Y-297619D02*
X-15711848Y-202381D01*
X-15711848Y-202381D02*
X-15711848Y-59524D01*
X-15711848Y-59524D02*
X-15664229Y35715D01*
X-15664229Y35715D02*
X-15568991Y83334D01*
X-15568991Y83334D02*
X-15045181Y83334D01*
D10*
X11571428Y-7594742D02*
X12257143Y-7594742D01*
X11914285Y-8794742D02*
X11914285Y-7594742D01*
X13171429Y-8794742D02*
X13171429Y-8166171D01*
X13171429Y-8166171D02*
X13114286Y-8051885D01*
X13114286Y-8051885D02*
X13000000Y-7994742D01*
X13000000Y-7994742D02*
X12771429Y-7994742D01*
X12771429Y-7994742D02*
X12657143Y-8051885D01*
X13171429Y-8737600D02*
X13057143Y-8794742D01*
X13057143Y-8794742D02*
X12771429Y-8794742D01*
X12771429Y-8794742D02*
X12657143Y-8737600D01*
X12657143Y-8737600D02*
X12600000Y-8623314D01*
X12600000Y-8623314D02*
X12600000Y-8509028D01*
X12600000Y-8509028D02*
X12657143Y-8394742D01*
X12657143Y-8394742D02*
X12771429Y-8337600D01*
X12771429Y-8337600D02*
X13057143Y-8337600D01*
X13057143Y-8337600D02*
X13171429Y-8280457D01*
X13742857Y-8794742D02*
X13742857Y-7594742D01*
X13742857Y-8051885D02*
X13857143Y-7994742D01*
X13857143Y-7994742D02*
X14085714Y-7994742D01*
X14085714Y-7994742D02*
X14200000Y-8051885D01*
X14200000Y-8051885D02*
X14257143Y-8109028D01*
X14257143Y-8109028D02*
X14314285Y-8223314D01*
X14314285Y-8223314D02*
X14314285Y-8566171D01*
X14314285Y-8566171D02*
X14257143Y-8680457D01*
X14257143Y-8680457D02*
X14200000Y-8737600D01*
X14200000Y-8737600D02*
X14085714Y-8794742D01*
X14085714Y-8794742D02*
X13857143Y-8794742D01*
X13857143Y-8794742D02*
X13742857Y-8737600D01*
D11*
X15954819Y-14583331D02*
X14954819Y-14583331D01*
X15954819Y-14011903D02*
X15383390Y-14440474D01*
X14954819Y-14011903D02*
X15526247Y-14583331D01*
X15954819Y-13583331D02*
X14954819Y-13583331D01*
X15954819Y-13107141D02*
X14954819Y-13107141D01*
X15954819Y-12535713D02*
X15383390Y-12964284D01*
X14954819Y-12535713D02*
X15526247Y-13107141D01*
X15954819Y-12107141D02*
X14954819Y-12107141D01*
X14954819Y-11773808D02*
X14954819Y-11202380D01*
X15954819Y-11488094D02*
X14954819Y-11488094D01*
X15859580Y-10869046D02*
X15907200Y-10821427D01*
X15907200Y-10821427D02*
X15954819Y-10869046D01*
X15954819Y-10869046D02*
X15907200Y-10916665D01*
X15907200Y-10916665D02*
X15859580Y-10869046D01*
X15859580Y-10869046D02*
X15954819Y-10869046D01*
X15335771Y-10869046D02*
X15383390Y-10821427D01*
X15383390Y-10821427D02*
X15431009Y-10869046D01*
X15431009Y-10869046D02*
X15383390Y-10916665D01*
X15383390Y-10916665D02*
X15335771Y-10869046D01*
X15335771Y-10869046D02*
X15431009Y-10869046D01*
X15288152Y-9726189D02*
X15954819Y-9535713D01*
X15954819Y-9535713D02*
X15478628Y-9345237D01*
X15478628Y-9345237D02*
X15954819Y-9154761D01*
X15954819Y-9154761D02*
X15288152Y-8964285D01*
X15954819Y-8583332D02*
X15288152Y-8583332D01*
X14954819Y-8583332D02*
X15002438Y-8630951D01*
X15002438Y-8630951D02*
X15050057Y-8583332D01*
X15050057Y-8583332D02*
X15002438Y-8535713D01*
X15002438Y-8535713D02*
X14954819Y-8583332D01*
X14954819Y-8583332D02*
X15050057Y-8583332D01*
X15954819Y-7678571D02*
X14954819Y-7678571D01*
X15907200Y-7678571D02*
X15954819Y-7773809D01*
X15954819Y-7773809D02*
X15954819Y-7964285D01*
X15954819Y-7964285D02*
X15907200Y-8059523D01*
X15907200Y-8059523D02*
X15859580Y-8107142D01*
X15859580Y-8107142D02*
X15764342Y-8154761D01*
X15764342Y-8154761D02*
X15478628Y-8154761D01*
X15478628Y-8154761D02*
X15383390Y-8107142D01*
X15383390Y-8107142D02*
X15335771Y-8059523D01*
X15335771Y-8059523D02*
X15288152Y-7964285D01*
X15288152Y-7964285D02*
X15288152Y-7773809D01*
X15288152Y-7773809D02*
X15335771Y-7678571D01*
X15288152Y-7345237D02*
X15288152Y-6964285D01*
X14954819Y-7202380D02*
X15811961Y-7202380D01*
X15811961Y-7202380D02*
X15907200Y-7154761D01*
X15907200Y-7154761D02*
X15954819Y-7059523D01*
X15954819Y-7059523D02*
X15954819Y-6964285D01*
X15954819Y-6630951D02*
X14954819Y-6630951D01*
X15954819Y-6202380D02*
X15431009Y-6202380D01*
X15431009Y-6202380D02*
X15335771Y-6249999D01*
X15335771Y-6249999D02*
X15288152Y-6345237D01*
X15288152Y-6345237D02*
X15288152Y-6488094D01*
X15288152Y-6488094D02*
X15335771Y-6583332D01*
X15335771Y-6583332D02*
X15383390Y-6630951D01*
X15859580Y-5726189D02*
X15907200Y-5678570D01*
X15907200Y-5678570D02*
X15954819Y-5726189D01*
X15954819Y-5726189D02*
X15907200Y-5773808D01*
X15907200Y-5773808D02*
X15859580Y-5726189D01*
X15859580Y-5726189D02*
X15954819Y-5726189D01*
X15335771Y-5726189D02*
X15383390Y-5678570D01*
X15383390Y-5678570D02*
X15431009Y-5726189D01*
X15431009Y-5726189D02*
X15383390Y-5773808D01*
X15383390Y-5773808D02*
X15335771Y-5726189D01*
X15335771Y-5726189D02*
X15431009Y-5726189D01*
X15954819Y-3964285D02*
X15954819Y-4535713D01*
X15954819Y-4249999D02*
X14954819Y-4249999D01*
X14954819Y-4249999D02*
X15097676Y-4345237D01*
X15097676Y-4345237D02*
X15192914Y-4440475D01*
X15192914Y-4440475D02*
X15240533Y-4535713D01*
X15859580Y-3535713D02*
X15907200Y-3488094D01*
X15907200Y-3488094D02*
X15954819Y-3535713D01*
X15954819Y-3535713D02*
X15907200Y-3583332D01*
X15907200Y-3583332D02*
X15859580Y-3535713D01*
X15859580Y-3535713D02*
X15954819Y-3535713D01*
X14954819Y-2583333D02*
X14954819Y-3059523D01*
X14954819Y-3059523D02*
X15431009Y-3107142D01*
X15431009Y-3107142D02*
X15383390Y-3059523D01*
X15383390Y-3059523D02*
X15335771Y-2964285D01*
X15335771Y-2964285D02*
X15335771Y-2726190D01*
X15335771Y-2726190D02*
X15383390Y-2630952D01*
X15383390Y-2630952D02*
X15431009Y-2583333D01*
X15431009Y-2583333D02*
X15526247Y-2535714D01*
X15526247Y-2535714D02*
X15764342Y-2535714D01*
X15764342Y-2535714D02*
X15859580Y-2583333D01*
X15859580Y-2583333D02*
X15907200Y-2630952D01*
X15907200Y-2630952D02*
X15954819Y-2726190D01*
X15954819Y-2726190D02*
X15954819Y-2964285D01*
X15954819Y-2964285D02*
X15907200Y-3059523D01*
X15907200Y-3059523D02*
X15859580Y-3107142D01*
X15954819Y-2107142D02*
X15288152Y-2107142D01*
X15383390Y-2107142D02*
X15335771Y-2059523D01*
X15335771Y-2059523D02*
X15288152Y-1964285D01*
X15288152Y-1964285D02*
X15288152Y-1821428D01*
X15288152Y-1821428D02*
X15335771Y-1726190D01*
X15335771Y-1726190D02*
X15431009Y-1678571D01*
X15431009Y-1678571D02*
X15954819Y-1678571D01*
X15431009Y-1678571D02*
X15335771Y-1630952D01*
X15335771Y-1630952D02*
X15288152Y-1535714D01*
X15288152Y-1535714D02*
X15288152Y-1392857D01*
X15288152Y-1392857D02*
X15335771Y-1297618D01*
X15335771Y-1297618D02*
X15431009Y-1249999D01*
X15431009Y-1249999D02*
X15954819Y-1249999D01*
X15954819Y-773809D02*
X15288152Y-773809D01*
X15383390Y-773809D02*
X15335771Y-726190D01*
X15335771Y-726190D02*
X15288152Y-630952D01*
X15288152Y-630952D02*
X15288152Y-488095D01*
X15288152Y-488095D02*
X15335771Y-392857D01*
X15335771Y-392857D02*
X15431009Y-345238D01*
X15431009Y-345238D02*
X15954819Y-345238D01*
X15431009Y-345238D02*
X15335771Y-297619D01*
X15335771Y-297619D02*
X15288152Y-202381D01*
X15288152Y-202381D02*
X15288152Y-59524D01*
X15288152Y-59524D02*
X15335771Y35715D01*
X15335771Y35715D02*
X15431009Y83334D01*
X15431009Y83334D02*
X15954819Y83334D01*
D10*
X344742Y9571429D02*
X344742Y10257143D01*
X1544742Y9914286D02*
X344742Y9914286D01*
X1544742Y11171429D02*
X916171Y11171429D01*
X916171Y11171429D02*
X801885Y11114287D01*
X801885Y11114287D02*
X744742Y11000001D01*
X744742Y11000001D02*
X744742Y10771429D01*
X744742Y10771429D02*
X801885Y10657144D01*
X1487600Y11171429D02*
X1544742Y11057144D01*
X1544742Y11057144D02*
X1544742Y10771429D01*
X1544742Y10771429D02*
X1487600Y10657144D01*
X1487600Y10657144D02*
X1373314Y10600001D01*
X1373314Y10600001D02*
X1259028Y10600001D01*
X1259028Y10600001D02*
X1144742Y10657144D01*
X1144742Y10657144D02*
X1087600Y10771429D01*
X1087600Y10771429D02*
X1087600Y11057144D01*
X1087600Y11057144D02*
X1030457Y11171429D01*
X1544742Y11742858D02*
X344742Y11742858D01*
X801885Y11742858D02*
X744742Y11857143D01*
X744742Y11857143D02*
X744742Y12085715D01*
X744742Y12085715D02*
X801885Y12200001D01*
X801885Y12200001D02*
X859028Y12257143D01*
X859028Y12257143D02*
X973314Y12314286D01*
X973314Y12314286D02*
X1316171Y12314286D01*
X1316171Y12314286D02*
X1430457Y12257143D01*
X1430457Y12257143D02*
X1487600Y12200001D01*
X1487600Y12200001D02*
X1544742Y12085715D01*
X1544742Y12085715D02*
X1544742Y11857143D01*
X1544742Y11857143D02*
X1487600Y11742858D01*
D11*
X-6619047Y13045181D02*
X-6619047Y14045181D01*
X-6047619Y13045181D02*
X-6476190Y13616610D01*
X-6047619Y14045181D02*
X-6619047Y13473753D01*
X-5619047Y13045181D02*
X-5619047Y14045181D01*
X-5142857Y13045181D02*
X-5142857Y14045181D01*
X-4571429Y13045181D02*
X-5000000Y13616610D01*
X-4571429Y14045181D02*
X-5142857Y13473753D01*
X-4142857Y13045181D02*
X-4142857Y14045181D01*
X-3809524Y14045181D02*
X-3238096Y14045181D01*
X-3523810Y13045181D02*
X-3523810Y14045181D01*
X-2904762Y13140420D02*
X-2857143Y13092800D01*
X-2857143Y13092800D02*
X-2904762Y13045181D01*
X-2904762Y13045181D02*
X-2952381Y13092800D01*
X-2952381Y13092800D02*
X-2904762Y13140420D01*
X-2904762Y13140420D02*
X-2904762Y13045181D01*
X-2904762Y13664229D02*
X-2857143Y13616610D01*
X-2857143Y13616610D02*
X-2904762Y13568991D01*
X-2904762Y13568991D02*
X-2952381Y13616610D01*
X-2952381Y13616610D02*
X-2904762Y13664229D01*
X-2904762Y13664229D02*
X-2904762Y13568991D01*
X-1761905Y13711848D02*
X-1571429Y13045181D01*
X-1571429Y13045181D02*
X-1380953Y13521372D01*
X-1380953Y13521372D02*
X-1190477Y13045181D01*
X-1190477Y13045181D02*
X-1000001Y13711848D01*
X-619048Y13045181D02*
X-619048Y13711848D01*
X-619048Y14045181D02*
X-666667Y13997562D01*
X-666667Y13997562D02*
X-619048Y13949943D01*
X-619048Y13949943D02*
X-571429Y13997562D01*
X-571429Y13997562D02*
X-619048Y14045181D01*
X-619048Y14045181D02*
X-619048Y13949943D01*
X285713Y13045181D02*
X285713Y14045181D01*
X285713Y13092800D02*
X190475Y13045181D01*
X190475Y13045181D02*
X-1Y13045181D01*
X-1Y13045181D02*
X-95239Y13092800D01*
X-95239Y13092800D02*
X-142858Y13140420D01*
X-142858Y13140420D02*
X-190477Y13235658D01*
X-190477Y13235658D02*
X-190477Y13521372D01*
X-190477Y13521372D02*
X-142858Y13616610D01*
X-142858Y13616610D02*
X-95239Y13664229D01*
X-95239Y13664229D02*
X-1Y13711848D01*
X-1Y13711848D02*
X190475Y13711848D01*
X190475Y13711848D02*
X285713Y13664229D01*
X619047Y13711848D02*
X999999Y13711848D01*
X761904Y14045181D02*
X761904Y13188039D01*
X761904Y13188039D02*
X809523Y13092800D01*
X809523Y13092800D02*
X904761Y13045181D01*
X904761Y13045181D02*
X999999Y13045181D01*
X1333333Y13045181D02*
X1333333Y14045181D01*
X1761904Y13045181D02*
X1761904Y13568991D01*
X1761904Y13568991D02*
X1714285Y13664229D01*
X1714285Y13664229D02*
X1619047Y13711848D01*
X1619047Y13711848D02*
X1476190Y13711848D01*
X1476190Y13711848D02*
X1380952Y13664229D01*
X1380952Y13664229D02*
X1333333Y13616610D01*
X2238095Y13140420D02*
X2285714Y13092800D01*
X2285714Y13092800D02*
X2238095Y13045181D01*
X2238095Y13045181D02*
X2190476Y13092800D01*
X2190476Y13092800D02*
X2238095Y13140420D01*
X2238095Y13140420D02*
X2238095Y13045181D01*
X2238095Y13664229D02*
X2285714Y13616610D01*
X2285714Y13616610D02*
X2238095Y13568991D01*
X2238095Y13568991D02*
X2190476Y13616610D01*
X2190476Y13616610D02*
X2238095Y13664229D01*
X2238095Y13664229D02*
X2238095Y13568991D01*
X3904761Y13711848D02*
X3904761Y13045181D01*
X3666666Y14092800D02*
X3428571Y13378515D01*
X3428571Y13378515D02*
X4047618Y13378515D01*
X4428571Y13045181D02*
X4428571Y13711848D01*
X4428571Y13616610D02*
X4476190Y13664229D01*
X4476190Y13664229D02*
X4571428Y13711848D01*
X4571428Y13711848D02*
X4714285Y13711848D01*
X4714285Y13711848D02*
X4809523Y13664229D01*
X4809523Y13664229D02*
X4857142Y13568991D01*
X4857142Y13568991D02*
X4857142Y13045181D01*
X4857142Y13568991D02*
X4904761Y13664229D01*
X4904761Y13664229D02*
X4999999Y13711848D01*
X4999999Y13711848D02*
X5142856Y13711848D01*
X5142856Y13711848D02*
X5238095Y13664229D01*
X5238095Y13664229D02*
X5285714Y13568991D01*
X5285714Y13568991D02*
X5285714Y13045181D01*
X5761904Y13045181D02*
X5761904Y13711848D01*
X5761904Y13616610D02*
X5809523Y13664229D01*
X5809523Y13664229D02*
X5904761Y13711848D01*
X5904761Y13711848D02*
X6047618Y13711848D01*
X6047618Y13711848D02*
X6142856Y13664229D01*
X6142856Y13664229D02*
X6190475Y13568991D01*
X6190475Y13568991D02*
X6190475Y13045181D01*
X6190475Y13568991D02*
X6238094Y13664229D01*
X6238094Y13664229D02*
X6333332Y13711848D01*
X6333332Y13711848D02*
X6476189Y13711848D01*
X6476189Y13711848D02*
X6571428Y13664229D01*
X6571428Y13664229D02*
X6619047Y13568991D01*
X6619047Y13568991D02*
X6619047Y13045181D01*
D10*
X-1655258Y-12428571D02*
X-1655258Y-11742857D01*
X-455258Y-12085714D02*
X-1655258Y-12085714D01*
X-455258Y-10828571D02*
X-1083829Y-10828571D01*
X-1083829Y-10828571D02*
X-1198115Y-10885713D01*
X-1198115Y-10885713D02*
X-1255258Y-10999999D01*
X-1255258Y-10999999D02*
X-1255258Y-11228571D01*
X-1255258Y-11228571D02*
X-1198115Y-11342856D01*
X-512400Y-10828571D02*
X-455258Y-10942856D01*
X-455258Y-10942856D02*
X-455258Y-11228571D01*
X-455258Y-11228571D02*
X-512400Y-11342856D01*
X-512400Y-11342856D02*
X-626686Y-11399999D01*
X-626686Y-11399999D02*
X-740972Y-11399999D01*
X-740972Y-11399999D02*
X-855258Y-11342856D01*
X-855258Y-11342856D02*
X-912400Y-11228571D01*
X-912400Y-11228571D02*
X-912400Y-10942856D01*
X-912400Y-10942856D02*
X-969543Y-10828571D01*
X-455258Y-10257142D02*
X-1655258Y-10257142D01*
X-1198115Y-10257142D02*
X-1255258Y-10142857D01*
X-1255258Y-10142857D02*
X-1255258Y-9914285D01*
X-1255258Y-9914285D02*
X-1198115Y-9799999D01*
X-1198115Y-9799999D02*
X-1140972Y-9742857D01*
X-1140972Y-9742857D02*
X-1026686Y-9685714D01*
X-1026686Y-9685714D02*
X-683829Y-9685714D01*
X-683829Y-9685714D02*
X-569543Y-9742857D01*
X-569543Y-9742857D02*
X-512400Y-9799999D01*
X-512400Y-9799999D02*
X-455258Y-9914285D01*
X-455258Y-9914285D02*
X-455258Y-10142857D01*
X-455258Y-10142857D02*
X-512400Y-10257142D01*
D11*
X-6619047Y-13954819D02*
X-6619047Y-12954819D01*
X-6047619Y-13954819D02*
X-6476190Y-13383390D01*
X-6047619Y-12954819D02*
X-6619047Y-13526247D01*
X-5619047Y-13954819D02*
X-5619047Y-12954819D01*
X-5142857Y-13954819D02*
X-5142857Y-12954819D01*
X-4571429Y-13954819D02*
X-5000000Y-13383390D01*
X-4571429Y-12954819D02*
X-5142857Y-13526247D01*
X-4142857Y-13954819D02*
X-4142857Y-12954819D01*
X-3809524Y-12954819D02*
X-3238096Y-12954819D01*
X-3523810Y-13954819D02*
X-3523810Y-12954819D01*
X-2904762Y-13859580D02*
X-2857143Y-13907200D01*
X-2857143Y-13907200D02*
X-2904762Y-13954819D01*
X-2904762Y-13954819D02*
X-2952381Y-13907200D01*
X-2952381Y-13907200D02*
X-2904762Y-13859580D01*
X-2904762Y-13859580D02*
X-2904762Y-13954819D01*
X-2904762Y-13335771D02*
X-2857143Y-13383390D01*
X-2857143Y-13383390D02*
X-2904762Y-13431009D01*
X-2904762Y-13431009D02*
X-2952381Y-13383390D01*
X-2952381Y-13383390D02*
X-2904762Y-13335771D01*
X-2904762Y-13335771D02*
X-2904762Y-13431009D01*
X-1761905Y-13288152D02*
X-1571429Y-13954819D01*
X-1571429Y-13954819D02*
X-1380953Y-13478628D01*
X-1380953Y-13478628D02*
X-1190477Y-13954819D01*
X-1190477Y-13954819D02*
X-1000001Y-13288152D01*
X-619048Y-13954819D02*
X-619048Y-13288152D01*
X-619048Y-12954819D02*
X-666667Y-13002438D01*
X-666667Y-13002438D02*
X-619048Y-13050057D01*
X-619048Y-13050057D02*
X-571429Y-13002438D01*
X-571429Y-13002438D02*
X-619048Y-12954819D01*
X-619048Y-12954819D02*
X-619048Y-13050057D01*
X285713Y-13954819D02*
X285713Y-12954819D01*
X285713Y-13907200D02*
X190475Y-13954819D01*
X190475Y-13954819D02*
X-1Y-13954819D01*
X-1Y-13954819D02*
X-95239Y-13907200D01*
X-95239Y-13907200D02*
X-142858Y-13859580D01*
X-142858Y-13859580D02*
X-190477Y-13764342D01*
X-190477Y-13764342D02*
X-190477Y-13478628D01*
X-190477Y-13478628D02*
X-142858Y-13383390D01*
X-142858Y-13383390D02*
X-95239Y-13335771D01*
X-95239Y-13335771D02*
X-1Y-13288152D01*
X-1Y-13288152D02*
X190475Y-13288152D01*
X190475Y-13288152D02*
X285713Y-13335771D01*
X619047Y-13288152D02*
X999999Y-13288152D01*
X761904Y-12954819D02*
X761904Y-13811961D01*
X761904Y-13811961D02*
X809523Y-13907200D01*
X809523Y-13907200D02*
X904761Y-13954819D01*
X904761Y-13954819D02*
X999999Y-13954819D01*
X1333333Y-13954819D02*
X1333333Y-12954819D01*
X1761904Y-13954819D02*
X1761904Y-13431009D01*
X1761904Y-13431009D02*
X1714285Y-13335771D01*
X1714285Y-13335771D02*
X1619047Y-13288152D01*
X1619047Y-13288152D02*
X1476190Y-13288152D01*
X1476190Y-13288152D02*
X1380952Y-13335771D01*
X1380952Y-13335771D02*
X1333333Y-13383390D01*
X2238095Y-13859580D02*
X2285714Y-13907200D01*
X2285714Y-13907200D02*
X2238095Y-13954819D01*
X2238095Y-13954819D02*
X2190476Y-13907200D01*
X2190476Y-13907200D02*
X2238095Y-13859580D01*
X2238095Y-13859580D02*
X2238095Y-13954819D01*
X2238095Y-13335771D02*
X2285714Y-13383390D01*
X2285714Y-13383390D02*
X2238095Y-13431009D01*
X2238095Y-13431009D02*
X2190476Y-13383390D01*
X2190476Y-13383390D02*
X2238095Y-13335771D01*
X2238095Y-13335771D02*
X2238095Y-13431009D01*
X3904761Y-13288152D02*
X3904761Y-13954819D01*
X3666666Y-12907200D02*
X3428571Y-13621485D01*
X3428571Y-13621485D02*
X4047618Y-13621485D01*
X4428571Y-13954819D02*
X4428571Y-13288152D01*
X4428571Y-13383390D02*
X4476190Y-13335771D01*
X4476190Y-13335771D02*
X4571428Y-13288152D01*
X4571428Y-13288152D02*
X4714285Y-13288152D01*
X4714285Y-13288152D02*
X4809523Y-13335771D01*
X4809523Y-13335771D02*
X4857142Y-13431009D01*
X4857142Y-13431009D02*
X4857142Y-13954819D01*
X4857142Y-13431009D02*
X4904761Y-13335771D01*
X4904761Y-13335771D02*
X4999999Y-13288152D01*
X4999999Y-13288152D02*
X5142856Y-13288152D01*
X5142856Y-13288152D02*
X5238095Y-13335771D01*
X5238095Y-13335771D02*
X5285714Y-13431009D01*
X5285714Y-13431009D02*
X5285714Y-13954819D01*
X5761904Y-13954819D02*
X5761904Y-13288152D01*
X5761904Y-13383390D02*
X5809523Y-13335771D01*
X5809523Y-13335771D02*
X5904761Y-13288152D01*
X5904761Y-13288152D02*
X6047618Y-13288152D01*
X6047618Y-13288152D02*
X6142856Y-13335771D01*
X6142856Y-13335771D02*
X6190475Y-13431009D01*
X6190475Y-13431009D02*
X6190475Y-13954819D01*
X6190475Y-13431009D02*
X6238094Y-13335771D01*
X6238094Y-13335771D02*
X6333332Y-13288152D01*
X6333332Y-13288152D02*
X6476189Y-13288152D01*
X6476189Y-13288152D02*
X6571428Y-13335771D01*
X6571428Y-13335771D02*
X6619047Y-13431009D01*
X6619047Y-13431009D02*
X6619047Y-13954819D01*
D10*
X11571428Y6905258D02*
X12257143Y6905258D01*
X11914285Y5705258D02*
X11914285Y6905258D01*
X13171429Y5705258D02*
X13171429Y6333829D01*
X13171429Y6333829D02*
X13114286Y6448115D01*
X13114286Y6448115D02*
X13000000Y6505258D01*
X13000000Y6505258D02*
X12771429Y6505258D01*
X12771429Y6505258D02*
X12657143Y6448115D01*
X13171429Y5762400D02*
X13057143Y5705258D01*
X13057143Y5705258D02*
X12771429Y5705258D01*
X12771429Y5705258D02*
X12657143Y5762400D01*
X12657143Y5762400D02*
X12600000Y5876686D01*
X12600000Y5876686D02*
X12600000Y5990972D01*
X12600000Y5990972D02*
X12657143Y6105258D01*
X12657143Y6105258D02*
X12771429Y6162400D01*
X12771429Y6162400D02*
X13057143Y6162400D01*
X13057143Y6162400D02*
X13171429Y6219543D01*
X13742857Y5705258D02*
X13742857Y6905258D01*
X13742857Y6448115D02*
X13857143Y6505258D01*
X13857143Y6505258D02*
X14085714Y6505258D01*
X14085714Y6505258D02*
X14200000Y6448115D01*
X14200000Y6448115D02*
X14257143Y6390972D01*
X14257143Y6390972D02*
X14314285Y6276686D01*
X14314285Y6276686D02*
X14314285Y5933829D01*
X14314285Y5933829D02*
X14257143Y5819543D01*
X14257143Y5819543D02*
X14200000Y5762400D01*
X14200000Y5762400D02*
X14085714Y5705258D01*
X14085714Y5705258D02*
X13857143Y5705258D01*
X13857143Y5705258D02*
X13742857Y5762400D01*
D11*
X15954819Y-83331D02*
X14954819Y-83331D01*
X15954819Y488097D02*
X15383390Y59526D01*
X14954819Y488097D02*
X15526247Y-83331D01*
X15954819Y916669D02*
X14954819Y916669D01*
X15954819Y1392859D02*
X14954819Y1392859D01*
X15954819Y1964287D02*
X15383390Y1535716D01*
X14954819Y1964287D02*
X15526247Y1392859D01*
X15954819Y2392859D02*
X14954819Y2392859D01*
X14954819Y2726192D02*
X14954819Y3297620D01*
X15954819Y3011906D02*
X14954819Y3011906D01*
X15859580Y3630954D02*
X15907200Y3678573D01*
X15907200Y3678573D02*
X15954819Y3630954D01*
X15954819Y3630954D02*
X15907200Y3583335D01*
X15907200Y3583335D02*
X15859580Y3630954D01*
X15859580Y3630954D02*
X15954819Y3630954D01*
X15335771Y3630954D02*
X15383390Y3678573D01*
X15383390Y3678573D02*
X15431009Y3630954D01*
X15431009Y3630954D02*
X15383390Y3583335D01*
X15383390Y3583335D02*
X15335771Y3630954D01*
X15335771Y3630954D02*
X15431009Y3630954D01*
X15288152Y4773811D02*
X15954819Y4964287D01*
X15954819Y4964287D02*
X15478628Y5154763D01*
X15478628Y5154763D02*
X15954819Y5345239D01*
X15954819Y5345239D02*
X15288152Y5535715D01*
X15954819Y5916668D02*
X15288152Y5916668D01*
X14954819Y5916668D02*
X15002438Y5869049D01*
X15002438Y5869049D02*
X15050057Y5916668D01*
X15050057Y5916668D02*
X15002438Y5964287D01*
X15002438Y5964287D02*
X14954819Y5916668D01*
X14954819Y5916668D02*
X15050057Y5916668D01*
X15954819Y6821429D02*
X14954819Y6821429D01*
X15907200Y6821429D02*
X15954819Y6726191D01*
X15954819Y6726191D02*
X15954819Y6535715D01*
X15954819Y6535715D02*
X15907200Y6440477D01*
X15907200Y6440477D02*
X15859580Y6392858D01*
X15859580Y6392858D02*
X15764342Y6345239D01*
X15764342Y6345239D02*
X15478628Y6345239D01*
X15478628Y6345239D02*
X15383390Y6392858D01*
X15383390Y6392858D02*
X15335771Y6440477D01*
X15335771Y6440477D02*
X15288152Y6535715D01*
X15288152Y6535715D02*
X15288152Y6726191D01*
X15288152Y6726191D02*
X15335771Y6821429D01*
X15288152Y7154763D02*
X15288152Y7535715D01*
X14954819Y7297620D02*
X15811961Y7297620D01*
X15811961Y7297620D02*
X15907200Y7345239D01*
X15907200Y7345239D02*
X15954819Y7440477D01*
X15954819Y7440477D02*
X15954819Y7535715D01*
X15954819Y7869049D02*
X14954819Y7869049D01*
X15954819Y8297620D02*
X15431009Y8297620D01*
X15431009Y8297620D02*
X15335771Y8250001D01*
X15335771Y8250001D02*
X15288152Y8154763D01*
X15288152Y8154763D02*
X15288152Y8011906D01*
X15288152Y8011906D02*
X15335771Y7916668D01*
X15335771Y7916668D02*
X15383390Y7869049D01*
X15859580Y8773811D02*
X15907200Y8821430D01*
X15907200Y8821430D02*
X15954819Y8773811D01*
X15954819Y8773811D02*
X15907200Y8726192D01*
X15907200Y8726192D02*
X15859580Y8773811D01*
X15859580Y8773811D02*
X15954819Y8773811D01*
X15335771Y8773811D02*
X15383390Y8821430D01*
X15383390Y8821430D02*
X15431009Y8773811D01*
X15431009Y8773811D02*
X15383390Y8726192D01*
X15383390Y8726192D02*
X15335771Y8773811D01*
X15335771Y8773811D02*
X15431009Y8773811D01*
X15954819Y10535715D02*
X15954819Y9964287D01*
X15954819Y10250001D02*
X14954819Y10250001D01*
X14954819Y10250001D02*
X15097676Y10154763D01*
X15097676Y10154763D02*
X15192914Y10059525D01*
X15192914Y10059525D02*
X15240533Y9964287D01*
X15859580Y10964287D02*
X15907200Y11011906D01*
X15907200Y11011906D02*
X15954819Y10964287D01*
X15954819Y10964287D02*
X15907200Y10916668D01*
X15907200Y10916668D02*
X15859580Y10964287D01*
X15859580Y10964287D02*
X15954819Y10964287D01*
X14954819Y11916667D02*
X14954819Y11440477D01*
X14954819Y11440477D02*
X15431009Y11392858D01*
X15431009Y11392858D02*
X15383390Y11440477D01*
X15383390Y11440477D02*
X15335771Y11535715D01*
X15335771Y11535715D02*
X15335771Y11773810D01*
X15335771Y11773810D02*
X15383390Y11869048D01*
X15383390Y11869048D02*
X15431009Y11916667D01*
X15431009Y11916667D02*
X15526247Y11964286D01*
X15526247Y11964286D02*
X15764342Y11964286D01*
X15764342Y11964286D02*
X15859580Y11916667D01*
X15859580Y11916667D02*
X15907200Y11869048D01*
X15907200Y11869048D02*
X15954819Y11773810D01*
X15954819Y11773810D02*
X15954819Y11535715D01*
X15954819Y11535715D02*
X15907200Y11440477D01*
X15907200Y11440477D02*
X15859580Y11392858D01*
X15954819Y12392858D02*
X15288152Y12392858D01*
X15383390Y12392858D02*
X15335771Y12440477D01*
X15335771Y12440477D02*
X15288152Y12535715D01*
X15288152Y12535715D02*
X15288152Y12678572D01*
X15288152Y12678572D02*
X15335771Y12773810D01*
X15335771Y12773810D02*
X15431009Y12821429D01*
X15431009Y12821429D02*
X15954819Y12821429D01*
X15431009Y12821429D02*
X15335771Y12869048D01*
X15335771Y12869048D02*
X15288152Y12964286D01*
X15288152Y12964286D02*
X15288152Y13107143D01*
X15288152Y13107143D02*
X15335771Y13202382D01*
X15335771Y13202382D02*
X15431009Y13250001D01*
X15431009Y13250001D02*
X15954819Y13250001D01*
X15954819Y13726191D02*
X15288152Y13726191D01*
X15383390Y13726191D02*
X15335771Y13773810D01*
X15335771Y13773810D02*
X15288152Y13869048D01*
X15288152Y13869048D02*
X15288152Y14011905D01*
X15288152Y14011905D02*
X15335771Y14107143D01*
X15335771Y14107143D02*
X15431009Y14154762D01*
X15431009Y14154762D02*
X15954819Y14154762D01*
X15431009Y14154762D02*
X15335771Y14202381D01*
X15335771Y14202381D02*
X15288152Y14297619D01*
X15288152Y14297619D02*
X15288152Y14440476D01*
X15288152Y14440476D02*
X15335771Y14535715D01*
X15335771Y14535715D02*
X15431009Y14583334D01*
X15431009Y14583334D02*
X15954819Y14583334D01*
D10*
X-14428572Y8905258D02*
X-13742857Y8905258D01*
X-14085715Y7705258D02*
X-14085715Y8905258D01*
X-12828571Y7705258D02*
X-12828571Y8333829D01*
X-12828571Y8333829D02*
X-12885714Y8448115D01*
X-12885714Y8448115D02*
X-13000000Y8505258D01*
X-13000000Y8505258D02*
X-13228571Y8505258D01*
X-13228571Y8505258D02*
X-13342857Y8448115D01*
X-12828571Y7762400D02*
X-12942857Y7705258D01*
X-12942857Y7705258D02*
X-13228571Y7705258D01*
X-13228571Y7705258D02*
X-13342857Y7762400D01*
X-13342857Y7762400D02*
X-13400000Y7876686D01*
X-13400000Y7876686D02*
X-13400000Y7990972D01*
X-13400000Y7990972D02*
X-13342857Y8105258D01*
X-13342857Y8105258D02*
X-13228571Y8162400D01*
X-13228571Y8162400D02*
X-12942857Y8162400D01*
X-12942857Y8162400D02*
X-12828571Y8219543D01*
X-12257143Y7705258D02*
X-12257143Y8905258D01*
X-12257143Y8448115D02*
X-12142857Y8505258D01*
X-12142857Y8505258D02*
X-11914286Y8505258D01*
X-11914286Y8505258D02*
X-11800000Y8448115D01*
X-11800000Y8448115D02*
X-11742857Y8390972D01*
X-11742857Y8390972D02*
X-11685715Y8276686D01*
X-11685715Y8276686D02*
X-11685715Y7933829D01*
X-11685715Y7933829D02*
X-11742857Y7819543D01*
X-11742857Y7819543D02*
X-11800000Y7762400D01*
X-11800000Y7762400D02*
X-11914286Y7705258D01*
X-11914286Y7705258D02*
X-12142857Y7705258D01*
X-12142857Y7705258D02*
X-12257143Y7762400D01*
D11*
X-15045181Y-83331D02*
X-16045181Y-83331D01*
X-15045181Y488097D02*
X-15616610Y59526D01*
X-16045181Y488097D02*
X-15473753Y-83331D01*
X-15045181Y916669D02*
X-16045181Y916669D01*
X-15045181Y1392859D02*
X-16045181Y1392859D01*
X-15045181Y1964287D02*
X-15616610Y1535716D01*
X-16045181Y1964287D02*
X-15473753Y1392859D01*
X-15045181Y2392859D02*
X-16045181Y2392859D01*
X-16045181Y2726192D02*
X-16045181Y3297620D01*
X-15045181Y3011906D02*
X-16045181Y3011906D01*
X-15140420Y3630954D02*
X-15092800Y3678573D01*
X-15092800Y3678573D02*
X-15045181Y3630954D01*
X-15045181Y3630954D02*
X-15092800Y3583335D01*
X-15092800Y3583335D02*
X-15140420Y3630954D01*
X-15140420Y3630954D02*
X-15045181Y3630954D01*
X-15664229Y3630954D02*
X-15616610Y3678573D01*
X-15616610Y3678573D02*
X-15568991Y3630954D01*
X-15568991Y3630954D02*
X-15616610Y3583335D01*
X-15616610Y3583335D02*
X-15664229Y3630954D01*
X-15664229Y3630954D02*
X-15568991Y3630954D01*
X-15711848Y4773811D02*
X-15045181Y4964287D01*
X-15045181Y4964287D02*
X-15521372Y5154763D01*
X-15521372Y5154763D02*
X-15045181Y5345239D01*
X-15045181Y5345239D02*
X-15711848Y5535715D01*
X-15045181Y5916668D02*
X-15711848Y5916668D01*
X-16045181Y5916668D02*
X-15997562Y5869049D01*
X-15997562Y5869049D02*
X-15949943Y5916668D01*
X-15949943Y5916668D02*
X-15997562Y5964287D01*
X-15997562Y5964287D02*
X-16045181Y5916668D01*
X-16045181Y5916668D02*
X-15949943Y5916668D01*
X-15045181Y6821429D02*
X-16045181Y6821429D01*
X-15092800Y6821429D02*
X-15045181Y6726191D01*
X-15045181Y6726191D02*
X-15045181Y6535715D01*
X-15045181Y6535715D02*
X-15092800Y6440477D01*
X-15092800Y6440477D02*
X-15140420Y6392858D01*
X-15140420Y6392858D02*
X-15235658Y6345239D01*
X-15235658Y6345239D02*
X-15521372Y6345239D01*
X-15521372Y6345239D02*
X-15616610Y6392858D01*
X-15616610Y6392858D02*
X-15664229Y6440477D01*
X-15664229Y6440477D02*
X-15711848Y6535715D01*
X-15711848Y6535715D02*
X-15711848Y6726191D01*
X-15711848Y6726191D02*
X-15664229Y6821429D01*
X-15711848Y7154763D02*
X-15711848Y7535715D01*
X-16045181Y7297620D02*
X-15188039Y7297620D01*
X-15188039Y7297620D02*
X-15092800Y7345239D01*
X-15092800Y7345239D02*
X-15045181Y7440477D01*
X-15045181Y7440477D02*
X-15045181Y7535715D01*
X-15045181Y7869049D02*
X-16045181Y7869049D01*
X-15045181Y8297620D02*
X-15568991Y8297620D01*
X-15568991Y8297620D02*
X-15664229Y8250001D01*
X-15664229Y8250001D02*
X-15711848Y8154763D01*
X-15711848Y8154763D02*
X-15711848Y8011906D01*
X-15711848Y8011906D02*
X-15664229Y7916668D01*
X-15664229Y7916668D02*
X-15616610Y7869049D01*
X-15140420Y8773811D02*
X-15092800Y8821430D01*
X-15092800Y8821430D02*
X-15045181Y8773811D01*
X-15045181Y8773811D02*
X-15092800Y8726192D01*
X-15092800Y8726192D02*
X-15140420Y8773811D01*
X-15140420Y8773811D02*
X-15045181Y8773811D01*
X-15664229Y8773811D02*
X-15616610Y8821430D01*
X-15616610Y8821430D02*
X-15568991Y8773811D01*
X-15568991Y8773811D02*
X-15616610Y8726192D01*
X-15616610Y8726192D02*
X-15664229Y8773811D01*
X-15664229Y8773811D02*
X-15568991Y8773811D01*
X-15045181Y10535715D02*
X-15045181Y9964287D01*
X-15045181Y10250001D02*
X-16045181Y10250001D01*
X-16045181Y10250001D02*
X-15902324Y10154763D01*
X-15902324Y10154763D02*
X-15807086Y10059525D01*
X-15807086Y10059525D02*
X-15759467Y9964287D01*
X-15140420Y10964287D02*
X-15092800Y11011906D01*
X-15092800Y11011906D02*
X-15045181Y10964287D01*
X-15045181Y10964287D02*
X-15092800Y10916668D01*
X-15092800Y10916668D02*
X-15140420Y10964287D01*
X-15140420Y10964287D02*
X-15045181Y10964287D01*
X-16045181Y11916667D02*
X-16045181Y11440477D01*
X-16045181Y11440477D02*
X-15568991Y11392858D01*
X-15568991Y11392858D02*
X-15616610Y11440477D01*
X-15616610Y11440477D02*
X-15664229Y11535715D01*
X-15664229Y11535715D02*
X-15664229Y11773810D01*
X-15664229Y11773810D02*
X-15616610Y11869048D01*
X-15616610Y11869048D02*
X-15568991Y11916667D01*
X-15568991Y11916667D02*
X-15473753Y11964286D01*
X-15473753Y11964286D02*
X-15235658Y11964286D01*
X-15235658Y11964286D02*
X-15140420Y11916667D01*
X-15140420Y11916667D02*
X-15092800Y11869048D01*
X-15092800Y11869048D02*
X-15045181Y11773810D01*
X-15045181Y11773810D02*
X-15045181Y11535715D01*
X-15045181Y11535715D02*
X-15092800Y11440477D01*
X-15092800Y11440477D02*
X-15140420Y11392858D01*
X-15045181Y12392858D02*
X-15711848Y12392858D01*
X-15616610Y12392858D02*
X-15664229Y12440477D01*
X-15664229Y12440477D02*
X-15711848Y12535715D01*
X-15711848Y12535715D02*
X-15711848Y12678572D01*
X-15711848Y12678572D02*
X-15664229Y12773810D01*
X-15664229Y12773810D02*
X-15568991Y12821429D01*
X-15568991Y12821429D02*
X-15045181Y12821429D01*
X-15568991Y12821429D02*
X-15664229Y12869048D01*
X-15664229Y12869048D02*
X-15711848Y12964286D01*
X-15711848Y12964286D02*
X-15711848Y13107143D01*
X-15711848Y13107143D02*
X-15664229Y13202382D01*
X-15664229Y13202382D02*
X-15568991Y13250001D01*
X-15568991Y13250001D02*
X-15045181Y13250001D01*
X-15045181Y13726191D02*
X-15711848Y13726191D01*
X-15616610Y13726191D02*
X-15664229Y13773810D01*
X-15664229Y13773810D02*
X-15711848Y13869048D01*
X-15711848Y13869048D02*
X-15711848Y14011905D01*
X-15711848Y14011905D02*
X-15664229Y14107143D01*
X-15664229Y14107143D02*
X-15568991Y14154762D01*
X-15568991Y14154762D02*
X-15045181Y14154762D01*
X-15568991Y14154762D02*
X-15664229Y14202381D01*
X-15664229Y14202381D02*
X-15711848Y14297619D01*
X-15711848Y14297619D02*
X-15711848Y14440476D01*
X-15711848Y14440476D02*
X-15664229Y14535715D01*
X-15664229Y14535715D02*
X-15568991Y14583334D01*
X-15568991Y14583334D02*
X-15045181Y14583334D01*
D12*
%TO.C,REF\u002A\u002A*%
X-10000000Y-7250000D02*
X-13000000Y-7250000D01*
X-10000000Y-7250000D02*
X-11000000Y-6250000D01*
X-10000000Y-7250000D02*
X-11000000Y-8250000D01*
X-10000000Y-8250000D02*
X-10000000Y-6250000D01*
X10000000Y-6250000D02*
X10000000Y-8250000D01*
X10000000Y-7250000D02*
X11000000Y-6250000D01*
X10000000Y-7250000D02*
X11000000Y-8250000D01*
X10000000Y-7250000D02*
X13000000Y-7250000D01*
X-1000000Y8000000D02*
X1000000Y8000000D01*
X0Y8000000D02*
X-1000000Y9000000D01*
X0Y8000000D02*
X0Y11000000D01*
X0Y8000000D02*
X1000000Y9000000D01*
X0Y-8000000D02*
X-1000000Y-9000000D01*
X0Y-8000000D02*
X0Y-11000000D01*
X0Y-8000000D02*
X1000000Y-9000000D01*
X1000000Y-8000000D02*
X-1000000Y-8000000D01*
X10000000Y8250000D02*
X10000000Y6250000D01*
X10000000Y7250000D02*
X11000000Y8250000D01*
X10000000Y7250000D02*
X11000000Y6250000D01*
X10000000Y7250000D02*
X13000000Y7250000D01*
X-10000000Y7250000D02*
X-13000000Y7250000D01*
X-10000000Y7250000D02*
X-11000000Y8250000D01*
X-10000000Y7250000D02*
X-11000000Y6250000D01*
X-10000000Y6250000D02*
X-10000000Y8250000D01*
%TD*%
M02*
