M48
; DRILL file {KiCad 8.0.9-8.0.9-0~ubuntu24.04.1} date 2025-07-20T11:06:24-0400
; FORMAT={-:-/ absolute / metric / decimal}
; #@! TF.CreationDate,2025-07-20T11:06:24-04:00
; #@! TF.GenerationSoftware,Kicad,Pcbnew,8.0.9-8.0.9-0~ubuntu24.04.1
; #@! TF.FileFunction,MixedPlating,1,2
FMAT,2
METRIC
; #@! TA.AperFunction,Plated,PTH,ViaDrill
T1C0.300
; #@! TA.AperFunction,Plated,PTH,ComponentDrill
T2C1.270
%
G90
G05
T1
X-9.1Y-2.5
X-9.0Y-0.5
X-8.8Y2.5
X-8.7Y4.5
X-8.7Y3.2
X-8.7Y-1.15
X-8.7Y-1.9
X-7.9Y4.1
X-7.6Y-1.6
X-7.438Y0.65
X-7.0Y3.5
X-7.0Y2.4
X-6.9Y-2.2
X-6.9Y-3.5
X-6.75Y-0.6
X-6.25Y0.65
X-0.882Y-6.155
X-0.625Y7.025
X-0.596Y5.516
X-0.55Y6.3
X0.05Y-6.2
X1.05Y-6.1
X1.85Y-6.1
X3.706Y-3.126
X4.3Y1.55
X4.3Y-3.75
X4.35Y2.55
X4.495Y-5.136
X5.15Y-2.9
X5.2Y6.85
X5.2Y5.5
X5.4Y-0.6
X6.0Y-4.1
X6.05Y1.55
X6.1Y-0.6
X6.9Y-1.3
X6.95Y6.2
X7.2Y4.4
X7.2Y3.35
X7.25Y-6.25
X7.25Y-6.9
X8.6Y-1.35
X8.66Y6.15
X8.875Y4.875
X8.975Y-5.875
X9.0Y2.75
X9.05Y-6.85
X9.2Y5.5
X9.2Y0.0
X9.2Y-2.6
T2
X-10.0Y3.81
X-10.0Y1.27
X-10.0Y-1.27
X-10.0Y-3.81
X10.0Y3.81
X10.0Y1.27
X10.0Y-1.27
X10.0Y-3.81
M30
